<svg xmlns="http://www.w3.org/2000/svg" style="display: none;">
  <symbol id="checkmark-circle" viewBox="0 0 20 20">
    <path d="M10 1.25C8.26942 1.25 6.57769 1.76318 5.13876 2.72464C3.69983 3.6861 2.57832 5.05267 1.91606 6.65152C1.25379 8.25037 1.08051 10.0097 1.41813 11.707C1.75575 13.4044 2.58911 14.9635 3.81282 16.1872C5.03653 17.4109 6.59563 18.2442 8.29296 18.5819C9.9903 18.9195 11.7496 18.7462 13.3485 18.0839C14.9473 17.4217 16.3139 16.3002 17.2754 14.8612C18.2368 13.4223 18.75 11.7306 18.75 10C18.75 7.67936 17.8281 5.45376 16.1872 3.81282C14.5462 2.17187 12.3206 1.25 10 1.25ZM10 17.5C8.51664 17.5 7.0666 17.0601 5.83323 16.236C4.59986 15.4119 3.63856 14.2406 3.07091 12.8701C2.50325 11.4997 2.35473 9.99168 2.64411 8.53682C2.9335 7.08197 3.64781 5.74559 4.6967 4.6967C5.7456 3.64781 7.08197 2.9335 8.53683 2.64411C9.99168 2.35472 11.4997 2.50325 12.8701 3.0709C14.2406 3.63856 15.4119 4.59985 16.236 5.83322C17.0601 7.06659 17.5 8.51664 17.5 10C17.5 11.9891 16.7098 13.8968 15.3033 15.3033C13.8968 16.7098 11.9891 17.5 10 17.5Z" fill="black" fill-opacity="0.8"/>
    <path fill-rule="evenodd" clip-rule="evenodd" d="M14.1919 7.05821C14.436 7.30229 14.436 7.69802 14.1919 7.94209L9.19194 12.9421C8.94786 13.1862 8.55214 13.1862 8.30806 12.9421L5.80806 10.4421C5.56398 10.198 5.56398 9.80229 5.80806 9.55821C6.05214 9.31413 6.44786 9.31413 6.69194 9.55821L8.75 11.6163L13.3081 7.05821C13.5521 6.81413 13.9479 6.81413 14.1919 7.05821Z" fill="black" fill-opacity="0.8"/>
  </symbol>
  <symbol id="documentapplication" viewBox="0 0 32 32">
    <path d="M10 14C9.44772 14 9 14.4477 9 15C9 15.5523 9.44772 16 10 16H22C22.5523 16 23 15.5523 23 15C23 14.4477 22.5523 14 22 14H10Z"/>
    <path d="M9 19C9 18.4477 9.44772 18 10 18H18C18.5523 18 19 18.4477 19 19C19 19.5523 18.5523 20 18 20H10C9.44772 20 9 19.5523 9 19Z"/>
    <path d="M10 22C9.44772 22 9 22.4477 9 23C9 23.5523 9.44772 24 10 24H16C16.5523 24 17 23.5523 17 23C17 22.4477 16.5523 22 16 22H10Z"/>
    <path fill-rule="evenodd" clip-rule="evenodd" d="M19 2C20.3062 2 21.4175 2.83481 21.8293 4H23C25.2091 4 27 5.79086 27 8V26C27 28.2091 25.2091 30 23 30H9C6.79086 30 5 28.2091 5 26V8C5 5.79086 6.79086 4 9 4H10.1707C10.5825 2.83481 11.6938 2 13 2H19ZM12 5C12 4.44772 12.4477 4 13 4H19C19.5523 4 20 4.44772 20 5C20 5.55228 19.5523 6 19 6H13C12.4477 6 12 5.55228 12 5ZM19 8C20.3062 8 21.4175 7.16519 21.8293 6H23C24.1046 6 25 6.89543 25 8V26C25 27.1046 24.1046 28 23 28H9C7.89543 28 7 27.1046 7 26V8C7 6.89543 7.89543 6 9 6H10.1707C10.5825 7.16519 11.6938 8 13 8H19Z"/>
  </symbol>
  <symbol id="newdocument" viewBox="0 0 16 16">
    <path d="M14.7826 3.26359C15.1313 2.69123 15.0606 1.93115 14.5705 1.43492C14.0757 0.933932 13.3153 0.865765 12.7483 1.23041C13.2123 2.09277 13.9198 2.79999 14.7826 3.26359Z"/>
    <path d="M11.8171 2.11829L6.78472 7.18C7.77457 7.47517 8.57699 8.21908 8.95006 9.18198L13.9064 4.20208C13.0535 3.68436 12.3369 2.9696 11.8171 2.11829Z"/>
    <path d="M7.91486 10.1761C7.80538 9.1186 6.91913 8.30487 5.8592 8.29183C5.53827 8.92804 5.21105 9.90848 5.01729 10.5311C4.93355 10.8002 5.16675 11.0527 5.44262 10.9905C6.16831 10.8268 7.36057 10.5217 7.91486 10.1761Z"/>
    <path d="M4.75 2C2.67893 2 1 3.67893 1 5.75V11.25C1 13.3211 2.67893 15 4.75 15H10.2501C12.3212 15 14.0001 13.3211 14.0001 11.25V8C14.0001 7.58579 13.6643 7.25 13.2501 7.25C12.8359 7.25 12.5001 7.58579 12.5001 8V11.25C12.5001 12.4926 11.4927 13.5 10.2501 13.5H4.75C3.50736 13.5 2.5 12.4926 2.5 11.25V5.75C2.5 4.50736 3.50736 3.5 4.75 3.5H7C7.41421 3.5 7.75 3.16421 7.75 2.75C7.75 2.33579 7.41421 2 7 2H4.75Z"/>
  </symbol>
  <symbol id="document" viewBox="0 0 24 24">
    <path d="M21.2,7.9c0-0.1,0-0.1,0-0.2c0-0.1-0.1-0.1-0.1-0.1c0,0,0-0.1-0.1-0.1l-5.5-6c0,0,0,0,0,0c0,0-0.1-0.1-0.1-0.1c0,0-0.1-0.1-0.1-0.1c0,0-0.1,0-0.1,0c-0.1,0-0.1,0-0.2,0c0,0,0,0,0,0H6.5C6.1,1.2,5.8,1.6,5.8,2v17c0,0.4,0.3,0.8,0.8,0.8h14c0.4,0,0.8-0.3,0.8-0.8V8C21.2,8,21.2,7.9,21.2,7.9z M15.8,3.9l3,3.3h-3V3.9z M19.8,18.2H7.2V2.8h7V8c0,0.4,0.3,0.8,0.8,0.8h4.8V18.2z"/>
    <path d="M14,21.2H4.2V10c0-0.4-0.3-0.8-0.8-0.8S2.8,9.6,2.8,10v12c0,0.4,0.3,0.8,0.8,0.8H14c0.4,0,0.8-0.3,0.8-0.8C14.8,21.6,14.4,21.2,14,21.2z"/>
    <path d="M9.5,10.8h2c0.4,0,0.8-0.3,0.8-0.8c0-0.4-0.3-0.8-0.8-0.8h-2c-0.4,0-0.8,0.3-0.8,0.8C8.8,10.4,9.1,10.8,9.5,10.8z"/>
    <path d="M8.8,14c0,0.4,0.3,0.8,0.8,0.8h6c0.4,0,0.8-0.3,0.8-0.8c0-0.4-0.3-0.8-0.8-0.8h-6C9.1,13.2,8.8,13.6,8.8,14z"/>
  </symbol>
  <symbol id="library" viewBox="0 0 24 24">
    <path d="M21,2.2h-5h-5c-0.4,0-0.8,0.3-0.8,0.8v18c0,0.4,0.3,0.8,0.8,0.8h5h5c0.4,0,0.8-0.3,0.8-0.8V3C21.8,2.6,21.4,2.2,21,2.2z M11.8,3.8h3.5v16.5h-3.5V3.8z M20.2,20.2h-3.5V3.8h3.5V20.2z"/>
    <path d="M9.1,2.8l-4-0.5c-0.2,0-0.4,0-0.6,0.2S4.3,2.7,4.3,2.9l-2,17.5c0,0.4,0.2,0.8,0.7,0.8l4.2,0.5c0.2,0,0.4,0,0.6-0.2C7.9,21.5,8,21.3,8,21.1L9.7,3.6C9.8,3.2,9.5,2.8,9.1,2.8z M6.6,20.2l-2.7-0.3l1.8-16l2.5,0.3L6.6,20.2z"/>
    <path d="M18.5,9.8c0.4,0,0.8-0.3,0.8-0.8V7.5c0-0.4-0.3-0.8-0.8-0.8s-0.8,0.3-0.8,0.8V9C17.8,9.4,18.1,9.8,18.5,9.8z"/>
    <path d="M13.5,6.8c-0.4,0-0.8,0.3-0.8,0.8V9c0,0.4,0.3,0.8,0.8,0.8s0.8-0.3,0.8-0.8V7.5C14.2,7.1,13.9,6.8,13.5,6.8z"/>
  </symbol>
  <symbol id="approvals" viewBox="0 0 14 14">
    <path d="M3 1H10C10.5523 1 11 1.44772 11 2V8.5C11 8.77614 11.2239 9 11.5 9C11.7761 9 12 8.77614 12 8.5V2C12 0.895431 11.1046 0 10 0H3C1.89543 0 1 0.89543 1 2V3H0.5C0.223858 3 0 3.22386 0 3.5C0 3.77614 0.223858 4 0.5 4H1V6.5H0.5C0.223858 6.5 0 6.72386 0 7C0 7.27614 0.223858 7.5 0.5 7.5H1V10H0.5C0.223858 10 0 10.2239 0 10.5C0 10.7761 0.223858 11 0.5 11H1V12C1 13.1046 1.89543 14 3 14H6.5C6.77614 14 7 13.7761 7 13.5C7 13.2239 6.77614 13 6.5 13H3C2.44772 13 2 12.5523 2 12V11H2.5C2.77614 11 3 10.7761 3 10.5C3 10.2239 2.77614 10 2.5 10H2V7.5H2.5C2.77614 7.5 3 7.27614 3 7C3 6.72386 2.77614 6.5 2.5 6.5H2V4H2.5C2.77614 4 3 3.77614 3 3.5C3 3.22386 2.77614 3 2.5 3H2V2C2 1.44772 2.44772 1 3 1Z"/>
    <path d="M8.5 3.00018H4.5C4.22386 3.00018 4 3.22404 4 3.50018C4 3.77633 4.22386 4.00018 4.5 4.00018H8.5C8.77614 4.00018 9 3.77633 9 3.50018C9 3.22404 8.77614 3.00018 8.5 3.00018Z" />
    <path d="M4.5 5.50018H8.5C8.77614 5.50018 9 5.72404 9 6.00018C9 6.27633 8.77614 6.50018 8.5 6.50018H4.5C4.22386 6.50018 4 6.27633 4 6.00018C4 5.72404 4.22386 5.50018 4.5 5.50018Z" />
    <path d="M4.5 8.00018H8.5C8.77614 8.00018 9 8.22404 9 8.50018C9 8.77633 8.77614 9.00018 8.5 9.00018H4.5C4.22386 9.00018 4 8.77633 4 8.50018C4 8.22404 4.22386 8.00018 4.5 8.00018Z" />
    <path d="M10.5 12.6002L9.2 11.3002L8.5 12.0002L10.5 14.0002L14 10.5002L13.3 9.80018L10.5 12.6002Z" />
  </symbol>

  <symbol id="state-approved" viewBox="0 0 14 14">
    <path d="M7,0C3.1,0,0,3.1,0,7c0,3.9,3.1,7,7,7c3.9,0,7-3.1,7-7C14,3.1,10.9,0,7,0z M7,12c-2.8,0-5-2.2-5-5s2.2-5,5-5s5,2.2,5,5S9.8,12,7,12z" />
  </symbol>
  <symbol id="state-draft" viewBox="0 0 14 14">
    <path d="M7,0C3.1,0,0,3.1,0,7c0,3.9,3.1,7,7,7c3.9,0,7-3.1,7-7C14,3.1,10.9,0,7,0z M7,12c-2.8,0-5-2.2-5-5s2.2-5,5-5s5,2.2,5,5S9.8,12,7,12z" />
    <path d="M7,7V3.5c1.9,0,3.5,1.6,3.5,3.5S8.9,10.5,7,10.5V7z" />
  </symbol>
  <symbol id="state-effective" viewBox="0 0 14 14">
    <path d="M7,0C3.1,0,0,3.1,0,7c0,3.9,3.1,7,7,7c3.9,0,7-3.1,7-7C14,3.1,10.9,0,7,0z M9.9,3.9c0.3-0.3,0.8-0.3,1.2,0l0,0c0.3,0.3,0.3,0.9,0,1.2l-5,5c-0.3,0.3-0.9,0.3-1.2,0l-2-2c-0.3-0.3-0.3-0.9,0-1.2c0.2-0.2,0.4-0.2,0.6-0.2s0.4,0.1,0.6,0.2l1.4,1.4l4-4v0L9.9,3.9z" />
  </symbol>
  <symbol id="state-rejected" viewBox="0 0 14 14">
    <path style="fill-rule:evenodd;clip-rule:evenodd;" d="M7,14c3.9,0,7-3.1,7-7c0-3.9-3.1-7-7-7C3.1,0,0,3.1,0,7C0,10.9,3.1,14,7,14z M5,4C4.7,3.7,4.3,3.7,4,4S3.7,4.7,4,5l2,2L4,9C3.7,9.3,3.7,9.7,4,10c0.3,0.3,0.8,0.3,1.1,0l2-2l2,2c0.3,0.3,0.8,0.3,1.1,0c0.3-0.3,0.3-0.8,0-1.1l-2-2l2-2c0.3-0.3,0.3-0.8,0-1.1C9.7,3.7,9.3,3.7,9,4l-2,2L5,4z" />
  </symbol>
  <symbol id="state-obsolete" viewBox="0 0 14 14">
    <path style="fill-rule:evenodd;clip-rule:evenodd;" d="M7,14c3.9,0,7-3.1,7-7c0-3.9-3.1-7-7-7C3.1,0,0,3.1,0,7C0,10.9,3.1,14,7,14z M5,4C4.7,3.7,4.3,3.7,4,4S3.7,4.7,4,5l2,2L4,9C3.7,9.3,3.7,9.7,4,10c0.3,0.3,0.8,0.3,1.1,0l2-2l2,2c0.3,0.3,0.8,0.3,1.1,0c0.3-0.3,0.3-0.8,0-1.1l-2-2l2-2c0.3-0.3,0.3-0.8,0-1.1C9.7,3.7,9.3,3.7,9,4l-2,2L5,4z" />
  </symbol>

  <symbol id="arrow-up" viewBox="0 0 16 16">
    <path d="M8 2L3 7L3.705 7.705L7.5 3.915V13.5C7.5 13.7761 7.72386 14 8 14C8.27614 14 8.5 13.7761 8.5 13.5V3.915L12.295 7.705L13 7L8 2Z"/>
  </symbol>
  <symbol id="arrow-down" viewBox="0 0 16 16">
    <path d="M12.295 8.295L8.5 12.085V2.5C8.5 2.22386 8.27614 2 8 2C7.72386 2 7.5 2.22386 7.5 2.5V12.085L3.705 8.295L3 9L8 14L13 9L12.295 8.295Z"/>
  </symbol>
  <symbol id="duplicate" viewBox="0 0 16 16">
    <path fill-rule="evenodd" clip-rule="evenodd" d="M5 3C5 1.89543 5.89543 1 7 1H12C13.1046 1 14 1.89543 14 3V10C14 11.1046 13.1046 12 12 12H7C5.89543 12 5 11.1046 5 10V3ZM7 2C6.44772 2 6 2.44772 6 3V10C6 10.5523 6.44772 11 7 11H12C12.5523 11 13 10.5523 13 10V3C13 2.44772 12.5523 2 12 2H7Z"/>
    <path fill-rule="evenodd" clip-rule="evenodd" d="M4 5C3.44772 5 3 5.44772 3 6V13C3 13.5523 3.44772 14 4 14H9C9.55228 14 10 13.5523 10 13V12H11V13C11 14.1046 10.1046 15 9 15H4C2.89543 15 2 14.1046 2 13V6C2 4.89543 2.89543 4 4 4H5V5H4Z"/>
  </symbol>
  <symbol id="edit-description" viewBox="0 0 16 16" width="16" height="16" fill="none">
    <path d="M2 4C2 2.89543 2.89543 2 4 2H11C12.1046 2 13 2.89543 13 4L12 5V4C12 3.44772 11.5523 3 11 3H4C3.44772 3 3 3.44772 3 4V9C3 9.55228 3.44772 10 4 10H7L6 11H4C2.89543 11 2 10.1046 2 9V4Z" fill="black" fill-opacity="0.6"/>
    <path fill-rule="evenodd" clip-rule="evenodd" d="M14.7 7.09988L13.9 6.29988C13.5 5.89988 12.9 5.89988 12.5 6.29988L6 12.7999V14.9999H8.2L14.7 8.49988C15.1 8.09988 15.1 7.49988 14.7 7.09988ZM13.2 6.99988L14 7.79988L12.5 9.29988L11.7 8.49988L13.2 6.99988ZM7 13.9999V13.1999L11 9.19988L11.8 9.99988L7.8 13.9999H7Z" fill="black" fill-opacity="0.6"/>
    <path d="M4.5529 4.27638C4.67639 4.02939 4.97673 3.92928 5.22372 4.05277L5.67093 4.27638C5.79181 4.33682 5.9021 4.41227 6 4.49982C6.0979 4.41227 6.20819 4.33682 6.32907 4.27638L6.77628 4.05277C7.02327 3.92928 7.32361 4.02939 7.4471 4.27638C7.5706 4.52337 7.47049 4.82371 7.2235 4.9472L6.77628 5.17081C6.61073 5.25358 6.50477 5.42084 6.50005 5.60517L6.50011 5.61802V7.38195L6.50005 7.3948C6.50477 7.57914 6.61073 7.74639 6.77628 7.82917L7.2235 8.05277C7.47049 8.17627 7.5706 8.4766 7.4471 8.72359C7.32361 8.97058 7.02327 9.0707 6.77628 8.9472L6.32907 8.72359C6.20819 8.66315 6.0979 8.5877 6 8.50015C5.9021 8.5877 5.79181 8.66315 5.67093 8.72359L5.22372 8.9472C4.97673 9.0707 4.67639 8.97058 4.5529 8.72359C4.4294 8.4766 4.52951 8.17627 4.7765 8.05277L5.22372 7.82917C5.38927 7.74639 5.49523 7.57914 5.49995 7.3948L5.49989 7.38195V5.61802L5.49995 5.60517C5.49523 5.42084 5.38927 5.25358 5.22372 5.17081L4.7765 4.9472C4.52951 4.82371 4.4294 4.52337 4.5529 4.27638Z" fill="black" fill-opacity="0.6"/>
  </symbol>
  <symbol id="edit-guidance" viewBox="0 0 16 16" width="16" height="16" fill="none">
    <path d="M1 6.5C1 9.07663 2.77181 11.2394 5.16351 11.8365L6.02479 10.9752C3.76289 10.7378 2 8.82478 2 6.5C2 4.01472 4.01472 2 6.5 2C8.82478 2 10.7378 3.76289 10.9752 6.02479L11.8365 5.16351C11.2394 2.77181 9.07663 1 6.5 1C3.46243 1 1 3.46243 1 6.5Z" fill="black" fill-opacity="0.6"/>
    <path d="M6.08332 3.62628C6.20666 3.54386 6.35166 3.49988 6.5 3.49988C6.69891 3.49988 6.88968 3.5789 7.03033 3.71955C7.17098 3.8602 7.25 4.05097 7.25 4.24988C7.25 4.39821 7.20601 4.54322 7.1236 4.66656C7.04119 4.78989 6.92406 4.88602 6.78701 4.94279C6.64997 4.99955 6.49917 5.01441 6.35368 4.98547C6.2082 4.95653 6.07456 4.8851 5.96967 4.78021C5.86478 4.67532 5.79335 4.54168 5.76441 4.3962C5.73547 4.25071 5.75032 4.09991 5.80709 3.96287C5.86386 3.82582 5.95999 3.70869 6.08332 3.62628Z" fill="black" fill-opacity="0.6"/>
    <path d="M7 5.99988V8.49988H7.5C7.77614 8.49988 8 8.72373 8 8.99988C8 9.27602 7.77614 9.49988 7.5 9.49988H5.5C5.22386 9.49988 5 9.27602 5 8.99988C5 8.72373 5.22386 8.49988 5.5 8.49988H6V6.49988H5.5C5.22386 6.49988 5 6.27602 5 5.99988C5 5.72374 5.22386 5.49988 5.5 5.49988H6.5C6.77614 5.49988 7 5.72374 7 5.99988Z" fill="black" fill-opacity="0.6"/>
    <path fill-rule="evenodd" clip-rule="evenodd" d="M14.7 7.09988L13.9 6.29988C13.5 5.89988 12.9 5.89988 12.5 6.29988L6 12.7999V14.9999H8.2L14.7 8.49988C15.1 8.09988 15.1 7.49988 14.7 7.09988ZM13.2 6.99988L14 7.79988L12.5 9.29988L11.7 8.49988L13.2 6.99988ZM7 13.9999V13.1999L11 9.19988L11.8 9.99988L7.8 13.9999H7Z" fill="black" fill-opacity="0.6"/>
  </symbol>
  <symbol id="configure" viewBox="0 0 32 32" fill="currentColor">
    <path d="M8.99976 1.99976C8.44747 1.99976 7.99976 2.44747 7.99976 2.99976V6.09976C5.69976 6.59976 3.99976 8.59976 3.99976 10.9998C3.99976 13.3998 5.69976 15.3998 7.99976 15.8998L7.99976 28.9998C7.99976 29.552 8.44747 29.9998 8.99976 29.9998C9.55204 29.9998 9.99976 29.552 9.99976 28.9998L9.99976 15.8998C12.2998 15.3998 13.9998 13.3998 13.9998 10.9998C13.9998 8.59976 12.2998 6.59976 9.99976 6.09976V2.99976C9.99976 2.44747 9.55204 1.99976 8.99976 1.99976ZM11.9998 10.9998C11.9998 12.6998 10.6998 13.9998 8.99976 13.9998C7.29976 13.9998 5.99976 12.6998 5.99976 10.9998C5.99976 9.29976 7.29976 7.99976 8.99976 7.99976C10.6998 7.99976 11.9998 9.29976 11.9998 10.9998Z"/>
    <path d="M22.9998 29.9998C23.552 29.9998 23.9998 29.552 23.9998 28.9998V25.8998C26.2998 25.3998 27.9998 23.3998 27.9998 20.9998C27.9998 18.5998 26.2998 16.5998 23.9998 16.0998V2.99976C23.9998 2.44747 23.552 1.99976 22.9998 1.99976C22.4475 1.99976 21.9998 2.44747 21.9998 2.99976V16.0998C19.6998 16.5998 17.9998 18.5998 17.9998 20.9998C17.9998 23.3998 19.6998 25.3998 21.9998 25.8998V28.9998C21.9998 29.552 22.4475 29.9998 22.9998 29.9998ZM19.9998 20.9998C19.9998 19.2998 21.2998 17.9998 22.9998 17.9998C24.6998 17.9998 25.9998 19.2998 25.9998 20.9998C25.9998 22.6998 24.6998 23.9998 22.9998 23.9998C21.2998 23.9998 19.9998 22.6998 19.9998 20.9998Z"/>
  </symbol>
</svg>
