<svg xmlns="http://www.w3.org/2000/svg" style="display: none;">
  <symbol id="documentapplication" viewBox="0 0 24 24">
    <path d="M18.7,14.2l-3.5,3.5c-0.2,0.2-0.5,0.7-0.5,1l-0.2,1.3c-0.1,0.5,0.1,0.9,0.4,1.2c0.3,0.3,0.6,0.4,1,0.4c0.1,0,0.2,0,0.2,0l1.4-0.2c0.4-0.1,0.8-0.3,1-0.5l2.9-2.9c0.1-0.1,0.1-0.1,0.2-0.2l0.4-0.4c0.5-0.5,0.7-1,0.8-1.5c0.1-0.6-0.2-1.2-0.8-1.8C21.3,13.6,20.1,12.8,18.7,14.2z M20.9,15.3c0.2,0.2,0.4,0.4,0.4,0.6c0,0.1-0.1,0.3-0.4,0.5l-0.2,0.2c-0.5-0.2-0.9-0.6-1.1-1.2l0.2-0.2C20.2,14.9,20.4,14.8,20.9,15.3z M17.3,20c0,0-0.1,0.1-0.2,0.1l-1.2,0.2l0.2-1.2c0,0,0.1-0.1,0.1-0.2l2.3-2.3c0.3,0.5,0.7,0.9,1.1,1.2L17.3,20z"/>
    <path d="M22.7,10c0-0.1,0-0.1,0-0.2c0,0,0,0,0-0.1c0-0.1-0.1-0.2-0.1-0.2l-8-8c-0.1-0.1-0.1-0.1-0.2-0.1c0,0,0,0-0.1,0c-0.1,0-0.1,0-0.2,0c0,0,0,0,0,0H9C3.6,1.2,1.2,3.6,1.2,9v6c0,5.4,2.3,7.8,7.8,7.8h3.2c0.4,0,0.8-0.3,0.8-0.8s-0.3-0.8-0.8-0.8H9c-4.6,0-6.2-1.6-6.2-6.2V9c0-4.6,1.6-6.2,6.2-6.2h4.2V6c0,3.4,1.3,4.8,4.8,4.8h3.2v0.8c0,0.4,0.3,0.8,0.8,0.8s0.8-0.3,0.8-0.8L22.7,10C22.8,10,22.7,10,22.7,10z M18,9.2c-2.6,0-3.2-0.7-3.2-3.2V3.8l5.4,5.4H18z"/>
    <path d="M13,12.3H7c-0.4,0-0.8,0.3-0.8,0.8s0.3,0.8,0.8,0.8h6c0.4,0,0.8-0.3,0.8-0.8S13.4,12.3,13,12.3z"/>
    <path d="M7,16.3c-0.4,0-0.8,0.3-0.8,0.8s0.3,0.8,0.8,0.8h4c0.4,0,0.8-0.3,0.8-0.8s-0.3-0.8-0.8-0.8H7z"/>
  </symbol>
  <symbol id="newdocument" viewBox="0 0 16 16">
    <path d="M14.7826 3.26359C15.1313 2.69123 15.0606 1.93115 14.5705 1.43492C14.0757 0.933932 13.3153 0.865765 12.7483 1.23041C13.2123 2.09277 13.9198 2.79999 14.7826 3.26359Z"/>
    <path d="M11.8171 2.11829L6.78472 7.18C7.77457 7.47517 8.57699 8.21908 8.95006 9.18198L13.9064 4.20208C13.0535 3.68436 12.3369 2.9696 11.8171 2.11829Z"/>
    <path d="M7.91486 10.1761C7.80538 9.1186 6.91913 8.30487 5.8592 8.29183C5.53827 8.92804 5.21105 9.90848 5.01729 10.5311C4.93355 10.8002 5.16675 11.0527 5.44262 10.9905C6.16831 10.8268 7.36057 10.5217 7.91486 10.1761Z"/>
    <path d="M4.75 2C2.67893 2 1 3.67893 1 5.75V11.25C1 13.3211 2.67893 15 4.75 15H10.2501C12.3212 15 14.0001 13.3211 14.0001 11.25V8C14.0001 7.58579 13.6643 7.25 13.2501 7.25C12.8359 7.25 12.5001 7.58579 12.5001 8V11.25C12.5001 12.4926 11.4927 13.5 10.2501 13.5H4.75C3.50736 13.5 2.5 12.4926 2.5 11.25V5.75C2.5 4.50736 3.50736 3.5 4.75 3.5H7C7.41421 3.5 7.75 3.16421 7.75 2.75C7.75 2.33579 7.41421 2 7 2H4.75Z"/>
  </symbol>
  <symbol id="document" viewBox="0 0 24 24">
    <path d="M21.2,7.9c0-0.1,0-0.1,0-0.2c0-0.1-0.1-0.1-0.1-0.1c0,0,0-0.1-0.1-0.1l-5.5-6c0,0,0,0,0,0c0,0-0.1-0.1-0.1-0.1c0,0-0.1-0.1-0.1-0.1c0,0-0.1,0-0.1,0c-0.1,0-0.1,0-0.2,0c0,0,0,0,0,0H6.5C6.1,1.2,5.8,1.6,5.8,2v17c0,0.4,0.3,0.8,0.8,0.8h14c0.4,0,0.8-0.3,0.8-0.8V8C21.2,8,21.2,7.9,21.2,7.9z M15.8,3.9l3,3.3h-3V3.9z M19.8,18.2H7.2V2.8h7V8c0,0.4,0.3,0.8,0.8,0.8h4.8V18.2z"/>
    <path d="M14,21.2H4.2V10c0-0.4-0.3-0.8-0.8-0.8S2.8,9.6,2.8,10v12c0,0.4,0.3,0.8,0.8,0.8H14c0.4,0,0.8-0.3,0.8-0.8C14.8,21.6,14.4,21.2,14,21.2z"/>
    <path d="M9.5,10.8h2c0.4,0,0.8-0.3,0.8-0.8c0-0.4-0.3-0.8-0.8-0.8h-2c-0.4,0-0.8,0.3-0.8,0.8C8.8,10.4,9.1,10.8,9.5,10.8z"/>
    <path d="M8.8,14c0,0.4,0.3,0.8,0.8,0.8h6c0.4,0,0.8-0.3,0.8-0.8c0-0.4-0.3-0.8-0.8-0.8h-6C9.1,13.2,8.8,13.6,8.8,14z"/>
  </symbol>
  <symbol id="library" viewBox="0 0 24 24">
    <path d="M21,2.2h-5h-5c-0.4,0-0.8,0.3-0.8,0.8v18c0,0.4,0.3,0.8,0.8,0.8h5h5c0.4,0,0.8-0.3,0.8-0.8V3C21.8,2.6,21.4,2.2,21,2.2z M11.8,3.8h3.5v16.5h-3.5V3.8z M20.2,20.2h-3.5V3.8h3.5V20.2z"/>
    <path d="M9.1,2.8l-4-0.5c-0.2,0-0.4,0-0.6,0.2S4.3,2.7,4.3,2.9l-2,17.5c0,0.4,0.2,0.8,0.7,0.8l4.2,0.5c0.2,0,0.4,0,0.6-0.2C7.9,21.5,8,21.3,8,21.1L9.7,3.6C9.8,3.2,9.5,2.8,9.1,2.8z M6.6,20.2l-2.7-0.3l1.8-16l2.5,0.3L6.6,20.2z"/>
    <path d="M18.5,9.8c0.4,0,0.8-0.3,0.8-0.8V7.5c0-0.4-0.3-0.8-0.8-0.8s-0.8,0.3-0.8,0.8V9C17.8,9.4,18.1,9.8,18.5,9.8z"/>
    <path d="M13.5,6.8c-0.4,0-0.8,0.3-0.8,0.8V9c0,0.4,0.3,0.8,0.8,0.8s0.8-0.3,0.8-0.8V7.5C14.2,7.1,13.9,6.8,13.5,6.8z"/>
  </symbol>
</svg>
