<svg xmlns="http://www.w3.org/2000/svg" style="display: none;">
  <symbol id="documentapplication" viewBox="0 0 32 32">
    <path fill-rule="evenodd" clip-rule="evenodd" d="M10 4C8.89543 4 8 4.89543 8 6V26C8 27.1046 8.89543 28 10 28H22C23.1046 28 24 27.1046 24 26V12H20C17.7909 12 16 10.2091 16 8V4H10ZM18 4.41421V8C18 9.10457 18.8954 10 20 10H23.5858L18 4.41421ZM6 6C6 3.79086 7.79086 2 10 2H17.5858C18.1162 2 18.6249 2.21071 19 2.58579L25.4142 9C25.7893 9.37507 26 9.88378 26 10.4142V26C26 28.2091 24.2091 30 22 30H10C7.79086 30 6 28.2091 6 26V6ZM10 17C10 16.4477 10.4477 16 11 16H15C15.5523 16 16 16.4477 16 17C16 17.5523 15.5523 18 15 18H11C10.4477 18 10 17.5523 10 17ZM10 21C10 20.4477 10.4477 20 11 20H21C21.5523 20 22 20.4477 22 21C22 21.5523 21.5523 22 21 22H11C10.4477 22 10 21.5523 10 21Z" />
  </symbol>
  <symbol id="document" viewBox="0 0 32 32">
    <path fill-rule="evenodd" clip-rule="evenodd" d="M9 4C7.89543 4 7 4.89543 7 6V26C7 27.1046 7.89543 28 9 28H23C24.1046 28 25 27.1046 25 26V12H21C18.7909 12 17 10.2091 17 8V4H9ZM19 4.41421V8C19 9.10457 19.8954 10 21 10H24.5858L19 4.41421ZM5 6C5 3.79086 6.79086 2 9 2H18.5858C19.1162 2 19.6249 2.21071 20 2.58579L26.4142 9C26.7893 9.37507 27 9.88378 27 10.4142V26C27 28.2091 25.2091 30 23 30H9C6.79086 30 5 28.2091 5 26V6ZM10 17C10 16.4477 10.4477 16 11 16H21C21.5523 16 22 16.4477 22 17C22 17.5523 21.5523 18 21 18H11C10.4477 18 10 17.5523 10 17ZM10 23C10 22.4477 10.4477 22 11 22H21C21.5523 22 22 22.4477 22 23C22 23.5523 21.5523 24 21 24H11C10.4477 24 10 23.5523 10 23Z" />
  </symbol>
  <symbol id="add" viewBox="0 0 16 16">
    <path d="M7.49988 8.49991V12.9999H8.49988V8.49991L13 8.49994L13 7.49994L8.49988 7.49991V2.99988H7.49988V7.49991L3.00001 7.49988L3 8.49988L7.49988 8.49991Z" />
  </symbol>
  <symbol id="teamspace" viewBox="0 0 24 24">
    <path d="M21,2.2h-5h-5c-0.4,0-0.8,0.3-0.8,0.8v18c0,0.4,0.3,0.8,0.8,0.8h5h5c0.4,0,0.8-0.3,0.8-0.8V3C21.8,2.6,21.4,2.2,21,2.2z M11.8,3.8h3.5v16.5h-3.5V3.8z M20.2,20.2h-3.5V3.8h3.5V20.2z"/>
    <path d="M9.1,2.8l-4-0.5c-0.2,0-0.4,0-0.6,0.2S4.3,2.7,4.3,2.9l-2,17.5c0,0.4,0.2,0.8,0.7,0.8l4.2,0.5c0.2,0,0.4,0,0.6-0.2C7.9,21.5,8,21.3,8,21.1L9.7,3.6C9.8,3.2,9.5,2.8,9.1,2.8z M6.6,20.2l-2.7-0.3l1.8-16l2.5,0.3L6.6,20.2z"/>
    <path d="M18.5,9.8c0.4,0,0.8-0.3,0.8-0.8V7.5c0-0.4-0.3-0.8-0.8-0.8s-0.8,0.3-0.8,0.8V9C17.8,9.4,18.1,9.8,18.5,9.8z"/>
    <path d="M13.5,6.8c-0.4,0-0.8,0.3-0.8,0.8V9c0,0.4,0.3,0.8,0.8,0.8s0.8-0.3,0.8-0.8V7.5C14.2,7.1,13.9,6.8,13.5,6.8z"/>
  </symbol>
  <symbol id="references" viewBox="0 0 32 32">
    <path d="M29.25 6.75997C28.6926 6.20061 28.0302 5.75679 27.3009 5.45396C26.5716 5.15112 25.7897 4.99524 25 4.99524C24.2103 4.99524 23.4284 5.15112 22.6991 5.45396C22.278 5.62881 21.8792 5.85065 21.5101 6.1146C21.0614 6.43545 21.0693 7.07931 21.4594 7.46935C21.8499 7.85988 22.4827 7.84994 22.9575 7.5679C23.1218 7.47029 23.2933 7.38434 23.4707 7.31086C23.9571 7.10938 24.4785 7.00567 25.005 7.00567C25.5315 7.00567 26.0528 7.10938 26.5393 7.31086C27.0257 7.51235 27.4677 7.80767 27.84 8.17997C28.2123 8.55227 28.5076 8.99425 28.7091 9.48068C28.9106 9.96711 29.0143 10.4885 29.0143 11.015C29.0143 11.5415 28.9106 12.0628 28.7091 12.5493C28.5076 13.0357 28.2123 13.4777 27.84 13.85L19.84 21.85C19.0894 22.6019 18.0709 23.0248 17.0085 23.0257C15.9461 23.0267 14.9269 22.6055 14.175 21.855C13.4231 21.1044 13.0001 20.0859 12.9992 19.0235C12.9983 17.9611 13.4194 16.9419 14.17 16.19L14.8803 15.4746C15.2675 15.0846 15.2659 14.4537 14.8787 14.0637C14.4886 13.6709 13.8519 13.6681 13.4604 14.0596L12.75 14.77C12.1906 15.3274 11.7468 15.9897 11.444 16.7191C11.1411 17.4484 10.9852 18.2303 10.9852 19.02C10.9852 19.8097 11.1411 20.5916 11.444 21.3209C11.7468 22.0502 12.1906 22.7125 12.75 23.27C13.8815 24.387 15.41 25.0092 17 25C17.7927 25.0032 18.5782 24.8494 19.3111 24.5473C20.044 24.2452 20.7098 23.8009 21.27 23.24L29.27 15.24C30.3909 14.1123 31.0184 12.5858 31.0147 10.9958C31.0109 9.40582 30.3762 7.88232 29.25 6.75997Z" />
    <path d="M4.18997 24.82C3.81656 24.4483 3.52026 24.0065 3.31807 23.52C3.11589 23.0335 3.01181 22.5118 3.01181 21.985C3.01181 21.4581 3.11589 20.9365 3.31807 20.4499C3.52026 19.9634 3.81656 19.5216 4.18997 19.15L12.19 11.15C12.5616 10.7766 13.0034 10.4803 13.4899 10.2781C13.9765 10.0759 14.4981 9.97181 15.025 9.97181C15.5518 9.97181 16.0735 10.0759 16.56 10.2781C17.0465 10.4803 17.4883 10.7766 17.86 11.15C18.231 11.5246 18.5231 11.9698 18.7189 12.4594C18.9147 12.9489 19.0103 13.4728 19 14C19.003 14.5288 18.9012 15.0529 18.7004 15.5421C18.4995 16.0313 18.2037 16.4758 17.83 16.85L16.4072 18.2929C16.0213 18.6842 16.0289 19.3189 16.4175 19.7075C16.808 20.098 17.4466 20.1034 17.8371 19.7129L19.25 18.3C20.3785 17.1715 21.0124 15.6409 21.0124 14.045C21.0124 12.449 20.3785 10.9185 19.25 9.78997C18.1215 8.66147 16.5909 8.02749 14.995 8.02749C13.399 8.02749 11.8685 8.66147 10.74 9.78997L2.73997 17.79C2.17911 18.3476 1.73401 19.0106 1.43029 19.7408C1.12657 20.471 0.970215 21.2541 0.970215 22.045C0.970215 22.8358 1.12657 23.6189 1.43029 24.3492C1.73401 25.0794 2.17911 25.7424 2.73997 26.3C3.87879 27.4084 5.41087 28.0198 6.99997 28C8.26594 28.0012 9.49169 27.6069 10.5118 26.885C10.964 26.5651 10.961 25.921 10.5693 25.5293C10.1781 25.1381 9.54699 25.1518 9.0717 25.4348C8.90786 25.5324 8.73689 25.6184 8.56 25.6919C8.07349 25.8941 7.55182 25.9981 7.02497 25.9981C6.49812 25.9981 5.97645 25.8941 5.48994 25.6919C5.00342 25.4897 4.56164 25.1934 4.18997 24.82Z" />
  </symbol>
  <symbol id="lock" viewBox="0 0 16 16">
    <path d="M4.69141 14.6338H11.3018C12.2178 14.6338 12.6689 14.1826 12.6689 13.1914V8.08496C12.6689 7.18945 12.293 6.72461 11.541 6.64941V4.96094C11.541 2.36328 9.81152 1.1123 7.99316 1.1123C6.18164 1.1123 4.45215 2.36328 4.45215 4.96094V6.67676C3.74805 6.78613 3.32422 7.2373 3.32422 8.08496V13.1914C3.32422 14.1826 3.77539 14.6338 4.69141 14.6338ZM5.75098 4.83105C5.75098 3.22461 6.76953 2.35645 7.99316 2.35645C9.2168 2.35645 10.2422 3.22461 10.2422 4.83105V6.64258L5.75098 6.64941V4.83105Z" />
  </symbol>
  <symbol id="unlock" viewBox="0 0 16 16">
    <path d="M2.33301 14.6338H8.94336C9.85938 14.6338 10.3105 14.1826 10.3105 13.1914V8.08496C10.3105 7.2168 9.95508 6.75195 9.24414 6.65625V4.83105C9.24414 3.22461 10.2627 2.35645 11.4863 2.35645C12.71 2.35645 13.7354 3.22461 13.7354 4.83105V6.28711C13.7354 6.76562 14.0156 7.01855 14.3848 7.01855C14.7471 7.01855 15.0273 6.7793 15.0273 6.28711V4.96094C15.0273 2.36328 13.2979 1.1123 11.4863 1.1123C9.6748 1.1123 7.94531 2.36328 7.94531 4.96094V6.64258L2.44922 6.64941C1.5332 6.64941 0.96582 7.10742 0.96582 8.08496V13.1914C0.96582 14.1826 1.41699 14.6338 2.33301 14.6338Z" />
  </symbol>
  <symbol id="star" viewBox="0 0 20 20">
    <path fill-rule="evenodd" clip-rule="evenodd" d="M10 1.25C10.2357 1.25 10.4504 1.38744 10.5518 1.60323L12.9271 6.65845L18.2297 7.46775C18.4573 7.50249 18.6464 7.66396 18.7189 7.88551C18.7914 8.10707 18.735 8.35113 18.573 8.51698L14.7234 12.4583L15.6331 18.0288C15.6712 18.2626 15.5747 18.498 15.3842 18.6353C15.1938 18.7726 14.9429 18.7878 14.7377 18.6745L10 16.0584L5.2623 18.6745C5.0571 18.7878 4.80616 18.7726 4.61575 18.6353C4.42534 18.498 4.32878 18.2626 4.36695 18.0288L5.27657 12.4583L1.42699 8.51698C1.26501 8.35113 1.20863 8.10707 1.28112 7.88551C1.35361 7.66396 1.54269 7.50249 1.7703 7.46775L7.07289 6.65845L9.44819 1.60323C9.54958 1.38744 9.76429 1.25 10 1.25ZM10 3.31093L8.0368 7.48908C7.94945 7.67499 7.77676 7.80476 7.57596 7.83541L3.14286 8.51201L6.36491 11.8109C6.50295 11.9522 6.56572 12.1521 6.53368 12.3484L5.77765 16.9783L9.70769 14.8081C9.88993 14.7075 10.1101 14.7075 10.2923 14.8081L14.2223 16.9783L13.4663 12.3484C13.4343 12.1521 13.497 11.9522 13.6351 11.8109L16.8571 8.51201L12.424 7.83541C12.2232 7.80476 12.0505 7.67499 11.9632 7.48908L10 3.31093Z" />
  </symbol>
  <symbol id="starred" viewBox="0 0 20 20">
    <path fill-rule="evenodd" clip-rule="evenodd" d="M10 1.25C10.2357 1.25 10.4504 1.38744 10.5518 1.60323L12.9271 6.65845L18.2297 7.46775C18.4573 7.50249 18.6464 7.66396 18.7189 7.88551C18.7914 8.10707 18.735 8.35113 18.573 8.51698L14.7234 12.4583L15.6331 18.0288C15.6712 18.2626 15.5747 18.498 15.3842 18.6353C15.1938 18.7726 14.9429 18.7878 14.7377 18.6745L10 16.0584L5.2623 18.6745C5.0571 18.7878 4.80616 18.7726 4.61575 18.6353C4.42534 18.498 4.32878 18.2626 4.36695 18.0288L5.27657 12.4583L1.42699 8.51698C1.26501 8.35113 1.20863 8.10707 1.28112 7.88551C1.35361 7.66396 1.54269 7.50249 1.7703 7.46775L7.07289 6.65845L9.44819 1.60323C9.54959 1.38744 9.76429 1.25 10 1.25Z" fill="#F2BE4F"/>
  </symbol>
  <symbol id="history" viewBox="0 0 32 32">
    <path d="M16 8.00024C16 7.44796 15.5523 7.00024 15 7.00024C14.4477 7.00024 14 7.44796 14 8.00024V17.0002C14 17.5525 14.4477 18.0002 15 18.0002H21C21.5523 18.0002 22 17.5525 22 17.0002C22 16.448 21.5523 16.0002 21 16.0002H16V8.00024Z" />
    <path fill-rule="evenodd" clip-rule="evenodd" d="M30 16.0002C30 23.7322 23.732 30.0002 16 30.0002C8.26801 30.0002 2 23.7322 2 16.0002C2 8.26826 8.26801 2.00024 16 2.00024C23.732 2.00024 30 8.26826 30 16.0002ZM28 16.0002C28 22.6277 22.6274 28.0002 16 28.0002C9.37258 28.0002 4 22.6277 4 16.0002C4 9.37283 9.37258 4.00024 16 4.00024C22.6274 4.00024 28 9.37283 28 16.0002Z" />
  </symbol>
</svg>
