<svg xmlns="http://www.w3.org/2000/svg" style="display: none;">
  <symbol id="documentapplication" viewBox="0 0 32 32">
    <path fill-rule="evenodd" clip-rule="evenodd" d="M10 4C8.89543 4 8 4.89543 8 6V26C8 27.1046 8.89543 28 10 28H22C23.1046 28 24 27.1046 24 26V12H20C17.7909 12 16 10.2091 16 8V4H10ZM18 4.41421V8C18 9.10457 18.8954 10 20 10H23.5858L18 4.41421ZM6 6C6 3.79086 7.79086 2 10 2H17.5858C18.1162 2 18.6249 2.21071 19 2.58579L25.4142 9C25.7893 9.37507 26 9.88378 26 10.4142V26C26 28.2091 24.2091 30 22 30H10C7.79086 30 6 28.2091 6 26V6ZM10 17C10 16.4477 10.4477 16 11 16H15C15.5523 16 16 16.4477 16 17C16 17.5523 15.5523 18 15 18H11C10.4477 18 10 17.5523 10 17ZM10 21C10 20.4477 10.4477 20 11 20H21C21.5523 20 22 20.4477 22 21C22 21.5523 21.5523 22 21 22H11C10.4477 22 10 21.5523 10 21Z" />
  </symbol>
  <symbol id="newdocument" viewBox="0 0 16 16">
    <path d="M14.7826 3.26359C15.1313 2.69123 15.0606 1.93115 14.5705 1.43492C14.0757 0.933932 13.3153 0.865765 12.7483 1.23041C13.2123 2.09277 13.9198 2.79999 14.7826 3.26359Z"/>
    <path d="M11.8171 2.11829L6.78472 7.18C7.77457 7.47517 8.57699 8.21908 8.95006 9.18198L13.9064 4.20208C13.0535 3.68436 12.3369 2.9696 11.8171 2.11829Z"/>
    <path d="M7.91486 10.1761C7.80538 9.1186 6.91913 8.30487 5.8592 8.29183C5.53827 8.92804 5.21105 9.90848 5.01729 10.5311C4.93355 10.8002 5.16675 11.0527 5.44262 10.9905C6.16831 10.8268 7.36057 10.5217 7.91486 10.1761Z"/>
    <path d="M4.75 2C2.67893 2 1 3.67893 1 5.75V11.25C1 13.3211 2.67893 15 4.75 15H10.2501C12.3212 15 14.0001 13.3211 14.0001 11.25V8C14.0001 7.58579 13.6643 7.25 13.2501 7.25C12.8359 7.25 12.5001 7.58579 12.5001 8V11.25C12.5001 12.4926 11.4927 13.5 10.2501 13.5H4.75C3.50736 13.5 2.5 12.4926 2.5 11.25V5.75C2.5 4.50736 3.50736 3.5 4.75 3.5H7C7.41421 3.5 7.75 3.16421 7.75 2.75C7.75 2.33579 7.41421 2 7 2H4.75Z"/>
  </symbol>
  <symbol id="document" viewBox="0 0 32 32">
    <path fill-rule="evenodd" clip-rule="evenodd" d="M10 4C8.89543 4 8 4.89543 8 6V26C8 27.1046 8.89543 28 10 28H22C23.1046 28 24 27.1046 24 26V12H20C17.7909 12 16 10.2091 16 8V4H10ZM18 4.41421V8C18 9.10457 18.8954 10 20 10H23.5858L18 4.41421ZM6 6C6 3.79086 7.79086 2 10 2H17.5858C18.1162 2 18.6249 2.21071 19 2.58579L25.4142 9C25.7893 9.37507 26 9.88378 26 10.4142V26C26 28.2091 24.2091 30 22 30H10C7.79086 30 6 28.2091 6 26V6ZM10 17C10 16.4477 10.4477 16 11 16H15C15.5523 16 16 16.4477 16 17C16 17.5523 15.5523 18 15 18H11C10.4477 18 10 17.5523 10 17ZM10 21C10 20.4477 10.4477 20 11 20H21C21.5523 20 22 20.4477 22 21C22 21.5523 21.5523 22 21 22H11C10.4477 22 10 21.5523 10 21Z" />
  </symbol>
  <symbol id="library" viewBox="0 0 24 24">
    <path d="M21,2.2h-5h-5c-0.4,0-0.8,0.3-0.8,0.8v18c0,0.4,0.3,0.8,0.8,0.8h5h5c0.4,0,0.8-0.3,0.8-0.8V3C21.8,2.6,21.4,2.2,21,2.2z M11.8,3.8h3.5v16.5h-3.5V3.8z M20.2,20.2h-3.5V3.8h3.5V20.2z"/>
    <path d="M9.1,2.8l-4-0.5c-0.2,0-0.4,0-0.6,0.2S4.3,2.7,4.3,2.9l-2,17.5c0,0.4,0.2,0.8,0.7,0.8l4.2,0.5c0.2,0,0.4,0,0.6-0.2C7.9,21.5,8,21.3,8,21.1L9.7,3.6C9.8,3.2,9.5,2.8,9.1,2.8z M6.6,20.2l-2.7-0.3l1.8-16l2.5,0.3L6.6,20.2z"/>
    <path d="M18.5,9.8c0.4,0,0.8-0.3,0.8-0.8V7.5c0-0.4-0.3-0.8-0.8-0.8s-0.8,0.3-0.8,0.8V9C17.8,9.4,18.1,9.8,18.5,9.8z"/>
    <path d="M13.5,6.8c-0.4,0-0.8,0.3-0.8,0.8V9c0,0.4,0.3,0.8,0.8,0.8s0.8-0.3,0.8-0.8V7.5C14.2,7.1,13.9,6.8,13.5,6.8z"/>
  </symbol>
</svg>
