<svg xmlns="http://www.w3.org/2000/svg" style="display: none;">
  <symbol id="office" viewBox="0 0 20 20">
    <path d="M10.001 5H11.251V6.25H10.001V5Z" />
    <path d="M13.751 5H12.501V6.25H13.751V5Z" />
    <path d="M10.001 10H11.251V11.25H10.001V10Z" />
    <path d="M13.751 10H12.501V11.25H13.751V10Z" />
    <path d="M10.001 12.5H11.251V13.75H10.001V12.5Z" />
    <path d="M13.751 12.5H12.501V13.75H13.751V12.5Z" />
    <path d="M10.001 7.5H11.251V8.75H10.001V7.5Z" />
    <path d="M13.751 7.5H12.501V8.75H13.751V7.5Z" />
    <path fill-rule="evenodd" clip-rule="evenodd" d="M8.75098 2.5C8.06062 2.5 7.50098 3.05964 7.50098 3.75V8.125H5.00098C4.31062 8.125 3.75098 8.68464 3.75098 9.375V16.875H3.12598C2.7808 16.875 2.50098 17.1548 2.50098 17.5C2.50098 17.8452 2.7808 18.125 3.12598 18.125H16.876C17.2212 18.125 17.501 17.8452 17.501 17.5C17.501 17.1548 17.2212 16.875 16.876 16.875H16.251V3.75C16.251 3.05964 15.6913 2.5 15.001 2.5H8.75098ZM5.00098 9.375H7.50098V11.25H6.25098V12.5H7.50098V13.75H6.25098V15H7.50098V16.875H5.00098V9.375ZM8.75098 16.875H11.251V15H12.501V16.875H15.001V3.75H8.75098V16.875Z" />
  </symbol>
  <symbol id="knock" viewBox="0 0 24 24" fill="none">
    <path d="M12.4,11.3c-0.2,0.2-0.3,0.5-0.3,0.7c0,0.1,0,0.3,0.1,0.4c0.1,0.1,0.1,0.2,0.2,0.3c0.2,0.2,0.4,0.3,0.7,0.3c0.1,0,0.3,0,0.4-0.1c0.1,0,0.2-0.1,0.3-0.2c0.1-0.1,0.2-0.2,0.2-0.3s0.1-0.3,0.1-0.4c0-0.3-0.1-0.5-0.3-0.7c-0.1-0.1-0.2-0.2-0.3-0.2C13.1,10.9,12.7,11,12.4,11.3z" fill="currentColor" />
    <path d="M22,21h-3.4v-7.3c0-0.6-0.4-1-1-1s-1,0.4-1,1V21H5.2V4.2c0-0.3,0.1-0.6,0.3-0.8c0,0,0.1,0,0.1-0.1C5.8,3.1,6.1,3,6.4,3h6.2c0.6,0,1-0.4,1-1s-0.4-1-1-1H6.4C5.6,1,4.8,1.3,4.2,1.9c-0.7,0.6-1,1.4-1,2.3V21H2c-0.6,0-1,0.4-1,1s0.4,1,1,1h20c0.6,0,1-0.4,1-1S22.6,21,22,21z" fill="currentColor" />
    <path d="M16,4.7c0.6,0,1-0.4,1-1V2c0-0.6-0.4-1-1-1s-1,0.4-1,1v1.7C15,4.3,15.4,4.7,16,4.7z" fill="currentColor" />
    <path d="M19.3,7.2c0,0.6,0.4,1,1,1H22c0.6,0,1-0.4,1-1s-0.4-1-1-1h-1.7C19.7,6.2,19.3,6.6,19.3,7.2z" fill="currentColor" />
    <path d="M19.6,12.2c0.2,0.2,0.5,0.3,0.7,0.3s0.5-0.1,0.7-0.3c0.4-0.4,0.4-1,0-1.4l-1.3-1.3c-0.4-0.4-1-0.4-1.4,0s-0.4,1,0,1.4L19.6,12.2z" fill="currentColor" />
    <path d="M19,5.2c0.3,0,0.5-0.1,0.7-0.3L21,3.6c0.4-0.4,0.4-1,0-1.4s-1-0.4-1.4,0l-1.3,1.3c-0.4,0.4-0.4,1,0,1.4C18.5,5.1,18.7,5.2,19,5.2z" fill="currentColor" />
  </symbol>
  <symbol id="open" viewBox="0 0 24 24" fill="none">
    <path d="M12.1,12c0,0.6,0.4,1,1,1c0.6,0,1-0.4,1-1v0c0-0.6-0.4-1-1-1C12.6,11,12.1,11.5,12.1,12z" fill="#49a26b" />
    <path d="M22,21h-3.4v-7.3c0-0.6-0.4-1-1-1s-1,0.4-1,1V21H5.2V4.2c0-0.3,0.1-0.6,0.4-0.9C5.8,3.1,6.1,3,6.4,3h6.7c0.6,0,1-0.4,1-1s-0.4-1-1-1H6.4C5.6,1,4.8,1.3,4.2,1.9C3.6,2.5,3.2,3.4,3.2,4.2V21H2c-0.6,0-1,0.4-1,1c0,0.6,0.4,1,1,1h20c0.6,0,1-0.4,1-1C23,21.4,22.6,21,22,21z" fill="#49a26b" />
    <path d="M13.5,5.8L13.5,5.8C13.5,5.8,13.5,5.8,13.5,5.8c-0.1,0.1-0.2,0.2-0.2,0.3c0,0.1-0.1,0.2-0.1,0.4c0,0,0,0,0,0c0,0,0,0,0,0c0,0,0,0,0,0c0,0.1,0,0.2,0.1,0.4c0,0.1,0.1,0.2,0.2,0.3c0,0,0,0,0,0v0c0,0,0,0,0,0l3.3,3.3c0.2,0.2,0.5,0.3,0.7,0.3s0.5-0.1,0.7-0.3c0.4-0.4,0.4-1,0-1.4l-1.6-1.6H22c0.6,0,1-0.4,1-1s-0.4-1-1-1h-5.4l1.6-1.6c0.4-0.4,0.4-1,0-1.4c-0.4-0.4-1-0.4-1.4,0L13.5,5.8C13.5,5.7,13.5,5.7,13.5,5.8z" fill="#49a26b" />
  </symbol>
  <symbol id="dnd" viewBox="0 0 24 24" fill="none">
    <path d="M22.9,22.4c0.1-0.2,0.1-0.5,0-0.8c-0.1-0.1-0.1-0.2-0.2-0.3l-20-20c-0.4-0.4-1-0.4-1.4,0s-0.4,1,0,1.4l3.1,3.1V21H2c-0.6,0-1,0.4-1,1c0,0.6,0.4,1,1,1h20c0.1,0,0.3,0,0.4-0.1C22.6,22.8,22.8,22.6,22.9,22.4z M6.4,7.8L17.6,19v2H6.4V7.8z" fill="#FF6711" />
    <path d="M6.9,3.2C7.2,3.1,7.4,3,7.6,3h8.8c0.4,0,0.6,0.1,0.9,0.3c0.2,0.2,0.3,0.5,0.3,0.9v10c0,0.6,0.4,1,1,1c0.6,0,1-0.4,1-1v-10c0-0.9-0.3-1.7-0.9-2.3C18.1,1.3,17.3,1,16.4,1H7.6C7.1,1,6.7,1.1,6.3,1.3C5.8,1.4,5.5,2,5.7,2.5C5.9,3.1,6.4,3.3,6.9,3.2z" fill="#FF6711" />
  </symbol>
  <symbol id="micOn" viewBox="0 0 24 24" fill="none">
    <path d="M12,15.7c1,0,1.9-0.4,2.6-1.1c0.7-0.7,1.1-1.6,1.1-2.6V4.6c0-1-0.4-1.9-1.1-2.6c-1.4-1.4-3.8-1.4-5.2,0C8.7,2.7,8.3,3.7,8.3,4.6V12c0,1,0.4,1.9,1.1,2.6C10.1,15.3,11,15.7,12,15.7z M10.2,4.6c0-0.5,0.2-1,0.5-1.3C11,3,11.5,2.8,12,2.8c0.5,0,1,0.2,1.3,0.5c0.3,0.3,0.5,0.8,0.5,1.3V12c0,0.5-0.2,1-0.5,1.3c-0.7,0.7-1.9,0.7-2.6,0c-0.3-0.3-0.5-0.8-0.5-1.3V4.6z" fill="#49a26b" />
    <path d="M18.4,9.2c-0.5,0-0.9,0.4-0.9,0.9V12c0,1.5-0.6,2.9-1.6,3.9c-1,1-2.4,1.6-3.9,1.6c-1.5,0-2.9-0.6-3.9-1.6c-1-1-1.6-2.4-1.6-3.9v-1.8c0-0.5-0.4-0.9-0.9-0.9s-0.9,0.4-0.9,0.9V12c0,2,0.8,3.8,2.2,5.2c1.2,1.2,2.7,1.9,4.3,2.1v1.9H8.3c-0.5,0-0.9,0.4-0.9,0.9S7.8,23,8.3,23h7.3c0.5,0,0.9-0.4,0.9-0.9s-0.4-0.9-0.9-0.9h-2.8v-1.9c1.6-0.2,3.1-0.9,4.3-2.1c1.4-1.4,2.2-3.2,2.2-5.2v-1.8C19.3,9.6,18.9,9.2,18.4,9.2z" fill="#49a26b" />
  </symbol>
  <symbol id="micOff" viewBox="0 0 24 24" fill="none">
    <path d="M22.7,21.4L2.6,1.3c-0.4-0.4-0.9-0.4-1.3,0c-0.4,0.4-0.4,0.9,0,1.3l7.1,7.1V12c0,0.7,0.2,1.4,0.6,2c0.4,0.6,1,1.1,1.6,1.3c0.4,0.2,0.9,0.3,1.4,0.3c0.2,0,0.5,0,0.7-0.1c0.4-0.1,0.8-0.2,1.1-0.4l1.4,1.4c-0.6,0.5-1.3,0.8-2.1,0.9c-1.1,0.2-2.2,0.1-3.2-0.3c-1-0.4-1.9-1.1-2.5-2c-0.6-0.9-0.9-2-0.9-3.1v-1.8c0-0.5-0.4-0.9-0.9-0.9s-0.9,0.4-0.9,0.9V12c0,1.5,0.4,2.9,1.2,4.1c0.8,1.2,2,2.2,3.3,2.7c0.6,0.3,1.2,0.4,1.9,0.5v1.8H8.3c-0.5,0-0.9,0.4-0.9,0.9S7.8,23,8.3,23h7.3c0.5,0,0.9-0.4,0.9-0.9s-0.4-0.9-0.9-0.9h-2.8v-1.8c0.2,0,0.4,0,0.6-0.1c1.1-0.2,2.2-0.7,3-1.4l4.9,4.9c0.2,0.2,0.4,0.3,0.6,0.3s0.5-0.1,0.6-0.3C23.1,22.4,23.1,21.8,22.7,21.4z M12.4,13.8c-0.4,0.1-0.7,0-1.1-0.1c-0.3-0.1-0.6-0.4-0.8-0.7c-0.2-0.3-0.3-0.7-0.3-1v-0.5l2.3,2.3C12.4,13.8,12.4,13.8,12.4,13.8z" fill="#FF6711" />
    <path d="M9.1,5c0.5,0.1,1-0.2,1.1-0.7c0.1-0.4,0.3-0.8,0.7-1.1c0.4-0.3,0.8-0.4,1.3-0.3c0.5,0,0.9,0.3,1.2,0.6c0.3,0.3,0.5,0.8,0.5,1.2v4.9c0,0.5,0.4,0.9,0.9,0.9s0.9-0.4,0.9-0.9V4.7c0-0.9-0.3-1.8-0.9-2.5c-0.6-0.7-1.4-1.1-2.4-1.2c-0.9-0.1-1.8,0.2-2.5,0.7C9.1,2.3,8.6,3,8.4,3.9C8.3,4.4,8.6,4.9,9.1,5z" fill="#FF6711" />
    <path d="M18.2,14c0.1,0,0.1,0,0.2,0c0.4,0,0.8-0.3,0.9-0.8c0.1-0.4,0.1-0.9,0.1-1.3v-1.8c0-0.5-0.4-0.9-0.9-0.9c-0.5,0-0.9,0.4-0.9,0.9V12c0,0.3,0,0.6-0.1,1C17.3,13.5,17.7,13.9,18.2,14z" fill="#FF6711" />
  </symbol>
  <symbol id="mic" viewBox="0 0 24 24" fill="none">
    <path d="M12,15.7c1,0,1.9-0.4,2.6-1.1c0.7-0.7,1.1-1.6,1.1-2.6V4.6c0-1-0.4-1.9-1.1-2.6c-1.4-1.4-3.8-1.4-5.2,0C8.7,2.7,8.3,3.7,8.3,4.6V12c0,1,0.4,1.9,1.1,2.6C10.1,15.3,11,15.7,12,15.7z M10.2,4.6c0-0.5,0.2-1,0.5-1.3C11,3,11.5,2.8,12,2.8c0.5,0,1,0.2,1.3,0.5c0.3,0.3,0.5,0.8,0.5,1.3V12c0,0.5-0.2,1-0.5,1.3c-0.7,0.7-1.9,0.7-2.6,0c-0.3-0.3-0.5-0.8-0.5-1.3V4.6z" fill="currentColor" />
    <path d="M18.4,9.2c-0.5,0-0.9,0.4-0.9,0.9V12c0,1.5-0.6,2.9-1.6,3.9c-1,1-2.4,1.6-3.9,1.6c-1.5,0-2.9-0.6-3.9-1.6c-1-1-1.6-2.4-1.6-3.9v-1.8c0-0.5-0.4-0.9-0.9-0.9s-0.9,0.4-0.9,0.9V12c0,2,0.8,3.8,2.2,5.2c1.2,1.2,2.7,1.9,4.3,2.1v1.9H8.3c-0.5,0-0.9,0.4-0.9,0.9S7.8,23,8.3,23h7.3c0.5,0,0.9-0.4,0.9-0.9s-0.4-0.9-0.9-0.9h-2.8v-1.9c1.6-0.2,3.1-0.9,4.3-2.1c1.4-1.4,2.2-3.2,2.2-5.2v-1.8C19.3,9.6,18.9,9.2,18.4,9.2z" fill="currentColor" />
  </symbol>
  <symbol id="camera" viewBox="0 0 24 24" fill="none">
    <path d="M22.5,6.6c-0.3-0.2-0.7-0.1-1,0.1l-4.8,3.4V7.5c0-1.6-1.3-2.8-2.8-2.8h-10C2.3,4.6,1,5.9,1,7.5v9.1c0,1.6,1.3,2.8,2.8,2.8h10c1.6,0,2.8-1.3,2.8-2.8v-2.6l4.8,3.4c0.2,0.1,0.4,0.2,0.6,0.2c0.2,0,0.3,0,0.5-0.1c0.3-0.2,0.5-0.5,0.5-0.9V7.5C23,7.1,22.8,6.7,22.5,6.6z M14.6,16.5c0,0.5-0.4,0.8-0.8,0.8h-10C3.4,17.4,3,17,3,16.5V7.5C3,7,3.4,6.6,3.8,6.6h10c0.5,0,0.8,0.4,0.8,0.8V16.5z M21,14.6L17.4,12L21,9.4V14.6z" fill="currentColor" />
  </symbol>
  <symbol id="cameraOn" viewBox="0 0 24 24" fill="none">
    <path d="M22.5,6.6c-0.3-0.2-0.7-0.1-1,0.1l-4.8,3.4V7.5c0-1.6-1.3-2.8-2.8-2.8h-10C2.3,4.6,1,5.9,1,7.5v9.1c0,1.6,1.3,2.8,2.8,2.8h10c1.6,0,2.8-1.3,2.8-2.8v-2.6l4.8,3.4c0.2,0.1,0.4,0.2,0.6,0.2c0.2,0,0.3,0,0.5-0.1c0.3-0.2,0.5-0.5,0.5-0.9V7.5C23,7.1,22.8,6.7,22.5,6.6z M14.6,16.5c0,0.5-0.4,0.8-0.8,0.8h-10C3.4,17.4,3,17,3,16.5V7.5C3,7,3.4,6.6,3.8,6.6h10c0.5,0,0.8,0.4,0.8,0.8V16.5z M21,14.6L17.4,12L21,9.4V14.6z" fill="#49a26b" />
  </symbol>
  <symbol id="cameraOff" viewBox="0 0 24 24" fill="none">
    <path d="M22.5,6.6c-0.3-0.2-0.7-0.1-1,0.1l-4.9,3.5l-0.1-0.1V7.4c0-0.7-0.3-1.4-0.8-1.9s-1.2-0.8-1.9-0.8h-3.1c-0.5,0-0.9,0.4-0.9,0.9s0.4,0.9,0.9,0.9h3.1c0.2,0,0.5,0.1,0.6,0.3c0.2,0.2,0.3,0.4,0.3,0.6v3.1c0,0.2,0.1,0.5,0.3,0.6l0.9,0.9c0.3,0.3,0.8,0.4,1.2,0.1l4-2.9v7.4c0,0.5,0.4,0.9,0.9,0.9s0.9-0.4,0.9-0.9V7.4C23,7.1,22.8,6.8,22.5,6.6z" fill="#FF6711" />
    <path d="M16.3,15C16.3,15,16.3,15,16.3,15L2.6,1.3c-0.4-0.4-0.9-0.4-1.3,0c-0.4,0.4-0.4,0.9,0,1.3l2.1,2.1C2.8,4.8,2.2,5,1.8,5.5C1.3,6,1,6.7,1,7.4v9.2c0,0.7,0.3,1.4,0.8,1.9C2.3,19,3,19.3,3.8,19.3h10.1c0.7,0,1.4-0.3,1.9-0.8c0.3-0.3,0.4-0.5,0.6-0.9l5.1,5.1c0.2,0.2,0.4,0.3,0.6,0.3s0.5-0.1,0.6-0.3c0.4-0.4,0.4-0.9,0-1.3L16.3,15z M14.8,16.6c0,0.2-0.1,0.5-0.3,0.6c-0.2,0.2-0.4,0.3-0.6,0.3H3.8c-0.2,0-0.5-0.1-0.6-0.3c-0.2-0.2-0.3-0.4-0.3-0.6V7.4c0-0.2,0.1-0.5,0.3-0.6c0.2-0.2,0.4-0.3,0.6-0.3h1.5l9.5,9.5V16.6z" fill="#FF6711" />
  </symbol>
  <symbol id="shareOn" viewBox="0 0 24 24" fill="none">
    <path d="M20,2H4C2.3,2,1,3.3,1,5v10c0,1.7,1.3,3,3,3h7v2H8c-0.6,0-1,0.4-1,1s0.4,1,1,1h8c0.6,0,1-0.4,1-1s-0.4-1-1-1h-3v-2h7c1.7,0,3-1.3,3-3V5C23,3.3,21.7,2,20,2z M21,15c0,0.6-0.4,1-1,1H4c-0.6,0-1-0.4-1-1V5c0-0.6,0.4-1,1-1h16c0.6,0,1,0.4,1,1V15z" fill="#FF6711" />
    <path d="M15.7,6.3c-0.4-0.4-1-0.4-1.4,0L12,8.6L9.7,6.3c-0.4-0.4-1-0.4-1.4,0s-0.4,1,0,1.4l2.3,2.3l-2.3,2.3c-0.4,0.4-0.4,1,0,1.4C8.5,13.9,8.7,14,9,14s0.5-0.1,0.7-0.3l2.3-2.3l2.3,2.3c0.2,0.2,0.5,0.3,0.7,0.3s0.5-0.1,0.7-0.3c0.4-0.4,0.4-1,0-1.4L13.4,10l2.3-2.3C16.1,7.3,16.1,6.7,15.7,6.3z" fill="#FF6711" />
  </symbol>
  <symbol id="shareOff" viewBox="0 0 24 24" fill="none">
    <path d="M20,2H4C2.3,2,1,3.3,1,5v10c0,1.7,1.3,3,3,3h7v2H8c-0.6,0-1,0.4-1,1s0.4,1,1,1h8c0.6,0,1-0.4,1-1s-0.4-1-1-1h-3v-2h7c1.7,0,3-1.3,3-3V5C23,3.3,21.7,2,20,2z M21,15c0,0.6-0.4,1-1,1H4c-0.6,0-1-0.4-1-1V5c0-0.6,0.4-1,1-1h16c0.6,0,1,0.4,1,1V15z" fill="currentColor" />
    <path d="M12.7,5.9c-0.2-0.2-0.4-0.3-0.7-0.3s-0.5,0.1-0.7,0.3L8.5,8.7c-0.4,0.4-0.4,1,0,1.4c0.4,0.4,1,0.4,1.4,0L11,9v4.4c0,0.6,0.4,1,1,1s1-0.4,1-1V9l1.1,1.1c0.2,0.2,0.5,0.3,0.7,0.3s0.5-0.1,0.7-0.3c0.4-0.4,0.4-1,0-1.4L12.7,5.9z" fill="currentColor" />
  </symbol>
  <symbol id="leave" viewBox="0 0 24 24">
    <path d="M9,20H5c-0.3,0-0.5-0.1-0.7-0.3C4.1,19.5,4,19.3,4,19V5c0-0.3,0.1-0.5,0.3-0.7C4.5,4.1,4.7,4,5,4h4c0.6,0,1-0.4,1-1S9.6,2,9,2H5C4.2,2,3.4,2.3,2.9,2.9C2.3,3.4,2,4.2,2,5v14c0,0.8,0.3,1.6,0.9,2.1C3.4,21.7,4.2,22,5,22h4c0.6,0,1-0.4,1-1S9.6,20,9,20z" />
    <path d="M21.9,12.4C22,12.3,22,12.1,22,12s0-0.3-0.1-0.4c-0.1-0.1-0.1-0.2-0.2-0.3l-5-5c-0.4-0.4-1-0.4-1.4,0s-0.4,1,0,1.4l3.3,3.3H9c-0.6,0-1,0.4-1,1s0.4,1,1,1h9.6l-3.3,3.3c-0.4,0.4-0.4,1,0,1.4c0.2,0.2,0.5,0.3,0.7,0.3s0.5-0.1,0.7-0.3l5-5C21.8,12.6,21.9,12.5,21.9,12.4z" />
  </symbol>
  <symbol id="enter" viewBox="0 0 24 24">
    <path d="M10.6,16.6l3.6-3.6H1c-0.6,0-1-0.4-1-1s0.4-1,1-1h13.2l-3.6-3.6L12,6l6,6l-6,6L10.6,16.6z" />
    <path fill-rule="evenodd" clip-rule="evenodd" d="M12,2c-1.1,0-2,0.9-2,2v1c0,0.6-0.4,1-1,1S8,5.6,8,5V4c0-2.2,1.8-4,4-4h8c2.2,0,4,1.8,4,4v16c0,2.2-1.8,4-4,4 h-8c-2.2,0-4-1.8-4-4v-1c0-0.6,0.4-1,1-1s1,0.4,1,1v1c0,1.1,0.9,2,2,2h8c1.1,0,2-0.9,2-2V4c0-1.1-0.9-2-2-2H12z" />
  </symbol>
  <symbol id="fullscreen" viewBox="0 0 24 24">
    <path d="M22,14.7c-0.5,0-1,0.4-1,1v4.2l-5.7-5.7c-0.4-0.4-1-0.4-1.3,0s-0.4,1,0,1.3l5.7,5.7h-4c-0.5,0-1,0.4-1,1s0.5,0.9,1,0.9H22c0.5,0,1-0.4,1-1v-6.4C23,15.2,22.6,14.7,22,14.7z" />
    <path d="M4.2,2.8h4.2c0.5,0,1-0.4,1-1S8.8,1,8.3,1H2C1.4,1,1,1.4,1,2v6.4c0,0.5,0.4,1,1,1s0.9-0.5,0.9-1V4.2l5.7,5.7c0.4,0.4,1,0.4,1.3,0s0.4-1,0-1.3L4.2,2.8z" />
    <path d="M22,1h-6.4c-0.5,0-1,0.4-1,1s0.4,1,1,1h4.2l-5.7,5.7c-0.4,0.4-0.4,1,0,1.3s1,0.4,1.3,0l5.7-5.7v4c0,0.5,0.4,1,1,1s0.9-0.5,0.9-1V2C23,1.4,22.6,1,22,1z" />
    <path d="M8.6,14.1l-5.7,5.7v-4.2c0-0.5-0.4-1-1-1S1,15.2,1,15.7V22c0,0.6,0.4,1,1,1h6.4c0.5,0,1-0.4,1-1c0-0.6-0.5-0.9-1-0.9H4.2l5.7-5.7c0.4-0.4,0.4-1,0-1.3S8.9,13.7,8.6,14.1z" />
  </symbol>
  <symbol id="exitfullscreen" viewBox="0 0 24 24">
    <path d="M16.9,15.6H21c0.5,0,1-0.4,1-1s-0.4-1-1-1h-6.3c-0.5,0-1,0.4-1,1v6.3c0,0.5,0.4,1,1,1c0.6,0,1-0.4,1-1v-4.1l5.7,5.7c0.4,0.4,1,0.4,1.3,0c0.4-0.4,0.4-1,0-1.3L16.9,15.6z" />
    <path d="M9.3,2c-0.6,0-1,0.4-1,0.8V7L2.6,1.3c-0.4-0.4-1-0.4-1.3,0s-0.4,1,0,1.3L7,8.3H2.8C2.4,8.3,2,8.7,2,9.3s0.4,1,1,1h6.3c0.5,0,1-0.4,1-1V2.8C10.1,2.4,9.8,2,9.3,2z" />
    <path d="M14.6,10.1h6.3c0.5,0,1-0.4,1-1c0-0.6-0.4-0.8-0.8-0.8h-4.1l5.7-5.7c0.4-0.4,0.4-1,0-1.3c-0.4-0.4-1-0.4-1.3,0L15.6,7V2.8c0-0.5-0.4-1-1-1s-1,0.4-1,1v6.3C13.8,9.8,14.1,10.1,14.6,10.1z" />
    <path d="M9.3,13.8H2.8c-0.5,0-1,0.4-1,1c0,0.6,0.5,0.8,1,0.8H7l-5.7,5.7c-0.4,0.4-0.4,1,0,1.3c0.4,0.4,1,0.4,1.3,0l5.7-5.7V21c0,0.5,0.4,1,1,1s1-0.4,1-1v-6.3C10.1,14.1,9.8,13.8,9.3,13.8z" />
  </symbol>
  <symbol id="record" viewBox="0 0 256 256">
    <path d="M128,24A104,104,0,1,0,232,128,104.11791,104.11791,0,0,0,128,24Zm0,192a88,88,0,1,1,88-88A88.09957,88.09957,0,0,1,128,216Zm72-88a72,72,0,1,1-72-72A72.08124,72.08124,0,0,1,200,128Z"/>
  </symbol>
  <symbol id="stopRecord" viewBox="0 0 256 256">
    <path d="M128,24A104,104,0,1,0,232,128,104.11791,104.11791,0,0,0,128,24Zm0,192a88,88,0,1,1,88-88A88.09957,88.09957,0,0,1,128,216Zm72-88a72,72,0,1,1-72-72A72.08124,72.08124,0,0,1,200,128Z" fill="#FF6711"/>
  </symbol>
  <symbol id="invite" viewBox="0 0 32 32">
    <path fill-rule="evenodd" clip-rule="evenodd" d="M16 18C20.4183 18 24 14.4183 24 10C24 5.58172 20.4183 2 16 2C11.5817 2 8 5.58172 8 10C8 14.4183 11.5817 18 16 18ZM16 16C19.3137 16 22 13.3137 22 10C22 6.68629 19.3137 4 16 4C12.6863 4 10 6.68629 10 10C10 13.3137 12.6863 16 16 16Z" />
    <path d="M24 21C24 20.4477 24.4477 20 25 20C25.5523 20 26 20.4477 26 21V24H29C29.5523 24 30 24.4477 30 25C30 25.5523 29.5523 26 29 26H26V29C26 29.5523 25.5523 30 25 30C24.4477 30 24 29.5523 24 29V26H21C20.4477 26 20 25.5523 20 25C20 24.4477 20.4477 24 21 24H24V21Z" />
    <path d="M13 20C9.13401 20 6 23.134 6 27V29C6 29.5523 6.44772 30 7 30C7.55228 30 8 29.5523 8 29V27C8 24.2386 10.2386 22 13 22H17C17.5523 22 18 21.5523 18 21C18 20.4477 17.5523 20 17 20H13Z" />
  </symbol>
  <symbol id="kick" viewBox="0 0 32 32">
    <path fill-rule="evenodd" clip-rule="evenodd" d="M24 10C24 14.4183 20.4183 18 16 18C11.5817 18 8 14.4183 8 10C8 5.58172 11.5817 2 16 2C20.4183 2 24 5.58172 24 10ZM16 16C19.3137 16 22 13.3137 22 10C22 6.68629 19.3137 4 16 4C12.6863 4 10 6.68629 10 10C10 13.3137 12.6863 16 16 16Z" />
    <path d="M21.7071 20.2931C21.3166 19.9026 20.6834 19.9026 20.2929 20.2931C19.9024 20.6837 19.9024 21.3168 20.2929 21.7074L23.5858 25.0002L20.2929 28.2931C19.9024 28.6837 19.9024 29.3168 20.2929 29.7074C20.6761 30.0906 21.2929 30.0977 21.6849 29.7289L25 26.4138L28.2929 29.7074C28.6834 30.0979 29.3166 30.0979 29.7071 29.7074C30.0976 29.3168 30.0976 28.6837 29.7071 28.2931L26.4142 25.0002L29.7071 21.7074C30.0976 21.3168 30.0976 20.6837 29.7071 20.2931C29.3166 19.9026 28.6834 19.9026 28.2929 20.2931L25 23.586L21.7071 20.2931Z" />
    <path d="M13 20.0002C9.13401 20.0002 6 23.1343 6 27.0002V29.0002C6 29.5525 6.44772 30.0002 7 30.0002C7.55228 30.0002 8 29.5525 8 29.0002V27.0002C8 24.2388 10.2386 22.0002 13 22.0002H17C17.5523 22.0002 18 21.5525 18 21.0002C18 20.448 17.5523 20.0002 17 20.0002H13Z" />
  </symbol>
  <symbol id="meeting-minutes" viewBox="0 0 24 24">
    <path fill-rule="evenodd" clip-rule="evenodd"
          d="M5.71189 3.83264C4.85895 3.94913 4.38616 4.16477 4.04365 4.51269C3.69954 4.86223 3.48508 5.3473 3.36966 6.21935C3.25155 7.11179 3.25 8.29059 3.25 9.96139V14.9614C3.25 16.6322 3.25155 17.811 3.36966 18.7034C3.48508 19.5755 3.69954 20.0606 4.04367 20.4102C4.38617 20.7581 4.85896 20.9737 5.71188 21.0902C6.58762 21.2098 7.74533 21.2114 9.39111 21.2114H10.2892C10.7034 21.2114 11.0392 21.5472 11.0392 21.9614C11.0392 22.3756 10.7034 22.7114 10.2892 22.7114H9.3347C7.75835 22.7114 6.49795 22.7114 5.50892 22.5764C4.48532 22.4366 3.64139 22.1397 2.97472 21.4625C2.30967 20.7869 2.01951 19.9344 1.88263 18.9002C1.74997 17.8979 1.74998 16.6196 1.75 15.0164V9.9064C1.74998 8.30316 1.74997 7.02486 1.88263 6.02254C2.01951 4.98839 2.30964 4.13594 2.97471 3.46037C3.64138 2.78316 4.48531 2.48623 5.50891 2.34644C6.49795 2.21137 7.75835 2.21138 9.33468 2.2114L12.3444 2.2114C13.9561 2.2114 15.298 2.22381 16.3666 2.37448C17.4384 2.52559 18.36 2.8305 19.0344 3.51552C19.6977 4.18921 19.9869 5.02585 20.122 6.05049C20.2502 7.02263 20.2501 8.26241 20.25 9.82556C20.25 9.87057 20.25 9.91584 20.25 9.96139V11.1478C20.25 11.562 19.9142 11.8978 19.5 11.8978C19.0858 11.8978 18.75 11.562 18.75 11.1478V9.93079C18.75 8.27471 18.75 7.11968 18.6349 6.24657C18.5223 5.39261 18.3115 4.9193 17.9655 4.56787C17.6307 4.22777 17.0988 3.99255 16.1572 3.85979C15.2125 3.72658 13.9812 3.7114 12.3444 3.7114H9.39111C7.74533 3.7114 6.58762 3.71304 5.71189 3.83264Z"
          fill="currentColor"/>
    <path fill-rule="evenodd" clip-rule="evenodd"
          d="M5.94531 1.25C6.35952 1.25 6.69531 1.58579 6.69531 2V4C6.69531 4.41421 6.35952 4.75 5.94531 4.75C5.5311 4.75 5.19531 4.41421 5.19531 4V2C5.19531 1.58579 5.5311 1.25 5.94531 1.25ZM10.9453 1.25C11.3595 1.25 11.6953 1.58579 11.6953 2V4C11.6953 4.41421 11.3595 4.75 10.9453 4.75C10.5311 4.75 10.1953 4.41421 10.1953 4V2C10.1953 1.58579 10.5311 1.25 10.9453 1.25ZM15.9453 1.25C16.3595 1.25 16.6953 1.58579 16.6953 2V4C16.6953 4.41421 16.3595 4.75 15.9453 4.75C15.5311 4.75 15.1953 4.41421 15.1953 4V2C15.1953 1.58579 15.5311 1.25 15.9453 1.25Z"
          fill="currentColor"/>
    <path fill-rule="evenodd" clip-rule="evenodd"
          d="M6.25 10C6.25 9.58579 6.58579 9.25 7 9.25H15C15.4142 9.25 15.75 9.58579 15.75 10C15.75 10.4142 15.4142 10.75 15 10.75H7C6.58579 10.75 6.25 10.4142 6.25 10ZM6.25 15C6.25 14.5858 6.58579 14.25 7 14.25H11C11.4142 14.25 11.75 14.5858 11.75 15C11.75 15.4142 11.4142 15.75 11 15.75H7C6.58579 15.75 6.25 15.4142 6.25 15Z"
          fill="currentColor"/>
    <path fill-rule="evenodd" clip-rule="evenodd"
          d="M21.2934 14.3502C21.5749 14.6092 21.8863 14.9349 22.0742 15.3683C22.2807 15.8446 22.305 16.3686 22.1485 16.9557L22.1369 16.9993L22.1202 17.0411C21.9359 17.5017 21.5651 17.9034 21.2284 18.2408C21.0781 18.3913 20.932 18.5316 20.7845 18.6732C20.5537 18.8948 20.3194 19.1197 20.0602 19.3926L20.0513 19.402L20.0421 19.4111C19.5788 19.8663 19.1878 20.2648 18.8492 20.6101C18.6963 20.7659 18.554 20.9109 18.4206 21.0454C18.026 21.443 17.6525 21.8093 17.3432 21.995C16.9172 22.2506 16.3793 22.3895 15.7622 22.5006L15.7503 22.5028L15.7382 22.5045C15.5558 22.5313 15.3563 22.5631 15.1613 22.5942C14.9218 22.6324 14.689 22.6695 14.5029 22.6949C14.3206 22.7198 14.1385 22.7404 13.9744 22.7474C13.8288 22.7536 13.6184 22.7541 13.419 22.6934C12.8757 22.5278 12.7854 21.9926 12.7664 21.8533C12.737 21.6379 12.752 21.3999 12.7736 21.1969C12.8071 20.8822 12.8762 20.4988 12.9395 20.1475C12.9582 20.0435 12.9765 19.9423 12.9931 19.8465C13.0853 19.1972 13.2782 18.5548 13.5357 18.131C13.5858 18.0456 13.6467 17.9737 13.6698 17.9463C13.6712 17.9447 13.6725 17.9432 13.6736 17.9419C13.7192 17.8877 13.7757 17.8247 13.8378 17.7571C13.9631 17.621 14.1305 17.4461 14.3228 17.2488C14.7084 16.8532 15.2087 16.3528 15.7058 15.8617L15.7194 15.8482L15.7337 15.8355C15.9104 15.6778 16.1614 15.4167 16.4558 15.1102C16.626 14.9331 16.8107 14.7408 17.004 14.5447C17.2521 14.293 17.5098 14.0405 17.7395 13.8437C17.8537 13.7458 17.9749 13.6495 18.0945 13.5714C18.1804 13.5153 18.3354 13.4203 18.5262 13.3771C18.8564 13.2798 19.3011 13.1783 19.8191 13.3205C20.3324 13.4614 20.8043 13.8084 21.2934 14.3502ZM19.422 14.767C19.3092 14.736 19.1934 14.7429 18.9231 14.824L18.9169 14.8258C18.9163 14.8263 18.9156 14.8267 18.9149 14.8271C18.8721 14.8551 18.8061 14.905 18.7157 14.9826C18.536 15.1365 18.3146 15.3518 18.0723 15.5976C17.9241 15.748 17.7641 15.9143 17.6046 16.0801C17.2841 16.4133 16.9654 16.7447 16.7472 16.9414C16.2576 17.4253 15.7699 17.9132 15.3969 18.2959C15.2082 18.4894 15.0524 18.6524 14.9416 18.7728C14.8857 18.8336 14.8459 18.8785 14.8206 18.9085C14.8177 18.9119 14.8152 18.915 14.8129 18.9177C14.7007 19.1069 14.5522 19.5287 14.4769 20.0669L14.4752 20.079L14.4731 20.0911C14.4511 20.2179 14.4289 20.3412 14.4075 20.4604C14.358 20.7353 14.3125 20.9881 14.2827 21.211C14.2884 21.2102 14.2941 21.2095 14.2999 21.2087C14.4901 21.1827 14.6807 21.1521 14.8917 21.1182C15.0769 21.0884 15.2778 21.0562 15.5081 21.0223C16.0905 20.9167 16.3948 20.8147 16.5712 20.7088C16.6844 20.6409 16.9145 20.4336 17.3559 19.9888C17.4795 19.8642 17.6162 19.7249 17.7657 19.5725C18.1059 19.2257 18.5124 18.8114 18.9816 18.3501C19.2519 18.0661 19.5426 17.7862 19.7939 17.5442C19.9338 17.4095 20.0616 17.2865 20.1667 17.1811C20.4836 16.8636 20.6435 16.6617 20.7116 16.5199C20.7801 16.2328 20.7453 16.0742 20.6979 15.9649C20.6356 15.8211 20.5092 15.6649 20.2546 15.4328L20.226 15.4068L20.2003 15.3779C19.7932 14.9219 19.5484 14.8017 19.422 14.767ZM14.2526 21.6505C14.2526 21.6501 14.2525 21.6498 14.2525 21.6494L14.2526 21.6505Z"
          fill="currentColor"/>
  </symbol>
</svg>
