<svg xmlns="http://www.w3.org/2000/svg" style="display: none;">
  <symbol id="office" viewBox="0 0 20 20">
    <path d="M10.001 5H11.251V6.25H10.001V5Z" />
    <path d="M13.751 5H12.501V6.25H13.751V5Z" />
    <path d="M10.001 10H11.251V11.25H10.001V10Z" />
    <path d="M13.751 10H12.501V11.25H13.751V10Z" />
    <path d="M10.001 12.5H11.251V13.75H10.001V12.5Z" />
    <path d="M13.751 12.5H12.501V13.75H13.751V12.5Z" />
    <path d="M10.001 7.5H11.251V8.75H10.001V7.5Z" />
    <path d="M13.751 7.5H12.501V8.75H13.751V7.5Z" />
    <path fill-rule="evenodd" clip-rule="evenodd" d="M8.75098 2.5C8.06062 2.5 7.50098 3.05964 7.50098 3.75V8.125H5.00098C4.31062 8.125 3.75098 8.68464 3.75098 9.375V16.875H3.12598C2.7808 16.875 2.50098 17.1548 2.50098 17.5C2.50098 17.8452 2.7808 18.125 3.12598 18.125H16.876C17.2212 18.125 17.501 17.8452 17.501 17.5C17.501 17.1548 17.2212 16.875 16.876 16.875H16.251V3.75C16.251 3.05964 15.6913 2.5 15.001 2.5H8.75098ZM5.00098 9.375H7.50098V11.25H6.25098V12.5H7.50098V13.75H6.25098V15H7.50098V16.875H5.00098V9.375ZM8.75098 16.875H11.251V15H12.501V16.875H15.001V3.75H8.75098V16.875Z" />
  </symbol>
  <symbol id="knock" viewBox="0 0 24 24" fill="none">
    <path d="M12.4,11.3c-0.2,0.2-0.3,0.5-0.3,0.7c0,0.1,0,0.3,0.1,0.4c0.1,0.1,0.1,0.2,0.2,0.3c0.2,0.2,0.4,0.3,0.7,0.3c0.1,0,0.3,0,0.4-0.1c0.1,0,0.2-0.1,0.3-0.2c0.1-0.1,0.2-0.2,0.2-0.3s0.1-0.3,0.1-0.4c0-0.3-0.1-0.5-0.3-0.7c-0.1-0.1-0.2-0.2-0.3-0.2C13.1,10.9,12.7,11,12.4,11.3z" fill="currentColor" />
    <path d="M22,21h-3.4v-7.3c0-0.6-0.4-1-1-1s-1,0.4-1,1V21H5.2V4.2c0-0.3,0.1-0.6,0.3-0.8c0,0,0.1,0,0.1-0.1C5.8,3.1,6.1,3,6.4,3h6.2c0.6,0,1-0.4,1-1s-0.4-1-1-1H6.4C5.6,1,4.8,1.3,4.2,1.9c-0.7,0.6-1,1.4-1,2.3V21H2c-0.6,0-1,0.4-1,1s0.4,1,1,1h20c0.6,0,1-0.4,1-1S22.6,21,22,21z" fill="currentColor" />
    <path d="M16,4.7c0.6,0,1-0.4,1-1V2c0-0.6-0.4-1-1-1s-1,0.4-1,1v1.7C15,4.3,15.4,4.7,16,4.7z" fill="currentColor" />
    <path d="M19.3,7.2c0,0.6,0.4,1,1,1H22c0.6,0,1-0.4,1-1s-0.4-1-1-1h-1.7C19.7,6.2,19.3,6.6,19.3,7.2z" fill="currentColor" />
    <path d="M19.6,12.2c0.2,0.2,0.5,0.3,0.7,0.3s0.5-0.1,0.7-0.3c0.4-0.4,0.4-1,0-1.4l-1.3-1.3c-0.4-0.4-1-0.4-1.4,0s-0.4,1,0,1.4L19.6,12.2z" fill="currentColor" />
    <path d="M19,5.2c0.3,0,0.5-0.1,0.7-0.3L21,3.6c0.4-0.4,0.4-1,0-1.4s-1-0.4-1.4,0l-1.3,1.3c-0.4,0.4-0.4,1,0,1.4C18.5,5.1,18.7,5.2,19,5.2z" fill="currentColor" />
  </symbol>
  <symbol id="open" viewBox="0 0 24 24" fill="none">
    <path d="M12.1,12c0,0.6,0.4,1,1,1c0.6,0,1-0.4,1-1v0c0-0.6-0.4-1-1-1C12.6,11,12.1,11.5,12.1,12z" fill="#49a26b" />
    <path d="M22,21h-3.4v-7.3c0-0.6-0.4-1-1-1s-1,0.4-1,1V21H5.2V4.2c0-0.3,0.1-0.6,0.4-0.9C5.8,3.1,6.1,3,6.4,3h6.7c0.6,0,1-0.4,1-1s-0.4-1-1-1H6.4C5.6,1,4.8,1.3,4.2,1.9C3.6,2.5,3.2,3.4,3.2,4.2V21H2c-0.6,0-1,0.4-1,1c0,0.6,0.4,1,1,1h20c0.6,0,1-0.4,1-1C23,21.4,22.6,21,22,21z" fill="#49a26b" />
    <path d="M13.5,5.8L13.5,5.8C13.5,5.8,13.5,5.8,13.5,5.8c-0.1,0.1-0.2,0.2-0.2,0.3c0,0.1-0.1,0.2-0.1,0.4c0,0,0,0,0,0c0,0,0,0,0,0c0,0,0,0,0,0c0,0.1,0,0.2,0.1,0.4c0,0.1,0.1,0.2,0.2,0.3c0,0,0,0,0,0v0c0,0,0,0,0,0l3.3,3.3c0.2,0.2,0.5,0.3,0.7,0.3s0.5-0.1,0.7-0.3c0.4-0.4,0.4-1,0-1.4l-1.6-1.6H22c0.6,0,1-0.4,1-1s-0.4-1-1-1h-5.4l1.6-1.6c0.4-0.4,0.4-1,0-1.4c-0.4-0.4-1-0.4-1.4,0L13.5,5.8C13.5,5.7,13.5,5.7,13.5,5.8z" fill="#49a26b" />
  </symbol>
  <symbol id="dnd" viewBox="0 0 24 24" fill="none">
    <path d="M22.9,22.4c0.1-0.2,0.1-0.5,0-0.8c-0.1-0.1-0.1-0.2-0.2-0.3l-20-20c-0.4-0.4-1-0.4-1.4,0s-0.4,1,0,1.4l3.1,3.1V21H2c-0.6,0-1,0.4-1,1c0,0.6,0.4,1,1,1h20c0.1,0,0.3,0,0.4-0.1C22.6,22.8,22.8,22.6,22.9,22.4z M6.4,7.8L17.6,19v2H6.4V7.8z" fill="#FF6711" />
    <path d="M6.9,3.2C7.2,3.1,7.4,3,7.6,3h8.8c0.4,0,0.6,0.1,0.9,0.3c0.2,0.2,0.3,0.5,0.3,0.9v10c0,0.6,0.4,1,1,1c0.6,0,1-0.4,1-1v-10c0-0.9-0.3-1.7-0.9-2.3C18.1,1.3,17.3,1,16.4,1H7.6C7.1,1,6.7,1.1,6.3,1.3C5.8,1.4,5.5,2,5.7,2.5C5.9,3.1,6.4,3.3,6.9,3.2z" fill="#FF6711" />
  </symbol>
  <symbol id="micOn" viewBox="0 0 24 24" fill="none">
    <path d="M12,15.7c1,0,1.9-0.4,2.6-1.1c0.7-0.7,1.1-1.6,1.1-2.6V4.6c0-1-0.4-1.9-1.1-2.6c-1.4-1.4-3.8-1.4-5.2,0C8.7,2.7,8.3,3.7,8.3,4.6V12c0,1,0.4,1.9,1.1,2.6C10.1,15.3,11,15.7,12,15.7z M10.2,4.6c0-0.5,0.2-1,0.5-1.3C11,3,11.5,2.8,12,2.8c0.5,0,1,0.2,1.3,0.5c0.3,0.3,0.5,0.8,0.5,1.3V12c0,0.5-0.2,1-0.5,1.3c-0.7,0.7-1.9,0.7-2.6,0c-0.3-0.3-0.5-0.8-0.5-1.3V4.6z" fill="#49a26b" />
    <path d="M18.4,9.2c-0.5,0-0.9,0.4-0.9,0.9V12c0,1.5-0.6,2.9-1.6,3.9c-1,1-2.4,1.6-3.9,1.6c-1.5,0-2.9-0.6-3.9-1.6c-1-1-1.6-2.4-1.6-3.9v-1.8c0-0.5-0.4-0.9-0.9-0.9s-0.9,0.4-0.9,0.9V12c0,2,0.8,3.8,2.2,5.2c1.2,1.2,2.7,1.9,4.3,2.1v1.9H8.3c-0.5,0-0.9,0.4-0.9,0.9S7.8,23,8.3,23h7.3c0.5,0,0.9-0.4,0.9-0.9s-0.4-0.9-0.9-0.9h-2.8v-1.9c1.6-0.2,3.1-0.9,4.3-2.1c1.4-1.4,2.2-3.2,2.2-5.2v-1.8C19.3,9.6,18.9,9.2,18.4,9.2z" fill="#49a26b" />
  </symbol>
  <symbol id="micOff" viewBox="0 0 24 24" fill="none">
    <path d="M22.7,21.4L2.6,1.3c-0.4-0.4-0.9-0.4-1.3,0c-0.4,0.4-0.4,0.9,0,1.3l7.1,7.1V12c0,0.7,0.2,1.4,0.6,2c0.4,0.6,1,1.1,1.6,1.3c0.4,0.2,0.9,0.3,1.4,0.3c0.2,0,0.5,0,0.7-0.1c0.4-0.1,0.8-0.2,1.1-0.4l1.4,1.4c-0.6,0.5-1.3,0.8-2.1,0.9c-1.1,0.2-2.2,0.1-3.2-0.3c-1-0.4-1.9-1.1-2.5-2c-0.6-0.9-0.9-2-0.9-3.1v-1.8c0-0.5-0.4-0.9-0.9-0.9s-0.9,0.4-0.9,0.9V12c0,1.5,0.4,2.9,1.2,4.1c0.8,1.2,2,2.2,3.3,2.7c0.6,0.3,1.2,0.4,1.9,0.5v1.8H8.3c-0.5,0-0.9,0.4-0.9,0.9S7.8,23,8.3,23h7.3c0.5,0,0.9-0.4,0.9-0.9s-0.4-0.9-0.9-0.9h-2.8v-1.8c0.2,0,0.4,0,0.6-0.1c1.1-0.2,2.2-0.7,3-1.4l4.9,4.9c0.2,0.2,0.4,0.3,0.6,0.3s0.5-0.1,0.6-0.3C23.1,22.4,23.1,21.8,22.7,21.4z M12.4,13.8c-0.4,0.1-0.7,0-1.1-0.1c-0.3-0.1-0.6-0.4-0.8-0.7c-0.2-0.3-0.3-0.7-0.3-1v-0.5l2.3,2.3C12.4,13.8,12.4,13.8,12.4,13.8z" fill="#FF6711" />
    <path d="M9.1,5c0.5,0.1,1-0.2,1.1-0.7c0.1-0.4,0.3-0.8,0.7-1.1c0.4-0.3,0.8-0.4,1.3-0.3c0.5,0,0.9,0.3,1.2,0.6c0.3,0.3,0.5,0.8,0.5,1.2v4.9c0,0.5,0.4,0.9,0.9,0.9s0.9-0.4,0.9-0.9V4.7c0-0.9-0.3-1.8-0.9-2.5c-0.6-0.7-1.4-1.1-2.4-1.2c-0.9-0.1-1.8,0.2-2.5,0.7C9.1,2.3,8.6,3,8.4,3.9C8.3,4.4,8.6,4.9,9.1,5z" fill="#FF6711" />
    <path d="M18.2,14c0.1,0,0.1,0,0.2,0c0.4,0,0.8-0.3,0.9-0.8c0.1-0.4,0.1-0.9,0.1-1.3v-1.8c0-0.5-0.4-0.9-0.9-0.9c-0.5,0-0.9,0.4-0.9,0.9V12c0,0.3,0,0.6-0.1,1C17.3,13.5,17.7,13.9,18.2,14z" fill="#FF6711" />
  </symbol>
  <symbol id="mic" viewBox="0 0 24 24" fill="none">
    <path d="M12,15.7c1,0,1.9-0.4,2.6-1.1c0.7-0.7,1.1-1.6,1.1-2.6V4.6c0-1-0.4-1.9-1.1-2.6c-1.4-1.4-3.8-1.4-5.2,0C8.7,2.7,8.3,3.7,8.3,4.6V12c0,1,0.4,1.9,1.1,2.6C10.1,15.3,11,15.7,12,15.7z M10.2,4.6c0-0.5,0.2-1,0.5-1.3C11,3,11.5,2.8,12,2.8c0.5,0,1,0.2,1.3,0.5c0.3,0.3,0.5,0.8,0.5,1.3V12c0,0.5-0.2,1-0.5,1.3c-0.7,0.7-1.9,0.7-2.6,0c-0.3-0.3-0.5-0.8-0.5-1.3V4.6z" fill="currentColor" />
    <path d="M18.4,9.2c-0.5,0-0.9,0.4-0.9,0.9V12c0,1.5-0.6,2.9-1.6,3.9c-1,1-2.4,1.6-3.9,1.6c-1.5,0-2.9-0.6-3.9-1.6c-1-1-1.6-2.4-1.6-3.9v-1.8c0-0.5-0.4-0.9-0.9-0.9s-0.9,0.4-0.9,0.9V12c0,2,0.8,3.8,2.2,5.2c1.2,1.2,2.7,1.9,4.3,2.1v1.9H8.3c-0.5,0-0.9,0.4-0.9,0.9S7.8,23,8.3,23h7.3c0.5,0,0.9-0.4,0.9-0.9s-0.4-0.9-0.9-0.9h-2.8v-1.9c1.6-0.2,3.1-0.9,4.3-2.1c1.4-1.4,2.2-3.2,2.2-5.2v-1.8C19.3,9.6,18.9,9.2,18.4,9.2z" fill="currentColor" />
  </symbol>
  <symbol id="camera" viewBox="0 0 24 24" fill="none">
    <path d="M22.5,6.6c-0.3-0.2-0.7-0.1-1,0.1l-4.8,3.4V7.5c0-1.6-1.3-2.8-2.8-2.8h-10C2.3,4.6,1,5.9,1,7.5v9.1c0,1.6,1.3,2.8,2.8,2.8h10c1.6,0,2.8-1.3,2.8-2.8v-2.6l4.8,3.4c0.2,0.1,0.4,0.2,0.6,0.2c0.2,0,0.3,0,0.5-0.1c0.3-0.2,0.5-0.5,0.5-0.9V7.5C23,7.1,22.8,6.7,22.5,6.6z M14.6,16.5c0,0.5-0.4,0.8-0.8,0.8h-10C3.4,17.4,3,17,3,16.5V7.5C3,7,3.4,6.6,3.8,6.6h10c0.5,0,0.8,0.4,0.8,0.8V16.5z M21,14.6L17.4,12L21,9.4V14.6z" fill="currentColor" />
  </symbol>
  <symbol id="cameraOn" viewBox="0 0 24 24" fill="none">
    <path d="M22.5,6.6c-0.3-0.2-0.7-0.1-1,0.1l-4.8,3.4V7.5c0-1.6-1.3-2.8-2.8-2.8h-10C2.3,4.6,1,5.9,1,7.5v9.1c0,1.6,1.3,2.8,2.8,2.8h10c1.6,0,2.8-1.3,2.8-2.8v-2.6l4.8,3.4c0.2,0.1,0.4,0.2,0.6,0.2c0.2,0,0.3,0,0.5-0.1c0.3-0.2,0.5-0.5,0.5-0.9V7.5C23,7.1,22.8,6.7,22.5,6.6z M14.6,16.5c0,0.5-0.4,0.8-0.8,0.8h-10C3.4,17.4,3,17,3,16.5V7.5C3,7,3.4,6.6,3.8,6.6h10c0.5,0,0.8,0.4,0.8,0.8V16.5z M21,14.6L17.4,12L21,9.4V14.6z" fill="#49a26b" />
  </symbol>
  <symbol id="cameraOff" viewBox="0 0 24 24" fill="none">
    <path d="M22.5,6.6c-0.3-0.2-0.7-0.1-1,0.1l-4.9,3.5l-0.1-0.1V7.4c0-0.7-0.3-1.4-0.8-1.9s-1.2-0.8-1.9-0.8h-3.1c-0.5,0-0.9,0.4-0.9,0.9s0.4,0.9,0.9,0.9h3.1c0.2,0,0.5,0.1,0.6,0.3c0.2,0.2,0.3,0.4,0.3,0.6v3.1c0,0.2,0.1,0.5,0.3,0.6l0.9,0.9c0.3,0.3,0.8,0.4,1.2,0.1l4-2.9v7.4c0,0.5,0.4,0.9,0.9,0.9s0.9-0.4,0.9-0.9V7.4C23,7.1,22.8,6.8,22.5,6.6z" fill="#FF6711" />
    <path d="M16.3,15C16.3,15,16.3,15,16.3,15L2.6,1.3c-0.4-0.4-0.9-0.4-1.3,0c-0.4,0.4-0.4,0.9,0,1.3l2.1,2.1C2.8,4.8,2.2,5,1.8,5.5C1.3,6,1,6.7,1,7.4v9.2c0,0.7,0.3,1.4,0.8,1.9C2.3,19,3,19.3,3.8,19.3h10.1c0.7,0,1.4-0.3,1.9-0.8c0.3-0.3,0.4-0.5,0.6-0.9l5.1,5.1c0.2,0.2,0.4,0.3,0.6,0.3s0.5-0.1,0.6-0.3c0.4-0.4,0.4-0.9,0-1.3L16.3,15z M14.8,16.6c0,0.2-0.1,0.5-0.3,0.6c-0.2,0.2-0.4,0.3-0.6,0.3H3.8c-0.2,0-0.5-0.1-0.6-0.3c-0.2-0.2-0.3-0.4-0.3-0.6V7.4c0-0.2,0.1-0.5,0.3-0.6c0.2-0.2,0.4-0.3,0.6-0.3h1.5l9.5,9.5V16.6z" fill="#FF6711" />
  </symbol>
  <symbol id="shareOn" viewBox="0 0 24 24" fill="none">
    <path d="M20,2H4C2.3,2,1,3.3,1,5v10c0,1.7,1.3,3,3,3h7v2H8c-0.6,0-1,0.4-1,1s0.4,1,1,1h8c0.6,0,1-0.4,1-1s-0.4-1-1-1h-3v-2h7c1.7,0,3-1.3,3-3V5C23,3.3,21.7,2,20,2z M21,15c0,0.6-0.4,1-1,1H4c-0.6,0-1-0.4-1-1V5c0-0.6,0.4-1,1-1h16c0.6,0,1,0.4,1,1V15z" fill="#FF6711" />
    <path d="M15.7,6.3c-0.4-0.4-1-0.4-1.4,0L12,8.6L9.7,6.3c-0.4-0.4-1-0.4-1.4,0s-0.4,1,0,1.4l2.3,2.3l-2.3,2.3c-0.4,0.4-0.4,1,0,1.4C8.5,13.9,8.7,14,9,14s0.5-0.1,0.7-0.3l2.3-2.3l2.3,2.3c0.2,0.2,0.5,0.3,0.7,0.3s0.5-0.1,0.7-0.3c0.4-0.4,0.4-1,0-1.4L13.4,10l2.3-2.3C16.1,7.3,16.1,6.7,15.7,6.3z" fill="#FF6711" />
  </symbol>
  <symbol id="shareOff" viewBox="0 0 24 24" fill="none">
    <path d="M20,2H4C2.3,2,1,3.3,1,5v10c0,1.7,1.3,3,3,3h7v2H8c-0.6,0-1,0.4-1,1s0.4,1,1,1h8c0.6,0,1-0.4,1-1s-0.4-1-1-1h-3v-2h7c1.7,0,3-1.3,3-3V5C23,3.3,21.7,2,20,2z M21,15c0,0.6-0.4,1-1,1H4c-0.6,0-1-0.4-1-1V5c0-0.6,0.4-1,1-1h16c0.6,0,1,0.4,1,1V15z" fill="currentColor" />
    <path d="M12.7,5.9c-0.2-0.2-0.4-0.3-0.7-0.3s-0.5,0.1-0.7,0.3L8.5,8.7c-0.4,0.4-0.4,1,0,1.4c0.4,0.4,1,0.4,1.4,0L11,9v4.4c0,0.6,0.4,1,1,1s1-0.4,1-1V9l1.1,1.1c0.2,0.2,0.5,0.3,0.7,0.3s0.5-0.1,0.7-0.3c0.4-0.4,0.4-1,0-1.4L12.7,5.9z" fill="currentColor" />
  </symbol>
  <symbol id="leave" viewBox="0 0 24 24">
    <path d="M9,20H5c-0.3,0-0.5-0.1-0.7-0.3C4.1,19.5,4,19.3,4,19V5c0-0.3,0.1-0.5,0.3-0.7C4.5,4.1,4.7,4,5,4h4c0.6,0,1-0.4,1-1S9.6,2,9,2H5C4.2,2,3.4,2.3,2.9,2.9C2.3,3.4,2,4.2,2,5v14c0,0.8,0.3,1.6,0.9,2.1C3.4,21.7,4.2,22,5,22h4c0.6,0,1-0.4,1-1S9.6,20,9,20z" />
    <path d="M21.9,12.4C22,12.3,22,12.1,22,12s0-0.3-0.1-0.4c-0.1-0.1-0.1-0.2-0.2-0.3l-5-5c-0.4-0.4-1-0.4-1.4,0s-0.4,1,0,1.4l3.3,3.3H9c-0.6,0-1,0.4-1,1s0.4,1,1,1h9.6l-3.3,3.3c-0.4,0.4-0.4,1,0,1.4c0.2,0.2,0.5,0.3,0.7,0.3s0.5-0.1,0.7-0.3l5-5C21.8,12.6,21.9,12.5,21.9,12.4z" />
  </symbol>
  <symbol id="enter" viewBox="0 0 24 24">
    <path d="M10.6,16.6l3.6-3.6H1c-0.6,0-1-0.4-1-1s0.4-1,1-1h13.2l-3.6-3.6L12,6l6,6l-6,6L10.6,16.6z" />
    <path fill-rule="evenodd" clip-rule="evenodd" d="M12,2c-1.1,0-2,0.9-2,2v1c0,0.6-0.4,1-1,1S8,5.6,8,5V4c0-2.2,1.8-4,4-4h8c2.2,0,4,1.8,4,4v16c0,2.2-1.8,4-4,4 h-8c-2.2,0-4-1.8-4-4v-1c0-0.6,0.4-1,1-1s1,0.4,1,1v1c0,1.1,0.9,2,2,2h8c1.1,0,2-0.9,2-2V4c0-1.1-0.9-2-2-2H12z" />
  </symbol>
  <symbol id="fullscreen" viewBox="0 0 24 24">
    <path d="M22,14.7c-0.5,0-1,0.4-1,1v4.2l-5.7-5.7c-0.4-0.4-1-0.4-1.3,0s-0.4,1,0,1.3l5.7,5.7h-4c-0.5,0-1,0.4-1,1s0.5,0.9,1,0.9H22c0.5,0,1-0.4,1-1v-6.4C23,15.2,22.6,14.7,22,14.7z" />
    <path d="M4.2,2.8h4.2c0.5,0,1-0.4,1-1S8.8,1,8.3,1H2C1.4,1,1,1.4,1,2v6.4c0,0.5,0.4,1,1,1s0.9-0.5,0.9-1V4.2l5.7,5.7c0.4,0.4,1,0.4,1.3,0s0.4-1,0-1.3L4.2,2.8z" />
    <path d="M22,1h-6.4c-0.5,0-1,0.4-1,1s0.4,1,1,1h4.2l-5.7,5.7c-0.4,0.4-0.4,1,0,1.3s1,0.4,1.3,0l5.7-5.7v4c0,0.5,0.4,1,1,1s0.9-0.5,0.9-1V2C23,1.4,22.6,1,22,1z" />
    <path d="M8.6,14.1l-5.7,5.7v-4.2c0-0.5-0.4-1-1-1S1,15.2,1,15.7V22c0,0.6,0.4,1,1,1h6.4c0.5,0,1-0.4,1-1c0-0.6-0.5-0.9-1-0.9H4.2l5.7-5.7c0.4-0.4,0.4-1,0-1.3S8.9,13.7,8.6,14.1z" />
  </symbol>
  <symbol id="exitfullscreen" viewBox="0 0 24 24">
    <path d="M16.9,15.6H21c0.5,0,1-0.4,1-1s-0.4-1-1-1h-6.3c-0.5,0-1,0.4-1,1v6.3c0,0.5,0.4,1,1,1c0.6,0,1-0.4,1-1v-4.1l5.7,5.7c0.4,0.4,1,0.4,1.3,0c0.4-0.4,0.4-1,0-1.3L16.9,15.6z" />
    <path d="M9.3,2c-0.6,0-1,0.4-1,0.8V7L2.6,1.3c-0.4-0.4-1-0.4-1.3,0s-0.4,1,0,1.3L7,8.3H2.8C2.4,8.3,2,8.7,2,9.3s0.4,1,1,1h6.3c0.5,0,1-0.4,1-1V2.8C10.1,2.4,9.8,2,9.3,2z" />
    <path d="M14.6,10.1h6.3c0.5,0,1-0.4,1-1c0-0.6-0.4-0.8-0.8-0.8h-4.1l5.7-5.7c0.4-0.4,0.4-1,0-1.3c-0.4-0.4-1-0.4-1.3,0L15.6,7V2.8c0-0.5-0.4-1-1-1s-1,0.4-1,1v6.3C13.8,9.8,14.1,10.1,14.6,10.1z" />
    <path d="M9.3,13.8H2.8c-0.5,0-1,0.4-1,1c0,0.6,0.5,0.8,1,0.8H7l-5.7,5.7c-0.4,0.4-0.4,1,0,1.3c0.4,0.4,1,0.4,1.3,0l5.7-5.7V21c0,0.5,0.4,1,1,1s1-0.4,1-1v-6.3C10.1,14.1,9.8,13.8,9.3,13.8z" />
  </symbol>
  <symbol id="record" viewBox="0 0 256 256">
    <path d="M128,24A104,104,0,1,0,232,128,104.11791,104.11791,0,0,0,128,24Zm0,192a88,88,0,1,1,88-88A88.09957,88.09957,0,0,1,128,216Zm72-88a72,72,0,1,1-72-72A72.08124,72.08124,0,0,1,200,128Z"/>
  </symbol>
  <symbol id="stopRecord" viewBox="0 0 256 256">
    <path d="M128,24A104,104,0,1,0,232,128,104.11791,104.11791,0,0,0,128,24Zm0,192a88,88,0,1,1,88-88A88.09957,88.09957,0,0,1,128,216Zm72-88a72,72,0,1,1-72-72A72.08124,72.08124,0,0,1,200,128Z" fill="#FF6711"/>
  </symbol>
  <symbol id="invite" viewBox="0 0 32 32">
    <path fill-rule="evenodd" clip-rule="evenodd" d="M16 18C20.4183 18 24 14.4183 24 10C24 5.58172 20.4183 2 16 2C11.5817 2 8 5.58172 8 10C8 14.4183 11.5817 18 16 18ZM16 16C19.3137 16 22 13.3137 22 10C22 6.68629 19.3137 4 16 4C12.6863 4 10 6.68629 10 10C10 13.3137 12.6863 16 16 16Z" />
    <path d="M24 21C24 20.4477 24.4477 20 25 20C25.5523 20 26 20.4477 26 21V24H29C29.5523 24 30 24.4477 30 25C30 25.5523 29.5523 26 29 26H26V29C26 29.5523 25.5523 30 25 30C24.4477 30 24 29.5523 24 29V26H21C20.4477 26 20 25.5523 20 25C20 24.4477 20.4477 24 21 24H24V21Z" />
    <path d="M13 20C9.13401 20 6 23.134 6 27V29C6 29.5523 6.44772 30 7 30C7.55228 30 8 29.5523 8 29V27C8 24.2386 10.2386 22 13 22H17C17.5523 22 18 21.5523 18 21C18 20.4477 17.5523 20 17 20H13Z" />
  </symbol>
  <symbol id="kick" viewBox="0 0 32 32">
    <path fill-rule="evenodd" clip-rule="evenodd" d="M24 10C24 14.4183 20.4183 18 16 18C11.5817 18 8 14.4183 8 10C8 5.58172 11.5817 2 16 2C20.4183 2 24 5.58172 24 10ZM16 16C19.3137 16 22 13.3137 22 10C22 6.68629 19.3137 4 16 4C12.6863 4 10 6.68629 10 10C10 13.3137 12.6863 16 16 16Z" />
    <path d="M21.7071 20.2931C21.3166 19.9026 20.6834 19.9026 20.2929 20.2931C19.9024 20.6837 19.9024 21.3168 20.2929 21.7074L23.5858 25.0002L20.2929 28.2931C19.9024 28.6837 19.9024 29.3168 20.2929 29.7074C20.6761 30.0906 21.2929 30.0977 21.6849 29.7289L25 26.4138L28.2929 29.7074C28.6834 30.0979 29.3166 30.0979 29.7071 29.7074C30.0976 29.3168 30.0976 28.6837 29.7071 28.2931L26.4142 25.0002L29.7071 21.7074C30.0976 21.3168 30.0976 20.6837 29.7071 20.2931C29.3166 19.9026 28.6834 19.9026 28.2929 20.2931L25 23.586L21.7071 20.2931Z" />
    <path d="M13 20.0002C9.13401 20.0002 6 23.1343 6 27.0002V29.0002C6 29.5525 6.44772 30.0002 7 30.0002C7.55228 30.0002 8 29.5525 8 29.0002V27.0002C8 24.2388 10.2386 22.0002 13 22.0002H17C17.5523 22.0002 18 21.5525 18 21.0002C18 20.448 17.5523 20.0002 17 20.0002H13Z" />
  </symbol>
</svg>
