<svg xmlns="http://www.w3.org/2000/svg" style="display: none;">
  <symbol id="billing" viewBox="0 0 16 16">
    <path d="M5.44 7.47h5.26v1.25H5.44zm0 2.36h5.26v1.25H5.44zm0-4.76h5.26v1.25H5.44z"/><path d="M11.34 1 9.64.28 8.08 1 6.41.28 4.84 1 2.46 0v16l2.38-1 1.57.69L8.08 15l1.56.69 1.7-.69 2.2 1V0zm.94 13.11-.92-.41-1.69.69-1.57-.72-1.68.69-1.55-.69-1.15.47V1.86l1.15.47 1.55-.69 1.68.69 1.57-.69 1.69.69.92-.41z"/>
  </symbol>
  <symbol id="subscriptions" viewBox="0 0 16 16">
    <path d="M13.5 3h-11A1.5 1.5 0 0 0 1 4.5v7A1.5 1.5 0 0 0 2.5 13h11a1.5 1.5 0 0 0 1.5-1.5v-7A1.5 1.5 0 0 0 13.5 3zm.25 8.5a.25.25 0 0 1-.25.25h-11a.25.25 0 0 1-.25-.25V8h11.5zm0-4.75H2.25V4.5a.25.25 0 0 1 .25-.25h11a.25.25 0 0 1 .25.25zM4 9.5h3v1.25H4zm4.5 0H11v1.25H8.5z"/>
  </symbol>
</svg>
