<svg xmlns="http://www.w3.org/2000/svg" style="display: none;">
  <symbol id="driveapplication" viewBox="0 0 32 32">
    <path d="M27.7,24.8h-8.3c-0.3-1.2-1.3-2.1-2.4-2.4v-1.8c0-0.6-0.4-1-1-1s-1,0.4-1,1v1.8c-1.2,0.3-2.1,1.3-2.4,2.4H4.3c-0.6,0-1,0.4-1,1s0.4,1,1,1h8.3c0.4,1.5,1.8,2.6,3.4,2.6s3-1.1,3.4-2.6h8.3c0.6,0,1-0.4,1-1S28.3,24.8,27.7,24.8z M16,27.3c-0.9,0-1.6-0.7-1.6-1.6s0.7-1.6,1.6-1.6s1.6,0.7,1.6,1.6S16.9,27.3,16,27.3z" />
    <path d="M9.1,21.6h1.7c0.6,0,1-0.4,1-1s-0.4-1-1-1H9.1c-2.8,0-5.1-2.2-5.1-4.8s2.3-4.8,5.1-4.8c0.5,0,0.9-0.3,1-0.8c0.4-1.9,2-3.5,4.1-4.2c2.1-0.6,4.5-0.2,6.2,1.1c1.6,1.3,2.4,3.3,1.9,5.2c-0.1,0.3,0,0.6,0.2,0.8c0.2,0.2,0.5,0.4,0.8,0.4h1.3c1.9,0,3.5,1.6,3.5,3.5s-1.6,3.5-3.5,3.5h-3.3c-0.6,0-1,0.4-1,1s0.4,1,1,1h3.3c3,0,5.5-2.5,5.5-5.5s-2.5-5.5-5.5-5.5h-0.2c0.1-2.3-0.9-4.5-2.8-6c-2.2-1.7-5.2-2.3-8-1.5C11,3.8,9.1,5.6,8.3,7.9C4.8,8.3,2,11.2,2,14.7C2,18.5,5.2,21.5,9.1,21.6z" />
  </symbol>
  <symbol id="drive" viewBox="0 0 32 32">
    <path d="M29.9,15.6C29.9,15.6,29.9,15.6,29.9,15.6l-4.5-9c-0.3-0.6-0.8-1.1-1.3-1.5c-0.6-0.4-1.2-0.5-1.9-0.5H9.8c-0.7,0-1.3,0.2-1.9,0.5C7.3,5.5,6.9,6,6.6,6.6l-4.5,9c0,0,0,0,0,0C2,15.7,2,15.8,2,16v7.8c0,1,0.4,1.9,1.1,2.5c0.7,0.7,1.6,1.1,2.5,1.1h20.8c1,0,1.9-0.4,2.5-1.1s1.1-1.6,1.1-2.5V16C30,15.8,30,15.7,29.9,15.6z M8.4,7.5C8.4,7.5,8.4,7.5,8.4,7.5C8.5,7.2,8.7,7,9,6.8c0.3-0.2,0.5-0.2,0.8-0.2h12.4c0.3,0,0.6,0.1,0.8,0.2c0.3,0.2,0.5,0.4,0.6,0.7l3.8,7.5H4.6L8.4,7.5z M27.5,24.9c-0.3,0.3-0.7,0.5-1.1,0.5H5.6c-0.4,0-0.8-0.2-1.1-0.5C4.2,24.6,4,24.2,4,23.8V17h24v6.8C28,24.2,27.8,24.6,27.5,24.9z" />
    <path d="M8.2,20.2L8.2,20.2c-0.6,0-1,0.4-1,1s0.5,1,1,1s1-0.4,1-1S8.8,20.2,8.2,20.2z" />
    <path d="M13.4,20.2L13.4,20.2c-0.6,0-1,0.4-1,1s0.5,1,1,1s1-0.4,1-1S14,20.2,13.4,20.2z" />
  </symbol>
  <symbol id="drives" viewBox="0 0 32 32">
    <path d="M30,11.7V8.8c0-2.9-2.4-5.3-5.3-5.3H7.3C4.4,3.4,2,5.8,2,8.8v2.9C2,13.5,2.9,15,4.2,16C2.9,17,2,18.5,2,20.3v2.9c0,2.9,2.4,5.3,5.3,5.3h17.3c2.9,0,5.3-2.4,5.3-5.3v-2.9c0-1.8-0.9-3.4-2.2-4.3C29.1,15,30,13.5,30,11.7z M28,20.3v2.9c0,1.8-1.5,3.3-3.3,3.3H7.3c-1.8,0-3.3-1.5-3.3-3.3v-2.9C4,18.5,5.5,17,7.3,17h17.3C26.5,17,28,18.5,28,20.3z M28,11.7c0,1.8-1.5,3.3-3.3,3.3H7.3C5.5,15,4,13.5,4,11.7V8.8c0-1.8,1.5-3.3,3.3-3.3h17.3c1.8,0,3.3,1.5,3.3,3.3V11.7z" />
    <path d="M8.8,9.2c-0.6,0-1,0.5-1,1s0.4,1,1,1s1-0.4,1-1v0C9.8,9.7,9.3,9.2,8.8,9.2z" />
    <path d="M8.8,22.8c0.6,0,1-0.4,1-1v0c0-0.6-0.4-1-1-1s-1,0.5-1,1S8.2,22.8,8.8,22.8z" />
    <path d="M23.2,9.2h-8.7c-0.6,0-1,0.4-1,1s0.4,1,1,1h8.7c0.6,0,1-0.4,1-1S23.8,9.2,23.2,9.2z" />
    <path d="M14.6,22.8h8.7c0.6,0,1-0.4,1-1s-0.4-1-1-1h-8.7c-0.6,0-1,0.4-1,1S14,22.8,14.6,22.8z" />
  </symbol>
  <symbol id="grid" viewBox="0 0 20 20">
    <path fill-rule="evenodd" clip-rule="evenodd"
      d="M7.5 12.5H3.75L3.75 16.25H7.5V12.5ZM7.5 3.75H3.75L3.75 7.5H7.5V3.75ZM16.25 12.5H12.5V16.25H16.25V12.5ZM16.25 3.75H12.5V7.5H16.25V3.75ZM3.75 2.5C3.05964 2.5 2.5 3.05964 2.5 3.75V7.5C2.5 8.19036 3.05964 8.75 3.75 8.75H7.5C8.19036 8.75 8.75 8.19036 8.75 7.5V3.75C8.75 3.05964 8.19036 2.5 7.5 2.5H3.75ZM3.75 11.25C3.05964 11.25 2.5 11.8096 2.5 12.5V16.25C2.5 16.9404 3.05964 17.5 3.75 17.5H7.5C8.19036 17.5 8.75 16.9404 8.75 16.25V12.5C8.75 11.8096 8.19036 11.25 7.5 11.25H3.75ZM11.25 12.5C11.25 11.8096 11.8096 11.25 12.5 11.25H16.25C16.9404 11.25 17.5 11.8096 17.5 12.5V16.25C17.5 16.9404 16.9404 17.5 16.25 17.5H12.5C11.8096 17.5 11.25 16.9404 11.25 16.25V12.5ZM12.5 2.5C11.8096 2.5 11.25 3.05964 11.25 3.75V7.5C11.25 8.19036 11.8096 8.75 12.5 8.75H16.25C16.9404 8.75 17.5 8.19036 17.5 7.5V3.75C17.5 3.05964 16.9404 2.5 16.25 2.5H12.5Z" />
  </symbol>
  <symbol id="file" viewBox="0 0 32 32">
    <path fill-rule="evenodd" clip-rule="evenodd" d="M9 4C7.89543 4 7 4.89543 7 6V26C7 27.1046 7.89543 28 9 28H23C24.1046 28 25 27.1046 25 26V12H21C18.7909 12 17 10.2091 17 8V4H9ZM19 4.41421V8C19 9.10457 19.8954 10 21 10H24.5858L19 4.41421ZM5 6C5 3.79086 6.79086 2 9 2H18.5858C19.1162 2 19.6249 2.21071 20 2.58579L26.4142 9C26.7893 9.37507 27 9.88378 27 10.4142V26C27 28.2091 25.2091 30 23 30H9C6.79086 30 5 28.2091 5 26V6Z" fill="currentColor"/>
  </symbol>
  <symbol id="folder" viewBox="0 0 32 32">
    <path fill-rule="evenodd" clip-rule="evenodd" d="M2 9C2 6.23858 4.23858 4 7 4H10.6716C11.4672 4 12.2303 4.31607 12.7929 4.87868L15.6213 7.70711C15.8089 7.89464 16.0632 8 16.3284 8H25C27.7614 8 30 10.2386 30 13V23C30 25.7614 27.7614 28 25 28H7C4.23858 28 2 25.7614 2 23V9ZM7 6C5.34315 6 4 7.34315 4 9V23C4 24.6569 5.34315 26 7 26H25C26.6569 26 28 24.6569 28 23V13C28 11.3431 26.6569 10 25 10H16.3284C15.5328 10 14.7697 9.68393 14.2071 9.12132L11.3787 6.29289C11.1911 6.10536 10.9368 6 10.6716 6H7Z" fill="currentColor"/>
  </symbol>
  <symbol id="folder-open" viewBox="0 0 32 32">
    <path opacity="0.5" d="M4.7,13.9v-5c0-1.8,1.5-3.3,3.3-3.3h3.3c1,0,2,0.5,2.6,1.2l1,1.3h9c1.8,0,3.3,1.5,3.3,3.3v2.5" />
    <path opacity="0.75" d="M5.5,13.9h21c1.6,0,2.8,1.6,2.4,3.1l-1.8,6.9c-0.4,1.5-1.7,2.5-3.2,2.5H8.1c-1.5,0-2.8-1-3.2-2.5l-1.8-6.9C2.7,15.5,3.9,13.9,5.5,13.9L5.5,13.9z" />
    <path d="M29.3,14.3c-0.3-0.4-0.6-0.7-1-0.9v-2c0-2.4-1.9-4.3-4.3-4.3h-8.5l-0.7-0.9c-0.8-1-2.1-1.6-3.4-1.6H8.1c-2.4,0-4.3,1.9-4.3,4.3v4.5c-0.4,0.2-0.7,0.5-1,0.9c-0.7,0.9-0.9,2-0.6,3L4,24.2c0.5,1.9,2.2,3.2,4.2,3.2h15.7c2,0,3.7-1.3,4.2-3.2l1.8-6.9C30.2,16.3,29.9,15.2,29.3,14.3z M8.1,6.6h3.3c0.7,0,1.4,0.3,1.8,0.9l1,1.3c0.2,0.2,0.5,0.4,0.8,0.4h9c1.3,0,2.3,1,2.3,2.3v1.5H5.7v-4C5.7,7.6,6.8,6.6,8.1,6.6z M27.9,16.8l-1.8,6.9c-0.3,1-1.2,1.7-2.3,1.7H8.1c-1.1,0-2-0.7-2.3-1.7l-1.8-6.9c-0.1-0.5,0-0.9,0.3-1.3c0.3-0.4,0.7-0.6,1.2-0.6h21c0.5,0,0.9,0.2,1.2,0.6C28,15.9,28.1,16.3,27.9,16.8z" />
  </symbol>
  <symbol id="folder-closed" viewBox="0 0 32 32">
    <path opacity="0.5" d="M23.9,8.1h-9l-1-1.3c-0.6-0.8-1.6-1.2-2.6-1.2H8.1c-1.8,0-3.3,1.5-3.3,3.3v6.7c0-1.8,1.5-3.3,3.3-3.3h15.8c1.8,0,3.3,1.5,3.3,3.3v-4.2C27.3,9.6,25.8,8.1,23.9,8.1z" />
    <path opacity="0.75" d="M23.9,12.2H8.1c-1.8,0-3.3,1.5-3.3,3.3v7.5c0,1.8,1.5,3.3,3.3,3.3h15.8c1.8,0,3.3-1.5,3.3-3.3v-7.5C27.3,13.7,25.8,12.2,23.9,12.2z" />
    <path d="M23.9,7.1h-8.5l-0.7-0.9c-0.8-1-2.1-1.6-3.4-1.6H8.1c-2.4,0-4.3,1.9-4.3,4.3v6.7v7.5c0,2.4,1.9,4.3,4.3,4.3h15.8c2.4,0,4.3-1.9,4.3-4.3v-6.9v-0.6v-4.2C28.3,9,26.3,7.1,23.9,7.1z M8.1,6.6h3.3c0.7,0,1.4,0.3,1.8,0.9l1,1.3c0.2,0.2,0.5,0.4,0.8,0.4h9c1.3,0,2.3,1,2.3,2.3v0.5c-0.7-0.4-1.5-0.7-2.3-0.7H8.1c-0.9,0-1.7,0.3-2.3,0.7v-3C5.7,7.6,6.8,6.6,8.1,6.6z M26.3,23.1c0,1.3-1,2.3-2.3,2.3H8.1c-1.3,0-2.3-1-2.3-2.3v-7.5c0-1.3,1-2.3,2.3-2.3h15.8c1.3,0,2.3,1,2.3,2.3v0.6V23.1z" />
  </symbol>
  <symbol id="download" viewBox="0 0 24 24">
    <path d="M18.7,9.6C18.5,6,15.6,3.2,12,3.2C8.4,3.2,5.5,6,5.3,9.5c-2.3,0.7-4,2.9-4,5.5c0,3.2,2.6,5.8,5.8,5.8 c0.5,0,1.1-0.1,1.6-0.2C9,20.4,9.2,20,9.1,19.6S8.6,19,8.2,19.1c-0.4,0.1-0.8,0.2-1.2,0.2c-2.3,0-4.2-1.9-4.2-4.2 c0-2,1.4-3.7,3.3-4.1c0.2,0,0.3-0.1,0.4-0.2c0.2-0.1,0.4-0.4,0.4-0.6c0-2.9,2.4-5.2,5.2-5.2s5.2,2.4,5.2,5.2c0,0.1,0,0.1,0,0.2 c0,0.3,0.2,0.6,0.6,0.7c1.9,0.4,3.3,2.1,3.3,4.1c0,2.3-1.9,4.2-4.2,4.2c-0.4,0-0.8-0.1-1.2-0.2c-0.4-0.1-0.8,0.1-0.9,0.5 c-0.1,0.4,0.1,0.8,0.5,0.9c0.5,0.1,1,0.2,1.6,0.2c3.2,0,5.8-2.6,5.8-5.8C22.6,12.5,21,10.4,18.7,9.6z" />
    <path d="M16.1,14.5c-0.3-0.3-0.8-0.3-1.1,0l-2.3,2.3V10c0-0.4-0.3-0.8-0.8-0.8s-0.8,0.3-0.8,0.8v6.7l-2.2-2.2 c-0.3-0.3-0.8-0.3-1.1,0c-0.3,0.3-0.3,0.8,0,1.1l3.5,3.5c0.3,0.3,0.8,0.3,1.1,0l3.6-3.5C16.4,15.2,16.4,14.8,16.1,14.5z" />
  </symbol>
  <symbol id="restore" viewBox="0 0 32 32">
    <path d="M12 10H24.1851L20.5977 6.4141L22 5L28 11L22 17L20.5977 15.5854L24.1821 12H12C10.4087 12 8.88258 12.6321 7.75736 13.7574C6.63214 14.8826 6 16.4087 6 18C6 19.5913 6.63214 21.1174 7.75736 22.2426C8.88258 23.3679 10.4087 24 12 24H19C19.5523 24 20 24.4477 20 25C20 25.5523 19.5523 26 19 26H12C9.87827 26 7.84344 25.1571 6.34315 23.6569C4.84285 22.1566 4 20.1217 4 18C4 15.8783 4.84285 13.8434 6.34315 12.3431C7.84344 10.8429 9.87827 10 12 10Z" />
  </symbol>
</svg>
