<svg xmlns="http://www.w3.org/2000/svg" style="display: none;">
  <symbol id="drive" viewBox="0 0 32 32">
    <path d="M16 3C10.7021 3 5 4.252 5 7V25C5 27.748 10.7021 29 16 29C21.2979 29 27 27.748 27 25V7C27 4.252 21.2979 3 16 3ZM16 5C21.7976 5 24.7949 6.4341 24.9968 7C24.7949 7.5659 21.7976 9 16 9C10.1587 9 7.1606 7.5444 7 7.0176V7.0127C7.1606 6.4556 10.1587 5 16 5ZM7 9.4277C9.1279 10.4951 12.6426 11 16 11C19.3574 11 22.8721 10.4951 25 9.4277V12.9873C24.8394 13.5444 21.8413 15 16 15C10.1499 15 7.1509 13.54 7 13V9.4277ZM7 15.4277C9.1279 16.4951 12.6426 17 16 17C19.3574 17 22.8721 16.4951 25 15.4277V18.9873C24.8394 19.5444 21.8413 21 16 21C10.1499 21 7.1509 19.54 7 19V15.4277ZM16 27C10.1499 27 7.1509 25.54 7 25V21.4277C9.1279 22.4951 12.6426 23 16 23C19.3574 23 22.8721 22.4951 25 21.4277V24.9873C24.8394 25.5444 21.8413 27 16 27Z" fill="currentColor"/>
  </symbol>
  <symbol id="grid" viewBox="0 0 20 20">
    <path fill-rule="evenodd" clip-rule="evenodd"
      d="M7.5 12.5H3.75L3.75 16.25H7.5V12.5ZM7.5 3.75H3.75L3.75 7.5H7.5V3.75ZM16.25 12.5H12.5V16.25H16.25V12.5ZM16.25 3.75H12.5V7.5H16.25V3.75ZM3.75 2.5C3.05964 2.5 2.5 3.05964 2.5 3.75V7.5C2.5 8.19036 3.05964 8.75 3.75 8.75H7.5C8.19036 8.75 8.75 8.19036 8.75 7.5V3.75C8.75 3.05964 8.19036 2.5 7.5 2.5H3.75ZM3.75 11.25C3.05964 11.25 2.5 11.8096 2.5 12.5V16.25C2.5 16.9404 3.05964 17.5 3.75 17.5H7.5C8.19036 17.5 8.75 16.9404 8.75 16.25V12.5C8.75 11.8096 8.19036 11.25 7.5 11.25H3.75ZM11.25 12.5C11.25 11.8096 11.8096 11.25 12.5 11.25H16.25C16.9404 11.25 17.5 11.8096 17.5 12.5V16.25C17.5 16.9404 16.9404 17.5 16.25 17.5H12.5C11.8096 17.5 11.25 16.9404 11.25 16.25V12.5ZM12.5 2.5C11.8096 2.5 11.25 3.05964 11.25 3.75V7.5C11.25 8.19036 11.8096 8.75 12.5 8.75H16.25C16.9404 8.75 17.5 8.19036 17.5 7.5V3.75C17.5 3.05964 16.9404 2.5 16.25 2.5H12.5Z" />
  </symbol>
  <symbol id="file" viewBox="0 0 32 32">
    <path fill-rule="evenodd" clip-rule="evenodd" d="M9 4C7.89543 4 7 4.89543 7 6V26C7 27.1046 7.89543 28 9 28H23C24.1046 28 25 27.1046 25 26V12H21C18.7909 12 17 10.2091 17 8V4H9ZM19 4.41421V8C19 9.10457 19.8954 10 21 10H24.5858L19 4.41421ZM5 6C5 3.79086 6.79086 2 9 2H18.5858C19.1162 2 19.6249 2.21071 20 2.58579L26.4142 9C26.7893 9.37507 27 9.88378 27 10.4142V26C27 28.2091 25.2091 30 23 30H9C6.79086 30 5 28.2091 5 26V6Z" fill="currentColor"/>
  </symbol>
  <symbol id="folder" viewBox="0 0 32 32">
    <path fill-rule="evenodd" clip-rule="evenodd" d="M2 9C2 6.23858 4.23858 4 7 4H10.6716C11.4672 4 12.2303 4.31607 12.7929 4.87868L15.6213 7.70711C15.8089 7.89464 16.0632 8 16.3284 8H25C27.7614 8 30 10.2386 30 13V23C30 25.7614 27.7614 28 25 28H7C4.23858 28 2 25.7614 2 23V9ZM7 6C5.34315 6 4 7.34315 4 9V23C4 24.6569 5.34315 26 7 26H25C26.6569 26 28 24.6569 28 23V13C28 11.3431 26.6569 10 25 10H16.3284C15.5328 10 14.7697 9.68393 14.2071 9.12132L11.3787 6.29289C11.1911 6.10536 10.9368 6 10.6716 6H7Z" fill="currentColor"/>
  </symbol>
  <symbol id="folder-open" viewBox="0 0 33 32">
    <path fill-rule="evenodd" clip-rule="evenodd" d="M28 14V13C28 11.3431 26.6569 10 25 10H16.3284C15.5328 10 14.7697 9.68393 14.2071 9.12132L11.3787 6.29289C11.1911 6.10536 10.9368 6 10.6716 6H7C5.34315 6 4 7.34315 4 9V21L5.17111 16.9011C5.66174 15.1839 7.23128 14 9.01721 14H28Z" fill="currentColor" fill-opacity="0.1"/>
    <path fill-rule="evenodd" clip-rule="evenodd" d="M7 4C4.23858 4 2 6.23858 2 9V23C2 25.7614 4.23858 28 7 28H26.9828C28.7687 28 30.3383 26.8161 30.8289 25.0989L32.5432 19.0989C33.147 16.9856 31.9391 14.8804 30 14.2152V13C30 10.2386 27.7614 8 25 8H16.3284C16.0632 8 15.8089 7.89464 15.6213 7.70711L12.7929 4.87868C12.2303 4.31607 11.4672 4 10.6716 4H7ZM28 14V13C28 11.3431 26.6569 10 25 10H16.3284C15.5328 10 14.7697 9.68393 14.2071 9.12132L11.3787 6.29289C11.1911 6.10536 10.9368 6 10.6716 6H7C5.34315 6 4 7.34315 4 9V21L5.17111 16.9011C5.66174 15.1839 7.23128 14 9.01721 14H28Z" fill="currentColor"/>
  </symbol>
  <symbol id="folder-closed" viewBox="0 0 32 32">
    <path fill-rule="evenodd" clip-rule="evenodd" d="M2 9C2 6.23858 4.23858 4 7 4H10.6716C11.4672 4 12.2303 4.31607 12.7929 4.87868L15.6213 7.70711C15.8089 7.89464 16.0632 8 16.3284 8H25C27.7614 8 30 10.2386 30 13V23C30 25.7614 27.7614 28 25 28H7C4.23858 28 2 25.7614 2 23V9ZM7 6C5.34315 6 4 7.34315 4 9V23C4 24.6569 5.34315 26 7 26H25C26.6569 26 28 24.6569 28 23V13C28 11.3431 26.6569 10 25 10H16.3284C15.5328 10 14.7697 9.68393 14.2071 9.12132L11.3787 6.29289C11.1911 6.10536 10.9368 6 10.6716 6H7Z" fill="currentColor"/>
    <path fill-rule="evenodd" clip-rule="evenodd" d="M7 6C5.34315 6 4 7.34315 4 9V23C4 24.6569 5.34315 26 7 26H25C26.6569 26 28 24.6569 28 23V13C28 11.3431 26.6569 10 25 10H16.3284C15.5328 10 14.7697 9.68393 14.2071 9.12132L11.3787 6.29289C11.1911 6.10536 10.9368 6 10.6716 6H7Z" fill="currentColor" fill-opacity="0.1"/>
  </symbol>
  <symbol id="download" viewBox="0 0 24 24">
    <path d="M18.7,9.6C18.5,6,15.6,3.2,12,3.2C8.4,3.2,5.5,6,5.3,9.5c-2.3,0.7-4,2.9-4,5.5c0,3.2,2.6,5.8,5.8,5.8 c0.5,0,1.1-0.1,1.6-0.2C9,20.4,9.2,20,9.1,19.6S8.6,19,8.2,19.1c-0.4,0.1-0.8,0.2-1.2,0.2c-2.3,0-4.2-1.9-4.2-4.2 c0-2,1.4-3.7,3.3-4.1c0.2,0,0.3-0.1,0.4-0.2c0.2-0.1,0.4-0.4,0.4-0.6c0-2.9,2.4-5.2,5.2-5.2s5.2,2.4,5.2,5.2c0,0.1,0,0.1,0,0.2 c0,0.3,0.2,0.6,0.6,0.7c1.9,0.4,3.3,2.1,3.3,4.1c0,2.3-1.9,4.2-4.2,4.2c-0.4,0-0.8-0.1-1.2-0.2c-0.4-0.1-0.8,0.1-0.9,0.5 c-0.1,0.4,0.1,0.8,0.5,0.9c0.5,0.1,1,0.2,1.6,0.2c3.2,0,5.8-2.6,5.8-5.8C22.6,12.5,21,10.4,18.7,9.6z" />
    <path d="M16.1,14.5c-0.3-0.3-0.8-0.3-1.1,0l-2.3,2.3V10c0-0.4-0.3-0.8-0.8-0.8s-0.8,0.3-0.8,0.8v6.7l-2.2-2.2 c-0.3-0.3-0.8-0.3-1.1,0c-0.3,0.3-0.3,0.8,0,1.1l3.5,3.5c0.3,0.3,0.8,0.3,1.1,0l3.6-3.5C16.4,15.2,16.4,14.8,16.1,14.5z" />
  </symbol>

</svg>
