<svg xmlns="http://www.w3.org/2000/svg" style="display: none;">
  <symbol id="drive" viewBox="0 0 32 32">
    <path d="M16 3C10.7021 3 5 4.252 5 7V25C5 27.748 10.7021 29 16 29C21.2979 29 27 27.748 27 25V7C27 4.252 21.2979 3 16 3ZM16 5C21.7976 5 24.7949 6.4341 24.9968 7C24.7949 7.5659 21.7976 9 16 9C10.1587 9 7.1606 7.5444 7 7.0176V7.0127C7.1606 6.4556 10.1587 5 16 5ZM7 9.4277C9.1279 10.4951 12.6426 11 16 11C19.3574 11 22.8721 10.4951 25 9.4277V12.9873C24.8394 13.5444 21.8413 15 16 15C10.1499 15 7.1509 13.54 7 13V9.4277ZM7 15.4277C9.1279 16.4951 12.6426 17 16 17C19.3574 17 22.8721 16.4951 25 15.4277V18.9873C24.8394 19.5444 21.8413 21 16 21C10.1499 21 7.1509 19.54 7 19V15.4277ZM16 27C10.1499 27 7.1509 25.54 7 25V21.4277C9.1279 22.4951 12.6426 23 16 23C19.3574 23 22.8721 22.4951 25 21.4277V24.9873C24.8394 25.5444 21.8413 27 16 27Z" fill="currentColor"/>
  </symbol>
  <symbol id="file" viewBox="0 0 32 32">
    <path fill-rule="evenodd" clip-rule="evenodd" d="M9 4C7.89543 4 7 4.89543 7 6V26C7 27.1046 7.89543 28 9 28H23C24.1046 28 25 27.1046 25 26V12H21C18.7909 12 17 10.2091 17 8V4H9ZM19 4.41421V8C19 9.10457 19.8954 10 21 10H24.5858L19 4.41421ZM5 6C5 3.79086 6.79086 2 9 2H18.5858C19.1162 2 19.6249 2.21071 20 2.58579L26.4142 9C26.7893 9.37507 27 9.88378 27 10.4142V26C27 28.2091 25.2091 30 23 30H9C6.79086 30 5 28.2091 5 26V6Z" fill="currentColor"/>
  </symbol>
  <symbol id="folder" viewBox="0 0 32 32">
    <path fill-rule="evenodd" clip-rule="evenodd" d="M2 9C2 6.23858 4.23858 4 7 4H10.6716C11.4672 4 12.2303 4.31607 12.7929 4.87868L15.6213 7.70711C15.8089 7.89464 16.0632 8 16.3284 8H25C27.7614 8 30 10.2386 30 13V23C30 25.7614 27.7614 28 25 28H7C4.23858 28 2 25.7614 2 23V9ZM7 6C5.34315 6 4 7.34315 4 9V23C4 24.6569 5.34315 26 7 26H25C26.6569 26 28 24.6569 28 23V13C28 11.3431 26.6569 10 25 10H16.3284C15.5328 10 14.7697 9.68393 14.2071 9.12132L11.3787 6.29289C11.1911 6.10536 10.9368 6 10.6716 6H7Z" fill="currentColor"/>
  </symbol>
</svg>
