<svg xmlns="http://www.w3.org/2000/svg" style="display: none;">
  <symbol id="drive" viewBox="0 0 32 32">
    <path d="M16 3C10.7021 3 5 4.252 5 7V25C5 27.748 10.7021 29 16 29C21.2979 29 27 27.748 27 25V7C27 4.252 21.2979 3 16 3ZM16 5C21.7976 5 24.7949 6.4341 24.9968 7C24.7949 7.5659 21.7976 9 16 9C10.1587 9 7.1606 7.5444 7 7.0176V7.0127C7.1606 6.4556 10.1587 5 16 5ZM7 9.4277C9.1279 10.4951 12.6426 11 16 11C19.3574 11 22.8721 10.4951 25 9.4277V12.9873C24.8394 13.5444 21.8413 15 16 15C10.1499 15 7.1509 13.54 7 13V9.4277ZM7 15.4277C9.1279 16.4951 12.6426 17 16 17C19.3574 17 22.8721 16.4951 25 15.4277V18.9873C24.8394 19.5444 21.8413 21 16 21C10.1499 21 7.1509 19.54 7 19V15.4277ZM16 27C10.1499 27 7.1509 25.54 7 25V21.4277C9.1279 22.4951 12.6426 23 16 23C19.3574 23 22.8721 22.4951 25 21.4277V24.9873C24.8394 25.5444 21.8413 27 16 27Z" fill="currentColor"/>
  </symbol>
</svg>
