<svg xmlns="http://www.w3.org/2000/svg" style="display: none;">
  <symbol id="inviteWorkspace" viewBox="0 0 32 32">
    <path fill-rule="evenodd" clip-rule="evenodd" d="M16 18C20.4183 18 24 14.4183 24 10C24 5.58172 20.4183 2 16 2C11.5817 2 8 5.58172 8 10C8 14.4183 11.5817 18 16 18ZM16 16C19.3137 16 22 13.3137 22 10C22 6.68629 19.3137 4 16 4C12.6863 4 10 6.68629 10 10C10 13.3137 12.6863 16 16 16Z" />
    <path d="M24 21C24 20.4477 24.4477 20 25 20C25.5523 20 26 20.4477 26 21V24H29C29.5523 24 30 24.4477 30 25C30 25.5523 29.5523 26 29 26H26V29C26 29.5523 25.5523 30 25 30C24.4477 30 24 29.5523 24 29V26H21C20.4477 26 20 25.5523 20 25C20 24.4477 20.4477 24 21 24H24V21Z" />
    <path d="M13 20C9.13401 20 6 23.134 6 27V29C6 29.5523 6.44772 30 7 30C7.55228 30 8 29.5523 8 29V27C8 24.2386 10.2386 22 13 22H17C17.5523 22 18 21.5523 18 21C18 20.4477 17.5523 20 17 20H13Z" />
  </symbol>
</svg>
