<svg xmlns="http://www.w3.org/2000/svg" style="display: none;">
  <symbol id="templates" viewBox="0 0 16 16">
    <path d="M12.1,9.5c-0.3,1.3-1.3,2.2-2.5,2.5c-0.4,0.1-1,0.1-2.1,0.1H5.2c-0.6,0-1,0-1.2-0.1C4,12,4,12,3.9,12 c-0.1-0.1-0.1-0.6-0.1-1.2V8.6c0-1.1,0-1.7,0.1-2.1c0.3-1.3,1.3-2.2,2.5-2.5c0.4-0.1,1-0.1,2.1-0.1v-1c-1.2,0-1.8,0-2.3,0.1 C4.6,3.4,3.4,4.6,3,6.2C2.8,6.8,2.8,7.4,2.8,8.6v2.2c0,0.9,0,1.4,0.3,1.8c0.1,0.1,0.1,0.2,0.2,0.2c0.4,0.3,0.9,0.3,1.8,0.3h2.2 c1.2,0,1.8,0,2.3-0.1c1.6-0.4,2.9-1.7,3.3-3.3c0.1-0.5,0.1-1.1,0.1-2.3h-1C12.2,8.5,12.2,9.1,12.1,9.5z"/>
    <path d="M10.5,6.7c0-0.3-0.2-0.5-0.5-0.5H6c-0.3,0-0.5,0.2-0.5,0.5S5.7,7.2,6,7.2h4C10.3,7.2,10.5,6.9,10.5,6.7z"/>
    <path d="M6,8.8c-0.3,0-0.5,0.2-0.5,0.5S5.7,9.8,6,9.8h2c0.3,0,0.5-0.2,0.5-0.5S8.3,8.8,8,8.8H6z"/>
    <path d="M14.7,2.8h-1.5V1.3c0-0.3-0.2-0.5-0.5-0.5s-0.5,0.2-0.5,0.5v1.5h-1.5c-0.3,0-0.5,0.2-0.5,0.5s0.2,0.5,0.5,0.5h1.5v1.5 c0,0.3,0.2,0.5,0.5,0.5s0.5-0.2,0.5-0.5V3.8h1.5c0.3,0,0.5-0.2,0.5-0.5S14.9,2.8,14.7,2.8z"/>
  </symbol>  
</svg>
