<svg xmlns="http://www.w3.org/2000/svg" style="display: none;">
  <symbol id="templates" fill="none" viewBox="0 0 16 16">
    <path d="M8.58334 3.33337V3.33337C7.42111 3.33337 6.83999 3.33337 6.36142 3.45325C4.92972 3.81187 3.81184 4.92975 3.45322 6.36145C3.33334 6.84002 3.33334 7.42114 3.33334 8.58337V10.8C3.33334 11.6139 3.33334 12.0208 3.5562 12.296C3.60017 12.3503 3.64972 12.3999 3.70402 12.4439C3.97922 12.6667 4.38615 12.6667 5.20001 12.6667H7.41668C8.57891 12.6667 9.16003 12.6667 9.6386 12.5468C11.0703 12.1882 12.1882 11.0703 12.5468 9.63863C12.6667 9.16006 12.6667 8.57894 12.6667 7.41671V7.41671" stroke="white"/>
    <path d="M6 6.66663L10 6.66663" stroke="white" stroke-linecap="round" stroke-linejoin="round"/>
    <path d="M6 9.33337H8" stroke="white" stroke-linecap="round" stroke-linejoin="round"/>
    <path d="M12.6667 5.33337L12.6667 1.33337M10.6667 3.33337H14.6667" stroke="white" stroke-linecap="round" stroke-linejoin="round"/>
  </symbol>  
</svg>
