<svg xmlns="http://www.w3.org/2000/svg" style="display: none;">
  <symbol id="templates" viewBox="0 0 24 24">
    <path d="M16,8.2H7C6.6,8.2,6.2,8.6,6.2,9S6.6,9.8,7,9.8h9c0.4,0,0.8-0.3,0.8-0.8S16.4,8.2,16,8.2z" />
    <path d="M16.8,13c0-0.4-0.3-0.8-0.8-0.8H7c-0.4,0-0.8,0.3-0.8,0.8s0.3,0.8,0.8,0.8h9C16.4,13.8,16.8,13.4,16.8,13z" />
    <path d="M7,16.2c-0.4,0-0.8,0.3-0.8,0.8s0.3,0.8,0.8,0.8h5c0.4,0,0.8-0.3,0.8-0.8s-0.3-0.8-0.8-0.8H7z" />
    <path d="M20.9,9.7c0.2,0.7,0.3,1.5,0.3,2.3c0,5.1-4.1,9.2-9.2,9.2H2.8V12c0-5.1,4.1-9.2,9.2-9.2c0.8,0,1.5,0.1,2.2,0.3c0.1-0.5,0.3-1,0.6-1.5C13.9,1.3,13,1.2,12,1.2C6.1,1.2,1.2,6.1,1.2,12v10c0,0.4,0.3,0.8,0.8,0.8h10c5.9,0,10.8-4.8,10.8-10.8c0-0.9-0.1-1.8-0.4-2.6C22,9.6,21.5,9.7,20.9,9.7z" />
    <path d="M16.2,4.5c0,0.4,0.3,0.8,0.8,0.8h1.8V7c0,0.4,0.3,0.8,0.8,0.8s0.8-0.3,0.8-0.8V5.2H22c0.4,0,0.8-0.3,0.8-0.8S22.4,3.8,22,3.8h-1.8V2c0-0.4-0.3-0.8-0.8-0.8S18.8,1.6,18.8,2v1.8H17C16.6,3.8,16.2,4.1,16.2,4.5z" />
  </symbol>  
</svg>
