<svg xmlns="http://www.w3.org/2000/svg" style="display: none;">
  <symbol id="templates" viewBox="0 0 24 24">
    <path d="M16,8.2H7C6.6,8.2,6.2,8.6,6.2,9S6.6,9.8,7,9.8h9c0.4,0,0.8-0.3,0.8-0.8S16.4,8.2,16,8.2z" />
    <path d="M16.8,13c0-0.4-0.3-0.8-0.8-0.8H7c-0.4,0-0.8,0.3-0.8,0.8s0.3,0.8,0.8,0.8h9C16.4,13.8,16.8,13.4,16.8,13z" />
    <path d="M7,16.2c-0.4,0-0.8,0.3-0.8,0.8s0.3,0.8,0.8,0.8h5c0.4,0,0.8-0.3,0.8-0.8s-0.3-0.8-0.8-0.8H7z" />
    <path d="M20.9,9.7c0.2,0.7,0.3,1.5,0.3,2.3c0,5.1-4.1,9.2-9.2,9.2H2.8V12c0-5.1,4.1-9.2,9.2-9.2c0.8,0,1.5,0.1,2.2,0.3c0.1-0.5,0.3-1,0.6-1.5C13.9,1.3,13,1.2,12,1.2C6.1,1.2,1.2,6.1,1.2,12v10c0,0.4,0.3,0.8,0.8,0.8h10c5.9,0,10.8-4.8,10.8-10.8c0-0.9-0.1-1.8-0.4-2.6C22,9.6,21.5,9.7,20.9,9.7z" />
    <path d="M16.2,4.5c0,0.4,0.3,0.8,0.8,0.8h1.8V7c0,0.4,0.3,0.8,0.8,0.8s0.8-0.3,0.8-0.8V5.2H22c0.4,0,0.8-0.3,0.8-0.8S22.4,3.8,22,3.8h-1.8V2c0-0.4-0.3-0.8-0.8-0.8S18.8,1.6,18.8,2v1.8H17C16.6,3.8,16.2,4.1,16.2,4.5z" />
  </symbol>  
  <symbol id="template" viewBox="0 0 20 20">
    <path d="M14.9,13.5c-0.3,0.6-0.8,1.1-1.4,1.4c-0.8,0.4-1.9,0.4-4.2,0.4H6.2c-0.7,0-1.2,0-1.4-0.1s-0.1-0.6-0.1-1.4v-3.1c0-2.3,0-3.5,0.4-4.2c0.3-0.6,0.8-1.1,1.4-1.4c0.8-0.4,1.9-0.4,4.2-0.4v-1C8.3,3.7,7,3.7,6,4.2C5.2,4.6,4.6,5.2,4.2,6c-0.6,1-0.6,2.3-0.6,4.7v3.1c0,1,0,1.6,0.4,2.1s1,0.4,2.1,0.4h3.1c2.5,0,3.7,0,4.7-0.6c0.7-0.4,1.4-1,1.8-1.8c0.6-1,0.6-2.3,0.6-4.7h-1C15.3,11.6,15.3,12.7,14.9,13.5z" />
    <path d="M13,8.3c0-0.3-0.2-0.5-0.5-0.5h-5C7.2,7.8,7,8.1,7,8.3s0.2,0.5,0.5,0.5h5C12.8,8.8,13,8.6,13,8.3z" />
    <path d="M7.5,11.2c-0.3,0-0.5,0.2-0.5,0.5s0.2,0.5,0.5,0.5H10c0.3,0,0.5-0.2,0.5-0.5s-0.2-0.5-0.5-0.5H7.5z" />
    <path d="M18.3,3.7h-2v-2c0-0.3-0.2-0.5-0.5-0.5s-0.5,0.2-0.5,0.5v2h-2c-0.3,0-0.5,0.2-0.5,0.5s0.2,0.5,0.5,0.5h2v2c0,0.3,0.2,0.5,0.5,0.5s0.5-0.2,0.5-0.5v-2h2c0.3,0,0.5-0.2,0.5-0.5S18.6,3.7,18.3,3.7z" />
  </symbol>
  <symbol id="copy" viewBox="0 0 14 15">
    <path d="M7.81684 3.75744V3.75744C7.81123 3.831 7.86122 3.89725 7.9335 3.91202C8.22729 3.98537 8.42847 4.25589 8.41417 4.55835V5.37502C8.41417 5.7758 8.73906 6.10069 9.13983 6.10069C9.54061 6.10101 9.86576 5.77638 9.86608 5.3756C9.86608 5.37541 9.86608 5.37522 9.86608 5.37502V3.31877V3.31877C9.86608 2.83745 9.4759 2.44727 8.99459 2.44727C8.99342 2.44727 8.99225 2.44727 8.99108 2.44727H7.98542C7.94658 2.4471 7.90932 2.46267 7.88217 2.49044C7.85478 2.51781 7.83945 2.55497 7.83958 2.59369C7.84075 2.86961 7.84017 3.46402 7.81683 3.75744L7.81684 3.75744Z" />
    <path d="M5.22317 13.4029C5.22317 13.0022 4.89827 12.6773 4.4975 12.6773H2.03233C1.68869 12.6545 1.42802 12.3584 1.449 12.0146V4.55845C1.43301 4.25112 1.6402 3.97676 1.94017 3.90803C2.01096 3.89368 2.06058 3.82967 2.05683 3.75753C2.03408 3.3107 2.02708 2.8242 2.02475 2.59087C2.02379 2.51101 1.95878 2.44678 1.87892 2.44678H0.875001H0.875001C0.393689 2.44485 0.00194369 2.83346 7.02912e-06 3.31478C1.55273e-06 3.31614 -7.23664e-07 3.31751 1.99927e-07 3.31887V13.2571C1.27299e-07 13.7381 0.389923 14.128 0.870916 14.128C0.871111 14.128 0.871305 14.128 0.8715 14.128H4.4975C4.89804 14.128 5.22284 13.8035 5.22316 13.4029L5.22317 13.4029Z" />
    <path d="M6.96321 3.60887V2.44921C6.96321 2.28812 6.83263 2.15754 6.67154 2.15754H6.22938C6.15513 2.15744 6.09271 2.10179 6.08413 2.02804V2.02804C6.0124 1.39128 5.43806 0.933228 4.8013 1.00495C4.26335 1.06555 3.83881 1.4901 3.77821 2.02804C3.77014 2.10205 3.70741 2.15798 3.63296 2.15754H3.19255C3.03146 2.15754 2.90088 2.28812 2.90088 2.44921V3.60887C2.90088 3.76995 3.03146 3.90054 3.19255 3.90054H6.67329C6.83369 3.89958 6.96321 3.76927 6.96321 3.60887V3.60887Z" />
    <path d="M11.095 11.0737H8.77393C8.5323 11.0737 8.33643 11.2696 8.33643 11.5112C8.33643 11.7529 8.5323 11.9487 8.77393 11.9487H11.095C11.3366 11.9487 11.5325 11.7529 11.5325 11.5112C11.5325 11.2696 11.3366 11.0737 11.095 11.0737Z" />
    <path d="M8.33643 9.48203V9.48203C8.33675 9.72343 8.53253 9.91895 8.77393 9.91894H10.2241C10.4657 9.91894 10.6616 9.72307 10.6616 9.48145C10.6616 9.23982 10.4657 9.04395 10.2241 9.04395H8.77393C8.5323 9.04395 8.33643 9.23982 8.33643 9.48144C8.33643 9.48164 8.33643 9.48183 8.33643 9.48203H8.33643Z" />
    <path d="M13.7083 8.85193V8.85176C13.7083 8.54342 13.5857 8.24775 13.3675 8.02989L12.5474 7.21323C12.3292 6.99509 12.0334 6.87255 11.7249 6.87256H7.28817H7.28817C6.64695 6.87224 6.12654 7.39114 6.125 8.03235V13.8336V13.8336C6.125 14.4779 6.64733 15.0003 7.29167 15.0003H12.5417H12.5417C13.186 15.0003 13.7083 14.4779 13.7083 13.8336L13.7083 8.85193ZM7.29167 8.6186C7.29167 8.29643 7.55283 8.03526 7.875 8.03526H11.4841C11.6387 8.03514 11.787 8.09641 11.8965 8.2056L12.3737 8.6816C12.4832 8.79111 12.5447 8.9397 12.5446 9.0946V13.2503C12.5446 13.5724 12.2834 13.8336 11.9612 13.8336H7.87792C7.55575 13.8336 7.29458 13.5724 7.29458 13.2503L7.29167 8.6186Z" />
  </symbol>
</svg>
