<!-- !!! Dublicate chunter-assets (cunter, hashtag, lock) !!! -->
<svg xmlns="http://www.w3.org/2000/svg" style="display: none;">
  <symbol id="attachment" viewBox="0 0 16 16">
    <path d="M12.9,2.1c-1.6-1.7-4.1-1.7-5.7,0L2.1,7.6c-0.3,0.3-0.3,0.7,0,1c0.3,0.3,0.7,0.3,0.9,0l5.1-5.4C9.2,2,10.9,2,12,3.1C13,4.2,13,6,12,7.1l-5.9,6.3c-0.4,0.4-1,0.4-1.4,0c-0.4-0.4-0.4-1.1,0-1.5l5.9-6.3c0.3-0.3,0.3-0.7,0-1c-0.3-0.3-0.7-0.3-0.9,0l-5.9,6.3c-0.9,1-0.9,2.5,0,3.5c0.9,1,2.4,1,3.3,0l5.9-6.3C14.5,6.5,14.5,3.8,12.9,2.1z" />
  </symbol>
  <symbol id="fileBrowser" viewBox="0 0 24 24">
    <path d="M1.7,6.7l10,3.5c0.2,0.1,0.3,0.1,0.5,0l10-3.5c0.3-0.1,0.5-0.4,0.5-0.7s-0.2-0.6-0.5-0.7l-10-3.5 c-0.2-0.1-0.3-0.1-0.5,0l-10,3.5C1.5,5.4,1.3,5.6,1.2,6S1.4,6.6,1.7,6.7z M12,3.3L19.7,6L12,8.7L4.3,6L12,3.3z" />
    <path d="M21.8,9.3L12,12.7L2.2,9.3c-0.4-0.1-0.8,0.1-1,0.5c-0.1,0.4,0.1,0.8,0.5,1l10,3.5c0.2,0.1,0.3,0.1,0.5,0l10-3.5 c0.4-0.1,0.6-0.6,0.5-1C22.6,9.4,22.1,9.2,21.8,9.3z" />
    <path d="M21.8,13.3L12,16.7l-9.8-3.4c-0.4-0.1-0.8,0.1-1,0.5s0.1,0.8,0.5,1l10,3.5c0.2,0.1,0.3,0.1,0.5,0l10-3.5 c0.4-0.1,0.6-0.6,0.5-1C22.6,13.4,22.1,13.2,21.8,13.3z" />
    <path d="M21.8,17.3L12,20.7l-9.8-3.4c-0.4-0.1-0.8,0.1-1,0.5s0.1,0.8,0.5,1l10,3.5c0.2,0.1,0.3,0.1,0.5,0l10-3.5 c0.4-0.1,0.6-0.6,0.5-1C22.6,17.4,22.1,17.2,21.8,17.3z" />
  </symbol>
</svg>
