<svg xmlns="http://www.w3.org/2000/svg" style="display: none;">
  <symbol id="chunter" viewBox="0 0 24 24">
    <path d="M3,21.6c-0.2,0-0.3-0.1-0.4-0.2c-0.2-0.2-0.2-0.4-0.1-0.6l1.8-5.4c-0.6-1.2-0.8-2.5-0.8-3.8c0-3.4,1.9-6.5,4.9-8 c1.2-0.6,2.6-0.9,4-0.9h0.5c4.6,0.3,8.2,3.9,8.5,8.4l0,0.5c0,1.4-0.3,2.8-0.9,4c-1.5,3-4.6,4.9-8,4.9c0,0,0,0,0,0 c-1.3,0-2.6-0.3-3.8-0.8l-5.4,1.8C3.1,21.6,3.1,21.6,3,21.6z M12.3,3.9c-1.2,0-2.4,0.3-3.4,0.8c-2.6,1.3-4.3,4-4.3,6.9 c0,1.2,0.3,2.4,0.8,3.5c0.1,0.1,0.1,0.3,0,0.5l-1.5,4.5l4.5-1.5c0.2-0.1,0.3,0,0.5,0c1.1,0.5,2.2,0.8,3.5,0.8c3,0,5.6-1.6,6.9-4.3 c0.5-1.1,0.8-2.3,0.8-3.5c0,0,0,0,0,0v-0.5c-0.2-3.9-3.4-7-7.3-7.3L12.3,3.9C12.3,3.9,12.3,3.9,12.3,3.9z M21.3,11.7L21.3,11.7 L21.3,11.7z"/>
  </symbol>

  <symbol id="hashtag" viewBox="0 0 16 16">
    <path d="M14,9.6h-3.2l0.4-3.2H14c0.3,0,0.6-0.3,0.6-0.6S14.3,5.2,14,5.2h-2.7l0.4-3.7c0-0.3-0.2-0.6-0.5-0.7 c-0.3,0-0.6,0.2-0.7,0.5l-0.4,3.8H6.9l0.4-3.7c0-0.3-0.2-0.6-0.5-0.7c-0.3,0-0.6,0.2-0.7,0.5L5.7,5.2H2.3C2,5.2,1.7,5.5,1.7,5.8 S2,6.4,2.3,6.4h3.2L5.2,9.6H2.3c-0.3,0-0.6,0.3-0.6,0.6s0.3,0.6,0.6,0.6h2.7l-0.4,3.7c0,0.3,0.2,0.6,0.5,0.7c0,0,0,0,0.1,0 c0.3,0,0.6-0.2,0.6-0.5l0.4-3.8h3.2L9,14.5c0,0.3,0.2,0.6,0.5,0.7c0,0,0,0,0.1,0c0.3,0,0.6-0.2,0.6-0.5l0.4-3.8H14 c0.3,0,0.6-0.3,0.6-0.6S14.3,9.6,14,9.6z M6.4,9.6l0.4-3.2h3.2L9.6,9.6H6.4z"/>
  </symbol>
  <symbol id="lock" viewBox="0 0 16 16">
    <path d="M13,6.9h-1.1V4.8c0-2.2-1.8-3.9-3.9-3.9c-2.2,0-3.9,1.8-3.9,3.9v2.1H3c-0.9,0-1.6,0.7-1.6,1.6v5.3 c0,0.9,0.7,1.6,1.6,1.6h10c0.9,0,1.6-0.7,1.6-1.6V8.5C14.6,7.6,13.9,6.9,13,6.9z M5.3,4.8c0-1.5,1.2-2.7,2.7-2.7s2.7,1.2,2.7,2.7 v2.1H5.3V4.8z M13.4,13.8c0,0.2-0.2,0.4-0.4,0.4H3c-0.2,0-0.4-0.2-0.4-0.4V8.5c0-0.2,0.2-0.4,0.4-0.4h10c0.2,0,0.4,0.2,0.4,0.4V13.8 z"/>
  </symbol>

</svg>
