<svg xmlns="http://www.w3.org/2000/svg" style="display: none;">
  <symbol id="export" viewBox="0 0 16 16">
    <path d="M7.92231 14.2015L7.99302 14.6964L7.92231 14.2015ZM6.22318 14.311L6.33389 13.8234L6.22318 14.311ZM4.79789 13.0748L5.26492 12.8963L4.79789 13.0748ZM13.373 12.5661L12.9774 12.2603L13.373 12.5661ZM9.05136 14.0402L8.98065 13.5452L9.05136 14.0402ZM13.1512 12.8218L13.5099 13.1701L13.1512 12.8218ZM13.1512 3.17821L12.7926 3.5266L13.1512 3.17821ZM13.373 3.43391L13.7686 3.12813L13.373 3.43391ZM7.98221 2.31213L8.98065 2.45477L9.12207 1.46482L8.12363 1.32218L7.98221 2.31213ZM13.4993 7.66487V8.33509H14.4993V7.66487H13.4993ZM8.98065 13.5452L7.8516 13.7065L7.99302 14.6964L9.12207 14.5351L8.98065 13.5452ZM7.8516 13.7065C7.39911 13.7711 7.0821 13.8162 6.83278 13.8363C6.58629 13.8562 6.44248 13.8481 6.33389 13.8234L6.11247 14.7986C6.364 14.8557 6.62341 14.8565 6.91329 14.8331C7.20033 14.8099 7.55283 14.7593 7.99302 14.6964L7.8516 13.7065ZM4.16602 11.3773C4.16602 11.822 4.1658 12.1781 4.18344 12.4655C4.20126 12.7558 4.23875 13.0125 4.33085 13.2534L5.26492 12.8963C5.22515 12.7923 5.19671 12.6511 5.18156 12.4042C5.16624 12.1546 5.16602 11.8344 5.16602 11.3773H4.16602ZM6.33389 13.8234C5.84503 13.7124 5.44393 13.3645 5.26492 12.8963L4.33085 13.2534C4.62921 14.0338 5.29771 14.6136 6.11247 14.7986L6.33389 13.8234ZM13.4993 8.33509C13.4993 9.48721 13.4986 10.3082 13.4244 10.9439C13.3517 11.5676 13.2136 11.9547 12.9774 12.2603L13.7686 12.8718C14.1587 12.3671 14.3338 11.7788 14.4177 11.0597C14.5001 10.3527 14.4993 9.46335 14.4993 8.33509H13.4993ZM9.12207 14.5351C10.239 14.3756 11.1195 14.2506 11.8078 14.069C12.5078 13.8843 13.0654 13.6277 13.5099 13.1701L12.7926 12.4734C12.5234 12.7504 12.1598 12.9419 11.5526 13.1021C10.9338 13.2654 10.1212 13.3823 8.98065 13.5452L9.12207 14.5351ZM12.9774 12.2603C12.9198 12.3347 12.8581 12.4059 12.7926 12.4734L13.5099 13.1701C13.6017 13.0756 13.688 12.9761 13.7686 12.8718L12.9774 12.2603ZM8.98065 2.45477C10.1212 2.6177 10.9338 2.73458 11.5526 2.89788C12.1598 3.05809 12.5234 3.24952 12.7926 3.5266L13.5099 2.82982C13.0654 2.37222 12.5078 2.11569 11.8078 1.93098C11.1195 1.74936 10.239 1.62438 9.12207 1.46482L8.98065 2.45477ZM14.4993 7.66487C14.4993 6.53661 14.5001 5.64727 14.4177 4.94022C14.3338 4.22111 14.1587 3.63289 13.7686 3.12813L12.9774 3.73968C13.2136 4.04531 13.3517 4.43238 13.4244 5.05606C13.4986 5.69179 13.4993 6.51275 13.4993 7.66487H14.4993ZM12.7926 3.5266C12.8581 3.59409 12.9198 3.66523 12.9774 3.73968L13.7686 3.12813C13.688 3.02391 13.6017 2.92431 13.5099 2.82982L12.7926 3.5266ZM8.12363 1.32218C7.62395 1.2508 7.22383 1.19335 6.89852 1.16973C6.56979 1.14587 6.27615 1.15257 5.99374 1.23142L6.26265 2.19458C6.38494 2.16044 6.54699 2.14684 6.82611 2.16711C7.10865 2.18762 7.46854 2.23875 7.98221 2.31213L8.12363 1.32218ZM5.16602 4.7546C5.16602 4.23572 5.1663 3.87222 5.18595 3.58961C5.20536 3.31043 5.24174 3.15194 5.29283 3.0357L4.37738 2.63328C4.25938 2.90171 4.21122 3.19145 4.18836 3.52025C4.16573 3.84563 4.16602 4.24985 4.16602 4.7546H5.16602ZM5.99374 1.23142C5.27211 1.43289 4.67888 1.9474 4.37738 2.63328L5.29283 3.0357C5.47374 2.62417 5.82967 2.31547 6.26265 2.19458L5.99374 1.23142Z"/>
    <path d="M10.666 8.00002L11.0565 7.68767L11.3063 8.00002L11.0565 8.31237L10.666 8.00002ZM2.66602 8.50002C2.38987 8.50002 2.16602 8.27616 2.16602 8.00002C2.16602 7.72388 2.38987 7.50002 2.66602 7.50002V8.50002ZM8.38978 4.35434L11.0565 7.68767L10.2756 8.31237L7.60891 4.97903L8.38978 4.35434ZM11.0565 8.31237L8.38978 11.6457L7.60891 11.021L10.2756 7.68767L11.0565 8.31237ZM10.666 8.50002H2.66602V7.50002H10.666V8.50002Z"/>
  </symbol>
</svg>
