<svg xmlns="http://www.w3.org/2000/svg" style="display: none;">
    <symbol id="attempt" viewBox="0 0 32 32">
        <path d="M8 4.00012H22C23.1046 4.00012 24 4.89555 24 6.00012V19.0001C24 19.5524 24.4477 20.0001 25 20.0001C25.5523 20.0001 26 19.5524 26 19.0001V6.00012C26 3.79098 24.2091 2.00012 22 2.00012H8C5.79086 2.00012 4 3.79098 4 6.00012V8.00012H3C2.44772 8.00012 2 8.44784 2 9.00012C2 9.55241 2.44772 10.0001 3 10.0001H4V15.0001H3C2.44772 15.0001 2 15.4478 2 16.0001C2 16.5524 2.44772 17.0001 3 17.0001H4V22.0001H3C2.44772 22.0001 2 22.4478 2 23.0001C2 23.5524 2.44772 24.0001 3 24.0001H4V26.0001C4 28.2093 5.79086 30.0001 8 30.0001H15C15.5523 30.0001 16 29.5524 16 29.0001C16 28.4478 15.5523 28.0001 15 28.0001H8C6.89543 28.0001 6 27.1047 6 26.0001V24.0001H7C7.55228 24.0001 8 23.5524 8 23.0001C8 22.4478 7.55228 22.0001 7 22.0001H6V17.0001H7C7.55228 17.0001 8 16.5524 8 16.0001C8 15.4478 7.55228 15.0001 7 15.0001H6V10.0001H7C7.55228 10.0001 8 9.55241 8 9.00012C8 8.44784 7.55228 8.00012 7 8.00012H6V6.00012C6 4.89555 6.89543 4.00012 8 4.00012Z" />
        <path d="M19 8.00049H11C10.4477 8.00049 10 8.4482 10 9.00049C10 9.55277 10.4477 10.0005 11 10.0005H19C19.5523 10.0005 20 9.55277 20 9.00049C20 8.4482 19.5523 8.00049 19 8.00049Z" />
        <path d="M11 13.0005H19C19.5523 13.0005 20 13.4482 20 14.0005C20 14.5528 19.5523 15.0005 19 15.0005H11C10.4477 15.0005 10 14.5528 10 14.0005C10 13.4482 10.4477 13.0005 11 13.0005Z" />
        <path d="M11 18.0005H19C19.5523 18.0005 20 18.4482 20 19.0005C20 19.5528 19.5523 20.0005 19 20.0005H11C10.4477 20.0005 10 19.5528 10 19.0005C10 18.4482 10.4477 18.0005 11 18.0005Z" />
        <path d="M23 27.2005L20.4 24.6005L19 26.0005L23 30.0005L30 23.0005L28.6 21.6005L23 27.2005Z" />
    </symbol>
    <symbol id="cancel" viewBox="0 0 32 32">
        <path d="M16 2.00012C8.2 2.00012 2 8.20012 2 16.0001C2 23.8001 8.2 30.0001 16 30.0001C23.8 30.0001 30 23.8001 30 16.0001C30 8.20012 23.8 2.00012 16 2.00012ZM16 28.0001C9.4 28.0001 4 22.6001 4 16.0001C4 9.40012 9.4 4.00012 16 4.00012C22.6 4.00012 28 9.40012 28 16.0001C28 22.6001 22.6 28.0001 16 28.0001Z" />
        <path d="M9.29289 9.29326C8.90237 9.68378 8.90237 10.3169 9.29289 10.7075L14.5858 16.0004L9.29289 21.2933C8.90237 21.6838 8.90237 22.3169 9.29289 22.7075C9.68342 23.098 10.3166 23.098 10.7071 22.7075L16 17.4146L21.2929 22.7075C21.6834 23.098 22.3166 23.098 22.7071 22.7075C23.0976 22.3169 23.0976 21.6838 22.7071 21.2933L17.4142 16.0004L22.7071 10.7075C23.0976 10.3169 23.0976 9.68378 22.7071 9.29326C22.3166 8.90274 21.6834 8.90274 21.2929 9.29326L16 14.5862L10.7071 9.29326C10.3166 8.90274 9.68342 8.90274 9.29289 9.29326Z" />
    </symbol>
    <symbol id="duplicate" viewBox="0 0 32 32">
        <path fill-rule="evenodd" clip-rule="evenodd" d="M10 6.00012C10 3.79098 11.7909 2.00012 14 2.00012H24C26.2091 2.00012 28 3.79098 28 6.00012V20.0001C28 22.2093 26.2091 24.0001 24 24.0001H14C11.7909 24.0001 10 22.2093 10 20.0001V6.00012ZM14 4.00012C12.8954 4.00012 12 4.89555 12 6.00012V20.0001C12 21.1047 12.8954 22.0001 14 22.0001H24C25.1046 22.0001 26 21.1047 26 20.0001V6.00012C26 4.89555 25.1046 4.00012 24 4.00012H14Z" />
        <path fill-rule="evenodd" clip-rule="evenodd" d="M8 10.0001C6.89543 10.0001 6 10.8956 6 12.0001V26.0001C6 27.1047 6.89543 28.0001 8 28.0001H18C19.1046 28.0001 20 27.1047 20 26.0001V24.0001H22V26.0001C22 28.2093 20.2091 30.0001 18 30.0001H8C5.79086 30.0001 4 28.2093 4 26.0001V12.0001C4 9.79098 5.79086 8.00012 8 8.00012H10V10.0001H8Z" />
    </symbol>
    <symbol id="release" viewBox="0 0 32 32">
        <path fill-rule="evenodd" clip-rule="evenodd" d="M8.22202 4.35955C10.5243 2.82121 13.2311 2.00012 16 2.00012C19.713 2.00012 23.274 3.47512 25.8995 6.10063C28.525 8.72614 30 12.2871 30 16.0001C30 18.7691 29.1789 21.4758 27.6406 23.7781C26.1022 26.0804 23.9157 27.8748 21.3576 28.9344C18.7994 29.9941 15.9845 30.2713 13.2687 29.7311C10.553 29.1909 8.05845 27.8576 6.10051 25.8996C4.14258 23.9417 2.80921 21.4471 2.26901 18.7314C1.72882 16.0157 2.00607 13.2007 3.06569 10.6426C4.12532 8.08439 5.91973 5.89789 8.22202 4.35955ZM22.7071 12.7075C23.0976 12.3169 23.0976 11.6838 22.7071 11.2933C22.3166 10.9027 21.6834 10.9027 21.2929 11.2933L14 18.5862L10.7071 15.2933C10.3166 14.9027 9.68342 14.9027 9.29289 15.2933C8.90237 15.6838 8.90237 16.3169 9.29289 16.7075L13.2929 20.7075C13.6834 21.098 14.3166 21.098 14.7071 20.7075L22.7071 12.7075Z" />
    </symbol>
    <symbol id="request" viewBox="0 0 32 32">
        <path d="M8 4.00012H22C23.1046 4.00012 24 4.89555 24 6.00012V19.0001C24 19.5524 24.4477 20.0001 25 20.0001C25.5523 20.0001 26 19.5524 26 19.0001V6.00012C26 3.79098 24.2091 2.00012 22 2.00012H8C5.79086 2.00012 4 3.79098 4 6.00012V8.00012H3C2.44772 8.00012 2 8.44784 2 9.00012C2 9.55241 2.44772 10.0001 3 10.0001H4V15.0001H3C2.44772 15.0001 2 15.4478 2 16.0001C2 16.5524 2.44772 17.0001 3 17.0001H4V22.0001H3C2.44772 22.0001 2 22.4478 2 23.0001C2 23.5524 2.44772 24.0001 3 24.0001H4V26.0001C4 28.2093 5.79086 30.0001 8 30.0001H12C12.5523 30.0001 13 29.5524 13 29.0001C13 28.4478 12.5523 28.0001 12 28.0001H8C6.89543 28.0001 6 27.1047 6 26.0001V24.0001H7C7.55228 24.0001 8 23.5524 8 23.0001C8 22.4478 7.55228 22.0001 7 22.0001H6V17.0001H7C7.55228 17.0001 8 16.5524 8 16.0001C8 15.4478 7.55228 15.0001 7 15.0001H6V10.0001H7C7.55228 10.0001 8 9.55241 8 9.00012C8 8.44784 7.55228 8.00012 7 8.00012H6V6.00012C6 4.89555 6.89543 4.00012 8 4.00012Z" />
        <path d="M19 8.00049H11C10.4477 8.00049 10 8.4482 10 9.00049C10 9.55277 10.4477 10.0005 11 10.0005H19C19.5523 10.0005 20 9.55277 20 9.00049C20 8.4482 19.5523 8.00049 19 8.00049Z" />
        <path d="M11 13.0005H19C19.5523 13.0005 20 13.4482 20 14.0005C20 14.5528 19.5523 15.0005 19 15.0005H11C10.4477 15.0005 10 14.5528 10 14.0005C10 13.4482 10.4477 13.0005 11 13.0005Z" />
        <path d="M11 18.0005H19C19.5523 18.0005 20 18.4482 20 19.0005C20 19.5528 19.5523 20.0005 19 20.0005H11C10.4477 20.0005 10 19.5528 10 19.0005C10 18.4482 10.4477 18.0005 11 18.0005Z" />
        <path d="M16.41 26.59L18 28.17L18 23C18 22.4477 18.4477 22 19 22C19.5523 22 20 22.4477 20 23L20 28.17L21.59 26.59L23 28L19 32L15 28L16.41 26.59Z" />
        <path d="M29.59 27.41L28 25.83L28 31C28 31.5523 27.5523 32 27 32C26.4477 32 26 31.5523 26 31L26 25.83L24.41 27.41L23 26L27 22L31 26L29.59 27.41Z" />
    </symbol>
    <symbol id="retry" viewBox="0 0 32 32">
        <path d="M27 18.0001C26.4477 18.0001 26.0052 18.449 25.95 18.9985C25.787 20.6236 25.2277 22.1894 24.3147 23.5558C23.2159 25.2003 21.6541 26.482 19.8268 27.2389C17.9996 27.9958 15.9889 28.1938 14.0491 27.808C12.1093 27.4221 10.3275 26.4697 8.92893 25.0712C7.53041 23.6727 6.578 21.8908 6.19215 19.951C5.80629 18.0112 6.00433 16.0005 6.7612 14.1733C7.51808 12.346 8.7998 10.7842 10.4443 9.68543C12.0888 8.58661 14.0222 8.00012 16 8.00012H22.1821L18.5977 11.5855L20 13.0001L26 7.00012L20 1.00012L18.5977 2.41412L22.1851 6.00012H16C13.6266 6.00012 11.3065 6.70391 9.33316 8.02249C7.35977 9.34106 5.82169 11.2152 4.91344 13.4079C4.00519 15.6006 3.76755 18.0134 4.23057 20.3412C4.6936 22.669 5.83649 24.8072 7.51472 26.4854C9.19295 28.1636 11.3311 29.3065 13.6589 29.7695C15.9867 30.2326 18.3995 29.9949 20.5922 29.0867C22.7849 28.1784 24.6591 26.6404 25.9776 24.667C27.1105 22.9715 27.7895 21.0202 27.9584 18.999C28.0043 18.4486 27.5523 18.0001 27 18.0001Z"/>
    </symbol>
    <symbol id="training" viewBox="0 0 32 32">
        <path d="M8 4.00012H22C23.1046 4.00012 24 4.89555 24 6.00012V19.0001C24 19.5524 24.4477 20.0001 25 20.0001C25.5523 20.0001 26 19.5524 26 19.0001V6.00012C26 3.79098 24.2091 2.00012 22 2.00012H8C5.79086 2.00012 4 3.79098 4 6.00012V8.00012H3C2.44772 8.00012 2 8.44784 2 9.00012C2 9.55241 2.44772 10.0001 3 10.0001H4V15.0001H3C2.44772 15.0001 2 15.4478 2 16.0001C2 16.5524 2.44772 17.0001 3 17.0001H4V22.0001H3C2.44772 22.0001 2 22.4478 2 23.0001C2 23.5524 2.44772 24.0001 3 24.0001H4V26.0001C4 28.2093 5.79086 30.0001 8 30.0001H16C16.5523 30.0001 17 29.5524 17 29.0001C17 28.4478 16.5523 28.0001 16 28.0001H8C6.89543 28.0001 6 27.1047 6 26.0001V24.0001H7C7.55228 24.0001 8 23.5524 8 23.0001C8 22.4478 7.55228 22.0001 7 22.0001H6V17.0001H7C7.55228 17.0001 8 16.5524 8 16.0001C8 15.4478 7.55228 15.0001 7 15.0001H6V10.0001H7C7.55228 10.0001 8 9.55241 8 9.00012C8 8.44784 7.55228 8.00012 7 8.00012H6V6.00012C6 4.89555 6.89543 4.00012 8 4.00012Z" />
        <path d="M19 8.00049H11C10.4477 8.00049 10 8.4482 10 9.00049C10 9.55277 10.4477 10.0005 11 10.0005H19C19.5523 10.0005 20 9.55277 20 9.00049C20 8.4482 19.5523 8.00049 19 8.00049Z" />
        <path d="M11 13.0005H19C19.5523 13.0005 20 13.4482 20 14.0005C20 14.5528 19.5523 15.0005 19 15.0005H11C10.4477 15.0005 10 14.5528 10 14.0005C10 13.4482 10.4477 13.0005 11 13.0005Z" />
        <path d="M11 18.0005H19C19.5523 18.0005 20 18.4482 20 19.0005C20 19.5528 19.5523 20.0005 19 20.0005H11C10.4477 20.0005 10 19.5528 10 19.0005C10 18.4482 10.4477 18.0005 11 18.0005Z" />
        <path d="M23 31C23 31.4873 22.4971 32 22 32C21.5029 32 21 31.4873 21 31C21 30.5127 21.5029 30 22 30C22.4971 30 23 30.5127 23 31Z" />
        <path d="M21 25C21 24.5 21.5 24 22 24C22.5 24 22.9 24.3848 22.9 24.9979C22.9 25.6109 22.5422 26 22 26C21.1 26 21 26.9946 21 27.3508V28.4706C21 28.7955 21.6686 29.5 22 29.5C22.3314 29.5 23 28.8249 23 28.5V27.5C24.5 27 25 26.4093 25 24.9979V24.9412C25 23.3168 23.6569 22 22 22C20.3431 22 19 23.3168 19 24.9412C19 25.5 19.6686 26 20 26C20.3314 26 21 25.5 21 25Z" />
    </symbol>
    <symbol id="training-application" viewBox="0 0 32 32">
        <path fill-rule="evenodd" clip-rule="evenodd" d="M14.9518 2.30254C15.5946 1.89915 16.4054 1.89915 17.0482 2.30254L29.5241 10.1315C29.8198 10.3171 30 10.6459 30 11V16C30 16.5523 29.5523 17 29 17C28.4477 17 28 16.5523 28 16V12.8249L26 14.0799V22C26 23.9088 24.6192 25.4266 22.8496 26.4097C21.0462 27.4116 18.6225 28 16 28C13.3775 28 10.9538 27.4116 9.1504 26.4097C7.38084 25.4266 6 23.9088 6 22V14.0799L2.4759 11.8685C2.18016 11.6829 2 11.3541 2 11C2 10.6459 2.18016 10.3171 2.4759 10.1315L14.9518 2.30254ZM8 15.335V22C8 22.8526 8.63388 23.8348 10.1217 24.6614C11.5756 25.4691 13.6519 26 16 26C18.3481 26 20.4244 25.4691 21.8783 24.6614C23.3661 23.8348 24 22.8526 24 22V15.335L17.0482 19.6975C16.4054 20.1008 15.5946 20.1008 14.9518 19.6975L8 15.335ZM4.90804 11L16 17.9605L27.092 11L16 4.03947L4.90804 11Z" />
    </symbol>
    <symbol id="view-incoming-requests" viewBox="0 0 32 32">
        <path fill-rule="evenodd" clip-rule="evenodd" d="M10 6.00024C9.05573 6.00024 8.16656 6.44483 7.6 7.20024L2.2 14.4002C2.07018 14.5733 2 14.7839 2 15.0002V22.0002C2 24.2094 3.79086 26.0002 6 26.0002H26C28.2091 26.0002 30 24.2094 30 22.0002V15.0002C30 14.7839 29.9298 14.5733 29.8 14.4002L24.4 7.20024C23.8334 6.44483 22.9443 6.00024 22 6.00024H10ZM9.2 8.40024C9.38885 8.14844 9.68524 8.00024 10 8.00024H22C22.3148 8.00024 22.6111 8.14844 22.8 8.40024L27 14.0002H19C18.4477 14.0002 18 14.448 18 15.0002C18 15.2629 17.9483 15.523 17.8478 15.7656C17.7472 16.0083 17.5999 16.2287 17.4142 16.4145C17.2285 16.6002 17.008 16.7475 16.7654 16.848C16.5227 16.9485 16.2626 17.0002 16 17.0002C15.7374 17.0002 15.4773 16.9485 15.2346 16.848C14.992 16.7475 14.7715 16.6002 14.5858 16.4145C14.4001 16.2287 14.2528 16.0083 14.1522 15.7656C14.0517 15.523 14 15.2629 14 15.0002C14 14.448 13.5523 14.0002 13 14.0002H5L9.2 8.40024ZM12.127 16.0002H4V22.0002C4 23.1048 4.89543 24.0002 6 24.0002H26C27.1046 24.0002 28 23.1048 28 22.0002V16.0002H19.873C19.8264 16.1807 19.7672 16.358 19.6955 16.531C19.4945 17.0163 19.1999 17.4572 18.8284 17.8287C18.457 18.2001 18.016 18.4947 17.5307 18.6958C17.0454 18.8968 16.5253 19.0002 16 19.0002C15.4747 19.0002 14.9546 18.8968 14.4693 18.6958C13.984 18.4947 13.543 18.2001 13.1716 17.8287C12.8001 17.4572 12.5055 17.0163 12.3045 16.531C12.2329 16.358 12.1736 16.1807 12.127 16.0002Z" />
    </symbol>
    <symbol id="view-my-results" viewBox="0 0 32 32">
        <path d="M3 2.00024C3.55228 2.00024 4 2.44796 4 3.00024V28.0002H29C29.5523 28.0002 30 28.448 30 29.0002C30 29.5525 29.5523 30.0002 29 30.0002H4C3.46957 30.0002 2.96086 29.7895 2.58579 29.4145C2.21071 29.0394 2 28.5307 2 28.0002V3.00024C2 2.44796 2.44772 2.00024 3 2.00024Z" />
        <path d="M23 9.00024H30V16.0002H28V12.4147L19.7071 20.7076C19.3166 21.0981 18.6834 21.0981 18.2929 20.7076L14 16.4147L7.70711 22.7076C7.31658 23.0981 6.68342 23.0981 6.29289 22.7076C5.90237 22.3171 5.90237 21.6839 6.29289 21.2934L13.2929 14.2934C13.6834 13.9029 14.3166 13.9029 14.7071 14.2934L19 18.5863L26.586 11.0002H23V9.00024Z" />
    </symbol>
    <symbol id="view-sent-requests" viewBox="0 0 32 32">
        <path d="M27.45 15.1105L5.45 4.11049C5.27757 4.02425 5.08389 3.9897 4.89228 4.01099C4.70067 4.03228 4.51929 4.10851 4.37 4.23049C4.22742 4.34998 4.12101 4.50687 4.06271 4.68353C4.00441 4.86019 3.99655 5.04961 4.04 5.23049L7 16.0005L4 26.7405C3.95923 26.8915 3.95447 27.0501 3.9861 27.2033C4.01774 27.3565 4.08489 27.5002 4.18216 27.6227C4.27942 27.7453 4.40409 27.8433 4.54613 27.9089C4.68818 27.9745 4.84363 28.0059 5 28.0005C5.15654 27.9995 5.31068 27.9619 5.45 27.8905L27.45 16.8905C27.6138 16.8066 27.7513 16.6791 27.8473 16.522C27.9432 16.365 27.994 16.1845 27.994 16.0005C27.994 15.8164 27.9432 15.636 27.8473 15.4789C27.7513 15.3219 27.6138 15.1944 27.45 15.1105ZM6.55 25.1105L8.76 17.0005H17C17.5523 17.0005 18 16.5528 18 16.0005C18 15.4482 17.5523 15.0005 17 15.0005H8.76L6.55 6.89049L24.76 16.0005L6.55 25.1105Z" />
    </symbol>
</svg>
