<svg xmlns="http://www.w3.org/2000/svg" style="display: none;">
  <symbol id="mic" viewBox="0 0 16 16" fill="none">
    <path fill-rule="evenodd" clip-rule="evenodd" d="M7.99967 0.833374C6.61896 0.833374 5.49967 1.95266 5.49967 3.33337V7.33337C5.49967 8.71409 6.61896 9.83337 7.99967 9.83337C9.38039 9.83337 10.4997 8.71409 10.4997 7.33337V3.33337C10.4997 1.95266 9.38039 0.833374 7.99967 0.833374ZM6.49967 3.33337C6.49967 2.50495 7.17125 1.83337 7.99967 1.83337C8.8281 1.83337 9.49967 2.50495 9.49967 3.33337V7.33337C9.49967 8.1618 8.8281 8.83337 7.99967 8.83337C7.17125 8.83337 6.49967 8.1618 6.49967 7.33337V3.33337Z" fill="currentColor"/>
    <path d="M3.33301 6.16671C3.60915 6.16671 3.83301 6.39057 3.83301 6.66671V7.33337C3.83301 9.63457 5.69849 11.5 7.99967 11.5C10.3009 11.5 12.1663 9.63457 12.1663 7.33337V6.66671C12.1663 6.39057 12.3902 6.16671 12.6663 6.16671C12.9425 6.16671 13.1663 6.39057 13.1663 6.66671V7.33337C13.1663 10.0182 11.1185 12.2247 8.49967 12.4762V14.1667H9.99967C10.2758 14.1667 10.4997 14.3906 10.4997 14.6667C10.4997 14.9429 10.2758 15.1667 9.99967 15.1667H5.99967C5.72353 15.1667 5.49967 14.9429 5.49967 14.6667C5.49967 14.3906 5.72353 14.1667 5.99967 14.1667H7.49967V12.4762C4.88081 12.2247 2.83301 10.0182 2.83301 7.33337V6.66671C2.83301 6.39057 3.05687 6.16671 3.33301 6.16671Z" fill="currentColor"/>
  </symbol>
  <symbol id="cam" viewBox="0 0 16 16" fill="none">
    <path d="M10.1667 4.66665C10.1667 4.20641 9.79361 3.83331 9.33337 3.83331H2.66671C2.20647 3.83331 1.83337 4.20641 1.83337 4.66665V11.3333C1.83337 11.7936 2.20647 12.1666 2.66671 12.1666H9.33337C9.79361 12.1666 10.1667 11.7936 10.1667 11.3333V4.66665ZM11.1667 8.04034L11.1706 8.0742C11.1777 8.10798 11.1949 8.13902 11.2207 8.16274L14.1667 10.8626V5.1367L11.2207 7.83722C11.1864 7.86872 11.1668 7.91305 11.1667 7.95962V8.04034ZM11.1667 6.52928L13.7702 4.14321L13.8737 4.06183C14.4089 3.70208 15.1667 4.07789 15.1667 4.75779V11.2422C15.1667 11.9672 14.3047 12.3466 13.7702 11.8568L11.1667 9.47003V11.3333C11.1667 12.3458 10.3459 13.1666 9.33337 13.1666H2.66671C1.65419 13.1666 0.833374 12.3458 0.833374 11.3333V4.66665C0.833374 3.65412 1.65419 2.83331 2.66671 2.83331H9.33337C10.3459 2.83331 11.1667 3.65412 11.1667 4.66665V6.52928Z" fill="#5D6067"/>
  </symbol>
</svg>
