<svg xmlns="http://www.w3.org/2000/svg" style="display: none;">
  <symbol id="mic" viewBox="0 0 16 16" fill="none">
    <path fill-rule="evenodd" clip-rule="evenodd" d="M7.99967 0.833374C6.61896 0.833374 5.49967 1.95266 5.49967 3.33337V7.33337C5.49967 8.71409 6.61896 9.83337 7.99967 9.83337C9.38039 9.83337 10.4997 8.71409 10.4997 7.33337V3.33337C10.4997 1.95266 9.38039 0.833374 7.99967 0.833374ZM6.49967 3.33337C6.49967 2.50495 7.17125 1.83337 7.99967 1.83337C8.8281 1.83337 9.49967 2.50495 9.49967 3.33337V7.33337C9.49967 8.1618 8.8281 8.83337 7.99967 8.83337C7.17125 8.83337 6.49967 8.1618 6.49967 7.33337V3.33337Z" fill="currentColor"/>
    <path d="M3.33301 6.16671C3.60915 6.16671 3.83301 6.39057 3.83301 6.66671V7.33337C3.83301 9.63457 5.69849 11.5 7.99967 11.5C10.3009 11.5 12.1663 9.63457 12.1663 7.33337V6.66671C12.1663 6.39057 12.3902 6.16671 12.6663 6.16671C12.9425 6.16671 13.1663 6.39057 13.1663 6.66671V7.33337C13.1663 10.0182 11.1185 12.2247 8.49967 12.4762V14.1667H9.99967C10.2758 14.1667 10.4997 14.3906 10.4997 14.6667C10.4997 14.9429 10.2758 15.1667 9.99967 15.1667H5.99967C5.72353 15.1667 5.49967 14.9429 5.49967 14.6667C5.49967 14.3906 5.72353 14.1667 5.99967 14.1667H7.49967V12.4762C4.88081 12.2247 2.83301 10.0182 2.83301 7.33337V6.66671C2.83301 6.39057 3.05687 6.16671 3.33301 6.16671Z" fill="currentColor"/>
  </symbol>
  <symbol id="micoff" viewBox="0 0 16 16" fill="none">
    <path d="M8 0.833313C6.61925 0.833313 5.5 1.95261 5.5 3.33331V3.66665C5.5 3.94279 5.72386 4.16665 6 4.16665C6.27614 4.16665 6.5 3.94279 6.5 3.66665V3.33331C6.5 2.50488 7.17155 1.83331 8 1.83331C8.82845 1.83331 9.5 2.50488 9.5 3.33331V6.99998C9.5 7.27612 9.72386 7.49998 10 7.49998C10.2761 7.49998 10.5 7.27612 10.5 6.99998V3.33331C10.5 1.95261 9.38075 0.833313 8 0.833313Z" fill="currentColor"/>
    <path d="M5.50581 6.2129L1.64645 2.35353C1.45118 2.15827 1.45118 1.84169 1.64645 1.64643C1.84171 1.45116 2.15829 1.45116 2.35355 1.64643L10.9664 10.2593C11.7086 9.50694 12.1667 8.47362 12.1667 7.33331V6.66665C12.1667 6.3905 12.3905 6.16665 12.6667 6.16665C12.9428 6.16665 13.1667 6.3905 13.1667 6.66665V7.33331C13.1667 8.74977 12.5967 10.0331 11.6736 10.9664L14.3536 13.6464C14.5488 13.8417 14.5488 14.1583 14.3536 14.3535C14.1583 14.5488 13.8417 14.5488 13.6464 14.3535L10.9017 11.6088C10.2043 12.0831 9.38472 12.3911 8.5 12.4761V14.1666H10C10.2761 14.1666 10.5 14.3905 10.5 14.6666C10.5 14.9428 10.2761 15.1666 10 15.1666H6C5.72386 15.1666 5.5 14.9428 5.5 14.6666C5.5 14.3905 5.72386 14.1666 6 14.1666H7.5V12.4761C4.88113 12.2246 2.83333 10.0181 2.83333 7.33331V6.66665C2.83333 6.3905 3.05719 6.16665 3.33333 6.16665C3.60948 6.16665 3.83333 6.3905 3.83333 6.66665V7.33331C3.83333 9.6345 5.69882 11.5 8 11.5C8.79861 11.5 9.54474 11.2753 10.1786 10.8857L9.12041 9.8275C7.17286 9.72087 5.61244 8.16046 5.50581 6.2129Z" fill="currentColor" />
  </symbol>
  <symbol id="cam" viewBox="0 0 16 16" fill="none">
    <path d="M10.1667 4.66665C10.1667 4.20641 9.79361 3.83331 9.33337 3.83331H2.66671C2.20647 3.83331 1.83337 4.20641 1.83337 4.66665V11.3333C1.83337 11.7936 2.20647 12.1666 2.66671 12.1666H9.33337C9.79361 12.1666 10.1667 11.7936 10.1667 11.3333V4.66665ZM11.1667 8.04034L11.1706 8.0742C11.1777 8.10798 11.1949 8.13902 11.2207 8.16274L14.1667 10.8626V5.1367L11.2207 7.83722C11.1864 7.86872 11.1668 7.91305 11.1667 7.95962V8.04034ZM11.1667 6.52928L13.7702 4.14321L13.8737 4.06183C14.4089 3.70208 15.1667 4.07789 15.1667 4.75779V11.2422C15.1667 11.9672 14.3047 12.3466 13.7702 11.8568L11.1667 9.47003V11.3333C11.1667 12.3458 10.3459 13.1666 9.33337 13.1666H2.66671C1.65419 13.1666 0.833374 12.3458 0.833374 11.3333V4.66665C0.833374 3.65412 1.65419 2.83331 2.66671 2.83331H9.33337C10.3459 2.83331 11.1667 3.65412 11.1667 4.66665V6.52928Z" fill="currentColor"/>
  </symbol>
  <symbol id="camoff" viewBox="0 0 16 16" fill="none">
    <path d="M0.979814 0.979814C1.16288 0.796745 1.4527 0.785103 1.64909 0.945309L1.68685 0.979814L15.0202 14.3131L15.0547 14.3509C15.2149 14.5473 15.2032 14.8371 15.0202 15.0202C14.8371 15.2032 14.5473 15.2149 14.3509 15.0547L14.3131 15.0202L11.1016 11.8086C10.892 12.5903 10.1812 13.1667 9.33333 13.1667H2.66666C1.65414 13.1667 0.83333 12.3459 0.83333 11.3333V4.66666C0.83333 3.81893 1.40922 3.10753 2.19075 2.89778L0.979814 1.68685L0.945309 1.64909C0.785103 1.4527 0.796745 1.16288 0.979814 0.979814ZM14.1667 10.6667V5.13671L11.5631 7.52343C11.0286 8.01328 10.1667 7.6339 10.1667 6.90885V4.66666C10.1667 4.20643 9.79357 3.83333 9.33333 3.83333H8.33333C8.05719 3.83333 7.83333 3.60947 7.83333 3.33333C7.83333 3.05719 8.05719 2.83333 8.33333 2.83333H9.33333C10.3459 2.83333 11.1667 3.65414 11.1667 4.66666V6.52929L13.7702 4.14323L13.8737 4.06185C14.4088 3.7021 15.1667 4.07791 15.1667 4.75781V10.6667C15.1667 10.9428 14.9428 11.1667 14.6667 11.1667C14.3905 11.1667 14.1667 10.9428 14.1667 10.6667ZM1.83333 11.3333C1.83333 11.7936 2.20643 12.1667 2.66666 12.1667H9.33333C9.79357 12.1667 10.1667 11.7936 10.1667 11.3333V10.8737L3.1263 3.83333H2.66666C2.20643 3.83333 1.83333 4.20643 1.83333 4.66666V11.3333Z" fill="currentColor"/>
  </symbol>
</svg>
