<!-- ALL HASHTAGs -->
<svg xmlns="http://www.w3.org/2000/svg" style="display: none;">
  <symbol id="structure" viewBox="0 0 24 24">
    <path d="M17.2,7.8h3.6c1.1,0,2-0.9,2-2V4.2c0-1.1-0.9-2-2-2h-3.6c-1.1,0-2,0.9-2,2v0H9.8V4c0-1.5-1.2-2.8-2.8-2.8H4 C2.5,1.2,1.2,2.5,1.2,4v2c0,1.5,1.2,2.8,2.8,2.8h3c1.5,0,2.8-1.2,2.8-2.8V5.8h2V18c0,1.5,1.2,2.8,2.8,2.8h0.8v0c0,1.1,0.9,2,2,2h3.6 c1.1,0,2-0.9,2-2v-1.6c0-1.1-0.9-2-2-2h-3.6c-1.1,0-2,0.9-2,2v0h-0.8c-0.7,0-1.2-0.6-1.2-1.2v-4.8h2v0c0,1.1,0.9,2,2,2h3.6 c1.1,0,2-0.9,2-2v-1.6c0-1.1-0.9-2-2-2h-3.6c-1.1,0-2,0.9-2,2v0h-2v-6h2v0C15.2,6.9,16.1,7.8,17.2,7.8z M8.2,6 c0,0.7-0.6,1.2-1.2,1.2H4C3.3,7.2,2.8,6.7,2.8,6V4c0-0.7,0.6-1.2,1.2-1.2h3c0.7,0,1.2,0.6,1.2,1.2V6z M16.8,19.2 c0-0.2,0.2-0.5,0.5-0.5h3.6c0.2,0,0.5,0.2,0.5,0.5v1.6c0,0.2-0.2,0.5-0.5,0.5h-3.6c-0.2,0-0.5-0.2-0.5-0.5V19.2z M16.8,11.7 c0-0.2,0.2-0.5,0.5-0.5h3.6c0.2,0,0.5,0.2,0.5,0.5v1.6c0,0.2-0.2,0.5-0.5,0.5h-3.6c-0.2,0-0.5-0.2-0.5-0.5V11.7z M16.8,4.2 c0-0.2,0.2-0.5,0.5-0.5h3.6c0.2,0,0.5,0.2,0.5,0.5v1.6c0,0.2-0.2,0.5-0.5,0.5h-3.6c-0.2,0-0.5-0.2-0.5-0.5V4.2z" />
  </symbol>
  <symbol id="department" viewBox="0 0 24 24">
       <path d="M17.2,7.8h3.6c1.1,0,2-0.9,2-2V4.2c0-1.1-0.9-2-2-2h-3.6c-1.1,0-2,0.9-2,2v0H9.8V4c0-1.5-1.2-2.8-2.8-2.8H4 C2.5,1.2,1.2,2.5,1.2,4v2c0,1.5,1.2,2.8,2.8,2.8h3c1.5,0,2.8-1.2,2.8-2.8V5.8h2V18c0,1.5,1.2,2.8,2.8,2.8h0.8v0c0,1.1,0.9,2,2,2h3.6 c1.1,0,2-0.9,2-2v-1.6c0-1.1-0.9-2-2-2h-3.6c-1.1,0-2,0.9-2,2v0h-0.8c-0.7,0-1.2-0.6-1.2-1.2v-4.8h2v0c0,1.1,0.9,2,2,2h3.6 c1.1,0,2-0.9,2-2v-1.6c0-1.1-0.9-2-2-2h-3.6c-1.1,0-2,0.9-2,2v0h-2v-6h2v0C15.2,6.9,16.1,7.8,17.2,7.8z M8.2,6 c0,0.7-0.6,1.2-1.2,1.2H4C3.3,7.2,2.8,6.7,2.8,6V4c0-0.7,0.6-1.2,1.2-1.2h3c0.7,0,1.2,0.6,1.2,1.2V6z M16.8,19.2 c0-0.2,0.2-0.5,0.5-0.5h3.6c0.2,0,0.5,0.2,0.5,0.5v1.6c0,0.2-0.2,0.5-0.5,0.5h-3.6c-0.2,0-0.5-0.2-0.5-0.5V19.2z M16.8,11.7 c0-0.2,0.2-0.5,0.5-0.5h3.6c0.2,0,0.5,0.2,0.5,0.5v1.6c0,0.2-0.2,0.5-0.5,0.5h-3.6c-0.2,0-0.5-0.2-0.5-0.5V11.7z M16.8,4.2 c0-0.2,0.2-0.5,0.5-0.5h3.6c0.2,0,0.5,0.2,0.5,0.5v1.6c0,0.2-0.2,0.5-0.5,0.5h-3.6c-0.2,0-0.5-0.2-0.5-0.5V4.2z" />
  </symbol>
  <symbol id="hr" viewBox="0 0 24 24">
    <path d="M12,10.8c2.6,0,4.8-2.1,4.8-4.8S14.6,1.2,12,1.2C9.4,1.2,7.2,3.4,7.2,6S9.4,10.8,12,10.8z M12,2.8 c1.8,0,3.2,1.5,3.2,3.2S13.8,9.2,12,9.2S8.8,7.8,8.8,6S10.2,2.8,12,2.8z" />
    <path d="M12,12.2c-5.4,0-9.8,4.4-9.8,9.8c0,0.4,0.3,0.8,0.8,0.8s0.8-0.3,0.8-0.8c0-4.2,3.1-7.7,7.2-8.2l-1.7,5.5 c-0.1,0.2,0,0.5,0.1,0.7l2,2.5c0.1,0.2,0.4,0.3,0.6,0.3s0.4-0.1,0.6-0.3l2-2.5c0.2-0.2,0.2-0.5,0.1-0.7L13,13.8 c4.1,0.5,7.2,4,7.2,8.2c0,0.4,0.3,0.8,0.8,0.8s0.8-0.3,0.8-0.8C21.8,16.6,17.4,12.2,12,12.2z M12,20.8l-1.2-1.5l1.2-3.8l1.2,3.8 L12,20.8z" />
  </symbol>
</svg>
