<!-- ALL HASHTAGs -->
<svg xmlns="http://www.w3.org/2000/svg" style="display: none;">
  <symbol id="structure" viewBox="0 0 24 24">
    <path d="M17.2,7.8h3.6c1.1,0,2-0.9,2-2V4.2c0-1.1-0.9-2-2-2h-3.6c-1.1,0-2,0.9-2,2v0H9.8V4c0-1.5-1.2-2.8-2.8-2.8H4 C2.5,1.2,1.2,2.5,1.2,4v2c0,1.5,1.2,2.8,2.8,2.8h3c1.5,0,2.8-1.2,2.8-2.8V5.8h2V18c0,1.5,1.2,2.8,2.8,2.8h0.8v0c0,1.1,0.9,2,2,2h3.6 c1.1,0,2-0.9,2-2v-1.6c0-1.1-0.9-2-2-2h-3.6c-1.1,0-2,0.9-2,2v0h-0.8c-0.7,0-1.2-0.6-1.2-1.2v-4.8h2v0c0,1.1,0.9,2,2,2h3.6 c1.1,0,2-0.9,2-2v-1.6c0-1.1-0.9-2-2-2h-3.6c-1.1,0-2,0.9-2,2v0h-2v-6h2v0C15.2,6.9,16.1,7.8,17.2,7.8z M8.2,6 c0,0.7-0.6,1.2-1.2,1.2H4C3.3,7.2,2.8,6.7,2.8,6V4c0-0.7,0.6-1.2,1.2-1.2h3c0.7,0,1.2,0.6,1.2,1.2V6z M16.8,19.2 c0-0.2,0.2-0.5,0.5-0.5h3.6c0.2,0,0.5,0.2,0.5,0.5v1.6c0,0.2-0.2,0.5-0.5,0.5h-3.6c-0.2,0-0.5-0.2-0.5-0.5V19.2z M16.8,11.7 c0-0.2,0.2-0.5,0.5-0.5h3.6c0.2,0,0.5,0.2,0.5,0.5v1.6c0,0.2-0.2,0.5-0.5,0.5h-3.6c-0.2,0-0.5-0.2-0.5-0.5V11.7z M16.8,4.2 c0-0.2,0.2-0.5,0.5-0.5h3.6c0.2,0,0.5,0.2,0.5,0.5v1.6c0,0.2-0.2,0.5-0.5,0.5h-3.6c-0.2,0-0.5-0.2-0.5-0.5V4.2z" />
  </symbol>
  <symbol id="department" viewBox="0 0 24 24">
    <path d="M17.2,7.8h3.6c1.1,0,2-0.9,2-2V4.2c0-1.1-0.9-2-2-2h-3.6c-1.1,0-2,0.9-2,2v0H9.8V4c0-1.5-1.2-2.8-2.8-2.8H4 C2.5,1.2,1.2,2.5,1.2,4v2c0,1.5,1.2,2.8,2.8,2.8h3c1.5,0,2.8-1.2,2.8-2.8V5.8h2V18c0,1.5,1.2,2.8,2.8,2.8h0.8v0c0,1.1,0.9,2,2,2h3.6 c1.1,0,2-0.9,2-2v-1.6c0-1.1-0.9-2-2-2h-3.6c-1.1,0-2,0.9-2,2v0h-0.8c-0.7,0-1.2-0.6-1.2-1.2v-4.8h2v0c0,1.1,0.9,2,2,2h3.6 c1.1,0,2-0.9,2-2v-1.6c0-1.1-0.9-2-2-2h-3.6c-1.1,0-2,0.9-2,2v0h-2v-6h2v0C15.2,6.9,16.1,7.8,17.2,7.8z M8.2,6 c0,0.7-0.6,1.2-1.2,1.2H4C3.3,7.2,2.8,6.7,2.8,6V4c0-0.7,0.6-1.2,1.2-1.2h3c0.7,0,1.2,0.6,1.2,1.2V6z M16.8,19.2 c0-0.2,0.2-0.5,0.5-0.5h3.6c0.2,0,0.5,0.2,0.5,0.5v1.6c0,0.2-0.2,0.5-0.5,0.5h-3.6c-0.2,0-0.5-0.2-0.5-0.5V19.2z M16.8,11.7 c0-0.2,0.2-0.5,0.5-0.5h3.6c0.2,0,0.5,0.2,0.5,0.5v1.6c0,0.2-0.2,0.5-0.5,0.5h-3.6c-0.2,0-0.5-0.2-0.5-0.5V11.7z M16.8,4.2 c0-0.2,0.2-0.5,0.5-0.5h3.6c0.2,0,0.5,0.2,0.5,0.5v1.6c0,0.2-0.2,0.5-0.5,0.5h-3.6c-0.2,0-0.5-0.2-0.5-0.5V4.2z" />
  </symbol>
  <symbol id="hr" viewBox="0 0 32 32">
    <path d="M11,18c3.9,0,7-3.1,7-7c0-3.9-3.1-7-7-7c-3.9,0-7,3.1-7,7C4,14.9,7.1,18,11,18z M11,6c2.8,0,5,2.2,5,5s-2.2,5-5,5s-5-2.2-5-5S8.2,6,11,6z" />
    <path d="M13,20H9c-3.9,0-7,3.1-7,7c0,0.6,0.4,1,1,1s1-0.4,1-1c0-2.8,2.2-5,5-5h4c2.8,0,5,2.2,5,5c0,0.6,0.4,1,1,1s1-0.4,1-1C20,23.1,16.9,20,13,20z" />
    <path d="M29.1,14.2c-0.8-1.5-2.1-2.7-3.6-3.5c-0.5-0.2-1.1,0-1.3,0.5c-0.2,0.5,0,1.1,0.5,1.3c1.2,0.6,2.1,1.5,2.7,2.6c0.6,1.1,0.8,2.4,0.6,3.7c-0.2,1.3-0.8,2.5-1.7,3.4c-0.9,0.9-2.1,1.5-3.4,1.7c-0.5,0.1-0.9,0.6-0.9,1.1c0.1,0.5,0.6,0.9,1.1,0.9c1.7-0.2,3.3-1,4.5-2.2s2-2.8,2.3-4.5C30.2,17.5,29.9,15.8,29.1,14.2z" />
    <path d="M26,19c0-0.6-0.4-1-1-1h-3v-5c0-0.6-0.4-1-1-1s-1,0.4-1,1v6c0,0.6,0.4,1,1,1h4C25.6,20,26,19.6,26,19z" />
  </symbol>
  <symbol id="vacation" viewBox="0 0 34 34">
    <path d="M20.431,30.09c0.555-2.625,1.982-11.16-1.273-17.413c0,0,6.072,0.623,5.762,8.408c0,0,5.295-10.588-3.581-12.612 c0,0,2.803-6.696,9.653-4.049c0,0-5.513-6.188-13.417,1.082C16.751,3.23,17.289,0,17.289,0c-3.264,1.591-3.846,4.54-3.817,6.557 c-2.88-0.541-7.92,0.586-9.382,5.806c0,0,5.5-3.833,9.833-1.5c0,0-7.689,2.126-8.001,9.443c0,0,3.205-3.939,6.51-4.904 c-0.268,0.256-0.437,0.613-0.437,1.013c0,0.774,0.628,1.401,1.401,1.401c0.281,0,0.542-0.084,0.761-0.227 c-0.182,0.236-0.294,0.527-0.294,0.85c0,0.773,0.628,1.402,1.401,1.402c0.674,0,1.235-0.478,1.37-1.109 c0.408,2.896,0.452,7.51-2.268,11.199c-1.687-0.976-2.462-2.771-2.796-3.969c0.16,0.223,0.46,0.312,0.722,0.196 c0.302-0.131,0.438-0.481,0.307-0.783c-0.055-0.125-0.147-0.221-0.259-0.28c0.109,0.02,0.226,0.006,0.335-0.041 c0.302-0.133,0.438-0.482,0.307-0.785c-0.067-0.154-0.194-0.267-0.342-0.318c1.451-0.188,3.37,0.801,3.37,0.801 c-1.367-2.797-4.725-2.314-4.725-2.314c1.29-1.646,4.085-1.09,4.085-1.09c-1.459-1.785-3.613-1.365-4.643-0.664 c-0.333-0.789-1.062-1.838-2.604-1.901c0,0,0.76,1.166,0.826,2.192c-4.317-1.483-5.409,1.863-5.409,1.863 c2.218-2.197,4.449-0.066,4.449-0.066c-3.111,2.3,0.755,5.521,0.755,5.521c-1.448-2.979,0.811-4.256,0.811-4.256 c-0.163,2.396,1.092,4.842,1.94,6.2c-4.803,0.354-8.146,1.136-8.146,2.046c0,1.241,6.231,2.25,13.917,2.25 c7.687,0,13.917-1.009,13.917-2.25C31.182,31.213,26.589,30.324,20.431,30.09z M14.083,15.2c0.182,0.013,0.362,0.042,0.541,0.082 c-0.053,0.085-0.096,0.177-0.13,0.272C14.381,15.411,14.243,15.29,14.083,15.2z M14.503,17.264c0.087-0.114,0.157-0.24,0.206-0.379 c0.059,0.075,0.124,0.143,0.196,0.204C14.761,17.127,14.625,17.185,14.503,17.264z M16.166,17.375 c0.075-0.02,0.148-0.043,0.218-0.074c0.028,0.136,0.058,0.283,0.086,0.437C16.39,17.6,16.287,17.478,16.166,17.375z M12.003,24.915 c0.042,0.045,0.091,0.082,0.145,0.11c-0.062-0.01-0.124-0.008-0.187,0.003C11.979,24.994,11.993,24.954,12.003,24.915z M11.959,24.154c-0.046,0.062-0.08,0.133-0.1,0.207c-0.029-0.031-0.062-0.061-0.097-0.084 C11.826,24.23,11.891,24.189,11.959,24.154z M11.462,25.549c-0.015-0.066-0.028-0.127-0.041-0.187c0.032,0,0.065-0.005,0.098-0.009 C11.49,25.415,11.47,25.48,11.462,25.549z"/>
  </symbol>
  <symbol id="sick" viewBox="0 0 24 24">
    <path d="M12,10.8c2.6,0,4.8-2.1,4.8-4.8S14.6,1.2,12,1.2C9.4,1.2,7.2,3.4,7.2,6S9.4,10.8,12,10.8z M12,2.8 c1.8,0,3.2,1.5,3.2,3.2S13.8,9.2,12,9.2S8.8,7.8,8.8,6S10.2,2.8,12,2.8z" />
    <path d="M12,12.2c-5.4,0-9.8,4.4-9.8,9.8c0,0.4,0.3,0.8,0.8,0.8s0.8-0.3,0.8-0.8c0-4.2,3.1-7.7,7.2-8.2l-1.7,5.5 c-0.1,0.2,0,0.5,0.1,0.7l2,2.5c0.1,0.2,0.4,0.3,0.6,0.3s0.4-0.1,0.6-0.3l2-2.5c0.2-0.2,0.2-0.5,0.1-0.7L13,13.8 c4.1,0.5,7.2,4,7.2,8.2c0,0.4,0.3,0.8,0.8,0.8s0.8-0.3,0.8-0.8C21.8,16.6,17.4,12.2,12,12.2z M12,20.8l-1.2-1.5l1.2-3.8l1.2,3.8 L12,20.8z" />
  </symbol>
  <symbol id="pto" viewBox="0 0 24 24">
    <path d="M12,10.8c2.6,0,4.8-2.1,4.8-4.8S14.6,1.2,12,1.2C9.4,1.2,7.2,3.4,7.2,6S9.4,10.8,12,10.8z M12,2.8 c1.8,0,3.2,1.5,3.2,3.2S13.8,9.2,12,9.2S8.8,7.8,8.8,6S10.2,2.8,12,2.8z" />
    <path d="M12,12.2c-5.4,0-9.8,4.4-9.8,9.8c0,0.4,0.3,0.8,0.8,0.8s0.8-0.3,0.8-0.8c0-4.2,3.1-7.7,7.2-8.2l-1.7,5.5 c-0.1,0.2,0,0.5,0.1,0.7l2,2.5c0.1,0.2,0.4,0.3,0.6,0.3s0.4-0.1,0.6-0.3l2-2.5c0.2-0.2,0.2-0.5,0.1-0.7L13,13.8 c4.1,0.5,7.2,4,7.2,8.2c0,0.4,0.3,0.8,0.8,0.8s0.8-0.3,0.8-0.8C21.8,16.6,17.4,12.2,12,12.2z M12,20.8l-1.2-1.5l1.2-3.8l1.2,3.8 L12,20.8z" />
  </symbol>
  <symbol id="remote" viewBox="0 0 24 24">
    <path d="M12,10.8c2.6,0,4.8-2.1,4.8-4.8S14.6,1.2,12,1.2C9.4,1.2,7.2,3.4,7.2,6S9.4,10.8,12,10.8z M12,2.8 c1.8,0,3.2,1.5,3.2,3.2S13.8,9.2,12,9.2S8.8,7.8,8.8,6S10.2,2.8,12,2.8z" />
    <path d="M12,12.2c-5.4,0-9.8,4.4-9.8,9.8c0,0.4,0.3,0.8,0.8,0.8s0.8-0.3,0.8-0.8c0-4.2,3.1-7.7,7.2-8.2l-1.7,5.5 c-0.1,0.2,0,0.5,0.1,0.7l2,2.5c0.1,0.2,0.4,0.3,0.6,0.3s0.4-0.1,0.6-0.3l2-2.5c0.2-0.2,0.2-0.5,0.1-0.7L13,13.8 c4.1,0.5,7.2,4,7.2,8.2c0,0.4,0.3,0.8,0.8,0.8s0.8-0.3,0.8-0.8C21.8,16.6,17.4,12.2,12,12.2z M12,20.8l-1.2-1.5l1.2-3.8l1.2,3.8 L12,20.8z" />
  </symbol>
  <symbol id="overtime" viewBox="0 0 24 24">
    <path d="M12,10.8c2.6,0,4.8-2.1,4.8-4.8S14.6,1.2,12,1.2C9.4,1.2,7.2,3.4,7.2,6S9.4,10.8,12,10.8z M12,2.8 c1.8,0,3.2,1.5,3.2,3.2S13.8,9.2,12,9.2S8.8,7.8,8.8,6S10.2,2.8,12,2.8z" />
    <path d="M12,12.2c-5.4,0-9.8,4.4-9.8,9.8c0,0.4,0.3,0.8,0.8,0.8s0.8-0.3,0.8-0.8c0-4.2,3.1-7.7,7.2-8.2l-1.7,5.5 c-0.1,0.2,0,0.5,0.1,0.7l2,2.5c0.1,0.2,0.4,0.3,0.6,0.3s0.4-0.1,0.6-0.3l2-2.5c0.2-0.2,0.2-0.5,0.1-0.7L13,13.8 c4.1,0.5,7.2,4,7.2,8.2c0,0.4,0.3,0.8,0.8,0.8s0.8-0.3,0.8-0.8C21.8,16.6,17.4,12.2,12,12.2z M12,20.8l-1.2-1.5l1.2-3.8l1.2,3.8 L12,20.8z" />
  </symbol>
</svg>
