<!-- Copyright © 2025 Hardcore Engineering Inc. -->
<!-- -->
<!-- Licensed under the Eclipse Public License, Version 2.0 (the "License"); -->
<!-- you may not use this file except in compliance with the License. You may -->
<!-- obtain a copy of the License at https://www.eclipse.org/legal/epl-2.0 -->
<!-- -->
<!-- Unless required by applicable law or agreed to in writing, software -->
<!-- distributed under the License is distributed on an "AS IS" BASIS, -->
<!-- WITHOUT WARRANTIES OR CONDITIONS OF ANY KIND, either express or implied. -->
<!-- -->
<!-- See the License for the specific language governing permissions and -->
<!-- limitations under the License. -->

<svg xmlns="http://www.w3.org/2000/svg" style="display: none;">
    <symbol id="file" viewBox="0 0 16 16">
        <path d="M12.9,2.1c-1.6-1.7-4.1-1.7-5.7,0L2.1,7.6c-0.3,0.3-0.3,0.7,0,1c0.3,0.3,0.7,0.3,0.9,0l5.1-5.4C9.2,2,10.9,2,12,3.1C13,4.2,13,6,12,7.1l-5.9,6.3c-0.4,0.4-1,0.4-1.4,0c-0.4-0.4-0.4-1.1,0-1.5l5.9-6.3c0.3-0.3,0.3-0.7,0-1c-0.3-0.3-0.7-0.3-0.9,0l-5.9,6.3c-0.9,1-0.9,2.5,0,3.5c0.9,1,2.4,1,3.3,0l5.9-6.3C14.5,6.5,14.5,3.8,12.9,2.1z"/>
    </symbol>
    <symbol id="bell" viewBox="0 0 16 16">
        <path fill-rule="evenodd" clip-rule="evenodd"
              d="M8.5 1.5C8.5 1.22386 8.27614 1 8 1C7.72386 1 7.5 1.22386 7.5 1.5V2.02746C5.25002 2.27619 3.5 4.18372 3.5 6.5V7.44766C3.5 8.01534 3.3068 8.56611 2.95217 9.00939L2.09004 10.0871C1.70809 10.5645 1.5 11.1577 1.5 11.7691C1.5 12.4489 2.05108 13 2.73087 13H6C6 13.2626 6.05173 13.5227 6.15224 13.7654C6.25275 14.008 6.40007 14.2285 6.58579 14.4142C6.7715 14.5999 6.99198 14.7472 7.23463 14.8478C7.47728 14.9483 7.73736 15 8 15C8.26264 15 8.52272 14.9483 8.76537 14.8478C9.00802 14.7472 9.2285 14.5999 9.41421 14.4142C9.59993 14.2285 9.74725 14.008 9.84776 13.7654C9.94827 13.5227 10 13.2626 10 13H13.2691C13.9489 13 14.5 12.4489 14.5 11.7691C14.5 11.1577 14.2919 10.5645 13.91 10.0871L13.0478 9.00939C12.6932 8.56611 12.5 8.01534 12.5 7.44766V6.5C12.5 4.18372 10.75 2.27619 8.5 2.02746V1.5ZM9 13H7C7 13.1313 7.02587 13.2614 7.07612 13.3827C7.12638 13.504 7.20003 13.6142 7.29289 13.7071C7.38575 13.8 7.49599 13.8736 7.61732 13.9239C7.73864 13.9741 7.86868 14 8 14C8.13132 14 8.26136 13.9741 8.38268 13.9239C8.50401 13.8736 8.61425 13.8 8.70711 13.7071C8.79997 13.6142 8.87362 13.504 8.92388 13.3827C8.97413 13.2614 9 13.1313 9 13ZM2.5 11.7691C2.5 11.8966 2.60336 12 2.73087 12H13.2691C13.3966 12 13.5 11.8966 13.5 11.7691C13.5 11.3848 13.3692 11.0119 13.1291 10.7118L12.267 9.63409C11.7705 9.01349 11.5 8.24241 11.5 7.44766V6.5C11.5 4.567 9.933 3 8 3C6.067 3 4.5 4.567 4.5 6.5V7.44766C4.5 8.24241 4.22952 9.01349 3.73304 9.63409L2.87091 10.7118C2.63081 11.0119 2.5 11.3848 2.5 11.7691Z"/>
    </symbol>
    <symbol id="bell-crossed" viewBox="0 0 16 16">
        <path fill-rule="evenodd" clip-rule="evenodd"
              d="M8.5 1.5C8.5 1.22386 8.27614 1 8 1C7.72386 1 7.5 1.22386 7.5 1.5V2.02746C5.25002 2.27619 3.5 4.18372 3.5 6.5V7.44766C3.5 8.01534 3.3068 8.56611 2.95217 9.00939L2.09004 10.0871C1.70809 10.5645 1.5 11.1577 1.5 11.7691C1.5 12.4489 2.05108 13 2.73087 13H6C6 13.2626 6.05173 13.5227 6.15224 13.7654C6.25275 14.008 6.40007 14.2285 6.58579 14.4142C6.7715 14.5999 6.99198 14.7472 7.23463 14.8478C7.47728 14.9483 7.73736 15 8 15C8.26264 15 8.52272 14.9483 8.76537 14.8478C9.00802 14.7472 9.2285 14.5999 9.41421 14.4142C9.59993 14.2285 9.74725 14.008 9.84776 13.7654C9.94827 13.5227 10 13.2626 10 13H13.2691C13.9489 13 14.5 12.4489 14.5 11.7691C14.5 11.1577 14.2919 10.5645 13.91 10.0871L13.0478 9.00939C12.6932 8.56611 12.5 8.01534 12.5 7.44766V6.5C12.5 4.18372 10.75 2.27619 8.5 2.02746V1.5ZM9 13H7C7 13.1313 7.02587 13.2614 7.07612 13.3827C7.12638 13.504 7.20003 13.6142 7.29289 13.7071C7.38575 13.8 7.49599 13.8736 7.61732 13.9239C7.73864 13.9741 7.86868 14 8 14C8.13132 14 8.26136 13.9741 8.38268 13.9239C8.50401 13.8736 8.61425 13.8 8.70711 13.7071C8.79997 13.6142 8.87362 13.504 8.92388 13.3827C8.97413 13.2614 9 13.1313 9 13ZM2.5 11.7691C2.5 11.8966 2.60336 12 2.73087 12H13.2691C13.3966 12 13.5 11.8966 13.5 11.7691C13.5 11.3848 13.3692 11.0119 13.1291 10.7118L12.267 9.63409C11.7705 9.01349 11.5 8.24241 11.5 7.44766V6.5C11.5 4.567 9.933 3 8 3C6.067 3 4.5 4.567 4.5 6.5V7.44766C4.5 8.24241 4.22952 9.01349 3.73304 9.63409L2.87091 10.7118C2.63081 11.0119 2.5 11.3848 2.5 11.7691Z"/>
        <path d="M1 15L15 1" stroke="currentColor" stroke-linecap="round"/>
    </symbol>
    <symbol id="message-multiple" viewBox="0 0 24 24">
        <path
                d="M2.75571 10.3721C2.67505 8.16892 3.82845 6.21211 5.51842 4.81037C7.21886 3.39994 9.35454 2.64423 11.05 2.76018C11.9385 2.82094 12.8149 2.98182 13.6797 3.19064C14.7797 3.51647 16.6649 4.60069 17.7603 6.12395C18.6923 7.42004 19.0162 8.74543 19.0911 9.14216L20.5651 8.86401C20.4666 8.34186 20.0827 6.78423 18.9781 5.2482C17.6529 3.40536 15.4516 2.14469 14.0834 1.74586C14.0069 1.72679 13.9314 1.70778 13.8565 1.68894C12.9854 1.46987 12.2042 1.27339 11.127 1.26199C8.39779 1.23312 6.48237 2.06199 4.5608 3.65584C2.62441 5.26196 1.1593 7.62561 1.25622 10.4132C1.25812 12.2248 1.64051 13.5796 2.21557 14.6627C2.69647 15.5686 3.29897 16.2569 3.85452 16.8334L3.05433 19.7384C2.88102 20.3679 3.51935 20.8887 4.09404 20.6353L7.40538 19.1733C7.87457 19.3317 8.33732 19.4723 8.8072 19.586L9.16015 18.1281C8.54145 17.9784 7.93959 17.7727 7.3393 17.5628L4.91459 18.6333L5.53026 16.3982L5.22549 16.0898C4.60039 15.4573 3.9989 14.8229 3.54043 13.9594C3.08809 13.1073 2.75622 11.9931 2.75622 10.3996V10.3859L2.75571 10.3721Z"
        />
        <path
                fill-rule="evenodd"
                clip-rule="evenodd"
                d="M22.2645 18.4346C23.8127 15.061 21.4542 11.3919 18.3526 10.5041C16.8345 10.0007 15.1435 10.203 13.7238 10.8708C12.2987 11.5412 11.0662 12.7196 10.5459 14.2602C9.54062 17.2366 11.4209 20.8545 14.6395 21.8814C15.9617 22.3032 17.5346 22.1569 18.1927 21.9491C18.431 22.0161 18.7158 22.1372 19.0197 22.2664C19.7954 22.5963 20.6952 22.979 21.2615 22.6468C21.5475 22.479 21.6604 22.1705 21.6471 21.8546C21.6294 21.4301 21.573 21.0054 21.5167 20.5813C21.4805 20.3088 21.4443 20.0367 21.4185 19.7651C21.7475 19.356 22.0453 18.9123 22.2645 18.4346ZM11.9671 14.7402C12.3308 13.6633 13.226 12.7627 14.3623 12.2282C15.4988 11.6936 16.7959 11.564 17.8928 11.932L17.9099 11.9377L17.9273 11.9426C20.3341 12.6228 21.9859 15.4235 20.9068 17.7968C20.633 18.3376 20.2858 18.8072 19.8658 19.2409C19.9138 19.791 19.9655 20.3406 20.03 20.889C19.7776 20.8166 19.5238 20.7496 19.2701 20.6826C18.8945 20.5833 18.5189 20.4841 18.148 20.3677L17.9034 20.4622C16.9745 20.8209 15.9738 20.7129 15.0414 20.436C12.3639 19.7416 11.2065 16.9918 11.9671 14.7402Z"
        />
    </symbol>
    <symbol id="poll" viewBox="0 0 24 24">
        <path d="M6 16.5H3V21H6V16.5ZM13.5 10.5H10.5V21H13.5V10.5ZM21 3V21H18V3H21ZM18 1.5C17.6022 1.5 17.2206 1.65804 16.9393 1.93934C16.658 2.22064 16.5 2.60218 16.5 3V21C16.5 21.3978 16.658 21.7794 16.9393 22.0607C17.2206 22.342 17.6022 22.5 18 22.5H21C21.3978 22.5 21.7794 22.342 22.0607 22.0607C22.342 21.7794 22.5 21.3978 22.5 21V3C22.5 2.60218 22.342 2.22064 22.0607 1.93934C21.7794 1.65804 21.3978 1.5 21 1.5H18ZM9 10.5C9 10.1022 9.15804 9.72064 9.43934 9.43934C9.72064 9.15804 10.1022 9 10.5 9H13.5C13.8978 9 14.2794 9.15804 14.5607 9.43934C14.842 9.72064 15 10.1022 15 10.5V21C15 21.3978 14.842 21.7794 14.5607 22.0607C14.2794 22.342 13.8978 22.5 13.5 22.5H10.5C10.1022 22.5 9.72064 22.342 9.43934 22.0607C9.15804 21.7794 9 21.3978 9 21V10.5ZM1.5 16.5C1.5 16.1022 1.65804 15.7206 1.93934 15.4393C2.22064 15.158 2.60218 15 3 15H6C6.39782 15 6.77936 15.158 7.06066 15.4393C7.34196 15.7206 7.5 16.1022 7.5 16.5V21C7.5 21.3978 7.34196 21.7794 7.06066 22.0607C6.77936 22.342 6.39782 22.5 6 22.5H3C2.60218 22.5 2.22064 22.342 1.93934 22.0607C1.65804 21.7794 1.5 21.3978 1.5 21V16.5Z"
              fill="currentColor"/>
    </symbol>
</svg>
