<svg xmlns="http://www.w3.org/2000/svg" style="display: none;">
  <symbol id="header1" viewBox="0 0 32 32">
    <path
      d="M8 8C8 7.44772 7.55228 7 7 7C6.44772 7 6 7.44772 6 8V24C6 24.5523 6.44772 25 7 25C7.55228 25 8 24.5523 8 24V17H17V24C17 24.5523 17.4477 25 18 25C18.5523 25 19 24.5523 19 24V8C19 7.44772 18.5523 7 18 7C17.4477 7 17 7.44772 17 8V15H8V8Z" />
    <path
      d="M25.8751 15.5C25.8751 15.0709 25.5639 14.7051 25.1403 14.6363C24.7166 14.5676 24.3057 14.8162 24.17 15.2233L24.104 15.4213C23.8842 16.0806 23.451 16.6478 22.8728 17.0333L22.5147 17.272C22.1126 17.54 22.004 18.0833 22.272 18.4854C22.5401 18.8875 23.0834 18.9961 23.4855 18.7281L23.8435 18.4894C23.94 18.425 24.17 16.1562 24.1251 18.2868V23.125H23.0001C22.5168 23.125 22.1251 23.5168 22.1251 24C22.1251 24.4833 22.5168 24.875 23.0001 24.875H27.0001C27.4833 24.875 27.8751 24.4833 27.8751 24C27.8751 23.5168 27.4833 23.125 27.0001 23.125H25.8751V15.5Z" />
  </symbol>
  <symbol id="header2" viewBox="0 0 32 32">
    <path
      d="M8 8C8 7.44772 7.55228 7 7 7C6.44772 7 6 7.44772 6 8V24C6 24.5523 6.44772 25 7 25C7.55228 25 8 24.5523 8 24V17H17V24C17 24.5523 17.4477 25 18 25C18.5523 25 19 24.5523 19 24V8C19 7.44772 18.5523 7 18 7C17.4477 7 17 7.44772 17 8V15H8V8Z" />
    <path
      d="M25.0002 14.625C23.6175 14.6239 22.6106 15.4018 22.1701 16.7233C22.0173 17.1817 22.2651 17.6773 22.7235 17.8301C23.182 17.9829 23.6775 17.7351 23.8303 17.2767C24.0381 16.6534 24.3614 16.375 25.0002 16.375C25.6752 16.375 26.1033 16.8525 26.1252 17.5065C26.1228 18.4508 25.739 19.0073 25 19.5C23.5 20.5 22.1252 21.5 22.1252 24C22.1252 24.4832 22.517 24.875 23.0002 24.875H27.5002C27.9835 24.875 28.3752 24.4832 28.3752 24C28.3752 23.5167 27.9829 23.125 27.4997 23.125H24.0953C24.0953 22 26 21 27 20C27.509 19.4273 27.8752 18.4765 27.8752 17.5C27.8525 17.0167 27.7507 16.5443 27.5329 16.1087C27.0474 15.1378 26.0693 14.625 25.0002 14.625Z" />
  </symbol>
  <symbol id="header3" viewBox="0 0 32 32">
    <path
      d="M8 8C8 7.44772 7.55228 7 7 7C6.44772 7 6 7.44772 6 8V24C6 24.5523 6.44772 25 7 25C7.55228 25 8 24.5523 8 24V17H17V24C17 24.5523 17.4477 25 18 25C18.5523 25 19 24.5523 19 24V8C19 7.44772 18.5523 7 18 7C17.4477 7 17 7.44772 17 8V15H8V8Z" />
    <path
      d="M24.5983 16.8163C24.7929 16.7503 25.0009 16.7332 25.2037 16.7667C25.4065 16.8002 25.5979 16.8832 25.761 17.0083C25.9241 17.1334 26.0538 17.2969 26.1387 17.4841C26.2235 17.6714 26.2608 17.8766 26.2474 18.0818C26.234 18.2869 26.1701 18.4855 26.0616 18.6601C25.953 18.8347 25.8031 18.9798 25.6251 19.0825C25.6021 19.0958 25.5799 19.11 25.5585 19.125H25.0001C24.5168 19.125 24.1251 19.5168 24.1251 20C24.1251 20.4832 24.5168 20.875 25.0001 20.875H25.5586C25.5799 20.89 25.6021 20.9042 25.6252 20.9175C25.8032 21.0202 25.9531 21.1653 26.0617 21.3399C26.1702 21.5145 26.234 21.7131 26.2475 21.9182C26.2609 22.1234 26.2236 22.3286 26.1387 22.5159C26.0539 22.7031 25.9242 22.8665 25.7611 22.9917C25.598 23.1168 25.4066 23.1998 25.2038 23.2333C25.001 23.2668 24.793 23.2497 24.5984 23.1837C24.4037 23.1176 24.2283 23.0045 24.0878 22.8545C23.9473 22.7045 23.8459 22.5221 23.7927 22.3235C23.6677 21.8567 23.1879 21.5797 22.7211 21.7048C22.2543 21.8299 21.9773 22.3097 22.1024 22.7765C22.2301 23.253 22.4733 23.6907 22.8106 24.0508C23.1478 24.4109 23.5687 24.6822 24.0358 24.8408C24.503 24.9994 25.0021 25.0403 25.4888 24.9599C25.9756 24.8796 26.435 24.6804 26.8264 24.3801C27.2178 24.0797 27.5291 23.6875 27.7327 23.2381C27.9364 22.7887 28.026 22.2961 27.9937 21.8038C27.9615 21.3115 27.8083 20.8347 27.5478 20.4158C27.4558 20.2679 27.3515 20.1289 27.2362 20C27.3514 19.8711 27.4557 19.732 27.5477 19.5842C27.8082 19.1652 27.9614 18.6885 27.9937 18.1962C28.0259 17.7039 27.9363 17.2113 27.7327 16.7619C27.5291 16.3125 27.2178 15.9203 26.8264 15.6199C26.435 15.3196 25.9755 15.1204 25.4888 15.0401C25.002 14.9597 24.5029 15.0006 24.0358 15.1592C23.5686 15.3178 23.1477 15.5891 22.8105 15.9492C22.4732 16.3093 22.23 16.747 22.1023 17.2235C21.9772 17.6903 22.2542 18.1701 22.721 18.2952C23.1878 18.4203 23.6676 18.1433 23.7927 17.6765C23.8459 17.4779 23.9472 17.2955 24.0877 17.1455C24.2283 16.9955 24.4036 16.8824 24.5983 16.8163Z" />
  </symbol>
  <symbol id="underline" viewBox="0 0 32 32">
    <path
      d="M10 17V8C10 7.44772 9.55228 7 9 7C8.44772 7 8 7.44772 8 8V17C8 21.4183 11.5817 25 16 25H17V24.9381C20.9463 24.446 24 21.0796 24 17V8C24 7.44772 23.5523 7 23 7C22.4477 7 22 7.44772 22 8V17C22 20.3137 19.3137 23 16 23C12.6863 23 10 20.3137 10 17Z" />
    <path
      d="M8 27C7.44772 27 7 27.4477 7 28C7 28.5523 7.44772 29 8 29H24C24.5523 29 25 28.5523 25 28C25 27.4477 24.5523 27 24 27H8Z" />
  </symbol>
  <symbol id="strikethrough" viewBox="0 0 20 20">
    <path
      d="M7,7.1C7,6.5,7.3,6,7.8,5.6C8.4,5.3,9.2,5,10.1,5c1.3,0,2.4,0.6,2.8,1.2c0.1,0.2,0.4,0.3,0.7,0.2s0.3-0.4,0.2-0.7C13.1,4.6,11.6,4,10.1,4C9,4,8,4.3,7.3,4.8C6.5,5.4,6,6.2,6,7.1C6,7.8,6.3,8.5,6.8,9h1.7C7.6,8.6,7,7.8,7,7.1zM15.5,10c0.3,0,0.5,0.2,0.5,0.5S15.8,11,15.5,11h-2.3c0.5,0.5,0.8,1.1,0.8,1.9c0,0.9-0.5,1.7-1.3,2.2C12,15.7,11,16,9.9,16c-1.6,0-3-0.7-3.7-1.7C6,14,6.1,13.7,6.3,13.6c0.2-0.2,0.5-0.1,0.7,0.1C7.5,14.5,8.5,15,9.9,15c0.9,0,1.7-0.3,2.3-0.7c0.6-0.4,0.8-0.9,0.8-1.4c0-0.8-0.6-1.5-1.8-1.9H4.5C4.2,11,4,10.8,4,10.5S4.2,10,4.5,10H15.5z" />
  </symbol>
  <symbol id="bold" viewBox="0 0 32 32">
    <path
      d="M18.25 25H10C9.44772 25 9 24.5523 9 24V8C9 7.44772 9.44772 7 10 7H17.5C18.5022 7.00006 19.4834 7.28695 20.3277 7.82679C21.172 8.36662 21.8442 9.13684 22.2649 10.0465C22.6855 10.9561 22.837 11.9671 22.7015 12.96C22.5659 13.953 22.149 14.8864 21.5 15.65C22.3477 16.328 22.9645 17.252 23.2653 18.295C23.5662 19.3379 23.5364 20.4485 23.18 21.4738C22.8236 22.4991 22.1581 23.3887 21.2753 24.0202C20.3924 24.6517 19.3355 24.994 18.25 25ZM12 22H18.23C18.5255 22 18.8181 21.9418 19.091 21.8287C19.364 21.7157 19.6121 21.5499 19.821 21.341C20.0299 21.1321 20.1957 20.884 20.3087 20.611C20.4218 20.3381 20.48 20.0455 20.48 19.75C20.48 19.4545 20.4218 19.1619 20.3087 18.889C20.1957 18.616 20.0299 18.3679 19.821 18.159C19.6121 17.9501 19.364 17.7843 19.091 17.6713C18.8181 17.5582 18.5255 17.5 18.23 17.5H12V22ZM12 14.5H17.5C17.7955 14.5 18.0881 14.4418 18.361 14.3287C18.634 14.2157 18.8821 14.0499 19.091 13.841C19.2999 13.6321 19.4657 13.384 19.5787 13.111C19.6918 12.8381 19.75 12.5455 19.75 12.25C19.75 11.9545 19.6918 11.6619 19.5787 11.389C19.4657 11.116 19.2999 10.8679 19.091 10.659C18.8821 10.4501 18.634 10.2843 18.361 10.1713C18.0881 10.0582 17.7955 10 17.5 10H12V14.5Z" />
  </symbol>
  <symbol id="italic" viewBox="0 0 32 32">
    <path
      d="M24 9C24.5523 9 25 8.55228 25 8C25 7.44772 24.5523 7 24 7H13C12.4477 7 12 7.44772 12 8C12 8.55228 12.4477 9 13 9H17.14L12.77 23H8C7.44771 23 7 23.4477 7 24C7 24.5523 7.44772 25 8 25H19C19.5523 25 20 24.5523 20 24C20 23.4477 19.5523 23 19 23H14.86L19.23 9H24Z" />
  </symbol>
  <symbol id="link" viewBox="0 0 32 32">
    <path
      d="M29.25 6.75997C28.6926 6.20061 28.0302 5.75679 27.3009 5.45396C26.5716 5.15112 25.7897 4.99524 25 4.99524C24.2103 4.99524 23.4284 5.15112 22.6991 5.45396C22.278 5.62881 21.8792 5.85065 21.5101 6.1146C21.0614 6.43545 21.0693 7.07931 21.4594 7.46935C21.8499 7.85988 22.4827 7.84994 22.9575 7.5679C23.1218 7.47029 23.2933 7.38434 23.4707 7.31086C23.9571 7.10938 24.4785 7.00567 25.005 7.00567C25.5315 7.00567 26.0528 7.10938 26.5393 7.31086C27.0257 7.51235 27.4677 7.80767 27.84 8.17997C28.2123 8.55227 28.5076 8.99425 28.7091 9.48068C28.9106 9.96711 29.0143 10.4885 29.0143 11.015C29.0143 11.5415 28.9106 12.0628 28.7091 12.5493C28.5076 13.0357 28.2123 13.4777 27.84 13.85L19.84 21.85C19.0894 22.6019 18.0709 23.0248 17.0085 23.0257C15.9461 23.0267 14.9269 22.6055 14.175 21.855C13.4231 21.1044 13.0001 20.0859 12.9992 19.0235C12.9983 17.9611 13.4194 16.9419 14.17 16.19L14.8803 15.4746C15.2675 15.0846 15.2659 14.4537 14.8787 14.0637C14.4886 13.6709 13.8519 13.6681 13.4604 14.0596L12.75 14.77C12.1906 15.3274 11.7468 15.9897 11.444 16.7191C11.1411 17.4484 10.9852 18.2303 10.9852 19.02C10.9852 19.8097 11.1411 20.5916 11.444 21.3209C11.7468 22.0502 12.1906 22.7125 12.75 23.27C13.8815 24.387 15.41 25.0092 17 25C17.7927 25.0032 18.5782 24.8494 19.3111 24.5473C20.044 24.2452 20.7098 23.8009 21.27 23.24L29.27 15.24C30.3909 14.1123 31.0184 12.5858 31.0147 10.9958C31.0109 9.40582 30.3762 7.88232 29.25 6.75997Z" />
    <path
      d="M4.18997 24.82C3.81656 24.4483 3.52026 24.0065 3.31807 23.52C3.11589 23.0335 3.01181 22.5118 3.01181 21.985C3.01181 21.4581 3.11589 20.9365 3.31807 20.4499C3.52026 19.9634 3.81656 19.5216 4.18997 19.15L12.19 11.15C12.5616 10.7766 13.0034 10.4803 13.4899 10.2781C13.9765 10.0759 14.4981 9.97181 15.025 9.97181C15.5518 9.97181 16.0735 10.0759 16.56 10.2781C17.0465 10.4803 17.4883 10.7766 17.86 11.15C18.231 11.5246 18.5231 11.9698 18.7189 12.4594C18.9147 12.9489 19.0103 13.4728 19 14C19.003 14.5288 18.9012 15.0529 18.7004 15.5421C18.4995 16.0313 18.2037 16.4758 17.83 16.85L16.4072 18.2929C16.0213 18.6842 16.0289 19.3189 16.4175 19.7075C16.808 20.098 17.4466 20.1034 17.8371 19.7129L19.25 18.3C20.3785 17.1715 21.0124 15.6409 21.0124 14.045C21.0124 12.449 20.3785 10.9185 19.25 9.78997C18.1215 8.66147 16.5909 8.02749 14.995 8.02749C13.399 8.02749 11.8685 8.66147 10.74 9.78997L2.73997 17.79C2.17911 18.3476 1.73401 19.0106 1.43029 19.7408C1.12657 20.471 0.970215 21.2541 0.970215 22.045C0.970215 22.8358 1.12657 23.6189 1.43029 24.3492C1.73401 25.0794 2.17911 25.7424 2.73997 26.3C3.87879 27.4084 5.41087 28.0198 6.99997 28C8.26594 28.0012 9.49169 27.6069 10.5118 26.885C10.964 26.5651 10.961 25.921 10.5693 25.5293C10.1781 25.1381 9.54699 25.1518 9.0717 25.4348C8.90786 25.5324 8.73689 25.6184 8.56 25.6919C8.07349 25.8941 7.55182 25.9981 7.02497 25.9981C6.49812 25.9981 5.97645 25.8941 5.48994 25.6919C5.00342 25.4897 4.56164 25.1934 4.18997 24.82Z" />
  </symbol>

  <symbol id="listBullet" viewBox="0 0 32 32">
    <path
      d="M4 9C5.10457 9 6 8.10457 6 7C6 5.89543 5.10457 5 4 5C2.89543 5 2 5.89543 2 7C2 8.10457 2.89543 9 4 9Z" />
    <path
      d="M9 7C9 6.44772 9.44772 6 10 6H29C29.5523 6 30 6.44772 30 7C30 7.55228 29.5523 8 29 8H10C9.44772 8 9 7.55228 9 7Z"
    />
    <path
      d="M9 16C9 15.4477 9.44772 15 10 15H29C29.5523 15 30 15.4477 30 16C30 16.5523 29.5523 17 29 17H10C9.44772 17 9 16.5523 9 16Z"
    />
    <path
      d="M10 24C9.44772 24 9 24.4477 9 25C9 25.5523 9.44772 26 10 26H29C29.5523 26 30 25.5523 30 25C30 24.4477 29.5523 24 29 24H10Z"
    />
    <path
      d="M6 16C6 17.1046 5.10457 18 4 18C2.89543 18 2 17.1046 2 16C2 14.8954 2.89543 14 4 14C5.10457 14 6 14.8954 6 16Z"
    />
    <path
      d="M4 27C5.10457 27 6 26.1046 6 25C6 23.8954 5.10457 23 4 23C2.89543 23 2 23.8954 2 25C2 26.1046 2.89543 27 4 27Z"
    />
  </symbol>
  <symbol id="listNumber" viewBox="0 0 32 32">
    <path
      d="M11 7C11 6.44772 11.4477 6 12 6H29C29.5523 6 30 6.44772 30 7C30 7.55228 29.5523 8 29 8H12C11.4477 8 11 7.55228 11 7Z"
    />
    <path
      d="M11 16C11 15.4477 11.4477 15 12 15H29C29.5523 15 30 15.4477 30 16C30 16.5523 29.5523 17 29 17H12C11.4477 17 11 16.5523 11 16Z"
    />
    <path
      d="M11 25C11 24.4477 11.4477 24 12 24H29C29.5523 24 30 24.4477 30 25C30 25.5523 29.5523 26 29 26H12C11.4477 26 11 25.5523 11 25Z"
    />
    <path
      d="M4.87524 18C3.49245 17.999 2.48564 18.7768 2.04514 20.0983C1.89232 20.5568 2.14009 21.0523 2.59854 21.2051C3.05699 21.3579 3.55252 21.1102 3.70534 20.6517C3.91309 20.0284 4.23643 19.75 4.87524 19.75C5.55025 19.75 5.97826 20.2275 6.00023 20.8815C5.99778 21.8258 5.61399 22.3824 4.875 22.875C3.375 23.875 2.00024 24.875 2.00024 27.375C2.00024 27.8582 2.39199 28.25 2.87524 28.25H7.3752C7.85845 28.25 8.25024 27.8582 8.25024 27.375C8.25024 26.8918 7.85794 26.5 7.37469 26.5H3.97031C3.97031 25.375 5.875 24.375 6.875 23.375C7.38403 22.8024 7.75024 21.8515 7.75024 20.875C7.72751 20.3917 7.6257 19.9194 7.40786 19.4837C6.92243 18.5128 5.94432 18 4.87524 18Z"
    />
    <path
      d="M5.75009 4.87508C5.75009 4.44593 5.43886 4.08012 5.01525 4.01138C4.59164 3.94264 4.1807 4.19125 4.04499 4.59838L3.979 4.79638C3.75924 5.45564 3.32601 6.02285 2.7478 6.40832L2.38973 6.64704C1.98764 6.91509 1.87899 7.45835 2.14705 7.86044C2.41511 8.26253 2.95837 8.37118 3.36046 8.10312L3.71853 7.86441C3.81501 7.80009 4.04499 5.53131 4.00009 7.66187V12.5001H2.87509C2.39184 12.5001 2.00009 12.8918 2.00009 13.3751C2.00009 13.8583 2.39184 14.2501 2.87509 14.2501H6.87509C7.35834 14.2501 7.75009 13.8583 7.75009 13.3751C7.75009 12.8918 7.35834 12.5001 6.87509 12.5001H5.75009V4.87508Z"
    />
  </symbol>
  <symbol id="quote" viewBox="0 0 24 24">
    <path
      d="M10.1,4.7C9.9,4.4,9.7,4.4,9.4,4.6C5.7,7,3.6,9.8,3.2,13c-0.7,5,3.8,7.4,6.1,5.2c2.3-2.2,0.9-5-0.7-5.8 C6.9,11.7,5.9,12,6,11c0.2-1,2.5-3.8,4.6-5.2c0.1-0.1,0.2-0.3,0.1-0.5C10.6,5.2,10.4,5,10.1,4.7z"
    />
    <path
      d="M20.5,5.8c0.1-0.1,0.2-0.3,0.1-0.5c-0.1-0.1-0.3-0.3-0.5-0.7c-0.2-0.3-0.4-0.3-0.7-0.1C15.6,7,13.5,9.8,13.1,13 c-0.7,5,3.8,7.4,6.1,5.2c2.3-2.2,0.9-5-0.7-5.8c-1.6-0.8-2.6-0.5-2.5-1.5C16.1,10,18.5,7.1,20.5,5.8z"
    />
  </symbol>
  <symbol id="code" viewBox="0 0 32 32">
    <path d="M2 16L10 24L11.4142 22.5858L4.82843 16L11.4142 9.41421L10 8L2 16Z" />
    <path
      d="M29.9999 16L21.9999 8L20.5857 9.41421L27.1715 16L20.5857 22.5858L21.9999 24L29.9999 16Z" />
  </symbol>
  <symbol id="codeBlock" viewBox="0 0 24 24">
    <path
      d="M4,21.7c-1,0-1.7-0.8-1.7-1.8l0-7c0-0.4,0.3-0.8,0.8-0.8s0.7,0.3,0.7,0.8l0,7c0,0.1,0.1,0.2,0.2,0.2l16,0 c0.1,0,0.2-0.1,0.2-0.2l0-16c0-0.1-0.1-0.3-0.2-0.3l-7,0c-0.4,0-0.8-0.3-0.8-0.8s0.3-0.7,0.8-0.7l7,0c1,0,1.8,0.8,1.7,1.8l0,16 c0,1-0.8,1.8-1.8,1.7L4,21.7z"
    />
    <path
      d="M3.5,7.9L6,5.3C6.1,5.1,6.2,5,6.2,4.8c0-0.2-0.1-0.3-0.2-0.4C5.9,4.3,5.7,4.2,5.6,4.2c-0.2,0-0.3,0.1-0.4,0.2L2.2,7.4 C2.1,7.6,2,7.7,2,7.9c0,0.2,0.1,0.3,0.2,0.4l2.9,2.8c0.1,0.1,0.3,0.2,0.4,0.2c0.2,0,0.3-0.1,0.4-0.2c0.1-0.1,0.2-0.3,0.2-0.4 S6.1,10.4,6,10.3L3.5,7.9z"
    />
    <path
      d="M13.9,7.4l-2.9-3.1c-0.1-0.1-0.3-0.2-0.4-0.2c-0.2,0-0.3,0.1-0.4,0.2C9.9,4.5,9.9,4.7,9.9,4.8C9.9,5,9.9,5.1,10,5.3l2.5,2.6 l-2.5,2.4c-0.2,0.2-0.3,0.6,0,0.9c0.1,0.1,0.3,0.2,0.4,0.2c0.2,0,0.3-0.1,0.4-0.2l2.9-2.8c0.1-0.1,0.2-0.3,0.2-0.4 C14.1,7.7,14,7.6,13.9,7.4z"
    />
    <path
      d="M9,2c0,0-0.1,0-0.1,0C8.6,2,8.3,2.2,8.3,2.5l-1.7,9.8C6.5,12.7,6.7,13,7.1,13c0,0,0.1,0,0.1,0c0.3,0,0.6-0.2,0.6-0.5 l1.7-9.8C9.6,2.4,9.3,2.1,9,2z"
    />
  </symbol>
  <symbol id="tableProps" viewBox="0 0 24 24">
    <path
      d="M19.2,11.2C19,11,18.8,11,18.6,11c-0.2,0-0.4,0.1-0.5,0.3l-5.2,7.2c-0.1,0.1-0.1,0.3-0.1,0.4v2c0,0.4,0.3,0.8,0.8,0.8h2c0.2,0,0.5-0.1,0.6-0.3l5.5-7.5c0.2-0.3,0.2-0.8-0.1-1L19.2,11.2z M15.1,20.2h-0.9v-1l4.7-6.4l1.1,0.8L15.1,20.2z"
      fill-rule="evenodd"
      clip-rule="evenodd"
    />
    <path
      d="M19.5,2.2h-15c-1.2,0-2.2,1-2.2,2.2v2v3v10c0,1.2,1,2.2,2.2,2.2h7c0.4,0,0.8-0.3,0.8-0.8s-0.3-0.8-0.8-0.8h-2V8.8h5v4.1c0,0.4,0.3,0.8,0.8,0.8s0.8-0.3,0.8-0.8V8.8h4.2V10v0.9c0,0.4,0.3,0.8,0.8,0.8s0.8-0.3,0.8-0.8V10V7V4.5C21.8,3.3,20.7,2.2,19.5,2.2z M8,20.2H4.5c-0.4,0-0.8-0.3-0.8-0.8v-10V8.8H8V20.2z M3.8,7.2V6.5v-2c0-0.4,0.3-0.8,0.8-0.8h15c0.4,0,0.8,0.3,0.8,0.8V7v0.2H3.8z"
      fill-rule="evenodd"
      clip-rule="evenodd"
    />
  </symbol>
  <symbol id="alignLeft" viewBox="0 0 32 32">
    <path
    d="M5 4C4.44772 4 4 4.44772 4 5V27C4 27.5523 4.44772 28 5 28C5.55228 28 6 27.5523 6 27V5C6 4.44772 5.55228 4 5 4Z"
    />
    <path
      d="M27 8C27.5523 8 28 8.44772 28 9C28 9.55228 27.5523 10 27 10H11C10.4477 10 10 9.55228 10 9C10 8.44772 10.4477 8 11 8H27Z"
    />
    <path
      d="M22 15C22.5523 15 23 15.4477 23 16C23 16.5523 22.5523 17 22 17H11C10.4477 17 10 16.5523 10 16C10 15.4477 10.4477 15 11 15H22Z"
    />
    <path
      d="M28 23C28 22.4477 27.5523 22 27 22H11C10.4477 22 10 22.4477 10 23C10 23.5523 10.4477 24 11 24H27C27.5523 24 28 23.5523 28 23Z"
    />
  </symbol>
  <symbol id="alignCenter" viewBox="0 0 32 32">
    <path
      d="M15 5C15 4.44772 15.4477 4 16 4C16.5523 4 17 4.44772 17 5V27C17 27.5523 16.5523 28 16 28C15.4477 28 15 27.5523 15 27V24H7C6.44772 24 6 23.5523 6 23C6 22.4477 6.44772 22 7 22H15V17H9C8.44772 17 8 16.5523 8 16C8 15.4477 8.44772 15 9 15H15V10H5C4.44772 10 4 9.55228 4 9C4 8.44772 4.44772 8 5 8H15V5Z"
    />
    <path d="M19 24H25C25.5523 24 26 23.5523 26 23C26 22.4477 25.5523 22 25 22H19V24Z" />
    <path d="M19 17H22C22.5523 17 23 16.5523 23 16C23 15.4477 22.5523 15 22 15H19V17Z" />
    <path d="M19 10H27C27.5523 10 28 9.55228 28 9C28 8.44772 27.5523 8 27 8H19V10Z" />
  </symbol>
  <symbol id="alignRight" viewBox="0 0 32 32">
    <path
      d="M27 4C26.4477 4 26 4.44772 26 5V27C26 27.5523 26.4477 28 27 28C27.5523 28 28 27.5523 28 27V5C28 4.44772 27.5523 4 27 4Z"
    />
    <path
      d="M5 8C4.44772 8 4 8.44772 4 9C4 9.55228 4.44772 10 5 10H21C21.5523 10 22 9.55228 22 9C22 8.44772 21.5523 8 21 8H5Z"
    />
    <path
      d="M10 15C9.44772 15 9 15.4477 9 16C9 16.5523 9.44772 17 10 17H21C21.5523 17 22 16.5523 22 16C22 15.4477 21.5523 15 21 15H10Z"
    />
    <path
      d="M4 23C4 22.4477 4.44772 22 5 22H21C21.5523 22 22 22.4477 22 23C22 23.5523 21.5523 24 21 24H5C4.44772 24 4 23.5523 4 23Z"
    />
  </symbol>
  <symbol id="moreH" viewBox="0 0 32 32">
    <path
      d="M8 18C9.10457 18 10 17.1046 10 16C10 14.8954 9.10457 14 8 14C6.89543 14 6 14.8954 6 16C6 17.1046 6.89543 18 8 18Z"
    />
    <path
      d="M16 18C17.1046 18 18 17.1046 18 16C18 14.8954 17.1046 14 16 14C14.8954 14 14 14.8954 14 16C14 17.1046 14.8954 18 16 18Z"
    />
    <path
      d="M26 16C26 17.1046 25.1046 18 24 18C22.8954 18 22 17.1046 22 16C22 14.8954 22.8954 14 24 14C25.1046 14 26 14.8954 26 16Z"
    />
  </symbol>
  <symbol id="expand" viewBox="-2 -2 16 16">
    <path
      d="M7.75 0.75C7.75 0.335786 8.08579 0 8.5 0H11.25C11.6642 0 12 0.335786 12 0.75V3.5C12 3.91421 11.6642 4.25 11.25 4.25C10.8358 4.25 10.5 3.91421 10.5 3.5V2.56066L7.78033 5.28033C7.48744 5.57322 7.01256 5.57322 6.71967 5.28033C6.42678 4.98744 6.42678 4.51256 6.71967 4.21967L9.43934 1.5H8.5C8.08579 1.5 7.75 1.16421 7.75 0.75ZM5.28033 6.71967C5.57322 7.01256 5.57322 7.48744 5.28033 7.78033L2.56066 10.5H3.5C3.91421 10.5 4.25 10.8358 4.25 11.25C4.25 11.6642 3.91421 12 3.5 12H0.75C0.335786 12 0 11.6642 0 11.25V8.5C0 8.08579 0.335786 7.75 0.75 7.75C1.16421 7.75 1.5 8.08579 1.5 8.5V9.43934L4.21967 6.71967C4.51256 6.42678 4.98744 6.42678 5.28033 6.71967Z"
    />
  </symbol>
  <symbol id="scaleOut" viewBox="0 0 32 32">
    <path
      d="M20 4V6H24.586L18.293 12.2929C17.9024 12.6834 17.9024 13.3166 18.293 13.7071C18.6835 14.0976 19.3167 14.0976 19.7072 13.7071L26 7.414V12H28V4H20Z"
    />
    <path
      d="M13.7073 19.7071C14.0978 19.3166 14.0978 18.6834 13.7073 18.2929C13.3167 17.9024 12.6836 17.9024 12.293 18.2929L6 24.586V20H4V28H12V26H7.414L13.7073 19.7071Z"
    />
    <path
      d="M12 4V6H7.414L13.707 12.2929C14.0976 12.6834 14.0976 13.3166 13.707 13.7071C13.3165 14.0976 12.6833 14.0976 12.2928 13.7071L6 7.414V12H4V4H12Z"
    />
    <path
      d="M18.2927 19.7071C17.9022 19.3166 17.9022 18.6834 18.2927 18.2929C18.6833 17.9024 19.3164 17.9024 19.707 18.2929L26 24.586V20H28V28H20V26H24.586L18.2927 19.7071Z"
    />
  </symbol>
  <symbol id="download" viewBox="0 0 24 24">
    <path
      d="M18.7,9.6C18.5,6,15.6,3.2,12,3.2C8.4,3.2,5.5,6,5.3,9.5c-2.3,0.7-4,2.9-4,5.5c0,3.2,2.6,5.8,5.8,5.8 c0.5,0,1.1-0.1,1.6-0.2C9,20.4,9.2,20,9.1,19.6S8.6,19,8.2,19.1c-0.4,0.1-0.8,0.2-1.2,0.2c-2.3,0-4.2-1.9-4.2-4.2 c0-2,1.4-3.7,3.3-4.1c0.2,0,0.3-0.1,0.4-0.2c0.2-0.1,0.4-0.4,0.4-0.6c0-2.9,2.4-5.2,5.2-5.2s5.2,2.4,5.2,5.2c0,0.1,0,0.1,0,0.2 c0,0.3,0.2,0.6,0.6,0.7c1.9,0.4,3.3,2.1,3.3,4.1c0,2.3-1.9,4.2-4.2,4.2c-0.4,0-0.8-0.1-1.2-0.2c-0.4-0.1-0.8,0.1-0.9,0.5 c-0.1,0.4,0.1,0.8,0.5,0.9c0.5,0.1,1,0.2,1.6,0.2c3.2,0,5.8-2.6,5.8-5.8C22.6,12.5,21,10.4,18.7,9.6z"
    />
    <path
      d="M16.1,14.5c-0.3-0.3-0.8-0.3-1.1,0l-2.3,2.3V10c0-0.4-0.3-0.8-0.8-0.8s-0.8,0.3-0.8,0.8v6.7l-2.2-2.2 c-0.3-0.3-0.8-0.3-1.1,0c-0.3,0.3-0.3,0.8,0,1.1l3.5,3.5c0.3,0.3,0.8,0.3,1.1,0l3.6-3.5C16.4,15.2,16.4,14.8,16.1,14.5z"
    />
  </symbol>
  <symbol id="note" viewBox="0 0 32 32">
    <path d="M28.1,5.8c0-2.1-1.7-3.8-3.8-3.8H7.6C5.6,2,3.9,3.7,3.9,5.8v20.4c0,2.1,1.7,3.8,3.8,3.8h12.1c0.1,0,0.3,0,0.4-0.1c0.1-0.1,0.2-0.1,0.3-0.2l7.4-7.4c0.1-0.1,0.2-0.2,0.2-0.3c0.1-0.1,0.1-0.3,0.1-0.4V5.8z M5.9,26.2V5.8c0-1,0.8-1.8,1.8-1.8h16.7c1,0,1.8,0.8,1.8,1.8v14.8h-3.6c-2.1,0-3.8,1.7-3.8,3.8V28H7.6C6.7,28,5.9,27.2,5.9,26.2z M24.7,22.6l-4,4v-2.2c0-1,0.8-1.8,1.8-1.8H24.7z" />
    <path d="M9.5,11.4h13c0.6,0,1-0.4,1-1s-0.4-1-1-1h-13c-0.6,0-1,0.4-1,1S8.9,11.4,9.5,11.4z" />
    <path d="M9.5,17h13c0.6,0,1-0.4,1-1s-0.4-1-1-1h-13c-0.6,0-1,0.4-1,1S8.9,17,9.5,17z" />
    <path d="M15.1,20.6H9.5c-0.6,0-1,0.4-1,1s0.4,1,1,1h5.6c0.6,0,1-0.4,1-1S15.6,20.6,15.1,20.6z" />
  </symbol>
  <symbol id="comment" viewBox="0 0 32 32">
    <path fill-rule="evenodd" clip-rule="evenodd" d="M27.4,25.4L27.4,25.4c0.2,0,0.4,0,0.6-0.1c0.2-0.1,0.3-0.2,0.5-0.3c0.1-0.1,0.2-0.3,0.3-0.5C29,24.2,29,24,29,23.9v-0.1c0-0.1,0-0.2-0.1-0.4l-1-3.5c0,0,0-0.1,0.1-0.1c0,0,0-0.1,0.1-0.1l0,0c1.2-1.8,1.9-4,1.9-6.2c0-3-1.2-5.8-3.3-7.9C24.4,3.3,21.4,2,18.1,2c-2.7,0-5.4,0.9-7.5,2.6c-2.1,1.7-3.5,4-4.1,6.5c-0.2,0.8-0.3,1.6-0.3,2.4c0,1.5,0.3,3,0.9,4.4c0.6,1.4,1.4,2.7,2.5,3.7c2.2,2.2,5.2,3.4,8.3,3.4c1.2,0,2.8-0.4,3.2-0.5c0.8-0.2,1.6-0.5,1.7-0.5c0.1,0,0.2,0,0.2,0c0.1,0,0.2,0,0.2,0l0,0l3.5,1.3C27.1,25.3,27.2,25.3,27.4,25.4L27.4,25.4z M26.7,23l-2.7-1h0c-0.6-0.2-1.3-0.3-1.9,0c0,0,0,0,0,0c-0.2,0.1-0.8,0.3-1.5,0.5C19.9,22.8,18.7,23,18,23c-5.3,0-9.7-4.3-9.7-9.6c0-0.6,0.1-1.3,0.2-1.9c0.9-4.4,5-7.5,9.7-7.5c2.7,0,5.3,1,7.1,2.9C27,8.7,28,11,28,13.4c0,1.8-0.5,3.6-1.5,5.1c-0.1,0.1-0.1,0.2-0.2,0.3l0,0c-0.3,0.6-0.4,1.1-0.3,1.5L26.7,23z" />
    <path d="M3.6,29.7C3.8,29.9,4.2,30,4.5,30h0c0.2,0,0.4,0,0.6-0.1l3.5-1.4l0,0c1.4,0.5,2.8,0.8,4.2,0.8h0c1.9,0,3.8-0.5,5.5-1.5c0.1-0.1,0.2-0.2,0.3-0.3c0.1-0.1,0.1-0.2,0.2-0.4s0-0.3,0-0.4c0-0.1-0.1-0.3-0.1-0.4c-0.1-0.1-0.2-0.2-0.3-0.3c-0.1-0.1-0.2-0.1-0.4-0.2c-0.1,0-0.3,0-0.4,0c-0.1,0-0.3,0.1-0.4,0.1c-1.4,0.8-2.9,1.2-4.5,1.2h0c-1.1,0-2.3-0.2-3.4-0.7c-0.5-0.2-1-0.2-1.5,0l-2.7,1c0.3-1.3,0.5-2.8,0.6-2.9c0.1-0.5-0.1-0.9-0.3-1.3l0,0c-0.8-1.2-1.3-2.7-1.4-4.2c-0.1-1.5,0.3-3,1-4.3c0.1-0.2,0.2-0.5,0.1-0.8C5,14,4.9,13.8,4.6,13.6c-0.2-0.1-0.5-0.2-0.8-0.1c-0.3,0.1-0.5,0.2-0.6,0.5c-0.9,1.6-1.3,3.5-1.3,5.4c0.1,1.9,0.7,3.7,1.7,5.2v0c-0.1,0.5-0.3,1.7-0.5,2.7C3.1,27.7,3.1,28,3,28.2C3,28.5,3,28.8,3.1,29C3.2,29.3,3.3,29.5,3.6,29.7L3.6,29.7z" />
  </symbol>
  <symbol id="move" viewBox="0 0 16 16">
      <path d="M8 0.499878L5.5 2.99988L6.205 3.70488L7.5 2.41488V6.49988C7.5 6.77602 7.72386 6.99988 8 6.99988C8.27614 6.99988 8.5 6.77602 8.5 6.49988V2.41488L9.795 3.70488L10.5 2.99988L8 0.499878Z"/>
      <path d="M9.795 12.2949L8.5 13.5849V9.49988C8.5 9.22374 8.27614 8.99988 8 8.99988C7.72386 8.99988 7.5 9.22374 7.5 9.49988V13.5849L6.205 12.2949L5.5 12.9999L8 15.4999L10.5 12.9999L9.795 12.2949Z"/>
      <path d="M0.5 7.99988L3 10.4999L3.705 9.79488L2.415 8.49988H6.5C6.77614 8.49988 7 8.27602 7 7.99988C7 7.72374 6.77614 7.49988 6.5 7.49988H2.415L3.705 6.20488L3 5.49988L0.5 7.99988Z"/>
      <path d="M12.295 6.20488L13.585 7.49988H9.5C9.22386 7.49988 9 7.72374 9 7.99988C9 8.27602 9.22386 8.49988 9.5 8.49988H13.585L12.295 9.79488L13 10.4999L15.5 7.99988L13 5.49988L12.295 6.20488Z"/>
  </symbol>
  <symbol id="union" viewBox="0 0 32 32" fill="none">
    <path d="M17 3H6C4.34315 3 3 4.34315 3 6V17C3 18.6569 4.34315 20 6 20H12V26C12 27.6569 13.3431 29 15 29H26C27.6569 29 29 27.6569 29 26V15C29 13.3431 27.6569 12 26 12H20V6C20 4.34315 18.6569 3 17 3Z" stroke="currentColor" stroke-width="2" stroke-linejoin="round"/>
  </symbol>
  <symbol id="divide" viewBox="0 0 32 32" fill="none">
    <path d="M3 6C3 4.34315 4.34315 3 6 3H17C18.6569 3 20 4.34315 20 6V10.5556V17C20 18.6569 18.6569 20 17 20H10.5556H6C4.34314 20 3 18.6569 3 17V6Z" stroke="currentColor" stroke-width="2"/>
    <path d="M12 15C12 13.3431 13.3431 12 15 12H26C27.6569 12 29 13.3431 29 15V26C29 27.6569 27.6569 29 26 29H15C13.3431 29 12 27.6569 12 26V15Z" stroke="currentColor" stroke-width="2"/>
  </symbol>
</svg>