<svg xmlns="http://www.w3.org/2000/svg" style="display: none;">
  <symbol id="table" viewBox="0 0 16 16">
    <path d="M1 1.8C1 1.51997 1 1.37996 1.0545 1.273C1.10243 1.17892 1.17892 1.10243 1.273 1.0545C1.37996 1 1.51997 1 1.8 1H14.2C14.48 1 14.62 1 14.727 1.0545C14.8211 1.10243 14.8976 1.17892 14.9455 1.273C15 1.37996 15 1.51997 15 1.8V2.2C15 2.48003 15 2.62004 14.9455 2.727C14.8976 2.82108 14.8211 2.89757 14.727 2.9455C14.62 3 14.48 3 14.2 3H1.8C1.51997 3 1.37996 3 1.273 2.9455C1.17892 2.89757 1.10243 2.82108 1.0545 2.727C1 2.62004 1 2.48003 1 2.2V1.8Z" />
    <path d="M1 13.8C1 13.52 1 13.38 1.0545 13.273C1.10243 13.1789 1.17892 13.1024 1.273 13.0545C1.37996 13 1.51997 13 1.8 13H14.2C14.48 13 14.62 13 14.727 13.0545C14.8211 13.1024 14.8976 13.1789 14.9455 13.273C15 13.38 15 13.52 15 13.8V14.2C15 14.48 15 14.62 14.9455 14.727C14.8976 14.8211 14.8211 14.8976 14.727 14.9455C14.62 15 14.48 15 14.2 15H1.8C1.51997 15 1.37996 15 1.273 14.9455C1.17892 14.8976 1.10243 14.8211 1.0545 14.727C1 14.62 1 14.48 1 14.2V13.8Z" />
    <path d="M1 9.8C1 9.51997 1 9.37996 1.0545 9.273C1.10243 9.17892 1.17892 9.10243 1.273 9.0545C1.37996 9 1.51997 9 1.8 9H14.2C14.48 9 14.62 9 14.727 9.0545C14.8211 9.10243 14.8976 9.17892 14.9455 9.273C15 9.37996 15 9.51997 15 9.8V10.2C15 10.48 15 10.62 14.9455 10.727C14.8976 10.8211 14.8211 10.8976 14.727 10.9455C14.62 11 14.48 11 14.2 11H1.8C1.51997 11 1.37996 11 1.273 10.9455C1.17892 10.8976 1.10243 10.8211 1.0545 10.727C1 10.62 1 10.48 1 10.2V9.8Z" />
    <path d="M1 5.8C1 5.51997 1 5.37996 1.0545 5.273C1.10243 5.17892 1.17892 5.10243 1.273 5.0545C1.37996 5 1.51997 5 1.8 5H14.2C14.48 5 14.62 5 14.727 5.0545C14.8211 5.10243 14.8976 5.17892 14.9455 5.273C15 5.37996 15 5.51997 15 5.8V6.2C15 6.48003 15 6.62004 14.9455 6.727C14.8976 6.82108 14.8211 6.89757 14.727 6.9455C14.62 7 14.48 7 14.2 7H1.8C1.51997 7 1.37996 7 1.273 6.9455C1.17892 6.89757 1.10243 6.82108 1.0545 6.727C1 6.62004 1 6.48003 1 6.2V5.8Z" />
  </symbol>
   <symbol id="list" viewBox="0 0 20 20">
    <path d="M5 3.75H18.75V5H5V3.75Z" />
    <path d="M5 9.375H18.75V10.625H5V9.375Z" />
    <path d="M5 15H18.75V16.25H5V15Z" />
    <path d="M1.25 3.75H3.125V5H1.25V3.75Z" />
    <path d="M1.25 9.375H3.125V10.625H1.25V9.375Z" />
    <path d="M1.25 15H3.125V16.25H1.25V15Z" />
  </symbol>
  <symbol id="card" viewBox="0 0 16 16">
    <path d="M1 2.6C1 2.03995 1 1.75992 1.10899 1.54601C1.20487 1.35785 1.35785 1.20487 1.54601 1.10899C1.75992 1 2.03995 1 2.6 1H5.4C5.96005 1 6.24008 1 6.45399 1.10899C6.64215 1.20487 6.79513 1.35785 6.89101 1.54601C7 1.75992 7 2.03995 7 2.6V3.4C7 3.96005 7 4.24008 6.89101 4.45399C6.79513 4.64215 6.64215 4.79513 6.45399 4.89101C6.24008 5 5.96005 5 5.4 5H2.6C2.03995 5 1.75992 5 1.54601 4.89101C1.35785 4.79513 1.20487 4.64215 1.10899 4.45399C1 4.24008 1 3.96005 1 3.4V2.6Z" />
    <path d="M9 2.6C9 2.03995 9 1.75992 9.10899 1.54601C9.20487 1.35785 9.35785 1.20487 9.54601 1.10899C9.75992 1 10.0399 1 10.6 1H13.4C13.9601 1 14.2401 1 14.454 1.10899C14.6422 1.20487 14.7951 1.35785 14.891 1.54601C15 1.75992 15 2.03995 15 2.6V3.4C15 3.96005 15 4.24008 14.891 4.45399C14.7951 4.64215 14.6422 4.79513 14.454 4.89101C14.2401 5 13.9601 5 13.4 5H10.6C10.0399 5 9.75992 5 9.54601 4.89101C9.35785 4.79513 9.20487 4.64215 9.10899 4.45399C9 4.24008 9 3.96005 9 3.4V2.6Z" />
    <path d="M1 7.6C1 7.03995 1 6.75992 1.10899 6.54601C1.20487 6.35785 1.35785 6.20487 1.54601 6.10899C1.75992 6 2.03995 6 2.6 6H5.4C5.96005 6 6.24008 6 6.45399 6.10899C6.64215 6.20487 6.79513 6.35785 6.89101 6.54601C7 6.75992 7 7.03995 7 7.6V8.4C7 8.96005 7 9.24008 6.89101 9.45399C6.79513 9.64215 6.64215 9.79513 6.45399 9.89101C6.24008 10 5.96005 10 5.4 10H2.6C2.03995 10 1.75992 10 1.54601 9.89101C1.35785 9.79513 1.20487 9.64215 1.10899 9.45399C1 9.24008 1 8.96005 1 8.4V7.6Z" />
    <path d="M9 7.6C9 7.03995 9 6.75992 9.10899 6.54601C9.20487 6.35785 9.35785 6.20487 9.54601 6.10899C9.75992 6 10.0399 6 10.6 6H13.4C13.9601 6 14.2401 6 14.454 6.10899C14.6422 6.20487 14.7951 6.35785 14.891 6.54601C15 6.75992 15 7.03995 15 7.6V8.4C15 8.96005 15 9.24008 14.891 9.45399C14.7951 9.64215 14.6422 9.79513 14.454 9.89101C14.2401 10 13.9601 10 13.4 10H10.6C10.0399 10 9.75992 10 9.54601 9.89101C9.35785 9.79513 9.20487 9.64215 9.10899 9.45399C9 9.24008 9 8.96005 9 8.4V7.6Z" />
    <path d="M1 12.6C1 12.0399 1 11.7599 1.10899 11.546C1.20487 11.3578 1.35785 11.2049 1.54601 11.109C1.75992 11 2.03995 11 2.6 11H5.4C5.96005 11 6.24008 11 6.45399 11.109C6.64215 11.2049 6.79513 11.3578 6.89101 11.546C7 11.7599 7 12.0399 7 12.6V13.4C7 13.9601 7 14.2401 6.89101 14.454C6.79513 14.6422 6.64215 14.7951 6.45399 14.891C6.24008 15 5.96005 15 5.4 15H2.6C2.03995 15 1.75992 15 1.54601 14.891C1.35785 14.7951 1.20487 14.6422 1.10899 14.454C1 14.2401 1 13.9601 1 13.4V12.6Z" />
    <path d="M9 12.6C9 12.0399 9 11.7599 9.10899 11.546C9.20487 11.3578 9.35785 11.2049 9.54601 11.109C9.75992 11 10.0399 11 10.6 11H13.4C13.9601 11 14.2401 11 14.454 11.109C14.6422 11.2049 14.7951 11.3578 14.891 11.546C15 11.7599 15 12.0399 15 12.6V13.4C15 13.9601 15 14.2401 14.891 14.454C14.7951 14.6422 14.6422 14.7951 14.454 14.891C14.2401 15 13.9601 15 13.4 15H10.6C10.0399 15 9.75992 15 9.54601 14.891C9.35785 14.7951 9.20487 14.6422 9.10899 14.454C9 14.2401 9 13.9601 9 13.4V12.6Z" />
  </symbol>
  <symbol id="timeline" viewBox="0 0 14 14">
    <rect x="6" y="1" width="7" height="2.5" rx="0.5" />
    <rect x="1" y="5.75" width="9" height="2.5" rx="0.5" />
    <rect x="4" y="10.5" width="9" height="2.5" rx="0.5" />
  </symbol>
  <symbol id="delete" viewBox="0 0 32 32">
    <path d="M12 23C12 23.5523 12.4477 24 13 24C13.5523 24 14 23.5523 14 23V13C14 12.4477 13.5523 12 13 12C12.4477 12 12 12.4477 12 13V23Z" />
    <path d="M20 23C20 23.5523 19.5523 24 19 24C18.4477 24 18 23.5523 18 23V13C18 12.4477 18.4477 12 19 12C19.5523 12 20 12.4477 20 13V23Z" />
    <path fill-rule="evenodd" clip-rule="evenodd" d="M15 2C13.3431 2 12 3.34315 12 5V6H5C4.44772 6 4 6.44772 4 7C4 7.55228 4.44772 8 5 8H6V26C6 28.2091 7.79086 30 10 30H22C24.2091 30 26 28.2091 26 26V8H27C27.5523 8 28 7.55228 28 7C28 6.44772 27.5523 6 27 6H20V5C20 3.34315 18.6569 2 17 2H15ZM18 6V5C18 4.44772 17.5523 4 17 4H15C14.4477 4 14 4.44772 14 5V6H18ZM8 26V8H24V26C24 27.1046 23.1046 28 22 28H10C8.89543 28 8 27.1046 8 26Z" />
  </symbol>
  <symbol id="move" viewBox="0 0 16 16">
    <path d="M8 0.499878L5.5 2.99988L6.205 3.70488L7.5 2.41488V6.49988C7.5 6.77602 7.72386 6.99988 8 6.99988C8.27614 6.99988 8.5 6.77602 8.5 6.49988V2.41488L9.795 3.70488L10.5 2.99988L8 0.499878Z" />
    <path d="M9.795 12.2949L8.5 13.5849V9.49988C8.5 9.22374 8.27614 8.99988 8 8.99988C7.72386 8.99988 7.5 9.22374 7.5 9.49988V13.5849L6.205 12.2949L5.5 12.9999L8 15.4999L10.5 12.9999L9.795 12.2949Z" />
    <path d="M0.5 7.99988L3 10.4999L3.705 9.79488L2.415 8.49988H6.5C6.77614 8.49988 7 8.27602 7 7.99988C7 7.72374 6.77614 7.49988 6.5 7.49988H2.415L3.705 6.20488L3 5.49988L0.5 7.99988Z" />
    <path d="M12.295 6.20488L13.585 7.49988H9.5C9.22386 7.49988 9 7.72374 9 7.99988C9 8.27602 9.22386 8.49988 9.5 8.49988H13.585L12.295 9.79488L13 10.4999L15.5 7.99988L13 5.49988L12.295 6.20488Z" />
  </symbol>
  <symbol id="more-h" viewBox="0 0 16 16">
    <path d="M8,6.6C7.2,6.6,6.6,7.2,6.6,8c0,0.8,0.6,1.4,1.4,1.4S9.4,8.8,9.4,8C9.4,7.2,8.8,6.6,8,6.6z" />
    <path d="M3.2,6.6C2.4,6.6,1.8,7.2,1.8,8c0,0.8,0.6,1.4,1.4,1.4S4.6,8.8,4.6,8C4.6,7.2,4,6.6,3.2,6.6z" />
    <path d="M12.8,6.6c-0.8,0-1.4,0.6-1.4,1.4c0,0.8,0.6,1.4,1.4,1.4s1.4-0.6,1.4-1.4C14.2,7.2,13.6,6.6,12.8,6.6z" />
  </symbol>
  <symbol id="archive" viewBox="0 0 32 32">
    <path fill-rule="evenodd" clip-rule="evenodd" d="M2 8C2 5.79086 3.79086 4 6 4H26C28.2091 4 30 5.79086 30 8V11C30 11.5523 29.5523 12 29 12H28V26C28 28.2091 26.2091 30 24 30H8C5.79086 30 4 28.2091 4 26V12H3C2.44772 12 2 11.5523 2 11V8ZM4 10H28V8C28 6.89543 27.1046 6 26 6H6C4.89543 6 4 6.89543 4 8V10ZM6 12V26C6 27.1046 6.89543 28 8 28H24C25.1046 28 26 27.1046 26 26V12H6ZM10 16C10 15.4477 10.4477 15 11 15H21C21.5523 15 22 15.4477 22 16V17C22 19.2091 20.2091 21 18 21H14C11.7909 21 10 19.2091 10 17V16ZM12 17C12 18.1046 12.8954 19 14 19H18C19.1046 19 20 18.1046 20 17H12Z" />
  </symbol>
  <symbol id="statuses" viewBox="0 0 32 32">
    <path fill-rule="evenodd" clip-rule="evenodd" d="M19.1058 4.4089C16.5542 3.7252 13.8484 3.90255 11.4078 4.91345C8.96729 5.92435 6.92852 7.7123 5.60772 10C4.28691 12.2877 3.75788 14.9473 4.10268 17.5663C4.44748 20.1853 5.64684 22.6174 7.51474 24.4853C9.38264 26.3532 11.8147 27.5525 14.4337 27.8973C17.0527 28.2421 19.7123 27.7131 22 26.3923C24.2877 25.0715 26.0757 23.0327 27.0866 20.5922C28.0975 18.1517 28.2748 15.4458 27.5911 12.8942C27.4482 12.3607 27.7648 11.8124 28.2982 11.6694C28.8317 11.5265 29.38 11.8431 29.523 12.3765C30.3206 15.3534 30.1137 18.5103 28.9343 21.3576C27.7549 24.2049 25.669 26.5834 23 28.1244C20.331 29.6653 17.2282 30.2825 14.1727 29.8802C11.1171 29.478 8.27974 28.0787 6.10052 25.8995C3.92131 23.7203 2.52206 20.8829 2.11979 17.8274C1.71753 14.7719 2.33473 11.669 3.87567 9C5.41661 6.33102 7.79517 4.24507 10.6425 3.06569C13.4897 1.88631 16.6466 1.67939 19.6235 2.47704C20.157 2.61999 20.4735 3.16832 20.3306 3.70179C20.1877 4.23526 19.6393 4.55184 19.1058 4.4089Z" />
    <path fill-rule="evenodd" clip-rule="evenodd" d="M26 8.00001C27.1046 8.00001 28 7.10457 28 6.00001C28 4.89544 27.1046 4.00001 26 4.00001C24.8955 4.00001 24 4.89544 24 6.00001C24 7.10457 24.8955 8.00001 26 8.00001ZM26 10C28.2092 10 30 8.20914 30 6.00001C30 3.79087 28.2092 2.00001 26 2.00001C23.7909 2.00001 22 3.79087 22 6.00001C22 8.20914 23.7909 10 26 10Z" />
  </symbol>
  <symbol id="open" viewBox="0 0 32 32">
    <path d="M20 2V4H26.586L18.293 12.2929C17.9024 12.6834 17.9024 13.3166 18.293 13.7071C18.6835 14.0976 19.3167 14.0976 19.7072 13.7071L28 5.414V12H30V2H20Z" />
    <path d="M13.7073 19.7071C14.0978 19.3166 14.0978 18.6834 13.7073 18.2929C13.3167 17.9024 12.6836 17.9024 12.293 18.2929L4 26.586V20H2V30H12V28H5.414L13.7073 19.7071Z" />
  </symbol>
  <symbol id="edit" viewBox="0 0 32 32">
    <path d="M16 29C16 28.4477 16.4477 28 17 28H29C29.5523 28 30 28.4477 30 29C30 29.5523 29.5523 30 29 30H17C16.4477 30 16 29.5523 16 29Z" />
    <path fill-rule="evenodd" clip-rule="evenodd" d="M25.1214 2.87868C23.9498 1.70711 22.0503 1.70711 20.8787 2.87868L2.87868 20.8787C2.31607 21.4413 2 22.2044 2 23V29C2 29.5523 2.44772 30 3 30H9.00004C9.79568 30 10.5587 29.6839 11.1214 29.1213L29.1214 11.1213C30.2929 9.94975 30.2929 8.05025 29.1214 6.87868L25.1214 2.87868ZM22.2929 4.29289C22.6835 3.90237 23.3166 3.90237 23.7071 4.29289L27.7071 8.29289C28.0977 8.68342 28.0977 9.31658 27.7071 9.70711L23.9143 13.5L18.5001 8.08574L22.2929 4.29289ZM17.0859 9.49996L4.29289 22.2929C4.10536 22.4805 4 22.7348 4 23V28H9.00004C9.26525 28 9.51961 27.8946 9.70714 27.7071L22.5001 14.9142L17.0859 9.49996Z" />
  </symbol>
  <symbol id="copyId" viewBox="0 0 16 16">
    <path d="M5 7C4.72386 7 4.5 7.22386 4.5 7.5C4.5 7.77614 4.72386 8 5 8H11C11.2761 8 11.5 7.77614 11.5 7.5C11.5 7.22386 11.2761 7 11 7H5Z" />
    <path d="M4.5 9.5C4.5 9.22386 4.72386 9 5 9H9C9.27614 9 9.5 9.22386 9.5 9.5C9.5 9.77614 9.27614 10 9 10H5C4.72386 10 4.5 9.77614 4.5 9.5Z" />
    <path d="M5 11C4.72386 11 4.5 11.2239 4.5 11.5C4.5 11.7761 4.72386 12 5 12H8C8.27614 12 8.5 11.7761 8.5 11.5C8.5 11.2239 8.27614 11 8 11H5Z" />
    <path fill-rule="evenodd" clip-rule="evenodd" d="M9.5 1C10.1531 1 10.7087 1.4174 10.9146 2H11.5C12.6046 2 13.5 2.89543 13.5 4V13C13.5 14.1046 12.6046 15 11.5 15H4.5C3.39543 15 2.5 14.1046 2.5 13V4C2.5 2.89543 3.39543 2 4.5 2H5.08535C5.29127 1.4174 5.84689 1 6.5 1H9.5ZM6 2.5C6 2.22386 6.22386 2 6.5 2H9.5C9.77614 2 10 2.22386 10 2.5C10 2.77614 9.77614 3 9.5 3H6.5C6.22386 3 6 2.77614 6 2.5ZM9.5 4C10.1531 4 10.7087 3.5826 10.9146 3H11.5C12.0523 3 12.5 3.44772 12.5 4V13C12.5 13.5523 12.0523 14 11.5 14H4.5C3.94772 14 3.5 13.5523 3.5 13V4C3.5 3.44772 3.94772 3 4.5 3H5.08535C5.29127 3.5826 5.84689 4 6.5 4H9.5Z" />
  </symbol>
  <symbol id="copyLink" viewBox="0 0 32 32">
    <path d="M29.25 6.75997C28.6926 6.20061 28.0302 5.75679 27.3009 5.45396C26.5716 5.15112 25.7897 4.99524 25 4.99524C24.2103 4.99524 23.4284 5.15112 22.6991 5.45396C22.278 5.62881 21.8792 5.85065 21.5101 6.1146C21.0614 6.43545 21.0693 7.07931 21.4594 7.46935C21.8499 7.85988 22.4827 7.84994 22.9575 7.5679C23.1218 7.47029 23.2933 7.38434 23.4707 7.31086C23.9571 7.10938 24.4785 7.00567 25.005 7.00567C25.5315 7.00567 26.0528 7.10938 26.5393 7.31086C27.0257 7.51235 27.4677 7.80767 27.84 8.17997C28.2123 8.55227 28.5076 8.99425 28.7091 9.48068C28.9106 9.96711 29.0143 10.4885 29.0143 11.015C29.0143 11.5415 28.9106 12.0628 28.7091 12.5493C28.5076 13.0357 28.2123 13.4777 27.84 13.85L19.84 21.85C19.0894 22.6019 18.0709 23.0248 17.0085 23.0257C15.9461 23.0267 14.9269 22.6055 14.175 21.855C13.4231 21.1044 13.0001 20.0859 12.9992 19.0235C12.9983 17.9611 13.4194 16.9419 14.17 16.19L14.8803 15.4746C15.2675 15.0846 15.2659 14.4537 14.8787 14.0637C14.4886 13.6709 13.8519 13.6681 13.4604 14.0596L12.75 14.77C12.1906 15.3274 11.7468 15.9897 11.444 16.7191C11.1411 17.4484 10.9852 18.2303 10.9852 19.02C10.9852 19.8097 11.1411 20.5916 11.444 21.3209C11.7468 22.0502 12.1906 22.7125 12.75 23.27C13.8815 24.387 15.41 25.0092 17 25C17.7927 25.0032 18.5782 24.8494 19.3111 24.5473C20.044 24.2452 20.7098 23.8009 21.27 23.24L29.27 15.24C30.3909 14.1123 31.0184 12.5858 31.0147 10.9958C31.0109 9.40582 30.3762 7.88232 29.25 6.75997Z" />
    <path d="M4.18997 24.82C3.81656 24.4483 3.52026 24.0065 3.31807 23.52C3.11589 23.0335 3.01181 22.5118 3.01181 21.985C3.01181 21.4581 3.11589 20.9365 3.31807 20.4499C3.52026 19.9634 3.81656 19.5216 4.18997 19.15L12.19 11.15C12.5616 10.7766 13.0034 10.4803 13.4899 10.2781C13.9765 10.0759 14.4981 9.97181 15.025 9.97181C15.5518 9.97181 16.0735 10.0759 16.56 10.2781C17.0465 10.4803 17.4883 10.7766 17.86 11.15C18.231 11.5246 18.5231 11.9698 18.7189 12.4594C18.9147 12.9489 19.0103 13.4728 19 14C19.003 14.5288 18.9012 15.0529 18.7004 15.5421C18.4995 16.0313 18.2037 16.4758 17.83 16.85L16.4072 18.2929C16.0213 18.6842 16.0289 19.3189 16.4175 19.7075C16.808 20.098 17.4466 20.1034 17.8371 19.7129L19.25 18.3C20.3785 17.1715 21.0124 15.6409 21.0124 14.045C21.0124 12.449 20.3785 10.9185 19.25 9.78997C18.1215 8.66147 16.5909 8.02749 14.995 8.02749C13.399 8.02749 11.8685 8.66147 10.74 9.78997L2.73997 17.79C2.17911 18.3476 1.73401 19.0106 1.43029 19.7408C1.12657 20.471 0.970215 21.2541 0.970215 22.045C0.970215 22.8358 1.12657 23.6189 1.43029 24.3492C1.73401 25.0794 2.17911 25.7424 2.73997 26.3C3.87879 27.4084 5.41087 28.0198 6.99997 28C8.26594 28.0012 9.49169 27.6069 10.5118 26.885C10.964 26.5651 10.961 25.921 10.5693 25.5293C10.1781 25.1381 9.54699 25.1518 9.0717 25.4348C8.90786 25.5324 8.73689 25.6184 8.56 25.6919C8.07349 25.8941 7.55182 25.9981 7.02497 25.9981C6.49812 25.9981 5.97645 25.8941 5.48994 25.6919C5.00342 25.4897 4.56164 25.1934 4.18997 24.82Z" />
  </symbol>

  <symbol id="arrow-right" viewBox="0 0 16 16">
    <path d="M13.334 8L13.6875 7.64645L14.0411 8L13.6875 8.35355L13.334 8ZM3.33398 8.5C3.05784 8.5 2.83398 8.27614 2.83398 8C2.83398 7.72386 3.05784 7.5 3.33398 7.5V8.5ZM9.68754 3.64645L13.6875 7.64645L12.9804 8.35355L8.98043 4.35355L9.68754 3.64645ZM13.6875 8.35355L9.68754 12.3536L8.98043 11.6464L12.9804 7.64645L13.6875 8.35355ZM13.334 8.5H3.33398V7.5H13.334V8.5Z"/>
  </symbol>
  <symbol id="setting" viewBox="0 0 24 24">
    <g>
      <path d="M12,16.9c2.7,0,4.9-2.2,4.9-4.9S14.7,7.1,12,7.1S7.1,9.3,7.1,12S9.3,16.9,12,16.9z M12,8.7c1.8,0,3.3,1.5,3.3,3.3 s-1.5,3.3-3.3,3.3S8.7,13.8,8.7,12S10.2,8.7,12,8.7z"/>
      <path d="M23,10.8L23,10.8c0-0.2,0-0.4-0.1-0.6c-0.2-0.4-0.5-0.7-0.8-0.9c-0.2-0.1-0.3-0.1-0.5-0.2c-0.2,0-0.3,0-0.6-0.1C20.5,9,20.2,9,20,8.9c-0.1,0-0.2,0-0.2,0c-0.1-0.1-0.1-0.1-0.1-0.2c0,0,0-0.1,0.1-0.2c0.1-0.2,0.3-0.4,0.6-0.7c0.1-0.2,0.2-0.3,0.3-0.4c0.1-0.1,0.1-0.2,0.2-0.3l0,0L21,6.8c0,0,0,0,0,0l0.1-0.2l0,0c0.1-0.3,0-0.7-0.1-1c-0.1-0.2-0.2-0.4-0.3-0.5c-0.1-0.1-0.2-0.2-0.4-0.4l-0.9-0.9c-0.1-0.1-0.3-0.3-0.4-0.4c-0.1-0.1-0.3-0.2-0.5-0.3C18,2.9,17.6,2.9,17.2,3C17,3,16.9,3.1,16.7,3.3c-0.1,0.1-0.3,0.2-0.4,0.3l-0.1,0c-0.3,0.3-0.5,0.4-0.7,0.6c-0.1,0.1-0.2,0.1-0.2,0.1c-0.1,0-0.2,0-0.2-0.1c0,0,0,0-0.1-0.2C15,3.8,15,3.5,15,3.1l0-0.1c0-0.2,0-0.4-0.1-0.5c0-0.2-0.1-0.4-0.2-0.5c-0.2-0.4-0.5-0.7-0.9-0.8C13.6,1,13.4,1,13.2,1c-0.2,0-0.4,0-0.6,0h-1.3c-0.2,0-0.4,0-0.6,0c-0.1,0-0.3,0-0.6,0.1C9.8,1.3,9.5,1.6,9.3,2C9.2,2.1,9.2,2.3,9.1,2.5c0,0.2,0,0.3-0.1,0.6C9,3.5,9,3.8,8.9,4c0,0.1,0,0.2,0,0.2c0,0,0,0,0,0C8.8,4.3,8.8,4.3,8.7,4.3c0,0-0.1,0-0.2-0.1C8.3,4.1,8.1,3.9,7.8,3.6C7.6,3.5,7.5,3.3,7.3,3.3C7.2,3.2,7,3.1,6.8,3C6.4,2.9,6,2.9,5.6,3.1C5.4,3.1,5.2,3.3,5.1,3.4C5,3.5,4.8,3.6,4.7,3.8L3.8,4.7C3.6,4.8,3.5,5,3.4,5.1C3.3,5.2,3.1,5.4,3.1,5.6C2.9,6,2.9,6.4,3,6.8C3.1,7,3.2,7.2,3.3,7.3c0.1,0.1,0.2,0.3,0.4,0.5c0.3,0.3,0.4,0.5,0.6,0.7c0.1,0.1,0.1,0.2,0.1,0.2c0,0.1,0,0.2-0.1,0.2c0,0,0,0-0.2,0.1C3.8,9,3.5,9,3.1,9.1c-0.2,0-0.4,0-0.6,0.1c-0.1,0-0.2,0-0.3,0.1l0,0L2,9.3c0,0,0,0,0,0L1.7,9.4l0,0c-0.3,0.2-0.5,0.5-0.6,0.8C1,10.4,1,10.6,1,10.8c0,0.2,0,0.4,0,0.6v1.3c0,0.2,0,0.4,0,0.6c0,0.1,0,0.3,0.1,0.6c0.2,0.4,0.5,0.7,0.8,0.9c0.2,0.1,0.3,0.1,0.5,0.2c0.1,0,0.3,0,0.5,0.1l0.1,0C3.5,15,3.8,15,4,15.1c0.1,0,0.2,0,0.2,0c0.1,0.1,0.1,0.1,0.1,0.2c0,0,0,0.1-0.1,0.2c-0.1,0.2-0.3,0.4-0.6,0.7l0,0.1c-0.1,0.2-0.2,0.3-0.3,0.4C3.1,16.9,3,17,3,17.2c-0.1,0.4-0.1,0.9,0.1,1.3c0.1,0.2,0.2,0.4,0.3,0.5c0.1,0.1,0.2,0.2,0.4,0.4l0.9,0.9c0.2,0.2,0.3,0.3,0.4,0.4c0.1,0.1,0.3,0.2,0.5,0.3C6,21.1,6.4,21.1,6.8,21c0.2-0.1,0.4-0.2,0.5-0.3c0.1-0.1,0.3-0.2,0.5-0.4c0.3-0.3,0.5-0.4,0.7-0.6c0.1-0.1,0.2-0.1,0.2-0.1c0.1,0,0.2,0,0.2,0.1c0,0,0,0,0.1,0.2c0,0.2,0.1,0.5,0.1,0.9c0,0.2,0,0.4,0.1,0.6c0,0.2,0.1,0.4,0.2,0.5c0.2,0.4,0.5,0.7,0.9,0.8c0.2,0.1,0.4,0.1,0.6,0.1c0.2,0,0.4,0,0.6,0h1.3c0.2,0,0.4,0,0.6,0c0.1,0,0.3,0,0.6-0.1c0.4-0.2,0.7-0.5,0.9-0.8c0.1-0.2,0.1-0.4,0.2-0.5c0-0.1,0-0.3,0.1-0.5l0-0.1c0-0.4,0.1-0.7,0.1-0.9c0-0.1,0-0.2,0-0.2c0.1-0.1,0.1-0.1,0.2-0.1c0,0,0.1,0,0.2,0.1c0.2,0.1,0.4,0.3,0.7,0.5l0.1,0.1c0.2,0.1,0.3,0.2,0.4,0.3c0.1,0.1,0.3,0.2,0.5,0.3c0.4,0.1,0.9,0.1,1.3-0.1c0.2-0.1,0.4-0.2,0.5-0.3c0.1-0.1,0.3-0.2,0.4-0.4l0.9-0.9c0.1-0.1,0.3-0.3,0.4-0.4c0.1-0.1,0.2-0.3,0.3-0.5c0.2-0.4,0.2-0.8,0.1-1.3c-0.1-0.2-0.1-0.3-0.3-0.5c-0.1-0.1-0.2-0.3-0.4-0.5c-0.3-0.3-0.4-0.5-0.6-0.7c-0.1-0.1-0.1-0.2-0.1-0.2c0-0.1,0-0.2,0.1-0.2c0,0,0,0,0.2-0.1c0.2,0,0.5-0.1,0.9-0.1c0.2,0,0.4,0,0.6-0.1c0.1,0,0.3-0.1,0.5-0.2c0.4-0.2,0.7-0.5,0.8-0.9c0.1-0.2,0.1-0.4,0.1-0.6c0-0.2,0-0.4,0-0.6v-1.3C23,11.1,23,10.9,23,10.8z M2.5,13.1c0-0.1,0-0.3,0-0.5v-1.3c0-0.2,0-0.4,0-0.5c0-0.1,0-0.1,0-0.1c0,0,0,0,0,0c0-0.1,0.1-0.1,0.1-0.1c0,0,0,0,0.1,0c0.1,0,0.2,0,0.5-0.1c0.4,0,0.8-0.1,1-0.1c0.3,0,0.6-0.1,0.8-0.3c0.5-0.4,0.8-1,0.7-1.7c0-0.3-0.2-0.6-0.4-0.8C5.3,7.4,5.1,7.1,4.8,6.8C4.7,6.6,4.6,6.5,4.5,6.4c0-0.1-0.1-0.1-0.1-0.1c0-0.1,0-0.1,0-0.2c0,0,0,0,0.1-0.1C4.6,6,4.7,5.9,4.9,5.8l0.9-0.9C5.9,4.7,6,4.6,6.1,4.5c0.1,0,0.1-0.1,0.1-0.1c0,0,0,0,0,0c0.1,0,0.1,0,0.2,0c0,0,0,0,0.1,0.1c0.1,0.1,0.2,0.2,0.4,0.3c0.3,0.3,0.6,0.5,0.8,0.6c0.2,0.1,0.5,0.3,0.8,0.4c0.6,0.1,1.3-0.2,1.7-0.7c0.2-0.3,0.3-0.6,0.3-0.8c0-0.3,0.1-0.6,0.1-1c0-0.2,0-0.4,0.1-0.5c0-0.1,0-0.1,0-0.1c0,0,0,0,0,0c0-0.1,0.1-0.1,0.1-0.1c0,0,0,0,0.1,0c0.1,0,0.2,0,0.5,0h1.3c0.2,0,0.4,0,0.5,0c0.1,0,0.1,0,0.1,0c0.1,0,0.1,0.1,0.1,0.1c0,0,0,0,0,0.1c0,0.1,0,0.2,0.1,0.5c0,0.4,0.1,0.8,0.1,1c0,0.3,0.1,0.6,0.3,0.8c0.4,0.5,1,0.8,1.7,0.7c0.3,0,0.6-0.2,0.8-0.4c0.2-0.2,0.5-0.4,0.8-0.6c0.2-0.1,0.3-0.2,0.4-0.3c0.1,0,0.1-0.1,0.1-0.1c0.1,0,0.1,0,0.2,0c0,0,0,0,0.1,0.1c0.1,0.1,0.2,0.2,0.3,0.3l0.9,0.9c0.2,0.2,0.3,0.3,0.3,0.3c0,0.1,0.1,0.1,0.1,0.1c0,0.1,0,0.1,0,0.2c0,0,0,0-0.1,0.1c-0.1,0.1-0.2,0.2-0.3,0.4c-0.3,0.3-0.5,0.6-0.6,0.8c-0.1,0.2-0.3,0.5-0.4,0.8c-0.1,0.6,0.2,1.3,0.7,1.7c0.3,0.2,0.6,0.3,0.8,0.3c0.3,0,0.6,0.1,1,0.1c0.2,0,0.4,0,0.5,0.1c0.1,0,0.1,0,0.1,0c0,0,0,0,0,0c0.1,0,0.1,0.1,0.1,0.1c0,0,0,0,0,0.1c0,0.1,0,0.3,0,0.5v1.3c0,0.2,0,0.4,0,0.5c0,0.1,0,0.1,0,0.1c0,0.1-0.1,0.1-0.1,0.1c0,0,0,0-0.1,0c-0.1,0-0.2,0-0.5,0.1c-0.4,0-0.7,0.1-1,0.1c-0.3,0-0.6,0.1-0.8,0.3c-0.5,0.4-0.8,1-0.7,1.7c0,0.3,0.2,0.6,0.4,0.8c0.2,0.2,0.4,0.5,0.6,0.8c0.1,0.2,0.2,0.3,0.3,0.4c0,0.1,0.1,0.1,0.1,0.1c0,0.1,0,0.1,0,0.2c0,0,0,0-0.1,0.1c-0.1,0.1-0.2,0.2-0.3,0.3l-0.9,0.9c-0.2,0.2-0.3,0.3-0.3,0.3c0,0-0.1,0.1-0.1,0.1c-0.1,0-0.1,0-0.2,0c0,0,0,0-0.1-0.1c-0.1-0.1-0.2-0.2-0.4-0.3c-0.3-0.3-0.6-0.5-0.8-0.6c-0.2-0.1-0.5-0.3-0.8-0.4c-0.6-0.1-1.3,0.2-1.7,0.7c-0.2,0.3-0.3,0.6-0.3,0.8c0,0.3-0.1,0.6-0.1,1c0,0.2,0,0.4-0.1,0.5c0,0.1,0,0.1,0,0.1c0,0.1-0.1,0.1-0.1,0.1c0,0,0,0-0.1,0c-0.1,0-0.2,0-0.5,0h-1.3c-0.2,0-0.4,0-0.5,0c-0.1,0-0.1,0-0.1,0c-0.1,0-0.1-0.1-0.1-0.1c0,0,0,0,0-0.1c0-0.1,0-0.2-0.1-0.5c0-0.4-0.1-0.8-0.1-1c0-0.3-0.1-0.6-0.3-0.8c-0.4-0.5-1-0.8-1.7-0.7c-0.3,0-0.6,0.2-0.8,0.4c-0.2,0.1-0.5,0.4-0.8,0.6c-0.2,0.1-0.3,0.2-0.4,0.3c-0.1,0-0.1,0.1-0.1,0.1c-0.1,0-0.1,0-0.2,0c0,0,0,0-0.1-0.1c-0.1-0.1-0.2-0.2-0.3-0.3l-0.9-0.9c-0.2-0.2-0.3-0.3-0.3-0.3c0-0.1-0.1-0.1-0.1-0.1c0-0.1,0-0.1,0-0.2c0,0,0,0,0.1-0.1c0.1-0.1,0.2-0.2,0.3-0.4c0.3-0.3,0.5-0.6,0.6-0.8c0.1-0.2,0.3-0.5,0.4-0.8c0.1-0.6-0.2-1.3-0.7-1.7c-0.3-0.2-0.6-0.3-0.8-0.3c-0.3,0-0.6-0.1-1-0.1c-0.2,0-0.4,0-0.5-0.1c-0.1,0-0.1,0-0.1,0C2.6,13.3,2.6,13.3,2.5,13.1C2.6,13.2,2.5,13.2,2.5,13.1z M14.7,3.1C14.7,3.1,14.7,3.1,14.7,3.1L14.7,3.1L14.7,3.1z M3.1,14.7C3.1,14.7,3.1,14.7,3.1,14.7L3.1,14.7L3.1,14.7z M3.8,16.4C3.8,16.4,3.8,16.4,3.8,16.4L3.8,16.4L3.8,16.4zM14.7,20.9L14.7,20.9L14.7,20.9L14.7,20.9z"/>
    </g>
  </symbol>
  <symbol id="views" viewBox="0 0 16 16">
    <path d="M12.6541 10.7952L14.7544 11.6213C14.8576 11.6618 14.9394 11.7434 14.9801 11.8466C15.0511 12.0264 14.9828 12.2268 14.827 12.3284L14.755 12.3656L8.35645 14.8924C8.15935 14.9703 7.94372 14.9831 7.74052 14.9309L7.62035 14.8918L1.25259 12.3653C1.1499 12.3246 1.06864 12.2432 1.02806 12.1404C0.957068 11.9607 1.02536 11.7603 1.1812 11.6587L1.25319 11.6215L3.34307 10.7962L7.06917 12.2751C7.65895 12.5091 8.31525 12.5097 8.9054 12.2766L12.6541 10.7952ZM12.6541 6.77688L14.7544 7.60289C14.8576 7.64346 14.9394 7.72508 14.9801 7.82824C15.0511 8.00803 14.9828 8.20839 14.827 8.31004L14.755 8.3472L10.6001 9.98825L9.619 10.375L8.35645 10.8741L8.317 10.886L8.23566 10.9132C8.20301 10.9215 8.17004 10.9282 8.13688 10.9331C8.12585 10.9346 8.11547 10.936 8.10507 10.9372C8.02541 10.9468 7.94422 10.9464 7.86397 10.9363L7.74052 10.9126L7.62035 10.8735L6.391 10.385L5.38907 9.98825L1.25259 8.34697C1.1499 8.30623 1.06864 8.22483 1.02806 8.12208C0.957068 7.94229 1.02536 7.74192 1.1812 7.64029L1.25319 7.60312L3.34307 6.77788L7.06917 8.25677C7.65895 8.49078 8.31525 8.4913 8.9054 8.25824L12.6541 6.77688ZM7.62186 1.06989C7.85734 0.976906 8.11932 0.976697 8.35494 1.06931L14.7544 3.58452C14.8576 3.62509 14.9394 3.70671 14.9801 3.80987C15.0612 4.01534 14.9605 4.24769 14.755 4.32884L10.6001 5.96988L8.35565 6.856L8.27468 6.88396C8.25405 6.8901 8.23326 6.89557 8.21236 6.90036C8.09824 6.92674 7.98013 6.93258 7.86397 6.91788L7.74052 6.89419L7.62035 6.8551L1.25259 4.3286C1.1499 4.28786 1.06864 4.20646 1.02806 4.10371C0.946925 3.89823 1.04772 3.66589 1.25319 3.58475L7.62186 1.06989Z"/>
  </symbol>
  <symbol id="pin" viewBox="0 0 32 32">
    <path fill-rule="evenodd" clip-rule="evenodd" d="M21.7071 2.29289C21.3166 1.90237 20.6834 1.90237 20.2929 2.29289C19.9024 2.68342 19.9024 3.31658 20.2929 3.70711L20.5858 4L14.9628 9.623C14.7214 9.86439 14.394 10 14.0526 10H13.2426C10.2609 10 7.4013 11.1845 5.29289 13.2929C4.90237 13.6834 4.90237 14.3166 5.29289 14.7071L10.5859 20.0001L2 28.5859V30H3.41436L12.0001 21.4143L17.2929 26.7071C17.6834 27.0976 18.3166 27.0976 18.7071 26.7071C20.8155 24.5987 22 21.7391 22 18.7574V17.9474C22 17.606 22.1356 17.2786 22.377 17.0372L28 11.4142L28.2929 11.7071C28.6834 12.0976 29.3166 12.0976 29.7071 11.7071C30.0976 11.3166 30.0976 10.6834 29.7071 10.2929L21.7071 2.29289ZM16.377 11.0372L22 5.41421L26.5858 10L20.9628 15.623C20.3463 16.2395 20 17.0756 20 17.9474V18.7574C20 20.873 19.2746 22.9139 17.9617 24.5474L7.45256 14.0383C9.08614 12.7254 11.127 12 13.2426 12H14.0526C14.9244 12 15.7605 11.6537 16.377 11.0372Z" />
  </symbol>
  <symbol id="model" viewBox="0 0 24 24">
    <path d="M17.2,7.8h3.6c1.1,0,2-0.9,2-2V4.2c0-1.1-0.9-2-2-2h-3.6c-1.1,0-2,0.9-2,2v0H9.8V4c0-1.5-1.2-2.8-2.8-2.8H4 C2.5,1.2,1.2,2.5,1.2,4v2c0,1.5,1.2,2.8,2.8,2.8h3c1.5,0,2.8-1.2,2.8-2.8V5.8h2V18c0,1.5,1.2,2.8,2.8,2.8h0.8v0c0,1.1,0.9,2,2,2h3.6 c1.1,0,2-0.9,2-2v-1.6c0-1.1-0.9-2-2-2h-3.6c-1.1,0-2,0.9-2,2v0h-0.8c-0.7,0-1.2-0.6-1.2-1.2v-4.8h2v0c0,1.1,0.9,2,2,2h3.6 c1.1,0,2-0.9,2-2v-1.6c0-1.1-0.9-2-2-2h-3.6c-1.1,0-2,0.9-2,2v0h-2v-6h2v0C15.2,6.9,16.1,7.8,17.2,7.8z M8.2,6 c0,0.7-0.6,1.2-1.2,1.2H4C3.3,7.2,2.8,6.7,2.8,6V4c0-0.7,0.6-1.2,1.2-1.2h3c0.7,0,1.2,0.6,1.2,1.2V6z M16.8,19.2 c0-0.2,0.2-0.5,0.5-0.5h3.6c0.2,0,0.5,0.2,0.5,0.5v1.6c0,0.2-0.2,0.5-0.5,0.5h-3.6c-0.2,0-0.5-0.2-0.5-0.5V19.2z M16.8,11.7 c0-0.2,0.2-0.5,0.5-0.5h3.6c0.2,0,0.5,0.2,0.5,0.5v1.6c0,0.2-0.2,0.5-0.5,0.5h-3.6c-0.2,0-0.5-0.2-0.5-0.5V11.7z M16.8,4.2 c0-0.2,0.2-0.5,0.5-0.5h3.6c0.2,0,0.5,0.2,0.5,0.5v1.6c0,0.2-0.2,0.5-0.5,0.5h-3.6c-0.2,0-0.5-0.2-0.5-0.5V4.2z" />
  </symbol>
  <symbol id="devmodel" viewBox="0 0 32 32">
    <polygon points="10,8 2,16 10,24 11.4,22.6 4.8,16 11.4,9.4 " />
    <polygon points="22,8 20.6,9.4 27.2,16 20.6,22.6 22,24 30,16 " />
  </symbol>
  <symbol id="viewButton" viewBox="0 0 16 16">
    <path d="M10.5,5.5c-0.3-2.2-2.2-4-4.5-4c-2.5,0-4.5,2.1-4.5,4.5c0,2.3,1.8,4.2,4,4.5c0.3,2.2,2.2,4,4.5,4c2.5,0,4.5-2.1,4.5-4.5C14.6,7.6,12.7,5.8,10.5,5.5z M2.5,6C2.5,4,4,2.5,6,2.5c1.8,0,3.3,1.4,3.4,3.1c-2.1,0.2-3.7,1.8-4,3.9C3.8,9.2,2.5,7.7,2.5,6z M10,13.5c-2,0-3.5-1.5-3.5-3.5S8,6.4,10,6.4S13.5,8,13.5,10S12,13.5,10,13.5z" />
  </symbol>
  <symbol id="filter" viewBox="0 0 24 24">
    <path fill-rule="evenodd" clip-rule="evenodd" d="M2.3,4.2C2.4,3.9,2.7,3.8,3,3.8h18c0.3,0,0.6,0.2,0.7,0.4c0.1,0.3,0.1,0.6-0.1,0.8l-7,8.2V21c0,0.3-0.1,0.5-0.4,0.6c-0.2,0.1-0.5,0.2-0.7,0l-3.6-1.8c-0.3-0.1-0.4-0.4-0.4-0.7v-6L2.4,5C2.2,4.8,2.2,4.5,2.3,4.2z M4.6,5.2l6.1,7.2c0.1,0.1,0.2,0.3,0.2,0.5v5.8l2.1,1v-6.9c0-0.2,0.1-0.4,0.2-0.5l6.1-7.2H4.6z" />
  </symbol>
  <symbol id="configure" viewBox="0 0 16 16">
    <path d="M15 4.5C15 4.22386 14.7761 4 14.5 4H12.95C12.7 2.85 11.7 2 10.5 2C9.3 2 8.3 2.85 8.05 4H1.5C1.22386 4 1 4.22386 1 4.5C1 4.77614 1.22386 5 1.5 5H8.05C8.3 6.15 9.3 7 10.5 7C11.7 7 12.7 6.15 12.95 5H14.5C14.7761 5 15 4.77614 15 4.5ZM10.5 6C9.65 6 9 5.35 9 4.5C9 3.65 9.65 3 10.5 3C11.35 3 12 3.65 12 4.5C12 5.35 11.35 6 10.5 6Z"/>
    <path d="M1 11.5C1 11.7761 1.22386 12 1.5 12H3.05C3.3 13.15 4.3 14 5.5 14C6.7 14 7.7 13.15 7.95 12H14.5C14.7761 12 15 11.7761 15 11.5C15 11.2239 14.7761 11 14.5 11H7.95C7.7 9.85 6.7 9 5.5 9C4.3 9 3.3 9.85 3.05 11H1.5C1.22386 11 1 11.2239 1 11.5ZM5.5 10C6.35 10 7 10.65 7 11.5C7 12.35 6.35 13 5.5 13C4.65 13 4 12.35 4 11.5C4 10.65 4.65 10 5.5 10Z"/>
  </symbol>
  <symbol id="database" viewBox="0 0 12 14">
    <path d="M6 0.5C3.35105 0.5 0.5 1.126 0.5 2.5V11.5C0.5 12.874 3.35105 13.5 6 13.5C8.64895 13.5 11.5 12.874 11.5 11.5V2.5C11.5 1.126 8.64895 0.5 6 0.5ZM6 1.5C8.8988 1.5 10.3974 2.21705 10.4984 2.5C10.3974 2.78295 8.8988 3.5 6 3.5C3.07935 3.5 1.5803 2.7722 1.5 2.5088V2.50635C1.5803 2.2278 3.07935 1.5 6 1.5ZM1.5 3.71385C2.56395 4.24755 4.3213 4.5 6 4.5C7.6787 4.5 9.43605 4.24755 10.5 3.71385V5.49365C10.4197 5.7722 8.92065 6.5 6 6.5C3.07495 6.5 1.57545 5.77 1.5 5.5V3.71385ZM1.5 6.71385C2.56395 7.24755 4.3213 7.5 6 7.5C7.6787 7.5 9.43605 7.24755 10.5 6.71385V8.49365C10.4197 8.7722 8.92065 9.5 6 9.5C3.07495 9.5 1.57545 8.77 1.5 8.5V6.71385ZM6 12.5C3.07495 12.5 1.57545 11.77 1.5 11.5V9.71385C2.56395 10.2476 4.3213 10.5 6 10.5C7.6787 10.5 9.43605 10.2476 10.5 9.71385V11.4937C10.4197 11.7722 8.92065 12.5 6 12.5Z"/>
  </symbol>
  <symbol id="star" viewBox="0 0 32 32">
    <path fill-rule="evenodd" clip-rule="evenodd" d="M16 2.00012C16.3771 2.00012 16.7207 2.22003 16.8829 2.56529L20.6834 10.6536L29.1675 11.9485C29.5317 12.0041 29.8342 12.2625 29.9502 12.6169C30.0662 12.9714 29.976 13.3619 29.7168 13.6273L23.5575 19.9334L25.0129 28.8463C25.074 29.2203 24.9195 29.5969 24.6148 29.8166C24.3101 30.0363 23.9086 30.0607 23.5803 29.8794L16 25.6935L8.41968 29.8794C8.09136 30.0607 7.68986 30.0363 7.3852 29.8166C7.08055 29.5969 6.92604 29.2203 6.98711 28.8463L8.44251 19.9334L2.28319 13.6273C2.02402 13.3619 1.93381 12.9714 2.04979 12.6169C2.16578 12.2625 2.4683 12.0041 2.83248 11.9485L11.3166 10.6536L15.1171 2.56529C15.2793 2.22003 15.6229 2.00012 16 2.00012ZM16 5.29761L12.8589 11.9827C12.7191 12.2801 12.4428 12.4877 12.1215 12.5368L5.02857 13.6193L10.1839 18.8975C10.4047 19.1236 10.5052 19.4435 10.4539 19.7575L9.24424 27.1654L15.5323 23.6931C15.8239 23.5321 16.1761 23.5321 16.4677 23.6931L22.7558 27.1654L21.5461 19.7575C21.4948 19.4435 21.5953 19.1236 21.8161 18.8975L26.9714 13.6193L19.8785 12.5368C19.5572 12.4877 19.2809 12.2801 19.1411 11.9827L16 5.29761Z" />
  </symbol>
  <symbol id="eye" viewBox="0 0 32 32">
    <path d="M30.94 15.6599C29.7638 12.6175 27.722 9.98649 25.0668 8.09196C22.4116 6.19743 19.2595 5.12245 16 4.99988C12.7405 5.12245 9.58839 6.19743 6.9332 8.09196C4.27802 9.98649 2.23616 12.6175 1.06 15.6599C0.980569 15.8796 0.980569 16.1202 1.06 16.3399C2.23616 19.3822 4.27802 22.0133 6.9332 23.9078C9.58839 25.8023 12.7405 26.8773 16 26.9999C19.2595 26.8773 22.4116 25.8023 25.0668 23.9078C27.722 22.0133 29.7638 19.3822 30.94 16.3399C31.0194 16.1202 31.0194 15.8796 30.94 15.6599ZM16 24.9999C10.7 24.9999 5.1 21.0699 3.07 15.9999C5.1 10.9299 10.7 6.99988 16 6.99988C21.3 6.99988 26.9 10.9299 28.93 15.9999C26.9 21.0699 21.3 24.9999 16 24.9999Z"/>
    <path d="M16 9.99988C14.8133 9.99988 13.6533 10.3518 12.6666 11.0111C11.6799 11.6703 10.9109 12.6074 10.4567 13.7038C10.0026 14.8001 9.88378 16.0065 10.1153 17.1704C10.3468 18.3343 10.9182 19.4034 11.7574 20.2425C12.5965 21.0816 13.6656 21.6531 14.8295 21.8846C15.9933 22.1161 17.1997 21.9973 18.2961 21.5432C19.3925 21.089 20.3295 20.32 20.9888 19.3333C21.6481 18.3466 22 17.1866 22 15.9999C22 14.4086 21.3679 12.8825 20.2426 11.7572C19.1174 10.632 17.5913 9.99988 16 9.99988ZM16 19.9999C15.2089 19.9999 14.4355 19.7653 13.7777 19.3258C13.1199 18.8862 12.6072 18.2615 12.3045 17.5306C12.0017 16.7997 11.9225 15.9954 12.0769 15.2195C12.2312 14.4436 12.6122 13.7309 13.1716 13.1715C13.731 12.612 14.4437 12.2311 15.2196 12.0767C15.9956 11.9224 16.7998 12.0016 17.5307 12.3044C18.2616 12.6071 18.8864 13.1198 19.3259 13.7776C19.7654 14.4354 20 15.2088 20 15.9999C20 17.0607 19.5786 18.0782 18.8284 18.8283C18.0783 19.5785 17.0609 19.9999 16 19.9999Z"/>
  </symbol>
  <symbol id="eye-crossed" viewBox="0 0 32 32">
    <path fill-rule="evenodd" clip-rule="evenodd" d="M28.2929 2.29277C28.6834 1.90225 29.3166 1.90225 29.7071 2.29277C30.0976 2.6833 30.0976 3.31646 29.7071 3.70698L25.2001 8.21985C27.7981 10.0869 29.7934 12.6731 30.9401 15.6598C31.0195 15.8796 31.0195 16.1201 30.9401 16.3398C29.7639 19.3822 27.722 22.0132 25.0669 23.9078C22.4117 25.8023 19.2595 26.8773 16.0001 26.9998C13.3641 26.9573 10.7839 26.2339 8.51006 24.8998L3.70724 29.707C3.31672 30.0975 2.68355 30.0975 2.29303 29.707C1.90251 29.3164 1.90251 28.6833 2.29303 28.2928L28.2929 2.29277ZM20.0001 15.9998C19.9959 16.7 19.808 17.3867 19.4552 17.9914C19.1024 18.5961 18.597 19.0977 17.9897 19.4459C17.3823 19.7941 16.6942 19.9768 15.9941 19.9758C15.2939 19.9747 14.6064 19.7899 14.0001 19.4398L19.4401 13.9998C19.7996 14.6056 19.9927 15.2955 20.0001 15.9998ZM16.0001 24.9998C13.9021 24.9632 11.844 24.4212 10.0001 23.4198L12.5401 20.8798C13.6954 21.6815 15.0956 22.0519 16.4962 21.9263C17.8968 21.8008 19.2088 21.1873 20.2031 20.1929C21.1975 19.1986 21.811 17.8866 21.9365 16.486C22.0621 15.0854 21.6917 13.6852 20.8901 12.5298L23.7601 9.65985C26.0547 11.2348 27.849 13.4353 28.9301 15.9998C26.9001 21.0698 21.3001 24.9998 16.0001 24.9998Z"/>
    <path d="M6.67006 21.0898L5.24006 22.5098C3.38049 20.8109 1.94831 18.6969 1.06006 16.3398C0.98063 16.1201 0.98063 15.8796 1.06006 15.6598C2.23622 12.6175 4.27808 9.98646 6.93326 8.09193C9.58845 6.1974 12.7406 5.12242 16.0001 4.99985C17.9078 5.0232 19.7927 5.41717 21.5501 6.15985L20.0001 7.71985C18.7155 7.26113 17.364 7.01785 16.0001 6.99985C10.7001 6.99985 5.10006 10.9298 3.07006 15.9998C3.87404 17.9445 5.10428 19.684 6.67006 21.0898Z" />
    <path d="M13.1611 13.1909C12.4818 13.8703 12.0696 14.7716 12.0001 15.7298L10.1801 17.5399C9.91301 16.5256 9.91648 15.4591 10.1901 14.4466C10.4638 13.4341 10.998 12.5111 11.7397 11.7694C12.4813 11.0278 13.4043 10.4936 14.4168 10.2199C15.4293 9.94626 16.4958 9.94279 17.5101 10.2098L15.7001 12.0299C14.7418 12.0994 13.8405 12.5115 13.1611 13.1909Z" />
 </symbol>
  <symbol id="bubble" viewBox="0 0 28 24">
    <path fill-rule="evenodd" clip-rule="evenodd" d="M14 2.00012C7.20948 2.00012 2 6.62735 2 12.0001C2 14.1621 2.82539 16.1784 4.25857 17.8354C4.48585 18.0982 4.56044 18.4602 4.45559 18.7914C4.11025 19.8823 3.59859 20.905 2.96437 21.8563C4.36749 21.6498 5.72455 21.2237 6.98685 20.5983C7.26684 20.4596 7.59558 20.4598 7.87546 20.5987C9.66322 21.4863 11.7558 22.0001 14 22.0001C20.7905 22.0001 26 17.3729 26 12.0001C26 6.62735 20.7905 2.00012 14 2.00012ZM1.55557e-06 12.0001C1.55557e-06 5.22263 6.43112 0.00012207 14 0.00012207C21.5689 0.00012207 28 5.22263 28 12.0001C28 18.7776 21.5689 24.0001 14 24.0001C11.6319 24.0001 9.39442 23.4964 7.43078 22.6017C5.4311 23.5145 3.24057 24.0001 1 24.0001C0.631206 24.0001 0.292346 23.7971 0.118327 23.472C-0.0556921 23.1468 -0.0366195 22.7523 0.167951 22.4454L1.37487 20.635C1.78033 20.0268 2.11535 19.375 2.37375 18.6921C0.884016 16.7926 1.55557e-06 14.4912 1.55557e-06 12.0001Z" />
  </symbol>
  <symbol id="check-circle" viewBox="0 0 32 32">
    <path d="M14 0.00012207C11.2311 0.00012207 8.52431 0.821208 6.22202 2.35955C3.91973 3.89789 2.12532 6.08439 1.06569 8.64255C0.00606596 11.2007 -0.271181 14.0157 0.269012 16.7314C0.809205 19.4471 2.14258 21.9417 4.10051 23.8996C6.05845 25.8576 8.55301 27.1909 11.2687 27.7311C13.9845 28.2713 16.7994 27.9941 19.3576 26.9344C21.9157 25.8748 24.1022 24.0804 25.6406 21.7781C27.1789 19.4758 28 16.7691 28 14.0001C28 10.2871 26.525 6.72614 23.8995 4.10063C21.274 1.47512 17.713 0.00012207 14 0.00012207ZM14 26.0001C11.6266 26.0001 9.30655 25.2963 7.33316 23.9778C5.35977 22.6592 3.8217 20.785 2.91345 18.5923C2.0052 16.3996 1.76756 13.9868 2.23058 11.659C2.69361 9.33127 3.83649 7.19307 5.51472 5.51484C7.19296 3.83661 9.33115 2.69372 11.6589 2.2307C13.9867 1.76768 16.3995 2.00532 18.5922 2.91357C20.7849 3.82182 22.6591 5.35989 23.9776 7.33328C25.2962 9.30667 26 11.6267 26 14.0001C26 17.1827 24.7357 20.235 22.4853 22.4854C20.2348 24.7358 17.1826 26.0001 14 26.0001Z" />
    <path fill-rule="evenodd" clip-rule="evenodd" d="M20.7071 9.29326C21.0976 9.68378 21.0976 10.3169 20.7071 10.7075L12.7071 18.7075C12.3166 19.098 11.6834 19.098 11.2929 18.7075L7.29289 14.7075C6.90237 14.3169 6.90237 13.6838 7.29289 13.2933C7.68342 12.9027 8.31658 12.9027 8.70711 13.2933L12 16.5862L19.2929 9.29326C19.6834 8.90274 20.3166 8.90274 20.7071 9.29326Z" />
  </symbol>
  <symbol id="add" viewBox="0 0 10 10">
    <path d="M5.5 4.5V0.5C5.5 0.223858 5.27614 0 5 0C4.72386 0 4.5 0.223858 4.5 0.5V4.5H0.5C0.223858 4.5 0 4.72386 0 5C0 5.27614 0.223858 5.5 0.5 5.5H4.5V9.5C4.5 9.77614 4.72386 10 5 10C5.27614 10 5.5 9.77614 5.5 9.5V5.5H9.5C9.77614 5.5 10 5.27614 10 5C10 4.72386 9.77614 4.5 9.5 4.5H5.5Z" />
  </symbol>

  <symbol id="image" viewBox="0 0 12 12">
    <path fill-rule="evenodd" clip-rule="evenodd" d="M8.33335 4.7472C8.08668 4.91203 7.79667 5 7.5 5C7.10218 5 6.72064 4.84197 6.43934 4.56066C6.15804 4.27936 6 3.89783 6 3.5C6 3.20333 6.08797 2.91332 6.2528 2.66665C6.41762 2.41997 6.65189 2.22771 6.92597 2.11418C7.20006 2.00065 7.50166 1.97094 7.79264 2.02882C8.08361 2.0867 8.35088 2.22956 8.56066 2.43934C8.77044 2.64912 8.9133 2.91639 8.97118 3.20737C9.02906 3.49834 8.99935 3.79994 8.88582 4.07403C8.77229 4.34811 8.58003 4.58238 8.33335 4.7472ZM7.77779 3.08427C7.69556 3.02933 7.59889 3 7.5 3C7.36739 3 7.24021 3.05268 7.14645 3.14645C7.05268 3.24022 7 3.36739 7 3.5C7 3.59889 7.02932 3.69556 7.08426 3.77779C7.13921 3.86001 7.2173 3.9241 7.30866 3.96194C7.40002 3.99978 7.50056 4.00969 7.59755 3.99039C7.69454 3.9711 7.78363 3.92348 7.85355 3.85355C7.92348 3.78363 7.9711 3.69454 7.99039 3.59755C8.00969 3.50056 7.99978 3.40002 7.96194 3.30866C7.9241 3.2173 7.86001 3.13921 7.77779 3.08427Z" />
    <path fill-rule="evenodd" clip-rule="evenodd" d="M0 2C0 0.895431 0.89543 0 2 0H10C11.1046 0 12 0.89543 12 2V10C12 11.1046 11.1046 12 10 12H2C0.895431 12 0 11.1046 0 10V2ZM2 1C1.44772 1 1 1.44772 1 2V6.58574L2.79285 4.79289C3.18337 4.40237 3.81654 4.40237 4.20706 4.79289L6.99995 7.58579L7.79285 6.79289C8.18337 6.40237 8.81653 6.40237 9.20706 6.79289L11 8.58583V2C11 1.44772 10.5523 1 10 1H2ZM1 10V7.99995L3.49995 5.5L6.29285 8.29289C6.68337 8.68342 7.31654 8.68342 7.70706 8.29289L8.49995 7.5L11 10C11 10.5523 10.5523 11 10 11H2C1.44772 11 1 10.5523 1 10Z" />
  </symbol>
  <symbol id="table2" viewBox="0 0 14 12">
    <path fill-rule="evenodd" clip-rule="evenodd" d="M0 2C0 0.895431 0.895431 0 2 0H12C13.1046 0 14 0.895431 14 2V10C14 11.1046 13.1046 12 12 12H2C0.895431 12 0 11.1046 0 10V2ZM5.5 1H8.5V5.5H5.5V1ZM4.5 5.5V1H2C1.44772 1 1 1.44772 1 2V5.5H4.5ZM1 6.5V10C1 10.5523 1.44772 11 2 11H4.5V6.5H1ZM5.5 6.5H8.5V11H5.5V6.5ZM9.5 6.5V11H12C12.5523 11 13 10.5523 13 10V6.5H9.5ZM13 5.5V2C13 1.44772 12.5523 1 12 1H9.5V5.5H13Z" />
  </symbol>
  <symbol id="code-block" viewBox="0 0 14 11">
    <path d="M5.5 0H6.5L5 6H4L5.5 0Z" />
    <path d="M0.5 3L3 5.5L3.70711 4.79289L1.91421 3L3.70711 1.20711L3 0.5L0.5 3Z" />
    <path d="M9.99995 3L7.49995 0.5L6.79285 1.20711L8.58574 3L6.79285 4.79289L7.49995 5.5L9.99995 3Z" />
    <path d="M3 9C3 9.55228 3.44772 10 4 10H12C12.5523 10 13 9.55228 13 9V3C13 2.44772 12.5523 2 12 2H11.5C11.2239 2 11 1.77614 11 1.5C11 1.22386 11.2239 1 11.5 1H12C13.1046 1 14 1.89543 14 3V9C14 10.1046 13.1046 11 12 11H4C2.89543 11 2 10.1046 2 9V7.5C2 7.22386 2.22386 7 2.5 7C2.77614 7 3 7.22386 3 7.5V9Z" />
  </symbol>
  <symbol id="separator-line" viewBox="0 0 14 12">
    <path d="M11 1H3C2.44772 1 2 1.44772 2 2V3C2 3.27614 1.77614 3.5 1.5 3.5C1.22386 3.5 1 3.27614 1 3V2C1 0.895431 1.89543 0 3 0H11C12.1046 0 13 0.895431 13 2V3C13 3.27614 12.7761 3.5 12.5 3.5C12.2239 3.5 12 3.27614 12 3V2C12 1.44772 11.5523 1 11 1Z" />
    <path d="M1 9C1 8.72386 1.22386 8.5 1.5 8.5C1.77614 8.5 2 8.72386 2 9V10C2 10.5523 2.44772 11 3 11H11C11.5523 11 12 10.5523 12 10V9C12 8.72386 12.2239 8.5 12.5 8.5C12.7761 8.5 13 8.72386 13 9V10C13 11.1046 12.1046 12 11 12H3C1.89543 12 1 11.1046 1 10V9Z" />
    <path d="M14 6C14 5.72386 13.7761 5.5 13.5 5.5H0.5C0.223858 5.5 0 5.72386 0 6C0 6.27614 0.223857 6.5 0.5 6.5H13.5C13.7761 6.5 14 6.27614 14 6Z" />
  </symbol>
  <symbol id="circle" viewBox="0 0 32 32">
    <path fill-rule="evenodd" clip-rule="evenodd" d="M16 28.0002C22.6274 28.0002 28 22.6277 28 16.0002C28 9.37283 22.6274 4.00024 16 4.00024C9.37258 4.00024 4 9.37283 4 16.0002C4 22.6277 9.37258 28.0002 16 28.0002ZM16 30.0002C23.732 30.0002 30 23.7322 30 16.0002C30 8.26826 23.732 2.00024 16 2.00024C8.26801 2.00024 2 8.26826 2 16.0002C2 23.7322 8.26801 30.0002 16 30.0002Z" />
  </symbol>
  <symbol id="join" viewBox="0 0 16 16">
    <path d="M7.92231 14.2015L7.99302 14.6964L7.92231 14.2015ZM6.22318 14.311L6.33389 13.8234L6.22318 14.311ZM4.79789 13.0748L5.26492 12.8963L4.79789 13.0748ZM13.373 12.5661L12.9774 12.2603L13.373 12.5661ZM9.05136 14.0402L8.98065 13.5452L9.05136 14.0402ZM13.1512 12.8218L13.5099 13.1701L13.1512 12.8218ZM13.1512 3.17821L12.7926 3.5266L13.1512 3.17821ZM13.373 3.43391L13.7686 3.12813L13.373 3.43391ZM7.98221 2.31213L8.98065 2.45477L9.12207 1.46482L8.12363 1.32218L7.98221 2.31213ZM13.4993 7.66487V8.33509H14.4993V7.66487H13.4993ZM8.98065 13.5452L7.8516 13.7065L7.99302 14.6964L9.12207 14.5351L8.98065 13.5452ZM7.8516 13.7065C7.39911 13.7711 7.0821 13.8162 6.83278 13.8363C6.58629 13.8562 6.44248 13.8481 6.33389 13.8234L6.11247 14.7986C6.364 14.8557 6.62341 14.8565 6.91329 14.8331C7.20033 14.8099 7.55283 14.7593 7.99302 14.6964L7.8516 13.7065ZM4.16602 11.3773C4.16602 11.822 4.1658 12.1781 4.18344 12.4655C4.20126 12.7558 4.23875 13.0125 4.33085 13.2534L5.26492 12.8963C5.22515 12.7923 5.19671 12.6511 5.18156 12.4042C5.16624 12.1546 5.16602 11.8344 5.16602 11.3773H4.16602ZM6.33389 13.8234C5.84503 13.7124 5.44393 13.3645 5.26492 12.8963L4.33085 13.2534C4.62921 14.0338 5.29771 14.6136 6.11247 14.7986L6.33389 13.8234ZM13.4993 8.33509C13.4993 9.48721 13.4986 10.3082 13.4244 10.9439C13.3517 11.5676 13.2136 11.9547 12.9774 12.2603L13.7686 12.8718C14.1587 12.3671 14.3338 11.7788 14.4177 11.0597C14.5001 10.3527 14.4993 9.46335 14.4993 8.33509H13.4993ZM9.12207 14.5351C10.239 14.3756 11.1195 14.2506 11.8078 14.069C12.5078 13.8843 13.0654 13.6277 13.5099 13.1701L12.7926 12.4734C12.5234 12.7504 12.1598 12.9419 11.5526 13.1021C10.9338 13.2654 10.1212 13.3823 8.98065 13.5452L9.12207 14.5351ZM12.9774 12.2603C12.9198 12.3347 12.8581 12.4059 12.7926 12.4734L13.5099 13.1701C13.6017 13.0756 13.688 12.9761 13.7686 12.8718L12.9774 12.2603ZM8.98065 2.45477C10.1212 2.6177 10.9338 2.73458 11.5526 2.89788C12.1598 3.05809 12.5234 3.24952 12.7926 3.5266L13.5099 2.82982C13.0654 2.37222 12.5078 2.11569 11.8078 1.93098C11.1195 1.74936 10.239 1.62438 9.12207 1.46482L8.98065 2.45477ZM14.4993 7.66487C14.4993 6.53661 14.5001 5.64727 14.4177 4.94022C14.3338 4.22111 14.1587 3.63289 13.7686 3.12813L12.9774 3.73968C13.2136 4.04531 13.3517 4.43238 13.4244 5.05606C13.4986 5.69179 13.4993 6.51275 13.4993 7.66487H14.4993ZM12.7926 3.5266C12.8581 3.59409 12.9198 3.66523 12.9774 3.73968L13.7686 3.12813C13.688 3.02391 13.6017 2.92431 13.5099 2.82982L12.7926 3.5266ZM8.12363 1.32218C7.62395 1.2508 7.22383 1.19335 6.89852 1.16973C6.56979 1.14587 6.27615 1.15257 5.99374 1.23142L6.26265 2.19458C6.38494 2.16044 6.54699 2.14684 6.82611 2.16711C7.10865 2.18762 7.46854 2.23875 7.98221 2.31213L8.12363 1.32218ZM5.16602 4.7546C5.16602 4.23572 5.1663 3.87222 5.18595 3.58961C5.20536 3.31043 5.24174 3.15194 5.29283 3.0357L4.37738 2.63328C4.25938 2.90171 4.21122 3.19145 4.18836 3.52025C4.16573 3.84563 4.16602 4.24985 4.16602 4.7546H5.16602ZM5.99374 1.23142C5.27211 1.43289 4.67888 1.9474 4.37738 2.63328L5.29283 3.0357C5.47374 2.62417 5.82967 2.31547 6.26265 2.19458L5.99374 1.23142Z"/>
    <path d="M10.666 8.00002L11.0565 7.68767L11.3063 8.00002L11.0565 8.31237L10.666 8.00002ZM2.66602 8.50002C2.38987 8.50002 2.16602 8.27616 2.16602 8.00002C2.16602 7.72388 2.38987 7.50002 2.66602 7.50002V8.50002ZM8.38978 4.35434L11.0565 7.68767L10.2756 8.31237L7.60891 4.97903L8.38978 4.35434ZM11.0565 8.31237L8.38978 11.6457L7.60891 11.021L10.2756 7.68767L11.0565 8.31237ZM10.666 8.50002H2.66602V7.50002H10.666V8.50002Z"/>
  </symbol>
  <symbol id="leave" viewBox="0 0 32 32">
    <path fill-rule="evenodd" clip-rule="evenodd" d="M18 4C19.1046 4 20 4.89543 20 6V7C20 7.55228 20.4477 8 21 8C21.5523 8 22 7.55228 22 7V6C22 3.79086 20.2091 2 18 2H10C7.79086 2 6 3.79086 6 6V26C6 28.2091 7.79086 30 10 30H18C20.2091 30 22 28.2091 22 26V25C22 24.4477 21.5523 24 21 24C20.4477 24 20 24.4477 20 25V26C20 27.1046 19.1046 28 18 28H10C8.89543 28 8 27.1046 8 26V6C8 4.89543 8.89543 4 10 4H18Z" />
    <path d="M22.59 20.59L26.17 17H13C12.4477 17 12 16.5523 12 16C12 15.4477 12.4477 15 13 15H26.17L22.59 11.41L24 10L30 16L24 22L22.59 20.59Z" />
  </symbol>
  <symbol id="copy" viewBox="0 0 16 16">
    <path fill-rule="evenodd" clip-rule="evenodd" d="M5 3C5 1.89543 5.89543 1 7 1H12C13.1046 1 14 1.89543 14 3V10C14 11.1046 13.1046 12 12 12H7C5.89543 12 5 11.1046 5 10V3ZM7 2C6.44772 2 6 2.44772 6 3V10C6 10.5523 6.44772 11 7 11H12C12.5523 11 13 10.5523 13 10V3C13 2.44772 12.5523 2 12 2H7Z" />
    <path fill-rule="evenodd" clip-rule="evenodd" d="M4 5C3.44772 5 3 5.44772 3 6V13C3 13.5523 3.44772 14 4 14H9C9.55228 14 10 13.5523 10 13V12H11V13C11 14.1046 10.1046 15 9 15H4C2.89543 15 2 14.1046 2 13V6C2 4.89543 2.89543 4 4 4H5V5H4Z" />
  </symbol>
</svg>
