<svg xmlns="http://www.w3.org/2000/svg" style="display: none;">
  <symbol id="table" viewBox="0 0 16 16">
    <g>
      <rect width="16" height="1.7" />
      <rect y="7.2" width="16" height="1.7" />
      <rect y="14.3" width="16" height="1.7" />
    </g>
  </symbol>
  <symbol id="card" viewBox="0 0 16 16">
    <g>
      <rect width="2.9" height="2.9" />
      <rect x="6.6" width="2.9" height="2.9" />
      <rect x="13.1" width="2.9" height="2.9" />
      <rect y="6.6" width="2.9" height="2.9" />
      <rect x="6.6" y="6.6" width="2.9" height="2.9" />
      <rect x="13.1" y="6.6" width="2.9" height="2.9" />
      <rect y="13.1" width="2.9" height="2.9" />
      <rect x="6.6" y="13.1" width="2.9" height="2.9" />
      <rect x="13.1" y="13.1" width="2.9" height="2.9" />
    </g>
  </symbol>
  <symbol id="delete" viewBox="0 0 16 16">
    <path d="M14.2,2.8h-2.4c-0.3,0-0.5-0.2-0.6-0.6l-0.2-1C10.9,0.5,10.3,0,9.6,0H6.4C5.7,0,5.1,0.5,4.9,1.3l-0.2,1 C4.7,2.6,4.4,2.8,4.2,2.8H1.8c-0.3,0-0.6,0.3-0.6,0.6S1.4,4,1.8,4h0.4c0.1,1.4,0.4,7.6,0.6,9.7c0.1,1.4,1,2.3,2.3,2.3 C6,16,7,16,8,16c0.9,0,1.9,0,2.9,0c1.3,0,2.2-0.9,2.3-2.3c0.2-2,0.5-8.3,0.6-9.7h0.4c0.3,0,0.6-0.3,0.6-0.6S14.6,2.8,14.2,2.8z M6,2.5l0.2-0.9c0-0.2,0.2-0.3,0.3-0.3h3.1c0.1,0,0.3,0.1,0.3,0.3l0.2,1c0,0.1,0.1,0.2,0.1,0.3H5.8C5.9,2.7,5.9,2.6,6,2.5z M12,13.6 c-0.1,1.2-0.9,1.2-1.1,1.2c-2,0-3.9,0-5.7,0c-0.6,0-1-0.4-1.1-1.2c-0.2-2-0.5-8-0.6-9.5h9.2C12.5,5.5,12.2,11.6,12,13.6z"/>
  </symbol>
  <symbol id="move" viewBox="0 0 16 16">
    <path d="M9.5,1.3C9.3,1,8.9,1,8.6,1.3c-0.2,0.2-0.2,0.6,0,0.9l5.2,5.2H0.6C0.3,7.4,0,7.7,0,8c0,0.3,0.3,0.6,0.6,0.6 h13.2l-5.2,5.2c-0.2,0.2-0.2,0.6,0,0.9c0.2,0.2,0.6,0.2,0.9,0l6.3-6.3c0.2-0.2,0.2-0.6,0-0.9L9.5,1.3z"/>
  </symbol>
  
  <symbol id='more-h' viewBox="0 0 16 16">
    <path d="M8,6.6C7.2,6.6,6.6,7.2,6.6,8c0,0.8,0.6,1.4,1.4,1.4S9.4,8.8,9.4,8C9.4,7.2,8.8,6.6,8,6.6z" />
    <path d="M3.2,6.6C2.4,6.6,1.8,7.2,1.8,8c0,0.8,0.6,1.4,1.4,1.4S4.6,8.8,4.6,8C4.6,7.2,4,6.6,3.2,6.6z" />
    <path d="M12.8,6.6c-0.8,0-1.4,0.6-1.4,1.4c0,0.8,0.6,1.4,1.4,1.4s1.4-0.6,1.4-1.4C14.2,7.2,13.6,6.6,12.8,6.6z" />
  </symbol>

</svg>
