<svg xmlns="http://www.w3.org/2000/svg" style="display: none;">
  <symbol id="table" viewBox="0 0 16 16">
    <g>
      <rect width="16" height="1.7" />
      <rect y="7.2" width="16" height="1.7" />
      <rect y="14.3" width="16" height="1.7" />
    </g>
  </symbol>
  <symbol id="kanban" viewBox="0 0 16 16">
    <path d="M14,0h-2.8H9.6H6.4H4.8H2C0.9,0,0,0.9,0,2v12c0,1.1,0.9,2,2,2h2.8h1.6h3.2h1.6H14c1.1,0,2-0.9,2-2V2C16,0.9,15.1,0,14,0z M2,14.8c-0.4,0-0.8-0.4-0.8-0.8V2c0-0.4,0.4-0.8,0.8-0.8h2.8v13.6H2z M6.4,14.8V1.2h3.2v13.6H6.4z M14.8,14c0,0.4-0.4,0.8-0.8,0.8 h-2.8V1.2H14c0.4,0,0.8,0.4,0.8,0.8V14z"/>
  </symbol>
  <symbol id="card" viewBox="0 0 16 16">
    <g>
      <rect width="2.9" height="2.9" />
      <rect x="6.6" width="2.9" height="2.9" />
      <rect x="13.1" width="2.9" height="2.9" />
      <rect y="6.6" width="2.9" height="2.9" />
      <rect x="6.6" y="6.6" width="2.9" height="2.9" />
      <rect x="13.1" y="6.6" width="2.9" height="2.9" />
      <rect y="13.1" width="2.9" height="2.9" />
      <rect x="6.6" y="13.1" width="2.9" height="2.9" />
      <rect x="13.1" y="13.1" width="2.9" height="2.9" />
    </g>
  </symbol>
  <symbol id="delete" viewBox="0 0 16 16">
    <path d="M14.2,2.8h-2.4c-0.3,0-0.5-0.2-0.6-0.6l-0.2-1C10.9,0.5,10.3,0,9.6,0H6.4C5.7,0,5.1,0.5,4.9,1.3l-0.2,1 C4.7,2.6,4.4,2.8,4.2,2.8H1.8c-0.3,0-0.6,0.3-0.6,0.6S1.4,4,1.8,4h0.4c0.1,1.4,0.4,7.6,0.6,9.7c0.1,1.4,1,2.3,2.3,2.3 C6,16,7,16,8,16c0.9,0,1.9,0,2.9,0c1.3,0,2.2-0.9,2.3-2.3c0.2-2,0.5-8.3,0.6-9.7h0.4c0.3,0,0.6-0.3,0.6-0.6S14.6,2.8,14.2,2.8z M6,2.5l0.2-0.9c0-0.2,0.2-0.3,0.3-0.3h3.1c0.1,0,0.3,0.1,0.3,0.3l0.2,1c0,0.1,0.1,0.2,0.1,0.3H5.8C5.9,2.7,5.9,2.6,6,2.5z M12,13.6 c-0.1,1.2-0.9,1.2-1.1,1.2c-2,0-3.9,0-5.7,0c-0.6,0-1-0.4-1.1-1.2c-0.2-2-0.5-8-0.6-9.5h9.2C12.5,5.5,12.2,11.6,12,13.6z"/>
  </symbol>
  <symbol id="move" viewBox="0 0 16 16">
    <polygon points="6.4,14.4 5.6,13.6 11.3,8 5.6,2.4 6.4,1.6 12.7,8 "/>
  </symbol>
</svg>
