<svg xmlns="http://www.w3.org/2000/svg" style="display: none;">
  <symbol id="table" viewBox="0 0 16 16">
    <g>
      <rect x="1" y="1" width="14" height="1.5"/>
      <rect x="1" y="7.3" width="14" height="1.5"/>
      <rect x="1" y="13.5" width="14" height="1.5"/>
    </g>
  </symbol>
  <symbol id="card" viewBox="0 0 16 16">
    <g>
      <rect width="2.9" height="2.9" />
      <rect x="6.6" width="2.9" height="2.9" />
      <rect x="13.1" width="2.9" height="2.9" />
      <rect y="6.6" width="2.9" height="2.9" />
      <rect x="6.6" y="6.6" width="2.9" height="2.9" />
      <rect x="13.1" y="6.6" width="2.9" height="2.9" />
      <rect y="13.1" width="2.9" height="2.9" />
      <rect x="6.6" y="13.1" width="2.9" height="2.9" />
      <rect x="13.1" y="13.1" width="2.9" height="2.9" />
    </g>
  </symbol>
  <symbol id="delete" viewBox="0 0 16 16">
    <path d="M13.1,3.8h-2c-0.2,0-0.4-0.2-0.5-0.4l-0.2-0.8c-0.1-0.6-0.6-1-1.2-1H6.8c-0.6,0-1.1,0.4-1.2,1L5.4,3.3 c0,0.3-0.2,0.4-0.5,0.4h-2C2.7,3.8,2.4,4,2.4,4.3s0.2,0.5,0.5,0.5h0.3c0.1,1.1,0.3,6.2,0.5,7.9c0.1,1.1,0.8,1.8,1.9,1.9 c0.8,0,1.6,0,2.4,0c0.8,0,1.5,0,2.3,0c1.1,0,1.8-0.7,1.9-1.9c0.2-1.7,0.4-6.7,0.5-7.9h0.3c0.3,0,0.5-0.2,0.5-0.5S13.4,3.8,13.1,3.8z M6.4,3.5l0.1-0.8c0-0.1,0.1-0.2,0.3-0.2h2.5c0.1,0,0.2,0.1,0.2,0.2l0.1,0.8c0,0.1,0.1,0.2,0.1,0.3H6.3C6.3,3.7,6.3,3.6,6.4,3.5z M11.3,12.5c-0.1,0.9-0.7,1-0.9,1c-1.6,0-3.2,0-4.7,0c-0.5,0-0.8-0.3-0.9-1C4.6,10.9,4.4,6,4.3,4.8h7.5C11.7,6,11.4,10.9,11.3,12.5z"/>
  </symbol>
  <symbol id="move" viewBox="0 0 16 16">
    <path d="M7.5,3.3V6c0,0.3,0.2,0.5,0.5,0.5S8.5,6.3,8.5,6V3.3l1.1,1.2l0.7-0.7l-2-2.1L8,1.3L7.6,1.7l-2,2.1l0.7,0.7L7.5,3.3z"/>
    <path d="M14.3,7.6l-2.1-2l-0.7,0.7l1.2,1.1H10C9.7,7.5,9.5,7.7,9.5,8S9.7,8.5,10,8.5h2.7l-1.2,1.1l0.7,0.7l2.1-2L14.7,8L14.3,7.6z"/>
    <path d="M8.5,12.7V10c0-0.3-0.2-0.5-0.5-0.5S7.5,9.7,7.5,10v2.7l-1.1-1.2l-0.7,0.7l2,2.1L8,14.7l0.4-0.4l2-2.1l-0.7-0.7L8.5,12.7z"/>
    <path d="M6,8.5c0.3,0,0.5-0.2,0.5-0.5S6.3,7.5,6,7.5H3.3l1.2-1.1L3.8,5.6l-2.1,2L1.3,8l0.4,0.4l2.1,2l0.7-0.7L3.3,8.5H6z"/>
  </symbol>
  <symbol id='more-h' viewBox="0 0 16 16">
    <path d="M8,6.6C7.2,6.6,6.6,7.2,6.6,8c0,0.8,0.6,1.4,1.4,1.4S9.4,8.8,9.4,8C9.4,7.2,8.8,6.6,8,6.6z" />
    <path d="M3.2,6.6C2.4,6.6,1.8,7.2,1.8,8c0,0.8,0.6,1.4,1.4,1.4S4.6,8.8,4.6,8C4.6,7.2,4,6.6,3.2,6.6z" />
    <path d="M12.8,6.6c-0.8,0-1.4,0.6-1.4,1.4c0,0.8,0.6,1.4,1.4,1.4s1.4-0.6,1.4-1.4C14.2,7.2,13.6,6.6,12.8,6.6z" />
  </symbol>
  <symbol id="archive" viewBox="0 0 16 16" >
    <path d="M14.5,4.3c-0.2-1.1-1-1.9-2.1-2.1c-0.2,0-0.4,0-0.8,0H4.4c-0.4,0-0.6,0-0.8,0c-1.1,0.2-1.9,1-2.1,2.1 c0,0.2,0,0.4,0,0.8l0,0.2c0,0.3,0.3,0.5,0.6,0.6l0.7,0v3.5c0,2,0,3,0.7,3.8c0.7,0.7,1.8,0.7,3.8,0.7h1.3c2,0,3,0,3.8-0.7 s0.7-1.8,0.7-3.8V5.8h0.6l0.2,0c0.3,0,0.5-0.3,0.6-0.6l0-0.2C14.5,4.7,14.5,4.5,14.5,4.3z M12.2,9.3c0,1.7,0,2.6-0.4,3.1 s-1.3,0.4-3.1,0.4H7.3c-1.7,0-2.6,0-3.1-0.4C3.8,12,3.8,11.1,3.8,9.3V5.8h8.3V9.3z M3.3,4.8l-0.8,0c0-0.2,0-0.3,0-0.4 c0.1-0.6,0.6-1.1,1.2-1.2c0.1,0,0.3,0,0.7,0h7.2c0.4,0,0.5,0,0.7,0c0.6,0.1,1.1,0.6,1.2,1.2c0,0.1,0,0.2,0,0.4H3.3z"/>
    <path d="M6.7,11.2h2.7c0.3,0,0.5-0.2,0.5-0.5s-0.2-0.5-0.5-0.5H6.7c-0.3,0-0.5,0.2-0.5,0.5S6.4,11.2,6.7,11.2z"/>
  </symbol>
  <symbol id="statuses" viewBox="0 0 16 16" >
    <path d="M13.3,8.3c-0.1,2.8-2.5,5.1-5.4,5.1C5,13.4,2.6,11,2.6,8c0-2.9,2.3-5.2,5.1-5.4c0.1-0.4,0.2-0.7,0.4-1c0,0-0.1,0-0.1,0 C4.4,1.7,1.6,4.5,1.6,8c0,3.5,2.9,6.4,6.4,6.4s6.4-2.9,6.4-6.4c0,0,0-0.1,0-0.1C14,8.1,13.7,8.2,13.3,8.3z"/>
    <ellipse cx="12.1" cy="3.9" rx="2.5" ry="2.5"/>
  </symbol>
  <symbol id='open' viewBox="0 0 16 16">
    <path d="M14,13.1H9.2c-0.3,0-0.5,0.2-0.5,0.5s0.2,0.5,0.5,0.5H14c0.3,0,0.5-0.2,0.5-0.5S14.3,13.1,14,13.1z"/>
    <path d="M11.4,7.1C11.4,7.1,11.4,7.1,11.4,7.1c1.2-1.6,1.3-1.6,1.3-1.6C12.9,5,13,4.5,12.9,4c-0.1-0.5-0.4-0.9-0.8-1.2 c0,0-1.1-0.9-1.1-0.9c-0.8-0.7-2.1-0.6-2.8,0.3c0,0,0,0,0,0l-6.3,7.9c-0.3,0.4-0.4,0.9-0.3,1.4l0.5,2.3c0.1,0.2,0.3,0.4,0.5,0.4 c0,0,0,0,0,0l2.4,0c0.5,0,1-0.2,1.3-0.6C8.9,10.2,10.5,8.2,11.4,7.1C11.4,7.1,11.4,7.1,11.4,7.1z M8.9,2.8c0.3-0.4,1-0.5,1.4-0.1 c0,0,1.2,0.9,1.2,0.9c0.2,0.1,0.4,0.3,0.4,0.6c0.1,0.2,0,0.5-0.1,0.7c0,0-0.4,0.5-0.9,1.2L8.1,3.9L8.9,2.8z M5.5,12.9 C5.4,13,5.2,13.1,5,13.1l-2,0l-0.5-1.9c0-0.2,0-0.4,0.1-0.5l4.8-6l2.8,2.2C8.9,8.6,6.8,11.2,5.5,12.9z"/>
  </symbol>

  <symbol id='arrow-right' viewBox="0 0 16 16">
    <path d="M13.334 8L13.6875 7.64645L14.0411 8L13.6875 8.35355L13.334 8ZM3.33398 8.5C3.05784 8.5 2.83398 8.27614 2.83398 8C2.83398 7.72386 3.05784 7.5 3.33398 7.5V8.5ZM9.68754 3.64645L13.6875 7.64645L12.9804 8.35355L8.98043 4.35355L9.68754 3.64645ZM13.6875 8.35355L9.68754 12.3536L8.98043 11.6464L12.9804 7.64645L13.6875 8.35355ZM13.334 8.5H3.33398V7.5H13.334V8.5Z"/>
  </symbol>


</svg>
