<svg xmlns="http://www.w3.org/2000/svg" style="display: none;">
  <symbol id="table" viewBox="0 0 16 16">
    <path d="M1 1.8C1 1.51997 1 1.37996 1.0545 1.273C1.10243 1.17892 1.17892 1.10243 1.273 1.0545C1.37996 1 1.51997 1 1.8 1H14.2C14.48 1 14.62 1 14.727 1.0545C14.8211 1.10243 14.8976 1.17892 14.9455 1.273C15 1.37996 15 1.51997 15 1.8V2.2C15 2.48003 15 2.62004 14.9455 2.727C14.8976 2.82108 14.8211 2.89757 14.727 2.9455C14.62 3 14.48 3 14.2 3H1.8C1.51997 3 1.37996 3 1.273 2.9455C1.17892 2.89757 1.10243 2.82108 1.0545 2.727C1 2.62004 1 2.48003 1 2.2V1.8Z" />
    <path d="M1 13.8C1 13.52 1 13.38 1.0545 13.273C1.10243 13.1789 1.17892 13.1024 1.273 13.0545C1.37996 13 1.51997 13 1.8 13H14.2C14.48 13 14.62 13 14.727 13.0545C14.8211 13.1024 14.8976 13.1789 14.9455 13.273C15 13.38 15 13.52 15 13.8V14.2C15 14.48 15 14.62 14.9455 14.727C14.8976 14.8211 14.8211 14.8976 14.727 14.9455C14.62 15 14.48 15 14.2 15H1.8C1.51997 15 1.37996 15 1.273 14.9455C1.17892 14.8976 1.10243 14.8211 1.0545 14.727C1 14.62 1 14.48 1 14.2V13.8Z" />
    <path d="M1 9.8C1 9.51997 1 9.37996 1.0545 9.273C1.10243 9.17892 1.17892 9.10243 1.273 9.0545C1.37996 9 1.51997 9 1.8 9H14.2C14.48 9 14.62 9 14.727 9.0545C14.8211 9.10243 14.8976 9.17892 14.9455 9.273C15 9.37996 15 9.51997 15 9.8V10.2C15 10.48 15 10.62 14.9455 10.727C14.8976 10.8211 14.8211 10.8976 14.727 10.9455C14.62 11 14.48 11 14.2 11H1.8C1.51997 11 1.37996 11 1.273 10.9455C1.17892 10.8976 1.10243 10.8211 1.0545 10.727C1 10.62 1 10.48 1 10.2V9.8Z" />
    <path d="M1 5.8C1 5.51997 1 5.37996 1.0545 5.273C1.10243 5.17892 1.17892 5.10243 1.273 5.0545C1.37996 5 1.51997 5 1.8 5H14.2C14.48 5 14.62 5 14.727 5.0545C14.8211 5.10243 14.8976 5.17892 14.9455 5.273C15 5.37996 15 5.51997 15 5.8V6.2C15 6.48003 15 6.62004 14.9455 6.727C14.8976 6.82108 14.8211 6.89757 14.727 6.9455C14.62 7 14.48 7 14.2 7H1.8C1.51997 7 1.37996 7 1.273 6.9455C1.17892 6.89757 1.10243 6.82108 1.0545 6.727C1 6.62004 1 6.48003 1 6.2V5.8Z" />
  </symbol>
   <symbol id="list" viewBox="0 0 20 20">
    <path d="M5 3.75H18.75V5H5V3.75Z" />
    <path d="M5 9.375H18.75V10.625H5V9.375Z" />
    <path d="M5 15H18.75V16.25H5V15Z" />
    <path d="M1.25 3.75H3.125V5H1.25V3.75Z" />
    <path d="M1.25 9.375H3.125V10.625H1.25V9.375Z" />
    <path d="M1.25 15H3.125V16.25H1.25V15Z" />
  </symbol>
  <symbol id="card" viewBox="0 0 16 16">
    <path d="M1 2.6C1 2.03995 1 1.75992 1.10899 1.54601C1.20487 1.35785 1.35785 1.20487 1.54601 1.10899C1.75992 1 2.03995 1 2.6 1H5.4C5.96005 1 6.24008 1 6.45399 1.10899C6.64215 1.20487 6.79513 1.35785 6.89101 1.54601C7 1.75992 7 2.03995 7 2.6V3.4C7 3.96005 7 4.24008 6.89101 4.45399C6.79513 4.64215 6.64215 4.79513 6.45399 4.89101C6.24008 5 5.96005 5 5.4 5H2.6C2.03995 5 1.75992 5 1.54601 4.89101C1.35785 4.79513 1.20487 4.64215 1.10899 4.45399C1 4.24008 1 3.96005 1 3.4V2.6Z" />
    <path d="M9 2.6C9 2.03995 9 1.75992 9.10899 1.54601C9.20487 1.35785 9.35785 1.20487 9.54601 1.10899C9.75992 1 10.0399 1 10.6 1H13.4C13.9601 1 14.2401 1 14.454 1.10899C14.6422 1.20487 14.7951 1.35785 14.891 1.54601C15 1.75992 15 2.03995 15 2.6V3.4C15 3.96005 15 4.24008 14.891 4.45399C14.7951 4.64215 14.6422 4.79513 14.454 4.89101C14.2401 5 13.9601 5 13.4 5H10.6C10.0399 5 9.75992 5 9.54601 4.89101C9.35785 4.79513 9.20487 4.64215 9.10899 4.45399C9 4.24008 9 3.96005 9 3.4V2.6Z" />
    <path d="M1 7.6C1 7.03995 1 6.75992 1.10899 6.54601C1.20487 6.35785 1.35785 6.20487 1.54601 6.10899C1.75992 6 2.03995 6 2.6 6H5.4C5.96005 6 6.24008 6 6.45399 6.10899C6.64215 6.20487 6.79513 6.35785 6.89101 6.54601C7 6.75992 7 7.03995 7 7.6V8.4C7 8.96005 7 9.24008 6.89101 9.45399C6.79513 9.64215 6.64215 9.79513 6.45399 9.89101C6.24008 10 5.96005 10 5.4 10H2.6C2.03995 10 1.75992 10 1.54601 9.89101C1.35785 9.79513 1.20487 9.64215 1.10899 9.45399C1 9.24008 1 8.96005 1 8.4V7.6Z" />
    <path d="M9 7.6C9 7.03995 9 6.75992 9.10899 6.54601C9.20487 6.35785 9.35785 6.20487 9.54601 6.10899C9.75992 6 10.0399 6 10.6 6H13.4C13.9601 6 14.2401 6 14.454 6.10899C14.6422 6.20487 14.7951 6.35785 14.891 6.54601C15 6.75992 15 7.03995 15 7.6V8.4C15 8.96005 15 9.24008 14.891 9.45399C14.7951 9.64215 14.6422 9.79513 14.454 9.89101C14.2401 10 13.9601 10 13.4 10H10.6C10.0399 10 9.75992 10 9.54601 9.89101C9.35785 9.79513 9.20487 9.64215 9.10899 9.45399C9 9.24008 9 8.96005 9 8.4V7.6Z" />
    <path d="M1 12.6C1 12.0399 1 11.7599 1.10899 11.546C1.20487 11.3578 1.35785 11.2049 1.54601 11.109C1.75992 11 2.03995 11 2.6 11H5.4C5.96005 11 6.24008 11 6.45399 11.109C6.64215 11.2049 6.79513 11.3578 6.89101 11.546C7 11.7599 7 12.0399 7 12.6V13.4C7 13.9601 7 14.2401 6.89101 14.454C6.79513 14.6422 6.64215 14.7951 6.45399 14.891C6.24008 15 5.96005 15 5.4 15H2.6C2.03995 15 1.75992 15 1.54601 14.891C1.35785 14.7951 1.20487 14.6422 1.10899 14.454C1 14.2401 1 13.9601 1 13.4V12.6Z" />
    <path d="M9 12.6C9 12.0399 9 11.7599 9.10899 11.546C9.20487 11.3578 9.35785 11.2049 9.54601 11.109C9.75992 11 10.0399 11 10.6 11H13.4C13.9601 11 14.2401 11 14.454 11.109C14.6422 11.2049 14.7951 11.3578 14.891 11.546C15 11.7599 15 12.0399 15 12.6V13.4C15 13.9601 15 14.2401 14.891 14.454C14.7951 14.6422 14.6422 14.7951 14.454 14.891C14.2401 15 13.9601 15 13.4 15H10.6C10.0399 15 9.75992 15 9.54601 14.891C9.35785 14.7951 9.20487 14.6422 9.10899 14.454C9 14.2401 9 13.9601 9 13.4V12.6Z" />
  </symbol>
  <symbol id="timeline" viewBox="0 0 14 14">
    <rect x="6" y="1" width="7" height="2.5" rx="0.5" />
    <rect x="1" y="5.75" width="9" height="2.5" rx="0.5" />
    <rect x="4" y="10.5" width="9" height="2.5" rx="0.5" />
  </symbol>
  <symbol id="delete" viewBox="0 0 32 32">
    <path d="M12 23C12 23.5523 12.4477 24 13 24C13.5523 24 14 23.5523 14 23V13C14 12.4477 13.5523 12 13 12C12.4477 12 12 12.4477 12 13V23Z" />
    <path d="M20 23C20 23.5523 19.5523 24 19 24C18.4477 24 18 23.5523 18 23V13C18 12.4477 18.4477 12 19 12C19.5523 12 20 12.4477 20 13V23Z" />
    <path fill-rule="evenodd" clip-rule="evenodd" d="M15 2C13.3431 2 12 3.34315 12 5V6H5C4.44772 6 4 6.44772 4 7C4 7.55228 4.44772 8 5 8H6V26C6 28.2091 7.79086 30 10 30H22C24.2091 30 26 28.2091 26 26V8H27C27.5523 8 28 7.55228 28 7C28 6.44772 27.5523 6 27 6H20V5C20 3.34315 18.6569 2 17 2H15ZM18 6V5C18 4.44772 17.5523 4 17 4H15C14.4477 4 14 4.44772 14 5V6H18ZM8 26V8H24V26C24 27.1046 23.1046 28 22 28H10C8.89543 28 8 27.1046 8 26Z" />
  </symbol>
  <symbol id="move" viewBox="0 0 16 16">
    <path d="M8 0.499878L5.5 2.99988L6.205 3.70488L7.5 2.41488V6.49988C7.5 6.77602 7.72386 6.99988 8 6.99988C8.27614 6.99988 8.5 6.77602 8.5 6.49988V2.41488L9.795 3.70488L10.5 2.99988L8 0.499878Z" />
    <path d="M9.795 12.2949L8.5 13.5849V9.49988C8.5 9.22374 8.27614 8.99988 8 8.99988C7.72386 8.99988 7.5 9.22374 7.5 9.49988V13.5849L6.205 12.2949L5.5 12.9999L8 15.4999L10.5 12.9999L9.795 12.2949Z" />
    <path d="M0.5 7.99988L3 10.4999L3.705 9.79488L2.415 8.49988H6.5C6.77614 8.49988 7 8.27602 7 7.99988C7 7.72374 6.77614 7.49988 6.5 7.49988H2.415L3.705 6.20488L3 5.49988L0.5 7.99988Z" />
    <path d="M12.295 6.20488L13.585 7.49988H9.5C9.22386 7.49988 9 7.72374 9 7.99988C9 8.27602 9.22386 8.49988 9.5 8.49988H13.585L12.295 9.79488L13 10.4999L15.5 7.99988L13 5.49988L12.295 6.20488Z" />
  </symbol>
  <symbol id="more-h" viewBox="0 0 16 16">
    <path d="M8,6.6C7.2,6.6,6.6,7.2,6.6,8c0,0.8,0.6,1.4,1.4,1.4S9.4,8.8,9.4,8C9.4,7.2,8.8,6.6,8,6.6z" />
    <path d="M3.2,6.6C2.4,6.6,1.8,7.2,1.8,8c0,0.8,0.6,1.4,1.4,1.4S4.6,8.8,4.6,8C4.6,7.2,4,6.6,3.2,6.6z" />
    <path d="M12.8,6.6c-0.8,0-1.4,0.6-1.4,1.4c0,0.8,0.6,1.4,1.4,1.4s1.4-0.6,1.4-1.4C14.2,7.2,13.6,6.6,12.8,6.6z" />
  </symbol>
  <symbol id="archive" viewBox="0 0 32 32">
    <path fill-rule="evenodd" clip-rule="evenodd" d="M2 8C2 5.79086 3.79086 4 6 4H26C28.2091 4 30 5.79086 30 8V11C30 11.5523 29.5523 12 29 12H28V26C28 28.2091 26.2091 30 24 30H8C5.79086 30 4 28.2091 4 26V12H3C2.44772 12 2 11.5523 2 11V8ZM4 10H28V8C28 6.89543 27.1046 6 26 6H6C4.89543 6 4 6.89543 4 8V10ZM6 12V26C6 27.1046 6.89543 28 8 28H24C25.1046 28 26 27.1046 26 26V12H6ZM10 16C10 15.4477 10.4477 15 11 15H21C21.5523 15 22 15.4477 22 16V17C22 19.2091 20.2091 21 18 21H14C11.7909 21 10 19.2091 10 17V16ZM12 17C12 18.1046 12.8954 19 14 19H18C19.1046 19 20 18.1046 20 17H12Z" />
  </symbol>
  <symbol id="statuses" viewBox="0 0 32 32">
    <path fill-rule="evenodd" clip-rule="evenodd" d="M19.1058 4.4089C16.5542 3.7252 13.8484 3.90255 11.4078 4.91345C8.96729 5.92435 6.92852 7.7123 5.60772 10C4.28691 12.2877 3.75788 14.9473 4.10268 17.5663C4.44748 20.1853 5.64684 22.6174 7.51474 24.4853C9.38264 26.3532 11.8147 27.5525 14.4337 27.8973C17.0527 28.2421 19.7123 27.7131 22 26.3923C24.2877 25.0715 26.0757 23.0327 27.0866 20.5922C28.0975 18.1517 28.2748 15.4458 27.5911 12.8942C27.4482 12.3607 27.7648 11.8124 28.2982 11.6694C28.8317 11.5265 29.38 11.8431 29.523 12.3765C30.3206 15.3534 30.1137 18.5103 28.9343 21.3576C27.7549 24.2049 25.669 26.5834 23 28.1244C20.331 29.6653 17.2282 30.2825 14.1727 29.8802C11.1171 29.478 8.27974 28.0787 6.10052 25.8995C3.92131 23.7203 2.52206 20.8829 2.11979 17.8274C1.71753 14.7719 2.33473 11.669 3.87567 9C5.41661 6.33102 7.79517 4.24507 10.6425 3.06569C13.4897 1.88631 16.6466 1.67939 19.6235 2.47704C20.157 2.61999 20.4735 3.16832 20.3306 3.70179C20.1877 4.23526 19.6393 4.55184 19.1058 4.4089Z" />
    <path fill-rule="evenodd" clip-rule="evenodd" d="M26 8.00001C27.1046 8.00001 28 7.10457 28 6.00001C28 4.89544 27.1046 4.00001 26 4.00001C24.8955 4.00001 24 4.89544 24 6.00001C24 7.10457 24.8955 8.00001 26 8.00001ZM26 10C28.2092 10 30 8.20914 30 6.00001C30 3.79087 28.2092 2.00001 26 2.00001C23.7909 2.00001 22 3.79087 22 6.00001C22 8.20914 23.7909 10 26 10Z" />
  </symbol>
  <symbol id="open" viewBox="0 0 32 32">
    <path d="M20 2V4H26.586L18.293 12.2929C17.9024 12.6834 17.9024 13.3166 18.293 13.7071C18.6835 14.0976 19.3167 14.0976 19.7072 13.7071L28 5.414V12H30V2H20Z" />
    <path d="M13.7073 19.7071C14.0978 19.3166 14.0978 18.6834 13.7073 18.2929C13.3167 17.9024 12.6836 17.9024 12.293 18.2929L4 26.586V20H2V30H12V28H5.414L13.7073 19.7071Z" />
  </symbol>
  <symbol id="edit" viewBox="0 0 32 32">
    <path d="M16 29C16 28.4477 16.4477 28 17 28H29C29.5523 28 30 28.4477 30 29C30 29.5523 29.5523 30 29 30H17C16.4477 30 16 29.5523 16 29Z" />
    <path fill-rule="evenodd" clip-rule="evenodd" d="M25.1214 2.87868C23.9498 1.70711 22.0503 1.70711 20.8787 2.87868L2.87868 20.8787C2.31607 21.4413 2 22.2044 2 23V29C2 29.5523 2.44772 30 3 30H9.00004C9.79568 30 10.5587 29.6839 11.1214 29.1213L29.1214 11.1213C30.2929 9.94975 30.2929 8.05025 29.1214 6.87868L25.1214 2.87868ZM22.2929 4.29289C22.6835 3.90237 23.3166 3.90237 23.7071 4.29289L27.7071 8.29289C28.0977 8.68342 28.0977 9.31658 27.7071 9.70711L23.9143 13.5L18.5001 8.08574L22.2929 4.29289ZM17.0859 9.49996L4.29289 22.2929C4.10536 22.4805 4 22.7348 4 23V28H9.00004C9.26525 28 9.51961 27.8946 9.70714 27.7071L22.5001 14.9142L17.0859 9.49996Z" />
  </symbol>
  <symbol id="copyId" viewBox="0 0 16 16">
    <path d="M5 7C4.72386 7 4.5 7.22386 4.5 7.5C4.5 7.77614 4.72386 8 5 8H11C11.2761 8 11.5 7.77614 11.5 7.5C11.5 7.22386 11.2761 7 11 7H5Z" />
    <path d="M4.5 9.5C4.5 9.22386 4.72386 9 5 9H9C9.27614 9 9.5 9.22386 9.5 9.5C9.5 9.77614 9.27614 10 9 10H5C4.72386 10 4.5 9.77614 4.5 9.5Z" />
    <path d="M5 11C4.72386 11 4.5 11.2239 4.5 11.5C4.5 11.7761 4.72386 12 5 12H8C8.27614 12 8.5 11.7761 8.5 11.5C8.5 11.2239 8.27614 11 8 11H5Z" />
    <path fill-rule="evenodd" clip-rule="evenodd" d="M9.5 1C10.1531 1 10.7087 1.4174 10.9146 2H11.5C12.6046 2 13.5 2.89543 13.5 4V13C13.5 14.1046 12.6046 15 11.5 15H4.5C3.39543 15 2.5 14.1046 2.5 13V4C2.5 2.89543 3.39543 2 4.5 2H5.08535C5.29127 1.4174 5.84689 1 6.5 1H9.5ZM6 2.5C6 2.22386 6.22386 2 6.5 2H9.5C9.77614 2 10 2.22386 10 2.5C10 2.77614 9.77614 3 9.5 3H6.5C6.22386 3 6 2.77614 6 2.5ZM9.5 4C10.1531 4 10.7087 3.5826 10.9146 3H11.5C12.0523 3 12.5 3.44772 12.5 4V13C12.5 13.5523 12.0523 14 11.5 14H4.5C3.94772 14 3.5 13.5523 3.5 13V4C3.5 3.44772 3.94772 3 4.5 3H5.08535C5.29127 3.5826 5.84689 4 6.5 4H9.5Z" />
  </symbol>
  <symbol id="copyLink" viewBox="0 0 16 16">
    <path d="M14.6,3.4c-0.3-0.3-0.6-0.5-1-0.7c-0.4-0.2-0.8-0.2-1.2-0.2c-0.4,0-0.8,0.1-1.2,0.2c-0.2,0.1-0.4,0.2-0.6,0.3c-0.2,0.2-0.2,0.5,0,0.7c0.2,0.2,0.5,0.2,0.7,0c0.1,0,0.2-0.1,0.3-0.1c0.2-0.1,0.5-0.2,0.8-0.2c0.3,0,0.5,0.1,0.8,0.2s0.5,0.2,0.7,0.4c0.2,0.2,0.3,0.4,0.4,0.7c0.1,0.2,0.2,0.5,0.2,0.8c0,0.3-0.1,0.5-0.2,0.8c-0.1,0.2-0.2,0.5-0.4,0.7l-4,4c-0.4,0.4-0.9,0.6-1.4,0.6c-0.5,0-1-0.2-1.4-0.6C6.7,10.6,6.5,10,6.5,9.5c0-0.5,0.2-1,0.6-1.4l0.4-0.4c0.2-0.2,0.2-0.5,0-0.7C7.2,6.8,6.9,6.8,6.7,7L6.4,7.4C6.1,7.7,5.9,8,5.7,8.4C5.6,8.7,5.5,9.1,5.5,9.5c0,0.4,0.1,0.8,0.2,1.2c0.2,0.4,0.4,0.7,0.7,1c0.6,0.6,1.3,0.9,2.1,0.9c0.4,0,0.8-0.1,1.2-0.2c0.4-0.2,0.7-0.4,1-0.7l4-4c0.6-0.6,0.9-1.3,0.9-2.1C15.5,4.7,15.2,3.9,14.6,3.4z" />
    <path d="M2.1,12.4c-0.2-0.2-0.3-0.4-0.4-0.6c-0.1-0.2-0.2-0.5-0.2-0.8c0-0.3,0.1-0.5,0.2-0.8C1.8,10,1.9,9.8,2.1,9.6l4-4c0.2-0.2,0.4-0.3,0.6-0.4C7,5,7.2,5,7.5,5C7.8,5,8,5,8.3,5.1c0.2,0.1,0.5,0.2,0.6,0.4C9.1,5.8,9.3,6,9.4,6.2C9.5,6.5,9.5,6.7,9.5,7c0,0.3,0,0.5-0.1,0.8C9.2,8,9.1,8.2,8.9,8.4L8.2,9.1C8,9.3,8,9.7,8.2,9.9c0.2,0.2,0.5,0.2,0.7,0l0.7-0.7c0.6-0.6,0.9-1.3,0.9-2.1c0-0.8-0.3-1.6-0.9-2.1C9.1,4.3,8.3,4,7.5,4C6.7,4,5.9,4.3,5.4,4.9l-4,4c-0.3,0.3-0.5,0.6-0.7,1c-0.2,0.4-0.2,0.8-0.2,1.2c0,0.4,0.1,0.8,0.2,1.2c0.2,0.4,0.4,0.7,0.7,1C1.9,13.7,2.7,14,3.5,14c0.6,0,1.2-0.2,1.8-0.6c0.2-0.2,0.2-0.5,0-0.7c-0.2-0.2-0.5-0.2-0.7,0c-0.1,0-0.2,0.1-0.3,0.1C4,12.9,3.8,13,3.5,13c-0.3,0-0.5-0.1-0.8-0.2S2.3,12.6,2.1,12.4z" />
  </symbol>

  <symbol id="arrow-right" viewBox="0 0 16 16">
    <path d="M13.334 8L13.6875 7.64645L14.0411 8L13.6875 8.35355L13.334 8ZM3.33398 8.5C3.05784 8.5 2.83398 8.27614 2.83398 8C2.83398 7.72386 3.05784 7.5 3.33398 7.5V8.5ZM9.68754 3.64645L13.6875 7.64645L12.9804 8.35355L8.98043 4.35355L9.68754 3.64645ZM13.6875 8.35355L9.68754 12.3536L8.98043 11.6464L12.9804 7.64645L13.6875 8.35355ZM13.334 8.5H3.33398V7.5H13.334V8.5Z"/>
  </symbol>
  <symbol id="setting" viewBox="0 0 24 24">
    <g>
      <path d="M12,16.9c2.7,0,4.9-2.2,4.9-4.9S14.7,7.1,12,7.1S7.1,9.3,7.1,12S9.3,16.9,12,16.9z M12,8.7c1.8,0,3.3,1.5,3.3,3.3 s-1.5,3.3-3.3,3.3S8.7,13.8,8.7,12S10.2,8.7,12,8.7z"/>
      <path d="M23,10.8L23,10.8c0-0.2,0-0.4-0.1-0.6c-0.2-0.4-0.5-0.7-0.8-0.9c-0.2-0.1-0.3-0.1-0.5-0.2c-0.2,0-0.3,0-0.6-0.1C20.5,9,20.2,9,20,8.9c-0.1,0-0.2,0-0.2,0c-0.1-0.1-0.1-0.1-0.1-0.2c0,0,0-0.1,0.1-0.2c0.1-0.2,0.3-0.4,0.6-0.7c0.1-0.2,0.2-0.3,0.3-0.4c0.1-0.1,0.1-0.2,0.2-0.3l0,0L21,6.8c0,0,0,0,0,0l0.1-0.2l0,0c0.1-0.3,0-0.7-0.1-1c-0.1-0.2-0.2-0.4-0.3-0.5c-0.1-0.1-0.2-0.2-0.4-0.4l-0.9-0.9c-0.1-0.1-0.3-0.3-0.4-0.4c-0.1-0.1-0.3-0.2-0.5-0.3C18,2.9,17.6,2.9,17.2,3C17,3,16.9,3.1,16.7,3.3c-0.1,0.1-0.3,0.2-0.4,0.3l-0.1,0c-0.3,0.3-0.5,0.4-0.7,0.6c-0.1,0.1-0.2,0.1-0.2,0.1c-0.1,0-0.2,0-0.2-0.1c0,0,0,0-0.1-0.2C15,3.8,15,3.5,15,3.1l0-0.1c0-0.2,0-0.4-0.1-0.5c0-0.2-0.1-0.4-0.2-0.5c-0.2-0.4-0.5-0.7-0.9-0.8C13.6,1,13.4,1,13.2,1c-0.2,0-0.4,0-0.6,0h-1.3c-0.2,0-0.4,0-0.6,0c-0.1,0-0.3,0-0.6,0.1C9.8,1.3,9.5,1.6,9.3,2C9.2,2.1,9.2,2.3,9.1,2.5c0,0.2,0,0.3-0.1,0.6C9,3.5,9,3.8,8.9,4c0,0.1,0,0.2,0,0.2c0,0,0,0,0,0C8.8,4.3,8.8,4.3,8.7,4.3c0,0-0.1,0-0.2-0.1C8.3,4.1,8.1,3.9,7.8,3.6C7.6,3.5,7.5,3.3,7.3,3.3C7.2,3.2,7,3.1,6.8,3C6.4,2.9,6,2.9,5.6,3.1C5.4,3.1,5.2,3.3,5.1,3.4C5,3.5,4.8,3.6,4.7,3.8L3.8,4.7C3.6,4.8,3.5,5,3.4,5.1C3.3,5.2,3.1,5.4,3.1,5.6C2.9,6,2.9,6.4,3,6.8C3.1,7,3.2,7.2,3.3,7.3c0.1,0.1,0.2,0.3,0.4,0.5c0.3,0.3,0.4,0.5,0.6,0.7c0.1,0.1,0.1,0.2,0.1,0.2c0,0.1,0,0.2-0.1,0.2c0,0,0,0-0.2,0.1C3.8,9,3.5,9,3.1,9.1c-0.2,0-0.4,0-0.6,0.1c-0.1,0-0.2,0-0.3,0.1l0,0L2,9.3c0,0,0,0,0,0L1.7,9.4l0,0c-0.3,0.2-0.5,0.5-0.6,0.8C1,10.4,1,10.6,1,10.8c0,0.2,0,0.4,0,0.6v1.3c0,0.2,0,0.4,0,0.6c0,0.1,0,0.3,0.1,0.6c0.2,0.4,0.5,0.7,0.8,0.9c0.2,0.1,0.3,0.1,0.5,0.2c0.1,0,0.3,0,0.5,0.1l0.1,0C3.5,15,3.8,15,4,15.1c0.1,0,0.2,0,0.2,0c0.1,0.1,0.1,0.1,0.1,0.2c0,0,0,0.1-0.1,0.2c-0.1,0.2-0.3,0.4-0.6,0.7l0,0.1c-0.1,0.2-0.2,0.3-0.3,0.4C3.1,16.9,3,17,3,17.2c-0.1,0.4-0.1,0.9,0.1,1.3c0.1,0.2,0.2,0.4,0.3,0.5c0.1,0.1,0.2,0.2,0.4,0.4l0.9,0.9c0.2,0.2,0.3,0.3,0.4,0.4c0.1,0.1,0.3,0.2,0.5,0.3C6,21.1,6.4,21.1,6.8,21c0.2-0.1,0.4-0.2,0.5-0.3c0.1-0.1,0.3-0.2,0.5-0.4c0.3-0.3,0.5-0.4,0.7-0.6c0.1-0.1,0.2-0.1,0.2-0.1c0.1,0,0.2,0,0.2,0.1c0,0,0,0,0.1,0.2c0,0.2,0.1,0.5,0.1,0.9c0,0.2,0,0.4,0.1,0.6c0,0.2,0.1,0.4,0.2,0.5c0.2,0.4,0.5,0.7,0.9,0.8c0.2,0.1,0.4,0.1,0.6,0.1c0.2,0,0.4,0,0.6,0h1.3c0.2,0,0.4,0,0.6,0c0.1,0,0.3,0,0.6-0.1c0.4-0.2,0.7-0.5,0.9-0.8c0.1-0.2,0.1-0.4,0.2-0.5c0-0.1,0-0.3,0.1-0.5l0-0.1c0-0.4,0.1-0.7,0.1-0.9c0-0.1,0-0.2,0-0.2c0.1-0.1,0.1-0.1,0.2-0.1c0,0,0.1,0,0.2,0.1c0.2,0.1,0.4,0.3,0.7,0.5l0.1,0.1c0.2,0.1,0.3,0.2,0.4,0.3c0.1,0.1,0.3,0.2,0.5,0.3c0.4,0.1,0.9,0.1,1.3-0.1c0.2-0.1,0.4-0.2,0.5-0.3c0.1-0.1,0.3-0.2,0.4-0.4l0.9-0.9c0.1-0.1,0.3-0.3,0.4-0.4c0.1-0.1,0.2-0.3,0.3-0.5c0.2-0.4,0.2-0.8,0.1-1.3c-0.1-0.2-0.1-0.3-0.3-0.5c-0.1-0.1-0.2-0.3-0.4-0.5c-0.3-0.3-0.4-0.5-0.6-0.7c-0.1-0.1-0.1-0.2-0.1-0.2c0-0.1,0-0.2,0.1-0.2c0,0,0,0,0.2-0.1c0.2,0,0.5-0.1,0.9-0.1c0.2,0,0.4,0,0.6-0.1c0.1,0,0.3-0.1,0.5-0.2c0.4-0.2,0.7-0.5,0.8-0.9c0.1-0.2,0.1-0.4,0.1-0.6c0-0.2,0-0.4,0-0.6v-1.3C23,11.1,23,10.9,23,10.8z M2.5,13.1c0-0.1,0-0.3,0-0.5v-1.3c0-0.2,0-0.4,0-0.5c0-0.1,0-0.1,0-0.1c0,0,0,0,0,0c0-0.1,0.1-0.1,0.1-0.1c0,0,0,0,0.1,0c0.1,0,0.2,0,0.5-0.1c0.4,0,0.8-0.1,1-0.1c0.3,0,0.6-0.1,0.8-0.3c0.5-0.4,0.8-1,0.7-1.7c0-0.3-0.2-0.6-0.4-0.8C5.3,7.4,5.1,7.1,4.8,6.8C4.7,6.6,4.6,6.5,4.5,6.4c0-0.1-0.1-0.1-0.1-0.1c0-0.1,0-0.1,0-0.2c0,0,0,0,0.1-0.1C4.6,6,4.7,5.9,4.9,5.8l0.9-0.9C5.9,4.7,6,4.6,6.1,4.5c0.1,0,0.1-0.1,0.1-0.1c0,0,0,0,0,0c0.1,0,0.1,0,0.2,0c0,0,0,0,0.1,0.1c0.1,0.1,0.2,0.2,0.4,0.3c0.3,0.3,0.6,0.5,0.8,0.6c0.2,0.1,0.5,0.3,0.8,0.4c0.6,0.1,1.3-0.2,1.7-0.7c0.2-0.3,0.3-0.6,0.3-0.8c0-0.3,0.1-0.6,0.1-1c0-0.2,0-0.4,0.1-0.5c0-0.1,0-0.1,0-0.1c0,0,0,0,0,0c0-0.1,0.1-0.1,0.1-0.1c0,0,0,0,0.1,0c0.1,0,0.2,0,0.5,0h1.3c0.2,0,0.4,0,0.5,0c0.1,0,0.1,0,0.1,0c0.1,0,0.1,0.1,0.1,0.1c0,0,0,0,0,0.1c0,0.1,0,0.2,0.1,0.5c0,0.4,0.1,0.8,0.1,1c0,0.3,0.1,0.6,0.3,0.8c0.4,0.5,1,0.8,1.7,0.7c0.3,0,0.6-0.2,0.8-0.4c0.2-0.2,0.5-0.4,0.8-0.6c0.2-0.1,0.3-0.2,0.4-0.3c0.1,0,0.1-0.1,0.1-0.1c0.1,0,0.1,0,0.2,0c0,0,0,0,0.1,0.1c0.1,0.1,0.2,0.2,0.3,0.3l0.9,0.9c0.2,0.2,0.3,0.3,0.3,0.3c0,0.1,0.1,0.1,0.1,0.1c0,0.1,0,0.1,0,0.2c0,0,0,0-0.1,0.1c-0.1,0.1-0.2,0.2-0.3,0.4c-0.3,0.3-0.5,0.6-0.6,0.8c-0.1,0.2-0.3,0.5-0.4,0.8c-0.1,0.6,0.2,1.3,0.7,1.7c0.3,0.2,0.6,0.3,0.8,0.3c0.3,0,0.6,0.1,1,0.1c0.2,0,0.4,0,0.5,0.1c0.1,0,0.1,0,0.1,0c0,0,0,0,0,0c0.1,0,0.1,0.1,0.1,0.1c0,0,0,0,0,0.1c0,0.1,0,0.3,0,0.5v1.3c0,0.2,0,0.4,0,0.5c0,0.1,0,0.1,0,0.1c0,0.1-0.1,0.1-0.1,0.1c0,0,0,0-0.1,0c-0.1,0-0.2,0-0.5,0.1c-0.4,0-0.7,0.1-1,0.1c-0.3,0-0.6,0.1-0.8,0.3c-0.5,0.4-0.8,1-0.7,1.7c0,0.3,0.2,0.6,0.4,0.8c0.2,0.2,0.4,0.5,0.6,0.8c0.1,0.2,0.2,0.3,0.3,0.4c0,0.1,0.1,0.1,0.1,0.1c0,0.1,0,0.1,0,0.2c0,0,0,0-0.1,0.1c-0.1,0.1-0.2,0.2-0.3,0.3l-0.9,0.9c-0.2,0.2-0.3,0.3-0.3,0.3c0,0-0.1,0.1-0.1,0.1c-0.1,0-0.1,0-0.2,0c0,0,0,0-0.1-0.1c-0.1-0.1-0.2-0.2-0.4-0.3c-0.3-0.3-0.6-0.5-0.8-0.6c-0.2-0.1-0.5-0.3-0.8-0.4c-0.6-0.1-1.3,0.2-1.7,0.7c-0.2,0.3-0.3,0.6-0.3,0.8c0,0.3-0.1,0.6-0.1,1c0,0.2,0,0.4-0.1,0.5c0,0.1,0,0.1,0,0.1c0,0.1-0.1,0.1-0.1,0.1c0,0,0,0-0.1,0c-0.1,0-0.2,0-0.5,0h-1.3c-0.2,0-0.4,0-0.5,0c-0.1,0-0.1,0-0.1,0c-0.1,0-0.1-0.1-0.1-0.1c0,0,0,0,0-0.1c0-0.1,0-0.2-0.1-0.5c0-0.4-0.1-0.8-0.1-1c0-0.3-0.1-0.6-0.3-0.8c-0.4-0.5-1-0.8-1.7-0.7c-0.3,0-0.6,0.2-0.8,0.4c-0.2,0.1-0.5,0.4-0.8,0.6c-0.2,0.1-0.3,0.2-0.4,0.3c-0.1,0-0.1,0.1-0.1,0.1c-0.1,0-0.1,0-0.2,0c0,0,0,0-0.1-0.1c-0.1-0.1-0.2-0.2-0.3-0.3l-0.9-0.9c-0.2-0.2-0.3-0.3-0.3-0.3c0-0.1-0.1-0.1-0.1-0.1c0-0.1,0-0.1,0-0.2c0,0,0,0,0.1-0.1c0.1-0.1,0.2-0.2,0.3-0.4c0.3-0.3,0.5-0.6,0.6-0.8c0.1-0.2,0.3-0.5,0.4-0.8c0.1-0.6-0.2-1.3-0.7-1.7c-0.3-0.2-0.6-0.3-0.8-0.3c-0.3,0-0.6-0.1-1-0.1c-0.2,0-0.4,0-0.5-0.1c-0.1,0-0.1,0-0.1,0C2.6,13.3,2.6,13.3,2.5,13.1C2.6,13.2,2.5,13.2,2.5,13.1z M14.7,3.1C14.7,3.1,14.7,3.1,14.7,3.1L14.7,3.1L14.7,3.1z M3.1,14.7C3.1,14.7,3.1,14.7,3.1,14.7L3.1,14.7L3.1,14.7z M3.8,16.4C3.8,16.4,3.8,16.4,3.8,16.4L3.8,16.4L3.8,16.4zM14.7,20.9L14.7,20.9L14.7,20.9L14.7,20.9z"/>
    </g>
  </symbol>
  <symbol id="views" viewBox="0 0 16 16">
    <path d="M12.6541 10.7952L14.7544 11.6213C14.8576 11.6618 14.9394 11.7434 14.9801 11.8466C15.0511 12.0264 14.9828 12.2268 14.827 12.3284L14.755 12.3656L8.35645 14.8924C8.15935 14.9703 7.94372 14.9831 7.74052 14.9309L7.62035 14.8918L1.25259 12.3653C1.1499 12.3246 1.06864 12.2432 1.02806 12.1404C0.957068 11.9607 1.02536 11.7603 1.1812 11.6587L1.25319 11.6215L3.34307 10.7962L7.06917 12.2751C7.65895 12.5091 8.31525 12.5097 8.9054 12.2766L12.6541 10.7952ZM12.6541 6.77688L14.7544 7.60289C14.8576 7.64346 14.9394 7.72508 14.9801 7.82824C15.0511 8.00803 14.9828 8.20839 14.827 8.31004L14.755 8.3472L10.6001 9.98825L9.619 10.375L8.35645 10.8741L8.317 10.886L8.23566 10.9132C8.20301 10.9215 8.17004 10.9282 8.13688 10.9331C8.12585 10.9346 8.11547 10.936 8.10507 10.9372C8.02541 10.9468 7.94422 10.9464 7.86397 10.9363L7.74052 10.9126L7.62035 10.8735L6.391 10.385L5.38907 9.98825L1.25259 8.34697C1.1499 8.30623 1.06864 8.22483 1.02806 8.12208C0.957068 7.94229 1.02536 7.74192 1.1812 7.64029L1.25319 7.60312L3.34307 6.77788L7.06917 8.25677C7.65895 8.49078 8.31525 8.4913 8.9054 8.25824L12.6541 6.77688ZM7.62186 1.06989C7.85734 0.976906 8.11932 0.976697 8.35494 1.06931L14.7544 3.58452C14.8576 3.62509 14.9394 3.70671 14.9801 3.80987C15.0612 4.01534 14.9605 4.24769 14.755 4.32884L10.6001 5.96988L8.35565 6.856L8.27468 6.88396C8.25405 6.8901 8.23326 6.89557 8.21236 6.90036C8.09824 6.92674 7.98013 6.93258 7.86397 6.91788L7.74052 6.89419L7.62035 6.8551L1.25259 4.3286C1.1499 4.28786 1.06864 4.20646 1.02806 4.10371C0.946925 3.89823 1.04772 3.66589 1.25319 3.58475L7.62186 1.06989Z"/>
  </symbol>
  <symbol id="pin" viewBox="0 0 32 32">
    <path fill-rule="evenodd" clip-rule="evenodd" d="M21.7071 2.29289C21.3166 1.90237 20.6834 1.90237 20.2929 2.29289C19.9024 2.68342 19.9024 3.31658 20.2929 3.70711L20.5858 4L14.9628 9.623C14.7214 9.86439 14.394 10 14.0526 10H13.2426C10.2609 10 7.4013 11.1845 5.29289 13.2929C4.90237 13.6834 4.90237 14.3166 5.29289 14.7071L10.5859 20.0001L2 28.5859V30H3.41436L12.0001 21.4143L17.2929 26.7071C17.6834 27.0976 18.3166 27.0976 18.7071 26.7071C20.8155 24.5987 22 21.7391 22 18.7574V17.9474C22 17.606 22.1356 17.2786 22.377 17.0372L28 11.4142L28.2929 11.7071C28.6834 12.0976 29.3166 12.0976 29.7071 11.7071C30.0976 11.3166 30.0976 10.6834 29.7071 10.2929L21.7071 2.29289ZM16.377 11.0372L22 5.41421L26.5858 10L20.9628 15.623C20.3463 16.2395 20 17.0756 20 17.9474V18.7574C20 20.873 19.2746 22.9139 17.9617 24.5474L7.45256 14.0383C9.08614 12.7254 11.127 12 13.2426 12H14.0526C14.9244 12 15.7605 11.6537 16.377 11.0372Z" />
  </symbol>
  <symbol id="model" viewBox="0 0 24 24">
    <path d="M17.2,7.8h3.6c1.1,0,2-0.9,2-2V4.2c0-1.1-0.9-2-2-2h-3.6c-1.1,0-2,0.9-2,2v0H9.8V4c0-1.5-1.2-2.8-2.8-2.8H4 C2.5,1.2,1.2,2.5,1.2,4v2c0,1.5,1.2,2.8,2.8,2.8h3c1.5,0,2.8-1.2,2.8-2.8V5.8h2V18c0,1.5,1.2,2.8,2.8,2.8h0.8v0c0,1.1,0.9,2,2,2h3.6 c1.1,0,2-0.9,2-2v-1.6c0-1.1-0.9-2-2-2h-3.6c-1.1,0-2,0.9-2,2v0h-0.8c-0.7,0-1.2-0.6-1.2-1.2v-4.8h2v0c0,1.1,0.9,2,2,2h3.6 c1.1,0,2-0.9,2-2v-1.6c0-1.1-0.9-2-2-2h-3.6c-1.1,0-2,0.9-2,2v0h-2v-6h2v0C15.2,6.9,16.1,7.8,17.2,7.8z M8.2,6 c0,0.7-0.6,1.2-1.2,1.2H4C3.3,7.2,2.8,6.7,2.8,6V4c0-0.7,0.6-1.2,1.2-1.2h3c0.7,0,1.2,0.6,1.2,1.2V6z M16.8,19.2 c0-0.2,0.2-0.5,0.5-0.5h3.6c0.2,0,0.5,0.2,0.5,0.5v1.6c0,0.2-0.2,0.5-0.5,0.5h-3.6c-0.2,0-0.5-0.2-0.5-0.5V19.2z M16.8,11.7 c0-0.2,0.2-0.5,0.5-0.5h3.6c0.2,0,0.5,0.2,0.5,0.5v1.6c0,0.2-0.2,0.5-0.5,0.5h-3.6c-0.2,0-0.5-0.2-0.5-0.5V11.7z M16.8,4.2 c0-0.2,0.2-0.5,0.5-0.5h3.6c0.2,0,0.5,0.2,0.5,0.5v1.6c0,0.2-0.2,0.5-0.5,0.5h-3.6c-0.2,0-0.5-0.2-0.5-0.5V4.2z" />
  </symbol>
  <symbol id="devmodel" viewBox="0 0 32 32">
    <polygon points="10,8 2,16 10,24 11.4,22.6 4.8,16 11.4,9.4 " />
    <polygon points="22,8 20.6,9.4 27.2,16 20.6,22.6 22,24 30,16 " />
  </symbol>
  <symbol id="viewButton" viewBox="0 0 16 16">
    <path d="M10.5,5.5c-0.3-2.2-2.2-4-4.5-4c-2.5,0-4.5,2.1-4.5,4.5c0,2.3,1.8,4.2,4,4.5c0.3,2.2,2.2,4,4.5,4c2.5,0,4.5-2.1,4.5-4.5C14.6,7.6,12.7,5.8,10.5,5.5z M2.5,6C2.5,4,4,2.5,6,2.5c1.8,0,3.3,1.4,3.4,3.1c-2.1,0.2-3.7,1.8-4,3.9C3.8,9.2,2.5,7.7,2.5,6z M10,13.5c-2,0-3.5-1.5-3.5-3.5S8,6.4,10,6.4S13.5,8,13.5,10S12,13.5,10,13.5z" />
  </symbol>
  <symbol id="filter" viewBox="0 0 24 24">
    <path fill-rule="evenodd" clip-rule="evenodd" d="M2.3,4.2C2.4,3.9,2.7,3.8,3,3.8h18c0.3,0,0.6,0.2,0.7,0.4c0.1,0.3,0.1,0.6-0.1,0.8l-7,8.2V21c0,0.3-0.1,0.5-0.4,0.6c-0.2,0.1-0.5,0.2-0.7,0l-3.6-1.8c-0.3-0.1-0.4-0.4-0.4-0.7v-6L2.4,5C2.2,4.8,2.2,4.5,2.3,4.2z M4.6,5.2l6.1,7.2c0.1,0.1,0.2,0.3,0.2,0.5v5.8l2.1,1v-6.9c0-0.2,0.1-0.4,0.2-0.5l6.1-7.2H4.6z" />
  </symbol>
  <symbol id="configure" viewBox="0 0 16 16">
    <path d="M15 4.5C15 4.22386 14.7761 4 14.5 4H12.95C12.7 2.85 11.7 2 10.5 2C9.3 2 8.3 2.85 8.05 4H1.5C1.22386 4 1 4.22386 1 4.5C1 4.77614 1.22386 5 1.5 5H8.05C8.3 6.15 9.3 7 10.5 7C11.7 7 12.7 6.15 12.95 5H14.5C14.7761 5 15 4.77614 15 4.5ZM10.5 6C9.65 6 9 5.35 9 4.5C9 3.65 9.65 3 10.5 3C11.35 3 12 3.65 12 4.5C12 5.35 11.35 6 10.5 6Z"/>
    <path d="M1 11.5C1 11.7761 1.22386 12 1.5 12H3.05C3.3 13.15 4.3 14 5.5 14C6.7 14 7.7 13.15 7.95 12H14.5C14.7761 12 15 11.7761 15 11.5C15 11.2239 14.7761 11 14.5 11H7.95C7.7 9.85 6.7 9 5.5 9C4.3 9 3.3 9.85 3.05 11H1.5C1.22386 11 1 11.2239 1 11.5ZM5.5 10C6.35 10 7 10.65 7 11.5C7 12.35 6.35 13 5.5 13C4.65 13 4 12.35 4 11.5C4 10.65 4.65 10 5.5 10Z"/>
  </symbol>
</svg>
