<svg xmlns="http://www.w3.org/2000/svg" style="display: none;">
  <symbol id="table" viewBox="0 0 16 16">
    <g>
      <rect width="16" height="1.7" />
      <rect y="7.2" width="16" height="1.7" />
      <rect y="14.3" width="16" height="1.7" />
    </g>
  </symbol>
  <symbol id="card" viewBox="0 0 16 16">
    <g>
      <rect width="2.9" height="2.9" />
      <rect x="6.6" width="2.9" height="2.9" />
      <rect x="13.1" width="2.9" height="2.9" />
      <rect y="6.6" width="2.9" height="2.9" />
      <rect x="6.6" y="6.6" width="2.9" height="2.9" />
      <rect x="13.1" y="6.6" width="2.9" height="2.9" />
      <rect y="13.1" width="2.9" height="2.9" />
      <rect x="6.6" y="13.1" width="2.9" height="2.9" />
      <rect x="13.1" y="13.1" width="2.9" height="2.9" />
    </g>
  </symbol>
  <symbol id="delete" viewBox="0 0 16 16">
    <path d="M14.2,2.8h-2.4c-0.3,0-0.5-0.2-0.6-0.6l-0.2-1C10.9,0.5,10.3,0,9.6,0H6.4C5.7,0,5.1,0.5,4.9,1.3l-0.2,1 C4.7,2.6,4.4,2.8,4.2,2.8H1.8c-0.3,0-0.6,0.3-0.6,0.6S1.4,4,1.8,4h0.4c0.1,1.4,0.4,7.6,0.6,9.7c0.1,1.4,1,2.3,2.3,2.3 C6,16,7,16,8,16c0.9,0,1.9,0,2.9,0c1.3,0,2.2-0.9,2.3-2.3c0.2-2,0.5-8.3,0.6-9.7h0.4c0.3,0,0.6-0.3,0.6-0.6S14.6,2.8,14.2,2.8z M6,2.5l0.2-0.9c0-0.2,0.2-0.3,0.3-0.3h3.1c0.1,0,0.3,0.1,0.3,0.3l0.2,1c0,0.1,0.1,0.2,0.1,0.3H5.8C5.9,2.7,5.9,2.6,6,2.5z M12,13.6 c-0.1,1.2-0.9,1.2-1.1,1.2c-2,0-3.9,0-5.7,0c-0.6,0-1-0.4-1.1-1.2c-0.2-2-0.5-8-0.6-9.5h9.2C12.5,5.5,12.2,11.6,12,13.6z"/>
  </symbol>
  <symbol id="move" viewBox="0 0 16 16">
    <path d="M7.4,2.4v3.3C7.4,6,7.7,6.2,8,6.2c0.3,0,0.6-0.3,0.6-0.6V2.4l1.3,1.4L10.8,3L8.4,0.5L8,0L7.6,0.5L5.2,3 l0.9,0.8L7.4,2.4z"/>
    <path d="M15.5,7.6L13,5.2l-0.8,0.9l1.4,1.3h-3.3C10,7.4,9.8,7.7,9.8,8c0,0.3,0.3,0.6,0.6,0.6h3.3l-1.4,1.3l0.8,0.9 l2.5-2.4L16,8L15.5,7.6z"/>
    <path d="M8.6,13.6v-3.3C8.6,10,8.3,9.8,8,9.8c-0.3,0-0.6,0.3-0.6,0.6v3.3l-1.3-1.4L5.2,13l2.4,2.5L8,16l0.4-0.5 l2.4-2.5l-0.9-0.8L8.6,13.6z"/>
    <path d="M5.6,8.6C6,8.6,6.2,8.3,6.2,8c0-0.3-0.3-0.6-0.6-0.6H2.4l1.4-1.3L3,5.2L0.5,7.6L0,8l0.5,0.4L3,10.8l0.8-0.9 L2.4,8.6H5.6z"/>
  </symbol>
  
  <symbol id='more-h' viewBox="0 0 16 16">
    <path d="M8,6.6C7.2,6.6,6.6,7.2,6.6,8c0,0.8,0.6,1.4,1.4,1.4S9.4,8.8,9.4,8C9.4,7.2,8.8,6.6,8,6.6z" />
    <path d="M3.2,6.6C2.4,6.6,1.8,7.2,1.8,8c0,0.8,0.6,1.4,1.4,1.4S4.6,8.8,4.6,8C4.6,7.2,4,6.6,3.2,6.6z" />
    <path d="M12.8,6.6c-0.8,0-1.4,0.6-1.4,1.4c0,0.8,0.6,1.4,1.4,1.4s1.4-0.6,1.4-1.4C14.2,7.2,13.6,6.6,12.8,6.6z" />
  </symbol>

  <symbol id="archive" viewBox="0 0 16 16" >
    <path d="M14.5,4.3c-0.2-1.1-1-1.9-2.1-2.1c-0.2,0-0.4,0-0.8,0H4.4c-0.4,0-0.6,0-0.8,0c-1.1,0.2-1.9,1-2.1,2.1 c0,0.2,0,0.4,0,0.8l0,0.2c0,0.3,0.3,0.5,0.6,0.6l0.7,0v3.5c0,2,0,3,0.7,3.8c0.7,0.7,1.8,0.7,3.8,0.7h1.3c2,0,3,0,3.8-0.7 s0.7-1.8,0.7-3.8V5.8h0.6l0.2,0c0.3,0,0.5-0.3,0.6-0.6l0-0.2C14.5,4.7,14.5,4.5,14.5,4.3z M12.2,9.3c0,1.7,0,2.6-0.4,3.1 s-1.3,0.4-3.1,0.4H7.3c-1.7,0-2.6,0-3.1-0.4C3.8,12,3.8,11.1,3.8,9.3V5.8h8.3V9.3z M3.3,4.8l-0.8,0c0-0.2,0-0.3,0-0.4 c0.1-0.6,0.6-1.1,1.2-1.2c0.1,0,0.3,0,0.7,0h7.2c0.4,0,0.5,0,0.7,0c0.6,0.1,1.1,0.6,1.2,1.2c0,0.1,0,0.2,0,0.4H3.3z"/>
    <path d="M6.7,11.2h2.7c0.3,0,0.5-0.2,0.5-0.5s-0.2-0.5-0.5-0.5H6.7c-0.3,0-0.5,0.2-0.5,0.5S6.4,11.2,6.7,11.2z"/>
  </symbol>
  <symbol id="statuses" viewBox="0 0 16 16" >
    <path d="M13.3,8.3c-0.1,2.8-2.5,5.1-5.4,5.1C5,13.4,2.6,11,2.6,8c0-2.9,2.3-5.2,5.1-5.4c0.1-0.4,0.2-0.7,0.4-1c0,0-0.1,0-0.1,0 C4.4,1.7,1.6,4.5,1.6,8c0,3.5,2.9,6.4,6.4,6.4s6.4-2.9,6.4-6.4c0,0,0-0.1,0-0.1C14,8.1,13.7,8.2,13.3,8.3z"/>
    <ellipse cx="12.1" cy="3.9" rx="2.5" ry="2.5"/>
  </symbol>
</svg>
