<svg xmlns="http://www.w3.org/2000/svg" style="display: none;">
  <symbol id="table" viewBox="0 0 16 16">
    <g>
      <rect x="1" y="1" width="14" height="1.5"/>
      <rect x="1" y="7.3" width="14" height="1.5"/>
      <rect x="1" y="13.5" width="14" height="1.5"/>
    </g>
  </symbol>
  <symbol id="card" viewBox="0 0 16 16">
    <g>
      <rect width="2.9" height="2.9" />
      <rect x="6.6" width="2.9" height="2.9" />
      <rect x="13.1" width="2.9" height="2.9" />
      <rect y="6.6" width="2.9" height="2.9" />
      <rect x="6.6" y="6.6" width="2.9" height="2.9" />
      <rect x="13.1" y="6.6" width="2.9" height="2.9" />
      <rect y="13.1" width="2.9" height="2.9" />
      <rect x="6.6" y="13.1" width="2.9" height="2.9" />
      <rect x="13.1" y="13.1" width="2.9" height="2.9" />
    </g>
  </symbol>
  <symbol id="delete" viewBox="0 0 16 16">
    <path d="M13.1,3.8h-2c-0.2,0-0.4-0.2-0.5-0.4l-0.2-0.8c-0.1-0.6-0.6-1-1.2-1H6.8c-0.6,0-1.1,0.4-1.2,1L5.4,3.3 c0,0.3-0.2,0.4-0.5,0.4h-2C2.7,3.8,2.4,4,2.4,4.3s0.2,0.5,0.5,0.5h0.3c0.1,1.1,0.3,6.2,0.5,7.9c0.1,1.1,0.8,1.8,1.9,1.9 c0.8,0,1.6,0,2.4,0c0.8,0,1.5,0,2.3,0c1.1,0,1.8-0.7,1.9-1.9c0.2-1.7,0.4-6.7,0.5-7.9h0.3c0.3,0,0.5-0.2,0.5-0.5S13.4,3.8,13.1,3.8z M6.4,3.5l0.1-0.8c0-0.1,0.1-0.2,0.3-0.2h2.5c0.1,0,0.2,0.1,0.2,0.2l0.1,0.8c0,0.1,0.1,0.2,0.1,0.3H6.3C6.3,3.7,6.3,3.6,6.4,3.5z M11.3,12.5c-0.1,0.9-0.7,1-0.9,1c-1.6,0-3.2,0-4.7,0c-0.5,0-0.8-0.3-0.9-1C4.6,10.9,4.4,6,4.3,4.8h7.5C11.7,6,11.4,10.9,11.3,12.5z"/>
  </symbol>
  <symbol id="move" viewBox="0 0 16 16">
    <path d="M7.5,3.3V6c0,0.3,0.2,0.5,0.5,0.5S8.5,6.3,8.5,6V3.3l1.1,1.2l0.7-0.7l-2-2.1L8,1.3L7.6,1.7l-2,2.1l0.7,0.7L7.5,3.3z"/>
    <path d="M14.3,7.6l-2.1-2l-0.7,0.7l1.2,1.1H10C9.7,7.5,9.5,7.7,9.5,8S9.7,8.5,10,8.5h2.7l-1.2,1.1l0.7,0.7l2.1-2L14.7,8L14.3,7.6z"/>
    <path d="M8.5,12.7V10c0-0.3-0.2-0.5-0.5-0.5S7.5,9.7,7.5,10v2.7l-1.1-1.2l-0.7,0.7l2,2.1L8,14.7l0.4-0.4l2-2.1l-0.7-0.7L8.5,12.7z"/>
    <path d="M6,8.5c0.3,0,0.5-0.2,0.5-0.5S6.3,7.5,6,7.5H3.3l1.2-1.1L3.8,5.6l-2.1,2L1.3,8l0.4,0.4l2.1,2l0.7-0.7L3.3,8.5H6z"/>
  </symbol>
  <symbol id='more-h' viewBox="0 0 16 16">
    <path d="M8,6.6C7.2,6.6,6.6,7.2,6.6,8c0,0.8,0.6,1.4,1.4,1.4S9.4,8.8,9.4,8C9.4,7.2,8.8,6.6,8,6.6z" />
    <path d="M3.2,6.6C2.4,6.6,1.8,7.2,1.8,8c0,0.8,0.6,1.4,1.4,1.4S4.6,8.8,4.6,8C4.6,7.2,4,6.6,3.2,6.6z" />
    <path d="M12.8,6.6c-0.8,0-1.4,0.6-1.4,1.4c0,0.8,0.6,1.4,1.4,1.4s1.4-0.6,1.4-1.4C14.2,7.2,13.6,6.6,12.8,6.6z" />
  </symbol>
  <symbol id="archive" viewBox="0 0 16 16" >
    <path d="M14.5,4.3c-0.2-1.1-1-1.9-2.1-2.1c-0.2,0-0.4,0-0.8,0H4.4c-0.4,0-0.6,0-0.8,0c-1.1,0.2-1.9,1-2.1,2.1 c0,0.2,0,0.4,0,0.8l0,0.2c0,0.3,0.3,0.5,0.6,0.6l0.7,0v3.5c0,2,0,3,0.7,3.8c0.7,0.7,1.8,0.7,3.8,0.7h1.3c2,0,3,0,3.8-0.7 s0.7-1.8,0.7-3.8V5.8h0.6l0.2,0c0.3,0,0.5-0.3,0.6-0.6l0-0.2C14.5,4.7,14.5,4.5,14.5,4.3z M12.2,9.3c0,1.7,0,2.6-0.4,3.1 s-1.3,0.4-3.1,0.4H7.3c-1.7,0-2.6,0-3.1-0.4C3.8,12,3.8,11.1,3.8,9.3V5.8h8.3V9.3z M3.3,4.8l-0.8,0c0-0.2,0-0.3,0-0.4 c0.1-0.6,0.6-1.1,1.2-1.2c0.1,0,0.3,0,0.7,0h7.2c0.4,0,0.5,0,0.7,0c0.6,0.1,1.1,0.6,1.2,1.2c0,0.1,0,0.2,0,0.4H3.3z"/>
    <path d="M6.7,11.2h2.7c0.3,0,0.5-0.2,0.5-0.5s-0.2-0.5-0.5-0.5H6.7c-0.3,0-0.5,0.2-0.5,0.5S6.4,11.2,6.7,11.2z"/>
  </symbol>
  <symbol id="statuses" viewBox="0 0 16 16" >
    <path d="M13.3,8.3c-0.1,2.8-2.5,5.1-5.4,5.1C5,13.4,2.6,11,2.6,8c0-2.9,2.3-5.2,5.1-5.4c0.1-0.4,0.2-0.7,0.4-1c0,0-0.1,0-0.1,0 C4.4,1.7,1.6,4.5,1.6,8c0,3.5,2.9,6.4,6.4,6.4s6.4-2.9,6.4-6.4c0,0,0-0.1,0-0.1C14,8.1,13.7,8.2,13.3,8.3z"/>
    <ellipse cx="12.1" cy="3.9" rx="2.5" ry="2.5"/>
  </symbol>
  <symbol id='open' viewBox="0 0 16 16">
    <path d="M14,13.1H9.2c-0.3,0-0.5,0.2-0.5,0.5s0.2,0.5,0.5,0.5H14c0.3,0,0.5-0.2,0.5-0.5S14.3,13.1,14,13.1z"/>
    <path d="M11.4,7.1C11.4,7.1,11.4,7.1,11.4,7.1c1.2-1.6,1.3-1.6,1.3-1.6C12.9,5,13,4.5,12.9,4c-0.1-0.5-0.4-0.9-0.8-1.2 c0,0-1.1-0.9-1.1-0.9c-0.8-0.7-2.1-0.6-2.8,0.3c0,0,0,0,0,0l-6.3,7.9c-0.3,0.4-0.4,0.9-0.3,1.4l0.5,2.3c0.1,0.2,0.3,0.4,0.5,0.4 c0,0,0,0,0,0l2.4,0c0.5,0,1-0.2,1.3-0.6C8.9,10.2,10.5,8.2,11.4,7.1C11.4,7.1,11.4,7.1,11.4,7.1z M8.9,2.8c0.3-0.4,1-0.5,1.4-0.1 c0,0,1.2,0.9,1.2,0.9c0.2,0.1,0.4,0.3,0.4,0.6c0.1,0.2,0,0.5-0.1,0.7c0,0-0.4,0.5-0.9,1.2L8.1,3.9L8.9,2.8z M5.5,12.9 C5.4,13,5.2,13.1,5,13.1l-2,0l-0.5-1.9c0-0.2,0-0.4,0.1-0.5l4.8-6l2.8,2.2C8.9,8.6,6.8,11.2,5.5,12.9z"/>
  </symbol>

  <symbol id='arrow-right' viewBox="0 0 16 16">
    <path d="M13.334 8L13.6875 7.64645L14.0411 8L13.6875 8.35355L13.334 8ZM3.33398 8.5C3.05784 8.5 2.83398 8.27614 2.83398 8C2.83398 7.72386 3.05784 7.5 3.33398 7.5V8.5ZM9.68754 3.64645L13.6875 7.64645L12.9804 8.35355L8.98043 4.35355L9.68754 3.64645ZM13.6875 8.35355L9.68754 12.3536L8.98043 11.6464L12.9804 7.64645L13.6875 8.35355ZM13.334 8.5H3.33398V7.5H13.334V8.5Z"/>
  </symbol>
  <symbol id="setting" viewBox="0 0 16 16">
    <path d="M14,5.8l-1.1-1.9c-0.6-1-0.9-1.5-1.5-1.8c-0.6-0.3-1.2-0.3-2.3-0.4L8,1.7l-1.1,0c-1.1,0-1.8,0-2.3,0.4 C4,2.4,3.7,2.9,3.1,3.9L2,5.8C1.4,6.8,1.1,7.4,1.1,8S1.4,9.2,2,10.2l1.1,1.9c0.6,1,0.9,1.5,1.5,1.8c0.6,0.3,1.2,0.3,2.3,0.4l1.1,0 l1.1,0c1.1,0,1.8,0,2.3-0.4c0.6-0.3,0.9-0.9,1.5-1.8l1.1-1.9c0.6-1,0.9-1.5,0.9-2.2C14.9,7.4,14.6,6.8,14,5.8z M13.1,9.7L12,11.6 c-0.5,0.9-0.8,1.3-1.1,1.5c-0.3,0.2-0.8,0.2-1.8,0.2l-1.1,0l-1.1,0c-1.1,0-1.5,0-1.8-0.2c-0.3-0.2-0.6-0.6-1.1-1.5L2.9,9.7 C2.3,8.8,2.1,8.4,2.1,8c0-0.4,0.2-0.8,0.7-1.7L4,4.4c0.5-0.9,0.8-1.3,1.1-1.5c0.3-0.2,0.8-0.2,1.8-0.2l1.1,0l1.1,0 c1,0,1.5,0,1.8,0.2c0.3,0.2,0.6,0.6,1.1,1.5l1.1,1.9c0.5,0.9,0.7,1.3,0.7,1.7S13.6,8.8,13.1,9.7z"/>
    <path d="M8,5.5C6.6,5.5,5.5,6.6,5.5,8c0,1.4,1.1,2.5,2.5,2.5c1.4,0,2.5-1.1,2.5-2.5C10.5,6.6,9.4,5.5,8,5.5z M8,9.5 C7.2,9.5,6.5,8.8,6.5,8S7.2,6.5,8,6.5S9.5,7.2,9.5,8S8.8,9.5,8,9.5z"/>
  </symbol>
  <symbol id="views" viewBox="0 0 16 16">
    <path d="M12.6541 10.7952L14.7544 11.6213C14.8576 11.6618 14.9394 11.7434 14.9801 11.8466C15.0511 12.0264 14.9828 12.2268 14.827 12.3284L14.755 12.3656L8.35645 14.8924C8.15935 14.9703 7.94372 14.9831 7.74052 14.9309L7.62035 14.8918L1.25259 12.3653C1.1499 12.3246 1.06864 12.2432 1.02806 12.1404C0.957068 11.9607 1.02536 11.7603 1.1812 11.6587L1.25319 11.6215L3.34307 10.7962L7.06917 12.2751C7.65895 12.5091 8.31525 12.5097 8.9054 12.2766L12.6541 10.7952ZM12.6541 6.77688L14.7544 7.60289C14.8576 7.64346 14.9394 7.72508 14.9801 7.82824C15.0511 8.00803 14.9828 8.20839 14.827 8.31004L14.755 8.3472L10.6001 9.98825L9.619 10.375L8.35645 10.8741L8.317 10.886L8.23566 10.9132C8.20301 10.9215 8.17004 10.9282 8.13688 10.9331C8.12585 10.9346 8.11547 10.936 8.10507 10.9372C8.02541 10.9468 7.94422 10.9464 7.86397 10.9363L7.74052 10.9126L7.62035 10.8735L6.391 10.385L5.38907 9.98825L1.25259 8.34697C1.1499 8.30623 1.06864 8.22483 1.02806 8.12208C0.957068 7.94229 1.02536 7.74192 1.1812 7.64029L1.25319 7.60312L3.34307 6.77788L7.06917 8.25677C7.65895 8.49078 8.31525 8.4913 8.9054 8.25824L12.6541 6.77688ZM7.62186 1.06989C7.85734 0.976906 8.11932 0.976697 8.35494 1.06931L14.7544 3.58452C14.8576 3.62509 14.9394 3.70671 14.9801 3.80987C15.0612 4.01534 14.9605 4.24769 14.755 4.32884L10.6001 5.96988L8.35565 6.856L8.27468 6.88396C8.25405 6.8901 8.23326 6.89557 8.21236 6.90036C8.09824 6.92674 7.98013 6.93258 7.86397 6.91788L7.74052 6.89419L7.62035 6.8551L1.25259 4.3286C1.1499 4.28786 1.06864 4.20646 1.02806 4.10371C0.946925 3.89823 1.04772 3.66589 1.25319 3.58475L7.62186 1.06989Z"/>
  </symbol>
  <symbol id="pin" viewBox="0 0 16 16" fill="none">
    <path d="M9.30308 2.90949C9.95614 2.47412 10.2827 2.25643 10.6384 2.29166C10.9942 2.32689 11.2717 2.60439 11.8267 3.15938L12.8413 4.17396C13.3963 4.72895 13.6738 5.00644 13.709 5.36221C13.7442 5.71798 13.5265 6.04451 13.0912 6.69757L12.2952 7.89148C12.2122 8.016 12.1707 8.07826 12.1307 8.14074C11.6211 8.93675 11.2566 9.81677 11.0541 10.74C11.0382 10.8125 11.0235 10.8858 10.9941 11.0326L10.8668 11.6692C10.7725 12.1406 10.2263 12.3613 9.83098 12.0877V12.0877C7.5186 10.4868 5.51386 8.48205 3.91299 6.16967V6.16967C3.63933 5.77439 3.86001 5.22813 4.33144 5.13384L4.96808 5.00651C5.11482 4.97717 5.1882 4.96249 5.26066 4.94659C6.18388 4.74408 7.0639 4.37956 7.85991 3.86995C7.92239 3.82995 7.98465 3.78844 8.10917 3.70543L9.30308 2.90949Z" stroke="white"/>
    <path d="M3.33398 12.6667L6.33398 9.66669" stroke="white" stroke-linecap="round"/>
  </symbol>
</svg>
