<svg xmlns="http://www.w3.org/2000/svg" style="display: none;">
  <symbol id="table" viewBox="0 0 16 16">
    <g>
      <rect width="16" height="1.7" />
      <rect y="7.2" width="16" height="1.7" />
      <rect y="14.3" width="16" height="1.7" />
    </g>
  </symbol>
  <symbol id="card" viewBox="0 0 16 16">
    <g>
      <rect width="2.9" height="2.9" />
      <rect x="6.6" width="2.9" height="2.9" />
      <rect x="13.1" width="2.9" height="2.9" />
      <rect y="6.6" width="2.9" height="2.9" />
      <rect x="6.6" y="6.6" width="2.9" height="2.9" />
      <rect x="13.1" y="6.6" width="2.9" height="2.9" />
      <rect y="13.1" width="2.9" height="2.9" />
      <rect x="6.6" y="13.1" width="2.9" height="2.9" />
      <rect x="13.1" y="13.1" width="2.9" height="2.9" />
    </g>
  </symbol>
  <symbol id="delete" viewBox="0 0 16 16">
    <path d="M14.2,2.8h-2.4c-0.3,0-0.5-0.2-0.6-0.6l-0.2-1C10.9,0.5,10.3,0,9.6,0H6.4C5.7,0,5.1,0.5,4.9,1.3l-0.2,1 C4.7,2.6,4.4,2.8,4.2,2.8H1.8c-0.3,0-0.6,0.3-0.6,0.6S1.4,4,1.8,4h0.4c0.1,1.4,0.4,7.6,0.6,9.7c0.1,1.4,1,2.3,2.3,2.3 C6,16,7,16,8,16c0.9,0,1.9,0,2.9,0c1.3,0,2.2-0.9,2.3-2.3c0.2-2,0.5-8.3,0.6-9.7h0.4c0.3,0,0.6-0.3,0.6-0.6S14.6,2.8,14.2,2.8z M6,2.5l0.2-0.9c0-0.2,0.2-0.3,0.3-0.3h3.1c0.1,0,0.3,0.1,0.3,0.3l0.2,1c0,0.1,0.1,0.2,0.1,0.3H5.8C5.9,2.7,5.9,2.6,6,2.5z M12,13.6 c-0.1,1.2-0.9,1.2-1.1,1.2c-2,0-3.9,0-5.7,0c-0.6,0-1-0.4-1.1-1.2c-0.2-2-0.5-8-0.6-9.5h9.2C12.5,5.5,12.2,11.6,12,13.6z"/>
  </symbol>
  <symbol id="move" viewBox="0 0 16 16">
    <path d="M7.4,2.4v3.3C7.4,6,7.7,6.2,8,6.2c0.3,0,0.6-0.3,0.6-0.6V2.4l1.3,1.4L10.8,3L8.4,0.5L8,0L7.6,0.5L5.2,3 l0.9,0.8L7.4,2.4z"/>
    <path d="M15.5,7.6L13,5.2l-0.8,0.9l1.4,1.3h-3.3C10,7.4,9.8,7.7,9.8,8c0,0.3,0.3,0.6,0.6,0.6h3.3l-1.4,1.3l0.8,0.9 l2.5-2.4L16,8L15.5,7.6z"/>
    <path d="M8.6,13.6v-3.3C8.6,10,8.3,9.8,8,9.8c-0.3,0-0.6,0.3-0.6,0.6v3.3l-1.3-1.4L5.2,13l2.4,2.5L8,16l0.4-0.5 l2.4-2.5l-0.9-0.8L8.6,13.6z"/>
    <path d="M5.6,8.6C6,8.6,6.2,8.3,6.2,8c0-0.3-0.3-0.6-0.6-0.6H2.4l1.4-1.3L3,5.2L0.5,7.6L0,8l0.5,0.4L3,10.8l0.8-0.9 L2.4,8.6H5.6z"/>
  </symbol>
  
  <symbol id='more-h' viewBox="0 0 16 16">
    <path d="M8,6.6C7.2,6.6,6.6,7.2,6.6,8c0,0.8,0.6,1.4,1.4,1.4S9.4,8.8,9.4,8C9.4,7.2,8.8,6.6,8,6.6z" />
    <path d="M3.2,6.6C2.4,6.6,1.8,7.2,1.8,8c0,0.8,0.6,1.4,1.4,1.4S4.6,8.8,4.6,8C4.6,7.2,4,6.6,3.2,6.6z" />
    <path d="M12.8,6.6c-0.8,0-1.4,0.6-1.4,1.4c0,0.8,0.6,1.4,1.4,1.4s1.4-0.6,1.4-1.4C14.2,7.2,13.6,6.6,12.8,6.6z" />
  </symbol>

  <symbol id="archive" viewBox="0 0 16 16" >
    <path d="M3.33333 5.33366V9.33366C3.33333 11.2193 3.33333 12.1621 3.91912 12.7479C4.50491 13.3337 5.44772 13.3337 7.33333 13.3337H8.66667C10.5523 13.3337 11.4951 13.3337 12.0809 12.7479C12.6667 12.1621 12.6667 11.2193 12.6667 9.33366V5.33366M3.33333 5.33366H12.6667M3.33333 5.33366H2.24242C2.20301 5.33366 2.1833 5.33366 2.16683 5.33089C2.08277 5.31675 2.01691 5.25089 2.00277 5.16682C2 5.15036 2 5.13065 2 5.09123V5.09123C2 4.69708 2 4.50001 2.02769 4.33533C2.16905 3.49469 2.8277 2.83604 3.66834 2.69468C3.83301 2.66699 4.03009 2.66699 4.42424 2.66699H11.5758C11.9699 2.66699 12.167 2.66699 12.3317 2.69468C13.1723 2.83604 13.8309 3.49469 13.9723 4.33533C14 4.50001 14 4.69708 14 5.09123V5.09123C14 5.13065 14 5.15036 13.9972 5.16682C13.9831 5.25089 13.9172 5.31675 13.8332 5.33089C13.8167 5.33366 13.797 5.33366 13.7576 5.33366H12.6667" />
    <path d="M6.66663 10.667H9.33329" stroke-linecap="round"/>
  </symbol>
</svg>
