<svg xmlns="http://www.w3.org/2000/svg" style="display: none;">
  <symbol id="table" viewBox="0 0 16 16">
    <path d="M1 1.8C1 1.51997 1 1.37996 1.0545 1.273C1.10243 1.17892 1.17892 1.10243 1.273 1.0545C1.37996 1 1.51997 1 1.8 1H14.2C14.48 1 14.62 1 14.727 1.0545C14.8211 1.10243 14.8976 1.17892 14.9455 1.273C15 1.37996 15 1.51997 15 1.8V2.2C15 2.48003 15 2.62004 14.9455 2.727C14.8976 2.82108 14.8211 2.89757 14.727 2.9455C14.62 3 14.48 3 14.2 3H1.8C1.51997 3 1.37996 3 1.273 2.9455C1.17892 2.89757 1.10243 2.82108 1.0545 2.727C1 2.62004 1 2.48003 1 2.2V1.8Z" />
    <path d="M1 13.8C1 13.52 1 13.38 1.0545 13.273C1.10243 13.1789 1.17892 13.1024 1.273 13.0545C1.37996 13 1.51997 13 1.8 13H14.2C14.48 13 14.62 13 14.727 13.0545C14.8211 13.1024 14.8976 13.1789 14.9455 13.273C15 13.38 15 13.52 15 13.8V14.2C15 14.48 15 14.62 14.9455 14.727C14.8976 14.8211 14.8211 14.8976 14.727 14.9455C14.62 15 14.48 15 14.2 15H1.8C1.51997 15 1.37996 15 1.273 14.9455C1.17892 14.8976 1.10243 14.8211 1.0545 14.727C1 14.62 1 14.48 1 14.2V13.8Z" />
    <path d="M1 9.8C1 9.51997 1 9.37996 1.0545 9.273C1.10243 9.17892 1.17892 9.10243 1.273 9.0545C1.37996 9 1.51997 9 1.8 9H14.2C14.48 9 14.62 9 14.727 9.0545C14.8211 9.10243 14.8976 9.17892 14.9455 9.273C15 9.37996 15 9.51997 15 9.8V10.2C15 10.48 15 10.62 14.9455 10.727C14.8976 10.8211 14.8211 10.8976 14.727 10.9455C14.62 11 14.48 11 14.2 11H1.8C1.51997 11 1.37996 11 1.273 10.9455C1.17892 10.8976 1.10243 10.8211 1.0545 10.727C1 10.62 1 10.48 1 10.2V9.8Z" />
    <path d="M1 5.8C1 5.51997 1 5.37996 1.0545 5.273C1.10243 5.17892 1.17892 5.10243 1.273 5.0545C1.37996 5 1.51997 5 1.8 5H14.2C14.48 5 14.62 5 14.727 5.0545C14.8211 5.10243 14.8976 5.17892 14.9455 5.273C15 5.37996 15 5.51997 15 5.8V6.2C15 6.48003 15 6.62004 14.9455 6.727C14.8976 6.82108 14.8211 6.89757 14.727 6.9455C14.62 7 14.48 7 14.2 7H1.8C1.51997 7 1.37996 7 1.273 6.9455C1.17892 6.89757 1.10243 6.82108 1.0545 6.727C1 6.62004 1 6.48003 1 6.2V5.8Z" />
  </symbol>
   <symbol id="list" viewBox="0 0 16 16">
    <path d="M1 1.8C1 1.51997 1 1.37996 1.0545 1.273C1.10243 1.17892 1.17892 1.10243 1.273 1.0545C1.37996 1 1.51997 1 1.8 1H14.2C14.48 1 14.62 1 14.727 1.0545C14.8211 1.10243 14.8976 1.17892 14.9455 1.273C15 1.37996 15 1.51997 15 1.8V2.2C15 2.48003 15 2.62004 14.9455 2.727C14.8976 2.82108 14.8211 2.89757 14.727 2.9455C14.62 3 14.48 3 14.2 3H1.8C1.51997 3 1.37996 3 1.273 2.9455C1.17892 2.89757 1.10243 2.82108 1.0545 2.727C1 2.62004 1 2.48003 1 2.2V1.8Z" />
    <path d="M1 13.8C1 13.52 1 13.38 1.0545 13.273C1.10243 13.1789 1.17892 13.1024 1.273 13.0545C1.37996 13 1.51997 13 1.8 13H14.2C14.48 13 14.62 13 14.727 13.0545C14.8211 13.1024 14.8976 13.1789 14.9455 13.273C15 13.38 15 13.52 15 13.8V14.2C15 14.48 15 14.62 14.9455 14.727C14.8976 14.8211 14.8211 14.8976 14.727 14.9455C14.62 15 14.48 15 14.2 15H1.8C1.51997 15 1.37996 15 1.273 14.9455C1.17892 14.8976 1.10243 14.8211 1.0545 14.727C1 14.62 1 14.48 1 14.2V13.8Z" />
    <path d="M1 9.8C1 9.51997 1 9.37996 1.0545 9.273C1.10243 9.17892 1.17892 9.10243 1.273 9.0545C1.37996 9 1.51997 9 1.8 9H14.2C14.48 9 14.62 9 14.727 9.0545C14.8211 9.10243 14.8976 9.17892 14.9455 9.273C15 9.37996 15 9.51997 15 9.8V10.2C15 10.48 15 10.62 14.9455 10.727C14.8976 10.8211 14.8211 10.8976 14.727 10.9455C14.62 11 14.48 11 14.2 11H1.8C1.51997 11 1.37996 11 1.273 10.9455C1.17892 10.8976 1.10243 10.8211 1.0545 10.727C1 10.62 1 10.48 1 10.2V9.8Z" />
    <path d="M1 5.8C1 5.51997 1 5.37996 1.0545 5.273C1.10243 5.17892 1.17892 5.10243 1.273 5.0545C1.37996 5 1.51997 5 1.8 5H14.2C14.48 5 14.62 5 14.727 5.0545C14.8211 5.10243 14.8976 5.17892 14.9455 5.273C15 5.37996 15 5.51997 15 5.8V6.2C15 6.48003 15 6.62004 14.9455 6.727C14.8976 6.82108 14.8211 6.89757 14.727 6.9455C14.62 7 14.48 7 14.2 7H1.8C1.51997 7 1.37996 7 1.273 6.9455C1.17892 6.89757 1.10243 6.82108 1.0545 6.727C1 6.62004 1 6.48003 1 6.2V5.8Z" />
  </symbol>
  <symbol id="card" viewBox="0 0 16 16">
    <path d="M1 2.6C1 2.03995 1 1.75992 1.10899 1.54601C1.20487 1.35785 1.35785 1.20487 1.54601 1.10899C1.75992 1 2.03995 1 2.6 1H5.4C5.96005 1 6.24008 1 6.45399 1.10899C6.64215 1.20487 6.79513 1.35785 6.89101 1.54601C7 1.75992 7 2.03995 7 2.6V3.4C7 3.96005 7 4.24008 6.89101 4.45399C6.79513 4.64215 6.64215 4.79513 6.45399 4.89101C6.24008 5 5.96005 5 5.4 5H2.6C2.03995 5 1.75992 5 1.54601 4.89101C1.35785 4.79513 1.20487 4.64215 1.10899 4.45399C1 4.24008 1 3.96005 1 3.4V2.6Z" />
    <path d="M9 2.6C9 2.03995 9 1.75992 9.10899 1.54601C9.20487 1.35785 9.35785 1.20487 9.54601 1.10899C9.75992 1 10.0399 1 10.6 1H13.4C13.9601 1 14.2401 1 14.454 1.10899C14.6422 1.20487 14.7951 1.35785 14.891 1.54601C15 1.75992 15 2.03995 15 2.6V3.4C15 3.96005 15 4.24008 14.891 4.45399C14.7951 4.64215 14.6422 4.79513 14.454 4.89101C14.2401 5 13.9601 5 13.4 5H10.6C10.0399 5 9.75992 5 9.54601 4.89101C9.35785 4.79513 9.20487 4.64215 9.10899 4.45399C9 4.24008 9 3.96005 9 3.4V2.6Z" />
    <path d="M1 7.6C1 7.03995 1 6.75992 1.10899 6.54601C1.20487 6.35785 1.35785 6.20487 1.54601 6.10899C1.75992 6 2.03995 6 2.6 6H5.4C5.96005 6 6.24008 6 6.45399 6.10899C6.64215 6.20487 6.79513 6.35785 6.89101 6.54601C7 6.75992 7 7.03995 7 7.6V8.4C7 8.96005 7 9.24008 6.89101 9.45399C6.79513 9.64215 6.64215 9.79513 6.45399 9.89101C6.24008 10 5.96005 10 5.4 10H2.6C2.03995 10 1.75992 10 1.54601 9.89101C1.35785 9.79513 1.20487 9.64215 1.10899 9.45399C1 9.24008 1 8.96005 1 8.4V7.6Z" />
    <path d="M9 7.6C9 7.03995 9 6.75992 9.10899 6.54601C9.20487 6.35785 9.35785 6.20487 9.54601 6.10899C9.75992 6 10.0399 6 10.6 6H13.4C13.9601 6 14.2401 6 14.454 6.10899C14.6422 6.20487 14.7951 6.35785 14.891 6.54601C15 6.75992 15 7.03995 15 7.6V8.4C15 8.96005 15 9.24008 14.891 9.45399C14.7951 9.64215 14.6422 9.79513 14.454 9.89101C14.2401 10 13.9601 10 13.4 10H10.6C10.0399 10 9.75992 10 9.54601 9.89101C9.35785 9.79513 9.20487 9.64215 9.10899 9.45399C9 9.24008 9 8.96005 9 8.4V7.6Z" />
    <path d="M1 12.6C1 12.0399 1 11.7599 1.10899 11.546C1.20487 11.3578 1.35785 11.2049 1.54601 11.109C1.75992 11 2.03995 11 2.6 11H5.4C5.96005 11 6.24008 11 6.45399 11.109C6.64215 11.2049 6.79513 11.3578 6.89101 11.546C7 11.7599 7 12.0399 7 12.6V13.4C7 13.9601 7 14.2401 6.89101 14.454C6.79513 14.6422 6.64215 14.7951 6.45399 14.891C6.24008 15 5.96005 15 5.4 15H2.6C2.03995 15 1.75992 15 1.54601 14.891C1.35785 14.7951 1.20487 14.6422 1.10899 14.454C1 14.2401 1 13.9601 1 13.4V12.6Z" />
    <path d="M9 12.6C9 12.0399 9 11.7599 9.10899 11.546C9.20487 11.3578 9.35785 11.2049 9.54601 11.109C9.75992 11 10.0399 11 10.6 11H13.4C13.9601 11 14.2401 11 14.454 11.109C14.6422 11.2049 14.7951 11.3578 14.891 11.546C15 11.7599 15 12.0399 15 12.6V13.4C15 13.9601 15 14.2401 14.891 14.454C14.7951 14.6422 14.6422 14.7951 14.454 14.891C14.2401 15 13.9601 15 13.4 15H10.6C10.0399 15 9.75992 15 9.54601 14.891C9.35785 14.7951 9.20487 14.6422 9.10899 14.454C9 14.2401 9 13.9601 9 13.4V12.6Z" />
  </symbol>
  <symbol id="timeline" viewBox="0 0 14 14">
    <rect x="6" y="1" width="7" height="2.5" rx="0.5" />
    <rect x="1" y="5.75" width="9" height="2.5" rx="0.5" />
    <rect x="4" y="10.5" width="9" height="2.5" rx="0.5" />
  </symbol>
  <symbol id="delete" viewBox="0 0 16 16">
    <path d="M13.1,3.8h-2c-0.2,0-0.4-0.2-0.5-0.4l-0.2-0.8c-0.1-0.6-0.6-1-1.2-1H6.8c-0.6,0-1.1,0.4-1.2,1L5.4,3.3 c0,0.3-0.2,0.4-0.5,0.4h-2C2.7,3.8,2.4,4,2.4,4.3s0.2,0.5,0.5,0.5h0.3c0.1,1.1,0.3,6.2,0.5,7.9c0.1,1.1,0.8,1.8,1.9,1.9 c0.8,0,1.6,0,2.4,0c0.8,0,1.5,0,2.3,0c1.1,0,1.8-0.7,1.9-1.9c0.2-1.7,0.4-6.7,0.5-7.9h0.3c0.3,0,0.5-0.2,0.5-0.5S13.4,3.8,13.1,3.8z M6.4,3.5l0.1-0.8c0-0.1,0.1-0.2,0.3-0.2h2.5c0.1,0,0.2,0.1,0.2,0.2l0.1,0.8c0,0.1,0.1,0.2,0.1,0.3H6.3C6.3,3.7,6.3,3.6,6.4,3.5z M11.3,12.5c-0.1,0.9-0.7,1-0.9,1c-1.6,0-3.2,0-4.7,0c-0.5,0-0.8-0.3-0.9-1C4.6,10.9,4.4,6,4.3,4.8h7.5C11.7,6,11.4,10.9,11.3,12.5z"/>
  </symbol>
  <symbol id="move" viewBox="0 0 16 16">
    <path d="M7.5,3.3V6c0,0.3,0.2,0.5,0.5,0.5S8.5,6.3,8.5,6V3.3l1.1,1.2l0.7-0.7l-2-2.1L8,1.3L7.6,1.7l-2,2.1l0.7,0.7L7.5,3.3z"/>
    <path d="M14.3,7.6l-2.1-2l-0.7,0.7l1.2,1.1H10C9.7,7.5,9.5,7.7,9.5,8S9.7,8.5,10,8.5h2.7l-1.2,1.1l0.7,0.7l2.1-2L14.7,8L14.3,7.6z"/>
    <path d="M8.5,12.7V10c0-0.3-0.2-0.5-0.5-0.5S7.5,9.7,7.5,10v2.7l-1.1-1.2l-0.7,0.7l2,2.1L8,14.7l0.4-0.4l2-2.1l-0.7-0.7L8.5,12.7z"/>
    <path d="M6,8.5c0.3,0,0.5-0.2,0.5-0.5S6.3,7.5,6,7.5H3.3l1.2-1.1L3.8,5.6l-2.1,2L1.3,8l0.4,0.4l2.1,2l0.7-0.7L3.3,8.5H6z"/>
  </symbol>
  <symbol id='more-h' viewBox="0 0 16 16">
    <path d="M8,6.6C7.2,6.6,6.6,7.2,6.6,8c0,0.8,0.6,1.4,1.4,1.4S9.4,8.8,9.4,8C9.4,7.2,8.8,6.6,8,6.6z" />
    <path d="M3.2,6.6C2.4,6.6,1.8,7.2,1.8,8c0,0.8,0.6,1.4,1.4,1.4S4.6,8.8,4.6,8C4.6,7.2,4,6.6,3.2,6.6z" />
    <path d="M12.8,6.6c-0.8,0-1.4,0.6-1.4,1.4c0,0.8,0.6,1.4,1.4,1.4s1.4-0.6,1.4-1.4C14.2,7.2,13.6,6.6,12.8,6.6z" />
  </symbol>
  <symbol id="archive" viewBox="0 0 16 16" >
    <path d="M14.5,4.3c-0.2-1.1-1-1.9-2.1-2.1c-0.2,0-0.4,0-0.8,0H4.4c-0.4,0-0.6,0-0.8,0c-1.1,0.2-1.9,1-2.1,2.1 c0,0.2,0,0.4,0,0.8l0,0.2c0,0.3,0.3,0.5,0.6,0.6l0.7,0v3.5c0,2,0,3,0.7,3.8c0.7,0.7,1.8,0.7,3.8,0.7h1.3c2,0,3,0,3.8-0.7 s0.7-1.8,0.7-3.8V5.8h0.6l0.2,0c0.3,0,0.5-0.3,0.6-0.6l0-0.2C14.5,4.7,14.5,4.5,14.5,4.3z M12.2,9.3c0,1.7,0,2.6-0.4,3.1 s-1.3,0.4-3.1,0.4H7.3c-1.7,0-2.6,0-3.1-0.4C3.8,12,3.8,11.1,3.8,9.3V5.8h8.3V9.3z M3.3,4.8l-0.8,0c0-0.2,0-0.3,0-0.4 c0.1-0.6,0.6-1.1,1.2-1.2c0.1,0,0.3,0,0.7,0h7.2c0.4,0,0.5,0,0.7,0c0.6,0.1,1.1,0.6,1.2,1.2c0,0.1,0,0.2,0,0.4H3.3z"/>
    <path d="M6.7,11.2h2.7c0.3,0,0.5-0.2,0.5-0.5s-0.2-0.5-0.5-0.5H6.7c-0.3,0-0.5,0.2-0.5,0.5S6.4,11.2,6.7,11.2z"/>
  </symbol>
  <symbol id="statuses" viewBox="0 0 16 16" >
    <path d="M13.3,8.3c-0.1,2.8-2.5,5.1-5.4,5.1C5,13.4,2.6,11,2.6,8c0-2.9,2.3-5.2,5.1-5.4c0.1-0.4,0.2-0.7,0.4-1c0,0-0.1,0-0.1,0 C4.4,1.7,1.6,4.5,1.6,8c0,3.5,2.9,6.4,6.4,6.4s6.4-2.9,6.4-6.4c0,0,0-0.1,0-0.1C14,8.1,13.7,8.2,13.3,8.3z"/>
    <ellipse cx="12.1" cy="3.9" rx="2.5" ry="2.5"/>
  </symbol>
  <symbol id='open' viewBox="0 0 16 16">
    <path d="M14,13.1H9.2c-0.3,0-0.5,0.2-0.5,0.5s0.2,0.5,0.5,0.5H14c0.3,0,0.5-0.2,0.5-0.5S14.3,13.1,14,13.1z"/>
    <path d="M11.4,7.1C11.4,7.1,11.4,7.1,11.4,7.1c1.2-1.6,1.3-1.6,1.3-1.6C12.9,5,13,4.5,12.9,4c-0.1-0.5-0.4-0.9-0.8-1.2 c0,0-1.1-0.9-1.1-0.9c-0.8-0.7-2.1-0.6-2.8,0.3c0,0,0,0,0,0l-6.3,7.9c-0.3,0.4-0.4,0.9-0.3,1.4l0.5,2.3c0.1,0.2,0.3,0.4,0.5,0.4 c0,0,0,0,0,0l2.4,0c0.5,0,1-0.2,1.3-0.6C8.9,10.2,10.5,8.2,11.4,7.1C11.4,7.1,11.4,7.1,11.4,7.1z M8.9,2.8c0.3-0.4,1-0.5,1.4-0.1 c0,0,1.2,0.9,1.2,0.9c0.2,0.1,0.4,0.3,0.4,0.6c0.1,0.2,0,0.5-0.1,0.7c0,0-0.4,0.5-0.9,1.2L8.1,3.9L8.9,2.8z M5.5,12.9 C5.4,13,5.2,13.1,5,13.1l-2,0l-0.5-1.9c0-0.2,0-0.4,0.1-0.5l4.8-6l2.8,2.2C8.9,8.6,6.8,11.2,5.5,12.9z"/>
  </symbol>

  <symbol id='arrow-right' viewBox="0 0 16 16">
    <path d="M13.334 8L13.6875 7.64645L14.0411 8L13.6875 8.35355L13.334 8ZM3.33398 8.5C3.05784 8.5 2.83398 8.27614 2.83398 8C2.83398 7.72386 3.05784 7.5 3.33398 7.5V8.5ZM9.68754 3.64645L13.6875 7.64645L12.9804 8.35355L8.98043 4.35355L9.68754 3.64645ZM13.6875 8.35355L9.68754 12.3536L8.98043 11.6464L12.9804 7.64645L13.6875 8.35355ZM13.334 8.5H3.33398V7.5H13.334V8.5Z"/>
  </symbol>
  <symbol id="setting" viewBox="0 0 24 24">
    <g>
      <path d="M12,16.9c2.7,0,4.9-2.2,4.9-4.9S14.7,7.1,12,7.1S7.1,9.3,7.1,12S9.3,16.9,12,16.9z M12,8.7c1.8,0,3.3,1.5,3.3,3.3 s-1.5,3.3-3.3,3.3S8.7,13.8,8.7,12S10.2,8.7,12,8.7z"/>
      <path d="M23,10.8L23,10.8c0-0.2,0-0.4-0.1-0.6c-0.2-0.4-0.5-0.7-0.8-0.9c-0.2-0.1-0.3-0.1-0.5-0.2c-0.2,0-0.3,0-0.6-0.1C20.5,9,20.2,9,20,8.9c-0.1,0-0.2,0-0.2,0c-0.1-0.1-0.1-0.1-0.1-0.2c0,0,0-0.1,0.1-0.2c0.1-0.2,0.3-0.4,0.6-0.7c0.1-0.2,0.2-0.3,0.3-0.4c0.1-0.1,0.1-0.2,0.2-0.3l0,0L21,6.8c0,0,0,0,0,0l0.1-0.2l0,0c0.1-0.3,0-0.7-0.1-1c-0.1-0.2-0.2-0.4-0.3-0.5c-0.1-0.1-0.2-0.2-0.4-0.4l-0.9-0.9c-0.1-0.1-0.3-0.3-0.4-0.4c-0.1-0.1-0.3-0.2-0.5-0.3C18,2.9,17.6,2.9,17.2,3C17,3,16.9,3.1,16.7,3.3c-0.1,0.1-0.3,0.2-0.4,0.3l-0.1,0c-0.3,0.3-0.5,0.4-0.7,0.6c-0.1,0.1-0.2,0.1-0.2,0.1c-0.1,0-0.2,0-0.2-0.1c0,0,0,0-0.1-0.2C15,3.8,15,3.5,15,3.1l0-0.1c0-0.2,0-0.4-0.1-0.5c0-0.2-0.1-0.4-0.2-0.5c-0.2-0.4-0.5-0.7-0.9-0.8C13.6,1,13.4,1,13.2,1c-0.2,0-0.4,0-0.6,0h-1.3c-0.2,0-0.4,0-0.6,0c-0.1,0-0.3,0-0.6,0.1C9.8,1.3,9.5,1.6,9.3,2C9.2,2.1,9.2,2.3,9.1,2.5c0,0.2,0,0.3-0.1,0.6C9,3.5,9,3.8,8.9,4c0,0.1,0,0.2,0,0.2c0,0,0,0,0,0C8.8,4.3,8.8,4.3,8.7,4.3c0,0-0.1,0-0.2-0.1C8.3,4.1,8.1,3.9,7.8,3.6C7.6,3.5,7.5,3.3,7.3,3.3C7.2,3.2,7,3.1,6.8,3C6.4,2.9,6,2.9,5.6,3.1C5.4,3.1,5.2,3.3,5.1,3.4C5,3.5,4.8,3.6,4.7,3.8L3.8,4.7C3.6,4.8,3.5,5,3.4,5.1C3.3,5.2,3.1,5.4,3.1,5.6C2.9,6,2.9,6.4,3,6.8C3.1,7,3.2,7.2,3.3,7.3c0.1,0.1,0.2,0.3,0.4,0.5c0.3,0.3,0.4,0.5,0.6,0.7c0.1,0.1,0.1,0.2,0.1,0.2c0,0.1,0,0.2-0.1,0.2c0,0,0,0-0.2,0.1C3.8,9,3.5,9,3.1,9.1c-0.2,0-0.4,0-0.6,0.1c-0.1,0-0.2,0-0.3,0.1l0,0L2,9.3c0,0,0,0,0,0L1.7,9.4l0,0c-0.3,0.2-0.5,0.5-0.6,0.8C1,10.4,1,10.6,1,10.8c0,0.2,0,0.4,0,0.6v1.3c0,0.2,0,0.4,0,0.6c0,0.1,0,0.3,0.1,0.6c0.2,0.4,0.5,0.7,0.8,0.9c0.2,0.1,0.3,0.1,0.5,0.2c0.1,0,0.3,0,0.5,0.1l0.1,0C3.5,15,3.8,15,4,15.1c0.1,0,0.2,0,0.2,0c0.1,0.1,0.1,0.1,0.1,0.2c0,0,0,0.1-0.1,0.2c-0.1,0.2-0.3,0.4-0.6,0.7l0,0.1c-0.1,0.2-0.2,0.3-0.3,0.4C3.1,16.9,3,17,3,17.2c-0.1,0.4-0.1,0.9,0.1,1.3c0.1,0.2,0.2,0.4,0.3,0.5c0.1,0.1,0.2,0.2,0.4,0.4l0.9,0.9c0.2,0.2,0.3,0.3,0.4,0.4c0.1,0.1,0.3,0.2,0.5,0.3C6,21.1,6.4,21.1,6.8,21c0.2-0.1,0.4-0.2,0.5-0.3c0.1-0.1,0.3-0.2,0.5-0.4c0.3-0.3,0.5-0.4,0.7-0.6c0.1-0.1,0.2-0.1,0.2-0.1c0.1,0,0.2,0,0.2,0.1c0,0,0,0,0.1,0.2c0,0.2,0.1,0.5,0.1,0.9c0,0.2,0,0.4,0.1,0.6c0,0.2,0.1,0.4,0.2,0.5c0.2,0.4,0.5,0.7,0.9,0.8c0.2,0.1,0.4,0.1,0.6,0.1c0.2,0,0.4,0,0.6,0h1.3c0.2,0,0.4,0,0.6,0c0.1,0,0.3,0,0.6-0.1c0.4-0.2,0.7-0.5,0.9-0.8c0.1-0.2,0.1-0.4,0.2-0.5c0-0.1,0-0.3,0.1-0.5l0-0.1c0-0.4,0.1-0.7,0.1-0.9c0-0.1,0-0.2,0-0.2c0.1-0.1,0.1-0.1,0.2-0.1c0,0,0.1,0,0.2,0.1c0.2,0.1,0.4,0.3,0.7,0.5l0.1,0.1c0.2,0.1,0.3,0.2,0.4,0.3c0.1,0.1,0.3,0.2,0.5,0.3c0.4,0.1,0.9,0.1,1.3-0.1c0.2-0.1,0.4-0.2,0.5-0.3c0.1-0.1,0.3-0.2,0.4-0.4l0.9-0.9c0.1-0.1,0.3-0.3,0.4-0.4c0.1-0.1,0.2-0.3,0.3-0.5c0.2-0.4,0.2-0.8,0.1-1.3c-0.1-0.2-0.1-0.3-0.3-0.5c-0.1-0.1-0.2-0.3-0.4-0.5c-0.3-0.3-0.4-0.5-0.6-0.7c-0.1-0.1-0.1-0.2-0.1-0.2c0-0.1,0-0.2,0.1-0.2c0,0,0,0,0.2-0.1c0.2,0,0.5-0.1,0.9-0.1c0.2,0,0.4,0,0.6-0.1c0.1,0,0.3-0.1,0.5-0.2c0.4-0.2,0.7-0.5,0.8-0.9c0.1-0.2,0.1-0.4,0.1-0.6c0-0.2,0-0.4,0-0.6v-1.3C23,11.1,23,10.9,23,10.8z M2.5,13.1c0-0.1,0-0.3,0-0.5v-1.3c0-0.2,0-0.4,0-0.5c0-0.1,0-0.1,0-0.1c0,0,0,0,0,0c0-0.1,0.1-0.1,0.1-0.1c0,0,0,0,0.1,0c0.1,0,0.2,0,0.5-0.1c0.4,0,0.8-0.1,1-0.1c0.3,0,0.6-0.1,0.8-0.3c0.5-0.4,0.8-1,0.7-1.7c0-0.3-0.2-0.6-0.4-0.8C5.3,7.4,5.1,7.1,4.8,6.8C4.7,6.6,4.6,6.5,4.5,6.4c0-0.1-0.1-0.1-0.1-0.1c0-0.1,0-0.1,0-0.2c0,0,0,0,0.1-0.1C4.6,6,4.7,5.9,4.9,5.8l0.9-0.9C5.9,4.7,6,4.6,6.1,4.5c0.1,0,0.1-0.1,0.1-0.1c0,0,0,0,0,0c0.1,0,0.1,0,0.2,0c0,0,0,0,0.1,0.1c0.1,0.1,0.2,0.2,0.4,0.3c0.3,0.3,0.6,0.5,0.8,0.6c0.2,0.1,0.5,0.3,0.8,0.4c0.6,0.1,1.3-0.2,1.7-0.7c0.2-0.3,0.3-0.6,0.3-0.8c0-0.3,0.1-0.6,0.1-1c0-0.2,0-0.4,0.1-0.5c0-0.1,0-0.1,0-0.1c0,0,0,0,0,0c0-0.1,0.1-0.1,0.1-0.1c0,0,0,0,0.1,0c0.1,0,0.2,0,0.5,0h1.3c0.2,0,0.4,0,0.5,0c0.1,0,0.1,0,0.1,0c0.1,0,0.1,0.1,0.1,0.1c0,0,0,0,0,0.1c0,0.1,0,0.2,0.1,0.5c0,0.4,0.1,0.8,0.1,1c0,0.3,0.1,0.6,0.3,0.8c0.4,0.5,1,0.8,1.7,0.7c0.3,0,0.6-0.2,0.8-0.4c0.2-0.2,0.5-0.4,0.8-0.6c0.2-0.1,0.3-0.2,0.4-0.3c0.1,0,0.1-0.1,0.1-0.1c0.1,0,0.1,0,0.2,0c0,0,0,0,0.1,0.1c0.1,0.1,0.2,0.2,0.3,0.3l0.9,0.9c0.2,0.2,0.3,0.3,0.3,0.3c0,0.1,0.1,0.1,0.1,0.1c0,0.1,0,0.1,0,0.2c0,0,0,0-0.1,0.1c-0.1,0.1-0.2,0.2-0.3,0.4c-0.3,0.3-0.5,0.6-0.6,0.8c-0.1,0.2-0.3,0.5-0.4,0.8c-0.1,0.6,0.2,1.3,0.7,1.7c0.3,0.2,0.6,0.3,0.8,0.3c0.3,0,0.6,0.1,1,0.1c0.2,0,0.4,0,0.5,0.1c0.1,0,0.1,0,0.1,0c0,0,0,0,0,0c0.1,0,0.1,0.1,0.1,0.1c0,0,0,0,0,0.1c0,0.1,0,0.3,0,0.5v1.3c0,0.2,0,0.4,0,0.5c0,0.1,0,0.1,0,0.1c0,0.1-0.1,0.1-0.1,0.1c0,0,0,0-0.1,0c-0.1,0-0.2,0-0.5,0.1c-0.4,0-0.7,0.1-1,0.1c-0.3,0-0.6,0.1-0.8,0.3c-0.5,0.4-0.8,1-0.7,1.7c0,0.3,0.2,0.6,0.4,0.8c0.2,0.2,0.4,0.5,0.6,0.8c0.1,0.2,0.2,0.3,0.3,0.4c0,0.1,0.1,0.1,0.1,0.1c0,0.1,0,0.1,0,0.2c0,0,0,0-0.1,0.1c-0.1,0.1-0.2,0.2-0.3,0.3l-0.9,0.9c-0.2,0.2-0.3,0.3-0.3,0.3c0,0-0.1,0.1-0.1,0.1c-0.1,0-0.1,0-0.2,0c0,0,0,0-0.1-0.1c-0.1-0.1-0.2-0.2-0.4-0.3c-0.3-0.3-0.6-0.5-0.8-0.6c-0.2-0.1-0.5-0.3-0.8-0.4c-0.6-0.1-1.3,0.2-1.7,0.7c-0.2,0.3-0.3,0.6-0.3,0.8c0,0.3-0.1,0.6-0.1,1c0,0.2,0,0.4-0.1,0.5c0,0.1,0,0.1,0,0.1c0,0.1-0.1,0.1-0.1,0.1c0,0,0,0-0.1,0c-0.1,0-0.2,0-0.5,0h-1.3c-0.2,0-0.4,0-0.5,0c-0.1,0-0.1,0-0.1,0c-0.1,0-0.1-0.1-0.1-0.1c0,0,0,0,0-0.1c0-0.1,0-0.2-0.1-0.5c0-0.4-0.1-0.8-0.1-1c0-0.3-0.1-0.6-0.3-0.8c-0.4-0.5-1-0.8-1.7-0.7c-0.3,0-0.6,0.2-0.8,0.4c-0.2,0.1-0.5,0.4-0.8,0.6c-0.2,0.1-0.3,0.2-0.4,0.3c-0.1,0-0.1,0.1-0.1,0.1c-0.1,0-0.1,0-0.2,0c0,0,0,0-0.1-0.1c-0.1-0.1-0.2-0.2-0.3-0.3l-0.9-0.9c-0.2-0.2-0.3-0.3-0.3-0.3c0-0.1-0.1-0.1-0.1-0.1c0-0.1,0-0.1,0-0.2c0,0,0,0,0.1-0.1c0.1-0.1,0.2-0.2,0.3-0.4c0.3-0.3,0.5-0.6,0.6-0.8c0.1-0.2,0.3-0.5,0.4-0.8c0.1-0.6-0.2-1.3-0.7-1.7c-0.3-0.2-0.6-0.3-0.8-0.3c-0.3,0-0.6-0.1-1-0.1c-0.2,0-0.4,0-0.5-0.1c-0.1,0-0.1,0-0.1,0C2.6,13.3,2.6,13.3,2.5,13.1C2.6,13.2,2.5,13.2,2.5,13.1z M14.7,3.1C14.7,3.1,14.7,3.1,14.7,3.1L14.7,3.1L14.7,3.1z M3.1,14.7C3.1,14.7,3.1,14.7,3.1,14.7L3.1,14.7L3.1,14.7z M3.8,16.4C3.8,16.4,3.8,16.4,3.8,16.4L3.8,16.4L3.8,16.4zM14.7,20.9L14.7,20.9L14.7,20.9L14.7,20.9z"/>
    </g>
  </symbol>
  <symbol id="views" viewBox="0 0 16 16">
    <path d="M12.6541 10.7952L14.7544 11.6213C14.8576 11.6618 14.9394 11.7434 14.9801 11.8466C15.0511 12.0264 14.9828 12.2268 14.827 12.3284L14.755 12.3656L8.35645 14.8924C8.15935 14.9703 7.94372 14.9831 7.74052 14.9309L7.62035 14.8918L1.25259 12.3653C1.1499 12.3246 1.06864 12.2432 1.02806 12.1404C0.957068 11.9607 1.02536 11.7603 1.1812 11.6587L1.25319 11.6215L3.34307 10.7962L7.06917 12.2751C7.65895 12.5091 8.31525 12.5097 8.9054 12.2766L12.6541 10.7952ZM12.6541 6.77688L14.7544 7.60289C14.8576 7.64346 14.9394 7.72508 14.9801 7.82824C15.0511 8.00803 14.9828 8.20839 14.827 8.31004L14.755 8.3472L10.6001 9.98825L9.619 10.375L8.35645 10.8741L8.317 10.886L8.23566 10.9132C8.20301 10.9215 8.17004 10.9282 8.13688 10.9331C8.12585 10.9346 8.11547 10.936 8.10507 10.9372C8.02541 10.9468 7.94422 10.9464 7.86397 10.9363L7.74052 10.9126L7.62035 10.8735L6.391 10.385L5.38907 9.98825L1.25259 8.34697C1.1499 8.30623 1.06864 8.22483 1.02806 8.12208C0.957068 7.94229 1.02536 7.74192 1.1812 7.64029L1.25319 7.60312L3.34307 6.77788L7.06917 8.25677C7.65895 8.49078 8.31525 8.4913 8.9054 8.25824L12.6541 6.77688ZM7.62186 1.06989C7.85734 0.976906 8.11932 0.976697 8.35494 1.06931L14.7544 3.58452C14.8576 3.62509 14.9394 3.70671 14.9801 3.80987C15.0612 4.01534 14.9605 4.24769 14.755 4.32884L10.6001 5.96988L8.35565 6.856L8.27468 6.88396C8.25405 6.8901 8.23326 6.89557 8.21236 6.90036C8.09824 6.92674 7.98013 6.93258 7.86397 6.91788L7.74052 6.89419L7.62035 6.8551L1.25259 4.3286C1.1499 4.28786 1.06864 4.20646 1.02806 4.10371C0.946925 3.89823 1.04772 3.66589 1.25319 3.58475L7.62186 1.06989Z"/>
  </symbol>
  <symbol id="pin" viewBox="0 0 16 16" fill="none">
    <path d="M9.30308 2.90949C9.95614 2.47412 10.2827 2.25643 10.6384 2.29166C10.9942 2.32689 11.2717 2.60439 11.8267 3.15938L12.8413 4.17396C13.3963 4.72895 13.6738 5.00644 13.709 5.36221C13.7442 5.71798 13.5265 6.04451 13.0912 6.69757L12.2952 7.89148C12.2122 8.016 12.1707 8.07826 12.1307 8.14074C11.6211 8.93675 11.2566 9.81677 11.0541 10.74C11.0382 10.8125 11.0235 10.8858 10.9941 11.0326L10.8668 11.6692C10.7725 12.1406 10.2263 12.3613 9.83098 12.0877V12.0877C7.5186 10.4868 5.51386 8.48205 3.91299 6.16967V6.16967C3.63933 5.77439 3.86001 5.22813 4.33144 5.13384L4.96808 5.00651C5.11482 4.97717 5.1882 4.96249 5.26066 4.94659C6.18388 4.74408 7.0639 4.37956 7.85991 3.86995C7.92239 3.82995 7.98465 3.78844 8.10917 3.70543L9.30308 2.90949Z" stroke="white"/>
    <path d="M3.33398 12.6667L6.33398 9.66669" stroke="white" stroke-linecap="round"/>
  </symbol>
  <symbol id="model" viewBox="0 0 24 24">
    <path d="M17.2,7.8h3.6c1.1,0,2-0.9,2-2V4.2c0-1.1-0.9-2-2-2h-3.6c-1.1,0-2,0.9-2,2v0H9.8V4c0-1.5-1.2-2.8-2.8-2.8H4 C2.5,1.2,1.2,2.5,1.2,4v2c0,1.5,1.2,2.8,2.8,2.8h3c1.5,0,2.8-1.2,2.8-2.8V5.8h2V18c0,1.5,1.2,2.8,2.8,2.8h0.8v0c0,1.1,0.9,2,2,2h3.6 c1.1,0,2-0.9,2-2v-1.6c0-1.1-0.9-2-2-2h-3.6c-1.1,0-2,0.9-2,2v0h-0.8c-0.7,0-1.2-0.6-1.2-1.2v-4.8h2v0c0,1.1,0.9,2,2,2h3.6 c1.1,0,2-0.9,2-2v-1.6c0-1.1-0.9-2-2-2h-3.6c-1.1,0-2,0.9-2,2v0h-2v-6h2v0C15.2,6.9,16.1,7.8,17.2,7.8z M8.2,6 c0,0.7-0.6,1.2-1.2,1.2H4C3.3,7.2,2.8,6.7,2.8,6V4c0-0.7,0.6-1.2,1.2-1.2h3c0.7,0,1.2,0.6,1.2,1.2V6z M16.8,19.2 c0-0.2,0.2-0.5,0.5-0.5h3.6c0.2,0,0.5,0.2,0.5,0.5v1.6c0,0.2-0.2,0.5-0.5,0.5h-3.6c-0.2,0-0.5-0.2-0.5-0.5V19.2z M16.8,11.7 c0-0.2,0.2-0.5,0.5-0.5h3.6c0.2,0,0.5,0.2,0.5,0.5v1.6c0,0.2-0.2,0.5-0.5,0.5h-3.6c-0.2,0-0.5-0.2-0.5-0.5V11.7z M16.8,4.2 c0-0.2,0.2-0.5,0.5-0.5h3.6c0.2,0,0.5,0.2,0.5,0.5v1.6c0,0.2-0.2,0.5-0.5,0.5h-3.6c-0.2,0-0.5-0.2-0.5-0.5V4.2z" />
  </symbol>
  <symbol id="viewButton" viewBox="0 0 16 16">
    <path fill-rule="evenodd" clip-rule="evenodd" d="M9.5 10.5a.5.5 0 0 1 .5.5v3a.5.5 0 0 1-.5.5h-1A.5.5 0 0 1 8 14v-3a.5.5 0 0 1 .5-.5h1Zm-2.5 1V13H1.75a.75.75 0 0 1 0-1.5H7Zm7.25 0a.75.75 0 0 1 0 1.5H11v-1.5h3.25ZM5.5 6a.5.5 0 0 1 .5.5v3a.5.5 0 0 1-.5.5h-1a.5.5 0 0 1-.5-.5v-3a.5.5 0 0 1 .5-.5h1ZM3 7.25v1.5H1.75a.75.75 0 0 1 0-1.5H3Zm11.25 0a.75.75 0 0 1 0 1.5H7v-1.5h7.25Zm-2.75-5.5a.5.5 0 0 1 .5.5v3a.5.5 0 0 1-.5.5h-1a.5.5 0 0 1-.5-.5v-3a.5.5 0 0 1 .5-.5h1ZM9 3v1.5H1.75a.75.75 0 0 1 0-1.5H9Zm5.25 0a.75.75 0 0 1 0 1.5H13V3h1.25Z" />
  </symbol>
</svg>
