<svg xmlns="http://www.w3.org/2000/svg" style="display: none;">
  <symbol id="calendar" viewBox="0 0 24 24">
    <path d="M21,1.2H3C2,1.2,1.2,2,1.2,3v2.5v6V21c0,1,0.8,1.8,1.8,1.8h18c1,0,1.8-0.8,1.8-1.8v-9.5v-6V3 C22.8,2,22,1.2,21,1.2z M2.8,3c0-0.1,0.1-0.2,0.2-0.2h18c0.1,0,0.2,0.1,0.2,0.2v2.5v0.8H2.8V5.5V3z M21.2,21c0,0.1-0.1,0.2-0.2,0.2 H3c-0.1,0-0.2-0.1-0.2-0.2v-9.5V7.8h18.5v3.8V21z" />
    <path d="M8,10.2H6c-0.4,0-0.8,0.3-0.8,0.8s0.3,0.8,0.8,0.8h2c0.4,0,0.8-0.3,0.8-0.8S8.4,10.2,8,10.2z" />
    <path d="M13,10.2h-2c-0.4,0-0.8,0.3-0.8,0.8s0.3,0.8,0.8,0.8h2c0.4,0,0.8-0.3,0.8-0.8S13.4,10.2,13,10.2z" />
    <path d="M18,10.2h-2c-0.4,0-0.8,0.3-0.8,0.8s0.3,0.8,0.8,0.8h2c0.4,0,0.8-0.3,0.8-0.8S18.4,10.2,18,10.2z" />
    <path d="M8,13.8H6c-0.4,0-0.8,0.3-0.8,0.8s0.3,0.8,0.8,0.8h2c0.4,0,0.8-0.3,0.8-0.8S8.4,13.8,8,13.8z" />
    <path d="M13,13.8h-2c-0.4,0-0.8,0.3-0.8,0.8s0.3,0.8,0.8,0.8h2c0.4,0,0.8-0.3,0.8-0.8S13.4,13.8,13,13.8z" />
    <path d="M18,13.8h-2c-0.4,0-0.8,0.3-0.8,0.8s0.3,0.8,0.8,0.8h2c0.4,0,0.8-0.3,0.8-0.8S18.4,13.8,18,13.8z" />
    <path d="M8,17.2H6c-0.4,0-0.8,0.3-0.8,0.8s0.3,0.8,0.8,0.8h2c0.4,0,0.8-0.3,0.8-0.8S8.4,17.2,8,17.2z" />
    <path d="M13,17.2h-2c-0.4,0-0.8,0.3-0.8,0.8s0.3,0.8,0.8,0.8h2c0.4,0,0.8-0.3,0.8-0.8S13.4,17.2,13,17.2z" />
    <path d="M18,17.2h-2c-0.4,0-0.8,0.3-0.8,0.8s0.3,0.8,0.8,0.8h2c0.4,0,0.8-0.3,0.8-0.8S18.4,17.2,18,17.2z" />
  </symbol>
  <symbol id="location" viewBox="0 0 16 16">
    <path d="M8,4.6c-1.5,0-2.6,1.2-2.6,2.6S6.5,9.9,8,9.9s2.6-1.2,2.6-2.6S9.5,4.6,8,4.6z M8,8.9c-0.9,0-1.6-0.7-1.6-1.6 c0-0.9,0.7-1.6,1.6-1.6s1.6,0.7,1.6,1.6C9.6,8.2,8.9,8.9,8,8.9z"/>
    <path d="M8,1.8c-3,0-5.5,2.5-5.5,5.5c0,1.9,0.9,3.4,2,4.5c1.1,1.1,2.3,1.8,2.9,2.1c0.4,0.2,0.9,0.2,1.3,0c0.6-0.3,1.8-1,2.9-2.1 c1.1-1.1,2-2.6,2-4.5C13.5,4.3,11,1.8,8,1.8z M10.8,11.1c-1,1-2.1,1.7-2.6,2c-0.1,0.1-0.2,0.1-0.3,0c-0.6-0.3-1.7-1-2.6-2 c-1-1-1.7-2.3-1.7-3.8c0-2.5,2-4.5,4.5-4.5s4.5,2,4.5,4.5C12.5,8.8,11.7,10.1,10.8,11.1z"/>
  </symbol>
  <symbol id="reminder" viewBox="0 0 493 511.92">
    <path fill-rule="nonzero" d="M277.16 41.75c49.87 6.77 94.55 29.88 128.47 63.79 40.67 40.67 65.83 96.87 65.83 158.93 0 62.08-25.15 118.28-65.83 158.96a227.22 227.22 0 0 1-25.34 21.83l27.24 38.33c5.68 8.18 3.65 19.42-4.54 25.11-8.19 5.68-19.44 3.65-25.12-4.54l-28.28-39.78c-30.84 15.91-65.83 24.89-102.92 24.89-37.7 0-73.23-9.28-104.43-25.69l-26.59 39.71c-5.54 8.28-16.76 10.5-25.04 4.95-8.29-5.54-10.5-16.75-4.95-25.03l26.07-38.95a225.636 225.636 0 0 1-24-20.83c-40.68-40.68-65.84-96.89-65.84-158.96 0-62.07 25.16-118.26 65.84-158.94 36.44-36.43 85.34-60.39 139.74-65.03 16.45-1.4 33.38-.96 49.69 1.25zm204.53 102.98c17.3-41.28 15.24-84.52-9.51-113.49-29.7-34.77-83.39-38.75-133.26-14.3 53.01 36.36 101.12 78.78 142.77 127.79zm-470.15 1.35C-6.1 104.02-4.01 59.97 21.21 30.45 51.47-4.97 106.18-9.03 156.99 15.88c-54 37.06-103.03 80.26-145.45 130.2zm269.3 101.47 67.65-1.18c9.97-.17 18.19 7.76 18.36 17.73.18 9.97-7.76 18.19-17.73 18.37l-69.51 1.21c-6.61 11.32-18.89 18.93-32.94 18.93-21.05 0-38.12-17.08-38.12-38.13 0-14.52 8.13-27.15 20.08-33.58v-87.35c0-9.97 8.07-18.05 18.04-18.05 9.97 0 18.06 8.08 18.06 18.05v87.35a38.324 38.324 0 0 1 16.11 16.65zm99.27-116.5c-34.14-34.14-81.32-55.26-133.43-55.26-52.1 0-99.28 21.12-133.42 55.26-34.15 34.14-55.27 81.32-55.27 133.43 0 52.11 21.12 99.28 55.27 133.43 34.14 34.14 81.31 55.26 133.41 55.26 52.12 0 99.29-21.12 133.43-55.26 34.14-34.15 55.28-81.32 55.28-133.44 0-52.1-21.13-99.27-55.27-133.42z"/>
  </symbol>
</svg>
