<svg xmlns="http://www.w3.org/2000/svg" style="display: none;">
  <symbol id="calendar" viewBox="0 0 32 32">
    <path fill-rule="evenodd" clip-rule="evenodd" d="M28 24.0044C28 26.2136 26.2091 28 24 28H8C5.79086 28 4 26.2091 4 24V8C4 5.79086 5.79086 4 8 4H10V3C10 2.44772 10.4477 2 11 2C11.5523 2 12 2.44772 12 3V4H19.9995V3C19.9995 2.44772 20.4472 2 20.9995 2C21.5518 2 21.9995 2.44772 21.9995 3V4H24C26.2091 4 28 5.79086 28 8C28 11.5569 28 19.2641 28 24.0044ZM19.9995 6V7C19.9995 7.55228 20.4472 8 20.9995 8C21.5518 8 21.9995 7.55228 21.9995 7V6H24C25.1046 6 26 6.89543 26 8V12H6V8C6 6.89543 6.89543 6 8 6H10V7C10 7.55228 10.4477 8 11 8C11.5523 8 12 7.55228 12 7V6H19.9995ZM6 14V24C6 25.1046 6.89543 26 8 26H24C25.1046 26 26 25.1046 26 24V14H6Z" />
  </symbol>
  <symbol id="location" viewBox="0 0 16 16">
    <path d="M8,4.6c-1.5,0-2.6,1.2-2.6,2.6S6.5,9.9,8,9.9s2.6-1.2,2.6-2.6S9.5,4.6,8,4.6z M8,8.9c-0.9,0-1.6-0.7-1.6-1.6 c0-0.9,0.7-1.6,1.6-1.6s1.6,0.7,1.6,1.6C9.6,8.2,8.9,8.9,8,8.9z"/>
    <path d="M8,1.8c-3,0-5.5,2.5-5.5,5.5c0,1.9,0.9,3.4,2,4.5c1.1,1.1,2.3,1.8,2.9,2.1c0.4,0.2,0.9,0.2,1.3,0c0.6-0.3,1.8-1,2.9-2.1 c1.1-1.1,2-2.6,2-4.5C13.5,4.3,11,1.8,8,1.8z M10.8,11.1c-1,1-2.1,1.7-2.6,2c-0.1,0.1-0.2,0.1-0.3,0c-0.6-0.3-1.7-1-2.6-2 c-1-1-1.7-2.3-1.7-3.8c0-2.5,2-4.5,4.5-4.5s4.5,2,4.5,4.5C12.5,8.8,11.7,10.1,10.8,11.1z"/>
  </symbol>
  <symbol id="reminder" viewBox="0 0 32 32">
    <path d="M3.46447 3.46447C4.40215 2.52678 5.67392 2 7 2C8.20645 2 9.36795 2.43602 10.2738 3.22081C9.58757 3.52877 8.93063 3.89039 8.30835 4.30033C7.90429 4.10452 7.45753 4 7 4C6.20435 4 5.44129 4.31607 4.87868 4.87868C4.31607 5.44129 4 6.20435 4 7C4 7.45753 4.10452 7.90429 4.30033 8.30835C3.89039 8.93064 3.52877 9.58757 3.22081 10.2738C2.43602 9.36795 2 8.20645 2 7C2 5.67392 2.52678 4.40215 3.46447 3.46447Z" />
    <path d="M28.7792 10.2738C29.1299 9.86893 29.4138 9.40973 29.6194 8.91342C29.8707 8.30679 30 7.65661 30 7C30 6.34339 29.8707 5.69321 29.6194 5.08658C29.3681 4.47996 28.9998 3.92876 28.5355 3.46447C28.0712 3.00017 27.52 2.63188 26.9134 2.3806C26.3068 2.12933 25.6566 2 25 2C24.3434 2 23.6932 2.12933 23.0866 2.3806C22.5903 2.58618 22.1311 2.87009 21.7262 3.22081C22.4124 3.52878 23.0694 3.8904 23.6917 4.30033C23.7443 4.27481 23.7978 4.25081 23.8519 4.22836C24.2159 4.0776 24.606 4 25 4C25.394 4 25.7841 4.0776 26.1481 4.22836C26.512 4.37913 26.8427 4.6001 27.1213 4.87868C27.3999 5.15726 27.6209 5.48797 27.7716 5.85195C27.9224 6.21593 28 6.60604 28 7C28 7.39397 27.9224 7.78407 27.7716 8.14805C27.7492 8.20224 27.7252 8.25569 27.6997 8.30835C28.1096 8.93063 28.4712 9.58756 28.7792 10.2738Z" />
    <path d="M21.7071 11.2929C22.0976 11.6834 22.0976 12.3166 21.7071 12.7071L16.7071 17.7071C16.3166 18.0976 15.6834 18.0976 15.2929 17.7071L12.2929 14.7071C11.9024 14.3166 11.9024 13.6834 12.2929 13.2929C12.6834 12.9024 13.3166 12.9024 13.7071 13.2929L16 15.5858L20.2929 11.2929C20.6834 10.9024 21.3166 10.9024 21.7071 11.2929Z" />
    <path fill-rule="evenodd" clip-rule="evenodd" d="M4 16C4 9.37258 9.37258 4 16 4C22.6274 4 28 9.37258 28 16C28 18.9537 26.9328 21.6582 25.1631 23.7488L27.7071 26.2929C28.0976 26.6834 28.0976 27.3166 27.7071 27.7071C27.3166 28.0976 26.6834 28.0976 26.2929 27.7071L23.7488 25.1631C21.6582 26.9328 18.9537 28 16 28C13.0463 28 10.3418 26.9328 8.25116 25.1631L5.70711 27.7071C5.31658 28.0976 4.68342 28.0976 4.29289 27.7071C3.90237 27.3166 3.90237 26.6834 4.29289 26.2929L6.83694 23.7488C5.06716 21.6582 4 18.9537 4 16ZM16 6C10.4772 6 6 10.4772 6 16C6 21.5228 10.4772 26 16 26C21.5229 26 26 21.5228 26 16C26 10.4772 21.5229 6 16 6Z" />
  </symbol>
  <symbol id="notifications" viewBox="0 0 32 32">
    <path fill-rule="evenodd" clip-rule="evenodd" d="M17 3C17 2.44772 16.5523 2 16 2C15.4477 2 15 2.44772 15 3V4.05493C10.5 4.55237 7 8.36745 7 13V14.8953C7 16.0307 6.6136 17.1322 5.90434 18.0188L4.18007 20.1741C3.41618 21.129 3 22.3154 3 23.5383C3 24.8978 4.10216 26 5.46174 26H12C12 26.5253 12.1035 27.0454 12.3045 27.5307C12.5055 28.016 12.8001 28.457 13.1716 28.8284C13.543 29.1999 13.984 29.4945 14.4693 29.6955C14.9546 29.8965 15.4747 30 16 30C16.5253 30 17.0454 29.8965 17.5307 29.6955C18.016 29.4945 18.457 29.1999 18.8284 28.8284C19.1999 28.457 19.4945 28.016 19.6955 27.5307C19.8965 27.0454 20 26.5253 20 26H26.5383C27.8978 26 29 24.8978 29 23.5383C29 22.3154 28.5838 21.129 27.8199 20.1741L26.0957 18.0188C25.3864 17.1322 25 16.0307 25 14.8953V13C25 8.36745 21.5 4.55237 17 4.05493V3ZM18 26H14C14 26.2626 14.0517 26.5227 14.1522 26.7654C14.2528 27.008 14.4001 27.2285 14.5858 27.4142C14.7715 27.5999 14.992 27.7472 15.2346 27.8478C15.4773 27.9483 15.7374 28 16 28C16.2626 28 16.5227 27.9483 16.7654 27.8478C17.008 27.7472 17.2285 27.5999 17.4142 27.4142C17.5999 27.2285 17.7472 27.008 17.8478 26.7654C17.9483 26.5227 18 26.2626 18 26ZM5 23.5383C5 23.7933 5.20673 24 5.46174 24H26.5383C26.7933 24 27 23.7933 27 23.5383C27 22.7696 26.7384 22.0238 26.2582 21.4235L24.5339 19.2682C23.541 18.027 23 16.4848 23 14.8953V13C23 9.13401 19.866 6 16 6C12.134 6 9 9.13401 9 13V14.8953C9 16.4848 8.45903 18.027 7.46608 19.2682L5.74181 21.4235C5.26161 22.0238 5 22.7696 5 23.5383Z" />
  </symbol>
</svg>
