<svg xmlns="http://www.w3.org/2000/svg" style="display: none;">
  <symbol id="calendar" viewBox="0 0 32 32">
    <path fill-rule="evenodd" clip-rule="evenodd" d="M28 24.0044C28 26.2136 26.2091 28 24 28H8C5.79086 28 4 26.2091 4 24V8C4 5.79086 5.79086 4 8 4H10V3C10 2.44772 10.4477 2 11 2C11.5523 2 12 2.44772 12 3V4H19.9995V3C19.9995 2.44772 20.4472 2 20.9995 2C21.5518 2 21.9995 2.44772 21.9995 3V4H24C26.2091 4 28 5.79086 28 8C28 11.5569 28 19.2641 28 24.0044ZM19.9995 6V7C19.9995 7.55228 20.4472 8 20.9995 8C21.5518 8 21.9995 7.55228 21.9995 7V6H24C25.1046 6 26 6.89543 26 8V12H6V8C6 6.89543 6.89543 6 8 6H10V7C10 7.55228 10.4477 8 11 8C11.5523 8 12 7.55228 12 7V6H19.9995ZM6 14V24C6 25.1046 6.89543 26 8 26H24C25.1046 26 26 25.1046 26 24V14H6Z" />
  </symbol>
  <symbol id="location" viewBox="0 0 16 16">
    <path d="M8,4.6c-1.5,0-2.6,1.2-2.6,2.6S6.5,9.9,8,9.9s2.6-1.2,2.6-2.6S9.5,4.6,8,4.6z M8,8.9c-0.9,0-1.6-0.7-1.6-1.6 c0-0.9,0.7-1.6,1.6-1.6s1.6,0.7,1.6,1.6C9.6,8.2,8.9,8.9,8,8.9z"/>
    <path d="M8,1.8c-3,0-5.5,2.5-5.5,5.5c0,1.9,0.9,3.4,2,4.5c1.1,1.1,2.3,1.8,2.9,2.1c0.4,0.2,0.9,0.2,1.3,0c0.6-0.3,1.8-1,2.9-2.1 c1.1-1.1,2-2.6,2-4.5C13.5,4.3,11,1.8,8,1.8z M10.8,11.1c-1,1-2.1,1.7-2.6,2c-0.1,0.1-0.2,0.1-0.3,0c-0.6-0.3-1.7-1-2.6-2 c-1-1-1.7-2.3-1.7-3.8c0-2.5,2-4.5,4.5-4.5s4.5,2,4.5,4.5C12.5,8.8,11.7,10.1,10.8,11.1z"/>
  </symbol>
  <symbol id="reminder" viewBox="0 0 32 32">
    <path d="M3.46447 3.46447C4.40215 2.52678 5.67392 2 7 2C8.20645 2 9.36795 2.43602 10.2738 3.22081C9.58757 3.52877 8.93063 3.89039 8.30835 4.30033C7.90429 4.10452 7.45753 4 7 4C6.20435 4 5.44129 4.31607 4.87868 4.87868C4.31607 5.44129 4 6.20435 4 7C4 7.45753 4.10452 7.90429 4.30033 8.30835C3.89039 8.93064 3.52877 9.58757 3.22081 10.2738C2.43602 9.36795 2 8.20645 2 7C2 5.67392 2.52678 4.40215 3.46447 3.46447Z" />
    <path d="M28.7792 10.2738C29.1299 9.86893 29.4138 9.40973 29.6194 8.91342C29.8707 8.30679 30 7.65661 30 7C30 6.34339 29.8707 5.69321 29.6194 5.08658C29.3681 4.47996 28.9998 3.92876 28.5355 3.46447C28.0712 3.00017 27.52 2.63188 26.9134 2.3806C26.3068 2.12933 25.6566 2 25 2C24.3434 2 23.6932 2.12933 23.0866 2.3806C22.5903 2.58618 22.1311 2.87009 21.7262 3.22081C22.4124 3.52878 23.0694 3.8904 23.6917 4.30033C23.7443 4.27481 23.7978 4.25081 23.8519 4.22836C24.2159 4.0776 24.606 4 25 4C25.394 4 25.7841 4.0776 26.1481 4.22836C26.512 4.37913 26.8427 4.6001 27.1213 4.87868C27.3999 5.15726 27.6209 5.48797 27.7716 5.85195C27.9224 6.21593 28 6.60604 28 7C28 7.39397 27.9224 7.78407 27.7716 8.14805C27.7492 8.20224 27.7252 8.25569 27.6997 8.30835C28.1096 8.93063 28.4712 9.58756 28.7792 10.2738Z" />
    <path d="M21.7071 11.2929C22.0976 11.6834 22.0976 12.3166 21.7071 12.7071L16.7071 17.7071C16.3166 18.0976 15.6834 18.0976 15.2929 17.7071L12.2929 14.7071C11.9024 14.3166 11.9024 13.6834 12.2929 13.2929C12.6834 12.9024 13.3166 12.9024 13.7071 13.2929L16 15.5858L20.2929 11.2929C20.6834 10.9024 21.3166 10.9024 21.7071 11.2929Z" />
    <path fill-rule="evenodd" clip-rule="evenodd" d="M4 16C4 9.37258 9.37258 4 16 4C22.6274 4 28 9.37258 28 16C28 18.9537 26.9328 21.6582 25.1631 23.7488L27.7071 26.2929C28.0976 26.6834 28.0976 27.3166 27.7071 27.7071C27.3166 28.0976 26.6834 28.0976 26.2929 27.7071L23.7488 25.1631C21.6582 26.9328 18.9537 28 16 28C13.0463 28 10.3418 26.9328 8.25116 25.1631L5.70711 27.7071C5.31658 28.0976 4.68342 28.0976 4.29289 27.7071C3.90237 27.3166 3.90237 26.6834 4.29289 26.2929L6.83694 23.7488C5.06716 21.6582 4 18.9537 4 16ZM16 6C10.4772 6 6 10.4772 6 16C6 21.5228 10.4772 26 16 26C21.5229 26 26 21.5228 26 16C26 10.4772 21.5229 6 16 6Z" />
  </symbol>
  <symbol id="notifications" viewBox="0 0 32 32">
    <path fill-rule="evenodd" clip-rule="evenodd" d="M17 3C17 2.44772 16.5523 2 16 2C15.4477 2 15 2.44772 15 3V4.05493C10.5 4.55237 7 8.36745 7 13V14.8953C7 16.0307 6.6136 17.1322 5.90434 18.0188L4.18007 20.1741C3.41618 21.129 3 22.3154 3 23.5383C3 24.8978 4.10216 26 5.46174 26H12C12 26.5253 12.1035 27.0454 12.3045 27.5307C12.5055 28.016 12.8001 28.457 13.1716 28.8284C13.543 29.1999 13.984 29.4945 14.4693 29.6955C14.9546 29.8965 15.4747 30 16 30C16.5253 30 17.0454 29.8965 17.5307 29.6955C18.016 29.4945 18.457 29.1999 18.8284 28.8284C19.1999 28.457 19.4945 28.016 19.6955 27.5307C19.8965 27.0454 20 26.5253 20 26H26.5383C27.8978 26 29 24.8978 29 23.5383C29 22.3154 28.5838 21.129 27.8199 20.1741L26.0957 18.0188C25.3864 17.1322 25 16.0307 25 14.8953V13C25 8.36745 21.5 4.55237 17 4.05493V3ZM18 26H14C14 26.2626 14.0517 26.5227 14.1522 26.7654C14.2528 27.008 14.4001 27.2285 14.5858 27.4142C14.7715 27.5999 14.992 27.7472 15.2346 27.8478C15.4773 27.9483 15.7374 28 16 28C16.2626 28 16.5227 27.9483 16.7654 27.8478C17.008 27.7472 17.2285 27.5999 17.4142 27.4142C17.5999 27.2285 17.7472 27.008 17.8478 26.7654C17.9483 26.5227 18 26.2626 18 26ZM5 23.5383C5 23.7933 5.20673 24 5.46174 24H26.5383C26.7933 24 27 23.7933 27 23.5383C27 22.7696 26.7384 22.0238 26.2582 21.4235L24.5339 19.2682C23.541 18.027 23 16.4848 23 14.8953V13C23 9.13401 19.866 6 16 6C12.134 6 9 9.13401 9 13V14.8953C9 16.4848 8.45903 18.027 7.46608 19.2682L5.74181 21.4235C5.26161 22.0238 5 22.7696 5 23.5383Z" />
  </symbol>
  <symbol id="watch" viewBox="0 0 16 16">
    <path d="M8 4C8 3.72386 7.77614 3.5 7.5 3.5C7.22386 3.5 7 3.72386 7 4V8.5C7 8.77614 7.22386 9 7.5 9H10.5C10.7761 9 11 8.77614 11 8.5C11 8.22386 10.7761 8 10.5 8L8 8V4Z" />
    <path fill-rule="evenodd" clip-rule="evenodd" d="M15 8C15 11.866 11.866 15 8 15C4.13401 15 1 11.866 1 8C1 4.13401 4.13401 1 8 1C11.866 1 15 4.13401 15 8ZM14 8C14 11.3137 11.3137 14 8 14C4.68629 14 2 11.3137 2 8C2 4.68629 4.68629 2 8 2C11.3137 2 14 4.68629 14 8Z" />
  </symbol>
  <symbol id="description" viewBox="0 0 16 16">
    <path d="M2 4.5C2 4.22386 2.22386 4 2.5 4H13.5C13.7761 4 14 4.22386 14 4.5C14 4.77614 13.7761 5 13.5 5H2.5C2.22386 5 2 4.77614 2 4.5Z" fill-opacity="0.6"/>
    <path d="M2 8C2 7.72386 2.22386 7.5 2.5 7.5H9.5C9.77614 7.5 10 7.72386 10 8C10 8.27614 9.77614 8.5 9.5 8.5H2.5C2.22386 8.5 2 8.27614 2 8Z" fill-opacity="0.6"/>
    <path d="M2 11.5C2 11.2239 2.22386 11 2.5 11H11.5C11.7761 11 12 11.2239 12 11.5C12 11.7761 11.7761 12 11.5 12H2.5C2.22386 12 2 11.7761 2 11.5Z" fill-opacity="0.6"/>
  </symbol>
  <symbol id="participants" viewBox="0 0 16 16">
    <path fill-rule="evenodd" clip-rule="evenodd" d="M2 5.5C2 3.567 3.567 2 5.5 2C7.433 2 9 3.567 9 5.5C9 7.433 7.433 9 5.5 9C3.567 9 2 7.433 2 5.5ZM5.5 3C4.11929 3 3 4.11929 3 5.5C3 6.88071 4.11929 8 5.5 8C6.88071 8 8 6.88071 8 5.5C8 4.11929 6.88071 3 5.5 3Z" fill-opacity="0.6"/>
    <path d="M10.5 10C10.2239 10 10 10.2239 10 10.5C10 10.7761 10.2239 11 10.5 11H11.5C12.8807 11 14 12.1193 14 13.5C14 13.7761 14.2239 14 14.5 14C14.7761 14 15 13.7761 15 13.5C15 11.567 13.433 10 11.5 10H10.5Z" fill-opacity="0.6"/>
    <path d="M4.5 11C3.11929 11 2 12.1193 2 13.5C2 13.7761 1.77614 14 1.5 14C1.22386 14 1 13.7761 1 13.5C1 11.567 2.567 10 4.5 10H6.5C8.433 10 10 11.567 10 13.5C10 13.7761 9.77614 14 9.5 14C9.22386 14 9 13.7761 9 13.5C9 12.1193 7.88071 11 6.5 11H4.5Z" fill-opacity="0.6"/>
    <path d="M10.5 2.99988C10.2238 2.99988 9.99995 3.22374 9.99995 3.49988C9.99995 3.77602 10.2238 3.99988 10.5 3.99988C10.7846 3.99988 11.0661 4.06066 11.3254 4.17815C11.5847 4.29564 11.8159 4.46714 12.0036 4.68119C12.1913 4.89523 12.3312 5.14688 12.4138 5.41931C12.4965 5.69174 12.52 5.97868 12.4828 6.26093C12.4457 6.54318 12.3487 6.81425 12.1984 7.05601C12.048 7.29777 11.8478 7.50465 11.6111 7.66282C11.3744 7.82098 11.1066 7.92679 10.8257 7.97316C10.5449 8.01954 10.2573 8.00541 9.98232 7.93173C9.71558 7.86026 9.44141 8.01855 9.36994 8.28528C9.29847 8.55202 9.45677 8.82618 9.7235 8.89766C10.136 9.00818 10.5673 9.02937 10.9886 8.95981C11.41 8.89025 11.8116 8.73153 12.1667 8.49429C12.5217 8.25704 12.8221 7.94672 13.0476 7.58408C13.2731 7.22144 13.4186 6.81484 13.4743 6.39146C13.53 5.96807 13.4947 5.53767 13.3708 5.12902C13.2468 4.72038 13.037 4.3429 12.7555 4.02184C12.4739 3.70078 12.127 3.44353 11.7381 3.26729C11.3491 3.09105 10.927 2.99988 10.5 2.99988Z" fill-opacity="0.6"/>
  </symbol>
  <symbol id="repeat" viewBox="0 0 16 16">
    <path d="M10.0003 4.99986H12.6103C11.9636 4.00602 11.0131 3.24777 9.90035 2.83815C8.78765 2.42852 7.57236 2.38944 6.43564 2.72675C5.29892 3.06405 4.30164 3.75967 3.59247 4.70992C2.98332 5.52613 2.61475 6.49266 2.52293 7.50049C2.49788 7.7755 2.27614 7.99986 1.99998 7.99986C1.72404 7.99986 1.49802 7.77598 1.51892 7.50083C1.60709 6.33998 2.00581 5.22075 2.67752 4.26241C3.44506 3.16736 4.53166 2.33568 5.78917 1.88079C7.04668 1.4259 8.41389 1.36994 9.70437 1.72053C10.9948 2.07112 12.1458 2.8112 13.0003 3.83986V1.99986H14.0003V5.99986H10.0003V4.99986Z" fill-opacity="0.6"/>
    <path d="M6.00026 10.9999H3.39026C4.03693 11.9937 4.98746 12.7519 6.10016 13.1616C7.21287 13.5712 8.42816 13.6103 9.56487 13.273C10.7016 12.9357 11.6989 12.24 12.408 11.2898C13.0172 10.4736 13.3858 9.50706 13.4776 8.49923C13.5026 8.22421 13.7244 7.99986 14.0005 7.99986C14.2765 7.99986 14.5025 8.22373 14.4816 8.49888C14.3934 9.65973 13.9947 10.779 13.323 11.7373C12.5555 12.8324 11.4689 13.664 10.2113 14.1189C8.95384 14.5738 7.58663 14.6298 6.29615 14.2792C5.00567 13.9286 3.85472 13.1885 3.00026 12.1599V13.9999H2.00026V9.99986H6.00026V10.9999Z" fill-opacity="0.6"/>
  </symbol>
  <symbol id="globe" viewBox="0 0 16 16">
    <path d="M8 1C6.61553 1 5.26216 1.41054 4.11101 2.17971C2.95987 2.94888 2.06266 4.04213 1.53285 5.32122C1.00303 6.6003 0.86441 8.00776 1.13451 9.36563C1.4046 10.7235 2.07129 11.9708 3.05026 12.9497C4.02922 13.9287 5.2765 14.5954 6.63437 14.8655C7.99224 15.1356 9.3997 14.997 10.6788 14.4672C11.9579 13.9373 13.0511 13.0401 13.8203 11.889C14.5895 10.7378 15 9.38447 15 8C15 6.14348 14.2625 4.36301 12.9497 3.05025C11.637 1.7375 9.85652 1 8 1ZM14 7.5H11C10.9416 5.65854 10.4646 3.85458 9.605 2.225C10.7893 2.54895 11.8457 3.22842 12.6316 4.17171C13.4175 5.115 13.8952 6.27669 14 7.5ZM8 14C7.88846 14.0075 7.77654 14.0075 7.665 14C6.62915 12.3481 6.05426 10.4491 6 8.5H10C9.95026 10.4477 9.38058 12.3466 8.35 14C8.23348 14.0082 8.11653 14.0082 8 14ZM6 7.5C6.04975 5.55234 6.61942 3.65341 7.65 2C7.87264 1.97498 8.09737 1.97498 8.32 2C9.36114 3.6504 9.94124 5.54953 10 7.5H6ZM6.38 2.225C5.52565 3.85582 5.05373 5.65972 5 7.5H2C2.10485 6.27669 2.58247 5.115 3.3684 4.17171C4.15432 3.22842 5.21072 2.54895 6.395 2.225H6.38ZM2.025 8.5H5.025C5.07718 10.3399 5.54739 12.1438 6.4 13.775C5.21943 13.4476 4.16739 12.7666 3.38528 11.8236C2.60317 10.8806 2.12848 9.72076 2.025 8.5ZM9.605 13.775C10.4646 12.1454 10.9416 10.3415 11 8.5H14C13.8952 9.72331 13.4175 10.885 12.6316 11.8283C11.8457 12.7716 10.7893 13.4511 9.605 13.775Z" fill-opacity="0.6"/>
  </symbol>
</svg>
