<svg xmlns="http://www.w3.org/2000/svg" style="display: none;">
  <symbol id="calendar" viewBox="0 0 24 24">
    <path d="M19.5,5h-2.1V4.5c0-0.3-0.2-0.5-0.5-0.5s-0.5,0.2-0.5,0.5V5H8.1V4.5C8.1,4.2,7.9,4,7.6,4S7.1,4.2,7.1,4.5V5H5 C4.2,5,3.5,5.7,3.5,6.5V19c0,0.8,0.7,1.5,1.5,1.5h14.5c0.8,0,1.5-0.7,1.5-1.5V6.5C21,5.7,20.3,5,19.5,5z M5,6h2.1v0.5 c0,0.3,0.2,0.5,0.5,0.5s0.5-0.2,0.5-0.5V6h8.3v0.5c0,0.3,0.2,0.5,0.5,0.5s0.5-0.2,0.5-0.5V6h2.1C19.7,6,20,6.3,20,6.5v3.1H4.5V6.5 C4.5,6.3,4.7,6,5,6z M19.5,19.5H5c-0.3,0-0.5-0.2-0.5-0.5v-8.3H20V19C20,19.2,19.7,19.5,19.5,19.5z" />
  </symbol>
  <symbol id="location" viewBox="0 0 16 16">
    <path d="M8,4.6c-1.5,0-2.6,1.2-2.6,2.6S6.5,9.9,8,9.9s2.6-1.2,2.6-2.6S9.5,4.6,8,4.6z M8,8.9c-0.9,0-1.6-0.7-1.6-1.6 c0-0.9,0.7-1.6,1.6-1.6s1.6,0.7,1.6,1.6C9.6,8.2,8.9,8.9,8,8.9z"/>
    <path d="M8,1.8c-3,0-5.5,2.5-5.5,5.5c0,1.9,0.9,3.4,2,4.5c1.1,1.1,2.3,1.8,2.9,2.1c0.4,0.2,0.9,0.2,1.3,0c0.6-0.3,1.8-1,2.9-2.1 c1.1-1.1,2-2.6,2-4.5C13.5,4.3,11,1.8,8,1.8z M10.8,11.1c-1,1-2.1,1.7-2.6,2c-0.1,0.1-0.2,0.1-0.3,0c-0.6-0.3-1.7-1-2.6-2 c-1-1-1.7-2.3-1.7-3.8c0-2.5,2-4.5,4.5-4.5s4.5,2,4.5,4.5C12.5,8.8,11.7,10.1,10.8,11.1z"/>
  </symbol>
</svg>
