<svg xmlns="http://www.w3.org/2000/svg" style="display: none;">
  <symbol id="calendar" viewBox="0 0 24 24">
    <path d="M16.5,5h-0.5V4c0-0.3-0.3-0.6-0.6-0.6S14.7,3.7,14.7,4v1H9.3V4c0-0.3-0.3-0.6-0.6-0.6S8.1,3.7,8.1,4v1H7.5c-2,0-3.6,1.6-3.6,3.6v8.9c0,2,1.6,3.6,3.6,3.6h8.9c2,0,3.6-1.6,3.6-3.6V8.6C20,6.7,18.4,5,16.5,5z M7.5,6.2h0.5v1c0,0.3,0.3,0.6,0.6,0.6s0.6-0.3,0.6-0.6v-1h5.4v1c0,0.3,0.3,0.6,0.6,0.6s0.6-0.3,0.6-0.6v-1h0.5c1.3,0,2.4,1.1,2.4,2.4V10H5.1V8.6C5.1,7.3,6.2,6.2,7.5,6.2z M16.5,19.9H7.5c-1.3,0-2.4-1.1-2.4-2.4v-6.3h13.7v6.3C18.9,18.8,17.8,19.9,16.5,19.9z" />
  </symbol>
  <symbol id="location" viewBox="0 0 16 16">
    <path d="M8,4.6c-1.5,0-2.6,1.2-2.6,2.6S6.5,9.9,8,9.9s2.6-1.2,2.6-2.6S9.5,4.6,8,4.6z M8,8.9c-0.9,0-1.6-0.7-1.6-1.6 c0-0.9,0.7-1.6,1.6-1.6s1.6,0.7,1.6,1.6C9.6,8.2,8.9,8.9,8,8.9z"/>
    <path d="M8,1.8c-3,0-5.5,2.5-5.5,5.5c0,1.9,0.9,3.4,2,4.5c1.1,1.1,2.3,1.8,2.9,2.1c0.4,0.2,0.9,0.2,1.3,0c0.6-0.3,1.8-1,2.9-2.1 c1.1-1.1,2-2.6,2-4.5C13.5,4.3,11,1.8,8,1.8z M10.8,11.1c-1,1-2.1,1.7-2.6,2c-0.1,0.1-0.2,0.1-0.3,0c-0.6-0.3-1.7-1-2.6-2 c-1-1-1.7-2.3-1.7-3.8c0-2.5,2-4.5,4.5-4.5s4.5,2,4.5,4.5C12.5,8.8,11.7,10.1,10.8,11.1z"/>
  </symbol>
  <symbol id="reminder" viewBox="0 0 24 24">
    <path d="M14.6,10.1l-2.4,1.8l-1.4-1c-0.3-0.2-0.6-0.1-0.8,0.2c-0.2,0.3-0.1,0.6,0.2,0.8l1.8,1.2c0,0,0,0,0,0c0.1,0.1,0.2,0.1,0.3,0.1c0,0,0,0,0,0c0,0,0,0,0,0c0,0,0,0,0,0c0.1,0,0.2,0,0.2-0.1c0,0,0,0,0.1,0c0,0,0,0,0.1,0l2.8-2c0.3-0.2,0.3-0.6,0.1-0.8C15.2,10,14.8,9.9,14.6,10.1z" />
    <path d="M21,6.3c-0.2-0.7-0.5-1.3-1.1-1.7c-0.5-0.4-1.2-0.7-1.9-0.7c-0.5,0-1,0.1-1.4,0.3c-0.4,0.2-0.8,0.5-1.1,0.9c-0.6-0.3-1.1-0.5-1.7-0.6c-1.5-0.3-3-0.2-4.4,0.4C9.1,5,8.8,5.1,8.6,5.2c0,0,0-0.1-0.1-0.1C8.2,4.6,7.6,4.2,7,4C6.4,3.7,5.7,3.7,5,4C4.4,4.2,3.8,4.6,3.5,5.1C3.1,5.7,2.9,6.3,2.9,7c0,0.6,0.2,1.2,0.5,1.7c0.3,0.5,0.8,0.9,1.3,1.2c0.1,0,0.1,0,0.2,0c-0.2,0.7-0.3,1.4-0.3,2.1c0,1,0.2,2,0.6,2.9c0.4,0.9,0.9,1.8,1.6,2.5c0.1,0.1,0.2,0.2,0.3,0.3l-1.6,1.6c-0.2,0.2-0.2,0.6,0,0.8c0.1,0.1,0.3,0.2,0.4,0.2c0.2,0,0.3-0.1,0.4-0.2l1.7-1.7c0.4,0.2,0.8,0.5,1.2,0.6c0.9,0.4,1.9,0.6,2.9,0.6c0,0,0.1,0,0.1,0c1.4,0,2.8-0.4,4-1.2l1.7,1.7c0.1,0.1,0.3,0.2,0.4,0.2c0.2,0,0.3-0.1,0.4-0.2c0.2-0.2,0.2-0.6,0-0.8l-1.5-1.5c0.9-0.8,1.6-1.7,2-2.8c0.6-1.4,0.8-2.9,0.5-4.4c-0.1-0.3-0.1-0.5-0.2-0.8c0.5-0.3,1-0.8,1.3-1.4C21,7.7,21.1,7,21,6.3z M5.2,8.7C4.9,8.6,4.6,8.3,4.4,8C4.2,7.7,4.1,7.3,4.1,7c0-0.4,0.1-0.8,0.3-1.2c0.2-0.3,0.6-0.6,1-0.7C5.8,5,6.2,5,6.6,5.1c0.4,0.1,0.7,0.4,1,0.7c0,0,0,0,0.1,0.1C7,6.4,6.4,7,5.9,7.7C5.7,8,5.5,8.4,5.2,8.7C5.3,8.8,5.2,8.7,5.2,8.7z M18.1,14.4c-0.5,1.2-1.3,2.2-2.4,2.9c-1,0.7-2.3,1-3.5,1c0,0,0,0-0.1,0c-0.8,0-1.7-0.2-2.4-0.5c-0.8-0.3-1.5-0.8-2.1-1.4c-0.6-0.6-1.1-1.3-1.4-2.1c-0.3-0.8-0.5-1.6-0.5-2.4c0-1.3,0.4-2.5,1.1-3.6C7.6,7.3,8.6,6.5,9.8,6c0.8-0.3,1.6-0.5,2.4-0.5c0.4,0,0.9,0,1.3,0.1c1.3,0.3,2.4,0.9,3.3,1.8c0.9,0.9,1.5,2,1.7,3.3C18.8,12,18.6,13.2,18.1,14.4z M19.6,7.8c-0.1,0.3-0.4,0.5-0.6,0.7c-0.4-0.7-0.8-1.4-1.4-2c-0.3-0.3-0.7-0.6-1.1-0.9c0.2-0.2,0.3-0.3,0.5-0.4c0.3-0.1,0.6-0.2,0.9-0.2c0.4,0,0.9,0.2,1.2,0.4c0.3,0.3,0.6,0.7,0.7,1.1C19.9,7,19.8,7.4,19.6,7.8z" />
  </symbol>
</svg>
