<svg xmlns="http://www.w3.org/2000/svg" style="display: none;">
  <symbol id="calendar" viewBox="0 0 32 32">
    <path fill-rule="evenodd" clip-rule="evenodd" d="M28 24.0044C28 26.2136 26.2091 28 24 28H8C5.79086 28 4 26.2091 4 24V8C4 5.79086 5.79086 4 8 4H10V3C10 2.44772 10.4477 2 11 2C11.5523 2 12 2.44772 12 3V4H19.9995V3C19.9995 2.44772 20.4472 2 20.9995 2C21.5518 2 21.9995 2.44772 21.9995 3V4H24C26.2091 4 28 5.79086 28 8C28 11.5569 28 19.2641 28 24.0044ZM19.9995 6V7C19.9995 7.55228 20.4472 8 20.9995 8C21.5518 8 21.9995 7.55228 21.9995 7V6H24C25.1046 6 26 6.89543 26 8V12H6V8C6 6.89543 6.89543 6 8 6H10V7C10 7.55228 10.4477 8 11 8C11.5523 8 12 7.55228 12 7V6H19.9995ZM6 14V24C6 25.1046 6.89543 26 8 26H24C25.1046 26 26 25.1046 26 24V14H6Z" />
  </symbol>
  <symbol id="location" viewBox="0 0 16 16">
    <path d="M8,4.6c-1.5,0-2.6,1.2-2.6,2.6S6.5,9.9,8,9.9s2.6-1.2,2.6-2.6S9.5,4.6,8,4.6z M8,8.9c-0.9,0-1.6-0.7-1.6-1.6 c0-0.9,0.7-1.6,1.6-1.6s1.6,0.7,1.6,1.6C9.6,8.2,8.9,8.9,8,8.9z"/>
    <path d="M8,1.8c-3,0-5.5,2.5-5.5,5.5c0,1.9,0.9,3.4,2,4.5c1.1,1.1,2.3,1.8,2.9,2.1c0.4,0.2,0.9,0.2,1.3,0c0.6-0.3,1.8-1,2.9-2.1 c1.1-1.1,2-2.6,2-4.5C13.5,4.3,11,1.8,8,1.8z M10.8,11.1c-1,1-2.1,1.7-2.6,2c-0.1,0.1-0.2,0.1-0.3,0c-0.6-0.3-1.7-1-2.6-2 c-1-1-1.7-2.3-1.7-3.8c0-2.5,2-4.5,4.5-4.5s4.5,2,4.5,4.5C12.5,8.8,11.7,10.1,10.8,11.1z"/>
  </symbol>
  <symbol id="reminder" viewBox="0 0 32 32">
    <path d="M3.46447 3.46447C4.40215 2.52678 5.67392 2 7 2C8.20645 2 9.36795 2.43602 10.2738 3.22081C9.58757 3.52877 8.93063 3.89039 8.30835 4.30033C7.90429 4.10452 7.45753 4 7 4C6.20435 4 5.44129 4.31607 4.87868 4.87868C4.31607 5.44129 4 6.20435 4 7C4 7.45753 4.10452 7.90429 4.30033 8.30835C3.89039 8.93064 3.52877 9.58757 3.22081 10.2738C2.43602 9.36795 2 8.20645 2 7C2 5.67392 2.52678 4.40215 3.46447 3.46447Z" />
    <path d="M28.7792 10.2738C29.1299 9.86893 29.4138 9.40973 29.6194 8.91342C29.8707 8.30679 30 7.65661 30 7C30 6.34339 29.8707 5.69321 29.6194 5.08658C29.3681 4.47996 28.9998 3.92876 28.5355 3.46447C28.0712 3.00017 27.52 2.63188 26.9134 2.3806C26.3068 2.12933 25.6566 2 25 2C24.3434 2 23.6932 2.12933 23.0866 2.3806C22.5903 2.58618 22.1311 2.87009 21.7262 3.22081C22.4124 3.52878 23.0694 3.8904 23.6917 4.30033C23.7443 4.27481 23.7978 4.25081 23.8519 4.22836C24.2159 4.0776 24.606 4 25 4C25.394 4 25.7841 4.0776 26.1481 4.22836C26.512 4.37913 26.8427 4.6001 27.1213 4.87868C27.3999 5.15726 27.6209 5.48797 27.7716 5.85195C27.9224 6.21593 28 6.60604 28 7C28 7.39397 27.9224 7.78407 27.7716 8.14805C27.7492 8.20224 27.7252 8.25569 27.6997 8.30835C28.1096 8.93063 28.4712 9.58756 28.7792 10.2738Z" />
    <path d="M21.7071 11.2929C22.0976 11.6834 22.0976 12.3166 21.7071 12.7071L16.7071 17.7071C16.3166 18.0976 15.6834 18.0976 15.2929 17.7071L12.2929 14.7071C11.9024 14.3166 11.9024 13.6834 12.2929 13.2929C12.6834 12.9024 13.3166 12.9024 13.7071 13.2929L16 15.5858L20.2929 11.2929C20.6834 10.9024 21.3166 10.9024 21.7071 11.2929Z" />
    <path fill-rule="evenodd" clip-rule="evenodd" d="M4 16C4 9.37258 9.37258 4 16 4C22.6274 4 28 9.37258 28 16C28 18.9537 26.9328 21.6582 25.1631 23.7488L27.7071 26.2929C28.0976 26.6834 28.0976 27.3166 27.7071 27.7071C27.3166 28.0976 26.6834 28.0976 26.2929 27.7071L23.7488 25.1631C21.6582 26.9328 18.9537 28 16 28C13.0463 28 10.3418 26.9328 8.25116 25.1631L5.70711 27.7071C5.31658 28.0976 4.68342 28.0976 4.29289 27.7071C3.90237 27.3166 3.90237 26.6834 4.29289 26.2929L6.83694 23.7488C5.06716 21.6582 4 18.9537 4 16ZM16 6C10.4772 6 6 10.4772 6 16C6 21.5228 10.4772 26 16 26C21.5229 26 26 21.5228 26 16C26 10.4772 21.5229 6 16 6Z" />
  </symbol>
  <symbol id="notifications" viewBox="0 0 32 32">
    <path fill-rule="evenodd" clip-rule="evenodd" d="M17 3C17 2.44772 16.5523 2 16 2C15.4477 2 15 2.44772 15 3V4.05493C10.5 4.55237 7 8.36745 7 13V14.8953C7 16.0307 6.6136 17.1322 5.90434 18.0188L4.18007 20.1741C3.41618 21.129 3 22.3154 3 23.5383C3 24.8978 4.10216 26 5.46174 26H12C12 26.5253 12.1035 27.0454 12.3045 27.5307C12.5055 28.016 12.8001 28.457 13.1716 28.8284C13.543 29.1999 13.984 29.4945 14.4693 29.6955C14.9546 29.8965 15.4747 30 16 30C16.5253 30 17.0454 29.8965 17.5307 29.6955C18.016 29.4945 18.457 29.1999 18.8284 28.8284C19.1999 28.457 19.4945 28.016 19.6955 27.5307C19.8965 27.0454 20 26.5253 20 26H26.5383C27.8978 26 29 24.8978 29 23.5383C29 22.3154 28.5838 21.129 27.8199 20.1741L26.0957 18.0188C25.3864 17.1322 25 16.0307 25 14.8953V13C25 8.36745 21.5 4.55237 17 4.05493V3ZM18 26H14C14 26.2626 14.0517 26.5227 14.1522 26.7654C14.2528 27.008 14.4001 27.2285 14.5858 27.4142C14.7715 27.5999 14.992 27.7472 15.2346 27.8478C15.4773 27.9483 15.7374 28 16 28C16.2626 28 16.5227 27.9483 16.7654 27.8478C17.008 27.7472 17.2285 27.5999 17.4142 27.4142C17.5999 27.2285 17.7472 27.008 17.8478 26.7654C17.9483 26.5227 18 26.2626 18 26ZM5 23.5383C5 23.7933 5.20673 24 5.46174 24H26.5383C26.7933 24 27 23.7933 27 23.5383C27 22.7696 26.7384 22.0238 26.2582 21.4235L24.5339 19.2682C23.541 18.027 23 16.4848 23 14.8953V13C23 9.13401 19.866 6 16 6C12.134 6 9 9.13401 9 13V14.8953C9 16.4848 8.45903 18.027 7.46608 19.2682L5.74181 21.4235C5.26161 22.0238 5 22.7696 5 23.5383Z" />
  </symbol>
  <symbol id="watch" viewBox="0 0 16 16">
    <path d="M8 4C8 3.72386 7.77614 3.5 7.5 3.5C7.22386 3.5 7 3.72386 7 4V8.5C7 8.77614 7.22386 9 7.5 9H10.5C10.7761 9 11 8.77614 11 8.5C11 8.22386 10.7761 8 10.5 8L8 8V4Z" />
    <path fill-rule="evenodd" clip-rule="evenodd" d="M15 8C15 11.866 11.866 15 8 15C4.13401 15 1 11.866 1 8C1 4.13401 4.13401 1 8 1C11.866 1 15 4.13401 15 8ZM14 8C14 11.3137 11.3137 14 8 14C4.68629 14 2 11.3137 2 8C2 4.68629 4.68629 2 8 2C11.3137 2 14 4.68629 14 8Z" />
  </symbol>
  <symbol id="description" viewBox="0 0 32 32">
    <path d="M4 9.00024C4 8.44796 4.44772 8.00024 5 8.00024H27C27.5523 8.00024 28 8.44796 28 9.00024C28 9.55253 27.5523 10.0002 27 10.0002H5C4.44772 10.0002 4 9.55253 4 9.00024Z" />
    <path d="M4 16.0002C4 15.448 4.44772 15.0002 5 15.0002H19C19.5523 15.0002 20 15.448 20 16.0002C20 16.5525 19.5523 17.0002 19 17.0002H5C4.44772 17.0002 4 16.5525 4 16.0002Z" />
    <path d="M4 23.0002C4 22.448 4.44772 22.0002 5 22.0002H23C23.5523 22.0002 24 22.448 24 23.0002C24 23.5525 23.5523 24.0002 23 24.0002H5C4.44772 24.0002 4 23.5525 4 23.0002Z" />
  </symbol>
  <symbol id="participants" viewBox="0 0 32 32">
    <path fill-rule="evenodd" clip-rule="evenodd" d="M4 11.0002C4 7.13425 7.13401 4.00024 11 4.00024C14.866 4.00024 18 7.13425 18 11.0002C18 14.8662 14.866 18.0002 11 18.0002C7.13401 18.0002 4 14.8662 4 11.0002ZM11 6.00024C8.23858 6.00024 6 8.23882 6 11.0002C6 13.7617 8.23858 16.0002 11 16.0002C13.7614 16.0002 16 13.7617 16 11.0002C16 8.23882 13.7614 6.00024 11 6.00024Z" />
    <path d="M21 20.0002C20.4477 20.0002 20 20.448 20 21.0002C20 21.5525 20.4477 22.0002 21 22.0002H23C25.7614 22.0002 28 24.2388 28 27.0002C28 27.5525 28.4477 28.0002 29 28.0002C29.5523 28.0002 30 27.5525 30 27.0002C30 23.1343 26.866 20.0002 23 20.0002H21Z" />
    <path d="M9 22.0002C6.23858 22.0002 4 24.2388 4 27.0002C4 27.5525 3.55228 28.0002 3 28.0002C2.44772 28.0002 2 27.5525 2 27.0002C2 23.1343 5.13401 20.0002 9 20.0002H13C16.866 20.0002 20 23.1343 20 27.0002C20 27.5525 19.5523 28.0002 19 28.0002C18.4477 28.0002 18 27.5525 18 27.0002C18 24.2388 15.7614 22.0002 13 22.0002H9Z" />
    <path d="M20.9999 6C20.4476 6 19.9999 6.44772 19.9999 7C19.9999 7.55228 20.4476 8 20.9999 8C21.5693 8 22.1321 8.12156 22.6507 8.35654C23.1694 8.59153 23.6318 8.93453 24.0073 9.36262C24.3827 9.7907 24.6624 10.294 24.8277 10.8389C24.993 11.3837 25.04 11.9576 24.9657 12.5221C24.8914 13.0866 24.6974 13.6288 24.3967 14.1123C24.096 14.5958 23.6956 15.0095 23.2222 15.3259C22.7488 15.6422 22.2133 15.8538 21.6515 15.9466C21.0897 16.0393 20.5146 16.0111 19.9646 15.8637C19.4312 15.7208 18.8828 16.0373 18.7399 16.5708C18.5969 17.1043 18.9135 17.6526 19.447 17.7956C20.272 18.0166 21.1346 18.059 21.9773 17.9199C22.8199 17.7807 23.6232 17.4633 24.3333 16.9888C25.0435 16.5143 25.6441 15.8937 26.0951 15.1684C26.5461 14.4431 26.8371 13.6299 26.9486 12.7832C27.0601 11.9364 26.9895 11.0756 26.7416 10.2583C26.4936 9.441 26.0741 8.68605 25.5109 8.04392C24.9478 7.4018 24.2541 6.8873 23.4762 6.53482C22.6982 6.18234 21.854 6 20.9999 6Z" />
  </symbol>
  <symbol id="repeat" viewBox="0 0 32 32">
    <path d="M20 9.99996H25.22C23.9267 8.01228 22.0256 6.49579 19.8002 5.67653C17.5748 4.85728 15.1442 4.77913 12.8708 5.45374C10.5974 6.12835 8.6028 7.51959 7.18444 9.42008C5.96615 11.0525 5.229 12.9856 5.04538 15.0012C4.99528 15.5513 4.55179 16 3.99948 16C3.4476 16 2.99556 15.5522 3.03735 15.0019C3.21369 12.6802 4.01114 10.4417 5.35455 8.52507C6.88962 6.33496 9.06283 4.67161 11.5778 3.76183C14.0929 2.85205 16.8273 2.74012 19.4082 3.4413C21.9892 4.14248 24.2911 5.62264 26 7.67996V3.99996H28V12H20V9.99996Z" />
    <path d="M12 22H6.78002C8.07337 23.9876 9.97444 25.5041 12.1998 26.3234C14.4252 27.1426 16.8558 27.2208 19.1293 26.5462C21.4027 25.8716 23.3972 24.4803 24.8156 22.5798C26.0339 20.9474 26.771 19.0144 26.9547 16.9987C27.0048 16.4487 27.4483 16 28.0006 16C28.5525 16 29.0045 16.4477 28.9627 16.998C28.7864 19.3197 27.9889 21.5582 26.6455 23.4749C25.1104 25.665 22.9372 27.3283 20.4222 28.2381C17.9072 29.1479 15.1728 29.2598 12.5918 28.5586C10.0108 27.8574 7.70896 26.3773 6.00002 24.32V28H4.00002V20H12V22Z" />
  </symbol>
  <symbol id="globe" viewBox="0 0 32 32">
    <path d="M16 2.00024C13.2311 2.00024 10.5243 2.82133 8.22202 4.35967C5.91973 5.89801 4.12532 8.08451 3.06569 10.6427C2.00607 13.2008 1.72882 16.0158 2.26901 18.7315C2.80921 21.4472 4.14258 23.9418 6.10051 25.8997C8.05845 27.8577 10.553 29.191 13.2687 29.7312C15.9845 30.2714 18.7994 29.9942 21.3576 28.9346C23.9157 27.8749 26.1022 26.0805 27.6406 23.7782C29.1789 21.4759 30 18.7692 30 16.0002C30 12.2872 28.525 8.72626 25.8995 6.10075C23.274 3.47524 19.713 2.00024 16 2.00024ZM28 15.0002H22C21.8833 11.3173 20.9291 7.70939 19.21 4.45024C21.5786 5.09814 23.6914 6.45709 25.2632 8.34367C26.8351 10.2302 27.7903 12.5536 28 15.0002ZM16 28.0002C15.7769 28.0152 15.5531 28.0152 15.33 28.0002C13.2583 24.6964 12.1085 20.8984 12 17.0002H20C19.9005 20.8956 18.7612 24.6934 16.7 28.0002C16.467 28.0166 16.2331 28.0166 16 28.0002ZM12 15.0002C12.0995 11.1049 13.2388 7.30707 15.3 4.00024C15.7453 3.95021 16.1947 3.95021 16.64 4.00024C18.7223 7.30104 19.8825 11.0993 20 15.0002H12ZM12.76 4.45024C11.0513 7.71189 10.1075 11.3197 10 15.0002H4.00001C4.20971 12.5536 5.16495 10.2302 6.7368 8.34367C8.30865 6.45709 10.4214 5.09814 12.79 4.45024H12.76ZM4.05001 17.0002H10.05C10.1544 20.68 11.0948 24.2878 12.8 27.5502C10.4389 26.8954 8.33478 25.5334 6.77056 23.6474C5.20634 21.7614 4.25695 19.4418 4.05001 17.0002ZM19.21 27.5502C20.9291 24.2911 21.8833 20.6832 22 17.0002H28C27.7903 19.4469 26.8351 21.7702 25.2632 23.6568C23.6914 25.5434 21.5786 26.9023 19.21 27.5502Z" />
  </symbol>
  <symbol id="private" viewBox="0 0 16 16" fill="none">
    <path fill-rule="evenodd" clip-rule="evenodd" d="M8 1.99999C6.89543 1.99999 6 2.89542 6 3.99998V6.99995H10V3.99998C10 2.89542 9.10457 1.99999 8 1.99999ZM11 6.99995V3.99998C11 2.34314 9.65685 1 8 1C6.34315 1 5 2.34314 5 3.99998V6.99995C3.89543 6.99995 3 7.89538 3 8.99994V12.9999C3 14.1045 3.89543 14.9999 5 14.9999H11C12.1046 14.9999 13 14.1045 13 12.9999V8.99994C13 7.89538 12.1046 6.99995 11 6.99995ZM5 7.99995C4.44772 7.99995 4 8.44766 4 8.99994V12.9999C4 13.5522 4.44772 13.9999 5 13.9999H11C11.5523 13.9999 12 13.5522 12 12.9999V8.99994C12 8.44766 11.5523 7.99995 11 7.99995H5Z" fill="currentColor"/>
  </symbol>
  <symbol id="public" viewBox="0 0 16 16" fill="none">
    <path d="M15.4698 7.83C14.8817 6.30882 13.8608 4.99331 12.5332 4.04604C11.2056 3.09878 9.62953 2.56129 7.99979 2.5C6.37005 2.56129 4.79398 3.09878 3.46639 4.04604C2.1388 4.99331 1.11787 6.30882 0.529787 7.83C0.490071 7.93985 0.490071 8.06015 0.529787 8.17C1.11787 9.69118 2.1388 11.0067 3.46639 11.954C4.79398 12.9012 6.37005 13.4387 7.99979 13.5C9.62953 13.4387 11.2056 12.9012 12.5332 11.954C13.8608 11.0067 14.8817 9.69118 15.4698 8.17C15.5095 8.06015 15.5095 7.93985 15.4698 7.83ZM7.99979 12.5C5.34979 12.5 2.54979 10.535 1.53479 8C2.54979 5.465 5.34979 3.5 7.99979 3.5C10.6498 3.5 13.4498 5.465 14.4648 8C13.4498 10.535 10.6498 12.5 7.99979 12.5Z" fill="currentColor"/>
    <path d="M7.99979 5C7.40644 5 6.82642 5.17595 6.33308 5.50559C5.83973 5.83524 5.45521 6.30377 5.22815 6.85195C5.00109 7.40013 4.94168 8.00333 5.05743 8.58527C5.17319 9.16721 5.45891 9.70176 5.87847 10.1213C6.29802 10.5409 6.83257 10.8266 7.41452 10.9424C7.99646 11.0581 8.59966 10.9987 9.14784 10.7716C9.69602 10.5446 10.1646 10.1601 10.4942 9.66671C10.8238 9.17336 10.9998 8.59334 10.9998 8C10.9998 7.20435 10.6837 6.44129 10.1211 5.87868C9.5585 5.31607 8.79544 5 7.99979 5ZM7.99979 10C7.60422 10 7.21755 9.8827 6.88865 9.66294C6.55975 9.44318 6.3034 9.13082 6.15203 8.76537C6.00065 8.39991 5.96105 7.99778 6.03822 7.60982C6.11539 7.22186 6.30587 6.86549 6.58557 6.58579C6.86528 6.30608 7.22164 6.1156 7.60961 6.03843C7.99757 5.96126 8.3997 6.00087 8.76515 6.15224C9.13061 6.30362 9.44296 6.55996 9.66273 6.88886C9.88249 7.21776 9.99979 7.60444 9.99979 8C9.99979 8.53043 9.78907 9.03914 9.414 9.41421C9.03893 9.78929 8.53022 10 7.99979 10Z" fill="currentColor"/>
  </symbol>
  <symbol id="eyeCrossed" viewBox="0 0 16 16" fill="none">
    <path fill-rule="evenodd" clip-rule="evenodd" d="M14.1462 1.14645C14.3415 0.951184 14.658 0.951184 14.8533 1.14645C15.0486 1.34171 15.0486 1.65829 14.8533 1.85355L12.5998 4.10999C13.8988 5.0435 14.8965 6.33659 15.4698 7.82999C15.5095 7.93984 15.5095 8.06013 15.4698 8.16999C14.8817 9.69116 13.8608 11.0067 12.5332 11.9539C11.2056 12.9012 9.62953 13.4387 7.99979 13.5C6.68181 13.4787 5.39173 13.117 4.25479 12.45L1.85338 14.8535C1.65812 15.0488 1.34153 15.0488 1.14627 14.8535C0.951009 14.6583 0.951009 14.3417 1.14627 14.1464L14.1462 1.14645ZM9.99979 7.99999C9.99768 8.35004 9.90374 8.6934 9.72734 8.99577C9.55094 9.29813 9.29828 9.5489 8.99459 9.72302C8.69091 9.89713 8.34684 9.98849 7.99678 9.98795C7.64673 9.98742 7.30294 9.89502 6.99979 9.71999L9.71979 6.99999C9.89954 7.30285 9.99613 7.64781 9.99979 7.99999ZM7.99979 12.5C6.95082 12.4817 5.92173 12.2107 4.99979 11.71L6.26979 10.44C6.84746 10.8408 7.54756 11.026 8.24785 10.9632C8.94815 10.9004 9.60415 10.5937 10.1013 10.0965C10.5985 9.59935 10.9052 8.94335 10.968 8.24305C11.0308 7.54275 10.8456 6.84265 10.4448 6.26499L11.8798 4.82999C13.0271 5.61748 13.9243 6.7177 14.4648 7.99999C13.4498 10.535 10.6498 12.5 7.99979 12.5Z" fill="currentColor"/>
    <path d="M3.33479 10.545L2.61979 11.255C1.69 10.4055 0.973911 9.34849 0.529787 8.16999C0.490071 8.06013 0.490071 7.93984 0.529787 7.82999C1.11787 6.30881 2.1388 4.99329 3.46639 4.04603C4.79398 3.09876 6.37005 2.56127 7.99979 2.49999C8.95363 2.51166 9.89611 2.70865 10.7748 3.07999L9.99979 3.85999C9.3575 3.63063 8.68173 3.50899 7.99979 3.49999C5.34979 3.49999 2.54979 5.46499 1.53479 7.99999C1.93677 8.97233 2.5519 9.84204 3.33479 10.545Z" fill="currentColor"/>
    <path d="M6.58033 6.59553C6.24063 6.93522 6.03456 7.38584 5.99979 7.86499L5.08979 8.76999C4.95626 8.26287 4.95799 7.7296 5.09482 7.22336C5.23164 6.71712 5.49878 6.25559 5.86958 5.88478C6.24039 5.51397 6.70193 5.24684 7.20817 5.11002C7.71441 4.97319 8.24767 4.97146 8.75479 5.10499L7.84979 6.01499C7.37064 6.04976 6.92003 6.25583 6.58033 6.59553Z" fill="currentColor"/>
  </symbol>
</svg>
