<svg xmlns="http://www.w3.org/2000/svg" style="display: none;">
  <symbol id="link" viewBox="0 0 32 32">
    <path d="M29.25 6.75997C28.6926 6.20061 28.0302 5.75679 27.3009 5.45396C26.5716 5.15112 25.7897 4.99524 25 4.99524C24.2103 4.99524 23.4284 5.15112 22.6991 5.45396C22.278 5.62881 21.8792 5.85065 21.5101 6.1146C21.0614 6.43545 21.0693 7.07931 21.4594 7.46935C21.8499 7.85988 22.4827 7.84994 22.9575 7.5679C23.1218 7.47029 23.2933 7.38434 23.4707 7.31086C23.9571 7.10938 24.4785 7.00567 25.005 7.00567C25.5315 7.00567 26.0528 7.10938 26.5393 7.31086C27.0257 7.51235 27.4677 7.80767 27.84 8.17997C28.2123 8.55227 28.5076 8.99425 28.7091 9.48068C28.9106 9.96711 29.0143 10.4885 29.0143 11.015C29.0143 11.5415 28.9106 12.0628 28.7091 12.5493C28.5076 13.0357 28.2123 13.4777 27.84 13.85L19.84 21.85C19.0894 22.6019 18.0709 23.0248 17.0085 23.0257C15.9461 23.0267 14.9269 22.6055 14.175 21.855C13.4231 21.1044 13.0001 20.0859 12.9992 19.0235C12.9983 17.9611 13.4194 16.9419 14.17 16.19L14.8803 15.4746C15.2675 15.0846 15.2659 14.4537 14.8787 14.0637C14.4886 13.6709 13.8519 13.6681 13.4604 14.0596L12.75 14.77C12.1906 15.3274 11.7468 15.9897 11.444 16.7191C11.1411 17.4484 10.9852 18.2303 10.9852 19.02C10.9852 19.8097 11.1411 20.5916 11.444 21.3209C11.7468 22.0502 12.1906 22.7125 12.75 23.27C13.8815 24.387 15.41 25.0092 17 25C17.7927 25.0032 18.5782 24.8494 19.3111 24.5473C20.044 24.2452 20.7098 23.8009 21.27 23.24L29.27 15.24C30.3909 14.1123 31.0184 12.5858 31.0147 10.9958C31.0109 9.40582 30.3762 7.88232 29.25 6.75997Z" />
    <path d="M4.18997 24.82C3.81656 24.4483 3.52026 24.0065 3.31807 23.52C3.11589 23.0335 3.01181 22.5118 3.01181 21.985C3.01181 21.4581 3.11589 20.9365 3.31807 20.4499C3.52026 19.9634 3.81656 19.5216 4.18997 19.15L12.19 11.15C12.5616 10.7766 13.0034 10.4803 13.4899 10.2781C13.9765 10.0759 14.4981 9.97181 15.025 9.97181C15.5518 9.97181 16.0735 10.0759 16.56 10.2781C17.0465 10.4803 17.4883 10.7766 17.86 11.15C18.231 11.5246 18.5231 11.9698 18.7189 12.4594C18.9147 12.9489 19.0103 13.4728 19 14C19.003 14.5288 18.9012 15.0529 18.7004 15.5421C18.4995 16.0313 18.2037 16.4758 17.83 16.85L16.4072 18.2929C16.0213 18.6842 16.0289 19.3189 16.4175 19.7075C16.808 20.098 17.4466 20.1034 17.8371 19.7129L19.25 18.3C20.3785 17.1715 21.0124 15.6409 21.0124 14.045C21.0124 12.449 20.3785 10.9185 19.25 9.78997C18.1215 8.66147 16.5909 8.02749 14.995 8.02749C13.399 8.02749 11.8685 8.66147 10.74 9.78997L2.73997 17.79C2.17911 18.3476 1.73401 19.0106 1.43029 19.7408C1.12657 20.471 0.970215 21.2541 0.970215 22.045C0.970215 22.8358 1.12657 23.6189 1.43029 24.3492C1.73401 25.0794 2.17911 25.7424 2.73997 26.3C3.87879 27.4084 5.41087 28.0198 6.99997 28C8.26594 28.0012 9.49169 27.6069 10.5118 26.885C10.964 26.5651 10.961 25.921 10.5693 25.5293C10.1781 25.1381 9.54699 25.1518 9.0717 25.4348C8.90786 25.5324 8.73689 25.6184 8.56 25.6919C8.07349 25.8941 7.55182 25.9981 7.02497 25.9981C6.49812 25.9981 5.97645 25.8941 5.48994 25.6919C5.00342 25.4897 4.56164 25.1934 4.18997 24.82Z" />
  </symbol>
  <symbol id="globe" viewBox="0 0 32 32">
    <path d="M16 2.00024C13.2311 2.00024 10.5243 2.82133 8.22202 4.35967C5.91973 5.89801 4.12532 8.08451 3.06569 10.6427C2.00607 13.2008 1.72882 16.0158 2.26901 18.7315C2.80921 21.4472 4.14258 23.9418 6.10051 25.8997C8.05845 27.8577 10.553 29.191 13.2687 29.7312C15.9845 30.2714 18.7994 29.9942 21.3576 28.9346C23.9157 27.8749 26.1022 26.0805 27.6406 23.7782C29.1789 21.4759 30 18.7692 30 16.0002C30 12.2872 28.525 8.72626 25.8995 6.10075C23.274 3.47524 19.713 2.00024 16 2.00024ZM28 15.0002H22C21.8833 11.3173 20.9291 7.70939 19.21 4.45024C21.5786 5.09814 23.6914 6.45709 25.2632 8.34367C26.8351 10.2302 27.7903 12.5536 28 15.0002ZM16 28.0002C15.7769 28.0152 15.5531 28.0152 15.33 28.0002C13.2583 24.6964 12.1085 20.8984 12 17.0002H20C19.9005 20.8956 18.7612 24.6934 16.7 28.0002C16.467 28.0166 16.2331 28.0166 16 28.0002ZM12 15.0002C12.0995 11.1049 13.2388 7.30707 15.3 4.00024C15.7453 3.95021 16.1947 3.95021 16.64 4.00024C18.7223 7.30104 19.8825 11.0993 20 15.0002H12ZM12.76 4.45024C11.0513 7.71189 10.1075 11.3197 10 15.0002H4.00001C4.20971 12.5536 5.16495 10.2302 6.7368 8.34367C8.30865 6.45709 10.4214 5.09814 12.79 4.45024H12.76ZM4.05001 17.0002H10.05C10.1544 20.68 11.0948 24.2878 12.8 27.5502C10.4389 26.8954 8.33478 25.5334 6.77056 23.6474C5.20634 21.7614 4.25695 19.4418 4.05001 17.0002ZM19.21 27.5502C20.9291 24.2911 21.8833 20.6832 22 17.0002H28C27.7903 19.4469 26.8351 21.7702 25.2632 23.6568C23.6914 25.5434 21.5786 26.9023 19.21 27.5502Z" />
  </symbol>
</svg>
