<!-- ALL HASHTAGs -->
<svg xmlns="http://www.w3.org/2000/svg" style="display: none;">
  <symbol id="productsApplication" viewBox="0 0 20 20">
    <path fill-rule="evenodd" clip-rule="evenodd" d="M8.74032 0.964538C9.51873 0.511821 10.4813 0.51182 11.2597 0.964537L16.8847 4.23601C17.6527 4.6827 18.125 5.5025 18.125 6.38902V13.611C18.125 14.4975 17.6527 15.3173 16.8847 15.764L11.2597 19.0355C10.4813 19.4882 9.51873 19.4882 8.74032 19.0355L3.11532 15.764C2.34728 15.3173 1.875 14.4975 1.875 13.611V6.38902C1.875 5.5025 2.34728 4.6827 3.11532 4.23601L8.74032 0.964538ZM10.6298 2.04104C10.2406 1.81468 9.75936 1.81468 9.37016 2.04104L3.7572 5.30551L9.37014 8.57972C9.75934 8.80676 10.2406 8.80676 10.6298 8.57972L16.2428 5.3055L10.6298 2.04104ZM3.125 6.38902L3.12501 6.38386L8.7403 9.65945C8.94167 9.77691 9.15536 9.86399 9.375 9.92068V17.9618C9.37339 17.9608 9.37177 17.9599 9.37016 17.959L3.74516 14.6875C3.36114 14.4641 3.125 14.0542 3.125 13.611V6.38902ZM10.625 17.9618C10.6266 17.9608 10.6282 17.9599 10.6298 17.959L16.2548 14.6875C16.6389 14.4641 16.875 14.0542 16.875 13.611V6.38902L16.875 6.38384L11.2597 9.65945C11.0583 9.77691 10.8446 9.86398 10.625 9.92067V17.9618Z"/>
  </symbol>
  <symbol id="product" viewBox="0 0 24 24">
    <path xmlns:default="http://www.w3.org/2000/svg" d="M3 9H1v11c0 1.11.89 2 2 2h14c1.11 0 2-.89 2-2H3V9zm15-4V3c0-1.11-.89-2-2-2h-4c-1.11 0-2 .89-2 2v2H5v11c0 1.11.89 2 2 2h14c1.11 0 2-.89 2-2V5h-5zm-6-2h4v2h-4V3zm0 12V8l5.5 3-5.5 4z" vector-effect="non-scaling-stroke"/>
  </symbol>
  <symbol id="productVersion" viewBox="0 0 24 24">
    <path xmlns:default="http://www.w3.org/2000/svg" d="M3 9H1v11c0 1.11.89 2 2 2h14c1.11 0 2-.89 2-2H3V9zm15-4V3c0-1.11-.89-2-2-2h-4c-1.11 0-2 .89-2 2v2H5v11c0 1.11.89 2 2 2h14c1.11 0 2-.89 2-2V5h-5zm-6-2h4v2h-4V3zm0 12V8l5.5 3-5.5 4z" vector-effect="non-scaling-stroke"/>
  </symbol>
</svg>
