<svg xmlns="http://www.w3.org/2000/svg" style="display: none;">
  <symbol id="chunter" viewBox="0 0 32 32">
    <path fill-rule="evenodd" clip-rule="evenodd" d="M16 6C9.20948 6 4 10.6272 4 16C4 18.1619 4.82539 20.1782 6.25857 21.8353C6.48585 22.0981 6.56044 22.46 6.45559 22.7913C6.11025 23.8822 5.59859 24.9049 4.96437 25.8562C6.36749 25.6496 7.72455 25.2236 8.98685 24.5982C9.26684 24.4595 9.59558 24.4596 9.87546 24.5986C11.6632 25.4861 13.7558 26 16 26C22.7905 26 28 21.3728 28 16C28 10.6272 22.7905 6 16 6ZM2 16C2 9.2225 8.43112 4 16 4C23.5689 4 30 9.2225 30 16C30 22.7775 23.5689 28 16 28C13.6319 28 11.3944 27.4963 9.43078 26.6016C7.4311 27.5144 5.24057 28 3 28C2.63121 28 2.29235 27.797 2.11833 27.4719C1.94431 27.1467 1.96338 26.7522 2.16795 26.4453L3.37487 24.6349C3.78033 24.0267 4.11535 23.3749 4.37375 22.692C2.88402 20.7925 2 18.4911 2 16Z" />
  </symbol>
  <symbol id="hashtag" viewBox="0 0 24 24">
    <path d="M21.5,8.2h-5.3l0.6-5.2c0-0.4-0.3-0.8-0.7-0.8c-0.4,0-0.8,0.3-0.8,0.7l-0.6,5.3h-4.5l0.6-5.2c0-0.4-0.3-0.8-0.7-0.8 c-0.4,0-0.8,0.3-0.8,0.7L8.7,8.2H3.5C3.1,8.2,2.8,8.6,2.8,9s0.3,0.8,0.8,0.8h5L8,14.2H2.5c-0.4,0-0.8,0.3-0.8,0.8s0.3,0.8,0.8,0.8 h5.3l-0.6,5.2c0,0.4,0.3,0.8,0.7,0.8c0,0,0.1,0,0.1,0c0.4,0,0.7-0.3,0.7-0.7l0.6-5.3h4.5l-0.6,5.2c0,0.4,0.3,0.8,0.7,0.8 c0,0,0.1,0,0.1,0c0.4,0,0.7-0.3,0.7-0.7l0.6-5.3h5.2c0.4,0,0.8-0.3,0.8-0.8s-0.3-0.8-0.8-0.8h-5L16,9.8h5.5c0.4,0,0.8-0.3,0.8-0.8 S21.9,8.2,21.5,8.2z M14,14.2H9.5L10,9.8h4.5L14,14.2z" />
  </symbol>
  <symbol id="lock" viewBox="0 0 16 16">
    <path d="M12,7.1h-0.7V5.4c0-1.8-1.5-3.3-3.3-3.3c-1.8,0-3.3,1.5-3.3,3.3v1.7H4c-0.8,0-1.5,0.7-1.5,1.5v4.1c0,0.8,0.7,1.5,1.5,1.5h8 c0.8,0,1.5-0.7,1.5-1.5V8.6C13.5,7.8,12.8,7.1,12,7.1z M5.7,5.4c0-1.2,1-2.3,2.3-2.3s2.3,1,2.3,2.3v1.7H5.7V5.4z M12.5,12.7 c0,0.3-0.2,0.5-0.5,0.5H4c-0.3,0-0.5-0.2-0.5-0.5V8.6c0-0.3,0.2-0.5,0.5-0.5h8c0.3,0,0.5,0.2,0.5,0.5V12.7z"/>
  </symbol>
  <symbol id="thread" viewBox="0 0 32 32">
      <path fill-rule="evenodd" clip-rule="evenodd" d="M16 6C9.20948 6 4 10.6272 4 16C4 18.1619 4.82539 20.1782 6.25857 21.8353C6.48585 22.0981 6.56044 22.46 6.45559 22.7913C6.11025 23.8822 5.59859 24.9049 4.96437 25.8562C6.36749 25.6496 7.72455 25.2236 8.98685 24.5982C9.26684 24.4595 9.59558 24.4596 9.87546 24.5986C11.6632 25.4861 13.7558 26 16 26C22.7905 26 28 21.3728 28 16C28 10.6272 22.7905 6 16 6ZM2 16C2 9.2225 8.43112 4 16 4C23.5689 4 30 9.2225 30 16C30 22.7775 23.5689 28 16 28C13.6319 28 11.3944 27.4963 9.43078 26.6016C7.4311 27.5144 5.24057 28 3 28C2.63121 28 2.29235 27.797 2.11833 27.4719C1.94431 27.1467 1.96338 26.7522 2.16795 26.4453L3.37487 24.6349C3.78033 24.0267 4.11535 23.3749 4.37375 22.692C2.88402 20.7925 2 18.4911 2 16Z"/>
  </symbol>
  <symbol id="channelbrowser" viewBox="0 0 24 24">
    <path d="M12.4,20.2H8.6c-4.3,0-5.9-1.6-5.9-5.8V8.7c0-4.4,1.5-6,5.9-6h5.7c4.4,0,6,1.6,6,6v3.7c0,0.4,0.3,0.7,0.8,0.7 s0.8-0.3,0.8-0.7V8.7c0-5.2-2.2-7.5-7.5-7.5H8.6c-5.2,0-7.4,2.2-7.4,7.5v5.7c0,5.1,2.3,7.3,7.4,7.3h3.8c0.4,0,0.7-0.3,0.7-0.8 S12.8,20.2,12.4,20.2z" />
    <path d="M22.2,21.4l-1-1c0,0,0,0-0.1,0c0.4-0.6,0.7-1.4,0.7-2.2c0-2.2-1.7-3.9-3.9-3.9s-4,1.7-4,3.9c0,2.1,1.8,4,4,4 c0.8,0,1.6-0.2,2.2-0.7c0,0,0,0,0,0.1l1,1c0.1,0.1,0.3,0.2,0.5,0.2s0.4-0.1,0.5-0.2C22.5,22.1,22.5,21.7,22.2,21.4z M17.9,20.5 c-1.3,0-2.5-1.2-2.5-2.5c0-1.4,1.1-2.4,2.5-2.4s2.4,1.1,2.4,2.4S19.3,20.5,17.9,20.5z" />
    <path d="M16.3,9.5c0.4,0,0.8-0.3,0.8-0.8S16.7,8,16.3,8h-2.9l0.3-2.9c0-0.4-0.3-0.8-0.7-0.8c-0.4,0-0.8,0.3-0.8,0.7 l-0.3,3H9.7L10,5.1c0-0.4-0.3-0.8-0.7-0.8C9,4.2,8.6,4.5,8.6,4.9L8.2,8H5.3C4.9,8,4.5,8.3,4.5,8.7s0.3,0.8,0.8,0.8h2.8l-0.2,2.1 H4.7c-0.4,0-0.8,0.3-0.8,0.8S4.3,13,4.7,13h3l-0.3,2.9c0,0.4,0.3,0.8,0.7,0.8c0,0,0.1,0,0.1,0c0.4,0,0.7-0.3,0.7-0.7l0.3-3h2.2 l-0.3,2.9c0,0.4,0.3,0.8,0.7,0.8c0,0,0.1,0,0.1,0c0.4,0,0.7-0.3,0.7-0.7l0.3-3h2.8c0.4,0,0.8-0.3,0.8-0.8s-0.3-0.8-0.8-0.8H13 l0.2-2.1H16.3z M11.5,11.5H9.3l0.2-2.1h2.2L11.5,11.5z" />
  </symbol>
  <symbol id="copy" viewBox="0 0 12 14">
    <path fill-rule="evenodd" clip-rule="evenodd" d="M3 2C3 0.89543 3.89543 0 5 0H10C11.1046 0 12 0.895431 12 2V9C12 10.1046 11.1046 11 10 11H5C3.89543 11 3 10.1046 3 9V2ZM5 1C4.44772 1 4 1.44772 4 2V9C4 9.55228 4.44772 10 5 10H10C10.5523 10 11 9.55229 11 9V2C11 1.44772 10.5523 1 10 1H5Z"/>
    <path fill-rule="evenodd" clip-rule="evenodd" d="M2 4C1.44772 4 1 4.44772 1 5V12C1 12.5523 1.44772 13 2 13H7C7.55228 13 8 12.5523 8 12V11H9V12C9 13.1046 8.10457 14 7 14H2C0.895431 14 0 13.1046 0 12V5C0 3.89543 0.895431 3 2 3H3V4H2Z" />
  </symbol>
</svg>
