<svg xmlns="http://www.w3.org/2000/svg" style="display: none;">
  <symbol id="chunter" viewBox="0 0 24 24">
    <path d="M3,21.6c-0.2,0-0.3-0.1-0.4-0.2c-0.2-0.2-0.2-0.4-0.1-0.6l1.8-5.4c-0.6-1.2-0.8-2.5-0.8-3.8c0-3.4,1.9-6.5,4.9-8 c1.2-0.6,2.6-0.9,4-0.9h0.5c4.6,0.3,8.2,3.9,8.5,8.4l0,0.5c0,1.4-0.3,2.8-0.9,4c-1.5,3-4.6,4.9-8,4.9c0,0,0,0,0,0 c-1.3,0-2.6-0.3-3.8-0.8l-5.4,1.8C3.1,21.6,3.1,21.6,3,21.6z M12.3,3.9c-1.2,0-2.4,0.3-3.4,0.8c-2.6,1.3-4.3,4-4.3,6.9 c0,1.2,0.3,2.4,0.8,3.5c0.1,0.1,0.1,0.3,0,0.5l-1.5,4.5l4.5-1.5c0.2-0.1,0.3,0,0.5,0c1.1,0.5,2.2,0.8,3.5,0.8c3,0,5.6-1.6,6.9-4.3 c0.5-1.1,0.8-2.3,0.8-3.5c0,0,0,0,0,0v-0.5c-0.2-3.9-3.4-7-7.3-7.3L12.3,3.9C12.3,3.9,12.3,3.9,12.3,3.9z M21.3,11.7L21.3,11.7 L21.3,11.7z"/>
  </symbol>
  <symbol id="hashtag" viewBox="0 0 16 16">
    <path d="M13.2,9.4h-2.8l0.3-2.7h2.5c0.3,0,0.5-0.2,0.5-0.5s-0.2-0.5-0.5-0.5h-2.4l0.4-3.2c0-0.3-0.2-0.5-0.4-0.6 c-0.3,0-0.5,0.2-0.6,0.4L9.8,5.6H7.1l0.4-3.2c0-0.3-0.2-0.5-0.4-0.6c-0.3,0-0.5,0.2-0.6,0.4L6.1,5.6H3.2c-0.3,0-0.5,0.2-0.5,0.5 s0.2,0.5,0.5,0.5h2.8L5.6,9.4H3.2c-0.3,0-0.5,0.2-0.5,0.5s0.2,0.5,0.5,0.5h2.4l-0.4,3.2c0,0.3,0.2,0.5,0.4,0.6c0,0,0,0,0.1,0 c0.3,0,0.5-0.2,0.5-0.4l0.4-3.3h2.7l-0.4,3.2c0,0.3,0.2,0.5,0.4,0.6c0,0,0,0,0.1,0c0.3,0,0.5-0.2,0.5-0.4l0.4-3.3h2.9 c0.3,0,0.5-0.2,0.5-0.5S13.4,9.4,13.2,9.4z M6.6,9.4l0.3-2.7h2.7L9.4,9.4H6.6z"/>
  </symbol>
  <symbol id="lock" viewBox="0 0 16 16">
    <path d="M12,7.1h-0.7V5.4c0-1.8-1.5-3.3-3.3-3.3c-1.8,0-3.3,1.5-3.3,3.3v1.7H4c-0.8,0-1.5,0.7-1.5,1.5v4.1c0,0.8,0.7,1.5,1.5,1.5h8 c0.8,0,1.5-0.7,1.5-1.5V8.6C13.5,7.8,12.8,7.1,12,7.1z M5.7,5.4c0-1.2,1-2.3,2.3-2.3s2.3,1,2.3,2.3v1.7H5.7V5.4z M12.5,12.7 c0,0.3-0.2,0.5-0.5,0.5H4c-0.3,0-0.5-0.2-0.5-0.5V8.6c0-0.3,0.2-0.5,0.5-0.5h8c0.3,0,0.5,0.2,0.5,0.5V12.7z"/>
  </symbol>
  <symbol id="thread" viewBox="0 0 16 16">
    <path d="M8,14.5c-0.9,0-1.9-0.2-2.7-0.6c-0.2-0.1-0.5-0.2-0.6-0.2c-0.2,0-0.4,0.1-0.7,0.2c-0.5,0.2-1.2,0.4-1.7-0.1 c-0.5-0.5-0.3-1.2-0.1-1.7c0.1-0.3,0.2-0.5,0.2-0.7c0-0.2-0.1-0.4-0.2-0.7C1,8.3,1.5,5.3,3.4,3.4C4.6,2.2,6.3,1.5,8,1.5 s3.4,0.7,4.6,1.9c2.5,2.5,2.5,6.7,0,9.2l0,0C11.4,13.8,9.7,14.5,8,14.5z M4.6,12.7c0.4,0,0.7,0.1,1,0.3c2.1,1,4.6,0.5,6.2-1.1 c2.1-2.1,2.1-5.6,0-7.8c-1-1-2.4-1.6-3.9-1.6c-1.5,0-2.9,0.6-3.9,1.6C2.5,5.7,2,8.2,3,10.3c0.1,0.4,0.3,0.7,0.3,1.1 c0,0.4-0.1,0.7-0.2,1C3,12.6,2.9,13,2.9,13.1C3,13.2,3.4,13,3.6,12.9C3.9,12.8,4.3,12.7,4.6,12.7z M12.2,12.2L12.2,12.2L12.2,12.2z"/>
  </symbol>
  <symbol id="bookmark" viewBox="0 0 16 16">
    <path d="M11.6,1.5H4.4c-1.1,0-1.9,0.8-1.9,1.8V14c0,0.2,0.1,0.4,0.3,0.4c0.2,0.1,0.4,0.1,0.5,0L8,11.3l4.7,3.1 c0.1,0.1,0.2,0.1,0.3,0.1c0.1,0,0.2,0,0.2-0.1c0.2-0.1,0.3-0.3,0.3-0.4V3.3C13.5,2.3,12.6,1.5,11.6,1.5z M12.5,13.1l-4.2-2.8 c-0.1-0.1-0.2-0.1-0.3-0.1s-0.2,0-0.3,0.1l-4.2,2.8V3.3c0-0.5,0.4-0.8,0.9-0.8h7.1c0.5,0,0.9,0.4,0.9,0.8V13.1z"/>
  </symbol>
</svg>
