<svg xmlns="http://www.w3.org/2000/svg" style="display: none;">
  <symbol id="chunter" viewBox="0 0 32 32">
    <path fill-rule="evenodd" clip-rule="evenodd" d="M16 6C9.20948 6 4 10.6272 4 16C4 18.1619 4.82539 20.1782 6.25857 21.8353C6.48585 22.0981 6.56044 22.46 6.45559 22.7913C6.11025 23.8822 5.59859 24.9049 4.96437 25.8562C6.36749 25.6496 7.72455 25.2236 8.98685 24.5982C9.26684 24.4595 9.59558 24.4596 9.87546 24.5986C11.6632 25.4861 13.7558 26 16 26C22.7905 26 28 21.3728 28 16C28 10.6272 22.7905 6 16 6ZM2 16C2 9.2225 8.43112 4 16 4C23.5689 4 30 9.2225 30 16C30 22.7775 23.5689 28 16 28C13.6319 28 11.3944 27.4963 9.43078 26.6016C7.4311 27.5144 5.24057 28 3 28C2.63121 28 2.29235 27.797 2.11833 27.4719C1.94431 27.1467 1.96338 26.7522 2.16795 26.4453L3.37487 24.6349C3.78033 24.0267 4.11535 23.3749 4.37375 22.692C2.88402 20.7925 2 18.4911 2 16Z" />
  </symbol>
  <symbol id="hashtag" viewBox="0 0 32 32">
    <path d="M27.4,19.9h-6.4l1.9-7.8h4.5c0.6,0,1-0.4,1-1s-0.4-1-1-1h-4l1.7-6.9c0.1-0.5-0.2-1.1-0.7-1.2c-0.5-0.1-1.1,0.2-1.2,0.7l-1.8,7.4h-7.7l1.7-6.9c0.1-0.5-0.2-1.1-0.7-1.2c-0.5-0.1-1.1,0.2-1.2,0.7l-1.8,7.4H4.6c-0.6,0-1,0.4-1,1s0.4,1,1,1h6.4l-1.9,7.8H4.6c-0.6,0-1,0.4-1,1s0.4,1,1,1h4l-1.7,6.9c-0.1,0.5,0.2,1.1,0.7,1.2c0.1,0,0.2,0,0.2,0c0.4,0,0.9-0.3,1-0.8l1.8-7.4h7.7l-1.7,6.9c-0.1,0.5,0.2,1.1,0.7,1.2c0.1,0,0.2,0,0.2,0c0.4,0,0.9-0.3,1-0.8l1.8-7.4h6.9c0.6,0,1-0.4,1-1S27.9,19.9,27.4,19.9z M11.2,19.9l1.9-7.8h7.7l-1.9,7.8H11.2z" />
  </symbol>
  <symbol id="lock" viewBox="0 0 16 16">
    <path d="M12,7.1h-0.7V5.4c0-1.8-1.5-3.3-3.3-3.3c-1.8,0-3.3,1.5-3.3,3.3v1.7H4c-0.8,0-1.5,0.7-1.5,1.5v4.1c0,0.8,0.7,1.5,1.5,1.5h8 c0.8,0,1.5-0.7,1.5-1.5V8.6C13.5,7.8,12.8,7.1,12,7.1z M5.7,5.4c0-1.2,1-2.3,2.3-2.3s2.3,1,2.3,2.3v1.7H5.7V5.4z M12.5,12.7 c0,0.3-0.2,0.5-0.5,0.5H4c-0.3,0-0.5-0.2-0.5-0.5V8.6c0-0.3,0.2-0.5,0.5-0.5h8c0.3,0,0.5,0.2,0.5,0.5V12.7z"/>
  </symbol>
  <symbol id="thread" viewBox="0 0 32 32">
    <path fill-rule="evenodd" clip-rule="evenodd" d="M27.4,25.4L27.4,25.4c0.2,0,0.4,0,0.6-0.1c0.2-0.1,0.3-0.2,0.5-0.3c0.1-0.1,0.2-0.3,0.3-0.5C29,24.2,29,24,29,23.9v-0.1c0-0.1,0-0.2-0.1-0.4l-1-3.5c0,0,0-0.1,0.1-0.1c0,0,0-0.1,0.1-0.1l0,0c1.2-1.8,1.9-4,1.9-6.2c0-3-1.2-5.8-3.3-7.9C24.4,3.3,21.4,2,18.1,2c-2.7,0-5.4,0.9-7.5,2.6c-2.1,1.7-3.5,4-4.1,6.5c-0.2,0.8-0.3,1.6-0.3,2.4c0,1.5,0.3,3,0.9,4.4c0.6,1.4,1.4,2.7,2.5,3.7c2.2,2.2,5.2,3.4,8.3,3.4c1.2,0,2.8-0.4,3.2-0.5c0.8-0.2,1.6-0.5,1.7-0.5c0.1,0,0.2,0,0.2,0c0.1,0,0.2,0,0.2,0l0,0l3.5,1.3C27.1,25.3,27.2,25.3,27.4,25.4L27.4,25.4z M26.7,23l-2.7-1h0c-0.6-0.2-1.3-0.3-1.9,0c0,0,0,0,0,0c-0.2,0.1-0.8,0.3-1.5,0.5C19.9,22.8,18.7,23,18,23c-5.3,0-9.7-4.3-9.7-9.6c0-0.6,0.1-1.3,0.2-1.9c0.9-4.4,5-7.5,9.7-7.5c2.7,0,5.3,1,7.1,2.9C27,8.7,28,11,28,13.4c0,1.8-0.5,3.6-1.5,5.1c-0.1,0.1-0.1,0.2-0.2,0.3l0,0c-0.3,0.6-0.4,1.1-0.3,1.5L26.7,23z" />
    <path d="M3.6,29.7C3.8,29.9,4.2,30,4.5,30h0c0.2,0,0.4,0,0.6-0.1l3.5-1.4l0,0c1.4,0.5,2.8,0.8,4.2,0.8h0c1.9,0,3.8-0.5,5.5-1.5c0.1-0.1,0.2-0.2,0.3-0.3c0.1-0.1,0.1-0.2,0.2-0.4s0-0.3,0-0.4c0-0.1-0.1-0.3-0.1-0.4c-0.1-0.1-0.2-0.2-0.3-0.3c-0.1-0.1-0.2-0.1-0.4-0.2c-0.1,0-0.3,0-0.4,0c-0.1,0-0.3,0.1-0.4,0.1c-1.4,0.8-2.9,1.2-4.5,1.2h0c-1.1,0-2.3-0.2-3.4-0.7c-0.5-0.2-1-0.2-1.5,0l-2.7,1c0.3-1.3,0.5-2.8,0.6-2.9c0.1-0.5-0.1-0.9-0.3-1.3l0,0c-0.8-1.2-1.3-2.7-1.4-4.2c-0.1-1.5,0.3-3,1-4.3c0.1-0.2,0.2-0.5,0.1-0.8C5,14,4.9,13.8,4.6,13.6c-0.2-0.1-0.5-0.2-0.8-0.1c-0.3,0.1-0.5,0.2-0.6,0.5c-0.9,1.6-1.3,3.5-1.3,5.4c0.1,1.9,0.7,3.7,1.7,5.2v0c-0.1,0.5-0.3,1.7-0.5,2.7C3.1,27.7,3.1,28,3,28.2C3,28.5,3,28.8,3.1,29C3.2,29.3,3.3,29.5,3.6,29.7L3.6,29.7z" />
  </symbol>
  <symbol id="channelbrowser" viewBox="0 0 32 32">
    <path d="M27.4,10.1h-4l1.7-6.9c0.1-0.5-0.2-1.1-0.7-1.2c-0.5-0.1-1.1,0.2-1.2,0.7l-1.8,7.4h-7.7l1.7-6.9c0.1-0.5-0.2-1.1-0.7-1.2c-0.5-0.1-1.1,0.2-1.2,0.7l-1.8,7.4H4.6c-0.6,0-1,0.4-1,1s0.4,1,1,1h6.4l-1.9,7.8H4.6c-0.6,0-1,0.4-1,1s0.4,1,1,1h4l-1.7,6.9c-0.1,0.5,0.2,1.1,0.7,1.2c0.1,0,0.2,0,0.2,0c0.4,0,0.9-0.3,1-0.8l1.8-7.4h4.6c0.6,0,1-0.4,1-1s-0.4-1-1-1h-4.1l1.9-7.8h7.7l-0.9,3.6c-0.1,0.5,0.2,1.1,0.7,1.2c0.1,0,0.2,0,0.2,0c0.4,0,0.9-0.3,1-0.8l1-4.1h4.5c0.6,0,1-0.4,1-1S27.9,10.1,27.4,10.1z" />
    <path d="M29.7,28.3l-2-2c0.6-0.8,0.9-1.9,0.9-3c0-2.9-2.4-5.3-5.3-5.3S18,20.4,18,23.3s2.4,5.3,5.3,5.3c1.1,0,2.1-0.3,3-0.9l2,2c0.2,0.2,0.5,0.3,0.7,0.3s0.5-0.1,0.7-0.3C30.1,29.3,30.1,28.7,29.7,28.3z M20,23.3c0-1.8,1.5-3.3,3.3-3.3s3.3,1.5,3.3,3.3s-1.5,3.3-3.3,3.3S20,25.1,20,23.3z" />
  </symbol>
  <symbol id="chunterbrowser" viewBox="0 0 32 32">
    <path d="M16,2C9.8,2,3.4,3.8,3.4,7.3V16v8.7C3.4,28.2,9.8,30,16,30c0.6,0,1-0.4,1-1s-0.4-1-1-1c-6.4,0-10.6-2-10.6-3.3V19c2.4,1.5,6.5,2.3,10.6,2.3c0.6,0,1-0.4,1-1s-0.4-1-1-1c-6.4,0-10.6-2-10.6-3.3v-5.7c2.4,1.5,6.5,2.3,10.6,2.3s8.2-0.8,10.6-2.3v4.9c0,0.6,0.4,1,1,1s1-0.4,1-1V7.3C28.6,3.8,22.2,2,16,2z M16,10.7c-6.4,0-10.6-2-10.6-3.3S9.6,4,16,4c6.4,0,10.6,2,10.6,3.3S22.4,10.7,16,10.7z" />
    <path d="M29.7,28.3l-2-2c0.6-0.8,0.9-1.9,0.9-3c0-2.9-2.4-5.3-5.3-5.3c-2.9,0-5.3,2.4-5.3,5.3c0,2.9,2.4,5.3,5.3,5.3c1.1,0,2.1-0.3,3-0.9l2,2c0.2,0.2,0.5,0.3,0.7,0.3s0.5-0.1,0.7-0.3C30.1,29.3,30.1,28.7,29.7,28.3z M20,23.3c0-1.8,1.5-3.3,3.3-3.3s3.3,1.5,3.3,3.3s-1.5,3.3-3.3,3.3S20,25.1,20,23.3z" />
  </symbol>
  <symbol id="copy" viewBox="0 0 12 14">
    <path fill-rule="evenodd" clip-rule="evenodd" d="M3 2C3 0.89543 3.89543 0 5 0H10C11.1046 0 12 0.895431 12 2V9C12 10.1046 11.1046 11 10 11H5C3.89543 11 3 10.1046 3 9V2ZM5 1C4.44772 1 4 1.44772 4 2V9C4 9.55228 4.44772 10 5 10H10C10.5523 10 11 9.55229 11 9V2C11 1.44772 10.5523 1 10 1H5Z"/>
    <path fill-rule="evenodd" clip-rule="evenodd" d="M2 4C1.44772 4 1 4.44772 1 5V12C1 12.5523 1.44772 13 2 13H7C7.55228 13 8 12.5523 8 12V11H9V12C9 13.1046 8.10457 14 7 14H2C0.895431 14 0 13.1046 0 12V5C0 3.89543 0.895431 3 2 3H3V4H2Z" />
  </symbol>
  <symbol id="messages" viewBox="0 0 32 32">
    <path fill-rule="evenodd" clip-rule="evenodd" d="M27.4,25.4L27.4,25.4c0.2,0,0.4,0,0.6-0.1c0.2-0.1,0.3-0.2,0.5-0.3c0.1-0.1,0.2-0.3,0.3-0.5C29,24.2,29,24,29,23.9v-0.1c0-0.1,0-0.2-0.1-0.4l-1-3.5c0,0,0-0.1,0.1-0.1c0,0,0-0.1,0.1-0.1l0,0c1.2-1.8,1.9-4,1.9-6.2c0-3-1.2-5.8-3.3-7.9C24.4,3.3,21.4,2,18.1,2c-2.7,0-5.4,0.9-7.5,2.6c-2.1,1.7-3.5,4-4.1,6.5c-0.2,0.8-0.3,1.6-0.3,2.4c0,1.5,0.3,3,0.9,4.4c0.6,1.4,1.4,2.7,2.5,3.7c2.2,2.2,5.2,3.4,8.3,3.4c1.2,0,2.8-0.4,3.2-0.5c0.8-0.2,1.6-0.5,1.7-0.5c0.1,0,0.2,0,0.2,0c0.1,0,0.2,0,0.2,0l0,0l3.5,1.3C27.1,25.3,27.2,25.3,27.4,25.4L27.4,25.4z M26.7,23l-2.7-1h0c-0.6-0.2-1.3-0.3-1.9,0c0,0,0,0,0,0c-0.2,0.1-0.8,0.3-1.5,0.5C19.9,22.8,18.7,23,18,23c-5.3,0-9.7-4.3-9.7-9.6c0-0.6,0.1-1.3,0.2-1.9c0.9-4.4,5-7.5,9.7-7.5c2.7,0,5.3,1,7.1,2.9C27,8.7,28,11,28,13.4c0,1.8-0.5,3.6-1.5,5.1c-0.1,0.1-0.1,0.2-0.2,0.3l0,0c-0.3,0.6-0.4,1.1-0.3,1.5L26.7,23z" />
    <path d="M3.6,29.7C3.8,29.9,4.2,30,4.5,30h0c0.2,0,0.4,0,0.6-0.1l3.5-1.4l0,0c1.4,0.5,2.8,0.8,4.2,0.8h0c1.9,0,3.8-0.5,5.5-1.5c0.1-0.1,0.2-0.2,0.3-0.3c0.1-0.1,0.1-0.2,0.2-0.4s0-0.3,0-0.4c0-0.1-0.1-0.3-0.1-0.4c-0.1-0.1-0.2-0.2-0.3-0.3c-0.1-0.1-0.2-0.1-0.4-0.2c-0.1,0-0.3,0-0.4,0c-0.1,0-0.3,0.1-0.4,0.1c-1.4,0.8-2.9,1.2-4.5,1.2h0c-1.1,0-2.3-0.2-3.4-0.7c-0.5-0.2-1-0.2-1.5,0l-2.7,1c0.3-1.3,0.5-2.8,0.6-2.9c0.1-0.5-0.1-0.9-0.3-1.3l0,0c-0.8-1.2-1.3-2.7-1.4-4.2c-0.1-1.5,0.3-3,1-4.3c0.1-0.2,0.2-0.5,0.1-0.8C5,14,4.9,13.8,4.6,13.6c-0.2-0.1-0.5-0.2-0.8-0.1c-0.3,0.1-0.5,0.2-0.6,0.5c-0.9,1.6-1.3,3.5-1.3,5.4c0.1,1.9,0.7,3.7,1.7,5.2v0c-0.1,0.5-0.3,1.7-0.5,2.7C3.1,27.7,3.1,28,3,28.2C3,28.5,3,28.8,3.1,29C3.2,29.3,3.3,29.5,3.6,29.7L3.6,29.7z" />
  </symbol>
  <symbol id="bookmarks" viewBox="0 0 32 32">
    <path d="M18.2,7.4H8.4c-2.5,0-4.6,2.1-4.6,4.6v17c0,0.4,0.2,0.7,0.5,0.9c0.3,0.2,0.7,0.1,1-0.1l7.9-5.8l7.9,5.8c0.2,0.1,0.4,0.2,0.6,0.2c0.2,0,0.3,0,0.5-0.1c0.3-0.2,0.5-0.5,0.5-0.9V12C22.8,9.4,20.8,7.4,18.2,7.4z M20.8,27l-6.9-5.1c-0.4-0.3-0.8-0.3-1.2,0L5.8,27V12c0-1.4,1.2-2.6,2.6-2.6h9.9c1.4,0,2.6,1.2,2.6,2.6V27z" />
    <path d="M23.6,2h-9.9c-0.8,0-1.5,0.2-2.2,0.6c-0.5,0.3-0.7,0.9-0.4,1.4c0.3,0.5,0.9,0.7,1.4,0.4C12.9,4.1,13.3,4,13.8,4h9.9c1.4,0,2.6,1.2,2.6,2.6v17c0,0.6,0.4,1,1,1s1-0.4,1-1v-17C28.2,4.1,26.1,2,23.6,2z" />
  </symbol>
</svg>
