<svg xmlns="http://www.w3.org/2000/svg" style="display: none;">
  <symbol id="chunter" viewBox="0 0 32 32">
    <path d="M25.9,14.6C25.7,9.8,21.9,6,17,5.7h-0.5c0,0,0,0,0,0c-1.4,0-2.9,0.3-4.2,1c-3.2,1.6-5.2,4.8-5.2,8.4c0,1.4,0.3,2.7,0.9,4 l-1.9,5.7c-0.1,0.2,0,0.5,0.1,0.6c0.1,0.1,0.3,0.2,0.4,0.2c0.1,0,0.1,0,0.2,0l5.7-1.9c1.2,0.6,2.6,0.9,4,0.9c0,0,0,0,0,0 c3.6,0,6.8-2,8.4-5.2c0.7-1.3,1-2.8,1-4.2L25.9,14.6z M24.7,15.1C24.7,15.1,24.7,15.1,24.7,15.1c0,1.3-0.3,2.5-0.9,3.7 c-1.4,2.8-4.2,4.5-7.3,4.5c0,0,0,0,0,0c-1.3,0-2.5-0.3-3.6-0.9c-0.1-0.1-0.3-0.1-0.5,0l-4.8,1.6l1.6-4.8c0.1-0.2,0-0.3,0-0.5 c-0.6-1.1-0.9-2.4-0.9-3.7c0-3.1,1.7-5.9,4.5-7.3c1.1-0.6,2.4-0.9,3.6-0.9c0,0,0,0,0,0l0.5,0c4.2,0.2,7.5,3.6,7.7,7.7V15.1z"/>
  </symbol>

  <symbol id="hashtag" viewBox="0 0 16 16">
    <path d="M14,9.6h-3.2l0.4-3.2H14c0.3,0,0.6-0.3,0.6-0.6S14.3,5.2,14,5.2h-2.7l0.4-3.7c0-0.3-0.2-0.6-0.5-0.7 c-0.3,0-0.6,0.2-0.7,0.5l-0.4,3.8H6.9l0.4-3.7c0-0.3-0.2-0.6-0.5-0.7c-0.3,0-0.6,0.2-0.7,0.5L5.7,5.2H2.3C2,5.2,1.7,5.5,1.7,5.8 S2,6.4,2.3,6.4h3.2L5.2,9.6H2.3c-0.3,0-0.6,0.3-0.6,0.6s0.3,0.6,0.6,0.6h2.7l-0.4,3.7c0,0.3,0.2,0.6,0.5,0.7c0,0,0,0,0.1,0 c0.3,0,0.6-0.2,0.6-0.5l0.4-3.8h3.2L9,14.5c0,0.3,0.2,0.6,0.5,0.7c0,0,0,0,0.1,0c0.3,0,0.6-0.2,0.6-0.5l0.4-3.8H14 c0.3,0,0.6-0.3,0.6-0.6S14.3,9.6,14,9.6z M6.4,9.6l0.4-3.2h3.2L9.6,9.6H6.4z"/>
  </symbol>
  <symbol id="lock" viewBox="0 0 16 16">
    <path d="M13,6.9h-1.1V4.8c0-2.2-1.8-3.9-3.9-3.9c-2.2,0-3.9,1.8-3.9,3.9v2.1H3c-0.9,0-1.6,0.7-1.6,1.6v5.3 c0,0.9,0.7,1.6,1.6,1.6h10c0.9,0,1.6-0.7,1.6-1.6V8.5C14.6,7.6,13.9,6.9,13,6.9z M5.3,4.8c0-1.5,1.2-2.7,2.7-2.7s2.7,1.2,2.7,2.7 v2.1H5.3V4.8z M13.4,13.8c0,0.2-0.2,0.4-0.4,0.4H3c-0.2,0-0.4-0.2-0.4-0.4V8.5c0-0.2,0.2-0.4,0.4-0.4h10c0.2,0,0.4,0.2,0.4,0.4V13.8 z"/>
  </symbol>

</svg>
