<!-- ALL HASHTAGs -->
<svg xmlns="http://www.w3.org/2000/svg" style="display: none;">
  <symbol id="funnel" viewBox="0 0 24 24">
    <path d="M18.6,1.4H5.4c-1.5,0-2.8,1.3-2.8,2.9v2.3c0,0.8,0.5,1.9,1.1,2.5l3.8,4c0.3,0.4,0.6,1.1,0.6,1.6v5.3 c0,1,0.5,1.9,1.4,2.4c0.4,0.2,0.9,0.4,1.4,0.4c0.5,0,1-0.1,1.5-0.4l1.4-0.9c0.7-0.4,1.3-1.5,1.3-2.3v-4.3c0-0.6,0.3-1.4,0.7-1.7 l4.3-3.8c0.6-0.6,1.2-1.8,1.2-2.8V4.1C21.3,2.6,20.1,1.4,18.6,1.4z M4.1,6.5V4.2c0-0.8,0.5-1.4,1.2-1.4h4.2L5.8,9L4.8,8 C4.4,7.6,4.1,6.9,4.1,6.5z M19.8,6.3c0,0.6-0.4,1.4-0.7,1.7l-4.3,3.8c-0.7,0.6-1.3,1.8-1.3,2.9V19c0,0.4-0.3,0.9-0.6,1.1L11.6,21 c-0.4,0.2-0.9,0.2-1.3,0c-0.2-0.1-0.6-0.4-0.6-1.1v-5.3c0-0.9-0.5-2-1-2.6l-1.8-1.9l4.5-7.2h7.3c0.7,0,1.2,0.6,1.2,1.2V6.3z" />
  </symbol>
  <symbol id="leadapplication" viewBox="0 0 32 32">
    <path fill-rule="evenodd" clip-rule="evenodd" d="M7 4C5.89543 4 5 4.89543 5 6V7.51472C5 9.37123 5.7375 11.1517 7.05025 12.4645L11.5355 16.9497C12.4732 17.8874 13 19.1592 13 20.4853V28.7478C13 29.7778 14.176 30.3658 15 29.7478L18.2 27.3478C18.7036 26.97 19 26.3773 19 25.7478V20.4853C19 19.1592 19.5268 17.8874 20.4645 16.9497L24.9497 12.4645C26.2625 11.1517 27 9.37123 27 7.51472V6C27 4.89543 26.1046 4 25 4H7ZM17 20.4853C17 18.6288 17.7375 16.8483 19.0503 15.5355L23.5355 11.0503C24.4732 10.1126 25 8.8408 25 7.51472V6H7V7.51472C7 8.8408 7.52678 10.1126 8.46446 11.0503L12.9497 15.5355C14.2625 16.8483 15 18.6288 15 20.4853V27.2478L17 25.7478V20.4853Z" />
  </symbol>
  <symbol id="funnelBrowser" viewBox="0 0 24 24">
    <path d="M12.4,20.2H8.6c-4.3,0-5.9-1.6-5.9-5.8V8.7c0-4.4,1.5-6,5.9-6h5.7c4.4,0,6,1.6,6,6v3.7c0,0.4,0.3,0.7,0.8,0.7 s0.8-0.3,0.8-0.7V8.7c0-5.2-2.2-7.5-7.5-7.5H8.6c-5.2,0-7.4,2.2-7.4,7.5v5.7c0,5.1,2.3,7.3,7.4,7.3h3.8c0.4,0,0.7-0.3,0.7-0.8 S12.8,20.2,12.4,20.2z" />
    <path d="M22.2,21.4l-1-1c0,0,0,0-0.1,0c0.4-0.6,0.7-1.4,0.7-2.2c0-2.2-1.7-3.9-3.9-3.9s-4,1.7-4,3.9c0,2.1,1.8,4,4,4 c0.8,0,1.6-0.2,2.2-0.7c0,0,0,0,0,0.1l1,1c0.1,0.1,0.3,0.2,0.5,0.2s0.4-0.1,0.5-0.2C22.5,22.1,22.5,21.7,22.2,21.4z M17.9,20.5 c-1.3,0-2.5-1.2-2.5-2.5c0-1.4,1.1-2.4,2.5-2.4s2.4,1.1,2.4,2.4S19.3,20.5,17.9,20.5z" />
    <path d="M14.2,4.9H6.8c-0.5,0-1,0.2-1.3,0.5C5.1,5.8,4.9,6.3,4.9,6.8v1.3c0,0.6,0.3,1.3,0.7,1.7L7.7,12l0,0C7.8,12.2,8,12.6,8,12.8 v2.9c0,0.7,0.3,1.3,1,1.6c0.3,0.2,0.6,0.3,1,0.3s0.7-0.1,1-0.3l0.7-0.5c0.5-0.3,0.9-1,0.9-1.6v-2.4c0-0.2,0.2-0.6,0.3-0.7l2.4-2.2 c0.3-0.4,0.8-1.1,0.8-1.8V6.8C16.1,5.7,15.3,4.9,14.2,4.9z M8.9,11L6.6,8.7C6.5,8.6,6.4,8.3,6.4,8.2V6.8c0-0.1,0.1-0.3,0.1-0.3 c0.1-0.1,0.2-0.1,0.2-0.1h7.5c0.2,0,0.4,0.2,0.4,0.4V8c0,0.2-0.2,0.6-0.3,0.7l-2.5,2.2c-0.5,0.4-0.8,1.2-0.8,1.9v2.4 c0,0.1-0.1,0.3-0.1,0.3h0L10.1,16c-0.1,0.1-0.3,0.1-0.4,0c0,0,0,0-0.1-0.1c-0.1-0.1-0.2-0.1-0.2-0.3v-3C9.5,12.1,9.2,11.4,8.9,11z" />
  </symbol>
  <symbol id="lead" viewBox="0 0 24 24">
    <path d="M19.9,12.4c0,0.4,0.4,0.7,0.7,0.7c0,0,0.1,0,0.1,0c0.4,0,0.7-0.4,0.7-0.8c-0.3-2.7-1.7-5.1-4-6.7 c-0.3-0.2-0.8-0.2-1,0.2c-0.2,0.3-0.2,0.8,0.2,1C18.4,8.1,19.6,10.1,19.9,12.4z" />
    <path d="M3.4,13.1C3.4,13.1,3.5,13.1,3.4,13.1c0.5,0,0.8-0.3,0.8-0.7c0.2-2.3,1.4-4.3,3.3-5.6c0.3-0.2,0.4-0.7,0.2-1 C7.5,5.4,7,5.4,6.7,5.6c-2.2,1.6-3.6,4-3.9,6.7C2.7,12.7,3,13.1,3.4,13.1z" />
    <path d="M15.5,20.3c-2.1,1-4.8,1-6.9-0.1c-0.4-0.2-0.8,0-1,0.3c-0.2,0.4,0,0.8,0.3,1c1.3,0.7,2.7,1,4.2,1 c1.4,0,2.8-0.3,4.1-0.9c0.4-0.2,0.5-0.6,0.3-1C16.3,20.3,15.8,20.2,15.5,20.3z" />
    <path d="M12.1,8.5c1.9,0,3.5-1.6,3.5-3.5c0-1.9-1.6-3.5-3.5-3.5c-1.9,0-3.5,1.6-3.5,3.5C8.5,6.9,10.1,8.5,12.1,8.5z M12.1,2.9c1.1,0,2,0.9,2,2c0,1.1-0.9,2-2,2c-1.1,0-2-0.9-2-2C10,3.8,10.9,2.9,12.1,2.9z" />
    <path d="M4.8,13.6c-1.9,0-3.5,1.6-3.5,3.5s1.6,3.5,3.5,3.5c1.9,0,3.5-1.6,3.5-3.5S6.8,13.6,4.8,13.6z M4.8,19.2 c-1.1,0-2-0.9-2-2s0.9-2,2-2c1.1,0,2,0.9,2,2S5.9,19.2,4.8,19.2z" />
    <path d="M19.2,13.6c-1.9,0-3.5,1.6-3.5,3.5s1.6,3.5,3.5,3.5s3.5-1.6,3.5-3.5S21.1,13.6,19.2,13.6z M19.2,19.2 c-1.1,0-2-0.9-2-2s0.9-2,2-2s2,0.9,2,2S20.3,19.2,19.2,19.2z" />
  </symbol>
  <symbol id="new-customer" viewBox="0 0 16 16">
    <path d="M14.7826 3.26359C15.1313 2.69123 15.0606 1.93115 14.5705 1.43492C14.0757 0.933932 13.3153 0.865765 12.7483 1.23041C13.2123 2.09277 13.9198 2.79999 14.7826 3.26359Z"/>
    <path d="M11.8171 2.11829L6.78472 7.18C7.77457 7.47517 8.57699 8.21908 8.95006 9.18198L13.9064 4.20208C13.0535 3.68436 12.3369 2.9696 11.8171 2.11829Z"/>
    <path d="M7.91486 10.1761C7.80538 9.1186 6.91913 8.30487 5.8592 8.29183C5.53827 8.92804 5.21105 9.90848 5.01729 10.5311C4.93355 10.8002 5.16675 11.0527 5.44262 10.9905C6.16831 10.8268 7.36057 10.5217 7.91486 10.1761Z"/>
    <path d="M4.75 2C2.67893 2 1 3.67893 1 5.75V11.25C1 13.3211 2.67893 15 4.75 15H10.2501C12.3212 15 14.0001 13.3211 14.0001 11.25V8C14.0001 7.58579 13.6643 7.25 13.2501 7.25C12.8359 7.25 12.5001 7.58579 12.5001 8V11.25C12.5001 12.4926 11.4927 13.5 10.2501 13.5H4.75C3.50736 13.5 2.5 12.4926 2.5 11.25V5.75C2.5 4.50736 3.50736 3.5 4.75 3.5H7C7.41421 3.5 7.75 3.16421 7.75 2.75C7.75 2.33579 7.41421 2 7 2H4.75Z"/>
  </symbol>
</svg>
