<!-- ALL HASHTAGs -->
<svg xmlns="http://www.w3.org/2000/svg" style="display: none;">
  <symbol id="funnel" viewBox="0 0 16 16">
    <path d="M13.2,9.4h-2.8l0.3-2.7h2.5c0.3,0,0.5-0.2,0.5-0.5s-0.2-0.5-0.5-0.5h-2.4l0.4-3.2c0-0.3-0.2-0.5-0.4-0.6 c-0.3,0-0.5,0.2-0.6,0.4L9.8,5.6H7.1l0.4-3.2c0-0.3-0.2-0.5-0.4-0.6c-0.3,0-0.5,0.2-0.6,0.4L6.1,5.6H3.2c-0.3,0-0.5,0.2-0.5,0.5 s0.2,0.5,0.5,0.5h2.8L5.6,9.4H3.2c-0.3,0-0.5,0.2-0.5,0.5s0.2,0.5,0.5,0.5h2.4l-0.4,3.2c0,0.3,0.2,0.5,0.4,0.6c0,0,0,0,0.1,0 c0.3,0,0.5-0.2,0.5-0.4l0.4-3.3h2.7l-0.4,3.2c0,0.3,0.2,0.5,0.4,0.6c0,0,0,0,0.1,0c0.3,0,0.5-0.2,0.5-0.4l0.4-3.3h2.9 c0.3,0,0.5-0.2,0.5-0.5S13.4,9.4,13.2,9.4z M6.6,9.4l0.3-2.7h2.7L9.4,9.4H6.6z"/>
  </symbol>
  <symbol id="leadapplication" viewBox="0 0 16 16">
    <path d="M13.2,9.4h-2.8l0.3-2.7h2.5c0.3,0,0.5-0.2,0.5-0.5s-0.2-0.5-0.5-0.5h-2.4l0.4-3.2c0-0.3-0.2-0.5-0.4-0.6 c-0.3,0-0.5,0.2-0.6,0.4L9.8,5.6H7.1l0.4-3.2c0-0.3-0.2-0.5-0.4-0.6c-0.3,0-0.5,0.2-0.6,0.4L6.1,5.6H3.2c-0.3,0-0.5,0.2-0.5,0.5 s0.2,0.5,0.5,0.5h2.8L5.6,9.4H3.2c-0.3,0-0.5,0.2-0.5,0.5s0.2,0.5,0.5,0.5h2.4l-0.4,3.2c0,0.3,0.2,0.5,0.4,0.6c0,0,0,0,0.1,0 c0.3,0,0.5-0.2,0.5-0.4l0.4-3.3h2.7l-0.4,3.2c0,0.3,0.2,0.5,0.4,0.6c0,0,0,0,0.1,0c0.3,0,0.5-0.2,0.5-0.4l0.4-3.3h2.9 c0.3,0,0.5-0.2,0.5-0.5S13.4,9.4,13.2,9.4z M6.6,9.4l0.3-2.7h2.7L9.4,9.4H6.6z"/>
  </symbol>
  <symbol id="lead" viewBox="0 0 16 16">
    <path d="M13.2,9.4h-2.8l0.3-2.7h2.5c0.3,0,0.5-0.2,0.5-0.5s-0.2-0.5-0.5-0.5h-2.4l0.4-3.2c0-0.3-0.2-0.5-0.4-0.6 c-0.3,0-0.5,0.2-0.6,0.4L9.8,5.6H7.1l0.4-3.2c0-0.3-0.2-0.5-0.4-0.6c-0.3,0-0.5,0.2-0.6,0.4L6.1,5.6H3.2c-0.3,0-0.5,0.2-0.5,0.5 s0.2,0.5,0.5,0.5h2.8L5.6,9.4H3.2c-0.3,0-0.5,0.2-0.5,0.5s0.2,0.5,0.5,0.5h2.4l-0.4,3.2c0,0.3,0.2,0.5,0.4,0.6c0,0,0,0,0.1,0 c0.3,0,0.5-0.2,0.5-0.4l0.4-3.3h2.7l-0.4,3.2c0,0.3,0.2,0.5,0.4,0.6c0,0,0,0,0.1,0c0.3,0,0.5-0.2,0.5-0.4l0.4-3.3h2.9 c0.3,0,0.5-0.2,0.5-0.5S13.4,9.4,13.2,9.4z M6.6,9.4l0.3-2.7h2.7L9.4,9.4H6.6z"/>
  </symbol>
  <symbol id="new-customer" viewBox="0 0 16 16">
    <path d="M14.7826 3.26359C15.1313 2.69123 15.0606 1.93115 14.5705 1.43492C14.0757 0.933932 13.3153 0.865765 12.7483 1.23041C13.2123 2.09277 13.9198 2.79999 14.7826 3.26359Z"/>
    <path d="M11.8171 2.11829L6.78472 7.18C7.77457 7.47517 8.57699 8.21908 8.95006 9.18198L13.9064 4.20208C13.0535 3.68436 12.3369 2.9696 11.8171 2.11829Z"/>
    <path d="M7.91486 10.1761C7.80538 9.1186 6.91913 8.30487 5.8592 8.29183C5.53827 8.92804 5.21105 9.90848 5.01729 10.5311C4.93355 10.8002 5.16675 11.0527 5.44262 10.9905C6.16831 10.8268 7.36057 10.5217 7.91486 10.1761Z"/>
    <path d="M4.75 2C2.67893 2 1 3.67893 1 5.75V11.25C1 13.3211 2.67893 15 4.75 15H10.2501C12.3212 15 14.0001 13.3211 14.0001 11.25V8C14.0001 7.58579 13.6643 7.25 13.2501 7.25C12.8359 7.25 12.5001 7.58579 12.5001 8V11.25C12.5001 12.4926 11.4927 13.5 10.2501 13.5H4.75C3.50736 13.5 2.5 12.4926 2.5 11.25V5.75C2.5 4.50736 3.50736 3.5 4.75 3.5H7C7.41421 3.5 7.75 3.16421 7.75 2.75C7.75 2.33579 7.41421 2 7 2H4.75Z"/>
  </symbol>
</svg>
