<svg xmlns="http://www.w3.org/2000/svg" style="display: none;">
  <symbol id="funnel" viewBox="0 0 16 16">
    <path d="M13.2,9.4h-2.8l0.3-2.7h2.5c0.3,0,0.5-0.2,0.5-0.5s-0.2-0.5-0.5-0.5h-2.4l0.4-3.2c0-0.3-0.2-0.5-0.4-0.6 c-0.3,0-0.5,0.2-0.6,0.4L9.8,5.6H7.1l0.4-3.2c0-0.3-0.2-0.5-0.4-0.6c-0.3,0-0.5,0.2-0.6,0.4L6.1,5.6H3.2c-0.3,0-0.5,0.2-0.5,0.5 s0.2,0.5,0.5,0.5h2.8L5.6,9.4H3.2c-0.3,0-0.5,0.2-0.5,0.5s0.2,0.5,0.5,0.5h2.4l-0.4,3.2c0,0.3,0.2,0.5,0.4,0.6c0,0,0,0,0.1,0 c0.3,0,0.5-0.2,0.5-0.4l0.4-3.3h2.7l-0.4,3.2c0,0.3,0.2,0.5,0.4,0.6c0,0,0,0,0.1,0c0.3,0,0.5-0.2,0.5-0.4l0.4-3.3h2.9 c0.3,0,0.5-0.2,0.5-0.5S13.4,9.4,13.2,9.4z M6.6,9.4l0.3-2.7h2.7L9.4,9.4H6.6z"/>
  </symbol>
  <symbol id="leadapplication" viewBox="0 0 16 16">
    <path d="M13.2,9.4h-2.8l0.3-2.7h2.5c0.3,0,0.5-0.2,0.5-0.5s-0.2-0.5-0.5-0.5h-2.4l0.4-3.2c0-0.3-0.2-0.5-0.4-0.6 c-0.3,0-0.5,0.2-0.6,0.4L9.8,5.6H7.1l0.4-3.2c0-0.3-0.2-0.5-0.4-0.6c-0.3,0-0.5,0.2-0.6,0.4L6.1,5.6H3.2c-0.3,0-0.5,0.2-0.5,0.5 s0.2,0.5,0.5,0.5h2.8L5.6,9.4H3.2c-0.3,0-0.5,0.2-0.5,0.5s0.2,0.5,0.5,0.5h2.4l-0.4,3.2c0,0.3,0.2,0.5,0.4,0.6c0,0,0,0,0.1,0 c0.3,0,0.5-0.2,0.5-0.4l0.4-3.3h2.7l-0.4,3.2c0,0.3,0.2,0.5,0.4,0.6c0,0,0,0,0.1,0c0.3,0,0.5-0.2,0.5-0.4l0.4-3.3h2.9 c0.3,0,0.5-0.2,0.5-0.5S13.4,9.4,13.2,9.4z M6.6,9.4l0.3-2.7h2.7L9.4,9.4H6.6z"/>
  </symbol>
  <symbol id="lead" viewBox="0 0 16 16">
    <path d="M13.2,9.4h-2.8l0.3-2.7h2.5c0.3,0,0.5-0.2,0.5-0.5s-0.2-0.5-0.5-0.5h-2.4l0.4-3.2c0-0.3-0.2-0.5-0.4-0.6 c-0.3,0-0.5,0.2-0.6,0.4L9.8,5.6H7.1l0.4-3.2c0-0.3-0.2-0.5-0.4-0.6c-0.3,0-0.5,0.2-0.6,0.4L6.1,5.6H3.2c-0.3,0-0.5,0.2-0.5,0.5 s0.2,0.5,0.5,0.5h2.8L5.6,9.4H3.2c-0.3,0-0.5,0.2-0.5,0.5s0.2,0.5,0.5,0.5h2.4l-0.4,3.2c0,0.3,0.2,0.5,0.4,0.6c0,0,0,0,0.1,0 c0.3,0,0.5-0.2,0.5-0.4l0.4-3.3h2.7l-0.4,3.2c0,0.3,0.2,0.5,0.4,0.6c0,0,0,0,0.1,0c0.3,0,0.5-0.2,0.5-0.4l0.4-3.3h2.9 c0.3,0,0.5-0.2,0.5-0.5S13.4,9.4,13.2,9.4z M6.6,9.4l0.3-2.7h2.7L9.4,9.4H6.6z"/>
  </symbol>
</svg>
