<svg xmlns="http://www.w3.org/2000/svg" style="display: none;">
  <symbol id="funnel" viewBox="0 0 16 16">
    <path d="M14,9.6h-3.2l0.4-3.2H14c0.3,0,0.6-0.3,0.6-0.6S14.3,5.2,14,5.2h-2.7l0.4-3.7c0-0.3-0.2-0.6-0.5-0.7 c-0.3,0-0.6,0.2-0.7,0.5l-0.4,3.8H6.9l0.4-3.7c0-0.3-0.2-0.6-0.5-0.7c-0.3,0-0.6,0.2-0.7,0.5L5.7,5.2H2.3C2,5.2,1.7,5.5,1.7,5.8 S2,6.4,2.3,6.4h3.2L5.2,9.6H2.3c-0.3,0-0.6,0.3-0.6,0.6s0.3,0.6,0.6,0.6h2.7l-0.4,3.7c0,0.3,0.2,0.6,0.5,0.7c0,0,0,0,0.1,0 c0.3,0,0.6-0.2,0.6-0.5l0.4-3.8h3.2L9,14.5c0,0.3,0.2,0.6,0.5,0.7c0,0,0,0,0.1,0c0.3,0,0.6-0.2,0.6-0.5l0.4-3.8H14 c0.3,0,0.6-0.3,0.6-0.6S14.3,9.6,14,9.6z M6.4,9.6l0.4-3.2h3.2L9.6,9.6H6.4z"/>
  </symbol>
  <symbol id="leadapplication" viewBox="0 0 16 16">
    <path d="M14,9.6h-3.2l0.4-3.2H14c0.3,0,0.6-0.3,0.6-0.6S14.3,5.2,14,5.2h-2.7l0.4-3.7c0-0.3-0.2-0.6-0.5-0.7 c-0.3,0-0.6,0.2-0.7,0.5l-0.4,3.8H6.9l0.4-3.7c0-0.3-0.2-0.6-0.5-0.7c-0.3,0-0.6,0.2-0.7,0.5L5.7,5.2H2.3C2,5.2,1.7,5.5,1.7,5.8 S2,6.4,2.3,6.4h3.2L5.2,9.6H2.3c-0.3,0-0.6,0.3-0.6,0.6s0.3,0.6,0.6,0.6h2.7l-0.4,3.7c0,0.3,0.2,0.6,0.5,0.7c0,0,0,0,0.1,0 c0.3,0,0.6-0.2,0.6-0.5l0.4-3.8h3.2L9,14.5c0,0.3,0.2,0.6,0.5,0.7c0,0,0,0,0.1,0c0.3,0,0.6-0.2,0.6-0.5l0.4-3.8H14 c0.3,0,0.6-0.3,0.6-0.6S14.3,9.6,14,9.6z M6.4,9.6l0.4-3.2h3.2L9.6,9.6H6.4z"/>
  </symbol>
    <symbol id="lead" viewBox="0 0 16 16">
    <path d="M14,9.6h-3.2l0.4-3.2H14c0.3,0,0.6-0.3,0.6-0.6S14.3,5.2,14,5.2h-2.7l0.4-3.7c0-0.3-0.2-0.6-0.5-0.7 c-0.3,0-0.6,0.2-0.7,0.5l-0.4,3.8H6.9l0.4-3.7c0-0.3-0.2-0.6-0.5-0.7c-0.3,0-0.6,0.2-0.7,0.5L5.7,5.2H2.3C2,5.2,1.7,5.5,1.7,5.8 S2,6.4,2.3,6.4h3.2L5.2,9.6H2.3c-0.3,0-0.6,0.3-0.6,0.6s0.3,0.6,0.6,0.6h2.7l-0.4,3.7c0,0.3,0.2,0.6,0.5,0.7c0,0,0,0,0.1,0 c0.3,0,0.6-0.2,0.6-0.5l0.4-3.8h3.2L9,14.5c0,0.3,0.2,0.6,0.5,0.7c0,0,0,0,0.1,0c0.3,0,0.6-0.2,0.6-0.5l0.4-3.8H14 c0.3,0,0.6-0.3,0.6-0.6S14.3,9.6,14,9.6z M6.4,9.6l0.4-3.2h3.2L9.6,9.6H6.4z"/>
  </symbol>
</svg>
