<svg xmlns="http://www.w3.org/2000/svg" style="display: none;">
  <symbol id="recruitment" viewBox="0 0 24 24">
    <g>
      <path d="M9.6,14.4c-1.8,0-7.4,0-7.4,3.4c0,3,4.2,3.4,7.4,3.4c1.8,0,7.4,0,7.4-3.4C17.1,14.7,12.8,14.4,9.6,14.4z M9.6,20c-4.1,0-6.2-0.7-6.2-2.2c0-1.5,2.1-2.2,6.2-2.2s6.2,0.7,6.2,2.2C15.9,19.2,13.8,20,9.6,20z"/>
      <path d="M9.6,12.4C9.6,12.4,9.7,12.4,9.6,12.4c1.4,0,2.6-0.5,3.5-1.5c0.9-0.9,1.4-2.2,1.4-3.5c0-2.7-2.2-5-5-5 c-2.7,0-5,2.2-5,5C4.7,10.1,6.9,12.4,9.6,12.4z M9.6,3.6c2.1,0,3.8,1.7,3.8,3.8c0,1-0.4,2-1.1,2.7c-0.7,0.7-1.7,1.1-2.7,1.1h0 c-2.1,0-3.8-1.7-3.8-3.8C5.9,5.3,7.6,3.6,9.6,3.6z"/>
      <path d="M16.5,10c-0.3,0-0.6,0.3-0.5,0.7c0,0.3,0.3,0.5,0.6,0.5c0,0,0.1,0,0.1,0C18.5,11,20,9.3,20,7.4 c0-1.9-1.4-3.5-3.3-3.8C16.4,3.5,16.1,3.7,16,4c-0.1,0.3,0.2,0.6,0.5,0.7c1.3,0.2,2.3,1.3,2.3,2.7C18.8,8.7,17.8,9.9,16.5,10z"/>
      <path d="M18.7,13.9c-0.3,0-0.6,0.2-0.7,0.5s0.2,0.6,0.5,0.7c2.1,0.3,2.1,1.1,2.1,1.3c0,0.3-0.1,0.7-0.9,1 c-0.3,0.1-0.5,0.5-0.3,0.8c0.1,0.2,0.3,0.4,0.6,0.4c0.1,0,0.1,0,0.2,0c1.4-0.5,1.7-1.5,1.7-2.1C21.9,15,20.8,14.2,18.7,13.9z"/>
    </g>
  </symbol>
  <symbol id="vacancy" viewBox="0 0 16 16">
    <path d="M11.7,3.6h-1.1C10.4,2.7,9.7,2,8.8,2H7.2C6.3,2,5.6,2.7,5.4,3.6H4.3C3,3.6,2,4.6,2,5.9V8c0,0.2,0.1,0.3,0.2,0.4 C3.8,9.3,5.9,9.9,8,9.9c2.1,0,4.2-0.5,5.8-1.5C13.9,8.3,14,8.2,14,8V5.9C14,4.6,13,3.6,11.7,3.6z M7.2,3h1.5c0.4,0,0.6,0.2,0.8,0.6 H6.5C6.6,3.2,6.9,3,7.2,3z M13,7.7c-1.4,0.8-3.2,1.2-5,1.2c-1.8,0-3.6-0.4-5-1.2V5.9c0-0.7,0.6-1.3,1.3-1.3h7.4 c0.7,0,1.3,0.6,1.3,1.3V7.7z"/>
    <path d="M13.5,9.7c-0.3,0-0.5,0.2-0.5,0.5l-0.1,1.5c-0.1,0.8-0.7,1.3-1.4,1.3H4.5c-0.7,0-1.4-0.6-1.4-1.3L3,10.1 c0-0.3-0.3-0.5-0.5-0.5C2.2,9.7,2,9.9,2,10.2l0.1,1.5C2.2,13,3.3,14,4.5,14h6.9c1.3,0,2.3-1,2.4-2.3l0.1-1.5 C14,9.9,13.8,9.7,13.5,9.7z"/>
  </symbol>
  <symbol id="location" viewBox="0 0 16 16">
    <path d="M8,4.6c-1.5,0-2.6,1.2-2.6,2.6S6.5,9.9,8,9.9s2.6-1.2,2.6-2.6S9.5,4.6,8,4.6z M8,8.9c-0.9,0-1.6-0.7-1.6-1.6 c0-0.9,0.7-1.6,1.6-1.6s1.6,0.7,1.6,1.6C9.6,8.2,8.9,8.9,8,8.9z"/>
    <path d="M8,1.8c-3,0-5.5,2.5-5.5,5.5c0,1.9,0.9,3.4,2,4.5c1.1,1.1,2.3,1.8,2.9,2.1c0.4,0.2,0.9,0.2,1.3,0c0.6-0.3,1.8-1,2.9-2.1 c1.1-1.1,2-2.6,2-4.5C13.5,4.3,11,1.8,8,1.8z M10.8,11.1c-1,1-2.1,1.7-2.6,2c-0.1,0.1-0.2,0.1-0.3,0c-0.6-0.3-1.7-1-2.6-2 c-1-1-1.7-2.3-1.7-3.8c0-2.5,2-4.5,4.5-4.5s4.5,2,4.5,4.5C12.5,8.8,11.7,10.1,10.8,11.1z"/>
  </symbol>
  <symbol id="calendar" viewBox="0 0 24 24">
    <path d="M19.5,5h-2.1V4.5c0-0.3-0.2-0.5-0.5-0.5s-0.5,0.2-0.5,0.5V5H8.1V4.5C8.1,4.2,7.9,4,7.6,4S7.1,4.2,7.1,4.5V5H5 C4.2,5,3.5,5.7,3.5,6.5V19c0,0.8,0.7,1.5,1.5,1.5h14.5c0.8,0,1.5-0.7,1.5-1.5V6.5C21,5.7,20.3,5,19.5,5z M5,6h2.1v0.5 c0,0.3,0.2,0.5,0.5,0.5s0.5-0.2,0.5-0.5V6h8.3v0.5c0,0.3,0.2,0.5,0.5,0.5s0.5-0.2,0.5-0.5V6h2.1C19.7,6,20,6.3,20,6.5v3.1H4.5V6.5 C4.5,6.3,4.7,6,5,6z M19.5,19.5H5c-0.3,0-0.5-0.2-0.5-0.5v-8.3H20V19C20,19.2,19.7,19.5,19.5,19.5z" />
  </symbol>
  <symbol id="create" viewBox="0 0 16 16">
    <path d="M13.9,4.9l-3.6-3.7C10.2,1.1,10.1,1,9.9,1H5.2c0,0,0,0,0,0C3.5,1,2,2.4,2,4.1v7.6C2,13.5,3.4,15,5.2,15h5.7 c1.8-0.1,3.1-1.5,3.1-3.3V5.2C14,5.1,14,5,13.9,4.9z M12.5,4.9h-0.9c-0.7,0-1.3-0.6-1.3-1.3v-1L12.5,4.9z M10.9,14H5.2 C3.9,14,3,13,3,11.7V4.2C3,3,4,2,5.2,2c0,0,0,0,0,0h4v1.6c0,1.3,1,2.3,2.3,2.3H13v5.9C13,13,12.1,13.9,10.9,14z"/>
    <path d="M9.6,9.9H5.8c-0.3,0-0.5,0.2-0.5,0.5s0.2,0.5,0.5,0.5h3.8c0.3,0,0.5-0.2,0.5-0.5S9.9,9.9,9.6,9.9z"/>
    <path d="M5.8,8.3h2.4c0.3,0,0.5-0.2,0.5-0.5S8.4,7.3,8.2,7.3H5.8c-0.3,0-0.5,0.2-0.5,0.5S5.5,8.3,5.8,8.3z"/>
  </symbol>
  <symbol id="application" viewBox="0 0 16 16">
    <path d="M13.9,4.9l-3.6-3.7C10.2,1.1,10.1,1,9.9,1H5.2c0,0,0,0,0,0C3.5,1,2,2.4,2,4.1v7.6C2,13.5,3.4,15,5.2,15h5.7 c1.8-0.1,3.1-1.5,3.1-3.3V5.2C14,5.1,14,5,13.9,4.9z M12.5,4.9h-0.9c-0.7,0-1.3-0.6-1.3-1.3v-1L12.5,4.9z M10.9,14H5.2 C3.9,14,3,13,3,11.7V4.2C3,3,4,2,5.2,2c0,0,0,0,0,0h4v1.6c0,1.3,1,2.3,2.3,2.3H13v5.9C13,13,12.1,13.9,10.9,14z"/>
  </symbol>
  <symbol id="new-candidate" viewBox="0 0 16 16">
    <path d="M14.7826 3.26359C15.1313 2.69123 15.0606 1.93115 14.5705 1.43492C14.0757 0.933932 13.3153 0.865765 12.7483 1.23041C13.2123 2.09277 13.9198 2.79999 14.7826 3.26359Z"/>
    <path d="M11.8171 2.11829L6.78472 7.18C7.77457 7.47517 8.57699 8.21908 8.95006 9.18198L13.9064 4.20208C13.0535 3.68436 12.3369 2.9696 11.8171 2.11829Z"/>
    <path d="M7.91486 10.1761C7.80538 9.1186 6.91913 8.30487 5.8592 8.29183C5.53827 8.92804 5.21105 9.90848 5.01729 10.5311C4.93355 10.8002 5.16675 11.0527 5.44262 10.9905C6.16831 10.8268 7.36057 10.5217 7.91486 10.1761Z"/>
    <path d="M4.75 2C2.67893 2 1 3.67893 1 5.75V11.25C1 13.3211 2.67893 15 4.75 15H10.2501C12.3212 15 14.0001 13.3211 14.0001 11.25V8C14.0001 7.58579 13.6643 7.25 13.2501 7.25C12.8359 7.25 12.5001 7.58579 12.5001 8V11.25C12.5001 12.4926 11.4927 13.5 10.2501 13.5H4.75C3.50736 13.5 2.5 12.4926 2.5 11.25V5.75C2.5 4.50736 3.50736 3.5 4.75 3.5H7C7.41421 3.5 7.75 3.16421 7.75 2.75C7.75 2.33579 7.41421 2 7 2H4.75Z"/>
  </symbol>
    <symbol id="skills" viewBox="0 0 24 24">
    <path d="M22.8,8.7c0-0.3-0.2-0.6-0.5-0.7L11.8,3.8c-0.2-0.1-0.4-0.1-0.6,0L0.7,8C0.4,8.1,0.2,8.4,0.2,8.7 s0.2,0.6,0.5,0.7L5,11.1v6c0,0.2,0.1,0.4,0.2,0.5l0.5-0.5c-0.5,0.5-0.5,0.5-0.5,0.5l0,0l0,0l0,0l0,0c0,0,0.1,0.1,0.1,0.1 c0.1,0.1,0.2,0.2,0.3,0.3C6,18.3,6.5,18.6,7,19c1.1,0.6,2.7,1.3,4.5,1.3c1.8,0,3.4-0.7,4.5-1.3c0.5-0.3,1-0.6,1.3-0.9 c0.2-0.1,0.3-0.2,0.3-0.3c0,0,0.1-0.1,0.1-0.1l0,0l0,0l0,0l0,0l-0.5-0.5c0.5,0.5,0.5,0.5,0.5,0.5c0.1-0.1,0.2-0.3,0.2-0.5v-6 l3.3-1.3v3.6c0,0.4,0.3,0.8,0.8,0.8c0.4,0,0.8-0.3,0.8-0.8L22.8,8.7C22.8,8.7,22.8,8.7,22.8,8.7C22.8,8.7,22.8,8.7,22.8,8.7z M16.5,16.8c0,0-0.1,0.1-0.1,0.1c-0.3,0.2-0.6,0.5-1.1,0.8c-0.9,0.6-2.2,1.1-3.7,1.1c-1.5,0-2.8-0.5-3.7-1.1 c-0.5-0.3-0.8-0.5-1.1-0.8c-0.1,0-0.1-0.1-0.1-0.1v-5.1l4.7,1.9c0.2,0.1,0.4,0.1,0.6,0l4.7-1.9V16.8z M11.5,12.1L3,8.7l8.5-3.4 L20,8.7L11.5,12.1z" />
  </symbol>
</svg>
