<svg xmlns="http://www.w3.org/2000/svg" style="display: none;">
  <symbol id="recruitment" viewBox="0 0 32 32">
    <path fill-rule="evenodd" clip-rule="evenodd" d="M4 5C4 4.44772 4.44772 4 5 4H11C11.5523 4 12 4.44772 12 5V7.58579L13.4142 9C13.7893 9.37507 14 9.88378 14 10.4142V12H19V10.4142C19 9.88378 19.2107 9.37507 19.5858 9L21 7.58579V5C21 4.44772 21.4477 4 22 4H28C28.5523 4 29 4.44772 29 5V7.58579L30.4142 9C30.7893 9.37507 31 9.88378 31 10.4142V23C31 23.5523 30.5523 24 30 24V26C30.5523 26 31 26.4477 31 27C31 27.5523 30.5523 28 30 28H20C19.4477 28 19 27.5523 19 27C19 26.4477 19.4477 26 20 26V24C19.4477 24 19 23.5523 19 23V20H14V23C14 23.5523 13.5523 24 13 24V26C13.5523 26 14 26.4477 14 27C14 27.5523 13.5523 28 13 28H3C2.44772 28 2 27.5523 2 27C2 26.4477 2.44772 26 3 26V24C2.44772 24 2 23.5523 2 23V10.4142C2 9.88378 2.21071 9.37507 2.58579 9L4 7.58579V5ZM5 24V26H11V24H5ZM12 22V10.4142L10.5858 9C10.2107 8.62493 10 8.11622 10 7.58579V6H6V7.58579C6 8.11622 5.78929 8.62493 5.41421 9L4 10.4142L4 22H12ZM14 14V18H19V14H14ZM21 22H29V10.4142L27.5858 9C27.2107 8.62493 27 8.11622 27 7.58579V6H23V7.58579C23 8.11622 22.7893 8.62493 22.4142 9L21 10.4142V22ZM28 24H22V26H28V24Z" />
  </symbol>
  <symbol id="vacancy" viewBox="0 0 32 32">
    <path fill-rule="evenodd" clip-rule="evenodd" d="M14 6C13.4477 6 13 6.44772 13 7V8H19V7C19 6.44772 18.5523 6 18 6H14ZM21 8V7C21 5.34315 19.6569 4 18 4H14C12.3431 4 11 5.34315 11 7V8H6C3.79086 8 2 9.79086 2 12V24C2 26.2091 3.79086 28 6 28H26C28.2091 28 30 26.2091 30 24V12C30 9.79086 28.2091 8 26 8H21ZM6 10C4.89543 10 4 10.8954 4 12V16H28V12C28 10.8954 27.1046 10 26 10H6ZM28 18H17V19C17 19.5523 16.5523 20 16 20C15.4477 20 15 19.5523 15 19V18H4V24C4 25.1046 4.89543 26 6 26H26C27.1046 26 28 25.1046 28 24V18Z" />
  </symbol>
  <symbol id="location" viewBox="0 0 16 16">
    <path d="M8,4.6c-1.5,0-2.6,1.2-2.6,2.6S6.5,9.9,8,9.9s2.6-1.2,2.6-2.6S9.5,4.6,8,4.6z M8,8.9c-0.9,0-1.6-0.7-1.6-1.6 c0-0.9,0.7-1.6,1.6-1.6s1.6,0.7,1.6,1.6C9.6,8.2,8.9,8.9,8,8.9z"/>
    <path d="M8,1.8c-3,0-5.5,2.5-5.5,5.5c0,1.9,0.9,3.4,2,4.5c1.1,1.1,2.3,1.8,2.9,2.1c0.4,0.2,0.9,0.2,1.3,0c0.6-0.3,1.8-1,2.9-2.1 c1.1-1.1,2-2.6,2-4.5C13.5,4.3,11,1.8,8,1.8z M10.8,11.1c-1,1-2.1,1.7-2.6,2c-0.1,0.1-0.2,0.1-0.3,0c-0.6-0.3-1.7-1-2.6-2 c-1-1-1.7-2.3-1.7-3.8c0-2.5,2-4.5,4.5-4.5s4.5,2,4.5,4.5C12.5,8.8,11.7,10.1,10.8,11.1z"/>
  </symbol>
  <symbol id="calendar" viewBox="0 0 24 24">
    <path d="M19.5,5h-2.1V4.5c0-0.3-0.2-0.5-0.5-0.5s-0.5,0.2-0.5,0.5V5H8.1V4.5C8.1,4.2,7.9,4,7.6,4S7.1,4.2,7.1,4.5V5H5 C4.2,5,3.5,5.7,3.5,6.5V19c0,0.8,0.7,1.5,1.5,1.5h14.5c0.8,0,1.5-0.7,1.5-1.5V6.5C21,5.7,20.3,5,19.5,5z M5,6h2.1v0.5 c0,0.3,0.2,0.5,0.5,0.5s0.5-0.2,0.5-0.5V6h8.3v0.5c0,0.3,0.2,0.5,0.5,0.5s0.5-0.2,0.5-0.5V6h2.1C19.7,6,20,6.3,20,6.5v3.1H4.5V6.5 C4.5,6.3,4.7,6,5,6z M19.5,19.5H5c-0.3,0-0.5-0.2-0.5-0.5v-8.3H20V19C20,19.2,19.7,19.5,19.5,19.5z" />
  </symbol>
  <symbol id="create" viewBox="0 0 16 16">
    <path d="M13.9,4.9l-3.6-3.7C10.2,1.1,10.1,1,9.9,1H5.2c0,0,0,0,0,0C3.5,1,2,2.4,2,4.1v7.6C2,13.5,3.4,15,5.2,15h5.7 c1.8-0.1,3.1-1.5,3.1-3.3V5.2C14,5.1,14,5,13.9,4.9z M12.5,4.9h-0.9c-0.7,0-1.3-0.6-1.3-1.3v-1L12.5,4.9z M10.9,14H5.2 C3.9,14,3,13,3,11.7V4.2C3,3,4,2,5.2,2c0,0,0,0,0,0h4v1.6c0,1.3,1,2.3,2.3,2.3H13v5.9C13,13,12.1,13.9,10.9,14z"/>
    <path d="M9.6,9.9H5.8c-0.3,0-0.5,0.2-0.5,0.5s0.2,0.5,0.5,0.5h3.8c0.3,0,0.5-0.2,0.5-0.5S9.9,9.9,9.6,9.9z"/>
    <path d="M5.8,8.3h2.4c0.3,0,0.5-0.2,0.5-0.5S8.4,7.3,8.2,7.3H5.8c-0.3,0-0.5,0.2-0.5,0.5S5.5,8.3,5.8,8.3z"/>
  </symbol>
  <symbol id="application" viewBox="0 0 24 24">
    <path d="M12,10.8c2.6,0,4.8-2.1,4.8-4.8S14.6,1.2,12,1.2C9.4,1.2,7.2,3.4,7.2,6S9.4,10.8,12,10.8z M12,2.8 c1.8,0,3.2,1.5,3.2,3.2S13.8,9.2,12,9.2S8.8,7.8,8.8,6S10.2,2.8,12,2.8z" />
    <path d="M12,12.2c-5.4,0-9.8,4.4-9.8,9.8c0,0.4,0.3,0.8,0.8,0.8s0.8-0.3,0.8-0.8c0-4.2,3.1-7.7,7.2-8.2l-1.7,5.5 c-0.1,0.2,0,0.5,0.1,0.7l2,2.5c0.1,0.2,0.4,0.3,0.6,0.3s0.4-0.1,0.6-0.3l2-2.5c0.2-0.2,0.2-0.5,0.1-0.7L13,13.8 c4.1,0.5,7.2,4,7.2,8.2c0,0.4,0.3,0.8,0.8,0.8s0.8-0.3,0.8-0.8C21.8,16.6,17.4,12.2,12,12.2z M12,20.8l-1.2-1.5l1.2-3.8l1.2,3.8 L12,20.8z" />
  </symbol>
  <symbol id="new-candidate" viewBox="0 0 16 16">
    <path d="M14.7826 3.26359C15.1313 2.69123 15.0606 1.93115 14.5705 1.43492C14.0757 0.933932 13.3153 0.865765 12.7483 1.23041C13.2123 2.09277 13.9198 2.79999 14.7826 3.26359Z"/>
    <path d="M11.8171 2.11829L6.78472 7.18C7.77457 7.47517 8.57699 8.21908 8.95006 9.18198L13.9064 4.20208C13.0535 3.68436 12.3369 2.9696 11.8171 2.11829Z"/>
    <path d="M7.91486 10.1761C7.80538 9.1186 6.91913 8.30487 5.8592 8.29183C5.53827 8.92804 5.21105 9.90848 5.01729 10.5311C4.93355 10.8002 5.16675 11.0527 5.44262 10.9905C6.16831 10.8268 7.36057 10.5217 7.91486 10.1761Z"/>
    <path d="M4.75 2C2.67893 2 1 3.67893 1 5.75V11.25C1 13.3211 2.67893 15 4.75 15H10.2501C12.3212 15 14.0001 13.3211 14.0001 11.25V8C14.0001 7.58579 13.6643 7.25 13.2501 7.25C12.8359 7.25 12.5001 7.58579 12.5001 8V11.25C12.5001 12.4926 11.4927 13.5 10.2501 13.5H4.75C3.50736 13.5 2.5 12.4926 2.5 11.25V5.75C2.5 4.50736 3.50736 3.5 4.75 3.5H7C7.41421 3.5 7.75 3.16421 7.75 2.75C7.75 2.33579 7.41421 2 7 2H4.75Z"/>
  </symbol>
  <symbol id="assignedToMe" viewBox="0 0 32 32">
    <path fill-rule="evenodd" clip-rule="evenodd" d="M24 6H8C6.89543 6 6 6.89543 6 8V24C6 25.1046 6.89543 26 8 26H24C25.1046 26 26 25.1046 26 24V8C26 6.89543 25.1046 6 24 6ZM8 4C5.79086 4 4 5.79086 4 8V24C4 26.2091 5.79086 28 8 28H24C26.2091 28 28 26.2091 28 24V8C28 5.79086 26.2091 4 24 4H8Z" />
    <path fill-rule="evenodd" clip-rule="evenodd" d="M23.7071 10.2929C24.0976 10.6834 24.0976 11.3166 23.7071 11.7071L14.7071 20.7071C14.3166 21.0976 13.6834 21.0976 13.2929 20.7071L9.29289 16.7071C8.90237 16.3166 8.90237 15.6834 9.29289 15.2929C9.68342 14.9024 10.3166 14.9024 10.7071 15.2929L14 18.5858L22.2929 10.2929C22.6834 9.90237 23.3166 9.90237 23.7071 10.2929Z" />
  </symbol>
  <symbol id="review" viewBox="0 0 24 24">
    <path d="M22,10.2h-3.2V3c0-0.4-0.3-0.8-0.8-0.8H2C1.6,2.2,1.2,2.6,1.2,3v12c0,0.4,0.3,0.8,0.8,0.8h2.2L6,17.5 c0.3,0.3,0.8,0.3,1.1,0l1.8-1.8h1.4V19c0,0.4,0.3,0.8,0.8,0.8h5.2l1.3,1.3c0.3,0.3,0.8,0.3,1.1,0l1.3-1.3H22c0.4,0,0.8-0.3,0.8-0.8 v-8C22.8,10.6,22.4,10.2,22,10.2z M8.5,14.2c-0.2,0-0.4,0.1-0.5,0.2l-1.5,1.5L5,14.5c-0.1-0.1-0.3-0.2-0.5-0.2H2.8V3.8h14.5V11v3.2 H11H8.5z M21.2,18.2h-1.8c-0.2,0-0.4,0.1-0.5,0.2l-1,1l-1-1c-0.1-0.1-0.3-0.2-0.5-0.2h-4.8v-2.5H18c0.4,0,0.8-0.3,0.8-0.8v-3.2h2.5 V18.2z" />
    <path d="M9,10.2H6c-0.4,0-0.8,0.3-0.8,0.8s0.3,0.8,0.8,0.8h3c0.4,0,0.8-0.3,0.8-0.8S9.4,10.2,9,10.2z" />
    <path d="M6,7.8h6c0.4,0,0.8-0.3,0.8-0.8S12.4,6.2,12,6.2H6C5.6,6.2,5.2,6.6,5.2,7S5.6,7.8,6,7.8z" />
  </symbol>
  <symbol id="reviews" viewBox="0 0 24 24">
    <path d="M17.2,11c0-0.4,0.3-0.8,0.8-0.8h4c0.4,0,0.8,0.3,0.8,0.8v8c0,0.4-0.3,0.8-0.8,0.8h-2.2L18.5,21 c-0.3,0.3-0.8,0.3-1.1,0l-1.3-1.3H11c-0.4,0-0.8-0.3-0.8-0.8v-4c0-0.4,0.3-0.8,0.8-0.8h6.2V11z M18.8,11.8V15c0,0.4-0.3,0.8-0.8,0.8 h-6.2v2.5h4.8c0.2,0,0.4,0.1,0.5,0.2l1,1l1-1c0.1-0.1,0.3-0.2,0.5-0.2h1.8v-6.5H18.8z" />
    <path d="M1.2,3c0-0.4,0.3-0.8,0.8-0.8h16c0.4,0,0.8,0.3,0.8,0.8v12c0,0.4-0.3,0.8-0.8,0.8H8.8L7,17.5 c-0.3,0.3-0.8,0.3-1.1,0l-1.8-1.8H2c-0.4,0-0.8-0.3-0.8-0.8V3z M2.8,3.8v10.5h1.8c0.2,0,0.4,0.1,0.5,0.2l1.5,1.5L8,14.5 c0.1-0.1,0.3-0.2,0.5-0.2h8.8V3.8H2.8z" />
    <path d="M14.2,7.7c-0.2-0.3-0.6-0.5-1-0.4h-1.7V6.4c0-0.9-0.7-1.7-1.7-1.7C9.7,4.7,9.5,4.8,9.4,5L8.1,8H7.4C6.7,8,6.1,8.5,6,9.3 l0,2.7L6,12c0.1,0.7,0.7,1.2,1.4,1.2c0,0,0,0,0,0h5.3c0,0,0,0,0,0c0.6,0,1.2-0.5,1.3-1.1l0.5-3.3C14.6,8.4,14.5,8,14.2,7.7z M11,8.4 h2.2c0,0,0.1,0,0.1,0.1s0,0.1,0,0.1l-0.5,3.3v0c0,0.1-0.1,0.2-0.2,0.2c0,0,0,0,0,0H9V8.7l1.2-2.8c0.1,0.1,0.2,0.3,0.2,0.4v1.5 C10.4,8.2,10.7,8.4,11,8.4z M7.1,11.9l0-2.5c0-0.2,0.2-0.3,0.3-0.3c0,0,0,0,0,0h0.4v3H7.4C7.3,12.1,7.1,12,7.1,11.9z" />
  </symbol>
  <symbol id="opinion" viewBox="0 0 24 24">
    <path d="M22,3.2H2C1.6,3.2,1.2,3.6,1.2,4v15c0,0.4,0.3,0.8,0.8,0.8h7.2l2.3,2.3c0.3,0.3,0.8,0.3,1.1,0l2.3-2.3H22 c0.4,0,0.8-0.3,0.8-0.8V4C22.8,3.6,22.4,3.2,22,3.2z M21.2,18.2h-6.8c-0.2,0-0.4,0.1-0.5,0.2l-2,2l-2-2c-0.1-0.1-0.3-0.2-0.5-0.2 H2.8V4.8h18.5V18.2z" />
    <path d="M7.5,16.8c0.4,0,0.8-0.3,0.8-0.8c0-1.7,1.6-3.2,3.8-3.2c2.2,0,3.8,1.5,3.8,3.2c0,0.4,0.3,0.8,0.8,0.8 s0.8-0.3,0.8-0.8c0-1.9-1.2-3.5-2.9-4.2c0.6-0.6,0.9-1.4,0.9-2.3c0-1.8-1.5-3.2-3.2-3.2S8.8,7.7,8.8,9.5c0,0.9,0.4,1.7,0.9,2.3 C8,12.5,6.8,14.1,6.8,16C6.8,16.4,7.1,16.8,7.5,16.8z M10.2,9.5c0-1,0.8-1.8,1.8-1.8s1.8,0.8,1.8,1.8S13,11.2,12,11.2 S10.2,10.5,10.2,9.5z" />
  </symbol>
  <symbol id="skills" viewBox="0 0 32 32">
    <path fill-rule="evenodd" clip-rule="evenodd" d="M14.9518 2.30278C15.5946 1.8994 16.4054 1.8994 17.0482 2.30278L29.5241 10.1318C29.8198 10.3174 30 10.6461 30 11.0002V16.0002C30 16.5525 29.5523 17.0002 29 17.0002C28.4477 17.0002 28 16.5525 28 16.0002V12.8251L26 14.0802V22.0002C26 23.909 24.6192 25.4268 22.8496 26.4099C21.0462 27.4118 18.6225 28.0002 16 28.0002C13.3775 28.0002 10.9538 27.4118 9.1504 26.4099C7.38084 25.4268 6 23.909 6 22.0002V14.0802L2.4759 11.8687C2.18016 11.6831 2 11.3544 2 11.0002C2 10.6461 2.18016 10.3174 2.4759 10.1318L14.9518 2.30278ZM8 15.3352V22.0002C8 22.8529 8.63388 23.8351 10.1217 24.6616C11.5756 25.4694 13.6519 26.0002 16 26.0002C18.3481 26.0002 20.4244 25.4694 21.8783 24.6616C23.3661 23.8351 24 22.8529 24 22.0002V15.3352L17.0482 19.6977C16.4054 20.1011 15.5946 20.1011 14.9518 19.6977L8 15.3352ZM4.90804 11.0002L16 17.9608L27.092 11.0002L16 4.03971L4.90804 11.0002Z" />
  </symbol>
  <symbol id="issue" viewBox="0 0 16 16">
    <path d="M13.3,8.3c-0.1,2.8-2.5,5.1-5.4,5.1C5,13.4,2.6,11,2.6,8c0-2.9,2.3-5.2,5.1-5.4c0.1-0.4,0.2-0.7,0.4-1c0,0-0.1,0-0.1,0 C4.4,1.7,1.6,4.5,1.6,8c0,3.5,2.9,6.4,6.4,6.4s6.4-2.9,6.4-6.4c0,0,0-0.1,0-0.1C14,8.1,13.7,8.2,13.3,8.3z"/>
    <ellipse cx="12.1" cy="3.9" rx="2.5" ry="2.5"/>
  </symbol>
  <symbol id="schedule" viewBox="0 0 16 16">
    <path d="M8 4C8 3.72386 7.77614 3.5 7.5 3.5C7.22386 3.5 7 3.72386 7 4V8.5C7 8.77614 7.22386 9 7.5 9H10.5C10.7761 9 11 8.77614 11 8.5C11 8.22386 10.7761 8 10.5 8L8 8V4Z" />
    <path fill-rule="evenodd" clip-rule="evenodd" d="M15 8C15 11.866 11.866 15 8 15C4.13401 15 1 11.866 1 8C1 4.13401 4.13401 1 8 1C11.866 1 15 4.13401 15 8ZM14 8C14 11.3137 11.3137 14 8 14C4.68629 14 2 11.3137 2 8C2 4.68629 4.68629 2 8 2C11.3137 2 14 4.68629 14 8Z" />
  </symbol>
  <symbol id="talents" viewBox="0 0 32 32">
    <path fill-rule="evenodd" clip-rule="evenodd" d="M4 11.0002C4 7.13425 7.13401 4.00024 11 4.00024C14.866 4.00024 18 7.13425 18 11.0002C18 14.8662 14.866 18.0002 11 18.0002C7.13401 18.0002 4 14.8662 4 11.0002ZM11 6.00024C8.23858 6.00024 6 8.23882 6 11.0002C6 13.7617 8.23858 16.0002 11 16.0002C13.7614 16.0002 16 13.7617 16 11.0002C16 8.23882 13.7614 6.00024 11 6.00024Z" />
    <path d="M21 20.0002C20.4477 20.0002 20 20.448 20 21.0002C20 21.5525 20.4477 22.0002 21 22.0002H23C25.7614 22.0002 28 24.2388 28 27.0002C28 27.5525 28.4477 28.0002 29 28.0002C29.5523 28.0002 30 27.5525 30 27.0002C30 23.1343 26.866 20.0002 23 20.0002H21Z" />
    <path d="M9 22.0002C6.23858 22.0002 4 24.2388 4 27.0002C4 27.5525 3.55228 28.0002 3 28.0002C2.44772 28.0002 2 27.5525 2 27.0002C2 23.1343 5.13401 20.0002 9 20.0002H13C16.866 20.0002 20 23.1343 20 27.0002C20 27.5525 19.5523 28.0002 19 28.0002C18.4477 28.0002 18 27.5525 18 27.0002C18 24.2388 15.7614 22.0002 13 22.0002H9Z" />
    <path d="M20.9999 6C20.4476 6 19.9999 6.44772 19.9999 7C19.9999 7.55228 20.4476 8 20.9999 8C21.5693 8 22.1321 8.12156 22.6507 8.35654C23.1694 8.59153 23.6318 8.93453 24.0073 9.36262C24.3827 9.7907 24.6624 10.294 24.8277 10.8389C24.993 11.3837 25.04 11.9576 24.9657 12.5221C24.8914 13.0866 24.6974 13.6288 24.3967 14.1123C24.096 14.5958 23.6956 15.0095 23.2222 15.3259C22.7488 15.6422 22.2133 15.8538 21.6515 15.9466C21.0897 16.0393 20.5146 16.0111 19.9646 15.8637C19.4312 15.7208 18.8828 16.0373 18.7399 16.5708C18.5969 17.1043 18.9135 17.6526 19.447 17.7956C20.272 18.0166 21.1346 18.059 21.9773 17.9199C22.8199 17.7807 23.6232 17.4633 24.3333 16.9888C25.0435 16.5143 25.6441 15.8937 26.0951 15.1684C26.5461 14.4431 26.8371 13.6299 26.9486 12.7832C27.0601 11.9364 26.9895 11.0756 26.7416 10.2583C26.4936 9.441 26.0741 8.68605 25.5109 8.04392C24.9478 7.4018 24.2541 6.8873 23.4762 6.53482C22.6982 6.18234 21.854 6 20.9999 6Z" />
  </symbol>
</svg>
