<svg xmlns="http://www.w3.org/2000/svg" style="display: none;">
  <symbol id="recruitment" viewBox="0 0 32 32">
    <path fill-rule="evenodd" clip-rule="evenodd" d="M24 10C24 14.4183 20.4183 18 16 18C11.5817 18 8 14.4183 8 10C8 5.58172 11.5817 2 16 2C20.4183 2 24 5.58172 24 10ZM22 10C22 13.3137 19.3137 16 16 16C12.6863 16 10 13.3137 10 10C10 6.68629 12.6863 4 16 4C19.3137 4 22 6.68629 22 10Z" />
    <path d="M6 27C6 23.134 9.13401 20 13 20H17C17.5523 20 18 20.4477 18 21C18 21.5523 17.5523 22 17 22H13C10.2386 22 8 24.2386 8 27V29C8 29.5523 7.55228 30 7 30C6.44772 30 6 29.5523 6 29V27Z" />
    <path fill-rule="evenodd" clip-rule="evenodd" d="M21 22.5C21 20.0147 23.0147 18 25.5 18C27.9853 18 30 20.0147 30 22.5C30 24.9853 27.9853 27 25.5 27C24.8828 27 24.2947 26.8758 23.7592 26.6509C23.7427 26.6701 23.7253 26.6889 23.7071 26.7071L20.7071 29.7071C20.3166 30.0976 19.6834 30.0976 19.2929 29.7071C18.9024 29.3166 18.9024 28.6834 19.2929 28.2929L22.1176 25.4682C21.4219 24.6759 21 23.6372 21 22.5ZM25.5 20C24.1193 20 23 21.1193 23 22.5C23 23.8807 24.1193 25 25.5 25C26.8807 25 28 23.8807 28 22.5C28 21.1193 26.8807 20 25.5 20Z" />
  </symbol>
  <symbol id="vacancy" viewBox="0 0 32 32">
    <path fill-rule="evenodd" clip-rule="evenodd" d="M14 6C13.4477 6 13 6.44772 13 7V8H19V7C19 6.44772 18.5523 6 18 6H14ZM21 8V7C21 5.34315 19.6569 4 18 4H14C12.3431 4 11 5.34315 11 7V8H6C3.79086 8 2 9.79086 2 12V24C2 26.2091 3.79086 28 6 28H26C28.2091 28 30 26.2091 30 24V12C30 9.79086 28.2091 8 26 8H21ZM6 10C4.89543 10 4 10.8954 4 12V16H28V12C28 10.8954 27.1046 10 26 10H6ZM28 18H17V19C17 19.5523 16.5523 20 16 20C15.4477 20 15 19.5523 15 19V18H4V24C4 25.1046 4.89543 26 6 26H26C27.1046 26 28 25.1046 28 24V18Z" />
  </symbol>
  <symbol id="location" viewBox="0 0 16 16">
    <path d="M8,4.6c-1.5,0-2.6,1.2-2.6,2.6S6.5,9.9,8,9.9s2.6-1.2,2.6-2.6S9.5,4.6,8,4.6z M8,8.9c-0.9,0-1.6-0.7-1.6-1.6 c0-0.9,0.7-1.6,1.6-1.6s1.6,0.7,1.6,1.6C9.6,8.2,8.9,8.9,8,8.9z"/>
    <path d="M8,1.8c-3,0-5.5,2.5-5.5,5.5c0,1.9,0.9,3.4,2,4.5c1.1,1.1,2.3,1.8,2.9,2.1c0.4,0.2,0.9,0.2,1.3,0c0.6-0.3,1.8-1,2.9-2.1 c1.1-1.1,2-2.6,2-4.5C13.5,4.3,11,1.8,8,1.8z M10.8,11.1c-1,1-2.1,1.7-2.6,2c-0.1,0.1-0.2,0.1-0.3,0c-0.6-0.3-1.7-1-2.6-2 c-1-1-1.7-2.3-1.7-3.8c0-2.5,2-4.5,4.5-4.5s4.5,2,4.5,4.5C12.5,8.8,11.7,10.1,10.8,11.1z"/>
  </symbol>
  <symbol id="calendar" viewBox="0 0 24 24">
    <path d="M19.5,5h-2.1V4.5c0-0.3-0.2-0.5-0.5-0.5s-0.5,0.2-0.5,0.5V5H8.1V4.5C8.1,4.2,7.9,4,7.6,4S7.1,4.2,7.1,4.5V5H5 C4.2,5,3.5,5.7,3.5,6.5V19c0,0.8,0.7,1.5,1.5,1.5h14.5c0.8,0,1.5-0.7,1.5-1.5V6.5C21,5.7,20.3,5,19.5,5z M5,6h2.1v0.5 c0,0.3,0.2,0.5,0.5,0.5s0.5-0.2,0.5-0.5V6h8.3v0.5c0,0.3,0.2,0.5,0.5,0.5s0.5-0.2,0.5-0.5V6h2.1C19.7,6,20,6.3,20,6.5v3.1H4.5V6.5 C4.5,6.3,4.7,6,5,6z M19.5,19.5H5c-0.3,0-0.5-0.2-0.5-0.5v-8.3H20V19C20,19.2,19.7,19.5,19.5,19.5z" />
  </symbol>
  <symbol id="create" viewBox="0 0 16 16">
    <path d="M13.9,4.9l-3.6-3.7C10.2,1.1,10.1,1,9.9,1H5.2c0,0,0,0,0,0C3.5,1,2,2.4,2,4.1v7.6C2,13.5,3.4,15,5.2,15h5.7 c1.8-0.1,3.1-1.5,3.1-3.3V5.2C14,5.1,14,5,13.9,4.9z M12.5,4.9h-0.9c-0.7,0-1.3-0.6-1.3-1.3v-1L12.5,4.9z M10.9,14H5.2 C3.9,14,3,13,3,11.7V4.2C3,3,4,2,5.2,2c0,0,0,0,0,0h4v1.6c0,1.3,1,2.3,2.3,2.3H13v5.9C13,13,12.1,13.9,10.9,14z"/>
    <path d="M9.6,9.9H5.8c-0.3,0-0.5,0.2-0.5,0.5s0.2,0.5,0.5,0.5h3.8c0.3,0,0.5-0.2,0.5-0.5S9.9,9.9,9.6,9.9z"/>
    <path d="M5.8,8.3h2.4c0.3,0,0.5-0.2,0.5-0.5S8.4,7.3,8.2,7.3H5.8c-0.3,0-0.5,0.2-0.5,0.5S5.5,8.3,5.8,8.3z"/>
  </symbol>
  <symbol id="application" viewBox="0 0 32 32">
    <path fill-rule="evenodd" clip-rule="evenodd" d="M14.2223 16.3259C13.5645 16.7654 12.7911 17 12 17C10.9391 17 9.92172 16.5786 9.17157 15.8284C8.42143 15.0783 8 14.0609 8 13C8 12.2089 8.2346 11.4355 8.67412 10.7777C9.11365 10.1199 9.73836 9.60723 10.4693 9.30448C11.2002 9.00173 12.0044 8.92252 12.7804 9.07686C13.5563 9.2312 14.269 9.61216 14.8284 10.1716C15.3878 10.731 15.7688 11.4437 15.9231 12.2196C16.0775 12.9956 15.9983 13.7998 15.6955 14.5307C15.3928 15.2616 14.8801 15.8864 14.2223 16.3259ZM13.1111 11.3371C12.7822 11.1173 12.3956 11 12 11C11.4696 11 10.9609 11.2107 10.5858 11.5858C10.2107 11.9609 10 12.4696 10 13C10 13.3956 10.1173 13.7822 10.3371 14.1111C10.5568 14.44 10.8692 14.6964 11.2346 14.8478C11.6001 14.9991 12.0022 15.0387 12.3902 14.9616C12.7781 14.8844 13.1345 14.6939 13.4142 14.4142C13.6939 14.1345 13.8844 13.7781 13.9616 13.3902C14.0387 13.0022 13.9991 12.6001 13.8478 12.2346C13.6964 11.8692 13.44 11.5568 13.1111 11.3371Z" />
    <path d="M20 10C19.4477 10 19 10.4477 19 11C19 11.5523 19.4477 12 20 12H25C25.5523 12 26 11.5523 26 11C26 10.4477 25.5523 10 25 10H20Z" />
    <path d="M10 20C8.89543 20 8 20.8954 8 22V23C8 23.5523 7.55229 24 7 24C6.44771 24 6 23.5523 6 23V22C6 19.7909 7.79086 18 10 18H14C16.2091 18 18 19.7909 18 22V23C18 23.5523 17.5523 24 17 24C16.4477 24 16 23.5523 16 23V22C16 20.8954 15.1046 20 14 20H10Z" />
    <path d="M20 14C19.4477 14 19 14.4477 19 15C19 15.5523 19.4477 16 20 16H22C22.5523 16 23 15.5523 23 15C23 14.4477 22.5523 14 22 14H20Z" />
    <path fill-rule="evenodd" clip-rule="evenodd" d="M6 4C3.79086 4 2 5.79086 2 8V24C2 26.2091 3.79086 28 6 28H26C28.2091 28 30 26.2091 30 24V8C30 5.79086 28.2091 4 26 4H6ZM4 8C4 6.89543 4.89543 6 6 6H26C27.1046 6 28 6.89543 28 8V24C28 25.1046 27.1046 26 26 26H6C4.89543 26 4 25.1046 4 24V8Z" />
  </symbol>
  <symbol id="new-candidate" viewBox="0 0 16 16">
    <path d="M14.7826 3.26359C15.1313 2.69123 15.0606 1.93115 14.5705 1.43492C14.0757 0.933932 13.3153 0.865765 12.7483 1.23041C13.2123 2.09277 13.9198 2.79999 14.7826 3.26359Z"/>
    <path d="M11.8171 2.11829L6.78472 7.18C7.77457 7.47517 8.57699 8.21908 8.95006 9.18198L13.9064 4.20208C13.0535 3.68436 12.3369 2.9696 11.8171 2.11829Z"/>
    <path d="M7.91486 10.1761C7.80538 9.1186 6.91913 8.30487 5.8592 8.29183C5.53827 8.92804 5.21105 9.90848 5.01729 10.5311C4.93355 10.8002 5.16675 11.0527 5.44262 10.9905C6.16831 10.8268 7.36057 10.5217 7.91486 10.1761Z"/>
    <path d="M4.75 2C2.67893 2 1 3.67893 1 5.75V11.25C1 13.3211 2.67893 15 4.75 15H10.2501C12.3212 15 14.0001 13.3211 14.0001 11.25V8C14.0001 7.58579 13.6643 7.25 13.2501 7.25C12.8359 7.25 12.5001 7.58579 12.5001 8V11.25C12.5001 12.4926 11.4927 13.5 10.2501 13.5H4.75C3.50736 13.5 2.5 12.4926 2.5 11.25V5.75C2.5 4.50736 3.50736 3.5 4.75 3.5H7C7.41421 3.5 7.75 3.16421 7.75 2.75C7.75 2.33579 7.41421 2 7 2H4.75Z"/>
  </symbol>
  <symbol id="assignedToMe" viewBox="0 0 32 32">
    <path fill-rule="evenodd" clip-rule="evenodd" d="M24 6H8C6.89543 6 6 6.89543 6 8V24C6 25.1046 6.89543 26 8 26H24C25.1046 26 26 25.1046 26 24V8C26 6.89543 25.1046 6 24 6ZM8 4C5.79086 4 4 5.79086 4 8V24C4 26.2091 5.79086 28 8 28H24C26.2091 28 28 26.2091 28 24V8C28 5.79086 26.2091 4 24 4H8Z" />
    <path fill-rule="evenodd" clip-rule="evenodd" d="M23.7071 10.2929C24.0976 10.6834 24.0976 11.3166 23.7071 11.7071L14.7071 20.7071C14.3166 21.0976 13.6834 21.0976 13.2929 20.7071L9.29289 16.7071C8.90237 16.3166 8.90237 15.6834 9.29289 15.2929C9.68342 14.9024 10.3166 14.9024 10.7071 15.2929L14 18.5858L22.2929 10.2929C22.6834 9.90237 23.3166 9.90237 23.7071 10.2929Z" />
  </symbol>
  <symbol id="review" viewBox="0 0 24 24">
    <path d="M22,10.2h-3.2V3c0-0.4-0.3-0.8-0.8-0.8H2C1.6,2.2,1.2,2.6,1.2,3v12c0,0.4,0.3,0.8,0.8,0.8h2.2L6,17.5 c0.3,0.3,0.8,0.3,1.1,0l1.8-1.8h1.4V19c0,0.4,0.3,0.8,0.8,0.8h5.2l1.3,1.3c0.3,0.3,0.8,0.3,1.1,0l1.3-1.3H22c0.4,0,0.8-0.3,0.8-0.8 v-8C22.8,10.6,22.4,10.2,22,10.2z M8.5,14.2c-0.2,0-0.4,0.1-0.5,0.2l-1.5,1.5L5,14.5c-0.1-0.1-0.3-0.2-0.5-0.2H2.8V3.8h14.5V11v3.2 H11H8.5z M21.2,18.2h-1.8c-0.2,0-0.4,0.1-0.5,0.2l-1,1l-1-1c-0.1-0.1-0.3-0.2-0.5-0.2h-4.8v-2.5H18c0.4,0,0.8-0.3,0.8-0.8v-3.2h2.5 V18.2z" />
    <path d="M9,10.2H6c-0.4,0-0.8,0.3-0.8,0.8s0.3,0.8,0.8,0.8h3c0.4,0,0.8-0.3,0.8-0.8S9.4,10.2,9,10.2z" />
    <path d="M6,7.8h6c0.4,0,0.8-0.3,0.8-0.8S12.4,6.2,12,6.2H6C5.6,6.2,5.2,6.6,5.2,7S5.6,7.8,6,7.8z" />
  </symbol>
  <symbol id="reviews" viewBox="0 0 24 24">
    <path d="M17.2,11c0-0.4,0.3-0.8,0.8-0.8h4c0.4,0,0.8,0.3,0.8,0.8v8c0,0.4-0.3,0.8-0.8,0.8h-2.2L18.5,21 c-0.3,0.3-0.8,0.3-1.1,0l-1.3-1.3H11c-0.4,0-0.8-0.3-0.8-0.8v-4c0-0.4,0.3-0.8,0.8-0.8h6.2V11z M18.8,11.8V15c0,0.4-0.3,0.8-0.8,0.8 h-6.2v2.5h4.8c0.2,0,0.4,0.1,0.5,0.2l1,1l1-1c0.1-0.1,0.3-0.2,0.5-0.2h1.8v-6.5H18.8z" />
    <path d="M1.2,3c0-0.4,0.3-0.8,0.8-0.8h16c0.4,0,0.8,0.3,0.8,0.8v12c0,0.4-0.3,0.8-0.8,0.8H8.8L7,17.5 c-0.3,0.3-0.8,0.3-1.1,0l-1.8-1.8H2c-0.4,0-0.8-0.3-0.8-0.8V3z M2.8,3.8v10.5h1.8c0.2,0,0.4,0.1,0.5,0.2l1.5,1.5L8,14.5 c0.1-0.1,0.3-0.2,0.5-0.2h8.8V3.8H2.8z" />
    <path d="M14.2,7.7c-0.2-0.3-0.6-0.5-1-0.4h-1.7V6.4c0-0.9-0.7-1.7-1.7-1.7C9.7,4.7,9.5,4.8,9.4,5L8.1,8H7.4C6.7,8,6.1,8.5,6,9.3 l0,2.7L6,12c0.1,0.7,0.7,1.2,1.4,1.2c0,0,0,0,0,0h5.3c0,0,0,0,0,0c0.6,0,1.2-0.5,1.3-1.1l0.5-3.3C14.6,8.4,14.5,8,14.2,7.7z M11,8.4 h2.2c0,0,0.1,0,0.1,0.1s0,0.1,0,0.1l-0.5,3.3v0c0,0.1-0.1,0.2-0.2,0.2c0,0,0,0,0,0H9V8.7l1.2-2.8c0.1,0.1,0.2,0.3,0.2,0.4v1.5 C10.4,8.2,10.7,8.4,11,8.4z M7.1,11.9l0-2.5c0-0.2,0.2-0.3,0.3-0.3c0,0,0,0,0,0h0.4v3H7.4C7.3,12.1,7.1,12,7.1,11.9z" />
  </symbol>
  <symbol id="opinion" viewBox="0 0 24 24">
    <path d="M22,3.2H2C1.6,3.2,1.2,3.6,1.2,4v15c0,0.4,0.3,0.8,0.8,0.8h7.2l2.3,2.3c0.3,0.3,0.8,0.3,1.1,0l2.3-2.3H22 c0.4,0,0.8-0.3,0.8-0.8V4C22.8,3.6,22.4,3.2,22,3.2z M21.2,18.2h-6.8c-0.2,0-0.4,0.1-0.5,0.2l-2,2l-2-2c-0.1-0.1-0.3-0.2-0.5-0.2 H2.8V4.8h18.5V18.2z" />
    <path d="M7.5,16.8c0.4,0,0.8-0.3,0.8-0.8c0-1.7,1.6-3.2,3.8-3.2c2.2,0,3.8,1.5,3.8,3.2c0,0.4,0.3,0.8,0.8,0.8 s0.8-0.3,0.8-0.8c0-1.9-1.2-3.5-2.9-4.2c0.6-0.6,0.9-1.4,0.9-2.3c0-1.8-1.5-3.2-3.2-3.2S8.8,7.7,8.8,9.5c0,0.9,0.4,1.7,0.9,2.3 C8,12.5,6.8,14.1,6.8,16C6.8,16.4,7.1,16.8,7.5,16.8z M10.2,9.5c0-1,0.8-1.8,1.8-1.8s1.8,0.8,1.8,1.8S13,11.2,12,11.2 S10.2,10.5,10.2,9.5z" />
  </symbol>
  <symbol id="skills" viewBox="0 0 32 32">
    <path fill-rule="evenodd" clip-rule="evenodd" d="M14.9518 2.30278C15.5946 1.8994 16.4054 1.8994 17.0482 2.30278L29.5241 10.1318C29.8198 10.3174 30 10.6461 30 11.0002V16.0002C30 16.5525 29.5523 17.0002 29 17.0002C28.4477 17.0002 28 16.5525 28 16.0002V12.8251L26 14.0802V22.0002C26 23.909 24.6192 25.4268 22.8496 26.4099C21.0462 27.4118 18.6225 28.0002 16 28.0002C13.3775 28.0002 10.9538 27.4118 9.1504 26.4099C7.38084 25.4268 6 23.909 6 22.0002V14.0802L2.4759 11.8687C2.18016 11.6831 2 11.3544 2 11.0002C2 10.6461 2.18016 10.3174 2.4759 10.1318L14.9518 2.30278ZM8 15.3352V22.0002C8 22.8529 8.63388 23.8351 10.1217 24.6616C11.5756 25.4694 13.6519 26.0002 16 26.0002C18.3481 26.0002 20.4244 25.4694 21.8783 24.6616C23.3661 23.8351 24 22.8529 24 22.0002V15.3352L17.0482 19.6977C16.4054 20.1011 15.5946 20.1011 14.9518 19.6977L8 15.3352ZM4.90804 11.0002L16 17.9608L27.092 11.0002L16 4.03971L4.90804 11.0002Z" />
  </symbol>
  <symbol id="issue" viewBox="0 0 16 16">
    <path d="M13.3,8.3c-0.1,2.8-2.5,5.1-5.4,5.1C5,13.4,2.6,11,2.6,8c0-2.9,2.3-5.2,5.1-5.4c0.1-0.4,0.2-0.7,0.4-1c0,0-0.1,0-0.1,0 C4.4,1.7,1.6,4.5,1.6,8c0,3.5,2.9,6.4,6.4,6.4s6.4-2.9,6.4-6.4c0,0,0-0.1,0-0.1C14,8.1,13.7,8.2,13.3,8.3z"/>
    <ellipse cx="12.1" cy="3.9" rx="2.5" ry="2.5"/>
  </symbol>
  <symbol id="schedule" viewBox="0 0 16 16">
    <path d="M8 4C8 3.72386 7.77614 3.5 7.5 3.5C7.22386 3.5 7 3.72386 7 4V8.5C7 8.77614 7.22386 9 7.5 9H10.5C10.7761 9 11 8.77614 11 8.5C11 8.22386 10.7761 8 10.5 8L8 8V4Z" />
    <path fill-rule="evenodd" clip-rule="evenodd" d="M15 8C15 11.866 11.866 15 8 15C4.13401 15 1 11.866 1 8C1 4.13401 4.13401 1 8 1C11.866 1 15 4.13401 15 8ZM14 8C14 11.3137 11.3137 14 8 14C4.68629 14 2 11.3137 2 8C2 4.68629 4.68629 2 8 2C11.3137 2 14 4.68629 14 8Z" />
  </symbol>
  <symbol id="talents" viewBox="0 0 32 32">
    <path fill-rule="evenodd" clip-rule="evenodd" d="M4 11.0002C4 7.13425 7.13401 4.00024 11 4.00024C14.866 4.00024 18 7.13425 18 11.0002C18 14.8662 14.866 18.0002 11 18.0002C7.13401 18.0002 4 14.8662 4 11.0002ZM11 6.00024C8.23858 6.00024 6 8.23882 6 11.0002C6 13.7617 8.23858 16.0002 11 16.0002C13.7614 16.0002 16 13.7617 16 11.0002C16 8.23882 13.7614 6.00024 11 6.00024Z" />
    <path d="M21 20.0002C20.4477 20.0002 20 20.448 20 21.0002C20 21.5525 20.4477 22.0002 21 22.0002H23C25.7614 22.0002 28 24.2388 28 27.0002C28 27.5525 28.4477 28.0002 29 28.0002C29.5523 28.0002 30 27.5525 30 27.0002C30 23.1343 26.866 20.0002 23 20.0002H21Z" />
    <path d="M9 22.0002C6.23858 22.0002 4 24.2388 4 27.0002C4 27.5525 3.55228 28.0002 3 28.0002C2.44772 28.0002 2 27.5525 2 27.0002C2 23.1343 5.13401 20.0002 9 20.0002H13C16.866 20.0002 20 23.1343 20 27.0002C20 27.5525 19.5523 28.0002 19 28.0002C18.4477 28.0002 18 27.5525 18 27.0002C18 24.2388 15.7614 22.0002 13 22.0002H9Z" />
    <path d="M20.9999 6C20.4476 6 19.9999 6.44772 19.9999 7C19.9999 7.55228 20.4476 8 20.9999 8C21.5693 8 22.1321 8.12156 22.6507 8.35654C23.1694 8.59153 23.6318 8.93453 24.0073 9.36262C24.3827 9.7907 24.6624 10.294 24.8277 10.8389C24.993 11.3837 25.04 11.9576 24.9657 12.5221C24.8914 13.0866 24.6974 13.6288 24.3967 14.1123C24.096 14.5958 23.6956 15.0095 23.2222 15.3259C22.7488 15.6422 22.2133 15.8538 21.6515 15.9466C21.0897 16.0393 20.5146 16.0111 19.9646 15.8637C19.4312 15.7208 18.8828 16.0373 18.7399 16.5708C18.5969 17.1043 18.9135 17.6526 19.447 17.7956C20.272 18.0166 21.1346 18.059 21.9773 17.9199C22.8199 17.7807 23.6232 17.4633 24.3333 16.9888C25.0435 16.5143 25.6441 15.8937 26.0951 15.1684C26.5461 14.4431 26.8371 13.6299 26.9486 12.7832C27.0601 11.9364 26.9895 11.0756 26.7416 10.2583C26.4936 9.441 26.0741 8.68605 25.5109 8.04392C24.9478 7.4018 24.2541 6.8873 23.4762 6.53482C22.6982 6.18234 21.854 6 20.9999 6Z" />
  </symbol>
</svg>
