<svg xmlns="http://www.w3.org/2000/svg" style="display: none;">
  <symbol id="chunter" viewBox="0 0 32 32">
    <path d="M25.9,14.6C25.7,9.8,21.9,6,17,5.7h-0.5c0,0,0,0,0,0c-1.4,0-2.9,0.3-4.2,1c-3.2,1.6-5.2,4.8-5.2,8.4c0,1.4,0.3,2.7,0.9,4 l-1.9,5.7c-0.1,0.2,0,0.5,0.1,0.6c0.1,0.1,0.3,0.2,0.4,0.2c0.1,0,0.1,0,0.2,0l5.7-1.9c1.2,0.6,2.6,0.9,4,0.9c0,0,0,0,0,0 c3.6,0,6.8-2,8.4-5.2c0.7-1.3,1-2.8,1-4.2L25.9,14.6z M24.7,15.1C24.7,15.1,24.7,15.1,24.7,15.1c0,1.3-0.3,2.5-0.9,3.7 c-1.4,2.8-4.2,4.5-7.3,4.5c0,0,0,0,0,0c-1.3,0-2.5-0.3-3.6-0.9c-0.1-0.1-0.3-0.1-0.5,0l-4.8,1.6l1.6-4.8c0.1-0.2,0-0.3,0-0.5 c-0.6-1.1-0.9-2.4-0.9-3.7c0-3.1,1.7-5.9,4.5-7.3c1.1-0.6,2.4-0.9,3.6-0.9c0,0,0,0,0,0l0.5,0c4.2,0.2,7.5,3.6,7.7,7.7V15.1z"/>
  </symbol>

  <symbol id="hashtag" viewBox="0 0 16 16">
    <path d="M14,9.6h-3.2l0.4-3.2H14c0.3,0,0.6-0.3,0.6-0.6S14.3,5.2,14,5.2h-2.7l0.4-3.7c0-0.3-0.2-0.6-0.5-0.7 c-0.3,0-0.6,0.2-0.7,0.5l-0.4,3.8H6.9l0.4-3.7c0-0.3-0.2-0.6-0.5-0.7c-0.3,0-0.6,0.2-0.7,0.5L5.7,5.2H2.3C2,5.2,1.7,5.5,1.7,5.8 S2,6.4,2.3,6.4h3.2L5.2,9.6H2.3c-0.3,0-0.6,0.3-0.6,0.6s0.3,0.6,0.6,0.6h2.7l-0.4,3.7c0,0.3,0.2,0.6,0.5,0.7c0,0,0,0,0.1,0 c0.3,0,0.6-0.2,0.6-0.5l0.4-3.8h3.2L9,14.5c0,0.3,0.2,0.6,0.5,0.7c0,0,0,0,0.1,0c0.3,0,0.6-0.2,0.6-0.5l0.4-3.8H14 c0.3,0,0.6-0.3,0.6-0.6S14.3,9.6,14,9.6z M6.4,9.6l0.4-3.2h3.2L9.6,9.6H6.4z"/>
  </symbol>
  <symbol id="lock" viewBox="0 0 16 16">
    <path d="M13,6.9h-1.1V4.8c0-2.2-1.8-3.9-3.9-3.9c-2.2,0-3.9,1.8-3.9,3.9v2.1H3c-0.9,0-1.6,0.7-1.6,1.6v5.3 c0,0.9,0.7,1.6,1.6,1.6h10c0.9,0,1.6-0.7,1.6-1.6V8.5C14.6,7.6,13.9,6.9,13,6.9z M5.3,4.8c0-1.5,1.2-2.7,2.7-2.7s2.7,1.2,2.7,2.7 v2.1H5.3V4.8z M13.4,13.8c0,0.2-0.2,0.4-0.4,0.4H3c-0.2,0-0.4-0.2-0.4-0.4V8.5c0-0.2,0.2-0.4,0.4-0.4h10c0.2,0,0.4,0.2,0.4,0.4V13.8 z"/>
  </symbol>
  <symbol id="recruitment" viewBox="0 0 24 24">
    <g>
      <path d="M9.6,14.4c-1.8,0-7.4,0-7.4,3.4c0,3,4.2,3.4,7.4,3.4c1.8,0,7.4,0,7.4-3.4C17.1,14.7,12.8,14.4,9.6,14.4z M9.6,20c-4.1,0-6.2-0.7-6.2-2.2c0-1.5,2.1-2.2,6.2-2.2s6.2,0.7,6.2,2.2C15.9,19.2,13.8,20,9.6,20z"/>
      <path d="M9.6,12.4C9.6,12.4,9.7,12.4,9.6,12.4c1.4,0,2.6-0.5,3.5-1.5c0.9-0.9,1.4-2.2,1.4-3.5c0-2.7-2.2-5-5-5 c-2.7,0-5,2.2-5,5C4.7,10.1,6.9,12.4,9.6,12.4z M9.6,3.6c2.1,0,3.8,1.7,3.8,3.8c0,1-0.4,2-1.1,2.7c-0.7,0.7-1.7,1.1-2.7,1.1h0 c-2.1,0-3.8-1.7-3.8-3.8C5.9,5.3,7.6,3.6,9.6,3.6z"/>
      <path d="M16.5,10c-0.3,0-0.6,0.3-0.5,0.7c0,0.3,0.3,0.5,0.6,0.5c0,0,0.1,0,0.1,0C18.5,11,20,9.3,20,7.4 c0-1.9-1.4-3.5-3.3-3.8C16.4,3.5,16.1,3.7,16,4c-0.1,0.3,0.2,0.6,0.5,0.7c1.3,0.2,2.3,1.3,2.3,2.7C18.8,8.7,17.8,9.9,16.5,10z"/>
      <path d="M18.7,13.9c-0.3,0-0.6,0.2-0.7,0.5s0.2,0.6,0.5,0.7c2.1,0.3,2.1,1.1,2.1,1.3c0,0.3-0.1,0.7-0.9,1 c-0.3,0.1-0.5,0.5-0.3,0.8c0.1,0.2,0.3,0.4,0.6,0.4c0.1,0,0.1,0,0.2,0c1.4-0.5,1.7-1.5,1.7-2.1C21.9,15,20.8,14.2,18.7,13.9z"/>
    </g>
  </symbol>
  <symbol id="vacancy" viewBox="0 0 20 20">
    <g>
      <path d="M14.6,4.6h-1.5c-0.1-1.1-1-1.9-2.1-1.9H9c-1.1,0-2,0.9-2.1,1.9H5.4c-1.5,0-2.8,1.3-2.8,2.8V10 c0,0.2,0.1,0.3,0.2,0.4c2,1.2,4.5,1.8,7.1,1.8c2.6,0,5.2-0.6,7.1-1.8c0.2-0.1,0.2-0.3,0.2-0.4V7.4C17.4,5.8,16.1,4.6,14.6,4.6z M9,3.6H11c0.6,0,1,0.4,1.1,0.9H7.9C8,4,8.5,3.6,9,3.6z M16.4,9.7c-1.8,1-4,1.5-6.4,1.5c-2.3,0-4.6-0.5-6.4-1.5V7.4 c0-1,0.8-1.8,1.8-1.8h9.2c1,0,1.8,0.8,1.8,1.8V9.7z"/>
      <path d="M16.9,12.2c-0.3,0-0.5,0.2-0.5,0.5l-0.1,1.9c-0.1,1-0.9,1.8-1.9,1.8H5.7c-1,0-1.8-0.8-1.9-1.8l-0.1-1.9 c0-0.3-0.3-0.5-0.5-0.5c-0.3,0-0.5,0.3-0.5,0.5l0.1,1.9c0.1,1.5,1.4,2.7,2.9,2.7h8.6c1.5,0,2.8-1.2,2.9-2.7l0.1-1.9 C17.4,12.5,17.2,12.2,16.9,12.2z"/>
    </g>
  </symbol>

</svg>
