<svg xmlns="http://www.w3.org/2000/svg" style="display: none;">
  <symbol id="team2" viewBox="0 0 32 32">
    <path d="M11,18c3.9,0,7-3.1,7-7c0-3.9-3.1-7-7-7c-3.9,0-7,3.1-7,7C4,14.9,7.1,18,11,18z M11,6c2.8,0,5,2.2,5,5s-2.2,5-5,5s-5-2.2-5-5S8.2,6,11,6z" />
    <path d="M13,20H9c-3.9,0-7,3.1-7,7c0,0.6,0.4,1,1,1s1-0.4,1-1c0-2.8,2.2-5,5-5h4c2.8,0,5,2.2,5,5c0,0.6,0.4,1,1,1s1-0.4,1-1C20,23.1,16.9,20,13,20z" />
    <path d="M29.1,14.2c-0.8-1.5-2.1-2.7-3.6-3.5c-0.5-0.2-1.1,0-1.3,0.5c-0.2,0.5,0,1.1,0.5,1.3c1.2,0.6,2.1,1.5,2.7,2.6c0.6,1.1,0.8,2.4,0.6,3.7c-0.2,1.3-0.8,2.5-1.7,3.4c-0.9,0.9-2.1,1.5-3.4,1.7c-0.5,0.1-0.9,0.6-0.9,1.1c0.1,0.5,0.6,0.9,1.1,0.9c1.7-0.2,3.3-1,4.5-2.2s2-2.8,2.3-4.5C30.2,17.5,29.9,15.8,29.1,14.2z" />
    <path d="M26,19c0-0.6-0.4-1-1-1h-3v-5c0-0.6-0.4-1-1-1s-1,0.4-1,1v6c0,0.6,0.4,1,1,1h4C25.6,20,26,19.6,26,19z" />
  </symbol>
  <symbol id="team" viewBox="0 0 24 24">
    <g>
      <path d="M12.3,7.6c-2.6,0-4.6,2.1-4.6,4.6s2.1,4.6,4.6,4.6s4.6-2.1,4.6-4.6S14.8,7.6,12.3,7.6z M12.3,15.6c-1.8,0-3.3-1.5-3.3-3.3s1.5-3.3,3.3-3.3s3.3,1.5,3.3,3.3S14.1,15.6,12.3,15.6z" />
      <path d="M12.2,5.7c0.4,0,0.6-0.3,0.6-0.6V3.5c0-0.4-0.3-0.6-0.6-0.6s-0.6,0.3-0.6,0.6v1.6C11.6,5.4,11.9,5.7,12.2,5.7z" />
      <path d="M12.2,18.8c-0.4,0-0.6,0.3-0.6,0.7V21c0,0.4,0.3,0.7,0.6,0.7s0.6-0.3,0.6-0.7v-1.6C12.9,19,12.6,18.8,12.2,18.8z" />
      <path d="M6.7,7.7C6.9,7.8,7,7.8,7.2,7.8s0.3-0.1,0.5-0.2c0.3-0.3,0.3-0.7,0-0.9L6.5,5.6c-0.3-0.3-0.7-0.3-0.9,0s-0.3,0.7,0,0.9L6.7,7.7z" />
      <path d="M17.8,16.8c-0.3-0.3-0.7-0.3-0.9,0s-0.3,0.7,0,0.9l1.1,1.1c0.1,0.1,0.3,0.2,0.5,0.2s0.3-0.1,0.5-0.2c0.3-0.3,0.3-0.7,0-0.9L17.8,16.8z" />
      <path d="M5.7,12.2c0-0.4-0.3-0.6-0.6-0.6H3.5c-0.4,0-0.6,0.3-0.6,0.6s0.3,0.6,0.6,0.6h1.6C5.4,12.9,5.7,12.6,5.7,12.2z" />
      <path d="M21,11.6h-1.6c-0.4,0-0.7,0.3-0.7,0.6s0.3,0.6,0.7,0.6H21c0.4,0,0.7-0.3,0.7-0.6S21.4,11.6,21,11.6z" />
      <path d="M6.7,16.8L5.6,18c-0.3,0.3-0.3,0.7,0,0.9c0.1,0.1,0.3,0.2,0.5,0.2s0.3-0.1,0.5-0.2l1.1-1.1c0.3-0.3,0.3-0.7,0-0.9S7,16.6,6.7,16.8z" />
      <path d="M17.3,7.8c0.2,0,0.3-0.1,0.5-0.2l1.1-1.1c0.3-0.3,0.3-0.7,0-0.9s-0.7-0.3-0.9,0l-1.1,1.1c-0.3,0.3-0.3,0.7,0,0.9C17,7.8,17.1,7.8,17.3,7.8z" />
    </g>
  </symbol>
  <symbol id="inbox" viewBox="0 0 32 32">
    <path fill-rule="evenodd" clip-rule="evenodd" d="M9.2 8.39976C9.38885 8.14795 9.68524 7.99976 10 7.99976H22C22.3148 7.99976 22.6111 8.14795 22.8 8.39976L27 13.9998H19C18.4477 13.9998 18 14.4475 18 14.9998C18 15.2624 17.9483 15.5225 17.8478 15.7651C17.7472 16.0078 17.5999 16.2283 17.4142 16.414C17.2285 16.5997 17.008 16.747 16.7654 16.8475C16.5227 16.948 16.2626 16.9998 16 16.9998C15.7374 16.9998 15.4773 16.948 15.2346 16.8475C14.992 16.747 14.7715 16.5997 14.5858 16.414C14.4001 16.2283 14.2528 16.0078 14.1522 15.7651C14.0517 15.5225 14 15.2624 14 14.9998C14 14.4475 13.5523 13.9998 13 13.9998H5L9.2 8.39976ZM12.127 15.9998H4V21.9998C4 23.1043 4.89543 23.9998 6 23.9998H26C27.1046 23.9998 28 23.1043 28 21.9998V15.9998H19.873C19.8264 16.1802 19.7672 16.3576 19.6955 16.5305C19.4945 17.0158 19.1999 17.4567 18.8284 17.8282C18.457 18.1996 18.016 18.4943 17.5307 18.6953C17.0454 18.8963 16.5253 18.9998 16 18.9998C15.4747 18.9998 14.9546 18.8963 14.4693 18.6953C13.984 18.4943 13.543 18.1996 13.1716 17.8282C12.8001 17.4567 12.5055 17.0158 12.3045 16.5305C12.2329 16.3576 12.1736 16.1802 12.127 15.9998ZM10 5.99976C9.05573 5.99976 8.16656 6.44434 7.6 7.19976L2.2 14.3998C2.07018 14.5729 2 14.7834 2 14.9998V21.9998C2 24.2089 3.79086 25.9998 6 25.9998H26C28.2091 25.9998 30 24.2089 30 21.9998V14.9998C30 14.7834 29.9298 14.5729 29.8 14.3998L24.4 7.19976C23.8334 6.44434 22.9443 5.99976 22 5.99976H10Z" />
  </symbol>
  <symbol id="hashtag" viewBox="0 0 32 32">
    <path d="M13.9839 5.18321C14.0828 4.63985 13.7224 4.11922 13.1791 4.02035C12.6357 3.92149 12.1151 4.28183 12.0162 4.82519L11.0744 10.0011L6.99205 10.0007C6.43976 10.0006 5.992 10.4483 5.99194 11.0006C5.99189 11.5529 6.43955 12.0006 6.99184 12.0007L10.7105 12.0011L9.25503 20.0005L4.99996 20.0007C4.44767 20.0007 3.99998 20.4484 4 21.0007C4.00002 21.553 4.44776 22.0007 5.00004 22.0007L8.89112 22.0005L8.01389 26.8218C7.91502 27.3651 8.27536 27.8858 8.81872 27.9846C9.36208 28.0835 9.88271 27.7232 9.98158 27.1798L10.924 22.0004L18.8885 22.0001L18.0106 26.8181C17.9116 27.3614 18.2718 27.8821 18.8152 27.9811C19.3585 28.0801 19.8792 27.7199 19.9782 27.1766L20.9214 22L25 21.9998C25.5523 21.9998 26 21.5521 26 20.9998C26 20.4475 25.5522 19.9998 25 19.9998L21.2858 20L22.743 12.0023L27.0001 12.0028C27.5524 12.0028 28.0001 11.5552 28.0002 11.0029C28.0003 10.4506 27.5526 10.0028 27.0003 10.0028L23.1074 10.0024L23.9852 5.1848C24.0842 4.64146 23.724 4.12074 23.1806 4.02174C22.6373 3.92274 22.1166 4.28295 22.0176 4.82629L21.0745 10.0021L13.1072 10.0013L13.9839 5.18321ZM12.7433 12.0013L20.7101 12.0021L19.2529 20.0001L11.2879 20.0004L12.7433 12.0013Z" />
  </symbol>
  <symbol id="flag" viewBox="0 0 14 14" fill="none">
    <path fill-rule="evenodd" clip-rule="evenodd" d="M1.75 1.3125C1.75 1.07088 1.94588 0.875 2.1875 0.875H11.8125C11.9715 0.875 12.1181 0.961309 12.1952 1.10041C12.2723 1.23952 12.2678 1.40951 12.1835 1.54437L10.1409 4.8125L12.1835 8.08063C12.2678 8.21549 12.2723 8.38548 12.1952 8.52459C12.1181 8.66369 11.9715 8.75 11.8125 8.75H2.625V12.6875C2.625 12.9291 2.42912 13.125 2.1875 13.125C1.94588 13.125 1.75 12.9291 1.75 12.6875V1.3125ZM2.625 7.875H11.0231L9.254 5.04437C9.16533 4.90251 9.16533 4.72249 9.254 4.58063L11.0231 1.75H2.625V7.875Z" fill="currentColor"/>
  </symbol>
  <symbol id="filledFlag" viewBox="0 0 14 14">
    <path d="M10.1,4.8l2-3.3c0.1-0.1,0.1-0.3,0-0.4S12,0.9,11.8,0.9H2.2c-0.2,0-0.4,0.2-0.4,0.4v11.4c0,0.2,0.2,0.4,0.4,0.4s0.4-0.2,0.4-0.4V8.8h9.2c0.2,0,0.3-0.1,0.4-0.2s0.1-0.3,0-0.4L10.1,4.8z"/> 
  </symbol>
  <symbol id="planned" viewBox="0 0 20 20" fill="none">
    <path d="M10 1.24988C8.26942 1.24988 6.57769 1.76306 5.13876 2.72452C3.69983 3.68598 2.57832 5.05254 1.91606 6.6514C1.25379 8.25025 1.08051 10.0096 1.41813 11.7069C1.75575 13.4043 2.58911 14.9634 3.81282 16.1871C5.03653 17.4108 6.59563 18.2441 8.29296 18.5817C9.9903 18.9194 11.7496 18.7461 13.3485 18.0838C14.9473 17.4216 16.3139 16.3 17.2754 14.8611C18.2368 13.4222 18.75 11.7305 18.75 9.99988C18.75 7.67923 17.8281 5.45364 16.1872 3.81269C14.5462 2.17175 12.3206 1.24988 10 1.24988ZM10 17.4999C8.51664 17.4999 7.0666 17.06 5.83323 16.2359C4.59986 15.4118 3.63856 14.2404 3.07091 12.87C2.50325 11.4996 2.35473 9.99156 2.64411 8.5367C2.9335 7.08184 3.64781 5.74547 4.6967 4.69658C5.7456 3.64768 7.08197 2.93338 8.53683 2.64399C9.99168 2.3546 11.4997 2.50312 12.8701 3.07078C14.2406 3.63844 15.4119 4.59973 16.236 5.8331C17.0601 7.06647 17.5 8.51652 17.5 9.99988C17.5 11.989 16.7098 13.8967 15.3033 15.3032C13.8968 16.7097 11.9891 17.4999 10 17.4999Z" fill="currentColor"/>
    <path fill-rule="evenodd" clip-rule="evenodd" d="M14.1919 7.05809C14.436 7.30217 14.436 7.6979 14.1919 7.94197L9.19194 12.942C8.94786 13.1861 8.55214 13.1861 8.30806 12.942L5.80806 10.442C5.56398 10.1979 5.56398 9.80217 5.80806 9.55809C6.05214 9.31401 6.44786 9.31401 6.69194 9.55809L8.75 11.6161L13.3081 7.05809C13.5521 6.81401 13.9479 6.81401 14.1919 7.05809Z" fill="currentColor"/>
  </symbol>
  <symbol id="all" viewBox="0 0 20 20" fill="none">
    <path d="M9.99998 15.0001C9.89651 15 9.79468 14.9743 9.70367 14.9251L2.12886 10.8463C1.82502 10.6827 1.71137 10.3037 1.87505 9.99992C2.03867 9.69621 2.41749 9.58261 2.72124 9.74616L9.99998 13.6652L17.2785 9.7463C17.5823 9.58268 17.9613 9.69637 18.125 10.0002C18.2886 10.3041 18.1749 10.6832 17.871 10.8468L10.2963 14.9255C10.2052 14.9746 10.1034 15.0002 9.99998 15.0001Z" fill="currentColor"/>
    <path d="M9.99998 18.7501C9.89651 18.75 9.79468 18.7243 9.70367 18.6751L2.12886 14.5963C1.82502 14.4327 1.71137 14.0537 1.87505 13.7499C2.03867 13.4462 2.41749 13.3326 2.72124 13.4962L9.99998 17.4152L17.2785 13.4963C17.5823 13.3327 17.9613 13.4464 18.125 13.7502C18.2886 14.0541 18.1749 14.4332 17.871 14.5968L10.2963 18.6755C10.2052 18.7246 10.1034 18.7502 9.99998 18.7501Z" fill="currentColor"/>
    <path d="M9.99998 11.2501C9.89651 11.25 9.79468 11.2243 9.70367 11.1751L1.57867 6.80005C1.47934 6.74654 1.39635 6.66713 1.33851 6.57026C1.28066 6.47338 1.25012 6.36266 1.25012 6.24983C1.25012 6.13701 1.28066 6.02628 1.33851 5.92941C1.39635 5.83254 1.47934 5.75313 1.57867 5.69961L9.70367 1.32461C9.7947 1.27548 9.89653 1.24976 9.99998 1.24976C10.1034 1.24976 10.2053 1.27548 10.2963 1.32461L18.4213 5.69961C18.5206 5.75313 18.6036 5.83254 18.6615 5.92941C18.7193 6.02628 18.7498 6.13701 18.7498 6.24983C18.7498 6.36266 18.7193 6.47338 18.6615 6.57026C18.6036 6.66713 18.5206 6.74654 18.4213 6.80005L10.2963 11.1751C10.2053 11.2243 10.1034 11.25 9.99998 11.2501ZM3.19336 6.25005L9.99998 9.91524L16.8066 6.25005L9.99998 2.58493L3.19336 6.25005Z" fill="currentColor"/>
  </symbol>
  <symbol id="calendar" viewBox="0 0 32 32" fill="none">
    <path clip-rule="evenodd" fill-rule="evenodd" fill="currentColor" d="M28 24.005C28 26.214 26.21 28 24 28H8a4 4 0 0 1-4-4V8a4 4 0 0 1 4-4h2V3a1 1 0 1 1 2 0v1h8V3a1 1 0 1 1 2 0v1h2a4 4 0 0 1 4 4zM20 6v1a1 1 0 1 0 2 0V6h2a2 2 0 0 1 2 2v4H6V8a2 2 0 0 1 2-2h2v1a1 1 0 1 0 2 0V6zM6 14v10a2 2 0 0 0 2 2h16a2 2 0 0 0 2-2V14z"/>
  </symbol>
</svg>
