<svg xmlns="http://www.w3.org/2000/svg" style="display: none;">
  <symbol id="tracker" viewBox="0 0 24 24">
    <path d="M17.1,1.2h-4.2C9,1.2,7.2,3,7.2,6.9v0.4H6.9C3,7.2,1.2,9,1.2,12.9v4.2c0,3.9,1.7,5.7,5.6,5.7h4.2 c3.9,0,5.6-1.7,5.6-5.7v-0.3h0.3c3.9,0,5.7-1.7,5.7-5.6V6.9C22.8,3,21,1.2,17.1,1.2z M15.2,17.1c0,3.1-1,4.2-4.1,4.2H6.9 c-3.1,0-4.1-1-4.1-4.2v-4.2c0-3.1,1-4.1,4.1-4.1H8h3.1c3.1,0,4.1,1,4.1,4.1V16V17.1z M21.2,11.1c0,3.1-1,4.1-4.2,4.1h-0.3v-2.4 c0-3.9-1.7-5.6-5.6-5.6H8.8V6.9c0-3.1,1-4.1,4.1-4.1h4.2c3.1,0,4.2,1,4.2,4.1V11.1z" />
    <path d="M11.4,12.5L8,15.9l-1.4-1.4c-0.3-0.3-0.8-0.3-1.1,0s-0.3,0.8,0,1.1l2,2c0.1,0.1,0.3,0.2,0.5,0.2h0 c0.2,0,0.4-0.1,0.5-0.2l3.9-3.9c0.3-0.3,0.3-0.8,0-1.1C12.2,12.2,11.7,12.2,11.4,12.5z" />
  </symbol>
  <symbol id="scrum" viewBox="0 0 16 16">
    <g transform="matrix(0.00357, 0, 0, -0.003573, -1.147394, 17.149212)">
      <path d="M1001 4784 c-253 -68 -410 -331 -346 -579 45 -170 180 -306 347 -349 l52 -13 -110 -5 c-182 -9 -312 -66 -439 -194 -51 -51 -82 -93 -113 -155 -67 -132 -73 -183 -70 -530 3 -283 4 -299 24 -325 11 -15 33 -37 48 -48 27 -20 40 -21 541 -24 l513 -3 -43 -92 c-78 -167 -113 -310 -122 -492 -16 -344 108 -676 349 -930 l80 -85 -645 -2 c-634 -3 -646 -3 -673 -24 -53 -39 -69 -71 -69 -134 0 -63 16 -95 69 -134 l27 -21 1916 -3 1915 -2 -40 -44 c-68 -74 -69 -161 -3 -227 41 -41 88 -55 149 -44 31 5 67 36 234 203 281 281 281 263 0 544 -167 167 -203 198 -234 203 -61 11 -108 -3 -149 -44 -66 -66 -65 -153 3 -227 l41 -44 -423 0 -422 0 80 85 c135 142 225 293 287 478 102 308 81 642 -60 944 l-43 92 513 3 c501 3 514 4 541 24 15 11 37 33 48 48 20 26 21 40 21 359 l0 332 -27 73 c-38 105 -83 176 -158 252 -123 122 -255 179 -434 188 l-110 5 53 14 c167 42 301 179 346 350 65 249 -94 511 -350 578 -251 65 -513 -94 -580 -350 -64 -249 95 -514 347 -579 l52 -13 -110 -6 c-126 -6 -206 -29 -305 -87 -76 -45 -162 -126 -204 -193 -17 -26 -32 -47 -35 -47 -3 0 -16 19 -30 42 -38 63 -134 154 -208 197 -100 59 -179 82 -306 88 l-110 6 52 13 c252 65 411 330 347 579 -67 256 -329 415 -580 350 -256 -67 -415 -329 -350 -578 45 -171 179 -308 346 -350 l53 -14 -110 -6 c-126 -6 -206 -29 -305 -88 -73 -42 -170 -134 -209 -198 -14 -22 -27 -41 -30 -41 -3 0 -18 20 -33 45 -42 66 -132 151 -206 195 -99 58 -179 81 -305 87 l-110 6 53 14 c251 64 410 330 346 576 -67 259 -333 419 -584 351z m182 -318 c103 -43 128 -177 48 -257 -112 -113 -296 -12 -267 146 18 94 128 150 219 111z m1440 0 c103 -43 128 -177 48 -257 -112 -113 -296 -12 -267 146 18 94 128 150 219 111z m1440 0 c103 -43 128 -177 48 -257 -112 -113 -296 -12 -267 146 18 94 128 150 219 111z m-2653 -975 c76 -40 115 -77 151 -143 l34 -63 3 -202 3 -203 -481 0 -481 0 3 203 c3 188 5 205 27 249 40 82 120 150 211 179 14 4 129 7 255 6 221 -2 232 -3 275 -26z m1440 0 c76 -40 115 -77 150 -143 30 -55 35 -75 38 -152 4 -79 3 -88 -12 -83 -129 50 -328 87 -466 87 -134 0 -341 -38 -464 -86 -18 -7 -18 -2 -14 82 7 135 64 231 170 285 71 37 85 38 323 36 221 -2 232 -3 275 -26z m1440 0 c76 -40 115 -77 151 -143 l34 -63 3 -202 3 -203 -481 0 -481 0 3 203 c3 188 5 205 27 249 40 82 121 150 211 179 14 4 129 7 255 6 221 -2 232 -3 275 -26z m-1499 -640 c179 -46 319 -127 449 -260 129 -130 212 -278 257 -457 24 -95 24 -333 0 -428 -46 -182 -128 -328 -261 -462 -134 -133 -280 -215 -462 -261 -95 -24 -333 -24 -428 0 -182 46 -328 128 -462 261 -133 134 -215 280 -261 462 -24 95 -24 333 0 428 45 179 128 327 257 457 147 150 309 236 513 275 100 19 299 12 398 -15z"/>
      <path d="M2980 2549 c-14 -5 -128 -113 -255 -239 l-230 -229 -237 -3 c-221 -3 -238 -4 -264 -24 -53 -39 -69 -71 -69 -134 0 -63 16 -95 69 -134 26 -20 43 -21 304 -24 171 -2 290 1 312 7 26 8 103 79 307 283 292 293 295 297 279 383 -17 91 -127 149 -216 114z"/>
    </g>
  </symbol>
  <symbol id="start" viewBox="-5 -3 24 24">
    <g>
      <g id="c98_play">
        <path d="M2.067,0.043C2.21-0.028,2.372-0.008,2.493,0.085l13.312,8.503c0.094,0.078,0.154,0.191,0.154,0.313
          c0,0.12-0.061,0.237-0.154,0.314L2.492,17.717c-0.07,0.057-0.162,0.087-0.25,0.087l-0.176-0.04
          c-0.136-0.065-0.222-0.207-0.222-0.361V0.402C1.844,0.25,1.93,0.107,2.067,0.043z"/>
      </g>
      <g id="Capa_1_78_" />
    </g>
  </symbol>
  <symbol id="stop" viewBox="-4 -4 16 16">
    <rect width="8" height="8"/>
  </symbol>
  <symbol id="project" viewBox="0 0 16 16">
    <path d="M11.7,3.6h-1.1C10.4,2.7,9.7,2,8.8,2H7.2C6.3,2,5.6,2.7,5.4,3.6H4.3C3,3.6,2,4.6,2,5.9V8c0,0.2,0.1,0.3,0.2,0.4 C3.8,9.3,5.9,9.9,8,9.9c2.1,0,4.2-0.5,5.8-1.5C13.9,8.3,14,8.2,14,8V5.9C14,4.6,13,3.6,11.7,3.6z M7.2,3h1.5c0.4,0,0.6,0.2,0.8,0.6 H6.5C6.6,3.2,6.9,3,7.2,3z M13,7.7c-1.4,0.8-3.2,1.2-5,1.2c-1.8,0-3.6-0.4-5-1.2V5.9c0-0.7,0.6-1.3,1.3-1.3h7.4 c0.7,0,1.3,0.6,1.3,1.3V7.7z"/>
    <path d="M13.5,9.7c-0.3,0-0.5,0.2-0.5,0.5l-0.1,1.5c-0.1,0.8-0.7,1.3-1.4,1.3H4.5c-0.7,0-1.4-0.6-1.4-1.3L3,10.1 c0-0.3-0.3-0.5-0.5-0.5C2.2,9.7,2,9.9,2,10.2l0.1,1.5C2.2,13,3.3,14,4.5,14h6.9c1.3,0,2.3-1,2.4-2.3l0.1-1.5 C14,9.9,13.8,9.7,13.5,9.7z"/>
  </symbol>
  <symbol id="issue" viewBox="0 0 16 16">
    <path d="M13.3,8.3c-0.1,2.8-2.5,5.1-5.4,5.1C5,13.4,2.6,11,2.6,8c0-2.9,2.3-5.2,5.1-5.4c0.1-0.4,0.2-0.7,0.4-1c0,0-0.1,0-0.1,0 C4.4,1.7,1.6,4.5,1.6,8c0,3.5,2.9,6.4,6.4,6.4s6.4-2.9,6.4-6.4c0,0,0-0.1,0-0.1C14,8.1,13.7,8.2,13.3,8.3z"/>
    <ellipse cx="12.1" cy="3.9" rx="2.5" ry="2.5"/>
  </symbol>
  <symbol id="team" viewBox="0 0 24 24">
    <path d="M13,1h-2.2H9.4H6.6H5.2H3C1.9,1,1,1.9,1,3v10c0,1.1,0.9,2,2,2h2.2h1.4h2.8h1.4H13c1.1,0,2-0.9,2-2V3C15,1.9,14.1,1,13,1z M3,13.8c-0.4,0-0.8-0.4-0.8-0.8V3c0-0.4,0.4-0.8,0.8-0.8h2.2v11.6H3z M6.6,13.8V2.2h2.8v11.6H6.6z M13.8,13c0,0.4-0.4,0.8-0.8,0.8 h-2.2V2.2H13c0.4,0,0.8,0.4,0.8,0.8V13z"/>
  </symbol>
  <symbol id="document" viewBox="0 0 16 16">
    <path d="M8,14.5c-3.6,0-6.5-2.9-6.5-6.5S4.4,1.5,8,1.5s6.5,2.9,6.5,6.5S11.6,14.5,8,14.5z M8,2.5C5,2.5,2.5,5,2.5,8 c0,3,2.5,5.5,5.5,5.5c3,0,5.5-2.5,5.5-5.5C13.5,5,11,2.5,8,2.5z"/>
    <polygon points="7.4,10.7 5,8.4 5.7,7.6 7.3,9.3 10.3,5.7 11,6.3 "/>
  </symbol>

  <symbol id="inbox" viewBox="0 0 16 16">
    <path d="M10.5914 1C11.9984 1 13.2164 1.97789 13.5205 3.35169L14.8819 9.50233C14.9604 9.85714 15 10.2195 15 10.5829V12.5181C15 13.8888 13.8888 15 12.5181 15H3.48193C2.1112 15 1 13.8888 1 12.5181V10.5829C1 10.2195 1.03962 9.85714 1.11815 9.50233L2.47949 3.35169C2.78356 1.97789 4.00156 1 5.4086 1H10.5914ZM10.5914 2.5H5.4086C4.70508 2.5 4.09608 2.98894 3.94405 3.67584L2.5827 9.82649L2.548 10.01L5.01028 10.0108C5.55851 10.0108 6.00293 10.4552 6.00293 11.0034C6.00293 11.5517 6.44735 11.9961 6.99557 11.9961H9.05948C9.6077 11.9961 10.0521 11.5517 10.0521 11.0034C10.0521 10.4552 10.4965 10.0108 11.0448 10.0108L13.4528 10.0102C13.4426 9.94867 13.4308 9.88742 13.4173 9.82649L12.056 3.67584C11.9039 2.98894 11.2949 2.5 10.5914 2.5Z"/>
  </symbol>
  <symbol id="myissues" viewBox="0 0 16 16">
    <path d="M14.2458 10C14.6255 10 14.9393 10.2822 14.9889 10.6482L14.9958 10.75V12.2475C14.9958 13.7083 13.8567 14.9034 12.4177 14.9922L12.2504 14.9975L10.7513 15C10.3371 15.0007 10.0007 14.6655 10 14.2513C9.99936 13.8716 10.281 13.5573 10.647 13.507L10.7487 13.5L12.2479 13.4975C12.8943 13.4964 13.4255 13.0047 13.4893 12.3751L13.4958 12.2475V10.75C13.4958 10.3358 13.8316 10 14.2458 10ZM1.75 10C2.16421 10 2.5 10.3358 2.5 10.75V12.2475C2.5 12.937 3.05836 13.4963 3.74789 13.4975L5.24703 13.5C5.66125 13.5007 5.99646 13.8371 5.99576 14.2513C5.99506 14.6655 5.65871 15.0007 5.2445 15L3.74535 14.9975C2.22839 14.9949 1 13.7644 1 12.2475V10.75C1 10.3358 1.33579 10 1.75 10ZM8 6C9.10457 6 10 6.89543 10 8C10 9.10457 9.10457 10 8 10C6.89543 10 6 9.10457 6 8C6 6.89543 6.89543 6 8 6ZM10.7513 1L12.2504 1.00254C13.7674 1.0051 14.9958 2.23556 14.9958 3.75253V5.25C14.9958 5.66422 14.66 6 14.2458 6C13.8316 6 13.4958 5.66422 13.4958 5.25V3.75253C13.4958 3.063 12.9374 2.5037 12.2479 2.50253L10.7487 2.5C10.3345 2.4993 9.9993 2.16295 10 1.74873C10.0007 1.33452 10.3371 0.999302 10.7513 1ZM5.24873 1C5.66295 0.999303 5.9993 1.33452 6 1.74873C6.0007 2.16295 5.66548 2.4993 5.25127 2.5L3.75212 2.50253C3.06259 2.5037 2.50424 3.063 2.50424 3.75253V5.25C2.50424 5.66422 2.16845 6 1.75424 6C1.34002 6 1.00424 5.66422 1.00424 5.25V3.75253C1.00424 2.23556 2.23262 1.0051 3.74959 1.00254L5.24873 1Z"/>
  </symbol>
  <symbol id="views" viewBox="0 0 16 16">
    <path d="M12.6541 10.7952L14.7544 11.6213C14.8576 11.6618 14.9394 11.7434 14.9801 11.8466C15.0511 12.0264 14.9828 12.2268 14.827 12.3284L14.755 12.3656L8.35645 14.8924C8.15935 14.9703 7.94372 14.9831 7.74052 14.9309L7.62035 14.8918L1.25259 12.3653C1.1499 12.3246 1.06864 12.2432 1.02806 12.1404C0.957068 11.9607 1.02536 11.7603 1.1812 11.6587L1.25319 11.6215L3.34307 10.7962L7.06917 12.2751C7.65895 12.5091 8.31525 12.5097 8.9054 12.2766L12.6541 10.7952ZM12.6541 6.77688L14.7544 7.60289C14.8576 7.64346 14.9394 7.72508 14.9801 7.82824C15.0511 8.00803 14.9828 8.20839 14.827 8.31004L14.755 8.3472L10.6001 9.98825L9.619 10.375L8.35645 10.8741L8.317 10.886L8.23566 10.9132C8.20301 10.9215 8.17004 10.9282 8.13688 10.9331C8.12585 10.9346 8.11547 10.936 8.10507 10.9372C8.02541 10.9468 7.94422 10.9464 7.86397 10.9363L7.74052 10.9126L7.62035 10.8735L6.391 10.385L5.38907 9.98825L1.25259 8.34697C1.1499 8.30623 1.06864 8.22483 1.02806 8.12208C0.957068 7.94229 1.02536 7.74192 1.1812 7.64029L1.25319 7.60312L3.34307 6.77788L7.06917 8.25677C7.65895 8.49078 8.31525 8.4913 8.9054 8.25824L12.6541 6.77688ZM7.62186 1.06989C7.85734 0.976906 8.11932 0.976697 8.35494 1.06931L14.7544 3.58452C14.8576 3.62509 14.9394 3.70671 14.9801 3.80987C15.0612 4.01534 14.9605 4.24769 14.755 4.32884L10.6001 5.96988L8.35565 6.856L8.27468 6.88396C8.25405 6.8901 8.23326 6.89557 8.21236 6.90036C8.09824 6.92674 7.98013 6.93258 7.86397 6.91788L7.74052 6.89419L7.62035 6.8551L1.25259 4.3286C1.1499 4.28786 1.06864 4.20646 1.02806 4.10371C0.946925 3.89823 1.04772 3.66589 1.25319 3.58475L7.62186 1.06989Z"/>
  </symbol>
  <symbol id="issues" viewBox="0 0 16 16">
    <path d="M12.5 11.2204C13.3829 10.8346 13.9999 9.95362 13.9999 8.92853V4.5C13.9999 3.11929 12.8806 2 11.4999 2H7.07132C6.04623 2 5.16524 2.61697 4.77942 3.49983L10 3.49983C11.3807 3.49983 12.5 4.61912 12.5 5.99983V11.2204ZM4.5 13.9998C3.11929 13.9998 2 12.8805 2 11.4998V7.07126C2 5.69055 3.11929 4.57126 4.5 4.57126L8.92853 4.57126C10.3092 4.57126 11.4285 5.69055 11.4285 7.07126V11.4998C11.4285 12.8805 10.3092 13.9998 8.92853 13.9998H4.5ZM8 9.49979C8 10.3282 7.32843 10.9998 6.5 10.9998C5.67157 10.9998 5 10.3282 5 9.49979C5 8.67136 5.67157 7.99979 6.5 7.99979C7.32843 7.99979 8 8.67136 8 9.49979ZM9.5 9.49979C9.5 11.1566 8.15685 12.4998 6.5 12.4998C4.84315 12.4998 3.5 11.1566 3.5 9.49979C3.5 7.84293 4.84315 6.49979 6.5 6.49979C8.15685 6.49979 9.5 7.84293 9.5 9.49979Z"/>
  </symbol>
  <symbol id="projects" viewBox="-3 -3 16 16">
    <path d="M3.45455 0H0.545455C0.244208 0 0 0.244208 0 0.545455V3.45455C0 3.75579 0.244208 4 0.545455 4H3.45455C3.75579 4 4 3.75579 4 3.45455V0.545455C4 0.244208 3.75579 0 3.45455 0Z"/>
    <path d="M9.95479 0H7.0457C6.74445 0 6.50024 0.244208 6.50024 0.545455V3.45455C6.50024 3.75579 6.74445 4 7.0457 4H9.95479C10.256 4 10.5002 3.75579 10.5002 3.45455V0.545455C10.5002 0.244208 10.256 0 9.95479 0Z"/>
    <path d="M3.45455 6.50024H0.545455C0.244208 6.50024 0 6.74445 0 7.0457V9.95479C0 10.256 0.244208 10.5002 0.545455 10.5002H3.45455C3.75579 10.5002 4 10.256 4 9.95479V7.0457C4 6.74445 3.75579 6.50024 3.45455 6.50024Z"/>
    <path d="M9.95479 6.50024H7.0457C6.74445 6.50024 6.50024 6.74445 6.50024 7.0457V9.95479C6.50024 10.256 6.74445 10.5002 7.0457 10.5002H9.95479C10.256 10.5002 10.5002 10.256 10.5002 9.95479V7.0457C10.5002 6.74445 10.256 6.50024 9.95479 6.50024Z"/>
  </symbol>
  <symbol id="newissue" viewBox="0 0 16 16">
    <path d="M14.7826 3.26359C15.1313 2.69123 15.0606 1.93115 14.5705 1.43492C14.0757 0.933932 13.3153 0.865765 12.7483 1.23041C13.2123 2.09277 13.9198 2.79999 14.7826 3.26359Z"/>
    <path d="M11.8171 2.11829L6.78472 7.18C7.77457 7.47517 8.57699 8.21908 8.95006 9.18198L13.9064 4.20208C13.0535 3.68436 12.3369 2.9696 11.8171 2.11829Z"/>
    <path d="M7.91486 10.1761C7.80538 9.1186 6.91913 8.30487 5.8592 8.29183C5.53827 8.92804 5.21105 9.90848 5.01729 10.5311C4.93355 10.8002 5.16675 11.0527 5.44262 10.9905C6.16831 10.8268 7.36057 10.5217 7.91486 10.1761Z"/>
    <path d="M4.75 2C2.67893 2 1 3.67893 1 5.75V11.25C1 13.3211 2.67893 15 4.75 15H10.2501C12.3212 15 14.0001 13.3211 14.0001 11.25V8C14.0001 7.58579 13.6643 7.25 13.2501 7.25C12.8359 7.25 12.5001 7.58579 12.5001 8V11.25C12.5001 12.4926 11.4927 13.5 10.2501 13.5H4.75C3.50736 13.5 2.5 12.4926 2.5 11.25V5.75C2.5 4.50736 3.50736 3.5 4.75 3.5H7C7.41421 3.5 7.75 3.16421 7.75 2.75C7.75 2.33579 7.41421 2 7 2H4.75Z"/>
  </symbol>
  <symbol id="magnifier" viewBox="1 1 13 13">
    <path d="M9.5 7C9.5 8.38071 8.38071 9.5 7 9.5C5.61929 9.5 4.5 8.38071 4.5 7C4.5 5.61929 5.61929 4.5 7 4.5C8.38071 4.5 9.5 5.61929 9.5 7ZM9.24822 10.3089C8.60751 10.745 7.83353 11 7 11C4.79086 11 3 9.20914 3 7C3 4.79086 4.79086 3 7 3C9.20914 3 11 4.79086 11 7C11 7.83353 10.745 8.60751 10.3089 9.24822L12.7803 11.7197C13.0732 12.0126 13.0732 12.4874 12.7803 12.7803C12.4874 13.0732 12.0126 13.0732 11.7197 12.7803L9.24822 10.3089Z" fill-rule="evenodd" clip-rule="evenodd"/>
  </symbol>
  <symbol id="home" viewBox="0 0 16 16" fill="#ff324cee">
    <path d="M4.92886 7.49494C4.99698 7.22733 5.21443 7 5.49057 7C5.76671 7 5.98416 7.22733 6.05228 7.49494C6.27254 8.36012 7.05683 9 7.99057 9C8.92431 9 9.7086 8.36012 9.92886 7.49494C9.99698 7.22733 10.2144 7 10.4906 7C10.7667 7 10.9842 7.22733 11.0523 7.49494C11.2725 8.36012 12.0568 9 12.9906 9C14.0154 9 14.8602 8.22917 14.9768 7.23566C14.9949 7.08147 14.9544 6.92771 14.885 6.78885L12.267 1.55279C12.0976 1.214 11.7513 1 11.3725 1H4.6086C4.22983 1 3.88357 1.214 3.71418 1.55279L1.09614 6.78885C1.02672 6.92771 0.98621 7.08147 1.00431 7.23566C1.12092 8.22917 1.96573 9 2.99057 9C3.92431 9 4.7086 8.36012 4.92886 7.49494Z"/>
    <path d="M3.01079 10C4.05518 10 4.97364 9.46684 5.51079 8.65844C6.04793 9.46684 6.9664 10 8.01079 10C9.05518 10 9.97365 9.46684 10.5108 8.65844C11.0479 9.46684 11.9664 10 13.0108 10C13.3538 10 13.6833 9.94247 13.9902 9.83653V13.5C13.9902 14.3284 13.3187 15 12.4902 15H10.5C10.2239 15 10 14.7761 10 14.5V13C10 12.4477 9.55229 12 9 12H7C6.44772 12 6 12.4477 6 13V14.5C6 14.7761 5.77614 15 5.5 15H3.49023C2.66181 15 1.99023 14.3284 1.99023 13.5V9.82201C2.30876 9.9372 2.6524 10 3.01079 10Z"/>
  </symbol>
  <symbol id="red-circle" viewBox="0 0 16 16" fill="#ff324cee">
    <path d="M7,0C3.1,0,0,3.1,0,7c0,3.9,3.1,7,7,7c3.9,0,7-3.1,7-7C14,3.1,10.9,0,7,0z M7,12c-2.8,0-5-2.2-5-5s2.2-5,5-5s5,2.2,5,5S9.8,12,7,12z" />
  </symbol>

  <symbol id="status-backlog" viewBox="0 0 14 14">
    <path d="M13.9,7.9l-2-0.3c0-0.2,0-0.4,0-0.7s0-0.4,0-0.7l2-0.3C14,6.4,14,6.7,14,7S14,7.6,13.9,7.9z M13.5,4.3c-0.2-0.6-0.5-1.1-0.9-1.6L11,4c0.3,0.3,0.5,0.7,0.7,1.1L13.5,4.3z M11.3,1.4L10,3C9.7,2.8,9.3,2.5,8.9,2.4l0.8-1.8C10.2,0.8,10.8,1.1,11.3,1.4z M7.9,0.1L7.7,2C7.4,2,7.2,2,7,2S6.6,2,6.3,2l-0.3-2C6.4,0,6.7,0,7,0S7.6,0,7.9,0.1z M4.3,0.5l0.8,1.8C4.7,2.5,4.3,2.8,4,3L2.7,1.4C3.2,1.1,3.8,0.8,4.3,0.5z M1.4,2.7L3,4C2.8,4.3,2.5,4.7,2.4,5.1L0.5,4.3C0.8,3.8,1.1,3.2,1.4,2.7z M0.1,6.1C0,6.4,0,6.7,0,7s0,0.6,0.1,0.9l2-0.3C2,7.4,2,7.2,2,7s0-0.4,0-0.7L0.1,6.1z M0.5,9.7l1.8-0.8C2.5,9.3,2.8,9.7,3,10l-1.6,1.2C1.1,10.8,0.8,10.2,0.5,9.7z M2.7,12.6L4,11c0.3,0.3,0.7,0.5,1.1,0.7l-0.8,1.8C3.8,13.2,3.2,12.9,2.7,12.6z M6.1,13.9l0.3-2c0.2,0,0.4,0,0.7,0s0.4,0,0.7,0l0.3,2C7.6,14,7.3,14,7,14S6.4,14,6.1,13.9z M9.7,13.5l-0.8-1.8c0.4-0.2,0.8-0.4,1.1-0.7l1.2,1.6C10.8,12.9,10.2,13.2,9.7,13.5z M12.6,11.3L11,10c0.3-0.3,0.5-0.7,0.7-1.1l1.8,0.8C13.2,10.2,12.9,10.8,12.6,11.3z" />
  </symbol>
  <symbol id="status-todo" viewBox="0 0 14 14">
    <path d="M7,0C3.1,0,0,3.1,0,7c0,3.9,3.1,7,7,7c3.9,0,7-3.1,7-7C14,3.1,10.9,0,7,0z M7,12c-2.8,0-5-2.2-5-5s2.2-5,5-5s5,2.2,5,5S9.8,12,7,12z" />
  </symbol>
  <symbol id="status-inprogress" viewBox="0 0 14 14">
    <path d="M7,0C3.1,0,0,3.1,0,7c0,3.9,3.1,7,7,7c3.9,0,7-3.1,7-7C14,3.1,10.9,0,7,0z M7,12c-2.8,0-5-2.2-5-5s2.2-5,5-5s5,2.2,5,5S9.8,12,7,12z" />
    <path d="M7,7V3.5c1.9,0,3.5,1.6,3.5,3.5S8.9,10.5,7,10.5V7z" />
  </symbol>
  <symbol id="status-done" viewBox="0 0 14 14">
    <path d="M7,0C3.1,0,0,3.1,0,7c0,3.9,3.1,7,7,7c3.9,0,7-3.1,7-7C14,3.1,10.9,0,7,0z M9.9,3.9c0.3-0.3,0.8-0.3,1.2,0l0,0c0.3,0.3,0.3,0.9,0,1.2l-5,5c-0.3,0.3-0.9,0.3-1.2,0l-2-2c-0.3-0.3-0.3-0.9,0-1.2c0.2-0.2,0.4-0.2,0.6-0.2s0.4,0.1,0.6,0.2l1.4,1.4l4-4v0L9.9,3.9z" />
  </symbol>
  <symbol id="status-canceled" viewBox="0 0 14 14">
    <path style="fill-rule:evenodd;clip-rule:evenodd;" d="M7,14c3.9,0,7-3.1,7-7c0-3.9-3.1-7-7-7C3.1,0,0,3.1,0,7C0,10.9,3.1,14,7,14z M5,4C4.7,3.7,4.3,3.7,4,4S3.7,4.7,4,5l2,2L4,9C3.7,9.3,3.7,9.7,4,10c0.3,0.3,0.8,0.3,1.1,0l2-2l2,2c0.3,0.3,0.8,0.3,1.1,0c0.3-0.3,0.3-0.8,0-1.1l-2-2l2-2c0.3-0.3,0.3-0.8,0-1.1C9.7,3.7,9.3,3.7,9,4l-2,2L5,4z" />
  </symbol>

  <symbol id="priority-nopriority" viewBox="0 0 14 14">
    <rect width="2" height="2" rx="1" transform="matrix(-1 0 0 1 5 6)" />
    <rect width="2" height="2" rx="1" transform="matrix(-1 0 0 1 8 6)" />
    <rect width="2" height="2" rx="1" transform="matrix(-1 0 0 1 11 6)" />
  </symbol>
  <symbol id="priority-urgent" viewBox="-1 -1 16 16">
    <path fill="var(--warning-color)" d="M2 0a2 2 0 00-2 2v10a2 2 0 002 2h10a2 2 0 002-2V2a2 2 0 00-2-2H2zm3.914 3h1.738L7.5 8.602H6.07L5.914 3zm1.809 7.164a.95.95 0 01-.938.938.934.934 0 110-1.867c.5 0 .934.417.938.93z" />
  </symbol>
  <symbol id="priority-high" viewBox="0 0 16 16">
    <rect x="1" y="8" width="3" height="6" rx="1" />
    <rect x="6" y="5" width="3" height="9" rx="1" />
    <rect x="11" y="2" width="3" height="12" rx="1" />
  </symbol>
  <symbol id="priority-medium" viewBox="0 0 16 16">
    <rect x="1" y="8" width="3" height="6" rx="1" />
    <rect x="6" y="5" width="3" height="9" rx="1" />
    <rect x="11" y="2" width="3" height="12" rx="1" fill-opacity=".4" />
  </symbol>
  <symbol id="priority-low" viewBox="0 0 16 16">
    <rect x="1" y="8" width="3" height="6" rx="1" />
    <rect x="6" y="5" width="3" height="9" rx="1" fill-opacity=".4" />
    <rect x="11" y="2" width="3" height="12" rx="1" fill-opacity=".4" />
  </symbol>

  <symbol id="list" viewBox="0 0 16 16">
    <path d="M1 1.8C1 1.51997 1 1.37996 1.0545 1.273C1.10243 1.17892 1.17892 1.10243 1.273 1.0545C1.37996 1 1.51997 1 1.8 1H14.2C14.48 1 14.62 1 14.727 1.0545C14.8211 1.10243 14.8976 1.17892 14.9455 1.273C15 1.37996 15 1.51997 15 1.8V2.2C15 2.48003 15 2.62004 14.9455 2.727C14.8976 2.82108 14.8211 2.89757 14.727 2.9455C14.62 3 14.48 3 14.2 3H1.8C1.51997 3 1.37996 3 1.273 2.9455C1.17892 2.89757 1.10243 2.82108 1.0545 2.727C1 2.62004 1 2.48003 1 2.2V1.8Z" />
    <path d="M1 13.8C1 13.52 1 13.38 1.0545 13.273C1.10243 13.1789 1.17892 13.1024 1.273 13.0545C1.37996 13 1.51997 13 1.8 13H14.2C14.48 13 14.62 13 14.727 13.0545C14.8211 13.1024 14.8976 13.1789 14.9455 13.273C15 13.38 15 13.52 15 13.8V14.2C15 14.48 15 14.62 14.9455 14.727C14.8976 14.8211 14.8211 14.8976 14.727 14.9455C14.62 15 14.48 15 14.2 15H1.8C1.51997 15 1.37996 15 1.273 14.9455C1.17892 14.8976 1.10243 14.8211 1.0545 14.727C1 14.62 1 14.48 1 14.2V13.8Z" />
    <path d="M1 9.8C1 9.51997 1 9.37996 1.0545 9.273C1.10243 9.17892 1.17892 9.10243 1.273 9.0545C1.37996 9 1.51997 9 1.8 9H14.2C14.48 9 14.62 9 14.727 9.0545C14.8211 9.10243 14.8976 9.17892 14.9455 9.273C15 9.37996 15 9.51997 15 9.8V10.2C15 10.48 15 10.62 14.9455 10.727C14.8976 10.8211 14.8211 10.8976 14.727 10.9455C14.62 11 14.48 11 14.2 11H1.8C1.51997 11 1.37996 11 1.273 10.9455C1.17892 10.8976 1.10243 10.8211 1.0545 10.727C1 10.62 1 10.48 1 10.2V9.8Z" />
    <path d="M1 5.8C1 5.51997 1 5.37996 1.0545 5.273C1.10243 5.17892 1.17892 5.10243 1.273 5.0545C1.37996 5 1.51997 5 1.8 5H14.2C14.48 5 14.62 5 14.727 5.0545C14.8211 5.10243 14.8976 5.17892 14.9455 5.273C15 5.37996 15 5.51997 15 5.8V6.2C15 6.48003 15 6.62004 14.9455 6.727C14.8976 6.82108 14.8211 6.89757 14.727 6.9455C14.62 7 14.48 7 14.2 7H1.8C1.51997 7 1.37996 7 1.273 6.9455C1.17892 6.89757 1.10243 6.82108 1.0545 6.727C1 6.62004 1 6.48003 1 6.2V5.8Z" />
  </symbol>
  <symbol id="timeline" viewBox="0 0 14 14">
    <rect x="6" y="1" width="7" height="2.5" rx="0.5" />
    <rect x="1" y="5.75" width="9" height="2.5" rx="0.5" />
    <rect x="4" y="10.5" width="9" height="2.5" rx="0.5" />
  </symbol>
  <symbol id="projectMembers" viewBox="0 0 16 16">
    <path d="M1 3C1 1.89543 1.89543 1 3 1H9C10.1046 1 11 1.89543 11 3V3.5H6C4.61929 3.5 3.5 4.61929 3.5 6V11H3C1.89543 11 1 10.1046 1 9V3Z" />
    <path fill-rule="evenodd" clip-rule="evenodd" d="M7 5C5.89543 5 5 5.89543 5 7V13C5 14.1046 5.89543 15 7 15H13C14.1046 15 15 14.1046 15 13V7C15 5.89543 14.1046 5 13 5H7ZM10 10C10.9665 10 11.5 9.2165 11.5 8.25C11.5 7.2835 10.9665 6.5 10 6.5C9.0335 6.5 8.5 7.2835 8.5 8.25C8.5 9.2165 9.0335 10 10 10ZM7 12.5616C7 11.5144 7.9841 10.746 9 11C9.47572 11.7136 10.5243 11.7136 11 11C12.0159 10.746 13 11.5144 13 12.5616V13.0101C13 13.2806 12.7806 13.5 12.5101 13.5H7.48995C7.21936 13.5 7 13.2806 7 13.0101V12.5616Z" />
  </symbol>

  <symbol id="project-status-backlog" viewBox="1 1 14 14" fill="#F2994A">
    <path d="M2 4.74695C2 4.68722 2.01039 4.62899 2.02989 4.57451L2.11601 4.42269C2.15266 4.37819 2.19711 4.33975 2.24806 4.30966L3.16473 3.76824L3.92054 5.08013L3.5 5.32852V5.8313H2V4.74695Z" />
    <path d="M4.8372 4.53871L4.0814 3.22682L5.91473 2.14398L6.67054 3.45588L4.8372 4.53871Z" />
    <path d="M7.5872 2.91446L6.8314 1.60257L7.74806 1.06115C7.7997 1.03065 7.85539 1.01027 7.91244 1H8.08756C8.14461 1.01027 8.2003 1.03065 8.25194 1.06115L9.1686 1.60257L8.4128 2.91446L8 2.67065L7.5872 2.91446Z" />
    <path d="M9.32946 3.45588L10.0853 2.14398L11.9186 3.22682L11.1628 4.53871L9.32946 3.45588Z" />
    <path d="M12.0795 5.08013L12.8353 3.76824L13.7519 4.30966C13.8029 4.33975 13.8473 4.37819 13.884 4.42269L13.9701 4.57451C13.9896 4.62899 14 4.68722 14 4.74695V5.8313H12.5V5.32852L12.0795 5.08013Z" />
    <path d="M12.5 6.91565H14V9.08435H12.5V6.91565Z" />
    <path d="M12.5 10.1687H14V11.253C14 11.3128 13.9896 11.371 13.9701 11.4255L13.884 11.5773C13.8473 11.6218 13.8029 11.6602 13.7519 11.6903L12.8353 12.2318L12.0795 10.9199L12.5 10.6715V10.1687Z" />
    <path d="M11.1628 11.4613L11.9186 12.7732L10.0853 13.856L9.32946 12.5441L11.1628 11.4613Z" />
    <path d="M8.4128 13.0855L9.1686 14.3974L8.25194 14.9389C8.2003 14.9694 8.14461 14.9897 8.08756 15H7.91244C7.85539 14.9897 7.7997 14.9694 7.74806 14.9389L6.8314 14.3974L7.5872 13.0855L8 13.3294L8.4128 13.0855Z" />
    <path d="M6.67054 12.5441L5.91473 13.856L4.0814 12.7732L4.8372 11.4613L6.67054 12.5441Z" />
    <path d="M3.92054 10.9199L3.16473 12.2318L2.24806 11.6903C2.19711 11.6602 2.15266 11.6218 2.11601 11.5773L2.02989 11.4255C2.01039 11.371 2 11.3128 2 11.253V10.1687H3.5V10.6715L3.92054 10.9199Z" />
    <path d="M3.5 9.08435H2V6.91565H3.5V9.08435Z" />
  </symbol>
  <symbol id="project-status-planned" viewBox="1 1 14 14" fill="#D7D8DB">
    <path fill-rule="evenodd" clip-rule="evenodd" d="M12.5 5.36133L8 2.73633L3.5 5.36133L3.5 10.6382L8 13.2632L12.5 10.6382L12.5 5.36133ZM8.75581 1.44066C8.28876 1.16822 7.71124 1.16822 7.24419 1.44066L2.74419 4.06566C2.28337 4.33448 2 4.82783 2 5.36133V10.6382C2 11.1717 2.28337 11.6651 2.74419 11.9339L7.24419 14.5589C7.71124 14.8313 8.28876 14.8313 8.75581 14.5589L13.2558 11.9339C13.7166 11.6651 14 11.1717 14 10.6382V5.36133C14 4.82783 13.7166 4.33448 13.2558 4.06566L8.75581 1.44066Z" />
  </symbol>
  <symbol id="project-status-in-progress" viewBox="1 1 14 14" fill="#F2C94C">
    <path d="M8.3779 4.74233C8.14438 4.60607 7.85562 4.60607 7.6221 4.74233L5.37209 6.05513C5.14168 6.18957 5 6.4363 5 6.70311V9.34216C5 9.60897 5.14168 9.85573 5.37209 9.99016L7.6221 11.303C7.85562 11.4392 8.14438 11.4392 8.3779 11.303L10.6279 9.99016C10.8583 9.85573 11 9.60897 11 9.34216V6.70311C11 6.4363 10.8583 6.18957 10.6279 6.05513L8.3779 4.74233Z" />
    <path fill-rule="evenodd" clip-rule="evenodd" d="M7.24419 1.44066C7.71124 1.16822 8.28876 1.16822 8.75581 1.44066L13.2558 4.06566C13.7166 4.33448 14 4.82783 14 5.36133V10.6382C14 11.1717 13.7166 11.6651 13.2558 11.9339L8.75581 14.5589C8.28876 14.8313 7.71124 14.8313 7.24419 14.5589L2.74419 11.9339C2.28337 11.6651 2 11.1717 2 10.6382V5.36133C2 4.82783 2.28337 4.33448 2.74419 4.06566L7.24419 1.44066ZM8 2.73633L12.5 5.36133V10.6382L8 13.2632L3.5 10.6382V5.36133L8 2.73633Z" />
  </symbol>
  <symbol id="project-status-paused" viewBox="1 1 14 14" fill="#8A8F98">
    <path fill-rule="evenodd" clip-rule="evenodd" d="M8.75581 1.21148C8.28876 0.929507 7.71124 0.929507 7.24419 1.21148L2.74419 3.92829C2.28337 4.20651 2 4.71711 2 5.26927V10.7307C2 11.2829 2.28337 11.7935 2.74419 12.0717L7.24419 14.7885C7.71124 15.0705 8.28876 15.0705 8.75581 14.7885L13.2558 12.0717C13.7166 11.7935 14 11.2829 14 10.7307V5.26927C14 4.71711 13.7166 4.20651 13.2558 3.92829L8.75581 1.21148ZM12.5 5.26928L8 2.55246L3.5 5.26927L3.5 10.7307L8 13.4475L12.5 10.7307L12.5 5.26928Z" />
    <path fill-rule="evenodd" clip-rule="evenodd" d="M6.5 5.75C6.91421 5.75 7.25 6.08579 7.25 6.5V9.5C7.25 9.91421 6.91421 10.25 6.5 10.25C6.08579 10.25 5.75 9.91421 5.75 9.5V6.5C5.75 6.08579 6.08579 5.75 6.5 5.75Z" />
    <path fill-rule="evenodd" clip-rule="evenodd" d="M9.5 5.75C9.91421 5.75 10.25 6.08579 10.25 6.5V9.5C10.25 9.91421 9.91421 10.25 9.5 10.25C9.08579 10.25 8.75 9.91421 8.75 9.5V6.5C8.75 6.08579 9.08579 5.75 9.5 5.75Z" />
  </symbol>
  <symbol id="project-status-completed" viewBox="1 1 14 14" fill="#5E6AD2">
    <path fill-rule="evenodd" clip-rule="evenodd" d="M12.5 5.125L8 2.5L3.5 5.125L3.5 10.4019L8 13.0269L12.5 10.4019L12.5 5.125ZM8.75581 1.20433C8.28876 0.93189 7.71124 0.931889 7.24419 1.20433L2.74419 3.82933C2.28337 4.09815 2 4.5915 2 5.125V10.4019C2 10.9354 2.28337 11.4287 2.74419 11.6976L7.24419 14.3226C7.71124 14.595 8.28876 14.595 8.75581 14.3226L13.2558 11.6976C13.7166 11.4287 14 10.9354 14 10.4019V5.125C14 4.5915 13.7166 4.09815 13.2558 3.82933L8.75581 1.20433Z" />
    <path fill-rule="evenodd" clip-rule="evenodd" d="M10.7381 5.69424C11.0526 5.96381 11.089 6.43728 10.8194 6.75178L7.81944 10.2518C7.68349 10.4104 7.48754 10.5051 7.27878 10.5131C7.07003 10.5212 6.86739 10.4417 6.71967 10.294L5.21967 8.79402C4.92678 8.50112 4.92678 8.02625 5.21967 7.73336C5.51256 7.44046 5.98744 7.44046 6.28033 7.73336L7.20764 8.66066L9.68056 5.77559C9.95012 5.4611 10.4236 5.42468 10.7381 5.69424Z" />
  </symbol>
  <symbol id="project-status-canceled" viewBox="1 1 14 14" fill="#8A8F98">
    <path d="M5.96967 5.96967C6.26256 5.67678 6.73744 5.67678 7.03033 5.96967L8 6.93934L8.96967 5.96967C9.26256 5.67678 9.73744 5.67678 10.0303 5.96967C10.3232 6.26256 10.3232 6.73744 10.0303 7.03033L9.06066 8L10.0303 8.96967C10.3232 9.26256 10.3232 9.73744 10.0303 10.0303C9.73744 10.3232 9.26256 10.3232 8.96967 10.0303L8 9.06066L7.03033 10.0303C6.73744 10.3232 6.26256 10.3232 5.96967 10.0303C5.67678 9.73744 5.67678 9.26256 5.96967 8.96967L6.93934 8L5.96967 7.03033C5.67678 6.73744 5.67678 6.26256 5.96967 5.96967Z" />
    <path fill-rule="evenodd" clip-rule="evenodd" d="M8.75581 1.21148C8.28876 0.929507 7.71124 0.929507 7.24419 1.21148L2.74419 3.92829C2.28337 4.20651 2 4.71711 2 5.26927V10.7307C2 11.2829 2.28337 11.7935 2.74419 12.0717L7.24419 14.7885C7.71124 15.0705 8.28876 15.0705 8.75581 14.7885L13.2558 12.0717C13.7166 11.7935 14 11.2829 14 10.7307V5.26927C14 4.71711 13.7166 4.20651 13.2558 3.92829L8.75581 1.21148ZM12.5 5.26928L8 2.55246L3.5 5.26927L3.5 10.7307L8 13.4475L12.5 10.7307L12.5 5.26928Z" />
  </symbol>

  <symbol id="copyID" viewBox="0 0 14 15">
    <path d="M7.81684 3.75744V3.75744C7.81123 3.831 7.86122 3.89725 7.9335 3.91202C8.22729 3.98537 8.42847 4.25589 8.41417 4.55835V5.37502C8.41417 5.7758 8.73906 6.10069 9.13983 6.10069C9.54061 6.10101 9.86576 5.77638 9.86608 5.3756C9.86608 5.37541 9.86608 5.37522 9.86608 5.37502V3.31877V3.31877C9.86608 2.83745 9.4759 2.44727 8.99459 2.44727C8.99342 2.44727 8.99225 2.44727 8.99108 2.44727H7.98542C7.94658 2.4471 7.90932 2.46267 7.88217 2.49044C7.85478 2.51781 7.83945 2.55497 7.83958 2.59369C7.84075 2.86961 7.84017 3.46402 7.81683 3.75744L7.81684 3.75744Z" />
    <path d="M5.22317 13.4029C5.22317 13.0022 4.89827 12.6773 4.4975 12.6773H2.03233C1.68869 12.6545 1.42802 12.3584 1.449 12.0146V4.55845C1.43301 4.25112 1.6402 3.97676 1.94017 3.90803C2.01096 3.89368 2.06058 3.82967 2.05683 3.75753C2.03408 3.3107 2.02708 2.8242 2.02475 2.59087C2.02379 2.51101 1.95878 2.44678 1.87892 2.44678H0.875001H0.875001C0.393689 2.44485 0.00194369 2.83346 7.02912e-06 3.31478C1.55273e-06 3.31614 -7.23664e-07 3.31751 1.99927e-07 3.31887V13.2571C1.27299e-07 13.7381 0.389923 14.128 0.870916 14.128C0.871111 14.128 0.871305 14.128 0.8715 14.128H4.4975C4.89804 14.128 5.22284 13.8035 5.22316 13.4029L5.22317 13.4029Z" />
    <path d="M6.96321 3.60887V2.44921C6.96321 2.28812 6.83263 2.15754 6.67154 2.15754H6.22938C6.15513 2.15744 6.09271 2.10179 6.08413 2.02804V2.02804C6.0124 1.39128 5.43806 0.933228 4.8013 1.00495C4.26335 1.06555 3.83881 1.4901 3.77821 2.02804C3.77014 2.10205 3.70741 2.15798 3.63296 2.15754H3.19255C3.03146 2.15754 2.90088 2.28812 2.90088 2.44921V3.60887C2.90088 3.76995 3.03146 3.90054 3.19255 3.90054H6.67329C6.83369 3.89958 6.96321 3.76927 6.96321 3.60887V3.60887Z" />
    <path d="M11.095 11.0737H8.77393C8.5323 11.0737 8.33643 11.2696 8.33643 11.5112C8.33643 11.7529 8.5323 11.9487 8.77393 11.9487H11.095C11.3366 11.9487 11.5325 11.7529 11.5325 11.5112C11.5325 11.2696 11.3366 11.0737 11.095 11.0737Z" />
    <path d="M8.33643 9.48203V9.48203C8.33675 9.72343 8.53253 9.91895 8.77393 9.91894H10.2241C10.4657 9.91894 10.6616 9.72307 10.6616 9.48145C10.6616 9.23982 10.4657 9.04395 10.2241 9.04395H8.77393C8.5323 9.04395 8.33643 9.23982 8.33643 9.48144C8.33643 9.48164 8.33643 9.48183 8.33643 9.48203H8.33643Z" />
    <path d="M13.7083 8.85193V8.85176C13.7083 8.54342 13.5857 8.24775 13.3675 8.02989L12.5474 7.21323C12.3292 6.99509 12.0334 6.87255 11.7249 6.87256H7.28817H7.28817C6.64695 6.87224 6.12654 7.39114 6.125 8.03235V13.8336V13.8336C6.125 14.4779 6.64733 15.0003 7.29167 15.0003H12.5417H12.5417C13.186 15.0003 13.7083 14.4779 13.7083 13.8336L13.7083 8.85193ZM7.29167 8.6186C7.29167 8.29643 7.55283 8.03526 7.875 8.03526H11.4841C11.6387 8.03514 11.787 8.09641 11.8965 8.2056L12.3737 8.6816C12.4832 8.79111 12.5447 8.9397 12.5446 9.0946V13.2503C12.5446 13.5724 12.2834 13.8336 11.9612 13.8336H7.87792C7.55575 13.8336 7.29458 13.5724 7.29458 13.2503L7.29167 8.6186Z" />
  </symbol>
  <symbol id="copyURL" viewBox="0 0 16 16">
    <path d="M9.30558 10.206C9.57224 10.4726 9.59447 10.8912 9.37225 11.1831L9.30558 11.2594L6.84751 13.7175C5.58692 14.9781 3.54311 14.9781 2.28252 13.7175C1.0654 12.5004 1.02344 10.5531 2.15661 9.28564L2.28252 9.15251L4.74059 6.69443C5.0315 6.40353 5.50315 6.40353 5.79405 6.69443C6.06071 6.9611 6.08294 7.37963 5.86072 7.67161L5.79405 7.74789L3.33598 10.206C2.6572 10.8847 2.6572 11.9853 3.33598 12.664C3.98082 13.3089 5.00628 13.3411 5.68918 12.7608L5.79405 12.664L8.25212 10.206C8.54303 9.91506 9.01468 9.91506 9.30558 10.206ZM9.82982 6.17019C10.1207 6.46109 10.1207 6.93274 9.82982 7.22365L7.34921 9.70427C7.0583 9.99518 6.58665 9.99518 6.29575 9.70427C6.00484 9.41337 6.00484 8.94172 6.29575 8.65081L8.77637 6.17019C9.06727 5.87928 9.53892 5.87928 9.82982 6.17019ZM13.7175 2.2825C14.9346 3.49962 14.9766 5.44688 13.8434 6.71436L13.7175 6.84749L11.2594 9.30557C10.9685 9.59647 10.4969 9.59647 10.206 9.30557C9.93931 9.03891 9.91709 8.62037 10.1393 8.32839L10.206 8.25211L12.664 5.79403C13.3428 5.11525 13.3428 4.01474 12.664 3.33596C12.0192 2.69112 10.9938 2.65888 10.3109 3.23923L10.206 3.33596L7.74791 5.79403C7.457 6.08494 6.98535 6.08494 6.69445 5.79403C6.42779 5.52737 6.40556 5.10883 6.62778 4.81686L6.69445 4.74057L9.15252 2.2825C10.4131 1.02191 12.4569 1.02191 13.7175 2.2825Z" />
  </symbol>
  <symbol id="copyBranch" viewBox="0 0 16 16">
    <path d="M12.6229 11.528V5.66666C12.5954 4.93866 12.3116 4.29467 11.7624 3.744C11.2132 3.19333 10.5907 2.89467 9.87669 2.86667H8.9613V1L6.21514 3.8L8.9613 6.6V4.73333H9.87669C10.1238 4.752 10.3161 4.836 10.5083 5.02267C10.7005 5.20933 10.7829 5.41466 10.7921 5.66666V11.528C10.4436 11.7327 10.1712 12.049 10.0172 12.4278C9.86328 12.8067 9.83642 13.2268 9.94083 13.6228C10.0452 14.0188 10.2751 14.3685 10.5945 14.6176C10.914 14.8666 11.3053 15.0011 11.7075 15C12.1096 15.0011 12.5009 14.8666 12.8204 14.6176C13.1399 14.3685 13.3697 14.0188 13.4741 13.6228C13.5785 13.2268 13.5517 12.8067 13.3977 12.4278C13.2438 12.049 12.9714 11.7327 12.6229 11.528ZM11.7075 14.2533C11.1033 14.2533 10.609 13.74 10.609 13.1333C10.609 12.5267 11.1125 12.0133 11.7075 12.0133C12.3025 12.0133 12.8059 12.5267 12.8059 13.1333C12.8059 13.74 12.3025 14.2533 11.7075 14.2533ZM6.21514 3.8C6.21514 2.764 5.40045 1.93333 4.38436 1.93333C3.98219 1.93225 3.59093 2.0667 3.27144 2.31576C2.95195 2.56483 2.72213 2.91456 2.61772 3.31057C2.51332 3.70657 2.54018 4.12665 2.69412 4.50548C2.84807 4.88432 3.12047 5.20066 3.46898 5.40533V11.528C3.12047 11.7327 2.84807 12.049 2.69412 12.4278C2.54018 12.8067 2.51332 13.2268 2.61772 13.6228C2.72213 14.0188 2.95195 14.3685 3.27144 14.6176C3.59093 14.8666 3.98219 15.0011 4.38436 15C4.78654 15.0011 5.1778 14.8666 5.49729 14.6176C5.81678 14.3685 6.0466 14.0188 6.15101 13.6228C6.25541 13.2268 6.22855 12.8067 6.07461 12.4278C5.92066 12.049 5.64826 11.7327 5.29975 11.528V5.40533C5.83983 5.088 6.21514 4.49067 6.21514 3.8ZM5.48283 13.1333C5.48283 13.7493 4.97937 14.2533 4.38436 14.2533C3.78936 14.2533 3.2859 13.74 3.2859 13.1333C3.2859 12.5267 3.78936 12.0133 4.38436 12.0133C4.97937 12.0133 5.48283 12.5267 5.48283 13.1333ZM4.38436 4.92C3.78021 4.92 3.2859 4.40667 3.2859 3.8C3.2859 3.19333 3.78936 2.68 4.38436 2.68C4.97937 2.68 5.48283 3.19333 5.48283 3.8C5.48283 4.40667 4.97937 4.92 4.38436 4.92Z" />
  </symbol>
  <symbol id="duplicate" viewBox="0 0 24 24">
    <path d="M17.1,1.2h-4.2C9,1.2,7.2,3,7.2,6.9v0.4H6.9C3,7.2,1.2,9,1.2,12.9v4.2c0,3.9,1.7,5.7,5.6,5.7h4.2 c3.9,0,5.6-1.7,5.6-5.7v-0.3h0.3c3.9,0,5.7-1.7,5.7-5.6V6.9C22.8,3,21,1.2,17.1,1.2z M15.2,17.1c0,3.1-1,4.2-4.1,4.2H6.9 c-3.1,0-4.1-1-4.1-4.2v-4.2c0-3.1,1-4.1,4.1-4.1H8h3.1c3.1,0,4.1,1,4.1,4.1V16V17.1z M21.2,11.1c0,3.1-1,4.1-4.2,4.1h-0.3v-2.4 c0-3.9-1.7-5.6-5.6-5.6H8.8V6.9c0-3.1,1-4.1,4.1-4.1h4.2c3.1,0,4.2,1,4.2,4.1V11.1z" />
  </symbol>
  <symbol id="sprint" viewBox="0 0 16 16" fill="none">
    <path d="M5.99935 3.33337H9.33268M9.33268 3.33337H12.666M9.33268 3.33337V12.6667M5.99935 12.6667H9.33268M9.33268 12.6667H12.666" stroke="currentColor"/>
    <path d="M1.33398 10H0.833984V10.5H1.33398V10ZM1.33398 10.5H7.33398V9.5H1.33398V10.5ZM7.33398 5.5H3.33398V6.5H7.33398V5.5ZM0.833984 8V10H1.83398V8H0.833984ZM3.33398 5.5C1.95327 5.5 0.833984 6.61929 0.833984 8H1.83398C1.83398 7.17157 2.50556 6.5 3.33398 6.5V5.5Z" fill="currentColor"/>
    <path d="M14.666 6H15.166V5.5H14.666V6ZM14.666 5.5H11.3327V6.5H14.666V5.5ZM11.3327 10.5H12.666V9.5H11.3327V10.5ZM15.166 8V6H14.166V8H15.166ZM12.666 10.5C14.0467 10.5 15.166 9.38071 15.166 8H14.166C14.166 8.82843 13.4944 9.5 12.666 9.5V10.5Z" fill="currentColor"/>
  </symbol>
  <symbol id="timeReport" viewBox="0 0 16 16" fill="none">
    <circle cx="7.99935" cy="7.99996" r="5.83333" stroke="currentColor"/>
    <path d="M10.8284 5.17157C10.0783 4.42143 9.06087 4 8 4C6.93913 4 5.92172 4.42143 5.17157 5.17157C4.42143 5.92172 4 6.93913 4 8C4 9.06087 4.42143 10.0783 5.17157 10.8284L8 8L10.8284 5.17157Z" fill="currentColor"/>
  </symbol>

</svg>
