<svg xmlns="http://www.w3.org/2000/svg" style="display: none;">
  <symbol id="tracker" viewBox="0 0 24 24">
    <g>
      <path d="M21.4,3.1c-0.2-0.2-0.6-0.2-0.8,0L11.1,13l-2.3-2.4c-0.2-0.2-0.6-0.2-0.8,0s-0.2,0.6,0,0.8l2.7,2.8 c0.1,0.1,0.3,0.2,0.4,0.2s0.3-0.1,0.4-0.2l9.9-10.4C21.7,3.7,21.7,3.3,21.4,3.1z"/>
      <path d="M19.2,11.4c-0.3,0-0.6,0.3-0.6,0.6v6.6c0,0.7-0.5,1.3-1.2,1.3H4.8c-0.7,0-1.2-0.6-1.2-1.3V5.4 c0-0.7,0.5-1.3,1.2-1.3h9.9c0.3,0,0.6-0.3,0.6-0.6S15,2.9,14.7,2.9H4.8C3.5,2.9,2.4,4,2.4,5.4v13.2c0,1.4,1.1,2.5,2.4,2.5h12.6 c1.3,0,2.4-1.1,2.4-2.5V12C19.8,11.7,19.5,11.4,19.2,11.4z"/>
    </g>
  </symbol>
  <symbol id="project" viewBox="0 0 16 16">
    <path d="M11.7,3.6h-1.1C10.4,2.7,9.7,2,8.8,2H7.2C6.3,2,5.6,2.7,5.4,3.6H4.3C3,3.6,2,4.6,2,5.9V8c0,0.2,0.1,0.3,0.2,0.4 C3.8,9.3,5.9,9.9,8,9.9c2.1,0,4.2-0.5,5.8-1.5C13.9,8.3,14,8.2,14,8V5.9C14,4.6,13,3.6,11.7,3.6z M7.2,3h1.5c0.4,0,0.6,0.2,0.8,0.6 H6.5C6.6,3.2,6.9,3,7.2,3z M13,7.7c-1.4,0.8-3.2,1.2-5,1.2c-1.8,0-3.6-0.4-5-1.2V5.9c0-0.7,0.6-1.3,1.3-1.3h7.4 c0.7,0,1.3,0.6,1.3,1.3V7.7z"/>
    <path d="M13.5,9.7c-0.3,0-0.5,0.2-0.5,0.5l-0.1,1.5c-0.1,0.8-0.7,1.3-1.4,1.3H4.5c-0.7,0-1.4-0.6-1.4-1.3L3,10.1 c0-0.3-0.3-0.5-0.5-0.5C2.2,9.7,2,9.9,2,10.2l0.1,1.5C2.2,13,3.3,14,4.5,14h6.9c1.3,0,2.3-1,2.4-2.3l0.1-1.5 C14,9.9,13.8,9.7,13.5,9.7z"/>
  </symbol>
  <symbol id="issue" viewBox="0 0 16 16">
    <path d="M13.3,8.3c-0.1,2.8-2.5,5.1-5.4,5.1C5,13.4,2.6,11,2.6,8c0-2.9,2.3-5.2,5.1-5.4c0.1-0.4,0.2-0.7,0.4-1c0,0-0.1,0-0.1,0 C4.4,1.7,1.6,4.5,1.6,8c0,3.5,2.9,6.4,6.4,6.4s6.4-2.9,6.4-6.4c0,0,0-0.1,0-0.1C14,8.1,13.7,8.2,13.3,8.3z"/>
    <ellipse cx="12.1" cy="3.9" rx="2.5" ry="2.5"/>
  </symbol>
  <symbol id="team" viewBox="0 0 24 24">
    <path d="M13,1h-2.2H9.4H6.6H5.2H3C1.9,1,1,1.9,1,3v10c0,1.1,0.9,2,2,2h2.2h1.4h2.8h1.4H13c1.1,0,2-0.9,2-2V3C15,1.9,14.1,1,13,1z M3,13.8c-0.4,0-0.8-0.4-0.8-0.8V3c0-0.4,0.4-0.8,0.8-0.8h2.2v11.6H3z M6.6,13.8V2.2h2.8v11.6H6.6z M13.8,13c0,0.4-0.4,0.8-0.8,0.8 h-2.2V2.2H13c0.4,0,0.8,0.4,0.8,0.8V13z"/>
  </symbol>
  <symbol id="document" viewBox="0 0 16 16">
    <path d="M8,14.5c-3.6,0-6.5-2.9-6.5-6.5S4.4,1.5,8,1.5s6.5,2.9,6.5,6.5S11.6,14.5,8,14.5z M8,2.5C5,2.5,2.5,5,2.5,8 c0,3,2.5,5.5,5.5,5.5c3,0,5.5-2.5,5.5-5.5C13.5,5,11,2.5,8,2.5z"/>
    <polygon points="7.4,10.7 5,8.4 5.7,7.6 7.3,9.3 10.3,5.7 11,6.3 "/>
  </symbol>
</svg>
