<svg xmlns="http://www.w3.org/2000/svg" style="display: none;">
  <symbol id="tracker" viewBox="0 0 24 24">
    <g>
      <path d="M21.4,3.1c-0.2-0.2-0.6-0.2-0.8,0L11.1,13l-2.3-2.4c-0.2-0.2-0.6-0.2-0.8,0s-0.2,0.6,0,0.8l2.7,2.8 c0.1,0.1,0.3,0.2,0.4,0.2s0.3-0.1,0.4-0.2l9.9-10.4C21.7,3.7,21.7,3.3,21.4,3.1z"/>
      <path d="M19.2,11.4c-0.3,0-0.6,0.3-0.6,0.6v6.6c0,0.7-0.5,1.3-1.2,1.3H4.8c-0.7,0-1.2-0.6-1.2-1.3V5.4 c0-0.7,0.5-1.3,1.2-1.3h9.9c0.3,0,0.6-0.3,0.6-0.6S15,2.9,14.7,2.9H4.8C3.5,2.9,2.4,4,2.4,5.4v13.2c0,1.4,1.1,2.5,2.4,2.5h12.6 c1.3,0,2.4-1.1,2.4-2.5V12C19.8,11.7,19.5,11.4,19.2,11.4z"/>
    </g>
  </symbol>
  <symbol id="project" viewBox="0 0 16 16">
    <path d="M11.7,3.6h-1.1C10.4,2.7,9.7,2,8.8,2H7.2C6.3,2,5.6,2.7,5.4,3.6H4.3C3,3.6,2,4.6,2,5.9V8c0,0.2,0.1,0.3,0.2,0.4 C3.8,9.3,5.9,9.9,8,9.9c2.1,0,4.2-0.5,5.8-1.5C13.9,8.3,14,8.2,14,8V5.9C14,4.6,13,3.6,11.7,3.6z M7.2,3h1.5c0.4,0,0.6,0.2,0.8,0.6 H6.5C6.6,3.2,6.9,3,7.2,3z M13,7.7c-1.4,0.8-3.2,1.2-5,1.2c-1.8,0-3.6-0.4-5-1.2V5.9c0-0.7,0.6-1.3,1.3-1.3h7.4 c0.7,0,1.3,0.6,1.3,1.3V7.7z"/>
    <path d="M13.5,9.7c-0.3,0-0.5,0.2-0.5,0.5l-0.1,1.5c-0.1,0.8-0.7,1.3-1.4,1.3H4.5c-0.7,0-1.4-0.6-1.4-1.3L3,10.1 c0-0.3-0.3-0.5-0.5-0.5C2.2,9.7,2,9.9,2,10.2l0.1,1.5C2.2,13,3.3,14,4.5,14h6.9c1.3,0,2.3-1,2.4-2.3l0.1-1.5 C14,9.9,13.8,9.7,13.5,9.7z"/>
  </symbol>
  <symbol id="issue" viewBox="0 0 16 16">
    <path d="M13.3,8.3c-0.1,2.8-2.5,5.1-5.4,5.1C5,13.4,2.6,11,2.6,8c0-2.9,2.3-5.2,5.1-5.4c0.1-0.4,0.2-0.7,0.4-1c0,0-0.1,0-0.1,0 C4.4,1.7,1.6,4.5,1.6,8c0,3.5,2.9,6.4,6.4,6.4s6.4-2.9,6.4-6.4c0,0,0-0.1,0-0.1C14,8.1,13.7,8.2,13.3,8.3z"/>
    <ellipse cx="12.1" cy="3.9" rx="2.5" ry="2.5"/>
  </symbol>
  <symbol id="team" viewBox="0 0 24 24">
    <path d="M13,1h-2.2H9.4H6.6H5.2H3C1.9,1,1,1.9,1,3v10c0,1.1,0.9,2,2,2h2.2h1.4h2.8h1.4H13c1.1,0,2-0.9,2-2V3C15,1.9,14.1,1,13,1z M3,13.8c-0.4,0-0.8-0.4-0.8-0.8V3c0-0.4,0.4-0.8,0.8-0.8h2.2v11.6H3z M6.6,13.8V2.2h2.8v11.6H6.6z M13.8,13c0,0.4-0.4,0.8-0.8,0.8 h-2.2V2.2H13c0.4,0,0.8,0.4,0.8,0.8V13z"/>
  </symbol>
  <symbol id="document" viewBox="0 0 16 16">
    <path d="M8,14.5c-3.6,0-6.5-2.9-6.5-6.5S4.4,1.5,8,1.5s6.5,2.9,6.5,6.5S11.6,14.5,8,14.5z M8,2.5C5,2.5,2.5,5,2.5,8 c0,3,2.5,5.5,5.5,5.5c3,0,5.5-2.5,5.5-5.5C13.5,5,11,2.5,8,2.5z"/>
    <polygon points="7.4,10.7 5,8.4 5.7,7.6 7.3,9.3 10.3,5.7 11,6.3 "/>
  </symbol>

  <symbol id="inbox" viewBox="0 0 16 16">
    <path d="M10.5914 1C11.9984 1 13.2164 1.97789 13.5205 3.35169L14.8819 9.50233C14.9604 9.85714 15 10.2195 15 10.5829V12.5181C15 13.8888 13.8888 15 12.5181 15H3.48193C2.1112 15 1 13.8888 1 12.5181V10.5829C1 10.2195 1.03962 9.85714 1.11815 9.50233L2.47949 3.35169C2.78356 1.97789 4.00156 1 5.4086 1H10.5914ZM10.5914 2.5H5.4086C4.70508 2.5 4.09608 2.98894 3.94405 3.67584L2.5827 9.82649L2.548 10.01L5.01028 10.0108C5.55851 10.0108 6.00293 10.4552 6.00293 11.0034C6.00293 11.5517 6.44735 11.9961 6.99557 11.9961H9.05948C9.6077 11.9961 10.0521 11.5517 10.0521 11.0034C10.0521 10.4552 10.4965 10.0108 11.0448 10.0108L13.4528 10.0102C13.4426 9.94867 13.4308 9.88742 13.4173 9.82649L12.056 3.67584C11.9039 2.98894 11.2949 2.5 10.5914 2.5Z"/>
  </symbol>
  <symbol id="myissues" viewBox="0 0 16 16">
    <path d="M14.2458 10C14.6255 10 14.9393 10.2822 14.9889 10.6482L14.9958 10.75V12.2475C14.9958 13.7083 13.8567 14.9034 12.4177 14.9922L12.2504 14.9975L10.7513 15C10.3371 15.0007 10.0007 14.6655 10 14.2513C9.99936 13.8716 10.281 13.5573 10.647 13.507L10.7487 13.5L12.2479 13.4975C12.8943 13.4964 13.4255 13.0047 13.4893 12.3751L13.4958 12.2475V10.75C13.4958 10.3358 13.8316 10 14.2458 10ZM1.75 10C2.16421 10 2.5 10.3358 2.5 10.75V12.2475C2.5 12.937 3.05836 13.4963 3.74789 13.4975L5.24703 13.5C5.66125 13.5007 5.99646 13.8371 5.99576 14.2513C5.99506 14.6655 5.65871 15.0007 5.2445 15L3.74535 14.9975C2.22839 14.9949 1 13.7644 1 12.2475V10.75C1 10.3358 1.33579 10 1.75 10ZM8 6C9.10457 6 10 6.89543 10 8C10 9.10457 9.10457 10 8 10C6.89543 10 6 9.10457 6 8C6 6.89543 6.89543 6 8 6ZM10.7513 1L12.2504 1.00254C13.7674 1.0051 14.9958 2.23556 14.9958 3.75253V5.25C14.9958 5.66422 14.66 6 14.2458 6C13.8316 6 13.4958 5.66422 13.4958 5.25V3.75253C13.4958 3.063 12.9374 2.5037 12.2479 2.50253L10.7487 2.5C10.3345 2.4993 9.9993 2.16295 10 1.74873C10.0007 1.33452 10.3371 0.999302 10.7513 1ZM5.24873 1C5.66295 0.999303 5.9993 1.33452 6 1.74873C6.0007 2.16295 5.66548 2.4993 5.25127 2.5L3.75212 2.50253C3.06259 2.5037 2.50424 3.063 2.50424 3.75253V5.25C2.50424 5.66422 2.16845 6 1.75424 6C1.34002 6 1.00424 5.66422 1.00424 5.25V3.75253C1.00424 2.23556 2.23262 1.0051 3.74959 1.00254L5.24873 1Z"/>
  </symbol>
  <symbol id="views" viewBox="0 0 16 16">
    <path d="M12.6541 10.7952L14.7544 11.6213C14.8576 11.6618 14.9394 11.7434 14.9801 11.8466C15.0511 12.0264 14.9828 12.2268 14.827 12.3284L14.755 12.3656L8.35645 14.8924C8.15935 14.9703 7.94372 14.9831 7.74052 14.9309L7.62035 14.8918L1.25259 12.3653C1.1499 12.3246 1.06864 12.2432 1.02806 12.1404C0.957068 11.9607 1.02536 11.7603 1.1812 11.6587L1.25319 11.6215L3.34307 10.7962L7.06917 12.2751C7.65895 12.5091 8.31525 12.5097 8.9054 12.2766L12.6541 10.7952ZM12.6541 6.77688L14.7544 7.60289C14.8576 7.64346 14.9394 7.72508 14.9801 7.82824C15.0511 8.00803 14.9828 8.20839 14.827 8.31004L14.755 8.3472L10.6001 9.98825L9.619 10.375L8.35645 10.8741L8.317 10.886L8.23566 10.9132C8.20301 10.9215 8.17004 10.9282 8.13688 10.9331C8.12585 10.9346 8.11547 10.936 8.10507 10.9372C8.02541 10.9468 7.94422 10.9464 7.86397 10.9363L7.74052 10.9126L7.62035 10.8735L6.391 10.385L5.38907 9.98825L1.25259 8.34697C1.1499 8.30623 1.06864 8.22483 1.02806 8.12208C0.957068 7.94229 1.02536 7.74192 1.1812 7.64029L1.25319 7.60312L3.34307 6.77788L7.06917 8.25677C7.65895 8.49078 8.31525 8.4913 8.9054 8.25824L12.6541 6.77688ZM7.62186 1.06989C7.85734 0.976906 8.11932 0.976697 8.35494 1.06931L14.7544 3.58452C14.8576 3.62509 14.9394 3.70671 14.9801 3.80987C15.0612 4.01534 14.9605 4.24769 14.755 4.32884L10.6001 5.96988L8.35565 6.856L8.27468 6.88396C8.25405 6.8901 8.23326 6.89557 8.21236 6.90036C8.09824 6.92674 7.98013 6.93258 7.86397 6.91788L7.74052 6.89419L7.62035 6.8551L1.25259 4.3286C1.1499 4.28786 1.06864 4.20646 1.02806 4.10371C0.946925 3.89823 1.04772 3.66589 1.25319 3.58475L7.62186 1.06989Z"/>
  </symbol>
  <symbol id="issues" viewBox="0 0 16 16">
    <path d="M12.5 11.2204C13.3829 10.8346 13.9999 9.95362 13.9999 8.92853V4.5C13.9999 3.11929 12.8806 2 11.4999 2H7.07132C6.04623 2 5.16524 2.61697 4.77942 3.49983L10 3.49983C11.3807 3.49983 12.5 4.61912 12.5 5.99983V11.2204ZM4.5 13.9998C3.11929 13.9998 2 12.8805 2 11.4998V7.07126C2 5.69055 3.11929 4.57126 4.5 4.57126L8.92853 4.57126C10.3092 4.57126 11.4285 5.69055 11.4285 7.07126V11.4998C11.4285 12.8805 10.3092 13.9998 8.92853 13.9998H4.5ZM8 9.49979C8 10.3282 7.32843 10.9998 6.5 10.9998C5.67157 10.9998 5 10.3282 5 9.49979C5 8.67136 5.67157 7.99979 6.5 7.99979C7.32843 7.99979 8 8.67136 8 9.49979ZM9.5 9.49979C9.5 11.1566 8.15685 12.4998 6.5 12.4998C4.84315 12.4998 3.5 11.1566 3.5 9.49979C3.5 7.84293 4.84315 6.49979 6.5 6.49979C8.15685 6.49979 9.5 7.84293 9.5 9.49979Z"/>
  </symbol>
  <symbol id="projects" viewBox="-3 -3 16 16">
    <path d="M3.45455 0H0.545455C0.244208 0 0 0.244208 0 0.545455V3.45455C0 3.75579 0.244208 4 0.545455 4H3.45455C3.75579 4 4 3.75579 4 3.45455V0.545455C4 0.244208 3.75579 0 3.45455 0Z"/>
    <path d="M9.95479 0H7.0457C6.74445 0 6.50024 0.244208 6.50024 0.545455V3.45455C6.50024 3.75579 6.74445 4 7.0457 4H9.95479C10.256 4 10.5002 3.75579 10.5002 3.45455V0.545455C10.5002 0.244208 10.256 0 9.95479 0Z"/>
    <path d="M3.45455 6.50024H0.545455C0.244208 6.50024 0 6.74445 0 7.0457V9.95479C0 10.256 0.244208 10.5002 0.545455 10.5002H3.45455C3.75579 10.5002 4 10.256 4 9.95479V7.0457C4 6.74445 3.75579 6.50024 3.45455 6.50024Z"/>
    <path d="M9.95479 6.50024H7.0457C6.74445 6.50024 6.50024 6.74445 6.50024 7.0457V9.95479C6.50024 10.256 6.74445 10.5002 7.0457 10.5002H9.95479C10.256 10.5002 10.5002 10.256 10.5002 9.95479V7.0457C10.5002 6.74445 10.256 6.50024 9.95479 6.50024Z"/>
  </symbol>
  <symbol id="newissue" viewBox="0 0 16 16">
    <path d="M14.7826 3.26359C15.1313 2.69123 15.0606 1.93115 14.5705 1.43492C14.0757 0.933932 13.3153 0.865765 12.7483 1.23041C13.2123 2.09277 13.9198 2.79999 14.7826 3.26359Z"/>
    <path d="M11.8171 2.11829L6.78472 7.18C7.77457 7.47517 8.57699 8.21908 8.95006 9.18198L13.9064 4.20208C13.0535 3.68436 12.3369 2.9696 11.8171 2.11829Z"/>
    <path d="M7.91486 10.1761C7.80538 9.1186 6.91913 8.30487 5.8592 8.29183C5.53827 8.92804 5.21105 9.90848 5.01729 10.5311C4.93355 10.8002 5.16675 11.0527 5.44262 10.9905C6.16831 10.8268 7.36057 10.5217 7.91486 10.1761Z"/>
    <path d="M4.75 2C2.67893 2 1 3.67893 1 5.75V11.25C1 13.3211 2.67893 15 4.75 15H10.2501C12.3212 15 14.0001 13.3211 14.0001 11.25V8C14.0001 7.58579 13.6643 7.25 13.2501 7.25C12.8359 7.25 12.5001 7.58579 12.5001 8V11.25C12.5001 12.4926 11.4927 13.5 10.2501 13.5H4.75C3.50736 13.5 2.5 12.4926 2.5 11.25V5.75C2.5 4.50736 3.50736 3.5 4.75 3.5H7C7.41421 3.5 7.75 3.16421 7.75 2.75C7.75 2.33579 7.41421 2 7 2H4.75Z"/>
  </symbol>
  <symbol id="magnifier" viewBox="1 1 13 13">
    <path d="M9.5 7C9.5 8.38071 8.38071 9.5 7 9.5C5.61929 9.5 4.5 8.38071 4.5 7C4.5 5.61929 5.61929 4.5 7 4.5C8.38071 4.5 9.5 5.61929 9.5 7ZM9.24822 10.3089C8.60751 10.745 7.83353 11 7 11C4.79086 11 3 9.20914 3 7C3 4.79086 4.79086 3 7 3C9.20914 3 11 4.79086 11 7C11 7.83353 10.745 8.60751 10.3089 9.24822L12.7803 11.7197C13.0732 12.0126 13.0732 12.4874 12.7803 12.7803C12.4874 13.0732 12.0126 13.0732 11.7197 12.7803L9.24822 10.3089Z" fill-rule="evenodd" clip-rule="evenodd"/>
  </symbol>
  <symbol id="home" viewBox="0 0 16 16" fill="#ff324cee">
    <path d="M4.92886 7.49494C4.99698 7.22733 5.21443 7 5.49057 7C5.76671 7 5.98416 7.22733 6.05228 7.49494C6.27254 8.36012 7.05683 9 7.99057 9C8.92431 9 9.7086 8.36012 9.92886 7.49494C9.99698 7.22733 10.2144 7 10.4906 7C10.7667 7 10.9842 7.22733 11.0523 7.49494C11.2725 8.36012 12.0568 9 12.9906 9C14.0154 9 14.8602 8.22917 14.9768 7.23566C14.9949 7.08147 14.9544 6.92771 14.885 6.78885L12.267 1.55279C12.0976 1.214 11.7513 1 11.3725 1H4.6086C4.22983 1 3.88357 1.214 3.71418 1.55279L1.09614 6.78885C1.02672 6.92771 0.98621 7.08147 1.00431 7.23566C1.12092 8.22917 1.96573 9 2.99057 9C3.92431 9 4.7086 8.36012 4.92886 7.49494Z"/>
    <path d="M3.01079 10C4.05518 10 4.97364 9.46684 5.51079 8.65844C6.04793 9.46684 6.9664 10 8.01079 10C9.05518 10 9.97365 9.46684 10.5108 8.65844C11.0479 9.46684 11.9664 10 13.0108 10C13.3538 10 13.6833 9.94247 13.9902 9.83653V13.5C13.9902 14.3284 13.3187 15 12.4902 15H10.5C10.2239 15 10 14.7761 10 14.5V13C10 12.4477 9.55229 12 9 12H7C6.44772 12 6 12.4477 6 13V14.5C6 14.7761 5.77614 15 5.5 15H3.49023C2.66181 15 1.99023 14.3284 1.99023 13.5V9.82201C2.30876 9.9372 2.6524 10 3.01079 10Z"/>
  </symbol>

  <symbol id="status-backlog" viewBox="0 0 14 14">
    <path fill="#bec2c8" d="M13.9408 7.91426L11.9576 7.65557C11.9855 7.4419 12 7.22314 12 7C12 6.77686 11.9855 6.5581 11.9576 6.34443L13.9408 6.08573C13.9799 6.38496 14 6.69013 14 7C14 7.30987 13.9799 7.61504 13.9408 7.91426ZM13.4688 4.32049C13.2328 3.7514 12.9239 3.22019 12.5538 2.73851L10.968 3.95716C11.2328 4.30185 11.4533 4.68119 11.6214 5.08659L13.4688 4.32049ZM11.2615 1.4462L10.0428 3.03204C9.69815 2.76716 9.31881 2.54673 8.91341 2.37862L9.67951 0.531163C10.2486 0.767153 10.7798 1.07605 11.2615 1.4462ZM7.91426 0.0591659L7.65557 2.04237C7.4419 2.01449 7.22314 2 7 2C6.77686 2 6.5581 2.01449 6.34443 2.04237L6.08574 0.059166C6.38496 0.0201343 6.69013 0 7 0C7.30987 0 7.61504 0.0201343 7.91426 0.0591659ZM4.32049 0.531164L5.08659 2.37862C4.68119 2.54673 4.30185 2.76716 3.95716 3.03204L2.73851 1.4462C3.22019 1.07605 3.7514 0.767153 4.32049 0.531164ZM1.4462 2.73851L3.03204 3.95716C2.76716 4.30185 2.54673 4.68119 2.37862 5.08659L0.531164 4.32049C0.767153 3.7514 1.07605 3.22019 1.4462 2.73851ZM0.0591659 6.08574C0.0201343 6.38496 0 6.69013 0 7C0 7.30987 0.0201343 7.61504 0.059166 7.91426L2.04237 7.65557C2.01449 7.4419 2 7.22314 2 7C2 6.77686 2.01449 6.5581 2.04237 6.34443L0.0591659 6.08574ZM0.531164 9.67951L2.37862 8.91341C2.54673 9.31881 2.76716 9.69815 3.03204 10.0428L1.4462 11.2615C1.07605 10.7798 0.767153 10.2486 0.531164 9.67951ZM2.73851 12.5538L3.95716 10.968C4.30185 11.2328 4.68119 11.4533 5.08659 11.6214L4.32049 13.4688C3.7514 13.2328 3.22019 12.9239 2.73851 12.5538ZM6.08574 13.9408L6.34443 11.9576C6.5581 11.9855 6.77686 12 7 12C7.22314 12 7.4419 11.9855 7.65557 11.9576L7.91427 13.9408C7.61504 13.9799 7.30987 14 7 14C6.69013 14 6.38496 13.9799 6.08574 13.9408ZM9.67951 13.4688L8.91341 11.6214C9.31881 11.4533 9.69815 11.2328 10.0428 10.968L11.2615 12.5538C10.7798 12.9239 10.2486 13.2328 9.67951 13.4688ZM12.5538 11.2615L10.968 10.0428C11.2328 9.69815 11.4533 9.31881 11.6214 8.91341L13.4688 9.67951C13.2328 10.2486 12.924 10.7798 12.5538 11.2615Z" />
  </symbol>
  <symbol id="status-todo" viewBox="0 0 14 14">
    <rect x="1" y="1" width="12" height="12" rx="6" stroke="#e2e2e2" stroke-width="2" fill="none" />
    <path fill="#e2e2e2" stroke="none" d="M 3.5,3.5 L3.5,0 A3.5,3.5 0 0,1 3.5, 0 z" transform="translate(3.5,3.5)" />
  </symbol>
  <symbol id="status-inprogress" viewBox="0 0 14 14">
    <rect x="1" y="1" width="12" height="12" rx="6" stroke="#f2c94c" stroke-width="2" fill="none" />
    <path fill="#f2c94c" stroke="none" d="M 3.5,3.5 L3.5,0 A3.5,3.5 0 0,1 3.5, 7 z" transform="translate(3.5,3.5)" />
  </symbol>
  <symbol id="status-done" viewBox="0 0 14 14">
    <path fill="#5e6ad2" stroke="#5e6ad2" d="M9.54541 3.54541L9.89896 3.89896L9.54541 3.54541L5.5 7.59081L4.45459 6.54541C3.92739 6.0182 3.07261 6.0182 2.54541 6.54541C2.0182 7.07261 2.0182 7.92739 2.54541 8.45459L4.54541 10.4546C5.07261 10.9818 5.92739 10.9818 6.45459 10.4546L11.4546 5.45459C11.9818 4.92739 11.9818 4.07261 11.4546 3.54541L11.101 3.89896L11.4546 3.54541C10.9274 3.0182 10.0726 3.0182 9.54541 3.54541ZM0.5 7C0.5 3.41015 3.41015 0.5 7 0.5C10.5899 0.5 13.5 3.41015 13.5 7C13.5 10.5899 10.5899 13.5 7 13.5C3.41015 13.5 0.5 10.5899 0.5 7Z" />
  </symbol>
  <symbol id="status-canceled" viewBox="0 0 14 14">
    <path fill="#95a2b3" fill-rule="evenodd" d="M7 14C10.866 14 14 10.866 14 7C14 3.13401 10.866 0 7 0C3.13401 0 0 3.13401 0 7C0 10.866 3.13401 14 7 14ZM5.03033 3.96967C4.73744 3.67678 4.26256 3.67678 3.96967 3.96967C3.67678 4.26256 3.67678 4.73744 3.96967 5.03033L5.93934 7L3.96967 8.96967C3.67678 9.26256 3.67678 9.73744 3.96967 10.0303C4.26256 10.3232 4.73744 10.3232 5.03033 10.0303L7 8.06066L8.96967 10.0303C9.26256 10.3232 9.73744 10.3232 10.0303 10.0303C10.3232 9.73744 10.3232 9.26256 10.0303 8.96967L8.06066 7L10.0303 5.03033C10.3232 4.73744 10.3232 4.26256 10.0303 3.96967C9.73744 3.67678 9.26256 3.67678 8.96967 3.96967L7 5.93934L5.03033 3.96967Z" />
  </symbol>

  <symbol id="priority-nopriority" viewBox="0 0 14 14">
    <rect width="2" height="2" rx="1" transform="matrix(-1 0 0 1 5 6)" />
    <rect width="2" height="2" rx="1" transform="matrix(-1 0 0 1 8 6)" />
    <rect width="2" height="2" rx="1" transform="matrix(-1 0 0 1 11 6)" />
  </symbol>
  <symbol id="priority-urgent" viewBox="0 0 16 16">
    <path d="M2 0a2 2 0 00-2 2v10a2 2 0 002 2h10a2 2 0 002-2V2a2 2 0 00-2-2H2zm3.914 3h1.738L7.5 8.602H6.07L5.914 3zm1.809 7.164a.95.95 0 01-.938.938.934.934 0 110-1.867c.5 0 .934.417.938.93z" />
  </symbol>
  <symbol id="priority-high" viewBox="0 0 16 16">
    <rect x="1" y="8" width="3" height="6" rx="1" />
    <rect x="6" y="5" width="3" height="9" rx="1" />
    <rect x="11" y="2" width="3" height="12" rx="1" />
  </symbol>
  <symbol id="priority-medium" viewBox="0 0 16 16">
    <rect x="1" y="8" width="3" height="6" rx="1" />
    <rect x="6" y="5" width="3" height="9" rx="1" />
    <rect x="11" y="2" width="3" height="12" rx="1" fill-opacity=".4" />
  </symbol>
  <symbol id="priority-low" viewBox="0 0 16 16">
    <rect x="1" y="8" width="3" height="6" rx="1" />
    <rect x="6" y="5" width="3" height="9" rx="1" fill-opacity=".4" />
    <rect x="11" y="2" width="3" height="12" rx="1" fill-opacity=".4" />
  </symbol>
</svg>
