<svg xmlns="http://www.w3.org/2000/svg" style="display: none;">
  <symbol id="tracker" viewBox="0 0 32 32">
    <path fill-rule="evenodd" clip-rule="evenodd" d="M4 8C4 5.79086 5.79086 4 8 4H21C21.5523 4 22 4.44772 22 5C22 5.55228 21.5523 6 21 6H8C6.89543 6 6 6.89543 6 8V24C6 25.1046 6.89543 26 8 26H24C25.1046 26 26 25.1046 26 24V17C26 16.4477 26.4477 16 27 16C27.5523 16 28 16.4477 28 17V24C28 26.2091 26.2091 28 24 28H8C5.79086 28 4 26.2091 4 24V8ZM29.7071 6.29289C30.0976 6.68342 30.0976 7.31658 29.7071 7.70711L17.7071 19.7071C17.3166 20.0976 16.6834 20.0976 16.2929 19.7071L10.2929 13.7071C9.90237 13.3166 9.90237 12.6834 10.2929 12.2929C10.6834 11.9024 11.3166 11.9024 11.7071 12.2929L17 17.5858L28.2929 6.29289C28.6834 5.90237 29.3166 5.90237 29.7071 6.29289Z" />
  </symbol>
  <symbol id="scrum" viewBox="0 0 16 16">
    <g transform="matrix(0.00357, 0, 0, -0.003573, -1.147394, 17.149212)">
      <path d="M1001 4784 c-253 -68 -410 -331 -346 -579 45 -170 180 -306 347 -349 l52 -13 -110 -5 c-182 -9 -312 -66 -439 -194 -51 -51 -82 -93 -113 -155 -67 -132 -73 -183 -70 -530 3 -283 4 -299 24 -325 11 -15 33 -37 48 -48 27 -20 40 -21 541 -24 l513 -3 -43 -92 c-78 -167 -113 -310 -122 -492 -16 -344 108 -676 349 -930 l80 -85 -645 -2 c-634 -3 -646 -3 -673 -24 -53 -39 -69 -71 -69 -134 0 -63 16 -95 69 -134 l27 -21 1916 -3 1915 -2 -40 -44 c-68 -74 -69 -161 -3 -227 41 -41 88 -55 149 -44 31 5 67 36 234 203 281 281 281 263 0 544 -167 167 -203 198 -234 203 -61 11 -108 -3 -149 -44 -66 -66 -65 -153 3 -227 l41 -44 -423 0 -422 0 80 85 c135 142 225 293 287 478 102 308 81 642 -60 944 l-43 92 513 3 c501 3 514 4 541 24 15 11 37 33 48 48 20 26 21 40 21 359 l0 332 -27 73 c-38 105 -83 176 -158 252 -123 122 -255 179 -434 188 l-110 5 53 14 c167 42 301 179 346 350 65 249 -94 511 -350 578 -251 65 -513 -94 -580 -350 -64 -249 95 -514 347 -579 l52 -13 -110 -6 c-126 -6 -206 -29 -305 -87 -76 -45 -162 -126 -204 -193 -17 -26 -32 -47 -35 -47 -3 0 -16 19 -30 42 -38 63 -134 154 -208 197 -100 59 -179 82 -306 88 l-110 6 52 13 c252 65 411 330 347 579 -67 256 -329 415 -580 350 -256 -67 -415 -329 -350 -578 45 -171 179 -308 346 -350 l53 -14 -110 -6 c-126 -6 -206 -29 -305 -88 -73 -42 -170 -134 -209 -198 -14 -22 -27 -41 -30 -41 -3 0 -18 20 -33 45 -42 66 -132 151 -206 195 -99 58 -179 81 -305 87 l-110 6 53 14 c251 64 410 330 346 576 -67 259 -333 419 -584 351z m182 -318 c103 -43 128 -177 48 -257 -112 -113 -296 -12 -267 146 18 94 128 150 219 111z m1440 0 c103 -43 128 -177 48 -257 -112 -113 -296 -12 -267 146 18 94 128 150 219 111z m1440 0 c103 -43 128 -177 48 -257 -112 -113 -296 -12 -267 146 18 94 128 150 219 111z m-2653 -975 c76 -40 115 -77 151 -143 l34 -63 3 -202 3 -203 -481 0 -481 0 3 203 c3 188 5 205 27 249 40 82 120 150 211 179 14 4 129 7 255 6 221 -2 232 -3 275 -26z m1440 0 c76 -40 115 -77 150 -143 30 -55 35 -75 38 -152 4 -79 3 -88 -12 -83 -129 50 -328 87 -466 87 -134 0 -341 -38 -464 -86 -18 -7 -18 -2 -14 82 7 135 64 231 170 285 71 37 85 38 323 36 221 -2 232 -3 275 -26z m1440 0 c76 -40 115 -77 151 -143 l34 -63 3 -202 3 -203 -481 0 -481 0 3 203 c3 188 5 205 27 249 40 82 121 150 211 179 14 4 129 7 255 6 221 -2 232 -3 275 -26z m-1499 -640 c179 -46 319 -127 449 -260 129 -130 212 -278 257 -457 24 -95 24 -333 0 -428 -46 -182 -128 -328 -261 -462 -134 -133 -280 -215 -462 -261 -95 -24 -333 -24 -428 0 -182 46 -328 128 -462 261 -133 134 -215 280 -261 462 -24 95 -24 333 0 428 45 179 128 327 257 457 147 150 309 236 513 275 100 19 299 12 398 -15z"/>
      <path d="M2980 2549 c-14 -5 -128 -113 -255 -239 l-230 -229 -237 -3 c-221 -3 -238 -4 -264 -24 -53 -39 -69 -71 -69 -134 0 -63 16 -95 69 -134 26 -20 43 -21 304 -24 171 -2 290 1 312 7 26 8 103 79 307 283 292 293 295 297 279 383 -17 91 -127 149 -216 114z"/>
    </g>
  </symbol>
  <symbol id="start" viewBox="-5 -3 24 24">
    <path d="M2.067,0.043C2.21-0.028,2.372-0.008,2.493,0.085l13.312,8.503c0.094,0.078,0.154,0.191,0.154,0.313c0,0.12-0.061,0.237-0.154,0.314L2.492,17.717c-0.07,0.057-0.162,0.087-0.25,0.087l-0.176-0.04c-0.136-0.065-0.222-0.207-0.222-0.361V0.402C1.844,0.25,1.93,0.107,2.067,0.043z" />
  </symbol>
  <symbol id="stop" viewBox="-4 -4 16 16">
    <rect width="8" height="8"/>
  </symbol>
  <symbol id="component" viewBox="0 0 16 16">
    <path fill-rule="evenodd" clip-rule="evenodd" d="M7.50516 2.20452L2.20446 7.50522C1.93121 7.77847 1.93121 8.2215 2.20446 8.49476L7.50519 13.7955C7.77845 14.0687 8.22148 14.0687 8.49473 13.7955L13.7954 8.49481C14.0687 8.22156 14.0687 7.77853 13.7954 7.50528L8.4947 2.20452C8.22145 1.93127 7.77842 1.93127 7.50516 2.20452ZM1.49765 6.79841L6.79835 1.49771C7.46196 0.834095 8.5379 0.834096 9.20152 1.49772L14.5022 6.79847C15.1658 7.46209 15.1658 8.53801 14.5022 9.20162L9.20154 14.5023C8.53793 15.1659 7.462 15.1659 6.79838 14.5023L1.49765 9.20157C0.834037 8.53796 0.834034 7.46202 1.49765 6.79841Z" />
  </symbol>
  <symbol id="issue" viewBox="0 0 16 16">
    <path d="M15.5 2.50001L8 10L4.5 6.50001L5.20711 5.79291L8 8.5858L14.7929 1.79291L15.5 2.50001Z" />
    <path d="M3.5 2C2.67157 2 2 2.67157 2 3.5V12.5C2 13.3284 2.67157 14 3.5 14H12.5C13.3284 14 14 13.3284 14 12.5V8H13V12.5C13 12.7761 12.7761 13 12.5 13H3.5C3.22386 13 3 12.7761 3 12.5V3.5C3 3.22386 3.22386 3 3.5 3H11V2H3.5Z" />
  </symbol>
  <symbol id="sub-issue" viewBox="0 0 16 16">
    <path fill-rule="evenodd" clip-rule="evenodd" d="M8.73444 2.19183C8.27831 1.93589 7.72169 1.93589 7.26556 2.19183L1.25519 5.56425C1.09757 5.65269 1 5.81925 1 5.99988C1 6.1805 1.09757 6.34706 1.25519 6.4355L4.04323 7.99988L1.25519 9.56425C1.09757 9.65269 1 9.81925 1 9.99988C1 10.1805 1.09757 10.3471 1.25519 10.4355L7.26556 13.8079C7.72169 14.0639 8.27831 14.0639 8.73444 13.8079L14.7448 10.4355C14.9024 10.3471 15 10.1805 15 9.99988C15 9.81925 14.9024 9.65269 14.7448 9.56425L11.9568 7.99988L14.7448 6.4355C14.9024 6.34706 15 6.1805 15 5.99988C15 5.81925 14.9024 5.65269 14.7448 5.56425L8.73444 2.19183ZM7.75519 3.06308C7.90723 2.97777 8.09277 2.97777 8.24481 3.06308L13.4788 5.99988L8.24481 8.93668C8.09277 9.02199 7.90723 9.02199 7.75519 8.93668L2.52119 5.99988L7.75519 3.06308Z" />
  </symbol>
  <symbol id="parent-issue" viewBox="0 0 16 16">
    <path fill-rule="evenodd" clip-rule="evenodd" d="M8.73444 2.19183C8.27831 1.93589 7.72169 1.93589 7.26556 2.19183L1.25519 5.56425C1.09757 5.65269 1 5.81925 1 5.99988C1 6.1805 1.09757 6.34706 1.25519 6.4355L4.04323 7.99988L1.25519 9.56425C1.09757 9.65269 1 9.81925 1 9.99988C1 10.1805 1.09757 10.3471 1.25519 10.4355L7.26556 13.8079C7.72169 14.0639 8.27831 14.0639 8.73444 13.8079L14.7448 10.4355C14.9024 10.3471 15 10.1805 15 9.99988C15 9.81925 14.9024 9.65269 14.7448 9.56425L11.9568 7.99988L14.7448 6.4355C14.9024 6.34706 15 6.1805 15 5.99988C15 5.81925 14.9024 5.65269 14.7448 5.56425L8.73444 2.19183ZM5.06442 8.57287L7.26556 9.80793C7.72169 10.0639 8.27831 10.0639 8.73444 9.80793L10.9356 8.57287L13.4788 9.99988L8.24481 12.9367C8.09277 13.022 7.90723 13.022 7.75519 12.9367L2.52119 9.99988L5.06442 8.57287Z" />
  </symbol>
  <symbol id="new-issue" viewBox="0 0 16 16">
    <path d="M8 14.5C8 14.2239 8.22386 14 8.5 14H14.5C14.7761 14 15 14.2239 15 14.5C15 14.7761 14.7761 15 14.5 15H8.5C8.22386 15 8 14.7761 8 14.5Z" />
    <path fill-rule="evenodd" clip-rule="evenodd" d="M12.5607 1.43934C11.9749 0.853553 11.0251 0.853553 10.4394 1.43934L1.43934 10.4394C1.15804 10.7207 1 11.1022 1 11.5V14.5C1 14.7761 1.22386 15 1.5 15H4.50002C4.89784 15 5.27937 14.842 5.56068 14.5607L14.5607 5.56066C15.1465 4.97487 15.1465 4.02513 14.5607 3.43934L12.5607 1.43934ZM11.1465 2.14645C11.3417 1.95118 11.6583 1.95118 11.8536 2.14645L13.8536 4.14645C14.0488 4.34171 14.0488 4.65829 13.8536 4.85355L11.9571 6.74998L9.25004 4.04287L11.1465 2.14645ZM8.54293 4.74998L2.14645 11.1465C2.05268 11.2402 2 11.3674 2 11.5V14H4.50002C4.63263 14 4.7598 13.9473 4.85357 13.8536L11.25 7.45708L8.54293 4.74998Z" />
  </symbol>
  <symbol id="dueDate" viewBox="0 0 16 16">
    <path d="M8 4C8 3.72386 7.77614 3.5 7.5 3.5C7.22386 3.5 7 3.72386 7 4V8.5C7 8.77614 7.22386 9 7.5 9H10.5C10.7761 9 11 8.77614 11 8.5C11 8.22386 10.7761 8 10.5 8L8 8V4Z" />
    <path fill-rule="evenodd" clip-rule="evenodd" d="M15 8C15 11.866 11.866 15 8 15C4.13401 15 1 11.866 1 8C1 4.13401 4.13401 1 8 1C11.866 1 15 4.13401 15 8ZM14 8C14 11.3137 11.3137 14 8 14C4.68629 14 2 11.3137 2 8C2 4.68629 4.68629 2 8 2C11.3137 2 14 4.68629 14 8Z" />
  </symbol>
  <symbol id="project" viewBox="0 0 24 24">
    <path d="M15.5 2.50001L8 10L4.5 6.50001L5.20711 5.79291L8 8.5858L14.7929 1.79291L15.5 2.50001Z" />
    <path d="M3.5 2C2.67157 2 2 2.67157 2 3.5V12.5C2 13.3284 2.67157 14 3.5 14H12.5C13.3284 14 14 13.3284 14 12.5V8H13V12.5C13 12.7761 12.7761 13 12.5 13H3.5C3.22386 13 3 12.7761 3 12.5V3.5C3 3.22386 3.22386 3 3.5 3H11V2H3.5Z" />
  </symbol>
  <symbol id="relations" viewBox="0 0 16 16">
    <path d="M8 0.999878C6.61553 0.999878 5.26216 1.41042 4.11101 2.17959C2.95987 2.94876 2.06266 4.04201 1.53285 5.32109C1.00303 6.60018 0.86441 8.00764 1.13451 9.36551C1.4046 10.7234 2.07129 11.9707 3.05026 12.9496C4.02922 13.9286 5.2765 14.5953 6.63437 14.8654C7.99224 15.1355 9.3997 14.9968 10.6788 14.467C11.9579 13.9372 13.0511 13.04 13.8203 11.8889C14.5895 10.7377 15 9.38435 15 7.99988C15 6.14336 14.2625 4.36288 12.9497 3.05013C11.637 1.73738 9.85652 0.999878 8 0.999878ZM8 13.9999C6.81332 13.9999 5.65328 13.648 4.66658 12.9887C3.67989 12.3294 2.91085 11.3923 2.45673 10.296C2.0026 9.19962 1.88378 7.99322 2.11529 6.82934C2.3468 5.66545 2.91825 4.59635 3.75736 3.75724C4.59648 2.91812 5.66558 2.34668 6.82946 2.11517C7.99335 1.88365 9.19975 2.00247 10.2961 2.4566C11.3925 2.91073 12.3295 3.67976 12.9888 4.66646C13.6481 5.65315 14 6.81319 14 7.99988C14 9.59118 13.3679 11.1173 12.2426 12.2425C11.1174 13.3677 9.5913 13.9999 8 13.9999Z" />
    <path fill-rule="evenodd" clip-rule="evenodd" d="M11.3536 5.64645C11.5488 5.84171 11.5488 6.15829 11.3536 6.35355L7.35355 10.3536C7.15829 10.5488 6.84171 10.5488 6.64645 10.3536L4.64645 8.35355C4.45118 8.15829 4.45118 7.84171 4.64645 7.64645C4.84171 7.45118 5.15829 7.45118 5.35355 7.64645L7 9.29289L10.6464 5.64645C10.8417 5.45118 11.1583 5.45118 11.3536 5.64645Z" />
  </symbol>

  <symbol id="inbox" viewBox="0 0 16 16">
    <path d="M10.5914 1C11.9984 1 13.2164 1.97789 13.5205 3.35169L14.8819 9.50233C14.9604 9.85714 15 10.2195 15 10.5829V12.5181C15 13.8888 13.8888 15 12.5181 15H3.48193C2.1112 15 1 13.8888 1 12.5181V10.5829C1 10.2195 1.03962 9.85714 1.11815 9.50233L2.47949 3.35169C2.78356 1.97789 4.00156 1 5.4086 1H10.5914ZM10.5914 2.5H5.4086C4.70508 2.5 4.09608 2.98894 3.94405 3.67584L2.5827 9.82649L2.548 10.01L5.01028 10.0108C5.55851 10.0108 6.00293 10.4552 6.00293 11.0034C6.00293 11.5517 6.44735 11.9961 6.99557 11.9961H9.05948C9.6077 11.9961 10.0521 11.5517 10.0521 11.0034C10.0521 10.4552 10.4965 10.0108 11.0448 10.0108L13.4528 10.0102C13.4426 9.94867 13.4308 9.88742 13.4173 9.82649L12.056 3.67584C11.9039 2.98894 11.2949 2.5 10.5914 2.5Z"/>
  </symbol>
  <symbol id="myissues" viewBox="0 0 16 16">
    <path d="M8,1C4.1,1,1,4.1,1,8c0,3.9,3.1,7,7,7c3.9,0,7-3.1,7-7C15,4.1,11.9,1,8,1z M9,13.9L8,11l-1,2.9C4.5,13.5,2.5,11.5,2.1,9L5,8L2.1,7C2.5,4.5,4.5,2.5,7,2.1L8,5l1-2.9c2.5,0.4,4.5,2.4,4.9,4.9L11,8l2.9,1C13.5,11.5,11.5,13.5,9,13.9z" />
  </symbol>
  <symbol id="issues" viewBox="0 0 16 16">
    <path d="M15.5 2.50001L8 10L4.5 6.50001L5.20711 5.79291L8 8.5858L14.7929 1.79291L15.5 2.50001Z" />
    <path d="M3.5 2C2.67157 2 2 2.67157 2 3.5V12.5C2 13.3284 2.67157 14 3.5 14H12.5C13.3284 14 14 13.3284 14 12.5V8H13V12.5C13 12.7761 12.7761 13 12.5 13H3.5C3.22386 13 3 12.7761 3 12.5V3.5C3 3.22386 3.22386 3 3.5 3H11V2H3.5Z" />
  </symbol>
  <symbol id="views" viewBox="0 0 16 16">
    <path d="M12.6541 10.7952L14.7544 11.6213C14.8576 11.6618 14.9394 11.7434 14.9801 11.8466C15.0511 12.0264 14.9828 12.2268 14.827 12.3284L14.755 12.3656L8.35645 14.8924C8.15935 14.9703 7.94372 14.9831 7.74052 14.9309L7.62035 14.8918L1.25259 12.3653C1.1499 12.3246 1.06864 12.2432 1.02806 12.1404C0.957068 11.9607 1.02536 11.7603 1.1812 11.6587L1.25319 11.6215L3.34307 10.7962L7.06917 12.2751C7.65895 12.5091 8.31525 12.5097 8.9054 12.2766L12.6541 10.7952ZM12.6541 6.77688L14.7544 7.60289C14.8576 7.64346 14.9394 7.72508 14.9801 7.82824C15.0511 8.00803 14.9828 8.20839 14.827 8.31004L14.755 8.3472L10.6001 9.98825L9.619 10.375L8.35645 10.8741L8.317 10.886L8.23566 10.9132C8.20301 10.9215 8.17004 10.9282 8.13688 10.9331C8.12585 10.9346 8.11547 10.936 8.10507 10.9372C8.02541 10.9468 7.94422 10.9464 7.86397 10.9363L7.74052 10.9126L7.62035 10.8735L6.391 10.385L5.38907 9.98825L1.25259 8.34697C1.1499 8.30623 1.06864 8.22483 1.02806 8.12208C0.957068 7.94229 1.02536 7.74192 1.1812 7.64029L1.25319 7.60312L3.34307 6.77788L7.06917 8.25677C7.65895 8.49078 8.31525 8.4913 8.9054 8.25824L12.6541 6.77688ZM7.62186 1.06989C7.85734 0.976906 8.11932 0.976697 8.35494 1.06931L14.7544 3.58452C14.8576 3.62509 14.9394 3.70671 14.9801 3.80987C15.0612 4.01534 14.9605 4.24769 14.755 4.32884L10.6001 5.96988L8.35565 6.856L8.27468 6.88396C8.25405 6.8901 8.23326 6.89557 8.21236 6.90036C8.09824 6.92674 7.98013 6.93258 7.86397 6.91788L7.74052 6.89419L7.62035 6.8551L1.25259 4.3286C1.1499 4.28786 1.06864 4.20646 1.02806 4.10371C0.946925 3.89823 1.04772 3.66589 1.25319 3.58475L7.62186 1.06989Z"/>
  </symbol>
  <symbol id="issues" viewBox="0 0 16 16">
    <path d="M12.5 11.2204C13.3829 10.8346 13.9999 9.95362 13.9999 8.92853V4.5C13.9999 3.11929 12.8806 2 11.4999 2H7.07132C6.04623 2 5.16524 2.61697 4.77942 3.49983L10 3.49983C11.3807 3.49983 12.5 4.61912 12.5 5.99983V11.2204ZM4.5 13.9998C3.11929 13.9998 2 12.8805 2 11.4998V7.07126C2 5.69055 3.11929 4.57126 4.5 4.57126L8.92853 4.57126C10.3092 4.57126 11.4285 5.69055 11.4285 7.07126V11.4998C11.4285 12.8805 10.3092 13.9998 8.92853 13.9998H4.5ZM8 9.49979C8 10.3282 7.32843 10.9998 6.5 10.9998C5.67157 10.9998 5 10.3282 5 9.49979C5 8.67136 5.67157 7.99979 6.5 7.99979C7.32843 7.99979 8 8.67136 8 9.49979ZM9.5 9.49979C9.5 11.1566 8.15685 12.4998 6.5 12.4998C4.84315 12.4998 3.5 11.1566 3.5 9.49979C3.5 7.84293 4.84315 6.49979 6.5 6.49979C8.15685 6.49979 9.5 7.84293 9.5 9.49979Z"/>
  </symbol>
  <symbol id="components" viewBox="0 0 16 16">
    <path fill-rule="evenodd" clip-rule="evenodd" d="M7.50518 2.20452L2.20448 7.50522C1.93122 7.77847 1.93122 8.2215 2.20448 8.49476L7.50521 13.7955C7.77846 14.0687 8.22149 14.0687 8.49475 13.7955L13.7954 8.49481C14.0687 8.22156 14.0687 7.77853 13.7954 7.50528L8.49472 2.20452C8.22146 1.93127 7.77843 1.93127 7.50518 2.20452ZM1.49766 6.79841L6.79836 1.49771C7.46198 0.834095 8.53792 0.834096 9.20153 1.49772L14.5022 6.79847C15.1659 7.46209 15.1659 8.53801 14.5022 9.20162L9.20156 14.5023C8.53794 15.1659 7.46201 15.1659 6.7984 14.5023L1.49767 9.20157C0.834052 8.53796 0.834049 7.46202 1.49766 6.79841Z" />
  </symbol>
  <symbol id="magnifier" viewBox="1 1 13 13">
    <path d="M9.5 7C9.5 8.38071 8.38071 9.5 7 9.5C5.61929 9.5 4.5 8.38071 4.5 7C4.5 5.61929 5.61929 4.5 7 4.5C8.38071 4.5 9.5 5.61929 9.5 7ZM9.24822 10.3089C8.60751 10.745 7.83353 11 7 11C4.79086 11 3 9.20914 3 7C3 4.79086 4.79086 3 7 3C9.20914 3 11 4.79086 11 7C11 7.83353 10.745 8.60751 10.3089 9.24822L12.7803 11.7197C13.0732 12.0126 13.0732 12.4874 12.7803 12.7803C12.4874 13.0732 12.0126 13.0732 11.7197 12.7803L9.24822 10.3089Z" fill-rule="evenodd" clip-rule="evenodd"/>
  </symbol>
  <symbol id="home" viewBox="0 0 16 16">
    <path fill-rule="evenodd" clip-rule="evenodd" d="M8 1L13.8838 5.29644C14.271 5.5788 14.5 6.0292 14.5 6.50845V12.5C14.5 13.3284 13.8284 14 13 14H3C2.17157 14 1.5 13.3284 1.5 12.5V6.50845C1.5 6.0292 1.729 5.5788 2.11624 5.29644L8 1Z"/>
  </symbol>
  <symbol id="red-circle" viewBox="0 0 14 14">
    <path d="M7,0C3.1,0,0,3.1,0,7c0,3.9,3.1,7,7,7c3.9,0,7-3.1,7-7C14,3.1,10.9,0,7,0z M7,12c-2.8,0-5-2.2-5-5s2.2-5,5-5s5,2.2,5,5S9.8,12,7,12z" />
  </symbol>

  <symbol id="status-backlog" viewBox="0 0 16 16">
    <path d="M2.08293 7.00003C2.50445 4.48753 4.48747 2.50451 6.99997 2.08299V1.07092C3.93428 1.50944 1.50937 3.93434 1.07086 7.00003H2.08293Z" />
    <path d="M2.08293 9.00003H1.07086C1.50937 12.0657 3.93428 14.4906 6.99997 14.9291V13.9171C4.48747 13.4956 2.50445 11.5125 2.08293 9.00003Z" />
    <path d="M13.917 9.00003H14.9291C14.4906 12.0657 12.0657 14.4906 8.99997 14.9291V13.9171C11.5125 13.4956 13.4955 11.5125 13.917 9.00003Z" />
    <path d="M14.9291 7.00003C14.4906 3.93434 12.0657 1.50944 8.99997 1.07092V2.08299C11.5125 2.50451 13.4955 4.48753 13.917 7.00003H14.9291Z" />
  </symbol>
  <symbol id="status-todo" viewBox="0 0 14 14">
    <path d="M7,0C3.1,0,0,3.1,0,7c0,3.9,3.1,7,7,7c3.9,0,7-3.1,7-7C14,3.1,10.9,0,7,0z M7,12c-2.8,0-5-2.2-5-5s2.2-5,5-5s5,2.2,5,5S9.8,12,7,12z" />
  </symbol>
  <symbol id="status-inprogress" viewBox="0 0 14 14">
    <path d="M7,0C3.1,0,0,3.1,0,7c0,3.9,3.1,7,7,7c3.9,0,7-3.1,7-7C14,3.1,10.9,0,7,0z M7,12c-2.8,0-5-2.2-5-5s2.2-5,5-5s5,2.2,5,5S9.8,12,7,12z" />
    <path d="M7,7V3.5c1.9,0,3.5,1.6,3.5,3.5S8.9,10.5,7,10.5V7z" />
  </symbol>
  <symbol id="status-done" viewBox="0 0 14 14">
    <path d="M7,0C3.1,0,0,3.1,0,7c0,3.9,3.1,7,7,7c3.9,0,7-3.1,7-7C14,3.1,10.9,0,7,0z M9.9,3.9c0.3-0.3,0.8-0.3,1.2,0l0,0c0.3,0.3,0.3,0.9,0,1.2l-5,5c-0.3,0.3-0.9,0.3-1.2,0l-2-2c-0.3-0.3-0.3-0.9,0-1.2c0.2-0.2,0.4-0.2,0.6-0.2s0.4,0.1,0.6,0.2l1.4,1.4l4-4v0L9.9,3.9z" />
  </symbol>
  <symbol id="status-canceled" viewBox="0 0 14 14">
    <path style="fill-rule:evenodd;clip-rule:evenodd;" d="M7,14c3.9,0,7-3.1,7-7c0-3.9-3.1-7-7-7C3.1,0,0,3.1,0,7C0,10.9,3.1,14,7,14z M5,4C4.7,3.7,4.3,3.7,4,4S3.7,4.7,4,5l2,2L4,9C3.7,9.3,3.7,9.7,4,10c0.3,0.3,0.8,0.3,1.1,0l2-2l2,2c0.3,0.3,0.8,0.3,1.1,0c0.3-0.3,0.3-0.8,0-1.1l-2-2l2-2c0.3-0.3,0.3-0.8,0-1.1C9.7,3.7,9.3,3.7,9,4l-2,2L5,4z" />
  </symbol>

  <symbol id="priority-nopriority" viewBox="0 0 16 16">
    <rect opacity="0.6" x="2" y="7.5" width="12" height="1" rx="0.5" />
  </symbol>
  <symbol id="priority-urgent" viewBox="0 0 16 16">
    <path fill="var(--theme-urgent-color)" fill-rule="evenodd" clip-rule="evenodd" d="M2 4C2 2.89543 2.89543 2 4 2H12C13.1046 2 14 2.89543 14 4V12C14 13.1046 13.1046 14 12 14H4C2.89543 14 2 13.1046 2 12V4ZM9 11C9 11.5523 8.55229 12 8 12C7.44772 12 7 11.5523 7 11C7 10.4477 7.44772 10 8 10C8.55229 10 9 10.4477 9 11ZM8.97375 4.52497C8.98803 4.23938 8.76032 4 8.47438 4H7.52562C7.23968 4 7.01197 4.23938 7.02625 4.52497L7.21255 8.25094C7.23353 8.67055 7.57986 9 8 9C8.42014 9 8.76647 8.67055 8.78745 8.25094L8.97375 4.52497Z" />
  </symbol>
  <symbol id="priority-high" viewBox="0 0 16 16">
    <path d="M3 10.5C3 10.2239 3.22386 10 3.5 10H4.5C4.77614 10 5 10.2239 5 10.5V13.5C5 13.7761 4.77614 14 4.5 14H3.5C3.22386 14 3 13.7761 3 13.5V10.5Z" />
    <path d="M7 6.5C7 6.22386 7.22386 6 7.5 6H8.5C8.77614 6 9 6.22386 9 6.5V13.5C9 13.7761 8.77614 14 8.5 14H7.5C7.22386 14 7 13.7761 7 13.5V6.5Z" />
    <path d="M11 2.5C11 2.22386 11.2239 2 11.5 2H12.5C12.7761 2 13 2.22386 13 2.5V13.5C13 13.7761 12.7761 14 12.5 14H11.5C11.2239 14 11 13.7761 11 13.5V2.5Z" />
  </symbol>
  <symbol id="priority-medium" viewBox="0 0 16 16">
    <path d="M3 10.5C3 10.2239 3.22386 10 3.5 10H4.5C4.77614 10 5 10.2239 5 10.5V13.5C5 13.7761 4.77614 14 4.5 14H3.5C3.22386 14 3 13.7761 3 13.5V10.5Z" />
    <path d="M7 6.5C7 6.22386 7.22386 6 7.5 6H8.5C8.77614 6 9 6.22386 9 6.5V13.5C9 13.7761 8.77614 14 8.5 14H7.5C7.22386 14 7 13.7761 7 13.5V6.5Z" />
    <path d="M11 2.5C11 2.22386 11.2239 2 11.5 2H12.5C12.7761 2 13 2.22386 13 2.5V13.5C13 13.7761 12.7761 14 12.5 14H11.5C11.2239 14 11 13.7761 11 13.5V2.5Z" fill-opacity="0.3"/>
  </symbol>
  <symbol id="priority-low" viewBox="0 0 16 16">
    <path d="M3 10.5C3 10.2239 3.22386 10 3.5 10H4.5C4.77614 10 5 10.2239 5 10.5V13.5C5 13.7761 4.77614 14 4.5 14H3.5C3.22386 14 3 13.7761 3 13.5V10.5Z" />
    <path d="M7 6.5C7 6.22386 7.22386 6 7.5 6H8.5C8.77614 6 9 6.22386 9 6.5V13.5C9 13.7761 8.77614 14 8.5 14H7.5C7.22386 14 7 13.7761 7 13.5V6.5Z" fill-opacity="0.3"/>
    <path d="M11 2.5C11 2.22386 11.2239 2 11.5 2H12.5C12.7761 2 13 2.22386 13 2.5V13.5C13 13.7761 12.7761 14 12.5 14H11.5C11.2239 14 11 13.7761 11 13.5V2.5Z" fill-opacity="0.3"/>
  </symbol>

  <symbol id="list" viewBox="0 0 16 16">
    <path d="M1 1.8C1 1.51997 1 1.37996 1.0545 1.273C1.10243 1.17892 1.17892 1.10243 1.273 1.0545C1.37996 1 1.51997 1 1.8 1H14.2C14.48 1 14.62 1 14.727 1.0545C14.8211 1.10243 14.8976 1.17892 14.9455 1.273C15 1.37996 15 1.51997 15 1.8V2.2C15 2.48003 15 2.62004 14.9455 2.727C14.8976 2.82108 14.8211 2.89757 14.727 2.9455C14.62 3 14.48 3 14.2 3H1.8C1.51997 3 1.37996 3 1.273 2.9455C1.17892 2.89757 1.10243 2.82108 1.0545 2.727C1 2.62004 1 2.48003 1 2.2V1.8Z" />
    <path d="M1 13.8C1 13.52 1 13.38 1.0545 13.273C1.10243 13.1789 1.17892 13.1024 1.273 13.0545C1.37996 13 1.51997 13 1.8 13H14.2C14.48 13 14.62 13 14.727 13.0545C14.8211 13.1024 14.8976 13.1789 14.9455 13.273C15 13.38 15 13.52 15 13.8V14.2C15 14.48 15 14.62 14.9455 14.727C14.8976 14.8211 14.8211 14.8976 14.727 14.9455C14.62 15 14.48 15 14.2 15H1.8C1.51997 15 1.37996 15 1.273 14.9455C1.17892 14.8976 1.10243 14.8211 1.0545 14.727C1 14.62 1 14.48 1 14.2V13.8Z" />
    <path d="M1 9.8C1 9.51997 1 9.37996 1.0545 9.273C1.10243 9.17892 1.17892 9.10243 1.273 9.0545C1.37996 9 1.51997 9 1.8 9H14.2C14.48 9 14.62 9 14.727 9.0545C14.8211 9.10243 14.8976 9.17892 14.9455 9.273C15 9.37996 15 9.51997 15 9.8V10.2C15 10.48 15 10.62 14.9455 10.727C14.8976 10.8211 14.8211 10.8976 14.727 10.9455C14.62 11 14.48 11 14.2 11H1.8C1.51997 11 1.37996 11 1.273 10.9455C1.17892 10.8976 1.10243 10.8211 1.0545 10.727C1 10.62 1 10.48 1 10.2V9.8Z" />
    <path d="M1 5.8C1 5.51997 1 5.37996 1.0545 5.273C1.10243 5.17892 1.17892 5.10243 1.273 5.0545C1.37996 5 1.51997 5 1.8 5H14.2C14.48 5 14.62 5 14.727 5.0545C14.8211 5.10243 14.8976 5.17892 14.9455 5.273C15 5.37996 15 5.51997 15 5.8V6.2C15 6.48003 15 6.62004 14.9455 6.727C14.8976 6.82108 14.8211 6.89757 14.727 6.9455C14.62 7 14.48 7 14.2 7H1.8C1.51997 7 1.37996 7 1.273 6.9455C1.17892 6.89757 1.10243 6.82108 1.0545 6.727C1 6.62004 1 6.48003 1 6.2V5.8Z" />
  </symbol>
  <symbol id="timeline" viewBox="0 0 14 14">
    <rect x="6" y="1" width="7" height="2.5" rx="0.5" />
    <rect x="1" y="5.75" width="9" height="2.5" rx="0.5" />
    <rect x="4" y="10.5" width="9" height="2.5" rx="0.5" />
  </symbol>

  <symbol id="component-status-backlog" viewBox="1 1 14 14" fill="#F2994A">
    <path d="M2 4.74695C2 4.68722 2.01039 4.62899 2.02989 4.57451L2.11601 4.42269C2.15266 4.37819 2.19711 4.33975 2.24806 4.30966L3.16473 3.76824L3.92054 5.08013L3.5 5.32852V5.8313H2V4.74695Z" />
    <path d="M4.8372 4.53871L4.0814 3.22682L5.91473 2.14398L6.67054 3.45588L4.8372 4.53871Z" />
    <path d="M7.5872 2.91446L6.8314 1.60257L7.74806 1.06115C7.7997 1.03065 7.85539 1.01027 7.91244 1H8.08756C8.14461 1.01027 8.2003 1.03065 8.25194 1.06115L9.1686 1.60257L8.4128 2.91446L8 2.67065L7.5872 2.91446Z" />
    <path d="M9.32946 3.45588L10.0853 2.14398L11.9186 3.22682L11.1628 4.53871L9.32946 3.45588Z" />
    <path d="M12.0795 5.08013L12.8353 3.76824L13.7519 4.30966C13.8029 4.33975 13.8473 4.37819 13.884 4.42269L13.9701 4.57451C13.9896 4.62899 14 4.68722 14 4.74695V5.8313H12.5V5.32852L12.0795 5.08013Z" />
    <path d="M12.5 6.91565H14V9.08435H12.5V6.91565Z" />
    <path d="M12.5 10.1687H14V11.253C14 11.3128 13.9896 11.371 13.9701 11.4255L13.884 11.5773C13.8473 11.6218 13.8029 11.6602 13.7519 11.6903L12.8353 12.2318L12.0795 10.9199L12.5 10.6715V10.1687Z" />
    <path d="M11.1628 11.4613L11.9186 12.7732L10.0853 13.856L9.32946 12.5441L11.1628 11.4613Z" />
    <path d="M8.4128 13.0855L9.1686 14.3974L8.25194 14.9389C8.2003 14.9694 8.14461 14.9897 8.08756 15H7.91244C7.85539 14.9897 7.7997 14.9694 7.74806 14.9389L6.8314 14.3974L7.5872 13.0855L8 13.3294L8.4128 13.0855Z" />
    <path d="M6.67054 12.5441L5.91473 13.856L4.0814 12.7732L4.8372 11.4613L6.67054 12.5441Z" />
    <path d="M3.92054 10.9199L3.16473 12.2318L2.24806 11.6903C2.19711 11.6602 2.15266 11.6218 2.11601 11.5773L2.02989 11.4255C2.01039 11.371 2 11.3128 2 11.253V10.1687H3.5V10.6715L3.92054 10.9199Z" />
    <path d="M3.5 9.08435H2V6.91565H3.5V9.08435Z" />
  </symbol>
  <symbol id="component-status-planned" viewBox="1 1 14 14" fill="#D7D8DB">
    <path fill-rule="evenodd" clip-rule="evenodd" d="M12.5 5.36133L8 2.73633L3.5 5.36133L3.5 10.6382L8 13.2632L12.5 10.6382L12.5 5.36133ZM8.75581 1.44066C8.28876 1.16822 7.71124 1.16822 7.24419 1.44066L2.74419 4.06566C2.28337 4.33448 2 4.82783 2 5.36133V10.6382C2 11.1717 2.28337 11.6651 2.74419 11.9339L7.24419 14.5589C7.71124 14.8313 8.28876 14.8313 8.75581 14.5589L13.2558 11.9339C13.7166 11.6651 14 11.1717 14 10.6382V5.36133C14 4.82783 13.7166 4.33448 13.2558 4.06566L8.75581 1.44066Z" />
  </symbol>
  <symbol id="component-status-in-progress" viewBox="1 1 14 14" fill="#F2C94C">
    <path d="M8.3779 4.74233C8.14438 4.60607 7.85562 4.60607 7.6221 4.74233L5.37209 6.05513C5.14168 6.18957 5 6.4363 5 6.70311V9.34216C5 9.60897 5.14168 9.85573 5.37209 9.99016L7.6221 11.303C7.85562 11.4392 8.14438 11.4392 8.3779 11.303L10.6279 9.99016C10.8583 9.85573 11 9.60897 11 9.34216V6.70311C11 6.4363 10.8583 6.18957 10.6279 6.05513L8.3779 4.74233Z" />
    <path fill-rule="evenodd" clip-rule="evenodd" d="M7.24419 1.44066C7.71124 1.16822 8.28876 1.16822 8.75581 1.44066L13.2558 4.06566C13.7166 4.33448 14 4.82783 14 5.36133V10.6382C14 11.1717 13.7166 11.6651 13.2558 11.9339L8.75581 14.5589C8.28876 14.8313 7.71124 14.8313 7.24419 14.5589L2.74419 11.9339C2.28337 11.6651 2 11.1717 2 10.6382V5.36133C2 4.82783 2.28337 4.33448 2.74419 4.06566L7.24419 1.44066ZM8 2.73633L12.5 5.36133V10.6382L8 13.2632L3.5 10.6382V5.36133L8 2.73633Z" />
  </symbol>
  <symbol id="component-status-paused" viewBox="1 1 14 14" fill="#8A8F98">
    <path fill-rule="evenodd" clip-rule="evenodd" d="M8.75581 1.21148C8.28876 0.929507 7.71124 0.929507 7.24419 1.21148L2.74419 3.92829C2.28337 4.20651 2 4.71711 2 5.26927V10.7307C2 11.2829 2.28337 11.7935 2.74419 12.0717L7.24419 14.7885C7.71124 15.0705 8.28876 15.0705 8.75581 14.7885L13.2558 12.0717C13.7166 11.7935 14 11.2829 14 10.7307V5.26927C14 4.71711 13.7166 4.20651 13.2558 3.92829L8.75581 1.21148ZM12.5 5.26928L8 2.55246L3.5 5.26927L3.5 10.7307L8 13.4475L12.5 10.7307L12.5 5.26928Z" />
    <path fill-rule="evenodd" clip-rule="evenodd" d="M6.5 5.75C6.91421 5.75 7.25 6.08579 7.25 6.5V9.5C7.25 9.91421 6.91421 10.25 6.5 10.25C6.08579 10.25 5.75 9.91421 5.75 9.5V6.5C5.75 6.08579 6.08579 5.75 6.5 5.75Z" />
    <path fill-rule="evenodd" clip-rule="evenodd" d="M9.5 5.75C9.91421 5.75 10.25 6.08579 10.25 6.5V9.5C10.25 9.91421 9.91421 10.25 9.5 10.25C9.08579 10.25 8.75 9.91421 8.75 9.5V6.5C8.75 6.08579 9.08579 5.75 9.5 5.75Z" />
  </symbol>
  <symbol id="component-status-completed" viewBox="1 1 14 14" fill="#5E6AD2">
    <path fill-rule="evenodd" clip-rule="evenodd" d="M12.5 5.125L8 2.5L3.5 5.125L3.5 10.4019L8 13.0269L12.5 10.4019L12.5 5.125ZM8.75581 1.20433C8.28876 0.93189 7.71124 0.931889 7.24419 1.20433L2.74419 3.82933C2.28337 4.09815 2 4.5915 2 5.125V10.4019C2 10.9354 2.28337 11.4287 2.74419 11.6976L7.24419 14.3226C7.71124 14.595 8.28876 14.595 8.75581 14.3226L13.2558 11.6976C13.7166 11.4287 14 10.9354 14 10.4019V5.125C14 4.5915 13.7166 4.09815 13.2558 3.82933L8.75581 1.20433Z" />
    <path fill-rule="evenodd" clip-rule="evenodd" d="M10.7381 5.69424C11.0526 5.96381 11.089 6.43728 10.8194 6.75178L7.81944 10.2518C7.68349 10.4104 7.48754 10.5051 7.27878 10.5131C7.07003 10.5212 6.86739 10.4417 6.71967 10.294L5.21967 8.79402C4.92678 8.50112 4.92678 8.02625 5.21967 7.73336C5.51256 7.44046 5.98744 7.44046 6.28033 7.73336L7.20764 8.66066L9.68056 5.77559C9.95012 5.4611 10.4236 5.42468 10.7381 5.69424Z" />
  </symbol>
  <symbol id="component-status-canceled" viewBox="1 1 14 14" fill="#8A8F98">
    <path d="M5.96967 5.96967C6.26256 5.67678 6.73744 5.67678 7.03033 5.96967L8 6.93934L8.96967 5.96967C9.26256 5.67678 9.73744 5.67678 10.0303 5.96967C10.3232 6.26256 10.3232 6.73744 10.0303 7.03033L9.06066 8L10.0303 8.96967C10.3232 9.26256 10.3232 9.73744 10.0303 10.0303C9.73744 10.3232 9.26256 10.3232 8.96967 10.0303L8 9.06066L7.03033 10.0303C6.73744 10.3232 6.26256 10.3232 5.96967 10.0303C5.67678 9.73744 5.67678 9.26256 5.96967 8.96967L6.93934 8L5.96967 7.03033C5.67678 6.73744 5.67678 6.26256 5.96967 5.96967Z" />
    <path fill-rule="evenodd" clip-rule="evenodd" d="M8.75581 1.21148C8.28876 0.929507 7.71124 0.929507 7.24419 1.21148L2.74419 3.92829C2.28337 4.20651 2 4.71711 2 5.26927V10.7307C2 11.2829 2.28337 11.7935 2.74419 12.0717L7.24419 14.7885C7.71124 15.0705 8.28876 15.0705 8.75581 14.7885L13.2558 12.0717C13.7166 11.7935 14 11.2829 14 10.7307V5.26927C14 4.71711 13.7166 4.20651 13.2558 3.92829L8.75581 1.21148ZM12.5 5.26928L8 2.55246L3.5 5.26927L3.5 10.7307L8 13.4475L12.5 10.7307L12.5 5.26928Z" />
  </symbol>

  <symbol id="copyBranch" viewBox="0 0 16 16">
    <path fill-rule="evenodd" clip-rule="evenodd" d="M4.39378 5.36368C4.52069 4.85602 4.97683 4.49988 5.50012 4.49988C6.02341 4.49988 6.47954 4.85602 6.60646 5.36368L7.98519 10.8786C8.05216 11.1465 7.88928 11.418 7.62139 11.4849C7.35349 11.5519 7.08202 11.389 7.01505 11.1211L6.60973 9.49988H4.39051L3.98519 11.1211C3.91822 11.389 3.64675 11.5519 3.37885 11.4849C3.11095 11.418 2.94807 11.1465 3.01505 10.8786L4.39378 5.36368ZM6.35973 8.49988L5.63631 5.60622C5.62069 5.54372 5.56454 5.49988 5.50012 5.49988C5.4357 5.49988 5.37955 5.54372 5.36392 5.60622L4.64051 8.49988H6.35973Z" />
    <path fill-rule="evenodd" clip-rule="evenodd" d="M10 6.49988C9.44772 6.49988 9 6.94759 9 7.49988C9 7.77602 9.22386 7.99988 9.5 7.99988C9.77614 7.99988 10 7.77602 10 7.49988H11C11.2761 7.49988 11.5 7.72374 11.5 7.99988V8.49988H10C9.17157 8.49988 8.5 9.17145 8.5 9.99988C8.5 10.8283 9.17157 11.4999 10 11.4999H10.6459C10.9564 11.4999 11.2626 11.4276 11.5403 11.2887L11.9013 11.1083L12.1464 11.3534C12.3417 11.5487 12.6583 11.5487 12.8536 11.3534C13.0488 11.1582 13.0488 10.8416 12.8536 10.6463L12.5 10.2928V7.99988C12.5 7.17145 11.8284 6.49988 11 6.49988H10ZM10 9.49988H11.5V10.1909L11.0931 10.3943C10.9543 10.4637 10.8011 10.4999 10.6459 10.4999H10C9.72386 10.4999 9.5 10.276 9.5 9.99988C9.5 9.72374 9.72386 9.49988 10 9.49988Z" />
    <path fill-rule="evenodd" clip-rule="evenodd" d="M1 3.99988C1 2.89531 1.89543 1.99988 3 1.99988H13C14.1046 1.99988 15 2.89531 15 3.99988V11.9999C15 13.1044 14.1046 13.9999 13 13.9999H3C1.89543 13.9999 1 13.1044 1 11.9999V3.99988ZM3 2.99988C2.44772 2.99988 2 3.44759 2 3.99988V11.9999C2 12.5522 2.44772 12.9999 3 12.9999H13C13.5523 12.9999 14 12.5522 14 11.9999V3.99988C14 3.44759 13.5523 2.99988 13 2.99988H3Z" />
  </symbol>
  <symbol id="duplicate" viewBox="0 0 16 16">
    <path fill-rule="evenodd" clip-rule="evenodd" d="M5 3C5 1.89543 5.89543 1 7 1H12C13.1046 1 14 1.89543 14 3V10C14 11.1046 13.1046 12 12 12H7C5.89543 12 5 11.1046 5 10V3ZM7 2C6.44772 2 6 2.44772 6 3V10C6 10.5523 6.44772 11 7 11H12C12.5523 11 13 10.5523 13 10V3C13 2.44772 12.5523 2 12 2H7Z" />
    <path fill-rule="evenodd" clip-rule="evenodd" d="M4 5C3.44772 5 3 5.44772 3 6V13C3 13.5523 3.44772 14 4 14H9C9.55228 14 10 13.5523 10 13V12H11V13C11 14.1046 10.1046 15 9 15H4C2.89543 15 2 14.1046 2 13V6C2 4.89543 2.89543 4 4 4H5V5H4Z" />
  </symbol>
  <symbol id="milestone" viewBox="0 0 16 16">
    <path fill-rule="evenodd" clip-rule="evenodd" d="M8 1.49988C8 1.22374 7.77614 0.999878 7.5 0.999878C7.22386 0.999878 7 1.22374 7 1.49988V2.99988H3C2.44772 2.99988 2 3.44759 2 3.99988V7.99988C2 8.55216 2.44771 8.99988 3 8.99988H7V14.4999C7 14.776 7.22386 14.9999 7.5 14.9999C7.77614 14.9999 8 14.776 8 14.4999V8.99988H11.3787C11.9091 8.99988 12.4178 8.78917 12.7929 8.41409L14.8536 6.35343C14.9473 6.25966 15 6.13249 15 5.99988C15 5.86727 14.9473 5.74009 14.8536 5.64632L12.7929 3.58566C12.4178 3.21059 11.9091 2.99988 11.3787 2.99988H8V1.49988ZM11.3787 7.99988C11.6439 7.99988 11.8982 7.89452 12.0858 7.70698L13.7929 5.99988L12.0858 4.29277C11.8983 4.10523 11.6439 3.99988 11.3787 3.99988H3V7.99988H11.3787Z" />
  </symbol>
  <symbol id="issuetemplates" viewBox="0 0 32 32">
    <path d="M26 6V10H6V6H26ZM26 4H6C5.46957 4 4.96086 4.21071 4.58579 4.58579C4.21071 4.96086 4 5.46957 4 6V10C4 10.5304 4.21071 11.0391 4.58579 11.4142C4.96086 11.7893 5.46957 12 6 12H26C26.5304 12 27.0391 11.7893 27.4142 11.4142C27.7893 11.0391 28 10.5304 28 10V6C28 5.46957 27.7893 4.96086 27.4142 4.58579C27.0391 4.21071 26.5304 4 26 4Z" />
    <path d="M10 16V26H6V16H10ZM10 14H6C5.46957 14 4.96086 14.2107 4.58579 14.5858C4.21071 14.9609 4 15.4696 4 16V26C4 26.5304 4.21071 27.0391 4.58579 27.4142C4.96086 27.7893 5.46957 28 6 28H10C10.5304 28 11.0391 27.7893 11.4142 27.4142C11.7893 27.0391 12 26.5304 12 26V16C12 15.4696 11.7893 14.9609 11.4142 14.5858C11.0391 14.2107 10.5304 14 10 14Z" />
    <path d="M26 16V26H16V16H26ZM26 14H16C15.4696 14 14.9609 14.2107 14.5858 14.5858C14.2107 14.9609 14 15.4696 14 16V26C14 26.5304 14.2107 27.0391 14.5858 27.4142C14.9609 27.7893 15.4696 28 16 28H26C26.5304 28 27.0391 27.7893 27.4142 27.4142C27.7893 27.0391 28 26.5304 28 26V16C28 15.4696 27.7893 14.9609 27.4142 14.5858C27.0391 14.2107 26.5304 14 26 14Z" />
  </symbol>
  <symbol id="timeReport" viewBox="0 0 16 16">
    <path d="M8 1.99988C11.3 1.99988 14 4.69988 14 7.99988C14 11.2999 11.3 13.9999 8 13.9999C4.7 13.9999 2 11.2999 2 7.99988C2 4.69988 4.7 1.99988 8 1.99988ZM8 0.999878C4.15 0.999878 1 4.14988 1 7.99988C1 11.8499 4.15 14.9999 8 14.9999C11.85 14.9999 15 11.8499 15 7.99988C15 4.14988 11.85 0.999878 8 0.999878Z" />
    <path d="M12 7.99988C12 7.72374 11.7761 7.49988 11.5 7.49988H8.5V4.49988C8.5 4.22374 8.27614 3.99988 8 3.99988C7.72386 3.99988 7.5 4.22374 7.5 4.49988V7.49988H4.5C4.22386 7.49988 4 7.72374 4 7.99988C4 8.27602 4.22386 8.49988 4.5 8.49988H7.5V11.4999C7.5 11.776 7.72386 11.9999 8 11.9999C8.27614 11.9999 8.5 11.776 8.5 11.4999V8.49988H11.5C11.7761 8.49988 12 8.27602 12 7.99988Z" />
  </symbol>
  <symbol id="estimation" viewBox="0 0 32 32">
    <path d="M19.0615 8.60896C20.0321 9.011 20.914 9.60028 21.6569 10.3431L10.3431 21.6569C9.60028 20.914 9.011 20.0321 8.60896 19.0615C8.20693 18.0909 8 17.0506 8 16C8 14.9494 8.20693 13.9091 8.60896 12.9385C9.011 11.9679 9.60028 11.086 10.3431 10.3431C11.086 9.60028 11.9679 9.011 12.9385 8.60896C13.9091 8.20693 14.9494 8 16 8C17.0506 8 18.0909 8.20693 19.0615 8.60896Z" />
    <path fill-rule="evenodd" clip-rule="evenodd" d="M30 16C30 23.732 23.732 30 16 30C8.26801 30 2 23.732 2 16C2 8.26801 8.26801 2 16 2C23.732 2 30 8.26801 30 16ZM28 16C28 22.6274 22.6274 28 16 28C9.37258 28 4 22.6274 4 16C4 9.37258 9.37258 4 16 4C22.6274 4 28 9.37258 28 16Z" />
  </symbol>
</svg>
