<svg xmlns="http://www.w3.org/2000/svg" style="display: none;">
  <symbol id="process" viewBox="0 0 32 32">
    <path fill-rule="evenodd" clip-rule="evenodd" d="M10.0256 2.77526C10.1303 2.32153 10.5343 2.00012 11 2.00012H21C21.3033 2.00012 21.5902 2.13779 21.78 2.37439C21.9698 2.611 22.042 2.92096 21.9762 3.21705L20.2466 11.0001H25C25.3805 11.0001 25.728 11.216 25.8965 11.5571C26.0651 11.8982 26.0255 12.3054 25.7944 12.6076L12.7944 29.6076C12.5168 29.9706 12.0284 30.0992 11.6081 29.9201C11.1877 29.741 10.9421 29.2997 11.0116 28.8481L12.8344 17.0001H8C7.69525 17.0001 7.40714 16.8612 7.21742 16.6227C7.0277 16.3842 6.95708 16.0722 7.02561 15.7753L10.0256 2.77526ZM11.7955 4.00012L9.25705 15.0001H14C14.2918 15.0001 14.569 15.1275 14.759 15.349C14.9489 15.5704 15.0327 15.8638 14.9884 16.1522L13.5836 25.283L22.9764 13.0001H19C18.6967 13.0001 18.4098 12.8625 18.22 12.6258C18.0302 12.3892 17.958 12.0793 18.0238 11.7832L19.7534 4.00012H11.7955Z"/>
  </symbol>
  <symbol id="steps" viewBox="0 0 16 16">
    <path fill-rule="evenodd" clip-rule="evenodd" d="M4 2C2.89543 2 2 2.89543 2 4C2 5.10457 2.89543 6 4 6C4.93192 6 5.71497 5.36261 5.93699 4.5H11.5C12.3284 4.5 13 5.17157 13 6C13 6.82843 12.3284 7.5 11.5 7.5L4.5 7.5C3.11929 7.5 2 8.61929 2 10C2 11.3807 3.11929 12.5 4.5 12.5L10.063 12.5C10.285 13.3626 11.0681 14 12 14C13.1046 14 14 13.1046 14 12C14 10.8954 13.1046 10 12 10C11.0681 10 10.285 10.6374 10.063 11.5L4.5 11.5C3.67157 11.5 3 10.8284 3 10C3 9.17157 3.67157 8.5 4.5 8.5L11.5 8.5C12.8807 8.5 14 7.38071 14 6C14 4.61929 12.8807 3.5 11.5 3.5H5.93699C5.71497 2.63739 4.93192 2 4 2ZM4 3C3.44772 3 3 3.44772 3 4C3 4.55228 3.44772 5 4 5C4.55228 5 5 4.55228 5 4C5 3.44772 4.55228 3 4 3ZM11 12C11 11.4477 11.4477 11 12 11C12.5523 11 13 11.4477 13 12C13 12.5523 12.5523 13 12 13C11.4477 13 11 12.5523 11 12Z"/>
  </symbol>
  <symbol id="trigger" viewBox="0 0 16 16">
    <path fill-rule="evenodd" clip-rule="evenodd" d="M13 2C12.4477 2 12 2.44772 12 3C12 3.55228 12.4477 4 13 4C13.5523 4 14 3.55228 14 3C14 2.44772 13.5523 2 13 2ZM11 3C11 1.89543 11.8954 1 13 1C14.1046 1 15 1.89543 15 3C15 4.10457 14.1046 5 13 5C11.8954 5 11 4.10457 11 3ZM2 4C2 2.89543 2.89543 2 4 2H9.5C9.77614 2 10 2.22386 10 2.5C10 2.77614 9.77614 3 9.5 3H4C3.44772 3 3 3.44772 3 4V12C3 12.5523 3.44772 13 4 13H12C12.5523 13 13 12.5523 13 12V6.5C13 6.22386 13.2239 6 13.5 6C13.7761 6 14 6.22386 14 6.5V12C14 13.1046 13.1046 14 12 14H4C2.89543 14 2 13.1046 2 12V4ZM6.64645 6.64645C6.84171 6.45118 7.15829 6.45118 7.35355 6.64645L9 8.29289L10.1464 7.14645C10.3417 6.95118 10.6583 6.95118 10.8536 7.14645C11.0488 7.34171 11.0488 7.65829 10.8536 7.85355L9.35355 9.35355C9.15829 9.54882 8.84171 9.54882 8.64645 9.35355L7 7.70711L5.85355 8.85355C5.65829 9.04882 5.34171 9.04882 5.14645 8.85355C4.95118 8.65829 4.95118 8.34171 5.14645 8.14645L6.64645 6.64645Z"/>
  </symbol>
    <symbol id="todo" viewBox="0 0 20 20" fill="none">
    <path d="M10 1.24988C8.26942 1.24988 6.57769 1.76306 5.13876 2.72452C3.69983 3.68598 2.57832 5.05254 1.91606 6.6514C1.25379 8.25025 1.08051 10.0096 1.41813 11.7069C1.75575 13.4043 2.58911 14.9634 3.81282 16.1871C5.03653 17.4108 6.59563 18.2441 8.29296 18.5817C9.9903 18.9194 11.7496 18.7461 13.3485 18.0838C14.9473 17.4216 16.3139 16.3 17.2754 14.8611C18.2368 13.4222 18.75 11.7305 18.75 9.99988C18.75 7.67923 17.8281 5.45364 16.1872 3.81269C14.5462 2.17175 12.3206 1.24988 10 1.24988ZM10 17.4999C8.51664 17.4999 7.0666 17.06 5.83323 16.2359C4.59986 15.4118 3.63856 14.2404 3.07091 12.87C2.50325 11.4996 2.35473 9.99156 2.64411 8.5367C2.9335 7.08184 3.64781 5.74547 4.6967 4.69658C5.7456 3.64768 7.08197 2.93338 8.53683 2.64399C9.99168 2.3546 11.4997 2.50312 12.8701 3.07078C14.2406 3.63844 15.4119 4.59973 16.236 5.8331C17.0601 7.06647 17.5 8.51652 17.5 9.99988C17.5 11.989 16.7098 13.8967 15.3033 15.3032C13.8968 16.7097 11.9891 17.4999 10 17.4999Z" fill="currentColor"/>
    <path fill-rule="evenodd" clip-rule="evenodd" d="M14.1919 7.05809C14.436 7.30217 14.436 7.6979 14.1919 7.94197L9.19194 12.942C8.94786 13.1861 8.55214 13.1861 8.30806 12.942L5.80806 10.442C5.56398 10.1979 5.56398 9.80217 5.80806 9.55809C6.05214 9.31401 6.44786 9.31401 6.69194 9.55809L8.75 11.6161L13.3081 7.05809C13.5521 6.81401 13.9479 6.81401 14.1919 7.05809Z" fill="currentColor"/>
  </symbol>
  <symbol id="subprocesses" viewBox="0 0 20 20" fill="none">
    <path d="M9.99998 15.0001C9.89651 15 9.79468 14.9743 9.70367 14.9251L2.12886 10.8463C1.82502 10.6827 1.71137 10.3037 1.87505 9.99992C2.03867 9.69621 2.41749 9.58261 2.72124 9.74616L9.99998 13.6652L17.2785 9.7463C17.5823 9.58268 17.9613 9.69637 18.125 10.0002C18.2886 10.3041 18.1749 10.6832 17.871 10.8468L10.2963 14.9255C10.2052 14.9746 10.1034 15.0002 9.99998 15.0001Z" fill="currentColor"/>
    <path d="M9.99998 18.7501C9.89651 18.75 9.79468 18.7243 9.70367 18.6751L2.12886 14.5963C1.82502 14.4327 1.71137 14.0537 1.87505 13.7499C2.03867 13.4462 2.41749 13.3326 2.72124 13.4962L9.99998 17.4152L17.2785 13.4963C17.5823 13.3327 17.9613 13.4464 18.125 13.7502C18.2886 14.0541 18.1749 14.4332 17.871 14.5968L10.2963 18.6755C10.2052 18.7246 10.1034 18.7502 9.99998 18.7501Z" fill="currentColor"/>
    <path d="M9.99998 11.2501C9.89651 11.25 9.79468 11.2243 9.70367 11.1751L1.57867 6.80005C1.47934 6.74654 1.39635 6.66713 1.33851 6.57026C1.28066 6.47338 1.25012 6.36266 1.25012 6.24983C1.25012 6.13701 1.28066 6.02628 1.33851 5.92941C1.39635 5.83254 1.47934 5.75313 1.57867 5.69961L9.70367 1.32461C9.7947 1.27548 9.89653 1.24976 9.99998 1.24976C10.1034 1.24976 10.2053 1.27548 10.2963 1.32461L18.4213 5.69961C18.5206 5.75313 18.6036 5.83254 18.6615 5.92941C18.7193 6.02628 18.7498 6.13701 18.7498 6.24983C18.7498 6.36266 18.7193 6.47338 18.6615 6.57026C18.6036 6.66713 18.5206 6.74654 18.4213 6.80005L10.2963 11.1751C10.2053 11.2243 10.1034 11.25 9.99998 11.2501ZM3.19336 6.25005L9.99998 9.91524L16.8066 6.25005L9.99998 2.58493L3.19336 6.25005Z" fill="currentColor"/>
  </symbol>
  <symbol id="todo-remove" viewBox="0 0 32 32">
    <path d="M16 2.00012C8.2 2.00012 2 8.20012 2 16.0001C2 23.8001 8.2 30.0001 16 30.0001C23.8 30.0001 30 23.8001 30 16.0001C30 8.20012 23.8 2.00012 16 2.00012ZM16 28.0001C9.4 28.0001 4 22.6001 4 16.0001C4 9.40012 9.4 4.00012 16 4.00012C22.6 4.00012 28 9.40012 28 16.0001C28 22.6001 22.6 28.0001 16 28.0001Z" />
    <path d="M9.29289 9.29326C8.90237 9.68378 8.90237 10.3169 9.29289 10.7075L14.5858 16.0004L9.29289 21.2933C8.90237 21.6838 8.90237 22.3169 9.29289 22.7075C9.68342 23.098 10.3166 23.098 10.7071 22.7075L16 17.4146L21.2929 22.7075C21.6834 23.098 22.3166 23.098 22.7071 22.7075C23.0976 22.3169 23.0976 21.6838 22.7071 21.2933L17.4142 16.0004L22.7071 10.7075C23.0976 10.3169 23.0976 9.68378 22.7071 9.29326C22.3166 8.90274 21.6834 8.90274 21.2929 9.29326L16 14.5862L10.7071 9.29326C10.3166 8.90274 9.68342 8.90274 9.29289 9.29326Z" />
  </symbol>
  <symbol id="start" viewBox="0 0 32 32">
    <path
      d="M27.71 4.29049C27.575 4.15616 27.4045 4.06316 27.2185 4.02241C27.0325 3.98167 26.8388 3.99488 26.66 4.06049L4.66 12.0605C4.47027 12.1325 4.30692 12.2604 4.19165 12.4274C4.07638 12.5944 4.01465 12.7926 4.01465 12.9955C4.01465 13.1984 4.07638 13.3965 4.19165 13.5635C4.30692 13.7305 4.47027 13.8585 4.66 13.9305L14.26 17.7705L18.1 27.3705C18.1721 27.5519 18.2958 27.7082 18.4557 27.8201C18.6157 27.9321 18.8049 27.9948 19 28.0005C19.2021 27.9963 19.3982 27.9311 19.5624 27.8132C19.7266 27.6954 19.8513 27.5306 19.92 27.3405L27.92 5.34049C27.9881 5.16356 28.0046 4.97092 27.9674 4.78501C27.9302 4.5991 27.8409 4.4276 27.71 4.29049ZM19 24.2005L16.21 17.2005L20.295 13.1155C20.6844 12.7261 20.6844 12.0948 20.295 11.7055C19.9056 11.3161 19.2744 11.3161 18.885 11.7055L14.76 15.8305L7.8 13.0005L25.33 6.67049L19 24.2005Z"
    />
  </symbol>
  <symbol id="card-update" viewBox="0 0 32 32">
    <path fill-rule="evenodd" clip-rule="evenodd"
      d="M19.1058 4.4089C16.5542 3.7252 13.8484 3.90255 11.4078 4.91345C8.96729 5.92435 6.92852 7.7123 5.60772 10C4.28691 12.2877 3.75788 14.9473 4.10268 17.5663C4.44748 20.1853 5.64684 22.6174 7.51474 24.4853C9.38264 26.3532 11.8147 27.5525 14.4337 27.8973C17.0527 28.2421 19.7123 27.7131 22 26.3923C24.2877 25.0715 26.0757 23.0327 27.0866 20.5922C28.0975 18.1517 28.2748 15.4458 27.5911 12.8942C27.4482 12.3607 27.7648 11.8124 28.2982 11.6694C28.8317 11.5265 29.38 11.8431 29.523 12.3765C30.3206 15.3534 30.1137 18.5103 28.9343 21.3576C27.7549 24.2049 25.669 26.5834 23 28.1244C20.331 29.6653 17.2282 30.2825 14.1727 29.8802C11.1171 29.478 8.27974 28.0787 6.10052 25.8995C3.92131 23.7203 2.52206 20.8829 2.11979 17.8274C1.71753 14.7719 2.33473 11.669 3.87567 9C5.41661 6.33102 7.79517 4.24507 10.6425 3.06569C13.4897 1.88631 16.6466 1.67939 19.6235 2.47704C20.157 2.61999 20.4735 3.16832 20.3306 3.70179C20.1877 4.23526 19.6393 4.55184 19.1058 4.4089Z"/>
    <path fill-rule="evenodd" clip-rule="evenodd"
      d="M26 8.00001C27.1046 8.00001 28 7.10457 28 6.00001C28 4.89544 27.1046 4.00001 26 4.00001C24.8955 4.00001 24 4.89544 24 6.00001C24 7.10457 24.8955 8.00001 26 8.00001ZM26 10C28.2092 10 30 8.20914 30 6.00001C30 3.79087 28.2092 2.00001 26 2.00001C23.7909 2.00001 22 3.79087 22 6.00001C22 8.20914 23.7909 10 26 10Z"/>
  </symbol>
  <symbol id="time" viewBox="0 0 14 14">
    <path d="M7.43758 3.49984C7.43758 3.25821 7.24171 3.06234 7.00008 3.06234C6.75846 3.06234 6.56258 3.25821 6.56258 3.49984V6.99984C6.56258 7.11587 6.60868 7.22715 6.69072 7.3092L8.44072 9.0592C8.61158 9.23005 8.88859 9.23005 9.05944 9.0592C9.2303 8.88834 9.2303 8.61133 9.05944 8.44048L7.43758 6.81862V3.49984Z"/>
    <path fill-rule="evenodd" clip-rule="evenodd" d="M7.00008 0.729004C3.5368 0.729004 0.729248 3.53655 0.729248 6.99984C0.729248 10.4631 3.5368 13.2707 7.00008 13.2707C10.4634 13.2707 13.2709 10.4631 13.2709 6.99984C13.2709 3.53655 10.4634 0.729004 7.00008 0.729004ZM1.60425 6.99984C1.60425 4.0198 4.02005 1.604 7.00008 1.604C9.98012 1.604 12.3959 4.0198 12.3959 6.99984C12.3959 9.97987 9.98012 12.3957 7.00008 12.3957C4.02005 12.3957 1.60425 9.97987 1.60425 6.99984Z"/>
  </symbol>
</svg>
