<svg xmlns="http://www.w3.org/2000/svg" style="display: none;">
    <symbol id="process" viewBox="0 0 32 32">
        <path fill-rule="evenodd" clip-rule="evenodd"
              d="M10.0256 2.77526C10.1303 2.32153 10.5343 2.00012 11 2.00012H21C21.3033 2.00012 21.5902 2.13779 21.78 2.37439C21.9698 2.611 22.042 2.92096 21.9762 3.21705L20.2466 11.0001H25C25.3805 11.0001 25.728 11.216 25.8965 11.5571C26.0651 11.8982 26.0255 12.3054 25.7944 12.6076L12.7944 29.6076C12.5168 29.9706 12.0284 30.0992 11.6081 29.9201C11.1877 29.741 10.9421 29.2997 11.0116 28.8481L12.8344 17.0001H8C7.69525 17.0001 7.40714 16.8612 7.21742 16.6227C7.0277 16.3842 6.95708 16.0722 7.02561 15.7753L10.0256 2.77526ZM11.7955 4.00012L9.25705 15.0001H14C14.2918 15.0001 14.569 15.1275 14.759 15.349C14.9489 15.5704 15.0327 15.8638 14.9884 16.1522L13.5836 25.283L22.9764 13.0001H19C18.6967 13.0001 18.4098 12.8625 18.22 12.6258C18.0302 12.3892 17.958 12.0793 18.0238 11.7832L19.7534 4.00012H11.7955Z"/>
    </symbol>
    <symbol id="steps" viewBox="0 0 16 16">
        <path fill-rule="evenodd" clip-rule="evenodd"
              d="M4 2C2.89543 2 2 2.89543 2 4C2 5.10457 2.89543 6 4 6C4.93192 6 5.71497 5.36261 5.93699 4.5H11.5C12.3284 4.5 13 5.17157 13 6C13 6.82843 12.3284 7.5 11.5 7.5L4.5 7.5C3.11929 7.5 2 8.61929 2 10C2 11.3807 3.11929 12.5 4.5 12.5L10.063 12.5C10.285 13.3626 11.0681 14 12 14C13.1046 14 14 13.1046 14 12C14 10.8954 13.1046 10 12 10C11.0681 10 10.285 10.6374 10.063 11.5L4.5 11.5C3.67157 11.5 3 10.8284 3 10C3 9.17157 3.67157 8.5 4.5 8.5L11.5 8.5C12.8807 8.5 14 7.38071 14 6C14 4.61929 12.8807 3.5 11.5 3.5H5.93699C5.71497 2.63739 4.93192 2 4 2ZM4 3C3.44772 3 3 3.44772 3 4C3 4.55228 3.44772 5 4 5C4.55228 5 5 4.55228 5 4C5 3.44772 4.55228 3 4 3ZM11 12C11 11.4477 11.4477 11 12 11C12.5523 11 13 11.4477 13 12C13 12.5523 12.5523 13 12 13C11.4477 13 11 12.5523 11 12Z"/>
    </symbol>
    <symbol id="trigger" viewBox="0 0 16 16">
        <path fill-rule="evenodd" clip-rule="evenodd"
              d="M13 2C12.4477 2 12 2.44772 12 3C12 3.55228 12.4477 4 13 4C13.5523 4 14 3.55228 14 3C14 2.44772 13.5523 2 13 2ZM11 3C11 1.89543 11.8954 1 13 1C14.1046 1 15 1.89543 15 3C15 4.10457 14.1046 5 13 5C11.8954 5 11 4.10457 11 3ZM2 4C2 2.89543 2.89543 2 4 2H9.5C9.77614 2 10 2.22386 10 2.5C10 2.77614 9.77614 3 9.5 3H4C3.44772 3 3 3.44772 3 4V12C3 12.5523 3.44772 13 4 13H12C12.5523 13 13 12.5523 13 12V6.5C13 6.22386 13.2239 6 13.5 6C13.7761 6 14 6.22386 14 6.5V12C14 13.1046 13.1046 14 12 14H4C2.89543 14 2 13.1046 2 12V4ZM6.64645 6.64645C6.84171 6.45118 7.15829 6.45118 7.35355 6.64645L9 8.29289L10.1464 7.14645C10.3417 6.95118 10.6583 6.95118 10.8536 7.14645C11.0488 7.34171 11.0488 7.65829 10.8536 7.85355L9.35355 9.35355C9.15829 9.54882 8.84171 9.54882 8.64645 9.35355L7 7.70711L5.85355 8.85355C5.65829 9.04882 5.34171 9.04882 5.14645 8.85355C4.95118 8.65829 4.95118 8.34171 5.14645 8.14645L6.64645 6.64645Z"/>
    </symbol>
</svg>
