<svg xmlns="http://www.w3.org/2000/svg" style="display: none;">
  <symbol id="notifications" viewBox="0 0 16 16">
    <path fill-rule="evenodd" clip-rule="evenodd" d="M8.5 1.5C8.5 1.22386 8.27614 1 8 1C7.72386 1 7.5 1.22386 7.5 1.5V2.02746C5.25002 2.27619 3.5 4.18372 3.5 6.5V7.44766C3.5 8.01534 3.3068 8.56611 2.95217 9.00939L2.09004 10.0871C1.70809 10.5645 1.5 11.1577 1.5 11.7691C1.5 12.4489 2.05108 13 2.73087 13H6C6 13.2626 6.05173 13.5227 6.15224 13.7654C6.25275 14.008 6.40007 14.2285 6.58579 14.4142C6.7715 14.5999 6.99198 14.7472 7.23463 14.8478C7.47728 14.9483 7.73736 15 8 15C8.26264 15 8.52272 14.9483 8.76537 14.8478C9.00802 14.7472 9.2285 14.5999 9.41421 14.4142C9.59993 14.2285 9.74725 14.008 9.84776 13.7654C9.94827 13.5227 10 13.2626 10 13H13.2691C13.9489 13 14.5 12.4489 14.5 11.7691C14.5 11.1577 14.2919 10.5645 13.91 10.0871L13.0478 9.00939C12.6932 8.56611 12.5 8.01534 12.5 7.44766V6.5C12.5 4.18372 10.75 2.27619 8.5 2.02746V1.5ZM9 13H7C7 13.1313 7.02587 13.2614 7.07612 13.3827C7.12638 13.504 7.20003 13.6142 7.29289 13.7071C7.38575 13.8 7.49599 13.8736 7.61732 13.9239C7.73864 13.9741 7.86868 14 8 14C8.13132 14 8.26136 13.9741 8.38268 13.9239C8.50401 13.8736 8.61425 13.8 8.70711 13.7071C8.79997 13.6142 8.87362 13.504 8.92388 13.3827C8.97413 13.2614 9 13.1313 9 13ZM2.5 11.7691C2.5 11.8966 2.60336 12 2.73087 12H13.2691C13.3966 12 13.5 11.8966 13.5 11.7691C13.5 11.3848 13.3692 11.0119 13.1291 10.7118L12.267 9.63409C11.7705 9.01349 11.5 8.24241 11.5 7.44766V6.5C11.5 4.567 9.933 3 8 3C6.067 3 4.5 4.567 4.5 6.5V7.44766C4.5 8.24241 4.22952 9.01349 3.73304 9.63409L2.87091 10.7118C2.63081 11.0119 2.5 11.3848 2.5 11.7691Z" />
  </symbol>
  <symbol id="bell-crossed" viewBox="0 0 16 16">
    <path fill-rule="evenodd" clip-rule="evenodd" d="M8.5 1.5C8.5 1.22386 8.27614 1 8 1C7.72386 1 7.5 1.22386 7.5 1.5V2.02746C5.25002 2.27619 3.5 4.18372 3.5 6.5V7.44766C3.5 8.01534 3.3068 8.56611 2.95217 9.00939L2.09004 10.0871C1.70809 10.5645 1.5 11.1577 1.5 11.7691C1.5 12.4489 2.05108 13 2.73087 13H6C6 13.2626 6.05173 13.5227 6.15224 13.7654C6.25275 14.008 6.40007 14.2285 6.58579 14.4142C6.7715 14.5999 6.99198 14.7472 7.23463 14.8478C7.47728 14.9483 7.73736 15 8 15C8.26264 15 8.52272 14.9483 8.76537 14.8478C9.00802 14.7472 9.2285 14.5999 9.41421 14.4142C9.59993 14.2285 9.74725 14.008 9.84776 13.7654C9.94827 13.5227 10 13.2626 10 13H13.2691C13.9489 13 14.5 12.4489 14.5 11.7691C14.5 11.1577 14.2919 10.5645 13.91 10.0871L13.0478 9.00939C12.6932 8.56611 12.5 8.01534 12.5 7.44766V6.5C12.5 4.18372 10.75 2.27619 8.5 2.02746V1.5ZM9 13H7C7 13.1313 7.02587 13.2614 7.07612 13.3827C7.12638 13.504 7.20003 13.6142 7.29289 13.7071C7.38575 13.8 7.49599 13.8736 7.61732 13.9239C7.73864 13.9741 7.86868 14 8 14C8.13132 14 8.26136 13.9741 8.38268 13.9239C8.50401 13.8736 8.61425 13.8 8.70711 13.7071C8.79997 13.6142 8.87362 13.504 8.92388 13.3827C8.97413 13.2614 9 13.1313 9 13ZM2.5 11.7691C2.5 11.8966 2.60336 12 2.73087 12H13.2691C13.3966 12 13.5 11.8966 13.5 11.7691C13.5 11.3848 13.3692 11.0119 13.1291 10.7118L12.267 9.63409C11.7705 9.01349 11.5 8.24241 11.5 7.44766V6.5C11.5 4.567 9.933 3 8 3C6.067 3 4.5 4.567 4.5 6.5V7.44766C4.5 8.24241 4.22952 9.01349 3.73304 9.63409L2.87091 10.7118C2.63081 11.0119 2.5 11.3848 2.5 11.7691Z"/>
    <path d="M1 15L15 1" stroke="currentColor" stroke-linecap="round"/>
  </symbol>
  <symbol id="inbox" viewBox="0 0 24 24">
    <path fill-rule="evenodd" clip-rule="evenodd" d="M7.5 4.5C6.7918 4.5 6.12492 4.83344 5.7 5.4L1.65 10.8C1.55263 10.9298 1.5 11.0877 1.5 11.25V16.5C1.5 18.1569 2.84315 19.5 4.5 19.5H19.5C21.1569 19.5 22.5 18.1569 22.5 16.5V11.25C22.5 11.0877 22.4474 10.9298 22.35 10.8L18.3 5.4C17.8751 4.83344 17.2082 4.5 16.5 4.5H7.5ZM6.9 6.3C7.04164 6.11115 7.26393 6 7.5 6H16.5C16.7361 6 16.9584 6.11115 17.1 6.3L20.25 10.5H14.25C13.8358 10.5 13.5 10.8358 13.5 11.25C13.5 11.447 13.4612 11.642 13.3858 11.824C13.3104 12.006 13.1999 12.1714 13.0607 12.3107C12.9214 12.4499 12.756 12.5604 12.574 12.6358C12.392 12.7112 12.197 12.75 12 12.75C11.803 12.75 11.608 12.7112 11.426 12.6358C11.244 12.5604 11.0786 12.4499 10.9393 12.3107C10.8001 12.1714 10.6896 12.006 10.6142 11.824C10.5388 11.642 10.5 11.447 10.5 11.25C10.5 10.8358 10.1642 10.5 9.75 10.5H3.75L6.9 6.3ZM9.09526 12H3V16.5C3 17.3284 3.67157 18 4.5 18H19.5C20.3284 18 21 17.3284 21 16.5V12H14.9047C14.8698 12.1353 14.8254 12.2683 14.7716 12.3981C14.6209 12.762 14.3999 13.0927 14.1213 13.3713C13.8427 13.6499 13.512 13.8709 13.1481 14.0216C12.7841 14.1724 12.394 14.25 12 14.25C11.606 14.25 11.2159 14.1724 10.8519 14.0216C10.488 13.8709 10.1573 13.6499 9.87868 13.3713C9.6001 13.0927 9.37913 12.762 9.22836 12.3981C9.17464 12.2683 9.1302 12.1353 9.09526 12Z" />
  </symbol>
</svg>
