<svg xmlns="http://www.w3.org/2000/svg" style="display: none;">
  <symbol id="notification" viewBox="0 0 24 24">
    <path d="M20,15.5c-1,0-1.7-0.8-1.7-1.7V9.9c0-3.3-2.7-6-6-6s-6,2.7-6,6v3.9c0,1-0.8,1.7-1.7,1.7c-0.3,0-0.6,0.3-0.6,0.6s0.3,0.6,0.6,0.6H20c0.3,0,0.6-0.3,0.6-0.6S20.3,15.5,20,15.5z M6.9,15.5c0.4-0.5,0.6-1.1,0.6-1.7V9.9c0-2.7,2.2-4.8,4.8-4.8c2.7,0,4.8,2.2,4.8,4.8v3.9c0,0.6,0.2,1.2,0.6,1.7H6.9z" />
    <path d="M13.9,18.7c-0.3-0.2-0.7-0.1-0.8,0.2c-0.3,0.6-1.3,0.6-1.6,0c-0.2-0.3-0.5-0.4-0.8-0.2c-0.3,0.2-0.4,0.5-0.2,0.8c0.4,0.7,1.1,1.1,1.9,1.1c0.8,0,1.5-0.4,1.9-1.1C14.3,19.2,14.2,18.9,13.9,18.7z" />
  </symbol>
  <symbol id="track" viewBox="0 0 24 24">
    <path d="M21.7,15L21,13.8c-0.6-1.1-1.1-2.3-1.2-3.4l-0.1-0.9c-0.5,0.2-1.1,0.4-1.6,0.4l0.1,0.7c0.1,1.5,0.6,2.9,1.4,4.2l0.7,1.2 c0.4,0.6,0.7,1.2,0.7,1.3c0,0.1-0.1,0.1-0.1,0.2c-0.1,0.1-1,0.1-1.5,0.1H4.8c-0.6,0-1.4,0-1.5-0.1l-0.1-0.1c0-0.1,0.5-0.8,0.7-1.4 l0.7-1.2c0.7-1.3,1.2-2.6,1.4-4.2l0.4-2.7c0.4-3,2.7-5.1,5.7-5.1c1,0,1.9,0.3,2.7,0.7c0.4-0.5,0.9-0.9,1.4-1.1C15,1.5,13.5,1,12,1 C8.2,1,5,3.9,4.5,7.7l-0.4,2.7c-0.1,1.2-0.5,2.4-1.2,3.4L2.2,15c-0.7,1.2-1.1,1.8-1,2.6c0.1,0.5,0.4,1,0.7,1.3 c0.6,0.5,1.3,0.5,2.7,0.5h3c0.2,1,0.8,1.9,1.5,2.5C10.1,22.6,11,23,12,23s2-0.4,2.7-1.1c0.7-0.6,1.2-1.5,1.5-2.5h3 c1.4,0,2.1,0,2.7-0.5c0.4-0.4,0.6-0.8,0.7-1.3C22.9,16.8,22.6,16.2,21.7,15z M13.6,20.6c-1,0.8-2.3,0.8-3.2,0 c-0.4-0.2-0.6-0.7-0.8-1.2h4.9C14.2,19.9,14,20.3,13.6,20.6z" />
    <circle fill="var(--theme-warning-color)" cx="18" cy="5.9" r="3"/>
  </symbol>
  <symbol id="donttrack" viewBox="0 0 24 24">
    <path d="M21.7,15l-0.2,0.1L21.7,15L21,13.8c-0.6-1.1-1.1-2.3-1.2-3.4l-0.4-2.7C19,3.9,15.8,1,12,1S5,3.9,4.5,7.7l-0.4,2.7 c-0.1,1.2-0.5,2.4-1.2,3.4L2.2,15c-0.7,1.2-1.1,1.8-1,2.6c0.1,0.5,0.4,1,0.7,1.3c0.6,0.5,1.3,0.5,2.7,0.5h3c0.2,1,0.8,1.9,1.5,2.5 C10.1,22.6,11,23,12,23c1,0,2-0.4,2.7-1.1c0.7-0.6,1.2-1.5,1.5-2.5h3c1.4,0,2.1,0,2.7-0.5c0.4-0.4,0.6-0.8,0.7-1.3 C22.9,16.8,22.6,16.2,21.7,15z M14.5,19.4c-0.2,0.5-0.5,0.8-0.8,1.2l0,0c-1,0.8-2.3,0.8-3.2,0c-0.4-0.2-0.6-0.7-0.8-1.2H14.5z  M20.9,17.5c-0.1,0.1-1,0.1-1.5,0.1H4.8c-0.6,0-1.4,0-1.5-0.1l-0.1-0.1c0-0.1,0.5-0.8,0.7-1.4l0.7-1.2c0.7-1.3,1.2-2.6,1.4-4.2 l0.4-2.7c0.4-3,2.7-5.1,5.7-5.1s5.4,2.1,5.7,5.1l0.4,2.7c0.1,1.5,0.6,2.9,1.4,4.2l0.7,1.2c0.4,0.6,0.7,1.2,0.7,1.3 C21,17.4,20.9,17.4,20.9,17.5z" />
  </symbol>
  <symbol id="hide" viewBox="0 0 24 24">
    <path
      d="M4.5,8.4C6.3,6.9,9,5.2,12,5.2c3,0,5.7,1.6,7.5,3.2c0.9,0.8,1.7,1.6,2.2,2.1c0.3,0.3,0.5,0.5,0.6,0.7c0.1,0.1,0.1,0.2,0.2,0.2c0,0,0,0,0,0.1l0,0l0,0l0,0c0,0,0,0-0.6,0.4c0.6,0.4,0.6,0.4,0.6,0.4l0,0l0,0l0,0c0,0,0,0,0,0.1c0,0-0.1,0.1-0.2,0.2c-0.1,0.2-0.3,0.4-0.6,0.7c-0.5,0.6-1.3,1.4-2.2,2.1c-1.9,1.5-4.5,3.2-7.5,3.2c-3,0-5.7-1.6-7.5-3.2c-0.9-0.8-1.7-1.6-2.2-2.1c-0.3-0.3-0.5-0.5-0.6-0.7c-0.1-0.1-0.1-0.2-0.2-0.2c0,0,0,0,0-0.1l0,0l0,0l0,0c0,0,0,0,0.6-0.4c-0.6-0.4-0.6-0.4-0.6-0.4l0,0l0,0l0,0c0,0,0,0,0-0.1c0,0,0.1-0.1,0.2-0.2c0.1-0.2,0.3-0.4,0.6-0.7C2.8,10,3.5,9.2,4.5,8.4z M2,12l-0.6-0.4c-0.2,0.3-0.2,0.6,0,0.9L2,12z M3,12c0.1,0.1,0.2,0.3,0.4,0.4c0.5,0.5,1.2,1.3,2.1,2c1.8,1.5,4.1,2.8,6.6,2.8c2.5,0,4.8-1.4,6.6-2.8c0.9-0.7,1.6-1.4,2.1-2c0.1-0.2,0.3-0.3,0.4-0.4c-0.1-0.1-0.2-0.3-0.4-0.4c-0.5-0.5-1.2-1.3-2.1-2c-1.8-1.5-4.1-2.8-6.6-2.8c-2.5,0-4.8,1.4-6.6,2.8c-0.9,0.7-1.6,1.4-2.1,2C3.2,11.7,3.1,11.9,3,12z M22,12l0.6,0.4c0.2-0.3,0.2-0.6,0-0.9L22,12z"
    />
    <path
      d="M8.8,12c0-1.8,1.5-3.2,3.2-3.2s3.2,1.5,3.2,3.2s-1.5,3.2-3.2,3.2S8.8,13.8,8.8,12z M12,10.2c-1,0-1.8,0.8-1.8,1.8s0.8,1.8,1.8,1.8s1.8-0.8,1.8-1.8S13,10.2,12,10.2z"
    />
  </symbol>
</svg>
