<svg xmlns="http://www.w3.org/2000/svg" style="display: none;">
  <symbol id="notification" viewBox="0 0 24 24">
    <path d="M9.78261 18.7959C9.78261 20.0132 10.7754 21 12 21C13.2246 21 14.2174 20.0132 14.2174 18.7959M19.3905 14.7551C18.7778 14.7551 18.2826 14.2631 18.2826 13.6524V9.24462C18.2826 5.79553 15.4703 3 12 3C8.52965 3 5.71739 5.79481 5.71739 9.24462V13.6524C5.71739 14.2609 5.2205 14.7551 4.60947 14.7551C3.99732 14.7551 3.5 15.2496 3.5 15.8571C3.5 16.4658 3.99753 16.9592 4.61235 16.9592H19.3876C20.0015 16.9592 20.5 16.4646 20.5 15.8571C20.5 15.2497 20.0014 14.7551 19.3905 14.7551Z"/>
  </symbol>
  <symbol id="track" viewBox="0 0 24 24">
    <path d="M9.78261 18.7959C9.78261 20.0132 10.7754 21 12 21C13.2246 21 14.2174 20.0132 14.2174 18.7959M19.3905 14.7551C18.7778 14.7551 18.2826 14.2631 18.2826 13.6524V9.24462C18.2826 5.79553 15.4703 3 12 3C8.52965 3 5.71739 5.79481 5.71739 9.24462V13.6524C5.71739 14.2609 5.2205 14.7551 4.60947 14.7551C3.99732 14.7551 3.5 15.2496 3.5 15.8571C3.5 16.4658 3.99753 16.9592 4.61235 16.9592H19.3876C20.0015 16.9592 20.5 16.4646 20.5 15.8571C20.5 15.2497 20.0014 14.7551 19.3905 14.7551Z" fill="none" 
stroke="currentColor"/>
  </symbol>
  <symbol id="donttrack" viewBox="0 0 24 24">
    <path stroke="currentColor" fill="none" d="m9.78261,18.7959c0,1.2173 0.99279,2.2041 2.21739,2.2041c1.2246,0 2.2174,-0.9868 2.2174,-2.2041m5.1731,-4.0408c-0.6127,0 -1.1079,-0.492 -1.1079,-1.1027l0,-4.40778c0,-3.44909 -2.8123,-6.24462 -6.2826,-6.24462c-3.47035,0 -6.28261,2.79481 -6.28261,6.24462l0,4.40778c0,0.6085 -0.49689,1.1027 -1.10792,1.1027c-0.61215,0 -1.10947,0.4945 -1.10947,1.102c0,0.6087 0.49753,1.1021 1.11235,1.1021l14.77525,0c0.6139,0 1.1124,-0.4946 1.1124,-1.1021c0,-0.6074 -0.4986,-1.102 -1.1095,-1.102z" id="svg_1"/>
    <line id="svg_2" y2="2.59025" x2="21.49529" y1="21.40975" x1="2.6758" stroke="currentColor" fill="none"/>
  </symbol>
</svg>
