<svg xmlns="http://www.w3.org/2000/svg" style="display: none;">
  <symbol id="notification" viewBox="0 0 24 24">
    <path d="M9.78261 18.7959C9.78261 20.0132 10.7754 21 12 21C13.2246 21 14.2174 20.0132 14.2174 18.7959M19.3905 14.7551C18.7778 14.7551 18.2826 14.2631 18.2826 13.6524V9.24462C18.2826 5.79553 15.4703 3 12 3C8.52965 3 5.71739 5.79481 5.71739 9.24462V13.6524C5.71739 14.2609 5.2205 14.7551 4.60947 14.7551C3.99732 14.7551 3.5 15.2496 3.5 15.8571C3.5 16.4658 3.99753 16.9592 4.61235 16.9592H19.3876C20.0015 16.9592 20.5 16.4646 20.5 15.8571C20.5 15.2497 20.0014 14.7551 19.3905 14.7551Z"/>
  </symbol>
  <symbol id="track" viewBox="0 0 24 24">
    <path d="M21.7,15L21,13.8c-0.6-1.1-1.1-2.3-1.2-3.4l-0.1-0.9c-0.5,0.2-1.1,0.4-1.6,0.4l0.1,0.7c0.1,1.5,0.6,2.9,1.4,4.2l0.7,1.2 c0.4,0.6,0.7,1.2,0.7,1.3c0,0.1-0.1,0.1-0.1,0.2c-0.1,0.1-1,0.1-1.5,0.1H4.8c-0.6,0-1.4,0-1.5-0.1l-0.1-0.1c0-0.1,0.5-0.8,0.7-1.4 l0.7-1.2c0.7-1.3,1.2-2.6,1.4-4.2l0.4-2.7c0.4-3,2.7-5.1,5.7-5.1c1,0,1.9,0.3,2.7,0.7c0.4-0.5,0.9-0.9,1.4-1.1C15,1.5,13.5,1,12,1 C8.2,1,5,3.9,4.5,7.7l-0.4,2.7c-0.1,1.2-0.5,2.4-1.2,3.4L2.2,15c-0.7,1.2-1.1,1.8-1,2.6c0.1,0.5,0.4,1,0.7,1.3 c0.6,0.5,1.3,0.5,2.7,0.5h3c0.2,1,0.8,1.9,1.5,2.5C10.1,22.6,11,23,12,23s2-0.4,2.7-1.1c0.7-0.6,1.2-1.5,1.5-2.5h3 c1.4,0,2.1,0,2.7-0.5c0.4-0.4,0.6-0.8,0.7-1.3C22.9,16.8,22.6,16.2,21.7,15z M13.6,20.6c-1,0.8-2.3,0.8-3.2,0 c-0.4-0.2-0.6-0.7-0.8-1.2h4.9C14.2,19.9,14,20.3,13.6,20.6z" />
    <circle fill="var(--warning-color)" cx="18" cy="5.9" r="3"/>
  </symbol>
  <symbol id="donttrack" viewBox="0 0 24 24">
    <path d="M21.7,15l-0.2,0.1L21.7,15L21,13.8c-0.6-1.1-1.1-2.3-1.2-3.4l-0.4-2.7C19,3.9,15.8,1,12,1S5,3.9,4.5,7.7l-0.4,2.7 c-0.1,1.2-0.5,2.4-1.2,3.4L2.2,15c-0.7,1.2-1.1,1.8-1,2.6c0.1,0.5,0.4,1,0.7,1.3c0.6,0.5,1.3,0.5,2.7,0.5h3c0.2,1,0.8,1.9,1.5,2.5 C10.1,22.6,11,23,12,23c1,0,2-0.4,2.7-1.1c0.7-0.6,1.2-1.5,1.5-2.5h3c1.4,0,2.1,0,2.7-0.5c0.4-0.4,0.6-0.8,0.7-1.3 C22.9,16.8,22.6,16.2,21.7,15z M14.5,19.4c-0.2,0.5-0.5,0.8-0.8,1.2l0,0c-1,0.8-2.3,0.8-3.2,0c-0.4-0.2-0.6-0.7-0.8-1.2H14.5z  M20.9,17.5c-0.1,0.1-1,0.1-1.5,0.1H4.8c-0.6,0-1.4,0-1.5-0.1l-0.1-0.1c0-0.1,0.5-0.8,0.7-1.4l0.7-1.2c0.7-1.3,1.2-2.6,1.4-4.2 l0.4-2.7c0.4-3,2.7-5.1,5.7-5.1s5.4,2.1,5.7,5.1l0.4,2.7c0.1,1.5,0.6,2.9,1.4,4.2l0.7,1.2c0.4,0.6,0.7,1.2,0.7,1.3 C21,17.4,20.9,17.4,20.9,17.5z" />
  </symbol>
</svg>
