<svg xmlns="http://www.w3.org/2000/svg" style="display: none;">
  <symbol id="notifications" viewBox="0 0 16 16">
    <path fill-rule="evenodd" clip-rule="evenodd" d="M8.5 1.5C8.5 1.22386 8.27614 1 8 1C7.72386 1 7.5 1.22386 7.5 1.5V2.02746C5.25002 2.27619 3.5 4.18372 3.5 6.5V7.44766C3.5 8.01534 3.3068 8.56611 2.95217 9.00939L2.09004 10.0871C1.70809 10.5645 1.5 11.1577 1.5 11.7691C1.5 12.4489 2.05108 13 2.73087 13H6C6 13.2626 6.05173 13.5227 6.15224 13.7654C6.25275 14.008 6.40007 14.2285 6.58579 14.4142C6.7715 14.5999 6.99198 14.7472 7.23463 14.8478C7.47728 14.9483 7.73736 15 8 15C8.26264 15 8.52272 14.9483 8.76537 14.8478C9.00802 14.7472 9.2285 14.5999 9.41421 14.4142C9.59993 14.2285 9.74725 14.008 9.84776 13.7654C9.94827 13.5227 10 13.2626 10 13H13.2691C13.9489 13 14.5 12.4489 14.5 11.7691C14.5 11.1577 14.2919 10.5645 13.91 10.0871L13.0478 9.00939C12.6932 8.56611 12.5 8.01534 12.5 7.44766V6.5C12.5 4.18372 10.75 2.27619 8.5 2.02746V1.5ZM9 13H7C7 13.1313 7.02587 13.2614 7.07612 13.3827C7.12638 13.504 7.20003 13.6142 7.29289 13.7071C7.38575 13.8 7.49599 13.8736 7.61732 13.9239C7.73864 13.9741 7.86868 14 8 14C8.13132 14 8.26136 13.9741 8.38268 13.9239C8.50401 13.8736 8.61425 13.8 8.70711 13.7071C8.79997 13.6142 8.87362 13.504 8.92388 13.3827C8.97413 13.2614 9 13.1313 9 13ZM2.5 11.7691C2.5 11.8966 2.60336 12 2.73087 12H13.2691C13.3966 12 13.5 11.8966 13.5 11.7691C13.5 11.3848 13.3692 11.0119 13.1291 10.7118L12.267 9.63409C11.7705 9.01349 11.5 8.24241 11.5 7.44766V6.5C11.5 4.567 9.933 3 8 3C6.067 3 4.5 4.567 4.5 6.5V7.44766C4.5 8.24241 4.22952 9.01349 3.73304 9.63409L2.87091 10.7118C2.63081 11.0119 2.5 11.3848 2.5 11.7691Z" />
  </symbol>
  <symbol id="inbox" viewBox="0 0 32 32">
    <path
      fill-rule="evenodd"
      clip-rule="evenodd"
      d="M9.2 8.39976C9.38885 8.14795 9.68524 7.99976 10 7.99976H22C22.3148 7.99976 22.6111 8.14795 22.8 8.39976L27 13.9998H19C18.4477 13.9998 18 14.4475 18 14.9998C18 15.2624 17.9483 15.5225 17.8478 15.7651C17.7472 16.0078 17.5999 16.2283 17.4142 16.414C17.2285 16.5997 17.008 16.747 16.7654 16.8475C16.5227 16.948 16.2626 16.9998 16 16.9998C15.7374 16.9998 15.4773 16.948 15.2346 16.8475C14.992 16.747 14.7715 16.5997 14.5858 16.414C14.4001 16.2283 14.2528 16.0078 14.1522 15.7651C14.0517 15.5225 14 15.2624 14 14.9998C14 14.4475 13.5523 13.9998 13 13.9998H5L9.2 8.39976ZM12.127 15.9998H4V21.9998C4 23.1043 4.89543 23.9998 6 23.9998H26C27.1046 23.9998 28 23.1043 28 21.9998V15.9998H19.873C19.8264 16.1802 19.7672 16.3576 19.6955 16.5305C19.4945 17.0158 19.1999 17.4567 18.8284 17.8282C18.457 18.1996 18.016 18.4943 17.5307 18.6953C17.0454 18.8963 16.5253 18.9998 16 18.9998C15.4747 18.9998 14.9546 18.8963 14.4693 18.6953C13.984 18.4943 13.543 18.1996 13.1716 17.8282C12.8001 17.4567 12.5055 17.0158 12.3045 16.5305C12.2329 16.3576 12.1736 16.1802 12.127 15.9998ZM10 5.99976C9.05573 5.99976 8.16656 6.44434 7.6 7.19976L2.2 14.3998C2.07018 14.5729 2 14.7834 2 14.9998V21.9998C2 24.2089 3.79086 25.9998 6 25.9998H26C28.2091 25.9998 30 24.2089 30 21.9998V14.9998C30 14.7834 29.9298 14.5729 29.8 14.3998L24.4 7.19976C23.8334 6.44434 22.9443 5.99976 22 5.99976H10Z"
    />
  </symbol>
  <symbol id="track" viewBox="0 0 24 24">
    <path d="M21.7,15L21,13.8c-0.6-1.1-1.1-2.3-1.2-3.4l-0.1-0.9c-0.5,0.2-1.1,0.4-1.6,0.4l0.1,0.7c0.1,1.5,0.6,2.9,1.4,4.2l0.7,1.2 c0.4,0.6,0.7,1.2,0.7,1.3c0,0.1-0.1,0.1-0.1,0.2c-0.1,0.1-1,0.1-1.5,0.1H4.8c-0.6,0-1.4,0-1.5-0.1l-0.1-0.1c0-0.1,0.5-0.8,0.7-1.4 l0.7-1.2c0.7-1.3,1.2-2.6,1.4-4.2l0.4-2.7c0.4-3,2.7-5.1,5.7-5.1c1,0,1.9,0.3,2.7,0.7c0.4-0.5,0.9-0.9,1.4-1.1C15,1.5,13.5,1,12,1 C8.2,1,5,3.9,4.5,7.7l-0.4,2.7c-0.1,1.2-0.5,2.4-1.2,3.4L2.2,15c-0.7,1.2-1.1,1.8-1,2.6c0.1,0.5,0.4,1,0.7,1.3 c0.6,0.5,1.3,0.5,2.7,0.5h3c0.2,1,0.8,1.9,1.5,2.5C10.1,22.6,11,23,12,23s2-0.4,2.7-1.1c0.7-0.6,1.2-1.5,1.5-2.5h3 c1.4,0,2.1,0,2.7-0.5c0.4-0.4,0.6-0.8,0.7-1.3C22.9,16.8,22.6,16.2,21.7,15z M13.6,20.6c-1,0.8-2.3,0.8-3.2,0 c-0.4-0.2-0.6-0.7-0.8-1.2h4.9C14.2,19.9,14,20.3,13.6,20.6z"/>
    <circle fill="var(--theme-warning-color)" cx="18" cy="5.9" r="3"/>
  </symbol>
  <symbol id="donttrack" viewBox="0 0 24 24">
    <path d="M21.7,15l-0.2,0.1L21.7,15L21,13.8c-0.6-1.1-1.1-2.3-1.2-3.4l-0.4-2.7C19,3.9,15.8,1,12,1S5,3.9,4.5,7.7l-0.4,2.7 c-0.1,1.2-0.5,2.4-1.2,3.4L2.2,15c-0.7,1.2-1.1,1.8-1,2.6c0.1,0.5,0.4,1,0.7,1.3c0.6,0.5,1.3,0.5,2.7,0.5h3c0.2,1,0.8,1.9,1.5,2.5 C10.1,22.6,11,23,12,23c1,0,2-0.4,2.7-1.1c0.7-0.6,1.2-1.5,1.5-2.5h3c1.4,0,2.1,0,2.7-0.5c0.4-0.4,0.6-0.8,0.7-1.3 C22.9,16.8,22.6,16.2,21.7,15z M14.5,19.4c-0.2,0.5-0.5,0.8-0.8,1.2l0,0c-1,0.8-2.3,0.8-3.2,0c-0.4-0.2-0.6-0.7-0.8-1.2H14.5z  M20.9,17.5c-0.1,0.1-1,0.1-1.5,0.1H4.8c-0.6,0-1.4,0-1.5-0.1l-0.1-0.1c0-0.1,0.5-0.8,0.7-1.4l0.7-1.2c0.7-1.3,1.2-2.6,1.4-4.2 l0.4-2.7c0.4-3,2.7-5.1,5.7-5.1s5.4,2.1,5.7,5.1l0.4,2.7c0.1,1.5,0.6,2.9,1.4,4.2l0.7,1.2c0.4,0.6,0.7,1.2,0.7,1.3 C21,17.4,20.9,17.4,20.9,17.5z"/>
  </symbol>
  <symbol id="hide" viewBox="0 0 24 24">
    <path
      d="M4.5,8.4C6.3,6.9,9,5.2,12,5.2c3,0,5.7,1.6,7.5,3.2c0.9,0.8,1.7,1.6,2.2,2.1c0.3,0.3,0.5,0.5,0.6,0.7c0.1,0.1,0.1,0.2,0.2,0.2c0,0,0,0,0,0.1l0,0l0,0l0,0c0,0,0,0-0.6,0.4c0.6,0.4,0.6,0.4,0.6,0.4l0,0l0,0l0,0c0,0,0,0,0,0.1c0,0-0.1,0.1-0.2,0.2c-0.1,0.2-0.3,0.4-0.6,0.7c-0.5,0.6-1.3,1.4-2.2,2.1c-1.9,1.5-4.5,3.2-7.5,3.2c-3,0-5.7-1.6-7.5-3.2c-0.9-0.8-1.7-1.6-2.2-2.1c-0.3-0.3-0.5-0.5-0.6-0.7c-0.1-0.1-0.1-0.2-0.2-0.2c0,0,0,0,0-0.1l0,0l0,0l0,0c0,0,0,0,0.6-0.4c-0.6-0.4-0.6-0.4-0.6-0.4l0,0l0,0l0,0c0,0,0,0,0-0.1c0,0,0.1-0.1,0.2-0.2c0.1-0.2,0.3-0.4,0.6-0.7C2.8,10,3.5,9.2,4.5,8.4z M2,12l-0.6-0.4c-0.2,0.3-0.2,0.6,0,0.9L2,12z M3,12c0.1,0.1,0.2,0.3,0.4,0.4c0.5,0.5,1.2,1.3,2.1,2c1.8,1.5,4.1,2.8,6.6,2.8c2.5,0,4.8-1.4,6.6-2.8c0.9-0.7,1.6-1.4,2.1-2c0.1-0.2,0.3-0.3,0.4-0.4c-0.1-0.1-0.2-0.3-0.4-0.4c-0.5-0.5-1.2-1.3-2.1-2c-1.8-1.5-4.1-2.8-6.6-2.8c-2.5,0-4.8,1.4-6.6,2.8c-0.9,0.7-1.6,1.4-2.1,2C3.2,11.7,3.1,11.9,3,12z M22,12l0.6,0.4c0.2-0.3,0.2-0.6,0-0.9L22,12z"
    />
    <path
      d="M8.8,12c0-1.8,1.5-3.2,3.2-3.2s3.2,1.5,3.2,3.2s-1.5,3.2-3.2,3.2S8.8,13.8,8.8,12z M12,10.2c-1,0-1.8,0.8-1.8,1.8s0.8,1.8,1.8,1.8s1.8-0.8,1.8-1.8S13,10.2,12,10.2z"
    />
  </symbol>
</svg>
