<svg xmlns="http://www.w3.org/2000/svg" style="display: none;">
  <symbol id="notification" viewBox="0 0 24 24">
    <path d="M9.78261 18.7959C9.78261 20.0132 10.7754 21 12 21C13.2246 21 14.2174 20.0132 14.2174 18.7959M19.3905 14.7551C18.7778 14.7551 18.2826 14.2631 18.2826 13.6524V9.24462C18.2826 5.79553 15.4703 3 12 3C8.52965 3 5.71739 5.79481 5.71739 9.24462V13.6524C5.71739 14.2609 5.2205 14.7551 4.60947 14.7551C3.99732 14.7551 3.5 15.2496 3.5 15.8571C3.5 16.4658 3.99753 16.9592 4.61235 16.9592H19.3876C20.0015 16.9592 20.5 16.4646 20.5 15.8571C20.5 15.2497 20.0014 14.7551 19.3905 14.7551Z"/>
  </symbol>
</svg>
