<svg xmlns="http://www.w3.org/2000/svg" style="display: none;">
  <symbol id="notifications" viewBox="0 0 16 16">
    <path fill-rule="evenodd" clip-rule="evenodd" d="M8.5 1.5C8.5 1.22386 8.27614 1 8 1C7.72386 1 7.5 1.22386 7.5 1.5V2.02746C5.25002 2.27619 3.5 4.18372 3.5 6.5V7.44766C3.5 8.01534 3.3068 8.56611 2.95217 9.00939L2.09004 10.0871C1.70809 10.5645 1.5 11.1577 1.5 11.7691C1.5 12.4489 2.05108 13 2.73087 13H6C6 13.2626 6.05173 13.5227 6.15224 13.7654C6.25275 14.008 6.40007 14.2285 6.58579 14.4142C6.7715 14.5999 6.99198 14.7472 7.23463 14.8478C7.47728 14.9483 7.73736 15 8 15C8.26264 15 8.52272 14.9483 8.76537 14.8478C9.00802 14.7472 9.2285 14.5999 9.41421 14.4142C9.59993 14.2285 9.74725 14.008 9.84776 13.7654C9.94827 13.5227 10 13.2626 10 13H13.2691C13.9489 13 14.5 12.4489 14.5 11.7691C14.5 11.1577 14.2919 10.5645 13.91 10.0871L13.0478 9.00939C12.6932 8.56611 12.5 8.01534 12.5 7.44766V6.5C12.5 4.18372 10.75 2.27619 8.5 2.02746V1.5ZM9 13H7C7 13.1313 7.02587 13.2614 7.07612 13.3827C7.12638 13.504 7.20003 13.6142 7.29289 13.7071C7.38575 13.8 7.49599 13.8736 7.61732 13.9239C7.73864 13.9741 7.86868 14 8 14C8.13132 14 8.26136 13.9741 8.38268 13.9239C8.50401 13.8736 8.61425 13.8 8.70711 13.7071C8.79997 13.6142 8.87362 13.504 8.92388 13.3827C8.97413 13.2614 9 13.1313 9 13ZM2.5 11.7691C2.5 11.8966 2.60336 12 2.73087 12H13.2691C13.3966 12 13.5 11.8966 13.5 11.7691C13.5 11.3848 13.3692 11.0119 13.1291 10.7118L12.267 9.63409C11.7705 9.01349 11.5 8.24241 11.5 7.44766V6.5C11.5 4.567 9.933 3 8 3C6.067 3 4.5 4.567 4.5 6.5V7.44766C4.5 8.24241 4.22952 9.01349 3.73304 9.63409L2.87091 10.7118C2.63081 11.0119 2.5 11.3848 2.5 11.7691Z" />
  </symbol>
  <symbol id="inbox" viewBox="0 0 24 24">
    <path fill-rule="evenodd" clip-rule="evenodd" d="M7.5 4.5C6.7918 4.5 6.12492 4.83344 5.7 5.4L1.65 10.8C1.55263 10.9298 1.5 11.0877 1.5 11.25V16.5C1.5 18.1569 2.84315 19.5 4.5 19.5H19.5C21.1569 19.5 22.5 18.1569 22.5 16.5V11.25C22.5 11.0877 22.4474 10.9298 22.35 10.8L18.3 5.4C17.8751 4.83344 17.2082 4.5 16.5 4.5H7.5ZM6.9 6.3C7.04164 6.11115 7.26393 6 7.5 6H16.5C16.7361 6 16.9584 6.11115 17.1 6.3L20.25 10.5H14.25C13.8358 10.5 13.5 10.8358 13.5 11.25C13.5 11.447 13.4612 11.642 13.3858 11.824C13.3104 12.006 13.1999 12.1714 13.0607 12.3107C12.9214 12.4499 12.756 12.5604 12.574 12.6358C12.392 12.7112 12.197 12.75 12 12.75C11.803 12.75 11.608 12.7112 11.426 12.6358C11.244 12.5604 11.0786 12.4499 10.9393 12.3107C10.8001 12.1714 10.6896 12.006 10.6142 11.824C10.5388 11.642 10.5 11.447 10.5 11.25C10.5 10.8358 10.1642 10.5 9.75 10.5H3.75L6.9 6.3ZM9.09526 12H3V16.5C3 17.3284 3.67157 18 4.5 18H19.5C20.3284 18 21 17.3284 21 16.5V12H14.9047C14.8698 12.1353 14.8254 12.2683 14.7716 12.3981C14.6209 12.762 14.3999 13.0927 14.1213 13.3713C13.8427 13.6499 13.512 13.8709 13.1481 14.0216C12.7841 14.1724 12.394 14.25 12 14.25C11.606 14.25 11.2159 14.1724 10.8519 14.0216C10.488 13.8709 10.1573 13.6499 9.87868 13.3713C9.6001 13.0927 9.37913 12.762 9.22836 12.3981C9.17464 12.2683 9.1302 12.1353 9.09526 12Z" />
  </symbol>
  <symbol id="track" viewBox="0 0 24 24">
    <path d="M21.7,15L21,13.8c-0.6-1.1-1.1-2.3-1.2-3.4l-0.1-0.9c-0.5,0.2-1.1,0.4-1.6,0.4l0.1,0.7c0.1,1.5,0.6,2.9,1.4,4.2l0.7,1.2 c0.4,0.6,0.7,1.2,0.7,1.3c0,0.1-0.1,0.1-0.1,0.2c-0.1,0.1-1,0.1-1.5,0.1H4.8c-0.6,0-1.4,0-1.5-0.1l-0.1-0.1c0-0.1,0.5-0.8,0.7-1.4 l0.7-1.2c0.7-1.3,1.2-2.6,1.4-4.2l0.4-2.7c0.4-3,2.7-5.1,5.7-5.1c1,0,1.9,0.3,2.7,0.7c0.4-0.5,0.9-0.9,1.4-1.1C15,1.5,13.5,1,12,1 C8.2,1,5,3.9,4.5,7.7l-0.4,2.7c-0.1,1.2-0.5,2.4-1.2,3.4L2.2,15c-0.7,1.2-1.1,1.8-1,2.6c0.1,0.5,0.4,1,0.7,1.3 c0.6,0.5,1.3,0.5,2.7,0.5h3c0.2,1,0.8,1.9,1.5,2.5C10.1,22.6,11,23,12,23s2-0.4,2.7-1.1c0.7-0.6,1.2-1.5,1.5-2.5h3 c1.4,0,2.1,0,2.7-0.5c0.4-0.4,0.6-0.8,0.7-1.3C22.9,16.8,22.6,16.2,21.7,15z M13.6,20.6c-1,0.8-2.3,0.8-3.2,0 c-0.4-0.2-0.6-0.7-0.8-1.2h4.9C14.2,19.9,14,20.3,13.6,20.6z"/>
    <circle fill="var(--theme-warning-color)" cx="18" cy="5.9" r="3"/>
  </symbol>
  <symbol id="donttrack" viewBox="0 0 24 24">
    <path d="M21.7,15l-0.2,0.1L21.7,15L21,13.8c-0.6-1.1-1.1-2.3-1.2-3.4l-0.4-2.7C19,3.9,15.8,1,12,1S5,3.9,4.5,7.7l-0.4,2.7 c-0.1,1.2-0.5,2.4-1.2,3.4L2.2,15c-0.7,1.2-1.1,1.8-1,2.6c0.1,0.5,0.4,1,0.7,1.3c0.6,0.5,1.3,0.5,2.7,0.5h3c0.2,1,0.8,1.9,1.5,2.5 C10.1,22.6,11,23,12,23c1,0,2-0.4,2.7-1.1c0.7-0.6,1.2-1.5,1.5-2.5h3c1.4,0,2.1,0,2.7-0.5c0.4-0.4,0.6-0.8,0.7-1.3 C22.9,16.8,22.6,16.2,21.7,15z M14.5,19.4c-0.2,0.5-0.5,0.8-0.8,1.2l0,0c-1,0.8-2.3,0.8-3.2,0c-0.4-0.2-0.6-0.7-0.8-1.2H14.5z  M20.9,17.5c-0.1,0.1-1,0.1-1.5,0.1H4.8c-0.6,0-1.4,0-1.5-0.1l-0.1-0.1c0-0.1,0.5-0.8,0.7-1.4l0.7-1.2c0.7-1.3,1.2-2.6,1.4-4.2 l0.4-2.7c0.4-3,2.7-5.1,5.7-5.1s5.4,2.1,5.7,5.1l0.4,2.7c0.1,1.5,0.6,2.9,1.4,4.2l0.7,1.2c0.4,0.6,0.7,1.2,0.7,1.3 C21,17.4,20.9,17.4,20.9,17.5z"/>
  </symbol>
  <symbol id="hide" viewBox="0 0 24 24">
    <path
      d="M4.5,8.4C6.3,6.9,9,5.2,12,5.2c3,0,5.7,1.6,7.5,3.2c0.9,0.8,1.7,1.6,2.2,2.1c0.3,0.3,0.5,0.5,0.6,0.7c0.1,0.1,0.1,0.2,0.2,0.2c0,0,0,0,0,0.1l0,0l0,0l0,0c0,0,0,0-0.6,0.4c0.6,0.4,0.6,0.4,0.6,0.4l0,0l0,0l0,0c0,0,0,0,0,0.1c0,0-0.1,0.1-0.2,0.2c-0.1,0.2-0.3,0.4-0.6,0.7c-0.5,0.6-1.3,1.4-2.2,2.1c-1.9,1.5-4.5,3.2-7.5,3.2c-3,0-5.7-1.6-7.5-3.2c-0.9-0.8-1.7-1.6-2.2-2.1c-0.3-0.3-0.5-0.5-0.6-0.7c-0.1-0.1-0.1-0.2-0.2-0.2c0,0,0,0,0-0.1l0,0l0,0l0,0c0,0,0,0,0.6-0.4c-0.6-0.4-0.6-0.4-0.6-0.4l0,0l0,0l0,0c0,0,0,0,0-0.1c0,0,0.1-0.1,0.2-0.2c0.1-0.2,0.3-0.4,0.6-0.7C2.8,10,3.5,9.2,4.5,8.4z M2,12l-0.6-0.4c-0.2,0.3-0.2,0.6,0,0.9L2,12z M3,12c0.1,0.1,0.2,0.3,0.4,0.4c0.5,0.5,1.2,1.3,2.1,2c1.8,1.5,4.1,2.8,6.6,2.8c2.5,0,4.8-1.4,6.6-2.8c0.9-0.7,1.6-1.4,2.1-2c0.1-0.2,0.3-0.3,0.4-0.4c-0.1-0.1-0.2-0.3-0.4-0.4c-0.5-0.5-1.2-1.3-2.1-2c-1.8-1.5-4.1-2.8-6.6-2.8c-2.5,0-4.8,1.4-6.6,2.8c-0.9,0.7-1.6,1.4-2.1,2C3.2,11.7,3.1,11.9,3,12z M22,12l0.6,0.4c0.2-0.3,0.2-0.6,0-0.9L22,12z"
    />
    <path
      d="M8.8,12c0-1.8,1.5-3.2,3.2-3.2s3.2,1.5,3.2,3.2s-1.5,3.2-3.2,3.2S8.8,13.8,8.8,12z M12,10.2c-1,0-1.8,0.8-1.8,1.8s0.8,1.8,1.8,1.8s1.8-0.8,1.8-1.8S13,10.2,12,10.2z"
    />
  </symbol>
  <symbol id="readAll" viewBox="0 0 28 28">
      <path d="M14 0.00012207C11.2311 0.00012207 8.52431 0.821208 6.22202 2.35955C3.91973 3.89789 2.12532 6.08439 1.06569 8.64255C0.00606596 11.2007 -0.271181 14.0157 0.269012 16.7314C0.809205 19.4471 2.14258 21.9417 4.10051 23.8996C6.05845 25.8576 8.55301 27.1909 11.2687 27.7311C13.9845 28.2713 16.7994 27.9941 19.3576 26.9344C21.9157 25.8748 24.1022 24.0804 25.6406 21.7781C27.1789 19.4758 28 16.7691 28 14.0001C28 10.2871 26.525 6.72614 23.8995 4.10063C21.274 1.47512 17.713 0.00012207 14 0.00012207ZM14 26.0001C11.6266 26.0001 9.30655 25.2963 7.33316 23.9778C5.35977 22.6592 3.8217 20.785 2.91345 18.5923C2.0052 16.3996 1.76756 13.9868 2.23058 11.659C2.69361 9.33127 3.83649 7.19307 5.51472 5.51484C7.19296 3.83661 9.33115 2.69372 11.6589 2.2307C13.9867 1.76768 16.3995 2.00532 18.5922 2.91357C20.7849 3.82182 22.6591 5.35989 23.9776 7.33328C25.2962 9.30667 26 11.6267 26 14.0001C26 17.1827 24.7357 20.235 22.4853 22.4854C20.2348 24.7358 17.1826 26.0001 14 26.0001Z" />
      <path fill-rule="evenodd" clip-rule="evenodd" d="M20.7071 9.29326C21.0976 9.68378 21.0976 10.3169 20.7071 10.7075L12.7071 18.7075C12.3166 19.098 11.6834 19.098 11.2929 18.7075L7.29289 14.7075C6.90237 14.3169 6.90237 13.6838 7.29289 13.2933C7.68342 12.9027 8.31658 12.9027 8.70711 13.2933L12 16.5862L19.2929 9.29326C19.6834 8.90274 20.3166 8.90274 20.7071 9.29326Z" />
  </symbol>
  <symbol id="unreadAll" viewBox="0 0 28 28">
      <path fill-rule="evenodd" clip-rule="evenodd" d="M14 26.0004C20.6274 26.0004 26 20.6278 26 14.0004C26 7.37295 20.6274 2.00037 14 2.00037C7.37258 2.00037 2 7.37295 2 14.0004C2 20.6278 7.37258 26.0004 14 26.0004ZM14 28.0004C21.732 28.0004 28 21.7324 28 14.0004C28 6.26838 21.732 0.000366211 14 0.000366211C6.26801 0.000366211 0 6.26838 0 14.0004C0 21.7324 6.26801 28.0004 14 28.0004Z" />
  </symbol>
</svg>
