<svg xmlns="http://www.w3.org/2000/svg" style="display: none;">
  <symbol id="notifications" viewBox="0 0 32 32">
    <path fill-rule="evenodd" clip-rule="evenodd" d="M17 3C17 2.44772 16.5523 2 16 2C15.4477 2 15 2.44772 15 3V4.05493C10.5 4.55237 7 8.36745 7 13V14.8953C7 16.0307 6.6136 17.1322 5.90434 18.0188L4.18007 20.1741C3.41618 21.129 3 22.3154 3 23.5383C3 24.8978 4.10216 26 5.46174 26H12C12 26.5253 12.1035 27.0454 12.3045 27.5307C12.5055 28.016 12.8001 28.457 13.1716 28.8284C13.543 29.1999 13.984 29.4945 14.4693 29.6955C14.9546 29.8965 15.4747 30 16 30C16.5253 30 17.0454 29.8965 17.5307 29.6955C18.016 29.4945 18.457 29.1999 18.8284 28.8284C19.1999 28.457 19.4945 28.016 19.6955 27.5307C19.8965 27.0454 20 26.5253 20 26H26.5383C27.8978 26 29 24.8978 29 23.5383C29 22.3154 28.5838 21.129 27.8199 20.1741L26.0957 18.0188C25.3864 17.1322 25 16.0307 25 14.8953V13C25 8.36745 21.5 4.55237 17 4.05493V3ZM18 26H14C14 26.2626 14.0517 26.5227 14.1522 26.7654C14.2528 27.008 14.4001 27.2285 14.5858 27.4142C14.7715 27.5999 14.992 27.7472 15.2346 27.8478C15.4773 27.9483 15.7374 28 16 28C16.2626 28 16.5227 27.9483 16.7654 27.8478C17.008 27.7472 17.2285 27.5999 17.4142 27.4142C17.5999 27.2285 17.7472 27.008 17.8478 26.7654C17.9483 26.5227 18 26.2626 18 26ZM5 23.5383C5 23.7933 5.20673 24 5.46174 24H26.5383C26.7933 24 27 23.7933 27 23.5383C27 22.7696 26.7384 22.0238 26.2582 21.4235L24.5339 19.2682C23.541 18.027 23 16.4848 23 14.8953V13C23 9.13401 19.866 6 16 6C12.134 6 9 9.13401 9 13V14.8953C9 16.4848 8.45903 18.027 7.46608 19.2682L5.74181 21.4235C5.26161 22.0238 5 22.7696 5 23.5383Z" />
  </symbol>
  <symbol id="inbox" viewBox="0 0 32 32">
    <path d="M8 6.99976C8 6.44747 8.44772 5.99976 9 5.99976H23C23.5523 5.99976 24 6.44747 24 6.99976C24 7.55204 23.5523 7.99976 23 7.99976H9C8.44772 7.99976 8 7.55204 8 6.99976Z" />
    <path d="M6 10.9998C6 10.4475 6.44772 9.99976 7 9.99976H25C25.5523 9.99976 26 10.4475 26 10.9998C26 11.552 25.5523 11.9998 25 11.9998H7C6.44772 11.9998 6 11.552 6 10.9998Z" />
    <path fill-rule="evenodd" clip-rule="evenodd" d="M6 13.9998C3.79086 13.9998 2 15.7906 2 17.9998V21.9998C2 24.2089 3.79086 25.9998 6 25.9998H26C28.2091 25.9998 30 24.2089 30 21.9998V17.9998C30 15.7906 28.2091 13.9998 26 13.9998H19C18.4477 13.9998 18 14.4475 18 14.9998C18 16.1043 17.1046 16.9998 16 16.9998C14.8954 16.9998 14 16.1043 14 14.9998C14 14.4475 13.5523 13.9998 13 13.9998H6ZM4 17.9998C4 16.8952 4.89543 15.9998 6 15.9998H12.126C12.5701 17.725 14.1362 18.9998 16 18.9998C17.8638 18.9998 19.4299 17.725 19.874 15.9998H26C27.1046 15.9998 28 16.8952 28 17.9998V21.9998C28 23.1043 27.1046 23.9998 26 23.9998H6C4.89543 23.9998 4 23.1043 4 21.9998V17.9998Z" />
  </symbol>
  <symbol id="track" viewBox="0 0 24 24">
    <path d="M21.7,15L21,13.8c-0.6-1.1-1.1-2.3-1.2-3.4l-0.1-0.9c-0.5,0.2-1.1,0.4-1.6,0.4l0.1,0.7c0.1,1.5,0.6,2.9,1.4,4.2l0.7,1.2 c0.4,0.6,0.7,1.2,0.7,1.3c0,0.1-0.1,0.1-0.1,0.2c-0.1,0.1-1,0.1-1.5,0.1H4.8c-0.6,0-1.4,0-1.5-0.1l-0.1-0.1c0-0.1,0.5-0.8,0.7-1.4 l0.7-1.2c0.7-1.3,1.2-2.6,1.4-4.2l0.4-2.7c0.4-3,2.7-5.1,5.7-5.1c1,0,1.9,0.3,2.7,0.7c0.4-0.5,0.9-0.9,1.4-1.1C15,1.5,13.5,1,12,1 C8.2,1,5,3.9,4.5,7.7l-0.4,2.7c-0.1,1.2-0.5,2.4-1.2,3.4L2.2,15c-0.7,1.2-1.1,1.8-1,2.6c0.1,0.5,0.4,1,0.7,1.3 c0.6,0.5,1.3,0.5,2.7,0.5h3c0.2,1,0.8,1.9,1.5,2.5C10.1,22.6,11,23,12,23s2-0.4,2.7-1.1c0.7-0.6,1.2-1.5,1.5-2.5h3 c1.4,0,2.1,0,2.7-0.5c0.4-0.4,0.6-0.8,0.7-1.3C22.9,16.8,22.6,16.2,21.7,15z M13.6,20.6c-1,0.8-2.3,0.8-3.2,0 c-0.4-0.2-0.6-0.7-0.8-1.2h4.9C14.2,19.9,14,20.3,13.6,20.6z" />
    <circle fill="var(--theme-warning-color)" cx="18" cy="5.9" r="3"/>
  </symbol>
  <symbol id="donttrack" viewBox="0 0 24 24">
    <path d="M21.7,15l-0.2,0.1L21.7,15L21,13.8c-0.6-1.1-1.1-2.3-1.2-3.4l-0.4-2.7C19,3.9,15.8,1,12,1S5,3.9,4.5,7.7l-0.4,2.7 c-0.1,1.2-0.5,2.4-1.2,3.4L2.2,15c-0.7,1.2-1.1,1.8-1,2.6c0.1,0.5,0.4,1,0.7,1.3c0.6,0.5,1.3,0.5,2.7,0.5h3c0.2,1,0.8,1.9,1.5,2.5 C10.1,22.6,11,23,12,23c1,0,2-0.4,2.7-1.1c0.7-0.6,1.2-1.5,1.5-2.5h3c1.4,0,2.1,0,2.7-0.5c0.4-0.4,0.6-0.8,0.7-1.3 C22.9,16.8,22.6,16.2,21.7,15z M14.5,19.4c-0.2,0.5-0.5,0.8-0.8,1.2l0,0c-1,0.8-2.3,0.8-3.2,0c-0.4-0.2-0.6-0.7-0.8-1.2H14.5z  M20.9,17.5c-0.1,0.1-1,0.1-1.5,0.1H4.8c-0.6,0-1.4,0-1.5-0.1l-0.1-0.1c0-0.1,0.5-0.8,0.7-1.4l0.7-1.2c0.7-1.3,1.2-2.6,1.4-4.2 l0.4-2.7c0.4-3,2.7-5.1,5.7-5.1s5.4,2.1,5.7,5.1l0.4,2.7c0.1,1.5,0.6,2.9,1.4,4.2l0.7,1.2c0.4,0.6,0.7,1.2,0.7,1.3 C21,17.4,20.9,17.4,20.9,17.5z" />
  </symbol>
  <symbol id="hide" viewBox="0 0 24 24">
    <path
      d="M4.5,8.4C6.3,6.9,9,5.2,12,5.2c3,0,5.7,1.6,7.5,3.2c0.9,0.8,1.7,1.6,2.2,2.1c0.3,0.3,0.5,0.5,0.6,0.7c0.1,0.1,0.1,0.2,0.2,0.2c0,0,0,0,0,0.1l0,0l0,0l0,0c0,0,0,0-0.6,0.4c0.6,0.4,0.6,0.4,0.6,0.4l0,0l0,0l0,0c0,0,0,0,0,0.1c0,0-0.1,0.1-0.2,0.2c-0.1,0.2-0.3,0.4-0.6,0.7c-0.5,0.6-1.3,1.4-2.2,2.1c-1.9,1.5-4.5,3.2-7.5,3.2c-3,0-5.7-1.6-7.5-3.2c-0.9-0.8-1.7-1.6-2.2-2.1c-0.3-0.3-0.5-0.5-0.6-0.7c-0.1-0.1-0.1-0.2-0.2-0.2c0,0,0,0,0-0.1l0,0l0,0l0,0c0,0,0,0,0.6-0.4c-0.6-0.4-0.6-0.4-0.6-0.4l0,0l0,0l0,0c0,0,0,0,0-0.1c0,0,0.1-0.1,0.2-0.2c0.1-0.2,0.3-0.4,0.6-0.7C2.8,10,3.5,9.2,4.5,8.4z M2,12l-0.6-0.4c-0.2,0.3-0.2,0.6,0,0.9L2,12z M3,12c0.1,0.1,0.2,0.3,0.4,0.4c0.5,0.5,1.2,1.3,2.1,2c1.8,1.5,4.1,2.8,6.6,2.8c2.5,0,4.8-1.4,6.6-2.8c0.9-0.7,1.6-1.4,2.1-2c0.1-0.2,0.3-0.3,0.4-0.4c-0.1-0.1-0.2-0.3-0.4-0.4c-0.5-0.5-1.2-1.3-2.1-2c-1.8-1.5-4.1-2.8-6.6-2.8c-2.5,0-4.8,1.4-6.6,2.8c-0.9,0.7-1.6,1.4-2.1,2C3.2,11.7,3.1,11.9,3,12z M22,12l0.6,0.4c0.2-0.3,0.2-0.6,0-0.9L22,12z"
    />
    <path
      d="M8.8,12c0-1.8,1.5-3.2,3.2-3.2s3.2,1.5,3.2,3.2s-1.5,3.2-3.2,3.2S8.8,13.8,8.8,12z M12,10.2c-1,0-1.8,0.8-1.8,1.8s0.8,1.8,1.8,1.8s1.8-0.8,1.8-1.8S13,10.2,12,10.2z"
    />
  </symbol>
</svg>
