<svg xmlns="http://www.w3.org/2000/svg" style="display: none;">
  <symbol id="file" viewBox="0 0 32 32">
    <path fill-rule="evenodd" clip-rule="evenodd" d="M9 4C7.89543 4 7 4.89543 7 6V26C7 27.1046 7.89543 28 9 28H23C24.1046 28 25 27.1046 25 26V12H21C18.7909 12 17 10.2091 17 8V4H9ZM19 4.41421V8C19 9.10457 19.8954 10 21 10H24.5858L19 4.41421ZM5 6C5 3.79086 6.79086 2 9 2H18.5858C19.1162 2 19.6249 2.21071 20 2.58579L26.4142 9C26.7893 9.37507 27 9.88378 27 10.4142V26C27 28.2091 25.2091 30 23 30H9C6.79086 30 5 28.2091 5 26V6Z" fill="currentColor"/>
  </symbol>
  <symbol id="folder" viewBox="0 0 32 32">
    <path fill-rule="evenodd" clip-rule="evenodd" d="M2 9C2 6.23858 4.23858 4 7 4H10.6716C11.4672 4 12.2303 4.31607 12.7929 4.87868L15.6213 7.70711C15.8089 7.89464 16.0632 8 16.3284 8H25C27.7614 8 30 10.2386 30 13V23C30 25.7614 27.7614 28 25 28H7C4.23858 28 2 25.7614 2 23V9ZM7 6C5.34315 6 4 7.34315 4 9V23C4 24.6569 5.34315 26 7 26H25C26.6569 26 28 24.6569 28 23V13C28 11.3431 26.6569 10 25 10H16.3284C15.5328 10 14.7697 9.68393 14.2071 9.12132L11.3787 6.29289C11.1911 6.10536 10.9368 6 10.6716 6H7Z" fill="currentColor"/>
  </symbol>
</svg>
