<svg xmlns="http://www.w3.org/2000/svg" style="display: none;">
    <symbol id="inbox" viewBox="0 0 22 22">
        <path fill-rule="evenodd" clip-rule="evenodd"
              d="M10.9428 0.75H11.0572C13.2479 0.749987 14.9685 0.749976 16.312 0.930593C17.6886 1.11568 18.7809 1.50271 19.6391 2.3609C20.4973 3.2191 20.8843 4.31138 21.0694 5.68803C21.25 7.03144 21.25 8.7521 21.25 10.9428V11.0572C21.25 13.2478 21.25 14.9685 21.0694 16.312C20.8843 17.6886 20.4973 18.7809 19.6392 19.6391C18.7809 20.4973 17.6886 20.8843 16.312 21.0694C14.9685 21.25 13.2479 21.25 11.0572 21.25H10.9428C8.75214 21.25 7.03144 21.25 5.68803 21.0694C4.31138 20.8843 3.21912 20.4973 2.36092 19.6391C1.50273 18.7809 1.11568 17.6886 0.930593 16.312C0.749976 14.9685 0.749987 13.2479 0.75 11.0572V10.9428C0.749987 8.75212 0.749976 7.03144 0.930594 5.68803C1.11568 4.31137 1.50271 3.21911 2.36091 2.36091C3.21911 1.50272 4.31137 1.11568 5.68803 0.930594C7.03144 0.749976 8.75212 0.749987 10.9428 0.75ZM5.8879 2.41722C4.67758 2.57994 3.95462 2.88853 3.42157 3.42157C2.88853 3.95462 2.57994 4.67758 2.41722 5.8879C2.25159 7.1198 2.25 8.73963 2.25 11C2.25 11.2582 2.25002 11.5081 2.25031 11.75H5.75675C7.10297 11.75 8.34789 12.465 9.02621 13.6279C9.90797 15.1395 12.092 15.1395 12.9738 13.6279C13.6521 12.465 14.897 11.75 16.2433 11.75H19.7497C19.75 11.5081 19.75 11.2582 19.75 11C19.75 8.73963 19.7484 7.1198 19.5828 5.88789C19.4201 4.67758 19.1115 3.95461 18.5785 3.42156C18.0454 2.88852 17.3224 2.57994 16.1121 2.41722C14.8802 2.25159 13.2604 2.25 11 2.25C8.73963 2.25 7.1198 2.25159 5.8879 2.41722ZM19.7412 13.25H16.2433C15.4305 13.25 14.679 13.6817 14.2695 14.3837C12.8089 16.8875 9.19111 16.8875 7.73054 14.3837C7.32103 13.6817 6.56947 13.25 5.75675 13.25H2.25877C2.27344 14.4012 2.31261 15.334 2.41722 16.1121C2.57994 17.3224 2.88854 18.0454 3.42158 18.5785C3.95463 19.1115 4.67758 19.4201 5.88789 19.5828C7.1198 19.7484 8.73963 19.75 11 19.75C13.2604 19.75 14.8802 19.7484 16.1121 19.5828C17.3224 19.4201 18.0454 19.1115 18.5785 18.5785C19.1115 18.0454 19.4201 17.3224 19.5828 16.1121C19.6874 15.334 19.7266 14.4012 19.7412 13.25Z"
        />
    </symbol>
</svg>
