<?xml version="1.0" encoding="utf-8"?>
<!-- Generator: Adobe Illustrator 23.1.0, SVG Export Plug-In . SVG Version: 6.00 Build 0)  -->
<svg version="1.1" id="Слой_1" xmlns="http://www.w3.org/2000/svg" xmlns:xlink="http://www.w3.org/1999/xlink" x="0px" y="0px"
	 viewBox="0 0 36 36" style="enable-background:new 0 0 36 36;" xml:space="preserve">
<style type="text/css">
	.st0{fill-rule:evenodd;clip-rule:evenodd;fill:#B82C2E;}
	.st1{fill-rule:evenodd;clip-rule:evenodd;fill:#6FA94C;}
	.st2{fill-rule:evenodd;clip-rule:evenodd;fill:#687EB9;}
	.st3{fill-rule:evenodd;clip-rule:evenodd;fill:#E6C12D;}
</style>
<g>
	<path class="st0" d="M4.9,11.3c0.6-1.3,1.5-2.5,2.5-3.6c2.3-2.4,5.1-3.9,8.4-4.5c4.6-0.7,8.7,0.4,12.3,3.4c0.2,0.2,0.3,0.3,0,0.5
		c-1.3,1.2-2.5,2.5-3.7,3.7c-0.1,0.1-0.2,0.3-0.4,0.1c-3.1-2.9-8.2-2.8-11.6,0.3c-1.1,1.1-2,2.3-2.5,3.8c-0.1-0.1-0.2-0.1-0.2-0.2
		C8,13.7,6.5,12.5,4.9,11.3z"/>
	<path class="st1" d="M9.8,20.9c0.4,1.1,1,2.2,1.8,3.1c2.1,2.3,4.7,3.3,7.9,3c1.5-0.2,2.8-0.6,4-1.4c0.1,0.1,0.2,0.2,0.4,0.3
		c1.5,1.1,2.9,2.3,4.4,3.4c-1.6,1.5-3.5,2.5-5.6,3.1c-5,1.3-9.6,0.5-13.7-2.8c-1.7-1.3-3-3-4-4.9C6.5,23.4,8.2,22.2,9.8,20.9z"/>
	<path class="st2" d="M28.2,29.4c-1.5-1.1-2.9-2.3-4.4-3.4c-0.1-0.1-0.2-0.2-0.4-0.3c1-0.8,1.8-1.6,2.3-2.8c0.2-0.4,0.4-0.9,0.5-1.4
		c0.1-0.3,0.1-0.5-0.3-0.5c-2.4,0-4.8,0-7.2,0c-0.5,0-0.5,0-0.5-0.5c0-1.6,0-3.3,0-4.9c0-0.3,0.1-0.4,0.4-0.4c4.5,0,8.9,0,13.4,0
		c0.2,0,0.4,0,0.4,0.3c0.6,3.9,0.1,7.6-1.9,11.1C29.9,27.6,29.2,28.6,28.2,29.4z"/>
	<path class="st3" d="M9.8,20.9c-1.6,1.3-3.3,2.5-4.9,3.8c-0.8-1.5-1.3-3.1-1.5-4.7c-0.4-2.9,0-5.6,1.3-8.3c0.1-0.1,0.2-0.3,0.2-0.4
		c1.6,1.2,3.1,2.4,4.7,3.6C9.7,14.9,9.8,15,9.8,15C9.2,17,9.2,18.9,9.8,20.9z"/>
</g>
</svg>
