<?xml version="1.0" encoding="utf-8"?>
<!-- Generator: Adobe Illustrator 23.1.0, SVG Export Plug-In . SVG Version: 6.00 Build 0)  -->
<svg version="1.1" id="Слой_1" xmlns="http://www.w3.org/2000/svg" xmlns:xlink="http://www.w3.org/1999/xlink" x="0px" y="0px"
	 viewBox="0 0 36 36" style="enable-background:new 0 0 36 36;" xml:space="preserve">
<style type="text/css">
	.st0{fill:url(#SVGID_1_);}
	.st1{fill-rule:evenodd;clip-rule:evenodd;fill:url(#SVGID_2_);}
</style>
<linearGradient id="SVGID_1_" gradientUnits="userSpaceOnUse" x1="14.3791" y1="-2.5354" x2="21.6209" y2="38.5354">
	<stop  offset="5.076140e-03" style="stop-color:#C52229"/>
	<stop  offset="1" style="stop-color:#802022"/>
</linearGradient>
<rect class="st0" width="36" height="36"/>
<linearGradient id="SVGID_2_" gradientUnits="userSpaceOnUse" x1="18" y1="6.2743" x2="18" y2="29.7257">
	<stop  offset="0" style="stop-color:#FFFFFF"/>
	<stop  offset="0.5066" style="stop-color:#FDFDFD"/>
	<stop  offset="0.7696" style="stop-color:#F5F5F5"/>
	<stop  offset="0.9763" style="stop-color:#E8E8E8"/>
	<stop  offset="1" style="stop-color:#E6E6E6"/>
</linearGradient>
<path class="st1" d="M7.3,9.8c2.8-1.1,7.4-1.3,9.4-1.2l1.3,1.6l1.3-1.6c2-0.1,6.6,0.1,9.4,1.2c-0.4,0.7-2.1,1.8-3,2
	c-0.1-1.4-2.1-1.7-4-1.7L18,29.7l-3.7-19.7c-2,0-4,0.3-4,1.7C9.4,11.6,7.7,10.5,7.3,9.8L7.3,9.8z M6,7.8l0.7,1.1
	c2.7-1,5.9-1.4,9.3-1.5c1.3,0,2.6,0,3.9,0c3.4,0.1,6.6,0.6,9.3,1.5L30,7.8c-3.2-1.1-6.6-1.4-10-1.5c-1.3,0-2.6,0-4,0
	C12.6,6.4,9.2,6.7,6,7.8L6,7.8z"/>
</svg>
