<svg xmlns="http://www.w3.org/2000/svg" style="display: none;">
  <symbol id="browser" viewBox="0 0 32 32">
    <path d="M16,2C9.8,2,3.4,3.8,3.4,7.3V16v8.7C3.4,28.2,9.8,30,16,30c0.6,0,1-0.4,1-1s-0.4-1-1-1c-6.4,0-10.6-2-10.6-3.3V19c2.4,1.5,6.5,2.3,10.6,2.3c0.6,0,1-0.4,1-1s-0.4-1-1-1c-6.4,0-10.6-2-10.6-3.3v-5.7c2.4,1.5,6.5,2.3,10.6,2.3s8.2-0.8,10.6-2.3v4.9c0,0.6,0.4,1,1,1s1-0.4,1-1V7.3C28.6,3.8,22.2,2,16,2z M16,10.7c-6.4,0-10.6-2-10.6-3.3S9.6,4,16,4c6.4,0,10.6,2,10.6,3.3S22.4,10.7,16,10.7z" />
    <path d="M29.7,28.3l-2-2c0.6-0.8,0.9-1.9,0.9-3c0-2.9-2.4-5.3-5.3-5.3c-2.9,0-5.3,2.4-5.3,5.3c0,2.9,2.4,5.3,5.3,5.3c1.1,0,2.1-0.3,3-0.9l2,2c0.2,0.2,0.5,0.3,0.7,0.3s0.5-0.1,0.7-0.3C30.1,29.3,30.1,28.7,29.7,28.3z M20,23.3c0-1.8,1.5-3.3,3.3-3.3s3.3,1.5,3.3,3.3s-1.5,3.3-3.3,3.3S20,25.1,20,23.3z" />
  </symbol>
</svg>
