<svg xmlns="http://www.w3.org/2000/svg" style="display: none;">
    <symbol id="arrow-down" viewBox="0 0 32 32">
        <path d="M24.59 16.59L17 24.17V5C17 4.44772 16.5523 4 16 4C15.4477 4 15 4.44772 15 5V24.17L7.41 16.59L6 18L16 28L26 18L24.59 16.59Z" />
    </symbol>
    <symbol id="arrow-up" viewBox="0 0 32 32">
        <path d="M16 4L6 14L7.41 15.41L15 7.83V27C15 27.5523 15.4477 28 16 28C16.5523 28 17 27.5523 17 27V7.83L24.59 15.41L26 14L16 4Z" />
    </symbol>
    <symbol id="assessment" viewBox="0 0 32 32">
        <path d="M16 2.00024C13.2311 2.00024 10.5243 2.82133 8.22202 4.35967C5.91973 5.89801 4.12532 8.08451 3.06569 10.6427C2.00607 13.2008 1.72882 16.0158 2.26901 18.7315C2.80921 21.4472 4.14258 23.9418 6.10051 25.8997C8.05845 27.8577 10.553 29.191 13.2687 29.7312C15.9845 30.2714 18.7994 29.9942 21.3576 28.9346C23.9157 27.8749 26.1022 26.0805 27.6406 23.7782C29.1789 21.4759 30 18.7692 30 16.0002C30 12.2872 28.525 8.72626 25.8995 6.10075C23.274 3.47524 19.713 2.00024 16 2.00024ZM16 28.0002C13.6266 28.0002 11.3066 27.2965 9.33316 25.9779C7.35977 24.6593 5.8217 22.7852 4.91345 20.5924C4.0052 18.3997 3.76756 15.9869 4.23058 13.6592C4.69361 11.3314 5.83649 9.19319 7.51472 7.51496C9.19296 5.83673 11.3312 4.69384 13.6589 4.23082C15.9867 3.7678 18.3995 4.00544 20.5922 4.91369C22.7849 5.82194 24.6591 7.36001 25.9776 9.3334C27.2962 11.3068 28 13.6269 28 16.0002C28 19.1828 26.7357 22.2351 24.4853 24.4855C22.2348 26.736 19.1826 28.0002 16 28.0002Z" />
        <path fill-rule="evenodd" clip-rule="evenodd" d="M22.7071 11.2934C23.0976 11.6839 23.0976 12.3171 22.7071 12.7076L14.7071 20.7076C14.3166 21.0981 13.6834 21.0981 13.2929 20.7076L9.29289 16.7076C8.90237 16.3171 8.90237 15.6839 9.29289 15.2934C9.68342 14.9029 10.3166 14.9029 10.7071 15.2934L14 18.5863L21.2929 11.2934C21.6834 10.9029 22.3166 10.9029 22.7071 11.2934Z" />
    </symbol>
    <symbol id="checkbox" viewBox="0 0 32 32">
        <path fill-rule="evenodd" clip-rule="evenodd" d="M4 8.00024C4 5.79111 5.79086 4.00024 8 4.00024H24C26.2091 4.00024 28 5.79111 28 8.00024V24.0002C28 26.2094 26.2091 28.0002 24 28.0002H8C5.79086 28.0002 4 26.2094 4 24.0002V8.00024ZM23.7071 10.2931C24.0976 10.6837 24.0976 11.3168 23.7071 11.7074L14.7071 20.7074C14.3166 21.0979 13.6834 21.0979 13.2929 20.7074L9.29289 16.7074C8.90237 16.3168 8.90237 15.6837 9.29289 15.2931C9.68342 14.9026 10.3166 14.9026 10.7071 15.2931L14 18.586L22.2929 10.2931C22.6834 9.90261 23.3166 9.90261 23.7071 10.2931Z"/>
    </symbol>
    <symbol id="drag" viewBox="0 0 32 32">
        <path d="M18 11.9998C18 13.1043 18.8954 13.9998 20 13.9998C21.1046 13.9998 22 13.1043 22 11.9998C22 10.8952 21.1046 9.99976 20 9.99976C18.8954 9.99976 18 10.8952 18 11.9998Z" />
        <path d="M18 19.9998C18 21.1043 18.8954 21.9998 20 21.9998C21.1046 21.9998 22 21.1043 22 19.9998C22 18.8952 21.1046 17.9998 20 17.9998C18.8954 17.9998 18 18.8952 18 19.9998Z" />
        <path d="M20 29.9998C18.8954 29.9998 18 29.1043 18 27.9998C18 26.8952 18.8954 25.9998 20 25.9998C21.1046 25.9998 22 26.8952 22 27.9998C22 29.1043 21.1046 29.9998 20 29.9998Z" />
        <path d="M18 4C18 5.10457 18.8954 6 20 6C21.1046 6 22 5.10457 22 4C22 2.89543 21.1046 2 20 2C18.8954 2 18 2.89543 18 4Z" />
        <path d="M10 11.9998C10 13.1043 10.8954 13.9998 12 13.9998C13.1046 13.9998 14 13.1043 14 11.9998C14 10.8952 13.1046 9.99976 12 9.99976C10.8954 9.99976 10 10.8952 10 11.9998Z" />
        <path d="M10 19.9998C10 21.1043 10.8954 21.9998 12 21.9998C13.1046 21.9998 14 21.1043 14 19.9998C14 18.8952 13.1046 17.9998 12 17.9998C10.8954 17.9998 10 18.8952 10 19.9998Z" />
        <path d="M12 29.9998C10.8954 29.9998 10 29.1043 10 27.9998C10 26.8952 10.8954 25.9998 12 25.9998C13.1046 25.9998 14 26.8952 14 27.9998C14 29.1043 13.1046 29.9998 12 29.9998Z" />
        <path d="M10 4C10 5.10457 10.8954 6 12 6C13.1046 6 14 5.10457 14 4C14 2.89543 13.1046 2 12 2C10.8954 2 10 2.89543 10 4Z" />
    </symbol>
    <symbol id="duplicate" viewBox="0 0 32 32">
        <path fill-rule="evenodd" clip-rule="evenodd" d="M10 6.00012C10 3.79098 11.7909 2.00012 14 2.00012H24C26.2091 2.00012 28 3.79098 28 6.00012V20.0001C28 22.2093 26.2091 24.0001 24 24.0001H14C11.7909 24.0001 10 22.2093 10 20.0001V6.00012ZM14 4.00012C12.8954 4.00012 12 4.89555 12 6.00012V20.0001C12 21.1047 12.8954 22.0001 14 22.0001H24C25.1046 22.0001 26 21.1047 26 20.0001V6.00012C26 4.89555 25.1046 4.00012 24 4.00012H14Z" />
        <path fill-rule="evenodd" clip-rule="evenodd" d="M8 10.0001C6.89543 10.0001 6 10.8956 6 12.0001V26.0001C6 27.1047 6.89543 28.0001 8 28.0001H18C19.1046 28.0001 20 27.1047 20 26.0001V24.0001H22V26.0001C22 28.2093 20.2091 30.0001 18 30.0001H8C5.79086 30.0001 4 28.2093 4 26.0001V12.0001C4 9.79098 5.79086 8.00012 8 8.00012H10V10.0001H8Z" />
    </symbol>
    <symbol id="failed" viewBox="0 0 32 32">
        <path fill-rule="evenodd" clip-rule="evenodd" d="M2 16.0002C2 8.20024 8.2 2.00024 16 2.00024C23.8 2.00024 30 8.20024 30 16.0002C30 23.8002 23.8 30.0002 16 30.0002C8.2 30.0002 2 23.8002 2 16.0002ZM9.29289 10.7076C8.90237 10.3171 8.90237 9.68391 9.29289 9.29338C9.68342 8.90286 10.3166 8.90286 10.7071 9.29338L16 14.5863L21.2929 9.29338C21.6834 8.90286 22.3166 8.90286 22.7071 9.29338C23.0976 9.68391 23.0976 10.3171 22.7071 10.7076L17.4142 16.0005L22.7071 21.2934C23.0976 21.6839 23.0976 22.3171 22.7071 22.7076C22.3166 23.0981 21.6834 23.0981 21.2929 22.7076L16 17.4147L10.7071 22.7076C10.3166 23.0981 9.68342 23.0981 9.29289 22.7076C8.90237 22.3171 8.90237 21.6839 9.29289 21.2934L14.5858 16.0005L9.29289 10.7076Z"/>
    </symbol>
    <symbol id="mini-drag" viewBox="0 0 16 16">
        <path d="M9 8C9 8.55228 9.44772 9 10 9C10.5523 9 11 8.55228 11 8C11 7.44772 10.5523 7 10 7C9.44772 7 9 7.44772 9 8Z" />
        <path d="M9 12C9 12.5523 9.44772 13 10 13C10.5523 13 11 12.5523 11 12C11 11.4477 10.5523 11 10 11C9.44772 11 9 11.4477 9 12Z" />
        <path d="M5 8C5 8.55228 5.44772 9 6 9C6.55229 9 7 8.55228 7 8C7 7.44772 6.55229 7 6 7C5.44772 7 5 7.44772 5 8Z" />
        <path d="M5 12C5 12.5523 5.44772 13 6 13C6.55228 13 7 12.5523 7 12C7 11.4477 6.55229 11 6 11C5.44772 11 5 11.4477 5 12Z" />
        <path d="M9 4C9 4.55228 9.44772 5 10 5C10.5523 5 11 4.55228 11 4C11 3.44772 10.5523 3 10 3C9.44772 3 9 3.44772 9 4Z" />
        <path d="M5 4C5 4.55228 5.44772 5 6 5C6.55229 5 7 4.55228 7 4C7 3.44772 6.55229 3 6 3C5.44772 3 5 3.44772 5 4Z" />
    </symbol>
    <symbol id="passed" viewBox="0 0 32 32">
        <path fill-rule="evenodd" clip-rule="evenodd" d="M8.22202 4.35967C10.5243 2.82133 13.2311 2.00024 16 2.00024C19.713 2.00024 23.274 3.47524 25.8995 6.10075C28.525 8.72626 30 12.2872 30 16.0002C30 18.7692 29.1789 21.4759 27.6406 23.7782C26.1022 26.0805 23.9157 27.8749 21.3576 28.9346C18.7994 29.9942 15.9845 30.2714 13.2687 29.7312C10.553 29.191 8.05845 27.8577 6.10051 25.8997C4.14258 23.9418 2.80921 21.4472 2.26901 18.7315C1.72882 16.0158 2.00607 13.2008 3.06569 10.6427C4.12532 8.08451 5.91973 5.89801 8.22202 4.35967ZM22.7071 12.7076C23.0976 12.3171 23.0976 11.6839 22.7071 11.2934C22.3166 10.9029 21.6834 10.9029 21.2929 11.2934L14 18.5863L10.7071 15.2934C10.3166 14.9029 9.68342 14.9029 9.29289 15.2934C8.90237 15.6839 8.90237 16.3171 9.29289 16.7076L13.2929 20.7076C13.6834 21.0981 14.3166 21.0981 14.7071 20.7076L22.7071 12.7076Z"/>
    </symbol>
    <symbol id="question" viewBox="0 0 32 32">
        <path d="M17.5 23.5C17.5 24.3284 16.8284 25 16 25C15.1716 25 14.5 24.3284 14.5 23.5C14.5 22.6716 15.1716 22 16 22C16.8284 22 17.5 22.6716 17.5 23.5Z"/>
        <path d="M13 13C13 11.3431 14.3431 10 16 10C17.6569 10 19 11.3431 19 13V13.0964C19 14.7 17.7 16 16.0964 16C15.4909 16 15 16.4909 15 17.0964V19C15 19.5523 15.4477 20 16 20C16.5523 20 17 19.5523 17 19V17.9169C19.2766 17.4928 21 15.4959 21 13.0964V13C21 10.2386 18.7614 8 16 8C13.2386 8 11 10.2386 11 13C11 13.5523 11.4477 14 12 14C12.5523 14 13 13.5523 13 13Z"/>
        <path fill-rule="evenodd" clip-rule="evenodd" d="M8.22202 4.35943C10.5243 2.82109 13.2311 2 16 2C19.713 2 23.274 3.475 25.8995 6.1005C28.525 8.72601 30 12.287 30 16C30 18.7689 29.1789 21.4757 27.6406 23.778C26.1022 26.0803 23.9157 27.8747 21.3576 28.9343C18.7994 29.9939 15.9845 30.2712 13.2687 29.731C10.553 29.1908 8.05845 27.8574 6.10051 25.8995C4.14258 23.9416 2.80921 21.447 2.26901 18.7313C1.72882 16.0155 2.00607 13.2006 3.06569 10.6424C4.12532 8.08427 5.91973 5.89777 8.22202 4.35943ZM9.33316 25.9776C11.3066 27.2962 13.6266 28 16 28C19.1826 28 22.2348 26.7357 24.4853 24.4853C26.7357 22.2348 28 19.1826 28 16C28 13.6266 27.2962 11.3065 25.9776 9.33316C24.6591 7.35977 22.7849 5.8217 20.5922 4.91345C18.3995 4.00519 15.9867 3.76755 13.6589 4.23058C11.3312 4.6936 9.19296 5.83649 7.51472 7.51472C5.83649 9.19295 4.69361 11.3311 4.23058 13.6589C3.76756 15.9867 4.0052 18.3995 4.91345 20.5922C5.8217 22.7849 7.35977 24.6591 9.33316 25.9776Z"/>
    </symbol>
    <symbol id="radio-button" viewBox="0 0 32 32">
        <path d="M24 16C24 20.4183 20.4183 24 16 24C11.5817 24 8 20.4183 8 16C8 11.5817 11.5817 8 16 8C20.4183 8 24 11.5817 24 16Z"/>
    </symbol>
</svg>
