<svg xmlns="http://www.w3.org/2000/svg" style="display: none;">
  <symbol id="contactapplication" viewBox="0 0 32 32">
    <path d="M16 7.99976C15.0111 7.99976 14.0444 8.293 13.2222 8.84241C12.3999 9.39182 11.759 10.1727 11.3806 11.0863C11.0022 12 10.9032 13.0053 11.0961 13.9752C11.289 14.9451 11.7652 15.836 12.4645 16.5353C13.1637 17.2346 14.0547 17.7108 15.0246 17.9037C15.9945 18.0966 16.9998 17.9976 17.9134 17.6192C18.8271 17.2407 19.6079 16.5999 20.1574 15.7776C20.7068 14.9554 21 13.9887 21 12.9998C21 11.6737 20.4732 10.4019 19.5355 9.46422C18.5979 8.52654 17.3261 7.99976 16 7.99976ZM16 15.9998C15.4067 15.9998 14.8266 15.8238 14.3333 15.4942C13.8399 15.1645 13.4554 14.696 13.2284 14.1478C13.0013 13.5996 12.9419 12.9964 13.0576 12.4145C13.1734 11.8325 13.4591 11.298 13.8787 10.8784C14.2982 10.4589 14.8328 10.1732 15.4147 10.0574C15.9967 9.94164 16.5999 10.0011 17.1481 10.2281C17.6962 10.4552 18.1648 10.8397 18.4944 11.333C18.8241 11.8264 19 12.4064 19 12.9998C18.9991 13.7951 18.6827 14.5577 18.1203 15.1201C17.5579 15.6825 16.7954 15.9989 16 15.9998Z" />
    <path d="M16 1.99976C13.2311 1.99976 10.5243 2.82084 8.22202 4.35918C5.91973 5.89752 4.12532 8.08402 3.06569 10.6422C2.00607 13.2004 1.72882 16.0153 2.26901 18.731C2.80921 21.4468 4.14258 23.9413 6.10051 25.8993C8.05845 27.8572 10.553 29.1906 13.2687 29.7307C15.9845 30.2709 18.7994 29.9937 21.3576 28.9341C23.9157 27.8744 26.1022 26.08 27.6406 23.7777C29.1789 21.4755 30 18.7687 30 15.9998C29.9958 12.288 28.5195 8.72948 25.8949 6.10488C23.2703 3.48028 19.7118 2.00394 16 1.99976ZM10 26.3763V24.9998C10.0009 24.2044 10.3172 23.4418 10.8797 22.8794C11.4421 22.317 12.2046 22.0006 13 21.9998H19C19.7954 22.0006 20.5579 22.317 21.1204 22.8794C21.6828 23.4418 21.9991 24.2044 22 24.9998V26.3763C20.1792 27.4395 18.1085 27.9998 16 27.9998C13.8915 27.9998 11.8208 27.4395 10 26.3763ZM23.9925 24.9256C23.9726 23.6138 23.4382 22.3624 22.5043 21.441C21.5704 20.5196 20.3119 20.002 19 19.9998H13C11.6881 20.002 10.4296 20.5196 9.49573 21.441C8.56186 22.3624 8.02739 23.6138 8.00751 24.9256C6.19407 23.3063 4.91524 21.1744 4.34034 18.8122C3.76545 16.45 3.92161 13.9689 4.78814 11.6974C5.65468 9.42593 7.19073 7.47122 9.19288 6.09212C11.195 4.71302 13.5688 3.97458 16 3.97458C18.4312 3.97458 20.805 4.71302 22.8071 6.09212C24.8093 7.47122 26.3453 9.42593 27.2119 11.6974C28.0784 13.9689 28.2346 16.45 27.6597 18.8122C27.0848 21.1744 25.8059 23.3063 23.9925 24.9256Z" />
  </symbol>
  <symbol id="phone" viewBox="0 0 12 12">
    <path d="M9,7.1L10,8.1c0.2,0.2,0.2,0.6,0,0.8C8.8,10,7,10.1,5.7,9.1L5.7,9.1c-1-0.7-1.8-1.6-2.6-2.6L3,6.4c-1-1.3-0.8-3.1,0.3-4.2 C3.5,2,3.9,2,4.1,2.2L5,3.1C5.4,3.4,5.4,4,5,4.3L4.4,4.9C4.3,5,4.3,5.2,4.3,5.4c0.5,1,1.4,1.9,2.4,2.4c0.2,0.1,0.4,0.1,0.5-0.1 l0.6-0.6C8.2,6.8,8.7,6.8,9,7.1z"/>
  </symbol>
  <symbol id="email" viewBox="0 0 12 12" style="fill-rule:evenodd;clip-rule:evenodd;">
    <path d="M2.2,3.1C1.9,3.4,1.9,3.9,1.9,4.8v2.4c0,0.9,0,1.4,0.3,1.7c0.3,0.3,0.8,0.3,1.7,0.3h4.2c0.9,0,1.4,0,1.7-0.3 c0.3-0.3,0.3-0.8,0.3-1.7V4.8c0-0.9,0-1.4-0.3-1.7C9.5,2.8,9.1,2.8,8.1,2.8H3.9C2.9,2.8,2.5,2.8,2.2,3.1z M3.5,4.3 C3.3,4.1,3,4.2,2.8,4.4C2.7,4.6,2.7,4.9,3,5.1l2.2,1.5c0.5,0.3,1.2,0.3,1.7,0L9,5.1c0.2-0.2,0.3-0.5,0.1-0.7C9,4.2,8.7,4.1,8.5,4.3 L6.3,5.7c-0.2,0.1-0.4,0.1-0.6,0L3.5,4.3z"/>
  </symbol>
  <symbol id="discord" viewBox="0 0 12 12">
    <path d="M9.1,3.5C8.5,3.3,7.9,3.1,7.3,3C7.2,3.1,7.1,3.3,7,3.5C6.3,3.4,5.7,3.4,5,3.5C4.9,3.3,4.8,3.1,4.7,3 C4.1,3.1,3.5,3.3,2.9,3.5C1.7,5.2,1.4,6.8,1.5,8.4C2.3,9,3.1,9.3,3.8,9.5C4,9.3,4.2,9.1,4.3,8.8C4,8.7,3.8,8.6,3.5,8.4 c0.1,0,0.1-0.1,0.2-0.1c1.5,0.7,3.1,0.7,4.6,0c0.1,0,0.1,0.1,0.2,0.1C8.2,8.6,8,8.7,7.7,8.8C7.8,9.1,8,9.3,8.2,9.5 C8.9,9.3,9.7,9,10.5,8.4C10.6,6.6,10.1,5,9.1,3.5z M4.5,7.5c-0.4,0-0.8-0.4-0.8-0.9c0-0.5,0.4-0.9,0.8-0.9c0.5,0,0.8,0.4,0.8,0.9 C5.3,7.1,5,7.5,4.5,7.5z M7.5,7.5c-0.4,0-0.8-0.4-0.8-0.9c0-0.5,0.4-0.9,0.8-0.9c0.5,0,0.8,0.4,0.8,0.9C8.3,7.1,7.9,7.5,7.5,7.5z"/>
  </symbol>
  <symbol id="facebook" viewBox="0 0 12 12">
    <path d="M8.3,6.5l0.3-1.6H7v-1C7,3.4,7.2,3,7.9,3h0.7V1.6c0,0-0.7-0.1-1.3-0.1c-1.3,0-2.2,0.8-2.2,2.2v1.2H3.8v1.6h1.5v3.9 c0.3,0,0.6,0.1,0.9,0.1c0.3,0,0.6,0,0.9-0.1V6.5H8.3z"/>
  </symbol>
  <symbol id="instagram" viewBox="0 0 12 12" style="fill-rule:evenodd;clip-rule:evenodd;">
    <path d="M9.1,3.5c0,0.4-0.3,0.7-0.7,0.7c-0.4,0-0.7-0.3-0.7-0.7s0.3-0.7,0.7-0.7C8.8,2.8,9.1,3.2,9.1,3.5z"/>
    <path d="M6,8.2c1.2,0,2.2-1,2.2-2.2S7.2,3.7,6,3.7S3.8,4.8,3.8,6S4.8,8.2,6,8.2z M6,7.3c0.7,0,1.3-0.6,1.3-1.3 S6.7,4.6,6,4.6S4.7,5.3,4.7,6S5.3,7.3,6,7.3z"/>
    <path d="M1.5,5.8c0-1.5,0-2.3,0.3-2.8C2.1,2.5,2.5,2.1,3,1.8c0.6-0.3,1.3-0.3,2.8-0.3h0.4c1.5,0,2.3,0,2.8,0.3 C9.5,2.1,9.9,2.5,10.2,3c0.3,0.6,0.3,1.3,0.3,2.8v0.4c0,1.5,0,2.3-0.3,2.8C9.9,9.5,9.5,9.9,9,10.2c-0.6,0.3-1.3,0.3-2.8,0.3H5.8 c-1.5,0-2.3,0-2.8-0.3C2.5,9.9,2.1,9.5,1.8,9C1.5,8.4,1.5,7.7,1.5,6.2V5.8z M5.8,2.4h0.4c0.8,0,1.3,0,1.7,0c0.4,0,0.6,0.1,0.7,0.2 C9,2.8,9.2,3,9.4,3.4c0.1,0.1,0.1,0.3,0.2,0.7c0,0.4,0,0.9,0,1.7v0.4c0,0.8,0,1.3,0,1.7c0,0.4-0.1,0.6-0.2,0.7C9.2,9,9,9.2,8.6,9.4 C8.5,9.5,8.3,9.5,7.9,9.6c-0.4,0-0.9,0-1.7,0H5.8c-0.8,0-1.3,0-1.7,0c-0.4,0-0.6-0.1-0.7-0.2C3,9.2,2.8,9,2.6,8.6 C2.5,8.5,2.5,8.3,2.4,7.9c0-0.4,0-0.9,0-1.7V5.8c0-0.8,0-1.3,0-1.7c0-0.4,0.1-0.6,0.2-0.7C2.8,3,3,2.8,3.4,2.6 c0.1-0.1,0.3-0.1,0.7-0.2C4.5,2.4,5,2.4,5.8,2.4z"/>
  </symbol>
  <symbol id="linkedin" viewBox="0 0 12 12">
    <path d="M3.7,2.5c0,0.6-0.5,1-1.1,1c-0.6,0-1.1-0.5-1.1-1s0.5-1,1.1-1C3.2,1.5,3.7,2,3.7,2.5z"/>
    <path d="M1.6,4.3h1.9v5.6H1.6V4.3z"/>
    <path d="M6.5,4.3H4.6v5.6h1.9c0,0,0-1.8,0-2.9c0-0.7,0.2-1.3,1.1-1.3c1,0,1,0.9,1,1.5c0,0.9,0,1.8,0,2.7h1.9v-3 c0-1.9-0.5-2.8-2.1-2.8c-1,0-1.6,0.4-1.9,0.8V4.3z"/>
  </symbol>
  <symbol id="telegram" viewBox="0 0 12 12">
    <path d="M10.1,2.9c0.1-0.4-0.3-0.8-0.7-0.6L1.7,5.6c-0.3,0.1-0.3,0.5,0,0.6l1.6,0.5c0.3,0.1,0.6,0,0.9-0.1l3.6-2.5 C7.9,4.1,8,4.3,7.9,4.4L5.3,7C5.1,7.3,5.1,7.7,5.4,7.9l2.9,1.8c0.3,0.2,0.7,0,0.8-0.4L10.1,2.9z"/>
  </symbol>
  <symbol id="twitter" viewBox="0 0 12 12">
    <path d="M4.3,9.6c-1,0-2-0.3-2.8-0.8c0.7,0,1.9-0.1,2.7-0.8C3,8,2.5,7.1,2.4,6.7c0.1,0,0.6,0.1,0.8,0C2,6.4,1.8,5.2,1.8,4.9 C2,5,2.5,5.1,2.6,5.1C1.4,4.2,1.8,2.9,2.1,2.6c0.9,1.2,2.2,1.9,3.8,1.9c0-0.1,0-0.3,0-0.4c0-1,0.8-1.9,1.9-1.9c0.5,0,1,0.2,1.4,0.6 c0.4-0.1,0.9-0.3,1.2-0.5c-0.1,0.5-0.5,0.9-0.8,1c0,0,0,0,0,0c0.2,0,0.8-0.1,1.1-0.3c-0.1,0.3-0.6,0.7-0.9,1 C9.6,7.1,7.4,9.6,4.3,9.6z"/>
  </symbol>
  <symbol id="vk" viewBox="0 0 12 12">
    <path d="M9.1,7.1C9,6.9,9,6.8,9,6.7C9.2,6.3,11.1,4,10.3,4C9.8,4,9.1,4,8.6,4C8.5,4,8.4,4.1,8.4,4.2C8.1,4.9,7.7,5.8,7.1,6.3 C7,6.4,7,6.4,6.9,6.4C6.5,6,6.9,4.5,6.7,4c0-0.1-0.1-0.2-0.3-0.2C5.9,3.7,4.7,3.8,4.5,4c-0.1,0.1-0.1,0.1,0,0.1 c0.2,0,0.3,0.1,0.4,0.2C5,4.7,5.2,6.4,4.7,6.4c-0.4,0-1.1-1.7-1.3-2.2C3.3,4.1,3.2,4,3.1,4L1.8,4C1.6,4,1.4,4.1,1.5,4.3 C2.2,6,3.7,9.2,5.9,9.1c0.2,0,0.6,0.1,0.8-0.1C6.9,8.7,6.6,8.1,7,7.9c0.1-0.1,0.2,0,0.3,0.1c0.5,0.4,0.7,1,1.3,1.2 c0.1,0,0.2,0,0.3,0l1.2,0c0.2,0,0.4-0.1,0.4-0.4C10.3,8.2,9.6,7.6,9.1,7.1z"/>
  </symbol>
  <symbol id="whatsapp" viewBox="0 0 12 12" style="fill-rule:evenodd;clip-rule:evenodd;">
    <path d="M4.9,3.9C4.8,3.7,4.6,3.7,4.4,3.7c-0.3,0-0.8,0.4-0.8,1c0,0.5,0.2,1.1,1,2C5.5,7.6,6.5,8,7.4,8c0.8,0,1-0.7,1-1 c0-0.1-0.1-0.2-0.1-0.2C8,6.7,7.4,6.5,7.3,6.4c-0.1,0-0.2,0-0.2,0.1C7,6.6,6.8,6.9,6.7,7C6.6,7,6.5,7,6.5,7c-0.2-0.1-0.6-0.3-1-0.6 C5,5.9,5,5.7,4.9,5.6c-0.1-0.1,0-0.2,0-0.2C5,5.3,5.1,5.1,5.2,5c0.1-0.1,0-0.2,0-0.3C5.1,4.4,5,4.1,4.9,3.9z"/>
    <path d="M6,10.5c2.5,0,4.5-2,4.5-4.5S8.5,1.5,6,1.5S1.5,3.5,1.5,6c0,0.8,0.2,1.6,0.6,2.2l-0.6,2.3L3.9,10 C4.5,10.3,5.2,10.5,6,10.5z M6,9.8c2.1,0,3.8-1.7,3.8-3.8S8.1,2.2,6,2.2S2.2,3.9,2.2,6c0,0.8,0.3,1.6,0.7,2.2L2.5,9.5l1.3-0.3 C4.5,9.6,5.2,9.8,6,9.8z"/>
  </symbol>
  <symbol id="skype" viewBox="0 0 24 24">
    <path d="M20.9,13.4C21,12.9,21,12.5,21,12c0-2.4-1-4.7-2.6-6.4C16.7,3.9,14.4,3,12,3c-0.5,0-0.9,0-1.4,0.1c-1-0.6-2.3-0.9-3.5-0.7C5.9,2.5,4.8,3,3.9,3.9c-0.9,0.9-1.4,2-1.6,3.2c-0.1,1.2,0.1,2.4,0.7,3.5C3,11,3,11.5,3,12c0,2.4,1,4.7,2.6,6.4c1.7,1.7,4,2.6,6.4,2.6c0.5,0,0.9,0,1.4-0.1c1,0.6,2.3,0.9,3.5,0.7c1.2-0.1,2.3-0.7,3.2-1.6c0.9-0.9,1.4-2,1.6-3.2C21.8,15.7,21.5,14.5,20.9,13.4L20.9,13.4z M16.3,16.1c-0.4,0.6-1,1-1.7,1.3c-0.8,0.3-1.7,0.5-2.6,0.5c-1,0-2.1-0.2-3-0.6C8.5,17,8,16.5,7.6,16c-0.3-0.4-0.5-1-0.5-1.5c0-0.1,0-0.3,0.1-0.4c0.1-0.1,0.1-0.2,0.2-0.3c0.2-0.2,0.5-0.3,0.8-0.3c0.2,0,0.5,0.1,0.7,0.2c0.2,0.2,0.4,0.4,0.5,0.7c0.1,0.3,0.3,0.6,0.5,0.9c0.2,0.3,0.5,0.5,0.8,0.6c0.4,0.2,0.8,0.3,1.3,0.2c0.6,0,1.2-0.1,1.8-0.5c0.2-0.1,0.4-0.3,0.5-0.5c0.1-0.2,0.2-0.4,0.2-0.7c0-0.2,0-0.3-0.1-0.5c-0.1-0.2-0.2-0.3-0.3-0.4c-0.3-0.2-0.6-0.4-0.9-0.5c-0.4-0.1-0.9-0.3-1.6-0.4c-0.7-0.2-1.5-0.4-2.2-0.7c-0.6-0.2-1-0.6-1.4-1.1c-0.4-0.5-0.5-1.1-0.5-1.7c0-0.6,0.2-1.2,0.6-1.7c0.4-0.5,1-0.9,1.6-1.1c0.8-0.3,1.6-0.4,2.5-0.4c0.7,0,1.3,0.1,1.9,0.3c0.5,0.1,1,0.4,1.4,0.7c0.3,0.2,0.6,0.6,0.8,0.9c0.2,0.3,0.2,0.6,0.3,0.9c0,0.1,0,0.3-0.1,0.4c-0.1,0.1-0.1,0.2-0.2,0.3c-0.1,0.1-0.2,0.2-0.4,0.3C15.5,10,15.4,10,15.2,10c-0.2,0-0.5-0.1-0.7-0.2c-0.2-0.2-0.4-0.4-0.5-0.7c-0.2-0.4-0.5-0.7-0.8-1c-0.4-0.3-1-0.4-1.5-0.3c-0.5,0-1,0.1-1.5,0.4C10.2,8.3,10,8.4,9.9,8.6C9.8,8.7,9.8,8.9,9.8,9.1c0,0.2,0.1,0.4,0.2,0.6c0.1,0.2,0.3,0.3,0.5,0.4c0.2,0.1,0.5,0.2,0.7,0.3c0.2,0.1,0.6,0.2,1.2,0.3c0.7,0.2,1.3,0.3,1.9,0.5c0.5,0.2,1,0.4,1.4,0.7c0.4,0.2,0.7,0.6,0.9,1c0.2,0.5,0.3,1,0.3,1.5C16.9,14.9,16.7,15.6,16.3,16.1z" />
  </symbol>
  <symbol id="youtube" viewBox="0 0 12 12">
    <path d="M10.4,4.3c0-0.6-0.6-1.1-1.2-1.2C8.3,3.1,7,3,6,3S3.7,3.1,2.8,3.1c-0.6,0-1.1,0.5-1.2,1.2c0,0.6-0.1,1.4-0.1,1.9 s0,1.3,0.1,1.9c0,0.6,0.6,1.1,1.2,1.2C3.7,9.4,5,9.4,6,9.4s2.3-0.1,3.2-0.1c0.6,0,1.1-0.5,1.2-1.2c0-0.6,0.1-1.4,0.1-1.9 S10.5,4.9,10.4,4.3z M5,7.5V4.9l2.6,1.3L5,7.5z"/>
  </symbol>
  <symbol id="github" viewBox="0 0 12 12">
    <path d="M10.5,6c0-2.5-2-4.5-4.5-4.5S1.5,3.5,1.5,6c0,2,1.3,3.6,3,4.3c0.1-0.1,0.2-0.2,0.2-0.3c0-0.2,0-0.9,0-0.9s-0.2,0-0.5,0 c-0.7,0-0.9-0.4-1-0.7C3.1,8.1,2.9,7.9,2.8,7.8c-0.1-0.1-0.1-0.2,0-0.2c0.6-0.1,0.8,0.7,1.2,0.8c0.3,0.1,0.7,0.1,0.9-0.1 c0-0.2,0.2-0.5,0.4-0.6c-1.1-0.1-1.7-0.5-2-1.1l0-0.1L3,6.5l0-0.1c-0.1-0.3-0.1-0.6-0.1-1c0-0.7,0.2-0.9,0.5-1.3 C3.1,3.3,3.4,2.8,3.4,2.8s0.5-0.1,1.3,0.5c0.5-0.2,1.7-0.2,2.3,0c0.4-0.2,1-0.6,1.3-0.5C8.4,2.9,8.6,3.2,8.5,4C8.6,4.1,9,4.5,9,5.5 c0,0.4,0,0.7-0.1,0.9l0,0.1c0,0,0,0.1,0,0.1l0,0.1c-0.3,0.7-1,0.9-2,1C7.1,8,7.2,8.2,7.2,9c0,0.7,0,0.8,0,1c0,0.1,0.1,0.2,0.2,0.3 C9.2,9.7,10.5,8,10.5,6z"/>
  </symbol>
  <symbol id="edit" viewBox="0 0 12 12" style="fill-rule:evenodd;clip-rule:evenodd;">
    <path d="M8.6,5.4l0.9-0.9c0.6-0.6,0.6-1.4,0-2c-0.6-0.6-1.4-0.6-2,0L6.6,3.4C7.1,4.2,7.8,4.9,8.6,5.4z M5.9,4.1l-3,3 C2.4,7.6,2.2,7.8,2.1,8C1.9,8.3,1.9,8.6,1.8,9.2L1.6,9.8c-0.1,0.3-0.1,0.5,0,0.6s0.3,0.1,0.6,0l0.6-0.1h0c0.6-0.1,0.9-0.2,1.1-0.3 c0.3-0.1,0.5-0.4,0.9-0.8l0,0l0,0l3-3C7.1,5.6,6.4,4.9,5.9,4.1z"/>
  </symbol>
  <symbol id="company" viewBox="0 0 32 32">
    <path d="M16 8H18V10H16V8Z" />
    <path d="M22 8H20V10H22V8Z" />
    <path d="M16 16H18V18H16V16Z" />
    <path d="M22 16H20V18H22V16Z" />
    <path d="M16 20H18V22H16V20Z" />
    <path d="M22 20H20V22H22V20Z" />
    <path d="M16 12H18V14H16V12Z" />
    <path d="M22 12H20V14H22V12Z" />
    <path fill-rule="evenodd" clip-rule="evenodd" d="M14 4C12.8954 4 12 4.89543 12 6V13H8C6.89543 13 6 13.8954 6 15V27H5C4.44772 27 4 27.4477 4 28C4 28.5523 4.44772 29 5 29H27C27.5523 29 28 28.5523 28 28C28 27.4477 27.5523 27 27 27H26V6C26 4.89543 25.1046 4 24 4H14ZM8 15H12V18H10V20H12V22H10V24H12V27H8V15ZM14 27H18V24H20V27H24V6H14V27Z" />
  </symbol>
  <symbol id="person" viewBox="0 0 16 16">
    <path d="M8 3.99988C7.50555 3.99988 7.0222 4.1465 6.61108 4.4212C6.19995 4.69591 5.87952 5.08635 5.6903 5.54317C5.50108 5.99998 5.45158 6.50265 5.54804 6.9876C5.6445 7.47256 5.88261 7.91801 6.23224 8.26764C6.58187 8.61728 7.02733 8.85538 7.51228 8.95184C7.99723 9.0483 8.4999 8.9988 8.95671 8.80958C9.41353 8.62036 9.80397 8.29993 10.0787 7.8888C10.3534 7.47768 10.5 6.99433 10.5 6.49988C10.5 5.83684 10.2366 5.20095 9.76777 4.73211C9.29893 4.26327 8.66304 3.99988 8 3.99988ZM8 7.99988C7.70333 7.99988 7.41332 7.9119 7.16665 7.74708C6.91997 7.58226 6.72771 7.34799 6.61418 7.0739C6.50065 6.79981 6.47095 6.49821 6.52882 6.20724C6.5867 5.91627 6.72956 5.649 6.93934 5.43922C7.14912 5.22944 7.4164 5.08658 7.70737 5.0287C7.99834 4.97082 8.29994 5.00053 8.57403 5.11406C8.84812 5.22759 9.08239 5.41985 9.24721 5.66652C9.41203 5.9132 9.5 6.20321 9.5 6.49988C9.49955 6.89756 9.34137 7.27883 9.06017 7.56004C8.77896 7.84125 8.39769 7.99943 8 7.99988Z" />
    <path d="M8 0.999878C6.61553 0.999878 5.26216 1.41042 4.11101 2.17959C2.95987 2.94876 2.06266 4.04201 1.53285 5.32109C1.00303 6.60018 0.86441 8.00764 1.13451 9.36551C1.4046 10.7234 2.07129 11.9707 3.05026 12.9496C4.02922 13.9286 5.2765 14.5953 6.63437 14.8654C7.99224 15.1355 9.3997 14.9968 10.6788 14.467C11.9579 13.9372 13.0511 13.04 13.8203 11.8889C14.5895 10.7377 15 9.38435 15 7.99988C14.9979 6.144 14.2597 4.36474 12.9474 3.05244C11.6351 1.74014 9.85588 1.00197 8 0.999878ZM5 13.1881V12.4999C5.00044 12.1022 5.15862 11.7209 5.43983 11.4397C5.72104 11.1585 6.10231 11.0003 6.5 10.9999H9.5C9.89769 11.0003 10.279 11.1585 10.5602 11.4397C10.8414 11.7209 10.9996 12.1022 11 12.4999V13.1881C10.0896 13.7197 9.05426 13.9999 8 13.9999C6.94574 13.9999 5.91042 13.7197 5 13.1881ZM11.9963 12.4628C11.9863 11.8069 11.7191 11.1812 11.2521 10.7205C10.7852 10.2598 10.156 10.001 9.5 9.99988H6.5C5.84405 10.001 5.2148 10.2598 4.74786 10.7205C4.28093 11.1812 4.01369 11.8069 4.00375 12.4628C3.09703 11.6532 2.45762 10.5872 2.17017 9.40611C1.88272 8.22501 1.9608 6.98445 2.39407 5.84871C2.82734 4.71297 3.59536 3.73561 4.59644 3.04606C5.59751 2.35651 6.78442 1.98729 8 1.98729C9.21558 1.98729 10.4025 2.35651 11.4036 3.04606C12.4046 3.73561 13.1727 4.71297 13.6059 5.84871C14.0392 6.98445 14.1173 8.22501 13.8298 9.40611C13.5424 10.5872 12.903 11.6532 11.9963 12.4628Z" />
  </symbol>
  <symbol id="persona" viewBox="0 0 32 32">
    <path fill-rule="evenodd" clip-rule="evenodd" d="M16 16C19.3137 16 22 13.3137 22 10C22 6.68629 19.3137 4 16 4C12.6863 4 10 6.68629 10 10C10 13.3137 12.6863 16 16 16ZM16 18C20.4183 18 24 14.4183 24 10C24 5.58172 20.4183 2 16 2C11.5817 2 8 5.58172 8 10C8 14.4183 11.5817 18 16 18Z" />
    <path d="M13 20C9.13401 20 6 23.134 6 27V29C6 29.5523 6.44772 30 7 30C7.55228 30 8 29.5523 8 29V27C8 24.2386 10.2386 22 13 22H19C21.7614 22 24 24.2386 24 27V29C24 29.5523 24.4477 30 25 30C25.5523 30 26 29.5523 26 29V27C26 23.134 22.866 20 19 20H13Z" />
  </symbol>
  <symbol id="social-edit" viewBox="0 0 24 24">
    <path d="M22,12.2c-0.4,0-0.8,0.3-0.8,0.8v2c0,4.6-1.6,6.2-6.2,6.2H9c-4.6,0-6.2-1.6-6.2-6.2V9c0-4.6,1.6-6.2,6.2-6.2h2 c0.4,0,0.8-0.3,0.8-0.8S11.4,1.2,11,1.2H9C3.6,1.2,1.2,3.6,1.2,9v6c0,5.4,2.3,7.8,7.8,7.8h6c5.4,0,7.8-2.3,7.8-7.8v-2 C22.8,12.6,22.4,12.2,22,12.2z" />
    <path d="M14.4,3.6l-6.8,6.8c-0.4,0.4-0.8,1.2-0.9,1.7l-0.4,3c-0.1,0.8,0.1,1.5,0.6,2c0.4,0.4,1,0.6,1.6,0.6c0.1,0,0.2,0,0.4,0 l3-0.4c0.6-0.1,1.3-0.5,1.7-0.9l7.9-7.9c0.9-0.9,1.4-1.8,1.5-2.7c0.1-1.1-0.4-2.2-1.5-3.3c-2-2-4-2-6,0L14.4,3.6 C14.4,3.6,14.4,3.6,14.4,3.6z M12.6,15.3c-0.2,0.2-0.6,0.4-0.9,0.5l-3,0.4c-0.3,0-0.5,0-0.7-0.2c-0.2-0.1-0.2-0.4-0.2-0.7l0.4-3 c0-0.3,0.3-0.7,0.4-0.9l5.9-5.9c0.8,1.7,2.2,3.1,3.9,3.9L12.6,15.3z M20.4,3.5c0.8,0.8,1.1,1.5,1,2.1c0,0.5-0.4,1.1-1,1.8l-0.8,0.8 c-1.8-0.6-3.2-2.1-3.9-3.9l0.8-0.8C17.7,2.4,18.8,1.9,20.4,3.5z" />
  </symbol>
  <symbol id="homepage" viewBox="0 0 24 24">
    <path d="M12,1.2C6.1,1.2,1.2,6.1,1.2,12S6.1,22.8,12,22.8S22.8,17.9,22.8,12S17.9,1.2,12,1.2z M20.8,14.3 c-1.2,0.4-2.5,0.7-3.8,0.9c0.2-2.1,0.2-4.3,0-6.5c1.3,0.2,2.5,0.5,3.8,0.9c0.1,0,0.1,0,0.2,0c0.2,0.7,0.3,1.5,0.3,2.3 c0,0.8-0.1,1.5-0.3,2.3C20.9,14.3,20.8,14.3,20.8,14.3z M3,14.3c-0.2-0.7-0.3-1.5-0.3-2.3c0-0.8,0.1-1.5,0.3-2.3c0.1,0,0.1,0,0.2,0 C4.5,9.3,5.7,9,7,8.8c-0.2,2.1-0.2,4.3,0,6.5c-1.3-0.2-2.5-0.5-3.8-0.9C3.2,14.3,3.1,14.3,3,14.3z M8.5,8.5c2.3-0.3,4.6-0.3,6.9,0 c0.3,2.3,0.3,4.6,0,6.9c-2.3,0.3-4.6,0.3-6.9,0C8.3,13.2,8.3,10.8,8.5,8.5z M20.3,8c-1.2-0.3-2.3-0.6-3.5-0.8 C16.6,6,16.3,4.8,16,3.7C17.9,4.6,19.4,6.1,20.3,8z M14.3,3c0,0.1,0,0.1,0,0.2C14.7,4.5,15,5.7,15.2,7c-2.1-0.2-4.3-0.2-6.5,0 C9,5.7,9.3,4.5,9.7,3.2c0-0.1,0-0.1,0-0.2c0.7-0.2,1.5-0.3,2.3-0.3C12.8,2.8,13.5,2.9,14.3,3z M7.9,3.7C7.9,3.7,7.9,3.7,7.9,3.7 C7.6,4.9,7.4,6,7.2,7.2C6,7.4,4.8,7.7,3.7,8C4.5,6.2,6,4.7,7.9,3.7z M3.7,16.1C3.7,16.1,3.7,16.1,3.7,16.1c1.2,0.2,2.3,0.5,3.5,0.7 C7.4,18,7.6,19.1,8,20.2c0,0-0.1,0-0.1,0C6.1,19.4,4.6,17.9,3.7,16.1z M9.7,21c0-0.1,0-0.1,0-0.2C9.3,19.5,9,18.3,8.8,17 c1.1,0.1,2.2,0.2,3.2,0.2c1.1,0,2.2-0.1,3.2-0.2c-0.2,1.3-0.5,2.5-0.9,3.8c0,0.1,0,0.1,0,0.2c-0.7,0.2-1.5,0.3-2.3,0.3 C11.2,21.2,10.5,21.1,9.7,21z M16,20.3c0.3-1.2,0.6-2.4,0.8-3.6c1.2-0.2,2.3-0.4,3.5-0.8c0,0,0,0.1,0,0.1C19.4,18,17.8,19.5,16,20.3 z"/>
  </symbol>
  <symbol id="profile" viewBox="0 0 24 24">
    <path d="M11.9,13.5c0,0,0.1,0,0.2,0c0,0,0.1,0,0.1,0c0,0,0,0,0,0c2.2-0.1,3.9-1.8,3.9-4c0-2.2-1.8-4-4-4c-2.2,0-4,1.8-4,4 C8,11.7,9.7,13.5,11.9,13.5z M12,7c1.4,0,2.5,1.1,2.5,2.5c0,1.4-1.1,2.5-2.4,2.5c-0.1,0-0.2,0-0.3,0c-1.3-0.1-2.4-1.2-2.4-2.5 C9.5,8.1,10.6,7,12,7z" />
    <path d="M22.8,12c0-5.9-4.8-10.8-10.8-10.8S1.2,6.1,1.2,12c0,3.1,1.3,5.9,3.5,7.9c0,0,0,0,0,0C4.8,20,4.9,20,5,20.1 c0.1,0.1,0.3,0.2,0.4,0.3c0.1,0.1,0.3,0.2,0.4,0.3C5.9,20.8,6,20.9,6.2,21c0.2,0.1,0.3,0.2,0.5,0.3c0.1,0.1,0.3,0.2,0.4,0.2 c0.2,0.1,0.3,0.2,0.5,0.2C7.7,21.8,7.8,21.9,8,22c0.2,0.1,0.4,0.1,0.5,0.2c0.1,0,0.3,0.1,0.4,0.1c0.2,0.1,0.4,0.1,0.6,0.1 c0.1,0,0.3,0.1,0.4,0.1c0.2,0,0.4,0.1,0.6,0.1c0.1,0,0.3,0,0.4,0.1c0.3,0,0.7,0.1,1,0.1c0.4,0,0.7,0,1-0.1c0.1,0,0.3,0,0.4-0.1 c0.2,0,0.4-0.1,0.6-0.1c0.1,0,0.3-0.1,0.4-0.1c0.2,0,0.4-0.1,0.6-0.1c0.1,0,0.3-0.1,0.4-0.1c0.2-0.1,0.4-0.1,0.5-0.2 c0.1-0.1,0.3-0.1,0.4-0.2c0.2-0.1,0.3-0.2,0.5-0.2c0.1-0.1,0.3-0.1,0.4-0.2c0.2-0.1,0.3-0.2,0.5-0.3c0.1-0.1,0.3-0.2,0.4-0.3 c0.1-0.1,0.3-0.2,0.4-0.3c0.1-0.1,0.3-0.2,0.4-0.3c0.1-0.1,0.1-0.1,0.2-0.2c0,0,0,0,0,0C21.4,17.9,22.8,15.1,22.8,12z M2.8,12 c0-5.1,4.1-9.2,9.2-9.2s9.2,4.1,9.2,9.2c0,2.3-0.8,4.3-2.2,6c-0.4-0.7-0.9-1.3-1.7-1.8c-3-2-7.8-2-10.8,0c-0.7,0.5-1.3,1.1-1.7,1.8 C3.6,16.3,2.8,14.3,2.8,12z M17.9,19.1c-0.1,0.1-0.2,0.1-0.3,0.2c-0.1,0.1-0.3,0.2-0.4,0.3c-0.1,0.1-0.2,0.1-0.3,0.2 c-0.1,0.1-0.3,0.2-0.4,0.3c-0.1,0.1-0.2,0.1-0.3,0.2c-0.2,0.1-0.3,0.2-0.5,0.2c-0.1,0-0.2,0.1-0.3,0.1c-0.2,0.1-0.3,0.1-0.5,0.2 c-0.1,0-0.2,0.1-0.4,0.1c-0.2,0-0.3,0.1-0.5,0.1c-0.1,0-0.2,0.1-0.4,0.1c-0.2,0-0.4,0.1-0.6,0.1c-0.1,0-0.2,0-0.3,0 c-0.3,0-0.6,0-0.9,0c-0.3,0-0.6,0-0.9,0c-0.1,0-0.2,0-0.3,0c-0.2,0-0.4,0-0.6-0.1c-0.1,0-0.2-0.1-0.4-0.1c-0.2,0-0.3-0.1-0.5-0.1 c-0.1,0-0.2-0.1-0.4-0.1c-0.2-0.1-0.3-0.1-0.5-0.2c-0.1,0-0.2-0.1-0.3-0.1c-0.2-0.1-0.3-0.1-0.5-0.2c-0.1-0.1-0.2-0.1-0.3-0.2 c-0.2-0.1-0.3-0.2-0.4-0.3c-0.1-0.1-0.2-0.1-0.3-0.2c-0.1-0.1-0.3-0.2-0.4-0.3c-0.1-0.1-0.2-0.1-0.3-0.2c0,0,0,0,0,0 c0.2-0.6,0.7-1.2,1.4-1.7c2.5-1.6,6.6-1.6,9.1,0C17.3,17.9,17.7,18.5,17.9,19.1C17.9,19.1,17.9,19.1,17.9,19.1z" />
  </symbol>
  <symbol id="kickUser" viewBox="0 0 32 32">
    <path fill-rule="evenodd" clip-rule="evenodd" d="M24 10C24 14.4183 20.4183 18 16 18C11.5817 18 8 14.4183 8 10C8 5.58172 11.5817 2 16 2C20.4183 2 24 5.58172 24 10ZM16 16C19.3137 16 22 13.3137 22 10C22 6.68629 19.3137 4 16 4C12.6863 4 10 6.68629 10 10C10 13.3137 12.6863 16 16 16Z" />
    <path d="M21.7071 20.2931C21.3166 19.9026 20.6834 19.9026 20.2929 20.2931C19.9024 20.6837 19.9024 21.3168 20.2929 21.7074L23.5858 25.0002L20.2929 28.2931C19.9024 28.6837 19.9024 29.3168 20.2929 29.7074C20.6761 30.0906 21.2929 30.0977 21.6849 29.7289L25 26.4138L28.2929 29.7074C28.6834 30.0979 29.3166 30.0979 29.7071 29.7074C30.0976 29.3168 30.0976 28.6837 29.7071 28.2931L26.4142 25.0002L29.7071 21.7074C30.0976 21.3168 30.0976 20.6837 29.7071 20.2931C29.3166 19.9026 28.6834 19.9026 28.2929 20.2931L25 23.586L21.7071 20.2931Z" />
    <path d="M13 20.0002C9.13401 20.0002 6 23.1343 6 27.0002V29.0002C6 29.5525 6.44772 30.0002 7 30.0002C7.55228 30.0002 8 29.5525 8 29.0002V27.0002C8 24.2388 10.2386 22.0002 13 22.0002H17C17.5523 22.0002 18 21.5525 18 21.0002C18 20.448 17.5523 20.0002 17 20.0002H13Z" />
  </symbol>
  <symbol id="componentMembers" viewBox="0 0 16 16">
    <path d="M1 3C1 1.89543 1.89543 1 3 1H9C10.1046 1 11 1.89543 11 3V3.5H6C4.61929 3.5 3.5 4.61929 3.5 6V11H3C1.89543 11 1 10.1046 1 9V3Z" />
    <path fill-rule="evenodd" clip-rule="evenodd" d="M7 5C5.89543 5 5 5.89543 5 7V13C5 14.1046 5.89543 15 7 15H13C14.1046 15 15 14.1046 15 13V7C15 5.89543 14.1046 5 13 5H7ZM10 10C10.9665 10 11.5 9.2165 11.5 8.25C11.5 7.2835 10.9665 6.5 10 6.5C9.0335 6.5 8.5 7.2835 8.5 8.25C8.5 9.2165 9.0335 10 10 10ZM7 12.5616C7 11.5144 7.9841 10.746 9 11C9.47572 11.7136 10.5243 11.7136 11 11C12.0159 10.746 13 11.5144 13 12.5616V13.0101C13 13.2806 12.7806 13.5 12.5101 13.5H7.48995C7.21936 13.5 7 13.2806 7 13.0101V12.5616Z" />
  </symbol>
</svg>
