<svg xmlns="http://www.w3.org/2000/svg" style="display: none;">
  <symbol id="phone" viewBox="0 0 16 16">
    <path d="M13.6,10.4l2,2c0.5,0.5,0.5,1.1,0,1.5c-2.3,2.3-6,2.6-8.7,0.6l-0.2-0.2c-2-1.5-3.7-3.2-5.3-5.3l-0.3,0 c-1.9-2.8-1.7-6.5,0.6-8.8c0.5-0.5,1.1-0.5,1.5,0l2,2C6.1,3,6.1,4,5.4,4.6L4.2,6C3.9,6.3,3.9,6.7,4.1,7C5.1,9.2,6.8,10.9,9,12 c0.3,0.2,0.8,0.2,1.1-0.2l1.4-1.4C12.1,9.8,13,9.8,13.6,10.4z"/>
  </symbol>
  <symbol id="email" viewBox="0 0 16 16">
    <path d="M0.4,2.2C0,2.6,0,3.3,0,4.7v6.7c0,1.3,0,2,0.4,2.5s1.2,0.4,2.5,0.4h10.2c1.3,0,2,0,2.5-0.4 c0.4-0.4,0.4-1.2,0.4-2.5V4.7c0-1.3,0-2-0.4-2.5c-0.4-0.4-1.2-0.4-2.5-0.4H2.9C1.6,1.7,0.9,1.7,0.4,2.2z M3.1,4.7 C2.8,4.5,2.3,4.5,2,4.9C1.9,5.2,1.9,5.7,2.3,6L6.8,9c0.7,0.4,1.7,0.4,2.5,0L13.8,6c0.3-0.3,0.4-0.7,0.1-1s-0.7-0.4-1-0.1L8.4,7.7 c-0.3,0.1-0.6,0.1-0.9,0L3.1,4.7z" fill-rule="evenodd" clip-rule="evenodd"/>
  </symbol>
  <symbol id="discord" viewBox="0 0 16 16">
    <path d="M13.5,3.2c-1.1-0.4-2.1-0.8-3.3-0.9c-0.1,0.3-0.3,0.5-0.4,0.8c-1.2-0.1-2.4-0.1-3.6,0C6,2.8,5.9,2.5,5.7,2.3 C4.5,2.4,3.5,2.8,2.4,3.2C0.3,6.1-0.2,9,0.1,11.8c1.3,0.9,2.6,1.6,3.9,2c0.3-0.4,0.7-0.9,0.9-1.3C4.4,12.3,4,12,3.6,11.8 c0.1-0.1,0.3-0.1,0.4-0.3c2.6,1.2,5.4,1.2,8,0c0.1,0.1,0.3,0.1,0.4,0.3c-0.4,0.3-0.9,0.4-1.3,0.7c0.3,0.5,0.5,0.9,0.9,1.3 c1.3-0.4,2.6-0.9,3.9-2C16.1,8.6,15.2,5.7,13.5,3.2z M5.3,10c-0.8,0-1.4-0.7-1.4-1.6c0-0.8,0.7-1.6,1.4-1.6s1.4,0.7,1.4,1.6 S6.1,10,5.3,10z M10.6,10c-0.8,0-1.4-0.7-1.4-1.6c0-0.8,0.7-1.6,1.4-1.6c0.8,0,1.4,0.7,1.4,1.6S11.4,10,10.6,10z"/>
  </symbol>
  <symbol id="facebook" viewBox="0 0 16 16">
    <path d="M12,8.9L12.4,6H9.6V4.1c0-0.7,0.4-1.5,1.7-1.5h1.3V0.1c0,0-1.2-0.1-2.3-0.1c-2.4,0-4,1.3-4,3.9V6H3.9v2.9h2.5v6.9 C7,16,7.5,16,8,16c0.5,0,1.1,0,1.6-0.1V8.9H12z"/>
  </symbol>
  <symbol id="instagram" viewBox="0 0 16 16">
    <path d="M12.4,2.4c-0.7,0-1.2,0.5-1.2,1.2s0.5,1.2,1.2,1.2c0.7,0,1.2-0.5,1.2-1.2S13.1,2.4,12.4,2.4z"/>
    <path d="M8,4C5.7,4,4,5.7,4,8s1.7,4,4,4s4-1.7,4-4S10.3,4,8,4z M8,10.4c-1.3,0-2.4-1.1-2.4-2.4S6.7,5.6,8,5.6 s2.4,1.1,2.4,2.4S9.3,10.4,8,10.4z"/>
    <path d="M15.5,2.7c-0.4-0.9-1.2-1.6-2.1-2.1C12.4,0,11.1,0,8.3,0H7.7c-2.7,0-4,0-5.1,0.5C1.7,0.9,0.9,1.7,0.5,2.7 C0,3.6,0,4.9,0,7.7v0.7c0,2.7,0,4,0.5,5.1c0.4,0.9,1.2,1.6,2.1,2.1C3.6,16,4.9,16,7.7,16h0.7c2.7,0,4,0,5.1-0.5 c0.9-0.4,1.6-1.2,2.1-2.1C16,12.4,16,11.1,16,8.3V7.7C16,4.9,16,3.6,15.5,2.7z M14.4,8.3c0,1.3,0,2.3,0,3.1c0,0.7-0.1,1.1-0.3,1.3 c-0.3,0.7-0.8,1.1-1.3,1.3c-0.3,0.1-0.7,0.3-1.3,0.3s-1.6,0-3.1,0H7.7c-1.3,0-2.3,0-3.1,0c-0.7,0-1.1-0.1-1.3-0.3 c-0.7-0.3-1.1-0.8-1.3-1.3c-0.1-0.3-0.3-0.7-0.3-1.3c0-0.7,0-1.6,0-3.1V7.7c0-1.3,0-2.3,0-3.1C1.7,4,1.9,3.6,2,3.3 C2.3,2.7,2.8,2.3,3.3,2C3.6,1.9,4,1.7,4.7,1.7s1.6,0,3.1,0h0.7c1.3,0,2.3,0,3.1,0c0.7,0,1.1,0.1,1.3,0.3c0.7,0.3,1.1,0.8,1.3,1.3 c0.1,0.3,0.3,0.7,0.3,1.3s0,1.6,0,3.1V8.3z"/>
  </symbol>
  <symbol id="linkedin" viewBox="0 0 16 16">
    <path d="M1.9,0.5C0.8,0.5,0,1.3,0,2.3c0,0.9,0.8,1.9,1.9,1.9s1.9-0.8,1.9-1.9C3.9,1.3,2.9,0.5,1.9,0.5z"/>
    <rect x="0.3" y="5.4" width="3.3" height="10"/>
    <path d="M12.3,5.3c-1.7,0-2.8,0.8-3.3,1.5V5.4H5.6v10h3.3c0,0,0-3.2,0-5.1c0-1.2,0.4-2.4,2-2.4c1.9,0,1.9,1.6,1.7,2.8 c0,1.6,0,3.2,0,4.8H16v-5.3C16,6.7,15.1,5.3,12.3,5.3z"/>
  </symbol>
  <symbol id="telegram" viewBox="0 0 16 16">
    <path d="M16,2.2c0.1-0.8-0.7-1.4-1.4-1.1L0.4,7.2c-0.6,0.3-0.4,1,0,1.1l3,1C3.9,9.5,4.5,9.5,5,9.1l6.6-4.6c0.1-0.1,0.4,0.1,0.3,0.3 L7.1,9.8c-0.4,0.4-0.4,1.3,0.1,1.7l5.3,3.4c0.6,0.4,1.4,0,1.5-0.7L16,2.2z"/>
  </symbol>
  <symbol id="twitter" viewBox="0 0 16 16">
    <path d="M5.1,14.6c-1.9,0-3.6-0.5-5.1-1.5c1.2,0.1,3.5-0.1,4.8-1.5c-2.1-0.1-2.9-1.6-3.1-2.3c0.1,0,0.9,0.1,1.5,0 C0.8,8.9,0.5,6.7,0.5,6.2C0.9,6.5,1.7,6.6,2,6.6C-0.1,5,0.7,2.7,0.9,2.2c1.6,2,4,3.2,6.9,3.3c0-0.3-0.1-0.5-0.1-0.8 c0-1.9,1.5-3.3,3.3-3.3c0.9,0,1.9,0.4,2.4,1.1c0.7-0.1,1.6-0.5,2.1-0.8c-0.3,0.8-0.9,1.6-1.5,1.9l0,0c0.4,0,1.5-0.3,1.9-0.5 c-0.3,0.5-0.9,1.3-1.6,1.7C14.5,9.9,10.4,14.6,5.1,14.6z"/>
  </symbol>
  <symbol id="vk" viewBox="0 0 16 16">
    <path d="M13.6,9c-0.3-0.3-0.3-0.5-0.1-0.7c0.3-0.7,3.6-4.6,2.3-4.6c-0.9,0-2.1,0-3.1,0c-0.1,0-0.3,0.1-0.4,0.3 C11.7,5.2,11,6.8,10,7.8C9.9,8,9.7,8,9.6,7.8c-0.7-0.7,0-3.2-0.4-4.2c0-0.1-0.3-0.3-0.4-0.3C7.9,3.1,5.7,3.2,5.3,3.6 c0,0.1-0.1,0.3,0,0.3C5.6,3.9,5.9,4,6,4.3c0.3,0.5,0.4,3.6-0.3,3.6c-0.8,0-2-3.1-2.4-3.8c0-0.3-0.3-0.4-0.5-0.4H0.6 C0.2,3.6-0.1,3.9,0,4.3c1.2,2.9,3.7,8.6,7.7,8.5c0.4,0,1.1,0.1,1.3-0.1c0.4-0.5-0.1-1.6,0.7-2c0.1-0.1,0.4,0,0.5,0.1 c0.8,0.7,1.2,1.7,2.3,2c0.1,0,0.3,0.1,0.4,0H15c0.4,0,0.8-0.1,0.7-0.7C15.6,11,14.4,10,13.6,9z"/>
  </symbol>
  <symbol id="whatsapp" viewBox="0 0 16 16">
    <path d="M12,9.6c-0.5-0.3-1.5-0.8-1.6-0.8c-0.3-0.1-0.3,0-0.4,0.1C9.7,9.1,9.3,9.6,9.2,9.7c-0.1,0.1-0.3,0-0.4,0 C8.5,9.6,7.7,9.2,7.1,8.5C6.3,7.7,6.3,7.5,6,7.2C5.9,7.1,6,6.9,6,6.8c0.1-0.3,0.4-0.5,0.5-0.7s0-0.4,0-0.5C6.4,5.1,6.1,4.5,6,4.3 C5.9,3.9,5.5,4,5.2,4C4.7,4,3.9,4.7,3.9,5.9c0,0.8,0.4,1.9,1.9,3.5c1.3,1.5,3.2,2.3,4.7,2.3s1.9-1.3,1.9-1.7 C12.3,9.6,12.1,9.6,12,9.6z"/>
    <path d="M8,0C3.6,0,0,3.6,0,8c0,1.5,0.4,2.8,1.1,4L0,16l4.1-0.9C5.3,15.6,6.7,16,8,16c4.4,0,8-3.6,8-8S12.4,0,8,0z M8,14.8c-1.5,0-2.8-0.4-3.9-1.2l-2.3,0.5l0.7-2.3C1.7,10.8,1.2,9.5,1.2,8c0-3.7,3.1-6.8,6.8-6.8s6.8,3.1,6.8,6.8S11.7,14.8,8,14.8z"/>
  </symbol>
  <symbol id="youtube" viewBox="0 0 16 16">
    <path d="M15.9,4.5c-0.1-1.1-0.9-2-2.1-2.1c-1.6,0-4-0.1-5.7-0.1S3.9,2.4,2.3,2.4c-1.1,0-2,0.9-2.1,2.1C0.1,5.6,0,6.9,0,8 s0.1,2.4,0.1,3.5c0.1,1.1,0.9,2,2.1,2.1c1.6,0.1,4,0.1,5.7,0.1s4.1-0.1,5.7-0.1c1.1,0,2-0.9,2.1-2.1C16,10.4,16,9.1,16,8 S15.9,5.6,15.9,4.5z M6.3,10.3V5.7L10.8,8L6.3,10.3z"/>
  </symbol>
  <symbol id="github" viewBox="0 0 16 16">
  	<path d="M16,8c0-4.4-3.6-8-8-8S0,3.6,0,8c0,3.5,2.3,6.5,5.3,7.6c0.1-0.1,0.4-0.3,0.4-0.5c0-0.4,0-1.6,0-1.6 s-0.4,0-0.8,0c-1.2,0-1.6-0.8-1.9-1.2c-0.3-0.5-0.5-0.8-0.9-1.1c-0.3-0.1-0.3-0.3,0-0.4c1.1-0.3,1.3,1.2,2.1,1.5 c0.5,0.1,1.2,0.1,1.6-0.1c0-0.4,0.4-0.8,0.7-1.1c-1.9-0.1-2.9-0.8-3.6-1.9V9.1L2.8,8.8V8.7C2.5,8.1,2.4,7.5,2.4,6.8 c0-1.2,0.4-1.6,0.9-2.3C2.9,3.2,3.5,2.3,3.5,2.3s0.8-0.1,2.4,0.9c0.8-0.4,2.9-0.4,4-0.1c0.7-0.4,1.9-1.1,2.3-0.8 c0.1,0.3,0.4,0.8,0.1,2.1c0.1,0.3,1.1,0.9,1.1,2.7c0,0.7-0.1,1.2-0.3,1.6l-0.1,0.3c0,0,0,0.1-0.1,0.3v0.1c-0.5,1.2-1.7,1.7-3.6,1.9 C9.7,11.6,10,12,10,13.3s0,1.5,0,1.7s0.3,0.4,0.4,0.5C13.7,14.4,16,11.5,16,8z"/>
  </symbol>
  <symbol id="company" viewBox="0 0 16 16">
    <path d="M15.3,14.7h-0.7V4c0-0.3-0.2-0.6-0.5-0.6l-7.3-2c-0.2-0.1-0.4,0-0.6,0.1C6.1,1.6,6,1.8,6,2v3.3H2 C1.6,5.3,1.3,5.6,1.3,6v8.7H0.7C0.3,14.7,0,15,0,15.3C0,15.7,0.3,16,0.7,16h14.7c0.4,0,0.7-0.3,0.7-0.7C16,15,15.7,14.7,15.3,14.7z M2.7,14.7v-8h6v8H2.7z M9.3,5.3h-2V2.9l6,1.6v10.2H10V6C10,5.6,9.7,5.3,9.3,5.3z"/>
  </symbol>
  <symbol id="person" viewBox="0 0 24 24">
    <path d="M12.1,11.7c2.1,0,3.8-1.7,3.8-3.8s-1.7-3.8-3.8-3.8S8.4,5.8,8.4,7.9S10.1,11.7,12.1,11.7z M12.1,5.5 c1.3,0,2.3,1.1,2.3,2.3s-1.1,2.3-2.3,2.3S9.8,9.2,9.8,7.9S10.8,5.5,12.1,5.5z"/>
    <path d="M12,0C5.4,0,0,5.4,0,12c0,6.6,5.4,12,12,12c6.6,0,12-5.4,12-12C24,5.4,18.6,0,12,0z M12,22.6 C6.2,22.6,1.4,17.8,1.4,12C1.4,6.2,6.2,1.4,12,1.4c5.8,0,10.6,4.7,10.6,10.6C22.6,17.8,17.8,22.6,12,22.6z"/>
    <path d="M18.6,16.2c-0.3-0.9-0.8-1.6-1.5-2.2c-0.9-0.7-2-1.1-3.1-1.1h-1.5h-0.9h-1.5c-1.1,0-2.2,0.4-3.1,1.1 c-0.7,0.6-1.2,1.3-1.5,2.2l-0.2,0.6c-0.1,0.4,0.1,0.8,0.5,0.9c0.1,0,0.1,0,0.2,0c0.3,0,0.6-0.2,0.7-0.5L7,16.7 c0.2-0.6,0.5-1.1,1-1.5c0.6-0.5,1.4-0.8,2.2-0.8h1.5h0.9h1.5c0.8,0,1.6,0.3,2.2,0.8c0.5,0.4,0.8,0.9,1,1.5l0.2,0.6 c0.1,0.3,0.4,0.5,0.7,0.5c0.1,0,0.1,0,0.2,0c0.4-0.1,0.6-0.5,0.5-0.9L18.6,16.2z"/>
  </symbol>
</svg>
