<svg xmlns="http://www.w3.org/2000/svg" style="display: none;">
  <symbol id="email" viewBox="0 0 24 24">
    <path d="M3,21.6c-0.2,0-0.3-0.1-0.4-0.2c-0.2-0.2-0.2-0.4-0.1-0.6l1.8-5.4c-0.6-1.2-0.8-2.5-0.8-3.8c0-3.4,1.9-6.5,4.9-8 c1.2-0.6,2.6-0.9,4-0.9h0.5c4.6,0.3,8.2,3.9,8.5,8.4l0,0.5c0,1.4-0.3,2.8-0.9,4c-1.5,3-4.6,4.9-8,4.9c0,0,0,0,0,0 c-1.3,0-2.6-0.3-3.8-0.8l-5.4,1.8C3.1,21.6,3.1,21.6,3,21.6z M12.3,3.9c-1.2,0-2.4,0.3-3.4,0.8c-2.6,1.3-4.3,4-4.3,6.9 c0,1.2,0.3,2.4,0.8,3.5c0.1,0.1,0.1,0.3,0,0.5l-1.5,4.5l4.5-1.5c0.2-0.1,0.3,0,0.5,0c1.1,0.5,2.2,0.8,3.5,0.8c3,0,5.6-1.6,6.9-4.3 c0.5-1.1,0.8-2.3,0.8-3.5c0,0,0,0,0,0v-0.5c-0.2-3.9-3.4-7-7.3-7.3L12.3,3.9C12.3,3.9,12.3,3.9,12.3,3.9z M21.3,11.7L21.3,11.7 L21.3,11.7z"/>
  </symbol>
</svg>
