<svg xmlns="http://www.w3.org/2000/svg" style="display: none;">
  <symbol id="contactapplication" viewBox="0 0 24 24">
    <!-- <circle cx="12" cy="9.9" r="2" /> duotone -->
    <path d="M12,12.6c1.5,0,2.6-1.2,2.6-2.6c0-1.5-1.2-2.6-2.6-2.6c-1.5,0-2.6,1.2-2.6,2.6C9.4,11.4,10.5,12.6,12,12.6zM12,8.4c0.8,0,1.5,0.7,1.5,1.5s-0.7,1.5-1.5,1.5s-1.5-0.7-1.5-1.5S11.2,8.4,12,8.4z" />
    <path d="M12,3.9c-4.4,0-8.1,3.6-8.1,8.1c0,4.4,3.6,8.1,8.1,8.1c4.4,0,8.1-3.6,8.1-8.1C20.1,7.6,16.4,3.9,12,3.9zM12,5.1c3.8,0,6.9,3.1,6.9,6.9c0,1.4-0.4,2.7-1.1,3.8c-1.5-1.2-3.6-1.9-5.8-1.9c-2.2,0-4.2,0.7-5.8,1.9c-0.7-1.1-1.1-2.4-1.1-3.8C5.1,8.2,8.2,5.1,12,5.1z M12,18.9c-2,0-3.8-0.9-5.1-2.2c1.3-1,3.2-1.6,5.1-1.6c1.9,0,3.8,0.6,5.1,1.6C15.8,18.1,14,18.9,12,18.9z" />
  </symbol>
  <symbol id="phone" viewBox="0 0 12 12">
    <path d="M9,7.1L10,8.1c0.2,0.2,0.2,0.6,0,0.8C8.8,10,7,10.1,5.7,9.1L5.7,9.1c-1-0.7-1.8-1.6-2.6-2.6L3,6.4c-1-1.3-0.8-3.1,0.3-4.2 C3.5,2,3.9,2,4.1,2.2L5,3.1C5.4,3.4,5.4,4,5,4.3L4.4,4.9C4.3,5,4.3,5.2,4.3,5.4c0.5,1,1.4,1.9,2.4,2.4c0.2,0.1,0.4,0.1,0.5-0.1 l0.6-0.6C8.2,6.8,8.7,6.8,9,7.1z"/>
  </symbol>
  <symbol id="email" viewBox="0 0 12 12" style="fill-rule:evenodd;clip-rule:evenodd;">
    <path d="M2.2,3.1C1.9,3.4,1.9,3.9,1.9,4.8v2.4c0,0.9,0,1.4,0.3,1.7c0.3,0.3,0.8,0.3,1.7,0.3h4.2c0.9,0,1.4,0,1.7-0.3 c0.3-0.3,0.3-0.8,0.3-1.7V4.8c0-0.9,0-1.4-0.3-1.7C9.5,2.8,9.1,2.8,8.1,2.8H3.9C2.9,2.8,2.5,2.8,2.2,3.1z M3.5,4.3 C3.3,4.1,3,4.2,2.8,4.4C2.7,4.6,2.7,4.9,3,5.1l2.2,1.5c0.5,0.3,1.2,0.3,1.7,0L9,5.1c0.2-0.2,0.3-0.5,0.1-0.7C9,4.2,8.7,4.1,8.5,4.3 L6.3,5.7c-0.2,0.1-0.4,0.1-0.6,0L3.5,4.3z"/>
  </symbol>
  <symbol id="discord" viewBox="0 0 12 12">
    <path d="M9.1,3.5C8.5,3.3,7.9,3.1,7.3,3C7.2,3.1,7.1,3.3,7,3.5C6.3,3.4,5.7,3.4,5,3.5C4.9,3.3,4.8,3.1,4.7,3 C4.1,3.1,3.5,3.3,2.9,3.5C1.7,5.2,1.4,6.8,1.5,8.4C2.3,9,3.1,9.3,3.8,9.5C4,9.3,4.2,9.1,4.3,8.8C4,8.7,3.8,8.6,3.5,8.4 c0.1,0,0.1-0.1,0.2-0.1c1.5,0.7,3.1,0.7,4.6,0c0.1,0,0.1,0.1,0.2,0.1C8.2,8.6,8,8.7,7.7,8.8C7.8,9.1,8,9.3,8.2,9.5 C8.9,9.3,9.7,9,10.5,8.4C10.6,6.6,10.1,5,9.1,3.5z M4.5,7.5c-0.4,0-0.8-0.4-0.8-0.9c0-0.5,0.4-0.9,0.8-0.9c0.5,0,0.8,0.4,0.8,0.9 C5.3,7.1,5,7.5,4.5,7.5z M7.5,7.5c-0.4,0-0.8-0.4-0.8-0.9c0-0.5,0.4-0.9,0.8-0.9c0.5,0,0.8,0.4,0.8,0.9C8.3,7.1,7.9,7.5,7.5,7.5z"/>
  </symbol>
  <symbol id="facebook" viewBox="0 0 12 12">
    <path d="M8.3,6.5l0.3-1.6H7v-1C7,3.4,7.2,3,7.9,3h0.7V1.6c0,0-0.7-0.1-1.3-0.1c-1.3,0-2.2,0.8-2.2,2.2v1.2H3.8v1.6h1.5v3.9 c0.3,0,0.6,0.1,0.9,0.1c0.3,0,0.6,0,0.9-0.1V6.5H8.3z"/>
  </symbol>
  <symbol id="instagram" viewBox="0 0 12 12" style="fill-rule:evenodd;clip-rule:evenodd;">
    <path d="M9.1,3.5c0,0.4-0.3,0.7-0.7,0.7c-0.4,0-0.7-0.3-0.7-0.7s0.3-0.7,0.7-0.7C8.8,2.8,9.1,3.2,9.1,3.5z"/>
    <path d="M6,8.2c1.2,0,2.2-1,2.2-2.2S7.2,3.7,6,3.7S3.8,4.8,3.8,6S4.8,8.2,6,8.2z M6,7.3c0.7,0,1.3-0.6,1.3-1.3 S6.7,4.6,6,4.6S4.7,5.3,4.7,6S5.3,7.3,6,7.3z"/>
    <path d="M1.5,5.8c0-1.5,0-2.3,0.3-2.8C2.1,2.5,2.5,2.1,3,1.8c0.6-0.3,1.3-0.3,2.8-0.3h0.4c1.5,0,2.3,0,2.8,0.3 C9.5,2.1,9.9,2.5,10.2,3c0.3,0.6,0.3,1.3,0.3,2.8v0.4c0,1.5,0,2.3-0.3,2.8C9.9,9.5,9.5,9.9,9,10.2c-0.6,0.3-1.3,0.3-2.8,0.3H5.8 c-1.5,0-2.3,0-2.8-0.3C2.5,9.9,2.1,9.5,1.8,9C1.5,8.4,1.5,7.7,1.5,6.2V5.8z M5.8,2.4h0.4c0.8,0,1.3,0,1.7,0c0.4,0,0.6,0.1,0.7,0.2 C9,2.8,9.2,3,9.4,3.4c0.1,0.1,0.1,0.3,0.2,0.7c0,0.4,0,0.9,0,1.7v0.4c0,0.8,0,1.3,0,1.7c0,0.4-0.1,0.6-0.2,0.7C9.2,9,9,9.2,8.6,9.4 C8.5,9.5,8.3,9.5,7.9,9.6c-0.4,0-0.9,0-1.7,0H5.8c-0.8,0-1.3,0-1.7,0c-0.4,0-0.6-0.1-0.7-0.2C3,9.2,2.8,9,2.6,8.6 C2.5,8.5,2.5,8.3,2.4,7.9c0-0.4,0-0.9,0-1.7V5.8c0-0.8,0-1.3,0-1.7c0-0.4,0.1-0.6,0.2-0.7C2.8,3,3,2.8,3.4,2.6 c0.1-0.1,0.3-0.1,0.7-0.2C4.5,2.4,5,2.4,5.8,2.4z"/>
  </symbol>
  <symbol id="linkedin" viewBox="0 0 12 12">
    <path d="M3.7,2.5c0,0.6-0.5,1-1.1,1c-0.6,0-1.1-0.5-1.1-1s0.5-1,1.1-1C3.2,1.5,3.7,2,3.7,2.5z"/>
    <path d="M1.6,4.3h1.9v5.6H1.6V4.3z"/>
    <path d="M6.5,4.3H4.6v5.6h1.9c0,0,0-1.8,0-2.9c0-0.7,0.2-1.3,1.1-1.3c1,0,1,0.9,1,1.5c0,0.9,0,1.8,0,2.7h1.9v-3 c0-1.9-0.5-2.8-2.1-2.8c-1,0-1.6,0.4-1.9,0.8V4.3z"/>
  </symbol>
  <symbol id="telegram" viewBox="0 0 12 12">
    <path d="M10.1,2.9c0.1-0.4-0.3-0.8-0.7-0.6L1.7,5.6c-0.3,0.1-0.3,0.5,0,0.6l1.6,0.5c0.3,0.1,0.6,0,0.9-0.1l3.6-2.5 C7.9,4.1,8,4.3,7.9,4.4L5.3,7C5.1,7.3,5.1,7.7,5.4,7.9l2.9,1.8c0.3,0.2,0.7,0,0.8-0.4L10.1,2.9z"/>
  </symbol>
  <symbol id="twitter" viewBox="0 0 12 12">
    <path d="M4.3,9.6c-1,0-2-0.3-2.8-0.8c0.7,0,1.9-0.1,2.7-0.8C3,8,2.5,7.1,2.4,6.7c0.1,0,0.6,0.1,0.8,0C2,6.4,1.8,5.2,1.8,4.9 C2,5,2.5,5.1,2.6,5.1C1.4,4.2,1.8,2.9,2.1,2.6c0.9,1.2,2.2,1.9,3.8,1.9c0-0.1,0-0.3,0-0.4c0-1,0.8-1.9,1.9-1.9c0.5,0,1,0.2,1.4,0.6 c0.4-0.1,0.9-0.3,1.2-0.5c-0.1,0.5-0.5,0.9-0.8,1c0,0,0,0,0,0c0.2,0,0.8-0.1,1.1-0.3c-0.1,0.3-0.6,0.7-0.9,1 C9.6,7.1,7.4,9.6,4.3,9.6z"/>
  </symbol>
  <symbol id="vk" viewBox="0 0 12 12">
    <path d="M9.1,7.1C9,6.9,9,6.8,9,6.7C9.2,6.3,11.1,4,10.3,4C9.8,4,9.1,4,8.6,4C8.5,4,8.4,4.1,8.4,4.2C8.1,4.9,7.7,5.8,7.1,6.3 C7,6.4,7,6.4,6.9,6.4C6.5,6,6.9,4.5,6.7,4c0-0.1-0.1-0.2-0.3-0.2C5.9,3.7,4.7,3.8,4.5,4c-0.1,0.1-0.1,0.1,0,0.1 c0.2,0,0.3,0.1,0.4,0.2C5,4.7,5.2,6.4,4.7,6.4c-0.4,0-1.1-1.7-1.3-2.2C3.3,4.1,3.2,4,3.1,4L1.8,4C1.6,4,1.4,4.1,1.5,4.3 C2.2,6,3.7,9.2,5.9,9.1c0.2,0,0.6,0.1,0.8-0.1C6.9,8.7,6.6,8.1,7,7.9c0.1-0.1,0.2,0,0.3,0.1c0.5,0.4,0.7,1,1.3,1.2 c0.1,0,0.2,0,0.3,0l1.2,0c0.2,0,0.4-0.1,0.4-0.4C10.3,8.2,9.6,7.6,9.1,7.1z"/>
  </symbol>
  <symbol id="whatsapp" viewBox="0 0 12 12" style="fill-rule:evenodd;clip-rule:evenodd;">
    <path d="M4.9,3.9C4.8,3.7,4.6,3.7,4.4,3.7c-0.3,0-0.8,0.4-0.8,1c0,0.5,0.2,1.1,1,2C5.5,7.6,6.5,8,7.4,8c0.8,0,1-0.7,1-1 c0-0.1-0.1-0.2-0.1-0.2C8,6.7,7.4,6.5,7.3,6.4c-0.1,0-0.2,0-0.2,0.1C7,6.6,6.8,6.9,6.7,7C6.6,7,6.5,7,6.5,7c-0.2-0.1-0.6-0.3-1-0.6 C5,5.9,5,5.7,4.9,5.6c-0.1-0.1,0-0.2,0-0.2C5,5.3,5.1,5.1,5.2,5c0.1-0.1,0-0.2,0-0.3C5.1,4.4,5,4.1,4.9,3.9z"/>
    <path d="M6,10.5c2.5,0,4.5-2,4.5-4.5S8.5,1.5,6,1.5S1.5,3.5,1.5,6c0,0.8,0.2,1.6,0.6,2.2l-0.6,2.3L3.9,10 C4.5,10.3,5.2,10.5,6,10.5z M6,9.8c2.1,0,3.8-1.7,3.8-3.8S8.1,2.2,6,2.2S2.2,3.9,2.2,6c0,0.8,0.3,1.6,0.7,2.2L2.5,9.5l1.3-0.3 C4.5,9.6,5.2,9.8,6,9.8z"/>
  </symbol>
  <symbol id="skype" viewBox="0 0 24 24">
    <path d="M20.9,13.4C21,12.9,21,12.5,21,12c0-2.4-1-4.7-2.6-6.4C16.7,3.9,14.4,3,12,3c-0.5,0-0.9,0-1.4,0.1c-1-0.6-2.3-0.9-3.5-0.7C5.9,2.5,4.8,3,3.9,3.9c-0.9,0.9-1.4,2-1.6,3.2c-0.1,1.2,0.1,2.4,0.7,3.5C3,11,3,11.5,3,12c0,2.4,1,4.7,2.6,6.4c1.7,1.7,4,2.6,6.4,2.6c0.5,0,0.9,0,1.4-0.1c1,0.6,2.3,0.9,3.5,0.7c1.2-0.1,2.3-0.7,3.2-1.6c0.9-0.9,1.4-2,1.6-3.2C21.8,15.7,21.5,14.5,20.9,13.4L20.9,13.4z M16.3,16.1c-0.4,0.6-1,1-1.7,1.3c-0.8,0.3-1.7,0.5-2.6,0.5c-1,0-2.1-0.2-3-0.6C8.5,17,8,16.5,7.6,16c-0.3-0.4-0.5-1-0.5-1.5c0-0.1,0-0.3,0.1-0.4c0.1-0.1,0.1-0.2,0.2-0.3c0.2-0.2,0.5-0.3,0.8-0.3c0.2,0,0.5,0.1,0.7,0.2c0.2,0.2,0.4,0.4,0.5,0.7c0.1,0.3,0.3,0.6,0.5,0.9c0.2,0.3,0.5,0.5,0.8,0.6c0.4,0.2,0.8,0.3,1.3,0.2c0.6,0,1.2-0.1,1.8-0.5c0.2-0.1,0.4-0.3,0.5-0.5c0.1-0.2,0.2-0.4,0.2-0.7c0-0.2,0-0.3-0.1-0.5c-0.1-0.2-0.2-0.3-0.3-0.4c-0.3-0.2-0.6-0.4-0.9-0.5c-0.4-0.1-0.9-0.3-1.6-0.4c-0.7-0.2-1.5-0.4-2.2-0.7c-0.6-0.2-1-0.6-1.4-1.1c-0.4-0.5-0.5-1.1-0.5-1.7c0-0.6,0.2-1.2,0.6-1.7c0.4-0.5,1-0.9,1.6-1.1c0.8-0.3,1.6-0.4,2.5-0.4c0.7,0,1.3,0.1,1.9,0.3c0.5,0.1,1,0.4,1.4,0.7c0.3,0.2,0.6,0.6,0.8,0.9c0.2,0.3,0.2,0.6,0.3,0.9c0,0.1,0,0.3-0.1,0.4c-0.1,0.1-0.1,0.2-0.2,0.3c-0.1,0.1-0.2,0.2-0.4,0.3C15.5,10,15.4,10,15.2,10c-0.2,0-0.5-0.1-0.7-0.2c-0.2-0.2-0.4-0.4-0.5-0.7c-0.2-0.4-0.5-0.7-0.8-1c-0.4-0.3-1-0.4-1.5-0.3c-0.5,0-1,0.1-1.5,0.4C10.2,8.3,10,8.4,9.9,8.6C9.8,8.7,9.8,8.9,9.8,9.1c0,0.2,0.1,0.4,0.2,0.6c0.1,0.2,0.3,0.3,0.5,0.4c0.2,0.1,0.5,0.2,0.7,0.3c0.2,0.1,0.6,0.2,1.2,0.3c0.7,0.2,1.3,0.3,1.9,0.5c0.5,0.2,1,0.4,1.4,0.7c0.4,0.2,0.7,0.6,0.9,1c0.2,0.5,0.3,1,0.3,1.5C16.9,14.9,16.7,15.6,16.3,16.1z" />
  </symbol>
  <symbol id="youtube" viewBox="0 0 12 12">
    <path d="M10.4,4.3c0-0.6-0.6-1.1-1.2-1.2C8.3,3.1,7,3,6,3S3.7,3.1,2.8,3.1c-0.6,0-1.1,0.5-1.2,1.2c0,0.6-0.1,1.4-0.1,1.9 s0,1.3,0.1,1.9c0,0.6,0.6,1.1,1.2,1.2C3.7,9.4,5,9.4,6,9.4s2.3-0.1,3.2-0.1c0.6,0,1.1-0.5,1.2-1.2c0-0.6,0.1-1.4,0.1-1.9 S10.5,4.9,10.4,4.3z M5,7.5V4.9l2.6,1.3L5,7.5z"/>
  </symbol>
  <symbol id="github" viewBox="0 0 12 12">
    <path d="M10.5,6c0-2.5-2-4.5-4.5-4.5S1.5,3.5,1.5,6c0,2,1.3,3.6,3,4.3c0.1-0.1,0.2-0.2,0.2-0.3c0-0.2,0-0.9,0-0.9s-0.2,0-0.5,0 c-0.7,0-0.9-0.4-1-0.7C3.1,8.1,2.9,7.9,2.8,7.8c-0.1-0.1-0.1-0.2,0-0.2c0.6-0.1,0.8,0.7,1.2,0.8c0.3,0.1,0.7,0.1,0.9-0.1 c0-0.2,0.2-0.5,0.4-0.6c-1.1-0.1-1.7-0.5-2-1.1l0-0.1L3,6.5l0-0.1c-0.1-0.3-0.1-0.6-0.1-1c0-0.7,0.2-0.9,0.5-1.3 C3.1,3.3,3.4,2.8,3.4,2.8s0.5-0.1,1.3,0.5c0.5-0.2,1.7-0.2,2.3,0c0.4-0.2,1-0.6,1.3-0.5C8.4,2.9,8.6,3.2,8.5,4C8.6,4.1,9,4.5,9,5.5 c0,0.4,0,0.7-0.1,0.9l0,0.1c0,0,0,0.1,0,0.1l0,0.1c-0.3,0.7-1,0.9-2,1C7.1,8,7.2,8.2,7.2,9c0,0.7,0,0.8,0,1c0,0.1,0.1,0.2,0.2,0.3 C9.2,9.7,10.5,8,10.5,6z"/>
  </symbol>
  <symbol id="edit" viewBox="0 0 12 12" style="fill-rule:evenodd;clip-rule:evenodd;">
    <path d="M8.6,5.4l0.9-0.9c0.6-0.6,0.6-1.4,0-2c-0.6-0.6-1.4-0.6-2,0L6.6,3.4C7.1,4.2,7.8,4.9,8.6,5.4z M5.9,4.1l-3,3 C2.4,7.6,2.2,7.8,2.1,8C1.9,8.3,1.9,8.6,1.8,9.2L1.6,9.8c-0.1,0.3-0.1,0.5,0,0.6s0.3,0.1,0.6,0l0.6-0.1h0c0.6-0.1,0.9-0.2,1.1-0.3 c0.3-0.1,0.5-0.4,0.9-0.8l0,0l0,0l3-3C7.1,5.6,6.4,4.9,5.9,4.1z"/>
  </symbol>
  <symbol id="company" viewBox="0 0 16 16">
    <path d="M13.5,13H13V5c0-0.2-0.2-0.4-0.4-0.5L7.1,3C7,3,6.8,3,6.7,3.1C6.6,3.2,6.5,3.3,6.5,3.5V6h-3C3.2,6,3,6.2,3,6.5V13H2.5 C2.2,13,2,13.2,2,13.5S2.2,14,2.5,14h11c0.3,0,0.5-0.2,0.5-0.5S13.8,13,13.5,13z M4,13V7h4.5v6H4z M9,6H7.5V4.2L12,5.4V13H9.5V6.5 C9.5,6.2,9.3,6,9,6z"/>
  </symbol>
  <symbol id="person" viewBox="0 0 24 24">
    <path d="M11.9,13.5c0,0,0.1,0,0.2,0c0,0,0.1,0,0.1,0c0,0,0,0,0,0c2.2-0.1,3.9-1.8,3.9-4c0-2.2-1.8-4-4-4c-2.2,0-4,1.8-4,4 C8,11.7,9.7,13.5,11.9,13.5z M12,7c1.4,0,2.5,1.1,2.5,2.5c0,1.4-1.1,2.5-2.4,2.5c-0.1,0-0.2,0-0.3,0c-1.3-0.1-2.4-1.2-2.4-2.5 C9.5,8.1,10.6,7,12,7z" />
    <path d="M22.8,12c0-5.9-4.8-10.8-10.8-10.8S1.2,6.1,1.2,12c0,3.1,1.3,5.9,3.5,7.9c0,0,0,0,0,0C4.8,20,4.9,20,5,20.1 c0.1,0.1,0.3,0.2,0.4,0.3c0.1,0.1,0.3,0.2,0.4,0.3C5.9,20.8,6,20.9,6.2,21c0.2,0.1,0.3,0.2,0.5,0.3c0.1,0.1,0.3,0.2,0.4,0.2 c0.2,0.1,0.3,0.2,0.5,0.2C7.7,21.8,7.8,21.9,8,22c0.2,0.1,0.4,0.1,0.5,0.2c0.1,0,0.3,0.1,0.4,0.1c0.2,0.1,0.4,0.1,0.6,0.1 c0.1,0,0.3,0.1,0.4,0.1c0.2,0,0.4,0.1,0.6,0.1c0.1,0,0.3,0,0.4,0.1c0.3,0,0.7,0.1,1,0.1c0.4,0,0.7,0,1-0.1c0.1,0,0.3,0,0.4-0.1 c0.2,0,0.4-0.1,0.6-0.1c0.1,0,0.3-0.1,0.4-0.1c0.2,0,0.4-0.1,0.6-0.1c0.1,0,0.3-0.1,0.4-0.1c0.2-0.1,0.4-0.1,0.5-0.2 c0.1-0.1,0.3-0.1,0.4-0.2c0.2-0.1,0.3-0.2,0.5-0.2c0.1-0.1,0.3-0.1,0.4-0.2c0.2-0.1,0.3-0.2,0.5-0.3c0.1-0.1,0.3-0.2,0.4-0.3 c0.1-0.1,0.3-0.2,0.4-0.3c0.1-0.1,0.3-0.2,0.4-0.3c0.1-0.1,0.1-0.1,0.2-0.2c0,0,0,0,0,0C21.4,17.9,22.8,15.1,22.8,12z M2.8,12 c0-5.1,4.1-9.2,9.2-9.2s9.2,4.1,9.2,9.2c0,2.3-0.8,4.3-2.2,6c-0.4-0.7-0.9-1.3-1.7-1.8c-3-2-7.8-2-10.8,0c-0.7,0.5-1.3,1.1-1.7,1.8 C3.6,16.3,2.8,14.3,2.8,12z M17.9,19.1c-0.1,0.1-0.2,0.1-0.3,0.2c-0.1,0.1-0.3,0.2-0.4,0.3c-0.1,0.1-0.2,0.1-0.3,0.2 c-0.1,0.1-0.3,0.2-0.4,0.3c-0.1,0.1-0.2,0.1-0.3,0.2c-0.2,0.1-0.3,0.2-0.5,0.2c-0.1,0-0.2,0.1-0.3,0.1c-0.2,0.1-0.3,0.1-0.5,0.2 c-0.1,0-0.2,0.1-0.4,0.1c-0.2,0-0.3,0.1-0.5,0.1c-0.1,0-0.2,0.1-0.4,0.1c-0.2,0-0.4,0.1-0.6,0.1c-0.1,0-0.2,0-0.3,0 c-0.3,0-0.6,0-0.9,0c-0.3,0-0.6,0-0.9,0c-0.1,0-0.2,0-0.3,0c-0.2,0-0.4,0-0.6-0.1c-0.1,0-0.2-0.1-0.4-0.1c-0.2,0-0.3-0.1-0.5-0.1 c-0.1,0-0.2-0.1-0.4-0.1c-0.2-0.1-0.3-0.1-0.5-0.2c-0.1,0-0.2-0.1-0.3-0.1c-0.2-0.1-0.3-0.1-0.5-0.2c-0.1-0.1-0.2-0.1-0.3-0.2 c-0.2-0.1-0.3-0.2-0.4-0.3c-0.1-0.1-0.2-0.1-0.3-0.2c-0.1-0.1-0.3-0.2-0.4-0.3c-0.1-0.1-0.2-0.1-0.3-0.2c0,0,0,0,0,0 c0.2-0.6,0.7-1.2,1.4-1.7c2.5-1.6,6.6-1.6,9.1,0C17.3,17.9,17.7,18.5,17.9,19.1C17.9,19.1,17.9,19.1,17.9,19.1z" />
  </symbol>
  <symbol id="social-edit" viewBox="0 0 24 24">
    <path d="M22,12.2c-0.4,0-0.8,0.3-0.8,0.8v2c0,4.6-1.6,6.2-6.2,6.2H9c-4.6,0-6.2-1.6-6.2-6.2V9c0-4.6,1.6-6.2,6.2-6.2h2 c0.4,0,0.8-0.3,0.8-0.8S11.4,1.2,11,1.2H9C3.6,1.2,1.2,3.6,1.2,9v6c0,5.4,2.3,7.8,7.8,7.8h6c5.4,0,7.8-2.3,7.8-7.8v-2 C22.8,12.6,22.4,12.2,22,12.2z" />
    <path d="M14.4,3.6l-6.8,6.8c-0.4,0.4-0.8,1.2-0.9,1.7l-0.4,3c-0.1,0.8,0.1,1.5,0.6,2c0.4,0.4,1,0.6,1.6,0.6c0.1,0,0.2,0,0.4,0 l3-0.4c0.6-0.1,1.3-0.5,1.7-0.9l7.9-7.9c0.9-0.9,1.4-1.8,1.5-2.7c0.1-1.1-0.4-2.2-1.5-3.3c-2-2-4-2-6,0L14.4,3.6 C14.4,3.6,14.4,3.6,14.4,3.6z M12.6,15.3c-0.2,0.2-0.6,0.4-0.9,0.5l-3,0.4c-0.3,0-0.5,0-0.7-0.2c-0.2-0.1-0.2-0.4-0.2-0.7l0.4-3 c0-0.3,0.3-0.7,0.4-0.9l5.9-5.9c0.8,1.7,2.2,3.1,3.9,3.9L12.6,15.3z M20.4,3.5c0.8,0.8,1.1,1.5,1,2.1c0,0.5-0.4,1.1-1,1.8l-0.8,0.8 c-1.8-0.6-3.2-2.1-3.9-3.9l0.8-0.8C17.7,2.4,18.8,1.9,20.4,3.5z" />
  </symbol>
  <symbol id="homepage" viewBox="0 0 24 24">
    <path d="M12,1.2C6.1,1.2,1.2,6.1,1.2,12S6.1,22.8,12,22.8S22.8,17.9,22.8,12S17.9,1.2,12,1.2z M20.8,14.3 c-1.2,0.4-2.5,0.7-3.8,0.9c0.2-2.1,0.2-4.3,0-6.5c1.3,0.2,2.5,0.5,3.8,0.9c0.1,0,0.1,0,0.2,0c0.2,0.7,0.3,1.5,0.3,2.3 c0,0.8-0.1,1.5-0.3,2.3C20.9,14.3,20.8,14.3,20.8,14.3z M3,14.3c-0.2-0.7-0.3-1.5-0.3-2.3c0-0.8,0.1-1.5,0.3-2.3c0.1,0,0.1,0,0.2,0 C4.5,9.3,5.7,9,7,8.8c-0.2,2.1-0.2,4.3,0,6.5c-1.3-0.2-2.5-0.5-3.8-0.9C3.2,14.3,3.1,14.3,3,14.3z M8.5,8.5c2.3-0.3,4.6-0.3,6.9,0 c0.3,2.3,0.3,4.6,0,6.9c-2.3,0.3-4.6,0.3-6.9,0C8.3,13.2,8.3,10.8,8.5,8.5z M20.3,8c-1.2-0.3-2.3-0.6-3.5-0.8 C16.6,6,16.3,4.8,16,3.7C17.9,4.6,19.4,6.1,20.3,8z M14.3,3c0,0.1,0,0.1,0,0.2C14.7,4.5,15,5.7,15.2,7c-2.1-0.2-4.3-0.2-6.5,0 C9,5.7,9.3,4.5,9.7,3.2c0-0.1,0-0.1,0-0.2c0.7-0.2,1.5-0.3,2.3-0.3C12.8,2.8,13.5,2.9,14.3,3z M7.9,3.7C7.9,3.7,7.9,3.7,7.9,3.7 C7.6,4.9,7.4,6,7.2,7.2C6,7.4,4.8,7.7,3.7,8C4.5,6.2,6,4.7,7.9,3.7z M3.7,16.1C3.7,16.1,3.7,16.1,3.7,16.1c1.2,0.2,2.3,0.5,3.5,0.7 C7.4,18,7.6,19.1,8,20.2c0,0-0.1,0-0.1,0C6.1,19.4,4.6,17.9,3.7,16.1z M9.7,21c0-0.1,0-0.1,0-0.2C9.3,19.5,9,18.3,8.8,17 c1.1,0.1,2.2,0.2,3.2,0.2c1.1,0,2.2-0.1,3.2-0.2c-0.2,1.3-0.5,2.5-0.9,3.8c0,0.1,0,0.1,0,0.2c-0.7,0.2-1.5,0.3-2.3,0.3 C11.2,21.2,10.5,21.1,9.7,21z M16,20.3c0.3-1.2,0.6-2.4,0.8-3.6c1.2-0.2,2.3-0.4,3.5-0.8c0,0,0,0.1,0,0.1C19.4,18,17.8,19.5,16,20.3 z"/>
  </symbol>
  <symbol id='profile' viewBox="0 0 24 24">
    <path d="M11.9,13.5c0,0,0.1,0,0.2,0c0,0,0.1,0,0.1,0c0,0,0,0,0,0c2.2-0.1,3.9-1.8,3.9-4c0-2.2-1.8-4-4-4c-2.2,0-4,1.8-4,4 C8,11.7,9.7,13.5,11.9,13.5z M12,7c1.4,0,2.5,1.1,2.5,2.5c0,1.4-1.1,2.5-2.4,2.5c-0.1,0-0.2,0-0.3,0c-1.3-0.1-2.4-1.2-2.4-2.5 C9.5,8.1,10.6,7,12,7z" />
    <path d="M22.8,12c0-5.9-4.8-10.8-10.8-10.8S1.2,6.1,1.2,12c0,3.1,1.3,5.9,3.5,7.9c0,0,0,0,0,0C4.8,20,4.9,20,5,20.1 c0.1,0.1,0.3,0.2,0.4,0.3c0.1,0.1,0.3,0.2,0.4,0.3C5.9,20.8,6,20.9,6.2,21c0.2,0.1,0.3,0.2,0.5,0.3c0.1,0.1,0.3,0.2,0.4,0.2 c0.2,0.1,0.3,0.2,0.5,0.2C7.7,21.8,7.8,21.9,8,22c0.2,0.1,0.4,0.1,0.5,0.2c0.1,0,0.3,0.1,0.4,0.1c0.2,0.1,0.4,0.1,0.6,0.1 c0.1,0,0.3,0.1,0.4,0.1c0.2,0,0.4,0.1,0.6,0.1c0.1,0,0.3,0,0.4,0.1c0.3,0,0.7,0.1,1,0.1c0.4,0,0.7,0,1-0.1c0.1,0,0.3,0,0.4-0.1 c0.2,0,0.4-0.1,0.6-0.1c0.1,0,0.3-0.1,0.4-0.1c0.2,0,0.4-0.1,0.6-0.1c0.1,0,0.3-0.1,0.4-0.1c0.2-0.1,0.4-0.1,0.5-0.2 c0.1-0.1,0.3-0.1,0.4-0.2c0.2-0.1,0.3-0.2,0.5-0.2c0.1-0.1,0.3-0.1,0.4-0.2c0.2-0.1,0.3-0.2,0.5-0.3c0.1-0.1,0.3-0.2,0.4-0.3 c0.1-0.1,0.3-0.2,0.4-0.3c0.1-0.1,0.3-0.2,0.4-0.3c0.1-0.1,0.1-0.1,0.2-0.2c0,0,0,0,0,0C21.4,17.9,22.8,15.1,22.8,12z M2.8,12 c0-5.1,4.1-9.2,9.2-9.2s9.2,4.1,9.2,9.2c0,2.3-0.8,4.3-2.2,6c-0.4-0.7-0.9-1.3-1.7-1.8c-3-2-7.8-2-10.8,0c-0.7,0.5-1.3,1.1-1.7,1.8 C3.6,16.3,2.8,14.3,2.8,12z M17.9,19.1c-0.1,0.1-0.2,0.1-0.3,0.2c-0.1,0.1-0.3,0.2-0.4,0.3c-0.1,0.1-0.2,0.1-0.3,0.2 c-0.1,0.1-0.3,0.2-0.4,0.3c-0.1,0.1-0.2,0.1-0.3,0.2c-0.2,0.1-0.3,0.2-0.5,0.2c-0.1,0-0.2,0.1-0.3,0.1c-0.2,0.1-0.3,0.1-0.5,0.2 c-0.1,0-0.2,0.1-0.4,0.1c-0.2,0-0.3,0.1-0.5,0.1c-0.1,0-0.2,0.1-0.4,0.1c-0.2,0-0.4,0.1-0.6,0.1c-0.1,0-0.2,0-0.3,0 c-0.3,0-0.6,0-0.9,0c-0.3,0-0.6,0-0.9,0c-0.1,0-0.2,0-0.3,0c-0.2,0-0.4,0-0.6-0.1c-0.1,0-0.2-0.1-0.4-0.1c-0.2,0-0.3-0.1-0.5-0.1 c-0.1,0-0.2-0.1-0.4-0.1c-0.2-0.1-0.3-0.1-0.5-0.2c-0.1,0-0.2-0.1-0.3-0.1c-0.2-0.1-0.3-0.1-0.5-0.2c-0.1-0.1-0.2-0.1-0.3-0.2 c-0.2-0.1-0.3-0.2-0.4-0.3c-0.1-0.1-0.2-0.1-0.3-0.2c-0.1-0.1-0.3-0.2-0.4-0.3c-0.1-0.1-0.2-0.1-0.3-0.2c0,0,0,0,0,0 c0.2-0.6,0.7-1.2,1.4-1.7c2.5-1.6,6.6-1.6,9.1,0C17.3,17.9,17.7,18.5,17.9,19.1C17.9,19.1,17.9,19.1,17.9,19.1z" />
  </symbol>
  <symbol id="componentMembers" viewBox="0 0 16 16">
    <path d="M1 3C1 1.89543 1.89543 1 3 1H9C10.1046 1 11 1.89543 11 3V3.5H6C4.61929 3.5 3.5 4.61929 3.5 6V11H3C1.89543 11 1 10.1046 1 9V3Z" />
    <path fill-rule="evenodd" clip-rule="evenodd" d="M7 5C5.89543 5 5 5.89543 5 7V13C5 14.1046 5.89543 15 7 15H13C14.1046 15 15 14.1046 15 13V7C15 5.89543 14.1046 5 13 5H7ZM10 10C10.9665 10 11.5 9.2165 11.5 8.25C11.5 7.2835 10.9665 6.5 10 6.5C9.0335 6.5 8.5 7.2835 8.5 8.25C8.5 9.2165 9.0335 10 10 10ZM7 12.5616C7 11.5144 7.9841 10.746 9 11C9.47572 11.7136 10.5243 11.7136 11 11C12.0159 10.746 13 11.5144 13 12.5616V13.0101C13 13.2806 12.7806 13.5 12.5101 13.5H7.48995C7.21936 13.5 7 13.2806 7 13.0101V12.5616Z" />
  </symbol>
</svg>
