<svg width="535" height="571" viewBox="0 0 535 571" fill="none" xmlns="http://www.w3.org/2000/svg" xmlns:xlink="http://www.w3.org/1999/xlink">
<g filter="url(#filter0_dddddd_5246_151368)">
<path d="M256.698 43.6154C261.648 40.7573 267.748 40.7573 272.698 43.6154L307.305 63.5959C312.256 66.454 315.305 71.736 315.305 77.4523V117.413C315.305 123.13 312.256 128.412 307.305 131.27L272.698 151.25C267.748 154.108 261.648 154.108 256.698 151.25L222.091 131.27C217.14 128.412 214.091 123.13 214.091 117.413V77.4523C214.091 71.736 217.14 66.454 222.091 63.5959L256.698 43.6154Z" fill="url(#paint0_radial_5246_151368)"/>
</g>
<path d="M264.646 53.8038C264.801 53.7145 264.991 53.7145 265.146 53.8038L301.747 74.9355C301.902 75.0248 301.997 75.1899 301.997 75.3685V117.632C301.997 117.811 301.902 117.976 301.747 118.065L265.146 139.197C264.991 139.286 264.801 139.286 264.646 139.197L228.045 118.065C227.89 117.976 227.795 117.811 227.795 117.632V75.3685C227.795 75.1899 227.89 75.0248 228.045 74.9355L264.646 53.8038Z" stroke="url(#paint1_radial_5246_151368)" stroke-opacity="0.3" stroke-width="11"/>
<path d="M264.646 53.8038C264.801 53.7145 264.991 53.7145 265.146 53.8038L301.747 74.9355C301.902 75.0248 301.997 75.1899 301.997 75.3685V117.632C301.997 117.811 301.902 117.976 301.747 118.065L265.146 139.197C264.991 139.286 264.801 139.286 264.646 139.197L228.045 118.065C227.89 117.976 227.795 117.811 227.795 117.632V75.3685C227.795 75.1899 227.89 75.0248 228.045 74.9355L264.646 53.8038Z" stroke="url(#paint2_radial_5246_151368)" stroke-opacity="0.3" stroke-width="11"/>
<path d="M259.698 43.4579C262.792 41.6715 266.604 41.6715 269.698 43.4579L308.305 65.7478C311.399 67.5341 313.305 70.8354 313.305 74.408V118.988C313.305 122.56 311.399 125.862 308.305 127.648L269.698 149.938C266.604 151.724 262.792 151.724 259.698 149.938L221.091 127.648C217.997 125.862 216.091 122.56 216.091 118.988V74.408C216.091 70.8354 217.997 67.5341 221.091 65.7478L259.698 43.4579Z" stroke="black" stroke-opacity="0.13" stroke-width="4"/>
<path d="M258.698 41.7258C262.411 39.5822 266.985 39.5822 270.698 41.7258L309.305 64.0157C313.018 66.1593 315.305 70.1208 315.305 74.408V118.988C315.305 123.275 313.018 127.237 309.305 129.38L270.698 151.67C266.985 153.814 262.411 153.814 258.698 151.67L220.091 129.38C216.378 127.237 214.091 123.275 214.091 118.988V74.408C214.091 70.1208 216.378 66.1593 220.091 64.0157L258.698 41.7258Z" stroke="url(#paint3_linear_5246_151368)" stroke-width="4"/>
<g style="mix-blend-mode:overlay">
<path d="M259.698 42.3032C262.792 40.5168 266.604 40.5168 269.698 42.3032L309.305 65.1704C312.399 66.9568 314.305 70.258 314.305 73.8307V119.565C314.305 123.138 312.399 126.439 309.305 128.225L269.698 151.093C266.604 152.879 262.792 152.879 259.698 151.093L220.091 128.225C216.997 126.439 215.091 123.138 215.091 119.565V73.8307C215.091 70.258 216.997 66.9568 220.091 65.1704L259.698 42.3032Z" stroke="url(#paint4_linear_5246_151368)" stroke-width="2"/>
</g>
<path d="M260.698 45.7161C263.173 44.2871 266.223 44.2871 268.698 45.7161L306.849 67.7428C309.324 69.1718 310.849 71.8129 310.849 74.671V118.724C310.849 121.582 309.324 124.223 306.849 125.652L268.698 147.679C266.223 149.108 263.173 149.108 260.698 147.679L222.547 125.652C220.071 124.223 218.547 121.582 218.547 118.724V74.671C218.547 71.8129 220.071 69.1718 222.547 67.7428L260.698 45.7161Z" stroke="url(#paint5_radial_5246_151368)"/>
<g style="mix-blend-mode:plus-lighter" filter="url(#filter1_f_5246_151368)">
<path d="M258.198 42.0145C262.22 39.6923 267.176 39.6923 271.198 42.0145L308.805 63.727C312.827 66.0493 315.305 70.3409 315.305 74.9854V118.41C315.305 123.055 312.827 127.347 308.805 129.669L271.198 151.381C267.176 153.704 262.22 153.704 258.198 151.381L220.591 129.669C216.568 127.347 214.091 123.055 214.091 118.41V74.9854C214.091 70.3409 216.568 66.0493 220.591 63.727L258.198 42.0145Z" stroke="url(#paint6_radial_5246_151368)" stroke-opacity="0.8" stroke-width="5"/>
</g>
<g style="mix-blend-mode:plus-lighter">
<path d="M258 39.7528C262.022 37.4305 266.978 37.4306 271 39.7528L310.395 62.4972C314.417 64.8195 316.895 69.1111 316.895 73.7556V119.244C316.895 123.889 314.417 128.181 310.395 130.503L271 153.247C266.978 155.569 262.022 155.569 258 153.247L218.605 130.503C214.583 128.181 212.105 123.889 212.105 119.244V73.7556C212.105 69.1111 214.583 64.8194 218.605 62.4972L258 39.7528Z" stroke="url(#paint7_radial_5246_151368)" stroke-opacity="0.8"/>
</g>
<g style="mix-blend-mode:plus-lighter">
<path d="M258 39.7528C262.022 37.4305 266.978 37.4306 271 39.7528L310.395 62.4972C314.417 64.8195 316.895 69.1111 316.895 73.7556V119.244C316.895 123.889 314.417 128.181 310.395 130.503L271 153.247C266.978 155.569 262.022 155.569 258 153.247L218.605 130.503C214.583 128.181 212.105 123.889 212.105 119.244V73.7556C212.105 69.1111 214.583 64.8194 218.605 62.4972L258 39.7528Z" stroke="url(#paint8_radial_5246_151368)" stroke-opacity="0.8"/>
</g>
<mask id="mask0_5246_151368" style="mask-type:alpha" maskUnits="userSpaceOnUse" x="214" y="39" width="102" height="115">
<path d="M259.198 41.4371C262.601 39.4722 266.795 39.4722 270.198 41.4371L309.805 64.3044C313.209 66.2694 315.305 69.9008 315.305 73.8307V119.565C315.305 123.495 313.209 127.127 309.805 129.091L270.198 151.959C266.795 153.924 262.601 153.924 259.198 151.959L219.591 129.091C216.187 127.127 214.091 123.495 214.091 119.565V73.8307C214.091 69.9008 216.187 66.2694 219.591 64.3044L259.198 41.4371Z" fill="#FB2B2B"/>
</mask>
<g mask="url(#mask0_5246_151368)">
<g style="mix-blend-mode:plus-lighter" filter="url(#filter2_f_5246_151368)">
<path d="M301.817 132.715L239.706 36.7915L215.082 46.7146L258.082 156.604L301.817 132.715Z" fill="url(#paint9_linear_5246_151368)"/>
</g>
<g style="mix-blend-mode:plus-lighter" filter="url(#filter3_f_5246_151368)">
<path d="M359.887 187.844L297.775 91.9204L273.151 101.844L316.151 211.733L359.887 187.844Z" fill="url(#paint10_linear_5246_151368)"/>
</g>
</g>
<g filter="url(#filter4_dddddd_5246_151368)">
<path d="M233 102.817L286.453 43.5044C287.228 42.6444 288.601 43.5692 288.095 44.6107L268.421 85.1363C268.098 85.8005 268.582 86.573 269.32 86.573H301.508C302.397 86.573 302.844 87.6467 302.218 88.2776L241.295 149.634C240.477 150.458 239.149 149.461 239.711 148.445L262.9 106.553C263.264 105.895 262.798 105.085 262.046 105.069L233.722 104.487C232.866 104.469 232.427 103.453 233 102.817Z" fill="url(#paint11_radial_5246_151368)"/>
<path d="M233.074 102.884L286.527 43.5714C287.225 42.7974 288.461 43.6296 288.006 44.567L268.331 85.0926C267.976 85.8232 268.508 86.673 269.32 86.673H301.508C302.308 86.673 302.711 87.6393 302.147 88.2072L241.224 149.564C240.488 150.305 239.292 149.408 239.798 148.494L262.987 106.602C263.388 105.877 262.875 104.986 262.048 104.969L233.725 104.387C232.954 104.371 232.558 103.457 233.074 102.884Z" stroke="black" stroke-width="0.2"/>
</g>
<path d="M279.597 52.9624L237.756 99.8923" stroke="url(#paint12_linear_5246_151368)"/>
<g style="mix-blend-mode:plus-lighter" filter="url(#filter5_f_5246_151368)">
<path d="M286.947 37.1309L211.181 121.944" stroke="url(#paint13_radial_5246_151368)" stroke-opacity="0.6" stroke-width="4"/>
</g>
<g style="mix-blend-mode:plus-lighter" filter="url(#filter6_f_5246_151368)">
<path d="M274.508 56.355L232.667 103.285" stroke="url(#paint14_radial_5246_151368)" stroke-width="3"/>
</g>
<g style="mix-blend-mode:plus-lighter">
<path d="M295.393 94.1925L258.807 131.119" stroke="url(#paint15_radial_5246_151368)"/>
</g>
<g style="mix-blend-mode:plus-lighter">
<path d="M295.393 94.1925L258.807 131.119" stroke="url(#paint16_radial_5246_151368)"/>
</g>
<g style="mix-blend-mode:plus-lighter" filter="url(#filter7_f_5246_151368)">
<path d="M295.393 95.1925L258.807 132.119" stroke="url(#paint17_radial_5246_151368)" stroke-width="11"/>
</g>
<g style="mix-blend-mode:plus-lighter" filter="url(#filter8_f_5246_151368)">
<path d="M322.942 85.7644L251 158.378" stroke="url(#paint18_radial_5246_151368)" stroke-opacity="0.5" stroke-width="4"/>
</g>
<g style="mix-blend-mode:plus-lighter" filter="url(#filter9_f_5246_151368)">
<path d="M305.942 78.7644L233.999 151.378" stroke="url(#paint19_radial_5246_151368)" stroke-opacity="0.5" stroke-width="16"/>
</g>
<path d="M259.807 78.9722L239.452 102.72" stroke="url(#paint20_linear_5246_151368)" stroke-opacity="0.1"/>
<defs>
<filter id="filter0_dddddd_5246_151368" x="134.091" y="41.4717" width="261.215" height="291.922" filterUnits="userSpaceOnUse" color-interpolation-filters="sRGB">
<feFlood flood-opacity="0" result="BackgroundImageFix"/>
<feColorMatrix in="SourceAlpha" type="matrix" values="0 0 0 0 0 0 0 0 0 0 0 0 0 0 0 0 0 0 127 0" result="hardAlpha"/>
<feOffset dy="2"/>
<feGaussianBlur stdDeviation="1"/>
<feComposite in2="hardAlpha" operator="out"/>
<feColorMatrix type="matrix" values="0 0 0 0 0 0 0 0 0 0 0 0 0 0 0 0 0 0 0.12 0"/>
<feBlend mode="normal" in2="BackgroundImageFix" result="effect1_dropShadow_5246_151368"/>
<feColorMatrix in="SourceAlpha" type="matrix" values="0 0 0 0 0 0 0 0 0 0 0 0 0 0 0 0 0 0 127 0" result="hardAlpha"/>
<feOffset dy="6"/>
<feGaussianBlur stdDeviation="3"/>
<feComposite in2="hardAlpha" operator="out"/>
<feColorMatrix type="matrix" values="0 0 0 0 0 0 0 0 0 0 0 0 0 0 0 0 0 0 0.08 0"/>
<feBlend mode="normal" in2="effect1_dropShadow_5246_151368" result="effect2_dropShadow_5246_151368"/>
<feColorMatrix in="SourceAlpha" type="matrix" values="0 0 0 0 0 0 0 0 0 0 0 0 0 0 0 0 0 0 127 0" result="hardAlpha"/>
<feOffset dy="12"/>
<feGaussianBlur stdDeviation="6"/>
<feComposite in2="hardAlpha" operator="out"/>
<feColorMatrix type="matrix" values="0 0 0 0 0 0 0 0 0 0 0 0 0 0 0 0 0 0 0.06 0"/>
<feBlend mode="normal" in2="effect2_dropShadow_5246_151368" result="effect3_dropShadow_5246_151368"/>
<feColorMatrix in="SourceAlpha" type="matrix" values="0 0 0 0 0 0 0 0 0 0 0 0 0 0 0 0 0 0 127 0" result="hardAlpha"/>
<feOffset dy="40"/>
<feGaussianBlur stdDeviation="16"/>
<feComposite in2="hardAlpha" operator="out"/>
<feColorMatrix type="matrix" values="0 0 0 0 0 0 0 0 0 0 0 0 0 0 0 0 0 0 0.04 0"/>
<feBlend mode="normal" in2="effect3_dropShadow_5246_151368" result="effect4_dropShadow_5246_151368"/>
<feColorMatrix in="SourceAlpha" type="matrix" values="0 0 0 0 0 0 0 0 0 0 0 0 0 0 0 0 0 0 127 0" result="hardAlpha"/>
<feOffset dy="24"/>
<feGaussianBlur stdDeviation="8"/>
<feComposite in2="hardAlpha" operator="out"/>
<feColorMatrix type="matrix" values="0 0 0 0 0 0 0 0 0 0 0 0 0 0 0 0 0 0 0.05 0"/>
<feBlend mode="normal" in2="effect4_dropShadow_5246_151368" result="effect5_dropShadow_5246_151368"/>
<feColorMatrix in="SourceAlpha" type="matrix" values="0 0 0 0 0 0 0 0 0 0 0 0 0 0 0 0 0 0 127 0" result="hardAlpha"/>
<feOffset dy="100"/>
<feGaussianBlur stdDeviation="40"/>
<feComposite in2="hardAlpha" operator="out"/>
<feColorMatrix type="matrix" values="0 0 0 0 0 0 0 0 0 0 0 0 0 0 0 0 0 0 0.03 0"/>
<feBlend mode="normal" in2="effect5_dropShadow_5246_151368" result="effect6_dropShadow_5246_151368"/>
<feBlend mode="normal" in="SourceGraphic" in2="effect6_dropShadow_5246_151368" result="shape"/>
</filter>
<filter id="filter1_f_5246_151368" x="210.691" y="36.8729" width="108.015" height="119.65" filterUnits="userSpaceOnUse" color-interpolation-filters="sRGB">
<feFlood flood-opacity="0" result="BackgroundImageFix"/>
<feBlend mode="normal" in="SourceGraphic" in2="BackgroundImageFix" result="shape"/>
<feGaussianBlur stdDeviation="0.45" result="effect1_foregroundBlur_5246_151368"/>
</filter>
<filter id="filter2_f_5246_151368" x="151.382" y="-26.9085" width="214.136" height="247.213" filterUnits="userSpaceOnUse" color-interpolation-filters="sRGB">
<feFlood flood-opacity="0" result="BackgroundImageFix"/>
<feBlend mode="normal" in="SourceGraphic" in2="BackgroundImageFix" result="shape"/>
<feGaussianBlur stdDeviation="31.85" result="effect1_foregroundBlur_5246_151368"/>
</filter>
<filter id="filter3_f_5246_151368" x="208.051" y="26.8204" width="216.935" height="250.012" filterUnits="userSpaceOnUse" color-interpolation-filters="sRGB">
<feFlood flood-opacity="0" result="BackgroundImageFix"/>
<feBlend mode="normal" in="SourceGraphic" in2="BackgroundImageFix" result="shape"/>
<feGaussianBlur stdDeviation="32.55" result="effect1_foregroundBlur_5246_151368"/>
</filter>
<filter id="filter4_dddddd_5246_151368" x="0.741211" y="0.165039" width="533.769" height="570.774" filterUnits="userSpaceOnUse" color-interpolation-filters="sRGB">
<feFlood flood-opacity="0" result="BackgroundImageFix"/>
<feColorMatrix in="SourceAlpha" type="matrix" values="0 0 0 0 0 0 0 0 0 0 0 0 0 0 0 0 0 0 127 0" result="hardAlpha"/>
<feOffset dy="5.23011"/>
<feGaussianBlur stdDeviation="3.21002"/>
<feColorMatrix type="matrix" values="0 0 0 0 0 0 0 0 0 0 0 0 0 0 0 0 0 0 0.48 0"/>
<feBlend mode="normal" in2="BackgroundImageFix" result="effect1_dropShadow_5246_151368"/>
<feColorMatrix in="SourceAlpha" type="matrix" values="0 0 0 0 0 0 0 0 0 0 0 0 0 0 0 0 0 0 127 0" result="hardAlpha"/>
<feOffset dy="12.5687"/>
<feGaussianBlur stdDeviation="7.71412"/>
<feColorMatrix type="matrix" values="0 0 0 0 0 0 0 0 0 0 0 0 0 0 0 0 0 0 0.34505 0"/>
<feBlend mode="normal" in2="effect1_dropShadow_5246_151368" result="effect2_dropShadow_5246_151368"/>
<feColorMatrix in="SourceAlpha" type="matrix" values="0 0 0 0 0 0 0 0 0 0 0 0 0 0 0 0 0 0 127 0" result="hardAlpha"/>
<feOffset dy="23.6657"/>
<feGaussianBlur stdDeviation="14.525"/>
<feColorMatrix type="matrix" values="0 0 0 0 0 0 0 0 0 0 0 0 0 0 0 0 0 0 0.286131 0"/>
<feBlend mode="normal" in2="effect2_dropShadow_5246_151368" result="effect3_dropShadow_5246_151368"/>
<feColorMatrix in="SourceAlpha" type="matrix" values="0 0 0 0 0 0 0 0 0 0 0 0 0 0 0 0 0 0 127 0" result="hardAlpha"/>
<feOffset dy="42.2156"/>
<feGaussianBlur stdDeviation="25.9101"/>
<feColorMatrix type="matrix" values="0 0 0 0 0 0 0 0 0 0 0 0 0 0 0 0 0 0 0.24 0"/>
<feBlend mode="normal" in2="effect3_dropShadow_5246_151368" result="effect4_dropShadow_5246_151368"/>
<feColorMatrix in="SourceAlpha" type="matrix" values="0 0 0 0 0 0 0 0 0 0 0 0 0 0 0 0 0 0 127 0" result="hardAlpha"/>
<feOffset dy="78.9597"/>
<feGaussianBlur stdDeviation="48.462"/>
<feColorMatrix type="matrix" values="0 0 0 0 0 0 0 0 0 0 0 0 0 0 0 0 0 0 0.193869 0"/>
<feBlend mode="normal" in2="effect4_dropShadow_5246_151368" result="effect5_dropShadow_5246_151368"/>
<feColorMatrix in="SourceAlpha" type="matrix" values="0 0 0 0 0 0 0 0 0 0 0 0 0 0 0 0 0 0 127 0" result="hardAlpha"/>
<feOffset dy="189"/>
<feGaussianBlur stdDeviation="116"/>
<feColorMatrix type="matrix" values="0 0 0 0 0 0 0 0 0 0 0 0 0 0 0 0 0 0 0.13495 0"/>
<feBlend mode="normal" in2="effect5_dropShadow_5246_151368" result="effect6_dropShadow_5246_151368"/>
<feBlend mode="normal" in="SourceGraphic" in2="effect6_dropShadow_5246_151368" result="shape"/>
</filter>
<filter id="filter5_f_5246_151368" x="195.689" y="21.7983" width="106.749" height="115.478" filterUnits="userSpaceOnUse" color-interpolation-filters="sRGB">
<feFlood flood-opacity="0" result="BackgroundImageFix"/>
<feBlend mode="normal" in="SourceGraphic" in2="BackgroundImageFix" result="shape"/>
<feGaussianBlur stdDeviation="7" result="effect1_foregroundBlur_5246_151368"/>
</filter>
<filter id="filter6_f_5246_151368" x="225.047" y="48.8569" width="57.0803" height="61.9263" filterUnits="userSpaceOnUse" color-interpolation-filters="sRGB">
<feFlood flood-opacity="0" result="BackgroundImageFix"/>
<feBlend mode="normal" in="SourceGraphic" in2="BackgroundImageFix" result="shape"/>
<feGaussianBlur stdDeviation="3.25" result="effect1_foregroundBlur_5246_151368"/>
</filter>
<filter id="filter7_f_5246_151368" x="243.9" y="80.3213" width="66.3999" height="66.6689" filterUnits="userSpaceOnUse" color-interpolation-filters="sRGB">
<feFlood flood-opacity="0" result="BackgroundImageFix"/>
<feBlend mode="normal" in="SourceGraphic" in2="BackgroundImageFix" result="shape"/>
<feGaussianBlur stdDeviation="5.5" result="effect1_foregroundBlur_5246_151368"/>
</filter>
<filter id="filter8_f_5246_151368" x="245.379" y="80.1569" width="83.1845" height="83.8287" filterUnits="userSpaceOnUse" color-interpolation-filters="sRGB">
<feFlood flood-opacity="0" result="BackgroundImageFix"/>
<feBlend mode="normal" in="SourceGraphic" in2="BackgroundImageFix" result="shape"/>
<feGaussianBlur stdDeviation="2.1" result="effect1_foregroundBlur_5246_151368"/>
</filter>
<filter id="filter9_f_5246_151368" x="222.216" y="67.0338" width="95.5091" height="96.075" filterUnits="userSpaceOnUse" color-interpolation-filters="sRGB">
<feFlood flood-opacity="0" result="BackgroundImageFix"/>
<feBlend mode="normal" in="SourceGraphic" in2="BackgroundImageFix" result="shape"/>
<feGaussianBlur stdDeviation="3.05" result="effect1_foregroundBlur_5246_151368"/>
</filter>
<radialGradient id="paint0_radial_5246_151368" cx="0" cy="0" r="1" gradientUnits="userSpaceOnUse" gradientTransform="translate(220.595 38.9966) rotate(52.2836) scale(126.3)">
<stop stop-color="#D8E1E6"/>
<stop offset="1" stop-color="#7D8091"/>
</radialGradient>
<radialGradient id="paint1_radial_5246_151368" cx="0" cy="0" r="1" gradientUnits="userSpaceOnUse" gradientTransform="translate(242.002 132.388) rotate(-71.1468) scale(26.8075 34.6536)">
<stop stop-color="white"/>
<stop offset="1" stop-color="white" stop-opacity="0"/>
</radialGradient>
<radialGradient id="paint2_radial_5246_151368" cx="0" cy="0" r="1" gradientUnits="userSpaceOnUse" gradientTransform="translate(299.856 137.648) rotate(-140.194) scale(36.2452 46.8535)">
<stop stop-color="white"/>
<stop offset="1" stop-color="white" stop-opacity="0"/>
</radialGradient>
<linearGradient id="paint3_linear_5246_151368" x1="264.698" y1="38.2617" x2="264.698" y2="155.134" gradientUnits="userSpaceOnUse">
<stop stop-color="white"/>
<stop offset="1" stop-color="#25262B"/>
</linearGradient>
<linearGradient id="paint4_linear_5246_151368" x1="264.698" y1="38.2617" x2="264.698" y2="155.134" gradientUnits="userSpaceOnUse">
<stop stop-color="white"/>
<stop offset="1" stop-color="#25262B"/>
</linearGradient>
<radialGradient id="paint5_radial_5246_151368" cx="0" cy="0" r="1" gradientUnits="userSpaceOnUse" gradientTransform="translate(263.595 127.937) rotate(89.2361) scale(55.1334)">
<stop stop-color="white"/>
<stop offset="1" stop-color="white" stop-opacity="0"/>
</radialGradient>
<radialGradient id="paint6_radial_5246_151368" cx="0" cy="0" r="1" gradientUnits="userSpaceOnUse" gradientTransform="translate(315.388 154.738) rotate(-132.245) scale(74.8515 54.2132)">
<stop stop-color="#FF4000"/>
<stop offset="0.988272" stop-color="#FF4000" stop-opacity="0"/>
</radialGradient>
<radialGradient id="paint7_radial_5246_151368" cx="0" cy="0" r="1" gradientUnits="userSpaceOnUse" gradientTransform="translate(316.98 156.59) rotate(-121.864) scale(44.7882 32.439)">
<stop stop-color="#FF4000"/>
<stop offset="0.988272" stop-color="#FF4000" stop-opacity="0"/>
</radialGradient>
<radialGradient id="paint8_radial_5246_151368" cx="0" cy="0" r="1" gradientUnits="userSpaceOnUse" gradientTransform="translate(316.98 156.59) rotate(-121.864) scale(44.7882 32.439)">
<stop stop-color="#FF4000"/>
<stop offset="0.988272" stop-color="#FF4000" stop-opacity="0"/>
</radialGradient>
<linearGradient id="paint9_linear_5246_151368" x1="222.8" y1="49.2873" x2="285.646" y2="142.638" gradientUnits="userSpaceOnUse">
<stop stop-color="#DB4141"/>
<stop offset="1" stop-color="#41B9DB" stop-opacity="0"/>
</linearGradient>
<linearGradient id="paint10_linear_5246_151368" x1="280.869" y1="104.416" x2="343.716" y2="197.767" gradientUnits="userSpaceOnUse">
<stop stop-color="#DBBA41"/>
<stop offset="1" stop-color="#41B9DB" stop-opacity="0"/>
</linearGradient>
<radialGradient id="paint11_radial_5246_151368" cx="0" cy="0" r="1" gradientUnits="userSpaceOnUse" gradientTransform="translate(235.494 13.9486) rotate(63.1302) scale(95.0781 94.1501)">
<stop stop-color="#707279"/>
<stop offset="1" stop-color="#25262B"/>
</radialGradient>
<linearGradient id="paint12_linear_5246_151368" x1="275.073" y1="56.9203" x2="239.452" y2="96.4998" gradientUnits="userSpaceOnUse">
<stop stop-color="white" stop-opacity="0"/>
<stop offset="0.5" stop-color="white"/>
<stop offset="1" stop-color="white" stop-opacity="0"/>
</linearGradient>
<radialGradient id="paint13_radial_5246_151368" cx="0" cy="0" r="1" gradientUnits="userSpaceOnUse" gradientTransform="translate(248.04 80.0483) rotate(-139.167) scale(18.0765 36.0814)">
<stop stop-color="#BFCEFF"/>
<stop offset="1" stop-color="#BFCEFF" stop-opacity="0"/>
</radialGradient>
<radialGradient id="paint14_radial_5246_151368" cx="0" cy="0" r="1" gradientUnits="userSpaceOnUse" gradientTransform="translate(253.022 80.1026) rotate(-135) scale(16.7921)">
<stop stop-color="#BFCEFF"/>
<stop offset="1" stop-color="#BFCEFF" stop-opacity="0"/>
</radialGradient>
<radialGradient id="paint15_radial_5246_151368" cx="0" cy="0" r="1" gradientUnits="userSpaceOnUse" gradientTransform="translate(283.763 124.037) rotate(-115.746) scale(33.4453 23.936)">
<stop stop-color="#FF4000"/>
<stop offset="1" stop-color="#FF4000" stop-opacity="0"/>
</radialGradient>
<radialGradient id="paint16_radial_5246_151368" cx="0" cy="0" r="1" gradientUnits="userSpaceOnUse" gradientTransform="translate(279.295 118.899) rotate(-111.929) scale(26.9369 19.2781)">
<stop stop-color="#FF4000"/>
<stop offset="1" stop-color="#FF4000" stop-opacity="0"/>
</radialGradient>
<radialGradient id="paint17_radial_5246_151368" cx="0" cy="0" r="1" gradientUnits="userSpaceOnUse" gradientTransform="translate(294.963 135.206) rotate(-122.558) scale(47.8073 34.2146)">
<stop stop-color="#FF4000"/>
<stop offset="1" stop-color="#FF4000" stop-opacity="0"/>
</radialGradient>
<radialGradient id="paint18_radial_5246_151368" cx="0" cy="0" r="1" gradientUnits="userSpaceOnUse" gradientTransform="translate(296 127.5) rotate(-120.08) scale(48.8699 34.975)">
<stop stop-color="#FF4000"/>
<stop offset="1" stop-color="#FF4000" stop-opacity="0"/>
</radialGradient>
<radialGradient id="paint19_radial_5246_151368" cx="0" cy="0" r="1" gradientUnits="userSpaceOnUse" gradientTransform="translate(277 116.5) rotate(-135) scale(22.6274 16.1939)">
<stop stop-color="#FF4000"/>
<stop offset="1" stop-color="#FF4000" stop-opacity="0"/>
</radialGradient>
<linearGradient id="paint20_linear_5246_151368" x1="259.75" y1="78.9722" x2="238.612" y2="101.893" gradientUnits="userSpaceOnUse">
<stop stop-color="white" stop-opacity="0"/>
<stop offset="0.5" stop-color="white"/>
<stop offset="1" stop-color="white" stop-opacity="0"/>
</linearGradient>
</defs>
</svg>
