<svg width="270" height="300" viewBox="0 0 270 300" fill="none" xmlns="http://www.w3.org/2000/svg">
<circle cx="133.61" cy="78.0468" r="52.9535" fill="url(#paint0_linear_5246_151367)"/>
<g filter="url(#filter0_dddddd_5246_151367)">
<circle cx="133.611" cy="78.0463" r="52.9535" fill="url(#paint1_linear_5246_151367)"/>
</g>
<circle cx="133.61" cy="78.0468" r="49.9535" stroke="#D8E1E6" stroke-width="6"/>
<g style="mix-blend-mode:multiply" opacity="0.7">
<mask id="mask0_5246_151367" style="mask-type:alpha" maskUnits="userSpaceOnUse" x="80" y="25" width="107" height="106">
<path fill-rule="evenodd" clip-rule="evenodd" d="M133.611 125C159.542 125 180.564 103.978 180.564 78.0463C180.564 52.1146 159.542 31.0928 133.611 31.0928C107.679 31.0928 86.6572 52.1146 86.6572 78.0463C86.6572 103.978 107.679 125 133.611 125ZM133.611 131C162.856 131 186.564 107.292 186.564 78.0463C186.564 48.8009 162.856 25.0928 133.611 25.0928C104.365 25.0928 80.6572 48.8009 80.6572 78.0463C80.6572 107.292 104.365 131 133.611 131Z" fill="#D8E1E6"/>
</mask>
<g mask="url(#mask0_5246_151367)">
<g style="mix-blend-mode:multiply">
<path d="M79.5 94.5L101.5 108L112.5 120C104.488 115.652 98.7373 115.949 86 122L79.5 94.5Z" fill="url(#paint2_linear_5246_151367)"/>
</g>
<g style="mix-blend-mode:multiply">
<path d="M184.5 94.5L162.5 108L151.5 120C159.512 115.652 165.263 115.949 178 122L184.5 94.5Z" fill="url(#paint3_linear_5246_151367)"/>
</g>
</g>
</g>
<mask id="mask1_5246_151367" style="mask-type:alpha" maskUnits="userSpaceOnUse" x="61" y="-7" width="144" height="138">
<path d="M204.616 80.4535C204.616 109.699 162.856 131 133.61 131C104.365 131 61 107.693 61 78.4477C61 49.2023 104.766 -7 134.012 -7C162.093 -6.19767 204.616 51.2081 204.616 80.4535Z" fill="#D9D9D9"/>
</mask>
<g mask="url(#mask1_5246_151367)">
<path d="M133.61 137.017L165.5 26L146.448 37.9302L133.61 137.017Z" fill="url(#paint4_linear_5246_151367)"/>
<path d="M133.61 137.017L102 26L120.773 37.9302L133.61 137.017Z" fill="url(#paint5_linear_5246_151367)"/>
<path d="M133.61 137.018L153.5 57.5001L133.61 45.9536V137.018Z" fill="#36373E"/>
<g style="mix-blend-mode:plus-lighter">
<path d="M133.61 137.017L153.5 57.5H152.5L133.61 137.017Z" fill="url(#paint6_radial_5246_151367)" fill-opacity="0.2"/>
</g>
<g style="mix-blend-mode:plus-lighter">
<path d="M133.61 137.017L153.5 57.5H152.5L133.61 137.017Z" fill="url(#paint7_radial_5246_151367)" fill-opacity="0.6"/>
</g>
<path d="M134.012 137.018L113.5 57.5001L134.012 45.9536V137.018Z" fill="#25262B"/>
<path d="M132.676 5.89176C133.002 5.03181 134.219 5.03181 134.545 5.89176L141.472 24.1294C141.619 24.5176 141.991 24.7743 142.406 24.7743H164.445C165.451 24.7743 165.827 26.0925 164.973 26.6236L147.426 37.5311C147.019 37.7836 146.849 38.2883 147.019 38.7354L153.782 56.5431C154.121 57.4377 153.131 58.2526 152.319 57.7475L134.138 46.4466C133.815 46.2457 133.406 46.2457 133.083 46.4466L114.902 57.7475C114.09 58.2526 113.1 57.4377 113.439 56.5431L120.202 38.7354C120.372 38.2883 120.202 37.7836 119.795 37.5311L102.248 26.6236C101.394 26.0925 101.77 24.7743 102.776 24.7743H124.815C125.23 24.7743 125.602 24.5176 125.749 24.1294L132.676 5.89176Z" fill="url(#paint8_radial_5246_151367)"/>
<mask id="mask2_5246_151367" style="mask-type:alpha" maskUnits="userSpaceOnUse" x="101" y="5" width="65" height="53">
<path d="M132.676 5.89176C133.002 5.03181 134.219 5.03181 134.545 5.89176L141.472 24.1294C141.619 24.5176 141.991 24.7743 142.406 24.7743H164.445C165.451 24.7743 165.827 26.0925 164.973 26.6236L147.426 37.5311C147.019 37.7836 146.849 38.2883 147.019 38.7354L153.782 56.5431C154.121 57.4377 153.131 58.2526 152.319 57.7475L134.138 46.4466C133.815 46.2457 133.406 46.2457 133.083 46.4466L114.902 57.7475C114.09 58.2526 113.1 57.4377 113.439 56.5431L120.202 38.7354C120.372 38.2883 120.202 37.7836 119.795 37.5311L102.248 26.6236C101.394 26.0925 101.77 24.7743 102.776 24.7743H124.815C125.23 24.7743 125.602 24.5176 125.749 24.1294L132.676 5.89176Z" fill="#FF0000"/>
</mask>
<g mask="url(#mask2_5246_151367)">
<path d="M144 53L91.9108 30.6065C91.2467 30.321 91.0956 29.4469 91.6253 28.955L96.935 24.0247C97.2679 23.7155 97.7674 23.6697 98.1511 23.9131L144 53Z" fill="url(#paint9_linear_5246_151367)"/>
<g style="mix-blend-mode:plus-lighter" filter="url(#filter1_dddddd_5246_151367)">
<path d="M158 61.5L93.0767 20.9839C92.4008 20.5622 92.4655 19.558 93.1898 19.2263L132.027 1.44542C132.553 1.20445 133.174 1.45935 133.379 2.00077L147 38L158 61.5Z" fill="url(#paint10_linear_5246_151367)"/>
</g>
</g>
<g style="mix-blend-mode:plus-lighter">
<path d="M132.909 5.98052C133.154 5.33556 134.067 5.33556 134.312 5.98052L141.238 24.2181C141.422 24.7034 141.887 25.0243 142.406 25.0243H164.445C165.2 25.0243 165.482 26.013 164.841 26.4113L147.294 37.3188C146.786 37.6344 146.573 38.2653 146.785 38.8242L153.548 56.6319C153.803 57.3028 153.06 57.914 152.451 57.5352L134.27 46.2343C133.866 45.9831 133.355 45.9831 132.951 46.2343L114.77 57.5352C114.161 57.914 113.418 57.3028 113.673 56.6319L120.436 38.8242C120.648 38.2653 120.435 37.6344 119.927 37.3188L102.38 26.4113C101.739 26.013 102.021 25.0243 102.776 25.0243H124.815C125.334 25.0243 125.799 24.7034 125.983 24.2181L132.909 5.98052Z" stroke="url(#paint11_linear_5246_151367)" stroke-width="0.5"/>
</g>
<g style="mix-blend-mode:plus-lighter" filter="url(#filter2_f_5246_151367)">
<path d="M133.611 6.2468L140.537 24.4844C140.832 25.2609 141.576 25.7743 142.406 25.7743H164.445L146.898 36.6818C146.085 37.1868 145.744 38.1962 146.084 39.0904L152.847 56.8982L134.666 45.5973C134.02 45.1954 133.201 45.1954 132.555 45.5973L114.374 56.8982L121.137 39.0904C121.477 38.1962 121.136 37.1867 120.323 36.6818L102.776 25.7743H124.815C125.645 25.7743 126.389 25.2609 126.684 24.4844L133.611 6.2468Z" stroke="url(#paint12_linear_5246_151367)" stroke-opacity="0.8" stroke-width="2"/>
</g>
<g style="mix-blend-mode:plus-lighter">
<path d="M132.909 5.98052C133.154 5.33556 134.067 5.33556 134.312 5.98052L141.238 24.2181C141.422 24.7034 141.887 25.0243 142.406 25.0243H164.445C165.2 25.0243 165.482 26.013 164.841 26.4113L147.294 37.3188C146.786 37.6344 146.573 38.2653 146.785 38.8242L153.548 56.6319C153.803 57.3028 153.06 57.914 152.451 57.5352L134.27 46.2343C133.866 45.9831 133.355 45.9831 132.951 46.2343L114.77 57.5352C114.161 57.914 113.418 57.3028 113.673 56.6319L120.436 38.8242C120.648 38.2653 120.435 37.6344 119.927 37.3188L102.38 26.4113C101.739 26.013 102.021 25.0243 102.776 25.0243H124.815C125.334 25.0243 125.799 24.7034 125.983 24.2181L132.909 5.98052Z" stroke="url(#paint13_radial_5246_151367)" stroke-width="0.5"/>
</g>
<g style="mix-blend-mode:plus-lighter" filter="url(#filter3_f_5246_151367)">
<path d="M133.611 6.2468L140.537 24.4844C140.832 25.2609 141.576 25.7743 142.406 25.7743H164.445L146.898 36.6818C146.085 37.1868 145.744 38.1962 146.084 39.0904L152.847 56.8982L134.666 45.5973C134.02 45.1954 133.201 45.1954 132.555 45.5973L114.374 56.8982L121.137 39.0904C121.477 38.1962 121.136 37.1867 120.323 36.6818L102.776 25.7743H124.815C125.645 25.7743 126.389 25.2609 126.684 24.4844L133.611 6.2468Z" stroke="url(#paint14_radial_5246_151367)" stroke-opacity="0.6" stroke-width="2"/>
</g>
<path d="M132.808 135.951L200.5 84.5001L173.326 77.3809L132.808 135.951Z" fill="#25262B"/>
<path d="M132.808 135.95L185 96.9998L177.739 85.4038L132.808 135.95Z" fill="#36373E"/>
<path d="M132.808 135.951L167 65L173.326 77.3808L132.808 135.951Z" fill="#36373E"/>
<path d="M132.808 135.951L163.5 84.5L177.739 85.404L132.808 135.951Z" fill="#25262B"/>
<g style="mix-blend-mode:plus-lighter" filter="url(#filter4_f_5246_151367)">
<path d="M132.808 135.951L165 86L175 86.5L132.808 135.951Z" fill="url(#paint15_linear_5246_151367)"/>
</g>
<g style="mix-blend-mode:plus-lighter" filter="url(#filter5_f_5246_151367)">
<path d="M132.808 135.951L165 86L175 86.5L132.808 135.951Z" fill="url(#paint16_linear_5246_151367)"/>
</g>
<g style="mix-blend-mode:plus-lighter" filter="url(#filter6_f_5246_151367)">
<path d="M133.5 136.5L117.5 59.5L131.5 51.5L133.5 136.5Z" fill="url(#paint17_radial_5246_151367)"/>
</g>
<g style="mix-blend-mode:plus-lighter" opacity="0.5" filter="url(#filter7_f_5246_151367)">
<path d="M133.5 136.5L122 67L123 66L133.5 136.5Z" fill="url(#paint18_radial_5246_151367)"/>
</g>
<g style="mix-blend-mode:plus-lighter">
<path d="M132.808 135.951L166.5 88L170.5 88.5L132.808 135.951Z" fill="url(#paint19_radial_5246_151367)"/>
</g>
<g style="mix-blend-mode:plus-lighter" filter="url(#filter8_f_5246_151367)">
<path d="M132.808 135.951L166.5 88L170.5 88.5L132.808 135.951Z" fill="url(#paint20_radial_5246_151367)"/>
</g>
<g style="mix-blend-mode:plus-lighter" filter="url(#filter9_f_5246_151367)">
<path d="M132.808 135.951L117.5 62.5L187.5 91.5L132.808 135.951Z" fill="url(#paint21_radial_5246_151367)" fill-opacity="0.4"/>
</g>
<g style="mix-blend-mode:plus-lighter" filter="url(#filter10_f_5246_151367)">
<path d="M132.808 135.951L136.5 31L187.5 91.5L132.808 135.951Z" fill="url(#paint22_radial_5246_151367)" fill-opacity="0.2"/>
</g>
<g style="mix-blend-mode:plus-lighter" filter="url(#filter11_f_5246_151367)">
<path d="M132.808 135.951L127 26.5L77.4998 79L132.808 135.951Z" fill="url(#paint23_radial_5246_151367)" fill-opacity="0.2"/>
</g>
<g style="mix-blend-mode:plus-lighter" filter="url(#filter12_f_5246_151367)">
<path d="M132.808 135.951L180.5 98L175 90L132.808 135.951Z" fill="url(#paint24_radial_5246_151367)"/>
</g>
<path d="M188.809 63.8476C189.522 63.2701 190.571 63.8758 190.427 64.7813L188.692 75.6977C188.627 76.1068 188.821 76.5136 189.179 76.7207L199.919 82.9211C200.792 83.4251 200.455 84.758 199.447 84.7867L188.021 85.1123C187.54 85.126 187.137 85.48 187.061 85.9549L185.403 96.3906C185.253 97.3351 183.99 97.5503 183.535 96.7088L177.729 85.956C177.55 85.6236 177.198 85.4207 176.821 85.4315L164.605 85.7796C163.649 85.8068 163.204 84.6054 163.947 84.0032L172.155 77.3489C172.529 77.046 172.634 76.5201 172.405 76.097L166.974 66.0384C166.495 65.1513 167.481 64.1931 168.354 64.6972L179.093 70.8976C179.452 71.1047 179.901 71.0692 180.223 70.8084L188.809 63.8476Z" fill="url(#paint25_radial_5246_151367)"/>
<path d="M134.425 135.951L67.5 84.5001L93.9071 77.3809L134.425 135.951Z" fill="#36373E"/>
<path d="M134.425 135.951L82.5 97.0003L89.4943 85.4043L134.425 135.951Z" fill="#25262B"/>
<path d="M134.425 135.951L100 65L93.9071 77.3808L134.425 135.951Z" fill="#25262B"/>
<g style="mix-blend-mode:plus-lighter" filter="url(#filter13_f_5246_151367)">
<path d="M133 133L88.9999 78.5L100.5 65.5L133 133Z" fill="url(#paint26_radial_5246_151367)"/>
</g>
<g style="mix-blend-mode:plus-lighter" filter="url(#filter14_f_5246_151367)">
<path d="M133 133L95.4999 76L99.9999 68L133 133Z" fill="url(#paint27_radial_5246_151367)"/>
</g>
<g style="mix-blend-mode:plus-lighter" filter="url(#filter15_f_5246_151367)">
<path d="M133 133L95.4999 76L99.9999 68L133 133Z" fill="url(#paint28_radial_5246_151367)"/>
</g>
<g style="mix-blend-mode:plus-lighter" filter="url(#filter16_f_5246_151367)">
<path d="M134.5 136.5L84.4999 98L88.4999 92L134.5 136.5Z" fill="url(#paint29_radial_5246_151367)"/>
</g>
<g style="mix-blend-mode:plus-lighter" filter="url(#filter17_f_5246_151367)">
<path d="M134.5 136.5L84.9999 97L85.9999 96L134.5 136.5Z" fill="url(#paint30_radial_5246_151367)"/>
</g>
<path d="M134.425 135.951L103.5 84.5L89.4943 85.404L134.425 135.951Z" fill="#36373E"/>
<g style="mix-blend-mode:screen">
<path d="M103 84.5L129 127" stroke="url(#paint31_linear_5246_151367)" stroke-width="0.5"/>
</g>
<g style="mix-blend-mode:plus-lighter">
<path d="M103 84.5L129 127" stroke="url(#paint32_linear_5246_151367)" stroke-width="0.5"/>
</g>
<g style="mix-blend-mode:plus-lighter">
<path d="M103 84.5L129 127" stroke="url(#paint33_linear_5246_151367)" stroke-width="0.5"/>
</g>
<g style="mix-blend-mode:plus-lighter" filter="url(#filter18_f_5246_151367)">
<path d="M103 84.5L129 127" stroke="url(#paint34_linear_5246_151367)" stroke-width="5"/>
</g>
<path d="M78.4232 63.8476C77.711 63.2701 76.6619 63.8758 76.8059 64.7813L78.541 75.6977C78.606 76.1068 78.4121 76.5136 78.0534 76.7207L67.314 82.9211C66.4409 83.4251 66.7778 84.758 67.7855 84.7867L79.2122 85.1123C79.6929 85.126 80.0958 85.48 80.1713 85.9549L81.83 96.3906C81.9801 97.3351 83.2431 97.5503 83.6975 96.7088L89.5037 85.956C89.6831 85.6236 90.0345 85.4207 90.4121 85.4315L102.627 85.7796C103.583 85.8068 104.029 84.6054 103.286 84.0032L95.0774 77.3489C94.7038 77.046 94.5987 76.5201 94.8272 76.097L100.259 66.0384C100.738 65.1513 99.7517 64.1931 98.8787 64.6972L88.1393 70.8976C87.7806 71.1047 87.3313 71.0692 87.0095 70.8084L78.4232 63.8476Z" fill="url(#paint35_radial_5246_151367)"/>
<mask id="mask3_5246_151367" style="mask-type:alpha" maskUnits="userSpaceOnUse" x="66" y="63" width="38" height="34">
<path d="M76.7138 64.7153C76.5667 63.8073 77.6202 63.199 78.333 63.7804L86.8401 70.7197C87.1619 70.9823 87.6125 71.0185 87.9722 70.8109L98.5708 64.6918C99.442 64.1888 100.427 65.1422 99.9527 66.0293L94.6121 76.0167C94.3865 76.4384 94.4912 76.9608 94.8618 77.2631L103.013 83.9118C103.754 84.5166 103.304 85.7173 102.348 85.6861L90.2836 85.2933C89.9032 85.2809 89.5487 85.4856 89.3692 85.8212L83.6772 96.4657C83.226 97.3095 81.9613 97.0987 81.8083 96.1541L80.1258 85.771C80.0493 85.2989 79.6492 84.947 79.1712 84.9315L67.8516 84.5629C66.8462 84.5302 66.513 83.2004 67.3841 82.6974L77.9828 76.5783C78.3424 76.3706 78.5363 75.9623 78.4699 75.5523L76.7138 64.7153Z" fill="#FF0000"/>
</mask>
<g mask="url(#mask3_5246_151367)">
<path d="M97.4532 85.7523L62.7529 89.8513C62.035 89.9361 61.4671 89.2546 61.6799 88.5638L62.7623 85.0499C62.896 84.6157 63.3057 84.3262 63.7597 84.3452L97.4532 85.7523Z" fill="url(#paint36_linear_5246_151367)"/>
<g style="mix-blend-mode:plus-lighter" filter="url(#filter19_dddddd_5246_151367)">
<path d="M107.71 85.9782L60.4958 84.357C59.6996 84.3296 59.2535 83.4277 59.715 82.7783L74.5803 61.861C74.9156 61.3891 75.5803 61.2997 76.0285 61.6661L94.3829 76.6754L107.71 85.9782Z" fill="url(#paint37_linear_5246_151367)"/>
</g>
</g>
<mask id="mask4_5246_151367" style="mask-type:alpha" maskUnits="userSpaceOnUse" x="163" y="63" width="38" height="34">
<path d="M190.513 64.7153C190.66 63.8073 189.607 63.199 188.894 63.7804L180.387 70.7197C180.065 70.9823 179.614 71.0185 179.255 70.8109L168.656 64.6918C167.785 64.1888 166.8 65.1422 167.274 66.0293L172.615 76.0167C172.84 76.4384 172.736 76.9608 172.365 77.2631L164.214 83.9118C163.473 84.5166 163.923 85.7173 164.879 85.6861L176.943 85.2933C177.324 85.2809 177.678 85.4856 177.858 85.8212L183.55 96.4657C184.001 97.3095 185.266 97.0987 185.419 96.1541L187.101 85.771C187.178 85.2989 187.578 84.947 188.056 84.9315L199.375 84.5629C200.381 84.5302 200.714 83.2004 199.843 82.6974L189.244 76.5783C188.884 76.3706 188.691 75.9623 188.757 75.5523L190.513 64.7153Z" fill="#FF0000"/>
</mask>
<g mask="url(#mask4_5246_151367)">
<path d="M169.774 85.7523L204.474 89.8513C205.192 89.9361 205.76 89.2546 205.547 88.5638L204.465 85.0499C204.331 84.6157 203.921 84.3262 203.467 84.3452L169.774 85.7523Z" fill="url(#paint38_linear_5246_151367)"/>
<g style="mix-blend-mode:plus-lighter" filter="url(#filter20_dddddd_5246_151367)">
<path d="M159.517 85.9782L206.731 84.357C207.527 84.3296 207.973 83.4277 207.512 82.7783L192.647 61.861C192.311 61.3891 191.647 61.2997 191.198 61.6661L172.844 76.6754L159.517 85.9782Z" fill="url(#paint39_linear_5246_151367)"/>
</g>
</g>
</g>
<path d="M110.041 122.149C109.273 123.585 109.812 125.379 111.289 126.066C118.456 129.398 126.292 131.088 134.22 130.997C142.149 130.905 149.943 129.035 157.033 125.539C158.493 124.818 158.99 123.012 158.19 121.594C157.39 120.176 155.595 119.685 154.13 120.395C147.909 123.409 141.089 125.021 134.153 125.101C127.216 125.181 120.361 123.726 114.072 120.856C112.591 120.18 110.808 120.713 110.041 122.149Z" fill="url(#paint40_linear_5246_151367)"/>
<g style="mix-blend-mode:plus-lighter" filter="url(#filter21_f_5246_151367)">
<path d="M110.466 122.034C110.187 122.556 110.384 123.207 110.912 123.474C118.238 127.194 126.361 129.091 134.587 128.997C142.814 128.902 150.891 126.818 158.13 122.931C158.651 122.651 158.833 121.996 158.542 121.481C158.251 120.965 157.598 120.784 157.076 121.064C150.152 124.775 142.429 126.763 134.563 126.854C126.697 126.944 118.93 125.134 111.922 121.584C111.394 121.317 110.745 121.513 110.466 122.034Z" fill="url(#paint41_linear_5246_151367)"/>
</g>
<g style="mix-blend-mode:plus-lighter" filter="url(#filter22_f_5246_151367)">
<path d="M117.71 123.045C117.189 124.019 117.555 125.237 118.557 125.702C123.356 127.929 128.601 129.059 133.909 128.998C139.217 128.937 144.434 127.686 149.181 125.349C150.172 124.861 150.509 123.636 149.967 122.674L138.871 103.016C138.328 102.055 137.11 101.74 136.051 102.055C135.26 102.292 134.436 102.418 133.603 102.427C132.77 102.437 131.943 102.33 131.146 102.112C130.081 101.821 128.87 102.164 128.349 103.138L117.71 123.045Z" fill="url(#paint42_linear_5246_151367)"/>
</g>
<defs>
<filter id="filter0_dddddd_5246_151367" x="0.657227" y="25.0928" width="265.907" height="285.907" filterUnits="userSpaceOnUse" color-interpolation-filters="sRGB">
<feFlood flood-opacity="0" result="BackgroundImageFix"/>
<feColorMatrix in="SourceAlpha" type="matrix" values="0 0 0 0 0 0 0 0 0 0 0 0 0 0 0 0 0 0 127 0" result="hardAlpha"/>
<feOffset dy="2"/>
<feGaussianBlur stdDeviation="1"/>
<feComposite in2="hardAlpha" operator="out"/>
<feColorMatrix type="matrix" values="0 0 0 0 0 0 0 0 0 0 0 0 0 0 0 0 0 0 0.12 0"/>
<feBlend mode="normal" in2="BackgroundImageFix" result="effect1_dropShadow_5246_151367"/>
<feColorMatrix in="SourceAlpha" type="matrix" values="0 0 0 0 0 0 0 0 0 0 0 0 0 0 0 0 0 0 127 0" result="hardAlpha"/>
<feOffset dy="6"/>
<feGaussianBlur stdDeviation="3"/>
<feComposite in2="hardAlpha" operator="out"/>
<feColorMatrix type="matrix" values="0 0 0 0 0 0 0 0 0 0 0 0 0 0 0 0 0 0 0.08 0"/>
<feBlend mode="normal" in2="effect1_dropShadow_5246_151367" result="effect2_dropShadow_5246_151367"/>
<feColorMatrix in="SourceAlpha" type="matrix" values="0 0 0 0 0 0 0 0 0 0 0 0 0 0 0 0 0 0 127 0" result="hardAlpha"/>
<feOffset dy="12"/>
<feGaussianBlur stdDeviation="6"/>
<feComposite in2="hardAlpha" operator="out"/>
<feColorMatrix type="matrix" values="0 0 0 0 0 0 0 0 0 0 0 0 0 0 0 0 0 0 0.06 0"/>
<feBlend mode="normal" in2="effect2_dropShadow_5246_151367" result="effect3_dropShadow_5246_151367"/>
<feColorMatrix in="SourceAlpha" type="matrix" values="0 0 0 0 0 0 0 0 0 0 0 0 0 0 0 0 0 0 127 0" result="hardAlpha"/>
<feOffset dy="40"/>
<feGaussianBlur stdDeviation="16"/>
<feComposite in2="hardAlpha" operator="out"/>
<feColorMatrix type="matrix" values="0 0 0 0 0 0 0 0 0 0 0 0 0 0 0 0 0 0 0.04 0"/>
<feBlend mode="normal" in2="effect3_dropShadow_5246_151367" result="effect4_dropShadow_5246_151367"/>
<feColorMatrix in="SourceAlpha" type="matrix" values="0 0 0 0 0 0 0 0 0 0 0 0 0 0 0 0 0 0 127 0" result="hardAlpha"/>
<feOffset dy="24"/>
<feGaussianBlur stdDeviation="8"/>
<feComposite in2="hardAlpha" operator="out"/>
<feColorMatrix type="matrix" values="0 0 0 0 0 0 0 0 0 0 0 0 0 0 0 0 0 0 0.05 0"/>
<feBlend mode="normal" in2="effect4_dropShadow_5246_151367" result="effect5_dropShadow_5246_151367"/>
<feColorMatrix in="SourceAlpha" type="matrix" values="0 0 0 0 0 0 0 0 0 0 0 0 0 0 0 0 0 0 127 0" result="hardAlpha"/>
<feOffset dy="100"/>
<feGaussianBlur stdDeviation="40"/>
<feComposite in2="hardAlpha" operator="out"/>
<feColorMatrix type="matrix" values="0 0 0 0 0 0 0 0 0 0 0 0 0 0 0 0 0 0 0.03 0"/>
<feBlend mode="normal" in2="effect5_dropShadow_5246_151367" result="effect6_dropShadow_5246_151367"/>
<feBlend mode="normal" in="SourceGraphic" in2="effect6_dropShadow_5246_151367" result="shape"/>
</filter>
<filter id="filter1_dddddd_5246_151367" x="12.6061" y="1.35449" width="225.394" height="240.146" filterUnits="userSpaceOnUse" color-interpolation-filters="sRGB">
<feFlood flood-opacity="0" result="BackgroundImageFix"/>
<feColorMatrix in="SourceAlpha" type="matrix" values="0 0 0 0 0 0 0 0 0 0 0 0 0 0 0 0 0 0 127 0" result="hardAlpha"/>
<feOffset dy="2.76726"/>
<feGaussianBlur stdDeviation="1.1069"/>
<feColorMatrix type="matrix" values="0 0 0 0 0 0 0 0 0 0 0 0 0 0 0 0 0 0 0.38 0"/>
<feBlend mode="normal" in2="BackgroundImageFix" result="effect1_dropShadow_5246_151367"/>
<feColorMatrix in="SourceAlpha" type="matrix" values="0 0 0 0 0 0 0 0 0 0 0 0 0 0 0 0 0 0 127 0" result="hardAlpha"/>
<feOffset dy="6.6501"/>
<feGaussianBlur stdDeviation="2.66004"/>
<feColorMatrix type="matrix" values="0 0 0 0 0 0 0 0 0 0 0 0 0 0 0 0 0 0 0.273165 0"/>
<feBlend mode="normal" in2="effect1_dropShadow_5246_151367" result="effect2_dropShadow_5246_151367"/>
<feColorMatrix in="SourceAlpha" type="matrix" values="0 0 0 0 0 0 0 0 0 0 0 0 0 0 0 0 0 0 127 0" result="hardAlpha"/>
<feOffset dy="12.5216"/>
<feGaussianBlur stdDeviation="5.00862"/>
<feColorMatrix type="matrix" values="0 0 0 0 0 0 0 0 0 0 0 0 0 0 0 0 0 0 0.226521 0"/>
<feBlend mode="normal" in2="effect2_dropShadow_5246_151367" result="effect3_dropShadow_5246_151367"/>
<feColorMatrix in="SourceAlpha" type="matrix" values="0 0 0 0 0 0 0 0 0 0 0 0 0 0 0 0 0 0 127 0" result="hardAlpha"/>
<feOffset dy="22.3363"/>
<feGaussianBlur stdDeviation="8.93452"/>
<feColorMatrix type="matrix" values="0 0 0 0 0 0 0 0 0 0 0 0 0 0 0 0 0 0 0.19 0"/>
<feBlend mode="normal" in2="effect3_dropShadow_5246_151367" result="effect4_dropShadow_5246_151367"/>
<feColorMatrix in="SourceAlpha" type="matrix" values="0 0 0 0 0 0 0 0 0 0 0 0 0 0 0 0 0 0 127 0" result="hardAlpha"/>
<feOffset dy="41.7776"/>
<feGaussianBlur stdDeviation="16.711"/>
<feColorMatrix type="matrix" values="0 0 0 0 0 0 0 0 0 0 0 0 0 0 0 0 0 0 0.153479 0"/>
<feBlend mode="normal" in2="effect4_dropShadow_5246_151367" result="effect5_dropShadow_5246_151367"/>
<feColorMatrix in="SourceAlpha" type="matrix" values="0 0 0 0 0 0 0 0 0 0 0 0 0 0 0 0 0 0 127 0" result="hardAlpha"/>
<feOffset dy="100"/>
<feGaussianBlur stdDeviation="40"/>
<feColorMatrix type="matrix" values="0 0 0 0 0 0 0 0 0 0 0 0 0 0 0 0 0 0 0.106835 0"/>
<feBlend mode="normal" in2="effect5_dropShadow_5246_151367" result="effect6_dropShadow_5246_151367"/>
<feBlend mode="normal" in="SourceGraphic" in2="effect6_dropShadow_5246_151367" result="shape"/>
</filter>
<filter id="filter2_f_5246_151367" x="96.8742" y="0.346582" width="73.4727" height="62.4558" filterUnits="userSpaceOnUse" color-interpolation-filters="sRGB">
<feFlood flood-opacity="0" result="BackgroundImageFix"/>
<feBlend mode="normal" in="SourceGraphic" in2="BackgroundImageFix" result="shape"/>
<feGaussianBlur stdDeviation="2.45" result="effect1_foregroundBlur_5246_151367"/>
</filter>
<filter id="filter3_f_5246_151367" x="96.7742" y="0.246582" width="73.6727" height="62.6558" filterUnits="userSpaceOnUse" color-interpolation-filters="sRGB">
<feFlood flood-opacity="0" result="BackgroundImageFix"/>
<feBlend mode="normal" in="SourceGraphic" in2="BackgroundImageFix" result="shape"/>
<feGaussianBlur stdDeviation="2.5" result="effect1_foregroundBlur_5246_151367"/>
</filter>
<filter id="filter4_f_5246_151367" x="132.408" y="85.6" width="42.9919" height="50.7507" filterUnits="userSpaceOnUse" color-interpolation-filters="sRGB">
<feFlood flood-opacity="0" result="BackgroundImageFix"/>
<feBlend mode="normal" in="SourceGraphic" in2="BackgroundImageFix" result="shape"/>
<feGaussianBlur stdDeviation="0.2" result="effect1_foregroundBlur_5246_151367"/>
</filter>
<filter id="filter5_f_5246_151367" x="122.908" y="76.1" width="61.9919" height="69.7507" filterUnits="userSpaceOnUse" color-interpolation-filters="sRGB">
<feFlood flood-opacity="0" result="BackgroundImageFix"/>
<feBlend mode="normal" in="SourceGraphic" in2="BackgroundImageFix" result="shape"/>
<feGaussianBlur stdDeviation="4.95" result="effect1_foregroundBlur_5246_151367"/>
</filter>
<filter id="filter6_f_5246_151367" x="116.5" y="50.5" width="18" height="87" filterUnits="userSpaceOnUse" color-interpolation-filters="sRGB">
<feFlood flood-opacity="0" result="BackgroundImageFix"/>
<feBlend mode="normal" in="SourceGraphic" in2="BackgroundImageFix" result="shape"/>
<feGaussianBlur stdDeviation="0.5" result="effect1_foregroundBlur_5246_151367"/>
</filter>
<filter id="filter7_f_5246_151367" x="121" y="65" width="13.5" height="72.5" filterUnits="userSpaceOnUse" color-interpolation-filters="sRGB">
<feFlood flood-opacity="0" result="BackgroundImageFix"/>
<feBlend mode="normal" in="SourceGraphic" in2="BackgroundImageFix" result="shape"/>
<feGaussianBlur stdDeviation="0.5" result="effect1_foregroundBlur_5246_151367"/>
</filter>
<filter id="filter8_f_5246_151367" x="117.308" y="72.5" width="68.6919" height="78.9507" filterUnits="userSpaceOnUse" color-interpolation-filters="sRGB">
<feFlood flood-opacity="0" result="BackgroundImageFix"/>
<feBlend mode="normal" in="SourceGraphic" in2="BackgroundImageFix" result="shape"/>
<feGaussianBlur stdDeviation="7.75" result="effect1_foregroundBlur_5246_151367"/>
</filter>
<filter id="filter9_f_5246_151367" x="102" y="47" width="101" height="104.451" filterUnits="userSpaceOnUse" color-interpolation-filters="sRGB">
<feFlood flood-opacity="0" result="BackgroundImageFix"/>
<feBlend mode="normal" in="SourceGraphic" in2="BackgroundImageFix" result="shape"/>
<feGaussianBlur stdDeviation="7.75" result="effect1_foregroundBlur_5246_151367"/>
</filter>
<filter id="filter10_f_5246_151367" x="117.308" y="15.5" width="85.6917" height="135.951" filterUnits="userSpaceOnUse" color-interpolation-filters="sRGB">
<feFlood flood-opacity="0" result="BackgroundImageFix"/>
<feBlend mode="normal" in="SourceGraphic" in2="BackgroundImageFix" result="shape"/>
<feGaussianBlur stdDeviation="7.75" result="effect1_foregroundBlur_5246_151367"/>
</filter>
<filter id="filter11_f_5246_151367" x="61.9998" y="11" width="86.3083" height="140.451" filterUnits="userSpaceOnUse" color-interpolation-filters="sRGB">
<feFlood flood-opacity="0" result="BackgroundImageFix"/>
<feBlend mode="normal" in="SourceGraphic" in2="BackgroundImageFix" result="shape"/>
<feGaussianBlur stdDeviation="7.75" result="effect1_foregroundBlur_5246_151367"/>
</filter>
<filter id="filter12_f_5246_151367" x="127.608" y="84.8" width="58.0919" height="56.3507" filterUnits="userSpaceOnUse" color-interpolation-filters="sRGB">
<feFlood flood-opacity="0" result="BackgroundImageFix"/>
<feBlend mode="normal" in="SourceGraphic" in2="BackgroundImageFix" result="shape"/>
<feGaussianBlur stdDeviation="2.6" result="effect1_foregroundBlur_5246_151367"/>
</filter>
<filter id="filter13_f_5246_151367" x="87.9999" y="64.5" width="46" height="69.5" filterUnits="userSpaceOnUse" color-interpolation-filters="sRGB">
<feFlood flood-opacity="0" result="BackgroundImageFix"/>
<feBlend mode="normal" in="SourceGraphic" in2="BackgroundImageFix" result="shape"/>
<feGaussianBlur stdDeviation="0.5" result="effect1_foregroundBlur_5246_151367"/>
</filter>
<filter id="filter14_f_5246_151367" x="92.0999" y="64.6" width="44.3" height="71.8" filterUnits="userSpaceOnUse" color-interpolation-filters="sRGB">
<feFlood flood-opacity="0" result="BackgroundImageFix"/>
<feBlend mode="normal" in="SourceGraphic" in2="BackgroundImageFix" result="shape"/>
<feGaussianBlur stdDeviation="1.7" result="effect1_foregroundBlur_5246_151367"/>
</filter>
<filter id="filter15_f_5246_151367" x="92.0999" y="64.6" width="44.3" height="71.8" filterUnits="userSpaceOnUse" color-interpolation-filters="sRGB">
<feFlood flood-opacity="0" result="BackgroundImageFix"/>
<feBlend mode="normal" in="SourceGraphic" in2="BackgroundImageFix" result="shape"/>
<feGaussianBlur stdDeviation="1.7" result="effect1_foregroundBlur_5246_151367"/>
</filter>
<filter id="filter16_f_5246_151367" x="81.0999" y="88.6" width="56.8" height="51.3" filterUnits="userSpaceOnUse" color-interpolation-filters="sRGB">
<feFlood flood-opacity="0" result="BackgroundImageFix"/>
<feBlend mode="normal" in="SourceGraphic" in2="BackgroundImageFix" result="shape"/>
<feGaussianBlur stdDeviation="1.7" result="effect1_foregroundBlur_5246_151367"/>
</filter>
<filter id="filter17_f_5246_151367" x="83.9999" y="95" width="51.5" height="42.5" filterUnits="userSpaceOnUse" color-interpolation-filters="sRGB">
<feFlood flood-opacity="0" result="BackgroundImageFix"/>
<feBlend mode="normal" in="SourceGraphic" in2="BackgroundImageFix" result="shape"/>
<feGaussianBlur stdDeviation="0.5" result="effect1_foregroundBlur_5246_151367"/>
</filter>
<filter id="filter18_f_5246_151367" x="89.9673" y="72.2953" width="52.0651" height="66.9094" filterUnits="userSpaceOnUse" color-interpolation-filters="sRGB">
<feFlood flood-opacity="0" result="BackgroundImageFix"/>
<feBlend mode="normal" in="SourceGraphic" in2="BackgroundImageFix" result="shape"/>
<feGaussianBlur stdDeviation="5.45" result="effect1_foregroundBlur_5246_151367"/>
</filter>
<filter id="filter19_dddddd_5246_151367" x="-20.4714" y="61.4404" width="208.182" height="204.538" filterUnits="userSpaceOnUse" color-interpolation-filters="sRGB">
<feFlood flood-opacity="0" result="BackgroundImageFix"/>
<feColorMatrix in="SourceAlpha" type="matrix" values="0 0 0 0 0 0 0 0 0 0 0 0 0 0 0 0 0 0 127 0" result="hardAlpha"/>
<feOffset dy="2.76726"/>
<feGaussianBlur stdDeviation="1.1069"/>
<feColorMatrix type="matrix" values="0 0 0 0 0 0 0 0 0 0 0 0 0 0 0 0 0 0 0.38 0"/>
<feBlend mode="normal" in2="BackgroundImageFix" result="effect1_dropShadow_5246_151367"/>
<feColorMatrix in="SourceAlpha" type="matrix" values="0 0 0 0 0 0 0 0 0 0 0 0 0 0 0 0 0 0 127 0" result="hardAlpha"/>
<feOffset dy="6.6501"/>
<feGaussianBlur stdDeviation="2.66004"/>
<feColorMatrix type="matrix" values="0 0 0 0 0 0 0 0 0 0 0 0 0 0 0 0 0 0 0.273165 0"/>
<feBlend mode="normal" in2="effect1_dropShadow_5246_151367" result="effect2_dropShadow_5246_151367"/>
<feColorMatrix in="SourceAlpha" type="matrix" values="0 0 0 0 0 0 0 0 0 0 0 0 0 0 0 0 0 0 127 0" result="hardAlpha"/>
<feOffset dy="12.5216"/>
<feGaussianBlur stdDeviation="5.00862"/>
<feColorMatrix type="matrix" values="0 0 0 0 0 0 0 0 0 0 0 0 0 0 0 0 0 0 0.226521 0"/>
<feBlend mode="normal" in2="effect2_dropShadow_5246_151367" result="effect3_dropShadow_5246_151367"/>
<feColorMatrix in="SourceAlpha" type="matrix" values="0 0 0 0 0 0 0 0 0 0 0 0 0 0 0 0 0 0 127 0" result="hardAlpha"/>
<feOffset dy="22.3363"/>
<feGaussianBlur stdDeviation="8.93452"/>
<feColorMatrix type="matrix" values="0 0 0 0 0 0 0 0 0 0 0 0 0 0 0 0 0 0 0.19 0"/>
<feBlend mode="normal" in2="effect3_dropShadow_5246_151367" result="effect4_dropShadow_5246_151367"/>
<feColorMatrix in="SourceAlpha" type="matrix" values="0 0 0 0 0 0 0 0 0 0 0 0 0 0 0 0 0 0 127 0" result="hardAlpha"/>
<feOffset dy="41.7776"/>
<feGaussianBlur stdDeviation="16.711"/>
<feColorMatrix type="matrix" values="0 0 0 0 0 0 0 0 0 0 0 0 0 0 0 0 0 0 0.153479 0"/>
<feBlend mode="normal" in2="effect4_dropShadow_5246_151367" result="effect5_dropShadow_5246_151367"/>
<feColorMatrix in="SourceAlpha" type="matrix" values="0 0 0 0 0 0 0 0 0 0 0 0 0 0 0 0 0 0 127 0" result="hardAlpha"/>
<feOffset dy="100"/>
<feGaussianBlur stdDeviation="40"/>
<feColorMatrix type="matrix" values="0 0 0 0 0 0 0 0 0 0 0 0 0 0 0 0 0 0 0.106835 0"/>
<feBlend mode="normal" in2="effect5_dropShadow_5246_151367" result="effect6_dropShadow_5246_151367"/>
<feBlend mode="normal" in="SourceGraphic" in2="effect6_dropShadow_5246_151367" result="shape"/>
</filter>
<filter id="filter20_dddddd_5246_151367" x="79.5168" y="61.4404" width="208.182" height="204.538" filterUnits="userSpaceOnUse" color-interpolation-filters="sRGB">
<feFlood flood-opacity="0" result="BackgroundImageFix"/>
<feColorMatrix in="SourceAlpha" type="matrix" values="0 0 0 0 0 0 0 0 0 0 0 0 0 0 0 0 0 0 127 0" result="hardAlpha"/>
<feOffset dy="2.76726"/>
<feGaussianBlur stdDeviation="1.1069"/>
<feColorMatrix type="matrix" values="0 0 0 0 0 0 0 0 0 0 0 0 0 0 0 0 0 0 0.38 0"/>
<feBlend mode="normal" in2="BackgroundImageFix" result="effect1_dropShadow_5246_151367"/>
<feColorMatrix in="SourceAlpha" type="matrix" values="0 0 0 0 0 0 0 0 0 0 0 0 0 0 0 0 0 0 127 0" result="hardAlpha"/>
<feOffset dy="6.6501"/>
<feGaussianBlur stdDeviation="2.66004"/>
<feColorMatrix type="matrix" values="0 0 0 0 0 0 0 0 0 0 0 0 0 0 0 0 0 0 0.273165 0"/>
<feBlend mode="normal" in2="effect1_dropShadow_5246_151367" result="effect2_dropShadow_5246_151367"/>
<feColorMatrix in="SourceAlpha" type="matrix" values="0 0 0 0 0 0 0 0 0 0 0 0 0 0 0 0 0 0 127 0" result="hardAlpha"/>
<feOffset dy="12.5216"/>
<feGaussianBlur stdDeviation="5.00862"/>
<feColorMatrix type="matrix" values="0 0 0 0 0 0 0 0 0 0 0 0 0 0 0 0 0 0 0.226521 0"/>
<feBlend mode="normal" in2="effect2_dropShadow_5246_151367" result="effect3_dropShadow_5246_151367"/>
<feColorMatrix in="SourceAlpha" type="matrix" values="0 0 0 0 0 0 0 0 0 0 0 0 0 0 0 0 0 0 127 0" result="hardAlpha"/>
<feOffset dy="22.3363"/>
<feGaussianBlur stdDeviation="8.93452"/>
<feColorMatrix type="matrix" values="0 0 0 0 0 0 0 0 0 0 0 0 0 0 0 0 0 0 0.19 0"/>
<feBlend mode="normal" in2="effect3_dropShadow_5246_151367" result="effect4_dropShadow_5246_151367"/>
<feColorMatrix in="SourceAlpha" type="matrix" values="0 0 0 0 0 0 0 0 0 0 0 0 0 0 0 0 0 0 127 0" result="hardAlpha"/>
<feOffset dy="41.7776"/>
<feGaussianBlur stdDeviation="16.711"/>
<feColorMatrix type="matrix" values="0 0 0 0 0 0 0 0 0 0 0 0 0 0 0 0 0 0 0.153479 0"/>
<feBlend mode="normal" in2="effect4_dropShadow_5246_151367" result="effect5_dropShadow_5246_151367"/>
<feColorMatrix in="SourceAlpha" type="matrix" values="0 0 0 0 0 0 0 0 0 0 0 0 0 0 0 0 0 0 127 0" result="hardAlpha"/>
<feOffset dy="100"/>
<feGaussianBlur stdDeviation="40"/>
<feColorMatrix type="matrix" values="0 0 0 0 0 0 0 0 0 0 0 0 0 0 0 0 0 0 0.106835 0"/>
<feBlend mode="normal" in2="effect5_dropShadow_5246_151367" result="effect6_dropShadow_5246_151367"/>
<feBlend mode="normal" in="SourceGraphic" in2="effect6_dropShadow_5246_151367" result="shape"/>
</filter>
<filter id="filter21_f_5246_151367" x="104.24" y="114.833" width="60.5406" height="20.2669" filterUnits="userSpaceOnUse" color-interpolation-filters="sRGB">
<feFlood flood-opacity="0" result="BackgroundImageFix"/>
<feBlend mode="normal" in="SourceGraphic" in2="BackgroundImageFix" result="shape"/>
<feGaussianBlur stdDeviation="3.05" result="effect1_foregroundBlur_5246_151367"/>
</filter>
<filter id="filter22_f_5246_151367" x="111.374" y="95.837" width="44.951" height="39.263" filterUnits="userSpaceOnUse" color-interpolation-filters="sRGB">
<feFlood flood-opacity="0" result="BackgroundImageFix"/>
<feBlend mode="normal" in="SourceGraphic" in2="BackgroundImageFix" result="shape"/>
<feGaussianBlur stdDeviation="3.05" result="effect1_foregroundBlur_5246_151367"/>
</filter>
<linearGradient id="paint0_linear_5246_151367" x1="133.61" y1="25.0933" x2="133.61" y2="131" gradientUnits="userSpaceOnUse">
<stop stop-color="#25262B"/>
<stop offset="1" stop-color="#7D8091"/>
</linearGradient>
<linearGradient id="paint1_linear_5246_151367" x1="133.611" y1="25.0928" x2="133.611" y2="131" gradientUnits="userSpaceOnUse">
<stop stop-color="#25262B"/>
<stop offset="1" stop-color="#7D8091"/>
</linearGradient>
<linearGradient id="paint2_linear_5246_151367" x1="99.5" y1="109" x2="82.5" y2="127.5" gradientUnits="userSpaceOnUse">
<stop stop-color="#1F2024"/>
<stop offset="1" stop-color="#7D8091" stop-opacity="0"/>
</linearGradient>
<linearGradient id="paint3_linear_5246_151367" x1="164.5" y1="109" x2="181.5" y2="127.5" gradientUnits="userSpaceOnUse">
<stop stop-color="#1F2024"/>
<stop offset="1" stop-color="#7D8091" stop-opacity="0"/>
</linearGradient>
<linearGradient id="paint4_linear_5246_151367" x1="160.5" y1="33.0001" x2="137" y2="127" gradientUnits="userSpaceOnUse">
<stop stop-color="#694D4C"/>
<stop offset="1" stop-color="#25262B"/>
</linearGradient>
<linearGradient id="paint5_linear_5246_151367" x1="111" y1="24" x2="127.5" y2="109" gradientUnits="userSpaceOnUse">
<stop stop-color="#908C9D"/>
<stop offset="1" stop-color="#39383F"/>
</linearGradient>
<radialGradient id="paint6_radial_5246_151367" cx="0" cy="0" r="1" gradientUnits="userSpaceOnUse" gradientTransform="translate(168 45) rotate(110.551) scale(78.0824 46.2485)">
<stop stop-color="#FF4000" stop-opacity="0"/>
<stop offset="1" stop-color="#FF4000"/>
</radialGradient>
<radialGradient id="paint7_radial_5246_151367" cx="0" cy="0" r="1" gradientUnits="userSpaceOnUse" gradientTransform="translate(157.5 59) rotate(102.804) scale(33.8415 20.0445)">
<stop stop-color="#FF4000" stop-opacity="0"/>
<stop offset="1" stop-color="#FF4000"/>
</radialGradient>
<radialGradient id="paint8_radial_5246_151367" cx="0" cy="0" r="1" gradientUnits="userSpaceOnUse" gradientTransform="translate(101.455 -9.46546) rotate(52.4501) scale(105.907 129.911)">
<stop stop-color="#CCD0E3"/>
<stop offset="1" stop-color="#25262B"/>
</radialGradient>
<linearGradient id="paint9_linear_5246_151367" x1="115" y1="34.5" x2="139" y2="56.5" gradientUnits="userSpaceOnUse">
<stop stop-color="#25262B"/>
<stop offset="1" stop-color="#25262B" stop-opacity="0"/>
</linearGradient>
<linearGradient id="paint10_linear_5246_151367" x1="103" y1="11.5" x2="138.5" y2="53.5" gradientUnits="userSpaceOnUse">
<stop stop-color="#A6B9D2"/>
<stop offset="1" stop-color="#A6B9D2" stop-opacity="0"/>
</linearGradient>
<linearGradient id="paint11_linear_5246_151367" x1="156" y1="63.4999" x2="137.5" y2="36.4999" gradientUnits="userSpaceOnUse">
<stop stop-color="#FF4000"/>
<stop offset="1" stop-color="#FF4000" stop-opacity="0"/>
</linearGradient>
<linearGradient id="paint12_linear_5246_151367" x1="156" y1="63.4999" x2="137.5" y2="36.4999" gradientUnits="userSpaceOnUse">
<stop stop-color="#FF4000"/>
<stop offset="1" stop-color="#FF4000" stop-opacity="0"/>
</linearGradient>
<radialGradient id="paint13_radial_5246_151367" cx="0" cy="0" r="1" gradientUnits="userSpaceOnUse" gradientTransform="translate(114 27.9999) rotate(-129.987) scale(20.2299 24.9789)">
<stop stop-color="#BFCEFF"/>
<stop offset="1" stop-color="#BFCEFF" stop-opacity="0"/>
</radialGradient>
<radialGradient id="paint14_radial_5246_151367" cx="0" cy="0" r="1" gradientUnits="userSpaceOnUse" gradientTransform="translate(114 27.9999) rotate(-129.987) scale(20.2299 24.9789)">
<stop stop-color="#BFCEFF"/>
<stop offset="1" stop-color="#BFCEFF" stop-opacity="0"/>
</radialGradient>
<linearGradient id="paint15_linear_5246_151367" x1="166.5" y1="89" x2="138" y2="126" gradientUnits="userSpaceOnUse">
<stop stop-color="#FF4000" stop-opacity="0"/>
<stop offset="1" stop-color="#FF4000"/>
</linearGradient>
<linearGradient id="paint16_linear_5246_151367" x1="166.5" y1="89" x2="138" y2="126" gradientUnits="userSpaceOnUse">
<stop stop-color="#FF4000" stop-opacity="0"/>
<stop offset="1" stop-color="#FF4000"/>
</linearGradient>
<radialGradient id="paint17_radial_5246_151367" cx="0" cy="0" r="1" gradientUnits="userSpaceOnUse" gradientTransform="translate(133 91.5) rotate(81.7537) scale(34.8604 47.5777)">
<stop stop-color="#FF4000" stop-opacity="0.23"/>
<stop offset="1" stop-color="#FF4000" stop-opacity="0"/>
</radialGradient>
<radialGradient id="paint18_radial_5246_151367" cx="0" cy="0" r="1" gradientUnits="userSpaceOnUse" gradientTransform="translate(126 97) rotate(68.7495) scale(19.3132 10.8031)">
<stop stop-color="#FF4000"/>
<stop offset="1" stop-color="#FF4000" stop-opacity="0"/>
</radialGradient>
<radialGradient id="paint19_radial_5246_151367" cx="0" cy="0" r="1" gradientUnits="userSpaceOnUse" gradientTransform="translate(170 88) rotate(128.047) scale(29.2062 25.5049)">
<stop stop-color="#FF4000" stop-opacity="0"/>
<stop offset="1" stop-color="#FF4000"/>
</radialGradient>
<radialGradient id="paint20_radial_5246_151367" cx="0" cy="0" r="1" gradientUnits="userSpaceOnUse" gradientTransform="translate(170 88) rotate(128.047) scale(29.2062 25.5049)">
<stop stop-color="#FF4000" stop-opacity="0"/>
<stop offset="1" stop-color="#FF4000"/>
</radialGradient>
<radialGradient id="paint21_radial_5246_151367" cx="0" cy="0" r="1" gradientUnits="userSpaceOnUse" gradientTransform="translate(170 88) rotate(128.047) scale(29.2062 25.5049)">
<stop stop-color="#FF4000" stop-opacity="0"/>
<stop offset="1" stop-color="#FF4000"/>
</radialGradient>
<radialGradient id="paint22_radial_5246_151367" cx="0" cy="0" r="1" gradientUnits="userSpaceOnUse" gradientTransform="translate(170 88) rotate(128.047) scale(29.2062 25.5049)">
<stop stop-color="#FF4000" stop-opacity="0"/>
<stop offset="1" stop-color="#FF4000"/>
</radialGradient>
<radialGradient id="paint23_radial_5246_151367" cx="0" cy="0" r="1" gradientUnits="userSpaceOnUse" gradientTransform="translate(170 88) rotate(135.843) scale(48.0887 41.9944)">
<stop stop-color="#A6B9D2" stop-opacity="0"/>
<stop offset="0.573073" stop-color="#A6B9D2" stop-opacity="0.573073"/>
<stop offset="1" stop-color="#A6B9D2"/>
</radialGradient>
<radialGradient id="paint24_radial_5246_151367" cx="0" cy="0" r="1" gradientUnits="userSpaceOnUse" gradientTransform="translate(148 125) rotate(-86.4237) scale(16.0312 51.5165)">
<stop stop-color="#FF4000"/>
<stop offset="1" stop-color="#FF4000" stop-opacity="0"/>
</radialGradient>
<radialGradient id="paint25_radial_5246_151367" cx="0" cy="0" r="1" gradientUnits="userSpaceOnUse" gradientTransform="translate(177.242 45.0071) rotate(82.1986) scale(66.7152 82.0245)">
<stop stop-color="#CCD0E3"/>
<stop offset="1" stop-color="#25262B"/>
</radialGradient>
<radialGradient id="paint26_radial_5246_151367" cx="0" cy="0" r="1" gradientUnits="userSpaceOnUse" gradientTransform="translate(125.5 92) rotate(81.7537) scale(34.8604 47.5777)">
<stop stop-color="#FF4000" stop-opacity="0.23"/>
<stop offset="1" stop-color="#FF4000" stop-opacity="0"/>
</radialGradient>
<radialGradient id="paint27_radial_5246_151367" cx="0" cy="0" r="1" gradientUnits="userSpaceOnUse" gradientTransform="translate(125.5 92) rotate(81.7537) scale(34.8604 47.5777)">
<stop stop-color="#FF4000" stop-opacity="0.23"/>
<stop offset="1" stop-color="#FF4000" stop-opacity="0"/>
</radialGradient>
<radialGradient id="paint28_radial_5246_151367" cx="0" cy="0" r="1" gradientUnits="userSpaceOnUse" gradientTransform="translate(125.5 92) rotate(81.7537) scale(34.8604 47.5777)">
<stop stop-color="#FF4000" stop-opacity="0.23"/>
<stop offset="1" stop-color="#FF4000" stop-opacity="0"/>
</radialGradient>
<radialGradient id="paint29_radial_5246_151367" cx="0" cy="0" r="1" gradientUnits="userSpaceOnUse" gradientTransform="translate(116 108) rotate(81.7537) scale(34.8604 47.5777)">
<stop stop-color="#FF4000" stop-opacity="0.23"/>
<stop offset="1" stop-color="#FF4000" stop-opacity="0"/>
</radialGradient>
<radialGradient id="paint30_radial_5246_151367" cx="0" cy="0" r="1" gradientUnits="userSpaceOnUse" gradientTransform="translate(116 108) rotate(81.7537) scale(34.8604 47.5777)">
<stop stop-color="#FF4000" stop-opacity="0.23"/>
<stop offset="1" stop-color="#FF4000" stop-opacity="0"/>
</radialGradient>
<linearGradient id="paint31_linear_5246_151367" x1="104" y1="85.5" x2="128.5" y2="126.5" gradientUnits="userSpaceOnUse">
<stop stop-color="#FF4000" stop-opacity="0"/>
<stop offset="1" stop-color="#FF4000"/>
</linearGradient>
<linearGradient id="paint32_linear_5246_151367" x1="104" y1="85.5" x2="128.5" y2="126.5" gradientUnits="userSpaceOnUse">
<stop stop-color="#FF4000" stop-opacity="0"/>
<stop offset="1" stop-color="#FF4000"/>
</linearGradient>
<linearGradient id="paint33_linear_5246_151367" x1="104" y1="85.5" x2="128.5" y2="126.5" gradientUnits="userSpaceOnUse">
<stop stop-color="#FF4000" stop-opacity="0"/>
<stop offset="1" stop-color="#FF4000"/>
</linearGradient>
<linearGradient id="paint34_linear_5246_151367" x1="104" y1="85.5" x2="128.5" y2="126.5" gradientUnits="userSpaceOnUse">
<stop stop-color="#FF4000" stop-opacity="0"/>
<stop offset="1" stop-color="#FF4000"/>
</linearGradient>
<radialGradient id="paint35_radial_5246_151367" cx="0" cy="0" r="1" gradientUnits="userSpaceOnUse" gradientTransform="translate(89.9907 45.0071) rotate(97.8014) scale(66.7152 82.0245)">
<stop stop-color="#CCD0E3"/>
<stop offset="1" stop-color="#25262B"/>
</radialGradient>
<linearGradient id="paint36_linear_5246_151367" x1="75.9276" y1="84.7993" x2="95.8371" y2="89.2169" gradientUnits="userSpaceOnUse">
<stop stop-color="#25262B"/>
<stop offset="1" stop-color="#25262B" stop-opacity="0"/>
</linearGradient>
<linearGradient id="paint37_linear_5246_151367" x1="62.2146" y1="76.0805" x2="94.6264" y2="87.7458" gradientUnits="userSpaceOnUse">
<stop stop-color="#A6B9D2"/>
<stop offset="1" stop-color="#A6B9D2" stop-opacity="0"/>
</linearGradient>
<linearGradient id="paint38_linear_5246_151367" x1="191.299" y1="84.7993" x2="171.39" y2="89.2169" gradientUnits="userSpaceOnUse">
<stop stop-color="#25262B"/>
<stop offset="1" stop-color="#25262B" stop-opacity="0"/>
</linearGradient>
<linearGradient id="paint39_linear_5246_151367" x1="205.012" y1="76.0805" x2="172.601" y2="87.7458" gradientUnits="userSpaceOnUse">
<stop stop-color="#A6B9D2"/>
<stop offset="1" stop-color="#A6B9D2" stop-opacity="0"/>
</linearGradient>
<linearGradient id="paint40_linear_5246_151367" x1="159.5" y1="78.0467" x2="114.5" y2="78.0467" gradientUnits="userSpaceOnUse">
<stop stop-color="#FFEEE9"/>
<stop offset="1" stop-color="#DAE4E9"/>
</linearGradient>
<linearGradient id="paint41_linear_5246_151367" x1="151.5" y1="78" x2="115.595" y2="78" gradientUnits="userSpaceOnUse">
<stop stop-color="#FF4000" stop-opacity="0"/>
<stop offset="0.5" stop-color="#FF4000"/>
<stop offset="1" stop-color="#FF4000" stop-opacity="0"/>
</linearGradient>
<linearGradient id="paint42_linear_5246_151367" x1="145.681" y1="93.5" x2="120.688" y2="93.5" gradientUnits="userSpaceOnUse">
<stop stop-color="#FF4000" stop-opacity="0"/>
<stop offset="0.5" stop-color="#FF4000"/>
<stop offset="1" stop-color="#FF4000" stop-opacity="0"/>
</linearGradient>
</defs>
</svg>
