<svg xmlns="http://www.w3.org/2000/svg" style="display: none;">
  <symbol id="tags" viewBox="0 0 24 24">
    <path d="M22.8,8.7c0-0.3-0.2-0.6-0.5-0.7L11.8,3.8c-0.2-0.1-0.4-0.1-0.6,0L0.7,8C0.4,8.1,0.2,8.4,0.2,8.7 s0.2,0.6,0.5,0.7L5,11.1v6c0,0.2,0.1,0.4,0.2,0.5l0.5-0.5c-0.5,0.5-0.5,0.5-0.5,0.5l0,0l0,0l0,0l0,0c0,0,0.1,0.1,0.1,0.1 c0.1,0.1,0.2,0.2,0.3,0.3C6,18.3,6.5,18.6,7,19c1.1,0.6,2.7,1.3,4.5,1.3c1.8,0,3.4-0.7,4.5-1.3c0.5-0.3,1-0.6,1.3-0.9 c0.2-0.1,0.3-0.2,0.3-0.3c0,0,0.1-0.1,0.1-0.1l0,0l0,0l0,0l0,0l-0.5-0.5c0.5,0.5,0.5,0.5,0.5,0.5c0.1-0.1,0.2-0.3,0.2-0.5v-6 l3.3-1.3v3.6c0,0.4,0.3,0.8,0.8,0.8c0.4,0,0.8-0.3,0.8-0.8L22.8,8.7C22.8,8.7,22.8,8.7,22.8,8.7C22.8,8.7,22.8,8.7,22.8,8.7z M16.5,16.8c0,0-0.1,0.1-0.1,0.1c-0.3,0.2-0.6,0.5-1.1,0.8c-0.9,0.6-2.2,1.1-3.7,1.1c-1.5,0-2.8-0.5-3.7-1.1 c-0.5-0.3-0.8-0.5-1.1-0.8c-0.1,0-0.1-0.1-0.1-0.1v-5.1l4.7,1.9c0.2,0.1,0.4,0.1,0.6,0l4.7-1.9V16.8z M11.5,12.1L3,8.7l8.5-3.4 L20,8.7L11.5,12.1z" />
  </symbol>  
</svg>
