<svg xmlns="http://www.w3.org/2000/svg" style="display: none;">
  <symbol id="tags" viewBox="0 0 16 16">
    <path d="M8,8.5c1.7,0,3.2-1.4,3.2-3.2S9.7,2.2,8,2.2c-1.7,0-3.2,1.4-3.2,3.2S6.3,8.5,8,8.5z M8,3.2c1.2,0,2.2,1,2.2,2.2 S9.2,7.5,8,7.5s-2.2-1-2.2-2.2S6.8,3.2,8,3.2z"/>
    <path d="M4.2,11.2c-0.9,0.6-1.5,1.3-1.8,2.2c-0.1,0.3,0,0.5,0.3,0.6c0.3,0.1,0.5,0,0.6-0.3c0.2-0.6,0.7-1.3,1.4-1.7 c0.7-0.5,1.6-0.8,2.6-0.9c0.1,0,0.1,0,0.2,0c0.2-0.4,0.6-0.8,1-1c-0.4,0-0.8,0-1.2,0C6.1,10.3,5.1,10.7,4.2,11.2z"/>
    <path d="M14.7,11.5h-2.2V9.3c0-0.3-0.2-0.5-0.5-0.5s-0.5,0.2-0.5,0.5v2.2H9.3c-0.3,0-0.5,0.2-0.5,0.5s0.2,0.5,0.5,0.5h2.2v2.2 c0,0.3,0.2,0.5,0.5,0.5s0.5-0.2,0.5-0.5v-2.2h2.2c0.3,0,0.5-0.2,0.5-0.5S14.9,11.5,14.7,11.5z"/>
  </symbol>  
</svg>
