<svg xmlns="http://www.w3.org/2000/svg" style="display: none;">
  <symbol id="tags" viewBox="0 0 16 16" fill="none">
    <ellipse cx="8.00065" cy="5.33332" rx="2.66667" ry="2.66667" stroke="white" stroke-linecap="round"/>
    <path fill-rule="evenodd" clip-rule="evenodd" d="M8.49602 10.1829C8.08386 10.1559 7.66752 10.1625 7.25413 10.2033C6.13653 10.3136 5.07583 10.6708 4.20812 11.2416C3.34031 11.8123 2.69243 12.5801 2.37694 13.4632C2.28403 13.7232 2.41953 14.0093 2.67957 14.1022C2.93962 14.1951 3.22574 14.0596 3.31865 13.7996C3.54917 13.1543 4.03933 12.5495 4.75765 12.077C5.47607 11.6045 6.37836 11.2946 7.35239 11.1985C7.40347 11.1934 7.45458 11.189 7.50571 11.1851C7.70324 10.7429 8.05662 10.3856 8.49602 10.1829Z" fill="white"/>
    <path d="M12 9.33334L12 14.6667" stroke="white" stroke-linecap="round"/>
    <path d="M14.666 12L9.33268 12" stroke="white" stroke-linecap="round"/>
  </symbol>  
</svg>
