<svg xmlns="http://www.w3.org/2000/svg" style="display: none;">
  <symbol id="tags" viewBox="0 0 16 16">
    <path fill-rule="evenodd" clip-rule="evenodd" d="M5 12C5.55228 12 6 11.5523 6 11C6 10.4477 5.55228 10 5 10C4.44772 10 4 10.4477 4 11C4 11.5523 4.44772 12 5 12ZM5 13C6.10457 13 7 12.1046 7 11C7 9.89543 6.10457 9 5 9C3.89543 9 3 9.89543 3 11C3 12.1046 3.89543 13 5 13Z" />
    <path fill-rule="evenodd" clip-rule="evenodd" d="M10.2071 2.29289C9.81658 1.90237 9.18342 1.90237 8.79289 2.29289L2.29289 8.79289C2.09744 8.98835 2 9.24253 2 9.5V14H6.5C6.75747 14 7.01165 13.9026 7.20711 13.7071L13.7071 7.20711C14.0976 6.81658 14.0976 6.18342 13.7071 5.79289L10.2071 2.29289ZM10.9142 1.58579C10.1332 0.804738 8.86683 0.804738 8.08579 1.58579L1.58579 8.08579C1.19526 8.47631 1 8.98815 1 9.5V14C1 14.5523 1.44772 15 2 15H6.5C7.01184 15 7.52369 14.8047 7.91421 14.4142L14.4142 7.91421C15.1953 7.13316 15.1953 5.86683 14.4142 5.08579L10.9142 1.58579Z" />
  </symbol>
  <symbol id="level-3" viewBox="0 0 16 16">
    <rect x="1" y="8" width="3" height="6" rx="1" />
    <rect x="6" y="5" width="3" height="9" rx="1" />
    <rect x="11" y="2" width="3" height="12" rx="1" />
  </symbol>
  <symbol id="level-2" viewBox="0 0 16 16">
    <rect x="1" y="8" width="3" height="6" rx="1" />
    <rect x="6" y="5" width="3" height="9" rx="1" />
    <rect x="11" y="2" width="3" height="12" rx="1" fill-opacity=".3" />
  </symbol>
  <symbol id="level-1" viewBox="0 0 16 16">
    <rect x="1" y="8" width="3" height="6" rx="1" />
    <rect x="6" y="5" width="3" height="9" rx="1" fill-opacity=".3" />
    <rect x="11" y="2" width="3" height="12" rx="1" fill-opacity=".3" />
  </symbol>
</svg>
