<svg xmlns="http://www.w3.org/2000/svg" style="display: none;">
  <symbol id="requests" viewBox="0 0 24 24">
    <path d="M17.5,15.7V5.4c0-1-0.8-1.8-1.8-1.8H5.4c-1,0-1.8,0.8-1.8,1.8v10.4c0,1,0.8,1.8,1.8,1.8h10.4C16.7,17.5,17.5,16.7,17.5,15.7z M4.8,15.7V5.4c0-0.3,0.2-0.6,0.6-0.6h10.4c0.3,0,0.6,0.2,0.6,0.6v10.4c0,0.3-0.2,0.6-0.6,0.6H5.4C5.1,16.4,4.8,16.1,4.8,15.7z" />
    <path d="M19.7,6.8c-0.3,0-0.6,0.2-0.6,0.6v11.5c0,0.1-0.1,0.2-0.2,0.2H7.4c-0.3,0-0.6,0.2-0.6,0.6s0.2,0.6,0.6,0.6h11.6c0.8,0,1.4-0.6,1.4-1.4V7.4C20.3,7.1,20,6.8,19.7,6.8z" />
    <path d="M13.4,8l-3.6,3.7l-2-1.8c-0.2-0.2-0.6-0.2-0.9,0s-0.2,0.6,0,0.9L9.3,13c0.2,0.2,0.6,0.2,0.8,0l4-4.1c0.2-0.2,0.2-0.6,0-0.9C13.9,7.8,13.6,7.8,13.4,8z" />
  </symbol>
</svg>
