<svg xmlns="http://www.w3.org/2000/svg" style="display: none;">
  <symbol id="requests" viewBox="0 0 24 24">
    <path d="M19.2,17V4c0-1.2-1-2.2-2.2-2.2H4c-1.2,0-2.2,1-2.2,2.2v13c0,1.2,1,2.2,2.2,2.2h13C18.2,19.2,19.2,18.2,19.2,17z M3.2,17V4c0-0.4,0.3-0.8,0.8-0.8h13c0.4,0,0.8,0.3,0.8,0.8v13c0,0.4-0.3,0.8-0.8,0.8H4C3.6,17.8,3.2,17.4,3.2,17z" />
    <path d="M22,5.8c-0.4,0-0.8,0.3-0.8,0.8V21c0,0.1-0.1,0.2-0.2,0.2H6.5c-0.4,0-0.8,0.3-0.8,0.8s0.3,0.8,0.8,0.8H21 c1,0,1.8-0.8,1.8-1.8V6.5C22.7,6.1,22.4,5.8,22,5.8z" />
    <path d="M14,7.3L9.5,12L7,9.7c-0.3-0.3-0.8-0.3-1.1,0c-0.3,0.3-0.3,0.8,0,1.1l3,2.8c0.3,0.3,0.8,0.3,1,0l5-5.1 c0.3-0.3,0.3-0.8,0-1.1C14.7,7,14.3,7,14,7.3z" />
  </symbol>
</svg>
