<svg xmlns="http://www.w3.org/2000/svg" style="display: none;">
  <symbol id="notificationMessage" viewBox="0 0 32 32">
    <path d="M8 11.0001C8 10.4478 8.44772 10.0001 9 10.0001H23C23.5523 10.0001 24 10.4478 24 11.0001C24 11.5524 23.5523 12.0001 23 12.0001H9C8.44772 12.0001 8 11.5524 8 11.0001Z" />
    <path d="M9 14.0001C8.44772 14.0001 8 14.4478 8 15.0001C8 15.5524 8.44771 16.0001 9 16.0001H19C19.5523 16.0001 20 15.5524 20 15.0001C20 14.4478 19.5523 14.0001 19 14.0001H9Z" />
    <path fill-rule="evenodd" clip-rule="evenodd" d="M8 24.0001V30.0001L17.2875 24.4276C17.7537 24.1479 18.2872 24.0001 18.831 24.0001H27C28.6569 24.0001 30 22.657 30 21.0001V7.00012C30 5.34327 28.6569 4.00012 27 4.00012H5C3.34315 4.00012 2 5.34327 2 7.00012V21.0001C2 22.657 3.34315 24.0001 5 24.0001H8ZM10 26.4677L16.2585 22.7127C17.0355 22.2464 17.9247 22.0001 18.831 22.0001H27C27.5523 22.0001 28 21.5524 28 21.0001V7.00012C28 6.44784 27.5523 6.00012 27 6.00012H5C4.44771 6.00012 4 6.44784 4 7.00012V21.0001C4 21.5524 4.44772 22.0001 5 22.0001H10V26.4677Z" />
  </symbol>
</svg>
