<svg xmlns="http://www.w3.org/2000/svg" style="display: none;">
  <symbol id="inventory" viewBox="0 0 32 32">
    <path fill-rule="evenodd" clip-rule="evenodd" d="M2 8C2 5.79086 3.79086 4 6 4H26C28.2091 4 30 5.79086 30 8V11C30 11.5523 29.5523 12 29 12H28V26C28 28.2091 26.2091 30 24 30H8C5.79086 30 4 28.2091 4 26V12H3C2.44772 12 2 11.5523 2 11V8ZM4 10H28V8C28 6.89543 27.1046 6 26 6H6C4.89543 6 4 6.89543 4 8V10ZM6 12V26C6 27.1046 6.89543 28 8 28H24C25.1046 28 26 27.1046 26 26V12H6ZM10 16C10 15.4477 10.4477 15 11 15H21C21.5523 15 22 15.4477 22 16V17C22 19.2091 20.2091 21 18 21H14C11.7909 21 10 19.2091 10 17V16ZM12 17C12 18.1046 12.8954 19 14 19H18C19.1046 19 20 18.1046 20 17H12Z" />
  </symbol>
  <symbol id="categories" viewBox="0 0 16 16">
    <path d="M14.5,6.7c0-2,0-3-0.7-3.8C13,2.2,12,2.2,10,2.2H6c-0.2,0-0.4,0-0.6,0l-0.1,0v0c-1.5,0-2.5,0.1-3.1,0.7 C1.5,3.6,1.5,4.7,1.5,6.7v2.7c0,2,0,3,0.7,3.8C3,13.8,4,13.8,6,13.8h4c2,0,3,0,3.8-0.7c0.5-0.5,0.7-1.3,0.7-2.4h0V10 c0-0.1,0-0.3,0-0.4c0-0.1,0-0.2,0-0.3V6.7z M13.1,3.6c0.4,0.4,0.4,1.3,0.4,3.1v0c-0.1-0.1-0.2-0.2-0.3-0.2c-0.6-0.3-1.2-0.3-2.5-0.3 c-0.7,0-1.1,0-1.3-0.1C9.2,6,9,5.9,8.9,5.8C8.7,5.6,8.5,5.3,8.2,4.6L7.6,3.5C7.6,3.3,7.5,3.3,7.4,3.2H10C11.7,3.2,12.6,3.2,13.1,3.6z M10,12.8H6c-1.7,0-2.6,0-3.1-0.4C2.5,12,2.5,11.1,2.5,9.3V6.7c0-1.7,0-2.6,0.4-3.1c0.4-0.4,1.1-0.4,2.5-0.4l0.1,0 c0.5,0,1,0.3,1.2,0.8l0.6,1.1c0.4,0.7,0.6,1.1,0.9,1.4C8.4,6.7,8.7,6.9,9,7c0.4,0.2,0.9,0.2,1.7,0.2c1.1,0,1.7,0,2,0.2 c0.2,0.1,0.4,0.3,0.6,0.6c0.2,0.3,0.2,0.9,0.2,1.9c0,1.4,0,2.2-0.4,2.6C12.6,12.8,11.7,12.8,10,12.8z"/>
  </symbol>
  <symbol id="products" viewBox="0 0 16 16">
    <path d="M2.5,9.8l3.7,3.7c0,0,0,0,0,0c0.6,0.6,1.6,0.6,2.2,0l5.5-5.5C13.9,8,14,7.8,14,7.7V2.5C14,2.2,13.8,2,13.5,2H8.3 C8.1,2,8,2.1,7.9,2.1L2.5,7.6C2.2,7.9,2,8.3,2,8.7C2,9.1,2.2,9.5,2.5,9.8z M3.2,8.3L8.5,3H13v4.5l-5.3,5.3c-0.2,0.2-0.6,0.2-0.8,0 L3.2,9.1C3.1,9,3,8.9,3,8.7S3.1,8.4,3.2,8.3z"/>
  </symbol>
  <symbol id="variant" viewBox="0 0 24 24">
    <g fill="var(--duotone-color)">
      <path d="M16,11L16,11c0,1.1-0.9,2-2,2l0,0c-1.1,0-2-0.9-2-2l0,0c0-1.1,0.9-2,2-2l0,0C15.1,9,16,9.9,16,11z"/>
      <path d="M20,19L20,19c0,1.1-0.9,2-2,2l0,0c-1.1,0-2-0.9-2-2l0,0c0-1.1,0.9-2,2-2l0,0C19.1,17,20,17.9,20,19z"/>
    </g>
    <path d="M18,16.4c-1.2,0-2.3,0.9-2.5,2H9c-1.8,0-2.6,0-3-0.4c-0.4-0.4-0.4-1.2-0.4-3v-3.8c0.7,0.4,1.8,0.4,3.4,0.4h2.5 c0.3,1.1,1.3,2,2.5,2c1.4,0,2.6-1.2,2.6-2.6S15.4,8.4,14,8.4c-1.2,0-2.3,0.9-2.5,2H9c-1.8,0-2.6,0-3-0.4C5.6,9.6,5.6,8.8,5.6,7V4 H4.4v11c0,2,0,3.1,0.8,3.8C5.9,19.6,7,19.6,9,19.6h6.5c0.3,1.1,1.3,2,2.5,2c1.4,0,2.6-1.2,2.6-2.6S19.4,16.4,18,16.4z M14,9.6 c0.8,0,1.4,0.6,1.4,1.4s-0.6,1.4-1.4,1.4s-1.4-0.6-1.4-1.4S13.2,9.6,14,9.6z M18,20.4c-0.8,0-1.4-0.6-1.4-1.4s0.6-1.4,1.4-1.4 s1.4,0.6,1.4,1.4S18.8,20.4,18,20.4z"/>
  </symbol>
</svg>
