<svg xmlns="http://www.w3.org/2000/svg" style="display: none;">
  <symbol id="inventory" viewBox="0 0 24 24">
    <path d="M21.3,7l-9-4.5c-0.2-0.1-0.4-0.1-0.5,0L2.7,7C2.5,7.1,2.4,7.3,2.4,7.5v9c0,0.2,0.1,0.4,0.3,0.5l9,4.5c0.2,0.1,0.4,0.1,0.5,0 l9-4.5c0.2-0.1,0.3-0.3,0.3-0.5v-9C21.6,7.3,21.5,7.1,21.3,7z M20.4,16.1L12.6,20v-7.7l3.8-1.9V13c0,0.3,0.3,0.6,0.6,0.6 s0.6-0.3,0.6-0.6V9.9l2.8-1.4V16.1z M8,5.7l7.7,3.8L12,11.3L4.3,7.5L8,5.7z M3.6,8.5l7.8,3.9V20l-7.8-3.9V8.5z M19.7,7.5L17,8.8 L9.3,5L12,3.7L19.7,7.5z"/>
  </symbol>
  <symbol id="categories" viewBox="0 0 16 16">
    <path d="M14.5,6.7c0-2,0-3-0.7-3.8C13,2.2,12,2.2,10,2.2H6c-0.2,0-0.4,0-0.6,0l-0.1,0v0c-1.5,0-2.5,0.1-3.1,0.7 C1.5,3.6,1.5,4.7,1.5,6.7v2.7c0,2,0,3,0.7,3.8C3,13.8,4,13.8,6,13.8h4c2,0,3,0,3.8-0.7c0.5-0.5,0.7-1.3,0.7-2.4h0V10 c0-0.1,0-0.3,0-0.4c0-0.1,0-0.2,0-0.3V6.7z M13.1,3.6c0.4,0.4,0.4,1.3,0.4,3.1v0c-0.1-0.1-0.2-0.2-0.3-0.2c-0.6-0.3-1.2-0.3-2.5-0.3 c-0.7,0-1.1,0-1.3-0.1C9.2,6,9,5.9,8.9,5.8C8.7,5.6,8.5,5.3,8.2,4.6L7.6,3.5C7.6,3.3,7.5,3.3,7.4,3.2H10C11.7,3.2,12.6,3.2,13.1,3.6z M10,12.8H6c-1.7,0-2.6,0-3.1-0.4C2.5,12,2.5,11.1,2.5,9.3V6.7c0-1.7,0-2.6,0.4-3.1c0.4-0.4,1.1-0.4,2.5-0.4l0.1,0 c0.5,0,1,0.3,1.2,0.8l0.6,1.1c0.4,0.7,0.6,1.1,0.9,1.4C8.4,6.7,8.7,6.9,9,7c0.4,0.2,0.9,0.2,1.7,0.2c1.1,0,1.7,0,2,0.2 c0.2,0.1,0.4,0.3,0.6,0.6c0.2,0.3,0.2,0.9,0.2,1.9c0,1.4,0,2.2-0.4,2.6C12.6,12.8,11.7,12.8,10,12.8z"/>
  </symbol>
  <symbol id="products" viewBox="0 0 16 16">
    <path d="M2.5,9.8l3.7,3.7c0,0,0,0,0,0c0.6,0.6,1.6,0.6,2.2,0l5.5-5.5C13.9,8,14,7.8,14,7.7V2.5C14,2.2,13.8,2,13.5,2H8.3 C8.1,2,8,2.1,7.9,2.1L2.5,7.6C2.2,7.9,2,8.3,2,8.7C2,9.1,2.2,9.5,2.5,9.8z M3.2,8.3L8.5,3H13v4.5l-5.3,5.3c-0.2,0.2-0.6,0.2-0.8,0 L3.2,9.1C3.1,9,3,8.9,3,8.7S3.1,8.4,3.2,8.3z"/>
  </symbol>
  <symbol id="variant" viewBox="0 0 24 24">
    <path d="M16,16c-1.3,0-2.4,0.8-2.8,2H9c-1.5,0-2.4,0-2.7-0.3S6,16.5,6,15v-3.2C6.7,12,7.7,12,9,12h4.2c0.4,1.2,1.5,2,2.8,2 c1.7,0,3-1.3,3-3s-1.3-3-3-3c-1.3,0-2.4,0.8-2.8,2H9c-1.5,0-2.4,0-2.7-0.3C6.1,9.5,6,8.8,6,7.8C7.2,7.4,8,6.3,8,5c0-1.7-1.3-3-3-3 S2,3.3,2,5c0,1.3,0.8,2.4,2,2.8C4,7.9,4,7.9,4,8h0v7c0,2.1,0,3.2,0.9,4.1S6.9,20,9,20h4.2c0.4,1.2,1.5,2,2.8,2c1.7,0,3-1.3,3-3 S17.7,16,16,16z M16,10c0.6,0,1,0.4,1,1s-0.4,1-1,1s-1-0.4-1-1S15.4,10,16,10z M5,4c0.6,0,1,0.4,1,1S5.6,6,5,6S4,5.6,4,5S4.4,4,5,4z M16,20c-0.6,0-1-0.4-1-1s0.4-1,1-1s1,0.4,1,1S16.6,20,16,20z"/>
  </symbol>
</svg>
