<svg xmlns="http://www.w3.org/2000/svg" style="display: none;">
  <symbol id="inventory" viewBox="0 0 24 24" fill="none">
    <path d="M13.1716 3H9C7.11438 3 6.17157 3 5.58579 3.58579C5 4.17157 5 5.11438 5 7V17C5 18.8856 5 19.8284 5.58579 20.4142C6.17157 21 7.11438 21 9 21H15C16.8856 21 17.8284 21 18.4142 20.4142C19 19.8284 19 18.8856 19 17V8.82843C19 8.41968 19 8.2153 18.9239 8.03153C18.8478 7.84776 18.7032 7.70324 18.4142 7.41421L14.5858 3.58579C14.2968 3.29676 14.1522 3.15224 13.9685 3.07612C13.7847 3 13.5803 3 13.1716 3Z" stroke="currentColor" stroke-width="1.3"/>
    <path d="M9 13L15 13" stroke="currentColor" stroke-width="1.3" stroke-linecap="round"/>
    <path d="M9 17L13 17" stroke="currentColor" stroke-width="1.3" stroke-linecap="round"/>
    <path d="M13 3V7C13 7.94281 13 8.41421 13.2929 8.70711C13.5858 9 14.0572 9 15 9H19" stroke="currentColor" stroke-width="1.3"/></symbol>
  <symbol id="categories" viewBox="0 0 16 16" fill="none">
    <path d="M2 6.66669C2 4.78107 2 3.83826 2.58579 3.25247C3.17157 2.66669 4.11438 2.66669 6 2.66669H10C11.8856 2.66669 12.8284 2.66669 13.4142 3.25247C14 3.83826 14 4.78107 14 6.66669V9.33335C14 11.219 14 12.1618 13.4142 12.7476C12.8284 13.3334 11.8856 13.3334 10 13.3334H6C4.11438 13.3334 3.17157 13.3334 2.58579 12.7476C2 12.1618 2 11.219 2 9.33335V6.66669Z" stroke="white"/>
    <path d="M5.33398 2.66669V2.66669C5.42787 2.66669 5.47482 2.66669 5.51834 2.66858C6.21284 2.69886 6.8418 3.08757 7.17946 3.69521C7.20062 3.73329 7.22161 3.77528 7.2636 3.85926L7.75628 4.8446C8.10324 5.53853 8.27672 5.88549 8.54248 6.13227C8.73342 6.30957 8.95717 6.44786 9.20115 6.53935C9.54072 6.66669 9.92864 6.66669 10.7045 6.66669V6.66669C11.9155 6.66669 12.5209 6.66669 12.9753 6.92023C13.2991 7.10097 13.5664 7.3682 13.7471 7.69206C14.0007 8.1464 14.0007 8.75189 14.0007 9.96287V10.6667" stroke="white"/>
  </symbol>
  <symbol id="products" viewBox="0 0 16 16" fill="none">
    <path fill-rule="evenodd" clip-rule="evenodd" d="M6.54693 13.1966L2.80604 9.45673C2.6101 9.26106 2.5 8.99554 2.5 8.71866C2.5 8.44178 2.6101 8.17626 2.80604 7.98059L8.28258 2.5L13.5 2.5L13.5 7.71605L8.01824 13.1966C7.61124 13.6011 6.95392 13.6011 6.54693 13.1966Z" stroke="currentColor" stroke-linecap="round" stroke-linejoin="round"/>
  </symbol>
  <symbol id="variant" viewBox="0 0 16 16" fill="none">
    <rect x="12" y="6" width="2.66667" height="2.66667" rx="1.33333" transform="rotate(90 12 6)" stroke="currentColor"/>
    <rect x="12" y="11.3333" width="2.66667" height="2.66667" rx="1.33333" transform="rotate(90 12 11.3333)" stroke="currentColor"/>
    <rect x="2" y="4.66675" width="2.66667" height="2.66667" rx="1.33333" transform="rotate(-90 2 4.66675)" stroke="currentColor"/>
    <path d="M3.3335 5.33325V8.66658C3.3335 10.5522 3.3335 11.495 3.91928 12.0808C4.50507 12.6666 5.44788 12.6666 7.3335 12.6666H9.3335" stroke="currentColor"/>
    <path d="M3.3335 4.66675V4.66675C3.3335 5.28673 3.3335 5.59672 3.40164 5.85105C3.58658 6.54124 4.12567 7.08033 4.81586 7.26527C5.07019 7.33342 5.38018 7.33342 6.00016 7.33342H9.3335" stroke="currentColor"/>
  </symbol>
</svg>
