<svg xmlns="http://www.w3.org/2000/svg" style="display: none;">
  <symbol id="shared" viewBox="0 0 14 14">
    <path fill-rule="evenodd" clip-rule="evenodd" d="M2 5.5C2 3.567 3.567 2 5.5 2C7.433 2 9 3.567 9 5.5C9 7.433 7.433 9 5.5 9C3.567 9 2 7.433 2 5.5ZM5.5 3C4.11929 3 3 4.11929 3 5.5C3 6.88071 4.11929 8 5.5 8C6.88071 8 8 6.88071 8 5.5C8 4.11929 6.88071 3 5.5 3Z" />
    <path d="M10.5 10C10.2239 10 10 10.2239 10 10.5C10 10.7761 10.2239 11 10.5 11H11.5C12.8807 11 14 12.1193 14 13.5C14 13.7761 14.2239 14 14.5 14C14.7761 14 15 13.7761 15 13.5C15 11.567 13.433 10 11.5 10H10.5Z" />
    <path d="M4.5 11C3.11929 11 2 12.1193 2 13.5C2 13.7761 1.77614 14 1.5 14C1.22386 14 1 13.7761 1 13.5C1 11.567 2.567 10 4.5 10H6.5C8.433 10 10 11.567 10 13.5C10 13.7761 9.77614 14 9.5 14C9.22386 14 9 13.7761 9 13.5C9 12.1193 7.88071 11 6.5 11H4.5Z" />
    <path d="M10.5 2.99988C10.2238 2.99988 9.99995 3.22374 9.99995 3.49988C9.99995 3.77602 10.2238 3.99988 10.5 3.99988C10.7846 3.99988 11.0661 4.06066 11.3254 4.17815C11.5847 4.29564 11.8159 4.46714 12.0036 4.68119C12.1913 4.89523 12.3312 5.14688 12.4138 5.41931C12.4965 5.69174 12.52 5.97868 12.4828 6.26093C12.4457 6.54318 12.3487 6.81425 12.1984 7.05601C12.048 7.29777 11.8478 7.50465 11.6111 7.66282C11.3744 7.82098 11.1066 7.92679 10.8257 7.97316C10.5449 8.01954 10.2573 8.00541 9.98232 7.93173C9.71558 7.86026 9.44141 8.01855 9.36994 8.28528C9.29847 8.55202 9.45677 8.82618 9.7235 8.89766C10.136 9.00818 10.5673 9.02937 10.9886 8.95981C11.41 8.89025 11.8116 8.73153 12.1667 8.49429C12.5217 8.25704 12.8221 7.94672 13.0476 7.58408C13.2731 7.22144 13.4186 6.81484 13.4743 6.39146C13.53 5.96807 13.4947 5.53767 13.3708 5.12902C13.2468 4.72038 13.037 4.3429 12.7555 4.02184C12.4739 3.70078 12.127 3.44353 11.7381 3.26729C11.3491 3.09105 10.927 2.99988 10.5 2.99988Z" />
  </symbol>
  <symbol id="locked" viewBox="0 0 16 16">
    <path d="M4.69141 14.6338H11.3018C12.2178 14.6338 12.6689 14.1826 12.6689 13.1914V8.08496C12.6689 7.18945 12.293 6.72461 11.541 6.64941V4.96094C11.541 2.36328 9.81152 1.1123 7.99316 1.1123C6.18164 1.1123 4.45215 2.36328 4.45215 4.96094V6.67676C3.74805 6.78613 3.32422 7.2373 3.32422 8.08496V13.1914C3.32422 14.1826 3.77539 14.6338 4.69141 14.6338ZM5.75098 4.83105C5.75098 3.22461 6.76953 2.35645 7.99316 2.35645C9.2168 2.35645 10.2422 3.22461 10.2422 4.83105V6.64258L5.75098 6.64941V4.83105Z" />
  </symbol>
  <symbol id="group" viewBox="0 0 16 16">
    <path fill-rule="evenodd" clip-rule="evenodd" d="M2 5.5C2 3.567 3.567 2 5.5 2C7.433 2 9 3.567 9 5.5C9 7.433 7.433 9 5.5 9C3.567 9 2 7.433 2 5.5ZM5.5 3C4.11929 3 3 4.11929 3 5.5C3 6.88071 4.11929 8 5.5 8C6.88071 8 8 6.88071 8 5.5C8 4.11929 6.88071 3 5.5 3Z" />
    <path d="M10.5 10C10.2239 10 10 10.2239 10 10.5C10 10.7761 10.2239 11 10.5 11H11.5C12.8807 11 14 12.1193 14 13.5C14 13.7761 14.2239 14 14.5 14C14.7761 14 15 13.7761 15 13.5C15 11.567 13.433 10 11.5 10H10.5Z" />
    <path d="M4.5 11C3.11929 11 2 12.1193 2 13.5C2 13.7761 1.77614 14 1.5 14C1.22386 14 1 13.7761 1 13.5C1 11.567 2.567 10 4.5 10H6.5C8.433 10 10 11.567 10 13.5C10 13.7761 9.77614 14 9.5 14C9.22386 14 9 13.7761 9 13.5C9 12.1193 7.88071 11 6.5 11H4.5Z" />
    <path d="M10.5 2.99988C10.2238 2.99988 9.99995 3.22374 9.99995 3.49988C9.99995 3.77602 10.2238 3.99988 10.5 3.99988C10.7846 3.99988 11.0661 4.06066 11.3254 4.17815C11.5847 4.29564 11.8159 4.46714 12.0036 4.68119C12.1913 4.89523 12.3312 5.14688 12.4138 5.41931C12.4965 5.69174 12.52 5.97868 12.4828 6.26093C12.4457 6.54318 12.3487 6.81425 12.1984 7.05601C12.048 7.29777 11.8478 7.50465 11.6111 7.66282C11.3744 7.82098 11.1066 7.92679 10.8257 7.97316C10.5449 8.01954 10.2573 8.00541 9.98232 7.93173C9.71558 7.86026 9.44141 8.01855 9.36994 8.28528C9.29847 8.55202 9.45677 8.82618 9.7235 8.89766C10.136 9.00818 10.5673 9.02937 10.9886 8.95981C11.41 8.89025 11.8116 8.73153 12.1667 8.49429C12.5217 8.25704 12.8221 7.94672 13.0476 7.58408C13.2731 7.22144 13.4186 6.81484 13.4743 6.39146C13.53 5.96807 13.4947 5.53767 13.3708 5.12902C13.2468 4.72038 13.037 4.3429 12.7555 4.02184C12.4739 3.70078 12.127 3.44353 11.7381 3.26729C11.3491 3.09105 10.927 2.99988 10.5 2.99988Z" />
  </symbol>
  <symbol id="user" viewBox="0 0 16 16">
    <path fill-rule="evenodd" clip-rule="evenodd" d="M8 8C9.65685 8 11 6.65685 11 5C11 3.34315 9.65685 2 8 2C6.34315 2 5 3.34315 5 5C5 6.65685 6.34315 8 8 8ZM8 9C10.2091 9 12 7.20914 12 5C12 2.79086 10.2091 1 8 1C5.79086 1 4 2.79086 4 5C4 7.20914 5.79086 9 8 9Z" />
    <path d="M6.5 10C4.567 10 3 11.567 3 13.5V14.5C3 14.7761 3.22386 15 3.5 15C3.77614 15 4 14.7761 4 14.5V13.5C4 12.1193 5.11929 11 6.5 11H9.5C10.8807 11 12 12.1193 12 13.5V14.5C12 14.7761 12.2239 15 12.5 15C12.7761 15 13 14.7761 13 14.5V13.5C13 11.567 11.433 10 9.5 10H6.5Z" />
  </symbol>
  <symbol id="channel" viewBox="0 0 32 32">
    <path d="M27.4,19.9h-6.4l1.9-7.8h4.5c0.6,0,1-0.4,1-1s-0.4-1-1-1h-4l1.7-6.9c0.1-0.5-0.2-1.1-0.7-1.2c-0.5-0.1-1.1,0.2-1.2,0.7l-1.8,7.4h-7.7l1.7-6.9c0.1-0.5-0.2-1.1-0.7-1.2c-0.5-0.1-1.1,0.2-1.2,0.7l-1.8,7.4H4.6c-0.6,0-1,0.4-1,1s0.4,1,1,1h6.4l-1.9,7.8H4.6c-0.6,0-1,0.4-1,1s0.4,1,1,1h4l-1.7,6.9c-0.1,0.5,0.2,1.1,0.7,1.2c0.1,0,0.2,0,0.2,0c0.4,0,0.9-0.3,1-0.8l1.8-7.4h7.7l-1.7,6.9c-0.1,0.5,0.2,1.1,0.7,1.2c0.1,0,0.2,0,0.2,0c0.4,0,0.9-0.3,1-0.8l1.8-7.4h6.9c0.6,0,1-0.4,1-1S27.9,19.9,27.4,19.9z M11.2,19.9l1.9-7.8h7.7l-1.9,7.8H11.2z" />
  </symbol>
</svg>
