<svg xmlns="http://www.w3.org/2000/svg" style="display: none;">
  <symbol id="task" viewBox="0 0 24 24">
    <g>
      <path d="M21.4,3.1c-0.2-0.2-0.6-0.2-0.8,0L11.1,13l-2.3-2.4c-0.2-0.2-0.6-0.2-0.8,0s-0.2,0.6,0,0.8l2.7,2.8 c0.1,0.1,0.3,0.2,0.4,0.2s0.3-0.1,0.4-0.2l9.9-10.4C21.7,3.7,21.7,3.3,21.4,3.1z"/>
      <path d="M19.2,11.4c-0.3,0-0.6,0.3-0.6,0.6v6.6c0,0.7-0.5,1.3-1.2,1.3H4.8c-0.7,0-1.2-0.6-1.2-1.3V5.4 c0-0.7,0.5-1.3,1.2-1.3h9.9c0.3,0,0.6-0.3,0.6-0.6S15,2.9,14.7,2.9H4.8C3.5,2.9,2.4,4,2.4,5.4v13.2c0,1.4,1.1,2.5,2.4,2.5h12.6 c1.3,0,2.4-1.1,2.4-2.5V12C19.8,11.7,19.5,11.4,19.2,11.4z"/>
    </g>
  </symbol>
  <symbol id="kanban" viewBox="0 0 16 16">
    <path d="M14,0h-2.8H9.6H6.4H4.8H2C0.9,0,0,0.9,0,2v12c0,1.1,0.9,2,2,2h2.8h1.6h3.2h1.6H14c1.1,0,2-0.9,2-2V2C16,0.9,15.1,0,14,0z M2,14.8c-0.4,0-0.8-0.4-0.8-0.8V2c0-0.4,0.4-0.8,0.8-0.8h2.8v13.6H2z M6.4,14.8V1.2h3.2v13.6H6.4z M14.8,14c0,0.4-0.4,0.8-0.8,0.8 h-2.8V1.2H14c0.4,0,0.8,0.4,0.8,0.8V14z"/>
  </symbol>
  <symbol id='status' viewBox="0 0 16 16">
    <path d="M14.4,8c0,3.5-2.9,6.4-6.4,6.4c-3.5,0-6.4-2.9-6.4-6.4c0-3.5,2.9-6.4,6.4-6.4c0.1-0.4,0.3-0.8,0.5-1.2c-0.2,0-0.3,0-0.5,0 C3.8,0.4,0.4,3.8,0.4,8c0,4.2,3.4,7.6,7.6,7.6s7.6-3.4,7.6-7.6c0-0.2,0-0.3,0-0.5C15.2,7.7,14.8,7.9,14.4,8z"/>
    <circle cx="13" cy="3" r="3"/>
  </symbol>
   <symbol id='todo-check' viewBox="0 0 16 16">
    <circle cx="8" cy="8" r="6" stroke="white" fill="none"/>
    <path d="M5.33268 8L7.33268 10L10.666 6" stroke="white"/>
  </symbol>
  <symbol id='todo-uncheck' viewBox="0 0 16 16">
    <circle cx="8" cy="8" r="6" stroke="white" fill="none"/>
  </symbol>
  <symbol id="manage-statuses" viewBox="0 0 16 16">
    <path d="M13.3,8.3c-0.1,2.8-2.5,5.1-5.4,5.1C5,13.4,2.6,11,2.6,8c0-2.9,2.3-5.2,5.1-5.4c0.1-0.4,0.2-0.7,0.4-1c0,0-0.1,0-0.1,0 C4.4,1.7,1.6,4.5,1.6,8c0,3.5,2.9,6.4,6.4,6.4s6.4-2.9,6.4-6.4c0,0,0-0.1,0-0.1C14,8.1,13.7,8.2,13.3,8.3z"/>
    <ellipse cx="12.1" cy="3.9" rx="2.5" ry="2.5"/>
  </symbol>
</svg>
