<svg xmlns="http://www.w3.org/2000/svg" style="display: none;">
  <symbol id="task" viewBox="0 0 24 24">
    <g>
      <path d="M21.4,3.1c-0.2-0.2-0.6-0.2-0.8,0L11.1,13l-2.3-2.4c-0.2-0.2-0.6-0.2-0.8,0s-0.2,0.6,0,0.8l2.7,2.8 c0.1,0.1,0.3,0.2,0.4,0.2s0.3-0.1,0.4-0.2l9.9-10.4C21.7,3.7,21.7,3.3,21.4,3.1z"/>
      <path d="M19.2,11.4c-0.3,0-0.6,0.3-0.6,0.6v6.6c0,0.7-0.5,1.3-1.2,1.3H4.8c-0.7,0-1.2-0.6-1.2-1.3V5.4 c0-0.7,0.5-1.3,1.2-1.3h9.9c0.3,0,0.6-0.3,0.6-0.6S15,2.9,14.7,2.9H4.8C3.5,2.9,2.4,4,2.4,5.4v13.2c0,1.4,1.1,2.5,2.4,2.5h12.6 c1.3,0,2.4-1.1,2.4-2.5V12C19.8,11.7,19.5,11.4,19.2,11.4z"/>
    </g>
  </symbol>
  <symbol id="kanban" viewBox="0 0 20 20">
    <path fill-rule="evenodd" clip-rule="evenodd" d="M7.5 12.5H3.75L3.75 16.25H7.5V12.5ZM7.5 3.75H3.75L3.75 7.5H7.5V3.75ZM16.25 12.5H12.5V16.25H16.25V12.5ZM16.25 3.75H12.5V7.5H16.25V3.75ZM3.75 2.5C3.05964 2.5 2.5 3.05964 2.5 3.75V7.5C2.5 8.19036 3.05964 8.75 3.75 8.75H7.5C8.19036 8.75 8.75 8.19036 8.75 7.5V3.75C8.75 3.05964 8.19036 2.5 7.5 2.5H3.75ZM3.75 11.25C3.05964 11.25 2.5 11.8096 2.5 12.5V16.25C2.5 16.9404 3.05964 17.5 3.75 17.5H7.5C8.19036 17.5 8.75 16.9404 8.75 16.25V12.5C8.75 11.8096 8.19036 11.25 7.5 11.25H3.75ZM11.25 12.5C11.25 11.8096 11.8096 11.25 12.5 11.25H16.25C16.9404 11.25 17.5 11.8096 17.5 12.5V16.25C17.5 16.9404 16.9404 17.5 16.25 17.5H12.5C11.8096 17.5 11.25 16.9404 11.25 16.25V12.5ZM12.5 2.5C11.8096 2.5 11.25 3.05964 11.25 3.75V7.5C11.25 8.19036 11.8096 8.75 12.5 8.75H16.25C16.9404 8.75 17.5 8.19036 17.5 7.5V3.75C17.5 3.05964 16.9404 2.5 16.25 2.5H12.5Z" />
  </symbol>
  <symbol id='todo-check' viewBox="0 0 16 16">
    <path d="M8,14.5c-3.6,0-6.5-2.9-6.5-6.5S4.4,1.5,8,1.5s6.5,2.9,6.5,6.5S11.6,14.5,8,14.5z M8,2.5C5,2.5,2.5,5,2.5,8 c0,3,2.5,5.5,5.5,5.5c3,0,5.5-2.5,5.5-5.5C13.5,5,11,2.5,8,2.5z"/>
    <polygon points="7.4,10.7 5,8.4 5.7,7.6 7.3,9.3 10.3,5.7 11,6.3 "/>
  </symbol>
  <symbol id='todo-uncheck' viewBox="0 0 16 16">
    <path d="M8,14.5c-3.6,0-6.5-2.9-6.5-6.5S4.4,1.5,8,1.5s6.5,2.9,6.5,6.5S11.6,14.5,8,14.5z M8,2.5C5,2.5,2.5,5,2.5,8 c0,3,2.5,5.5,5.5,5.5c3,0,5.5-2.5,5.5-5.5C13.5,5,11,2.5,8,2.5z"/>
  </symbol>
  <symbol id="manage-templates" viewBox="0 0 16 16">
    <path d="M13.3,8.3c-0.1,2.8-2.5,5.1-5.4,5.1C5,13.4,2.6,11,2.6,8c0-2.9,2.3-5.2,5.1-5.4c0.1-0.4,0.2-0.7,0.4-1c0,0-0.1,0-0.1,0 C4.4,1.7,1.6,4.5,1.6,8c0,3.5,2.9,6.4,6.4,6.4s6.4-2.9,6.4-6.4c0,0,0-0.1,0-0.1C14,8.1,13.7,8.2,13.3,8.3z"/>
    <ellipse cx="12.1" cy="3.9" rx="2.5" ry="2.5"/>
  </symbol>
  <symbol id="task-state" viewBox="0 0 16 16">
    <path d="M12.2,8.2c-2.4,0-4.3-1.9-4.3-4.3c0-0.6,0.1-1.2,0.3-1.7c-0.1,0-0.1,0-0.2,0C4.7,2.2,2.1,4.8,2.1,8c0,3.2,2.6,5.9,5.9,5.9c3.2,0,5.9-2.6,5.9-5.9c0-0.1,0-0.1,0-0.2C13.3,8.1,12.7,8.2,12.2,8.2z" />
    <circle class="st0" cx="12.1" cy="3.8" r="2.5" />
  </symbol>
  <symbol id="dashboard" viewBox="0 0 256 256">
    <g style="stroke:none;stroke-width:0;stroke-dasharray:none;stroke-linecap:butt;stroke-linejoin:miter;stroke-miterlimit:10;">
      <path d="M27.429 72.429a4 4 0 0 1-4-4v-11.8a4 4 0 0 1 8 0v11.8a4 4 0 0 1-4 4zm17.571 0a4 4 0 0 1-4-4V45a4 4 0 0 1 8 0v23.429a4 4 0 0 1-4 4zm17.571 0a4 4 0 0 1-4-4V21.571a4 4 0 0 1 8 0v46.857a4 4 0 0 1-4 4.001z" style="stroke:none;stroke-width:1;stroke-dasharray:none;stroke-linecap:butt;stroke-linejoin:miter;stroke-miterlimit:10;" transform="matrix(2.8 0 0 2.8 1.964 1.964)"/>
      <path d="M77.403 90H12.597C5.651 90 0 84.35 0 77.403V12.597C0 5.651 5.651 0 12.597 0h64.807C84.35 0 90 5.651 90 12.597v64.807C90 84.35 84.35 90 77.403 90zM12.597 8A4.602 4.602 0 0 0 8 12.597v64.807A4.602 4.602 0 0 0 12.597 82h64.807A4.602 4.602 0 0 0 82 77.403V12.597A4.602 4.602 0 0 0 77.403 8H12.597z" style="stroke:none;stroke-width:1;stroke-dasharray:none;stroke-linecap:butt;stroke-linejoin:miter;stroke-miterlimit:10;" transform="matrix(2.8 0 0 2.8 1.964 1.964)"/>
    </g>
  </symbol>
</svg>
