<svg xmlns="http://www.w3.org/2000/svg" style="display: none;">
  <symbol id="task" viewBox="0 0 24 24">
    <g>
      <path d="M21.4,3.1c-0.2-0.2-0.6-0.2-0.8,0L11.1,13l-2.3-2.4c-0.2-0.2-0.6-0.2-0.8,0s-0.2,0.6,0,0.8l2.7,2.8 c0.1,0.1,0.3,0.2,0.4,0.2s0.3-0.1,0.4-0.2l9.9-10.4C21.7,3.7,21.7,3.3,21.4,3.1z"/>
      <path d="M19.2,11.4c-0.3,0-0.6,0.3-0.6,0.6v6.6c0,0.7-0.5,1.3-1.2,1.3H4.8c-0.7,0-1.2-0.6-1.2-1.3V5.4 c0-0.7,0.5-1.3,1.2-1.3h9.9c0.3,0,0.6-0.3,0.6-0.6S15,2.9,14.7,2.9H4.8C3.5,2.9,2.4,4,2.4,5.4v13.2c0,1.4,1.1,2.5,2.4,2.5h12.6 c1.3,0,2.4-1.1,2.4-2.5V12C19.8,11.7,19.5,11.4,19.2,11.4z"/>
    </g>
  </symbol>
  <symbol id="kanban" viewBox="0 0 16 16">
    <path d="M1 2.6C1 2.03995 1 1.75992 1.10899 1.54601C1.20487 1.35785 1.35785 1.20487 1.54601 1.10899C1.75992 1 2.03995 1 2.6 1H5.4C5.96005 1 6.24008 1 6.45399 1.10899C6.64215 1.20487 6.79513 1.35785 6.89101 1.54601C7 1.75992 7 2.03995 7 2.6V3.4C7 3.96005 7 4.24008 6.89101 4.45399C6.79513 4.64215 6.64215 4.79513 6.45399 4.89101C6.24008 5 5.96005 5 5.4 5H2.6C2.03995 5 1.75992 5 1.54601 4.89101C1.35785 4.79513 1.20487 4.64215 1.10899 4.45399C1 4.24008 1 3.96005 1 3.4V2.6Z" />
    <path d="M9 2.6C9 2.03995 9 1.75992 9.10899 1.54601C9.20487 1.35785 9.35785 1.20487 9.54601 1.10899C9.75992 1 10.0399 1 10.6 1H13.4C13.9601 1 14.2401 1 14.454 1.10899C14.6422 1.20487 14.7951 1.35785 14.891 1.54601C15 1.75992 15 2.03995 15 2.6V3.4C15 3.96005 15 4.24008 14.891 4.45399C14.7951 4.64215 14.6422 4.79513 14.454 4.89101C14.2401 5 13.9601 5 13.4 5H10.6C10.0399 5 9.75992 5 9.54601 4.89101C9.35785 4.79513 9.20487 4.64215 9.10899 4.45399C9 4.24008 9 3.96005 9 3.4V2.6Z" />
    <path d="M1 7.6C1 7.03995 1 6.75992 1.10899 6.54601C1.20487 6.35785 1.35785 6.20487 1.54601 6.10899C1.75992 6 2.03995 6 2.6 6H5.4C5.96005 6 6.24008 6 6.45399 6.10899C6.64215 6.20487 6.79513 6.35785 6.89101 6.54601C7 6.75992 7 7.03995 7 7.6V8.4C7 8.96005 7 9.24008 6.89101 9.45399C6.79513 9.64215 6.64215 9.79513 6.45399 9.89101C6.24008 10 5.96005 10 5.4 10H2.6C2.03995 10 1.75992 10 1.54601 9.89101C1.35785 9.79513 1.20487 9.64215 1.10899 9.45399C1 9.24008 1 8.96005 1 8.4V7.6Z" />
    <path d="M9 7.6C9 7.03995 9 6.75992 9.10899 6.54601C9.20487 6.35785 9.35785 6.20487 9.54601 6.10899C9.75992 6 10.0399 6 10.6 6H13.4C13.9601 6 14.2401 6 14.454 6.10899C14.6422 6.20487 14.7951 6.35785 14.891 6.54601C15 6.75992 15 7.03995 15 7.6V8.4C15 8.96005 15 9.24008 14.891 9.45399C14.7951 9.64215 14.6422 9.79513 14.454 9.89101C14.2401 10 13.9601 10 13.4 10H10.6C10.0399 10 9.75992 10 9.54601 9.89101C9.35785 9.79513 9.20487 9.64215 9.10899 9.45399C9 9.24008 9 8.96005 9 8.4V7.6Z" />
    <path d="M1 12.6C1 12.0399 1 11.7599 1.10899 11.546C1.20487 11.3578 1.35785 11.2049 1.54601 11.109C1.75992 11 2.03995 11 2.6 11H5.4C5.96005 11 6.24008 11 6.45399 11.109C6.64215 11.2049 6.79513 11.3578 6.89101 11.546C7 11.7599 7 12.0399 7 12.6V13.4C7 13.9601 7 14.2401 6.89101 14.454C6.79513 14.6422 6.64215 14.7951 6.45399 14.891C6.24008 15 5.96005 15 5.4 15H2.6C2.03995 15 1.75992 15 1.54601 14.891C1.35785 14.7951 1.20487 14.6422 1.10899 14.454C1 14.2401 1 13.9601 1 13.4V12.6Z" />
    <path d="M9 12.6C9 12.0399 9 11.7599 9.10899 11.546C9.20487 11.3578 9.35785 11.2049 9.54601 11.109C9.75992 11 10.0399 11 10.6 11H13.4C13.9601 11 14.2401 11 14.454 11.109C14.6422 11.2049 14.7951 11.3578 14.891 11.546C15 11.7599 15 12.0399 15 12.6V13.4C15 13.9601 15 14.2401 14.891 14.454C14.7951 14.6422 14.6422 14.7951 14.454 14.891C14.2401 15 13.9601 15 13.4 15H10.6C10.0399 15 9.75992 15 9.54601 14.891C9.35785 14.7951 9.20487 14.6422 9.10899 14.454C9 14.2401 9 13.9601 9 13.4V12.6Z" />
  </symbol>
  <symbol id='todo-check' viewBox="0 0 16 16">
    <path d="M8,14.5c-3.6,0-6.5-2.9-6.5-6.5S4.4,1.5,8,1.5s6.5,2.9,6.5,6.5S11.6,14.5,8,14.5z M8,2.5C5,2.5,2.5,5,2.5,8 c0,3,2.5,5.5,5.5,5.5c3,0,5.5-2.5,5.5-5.5C13.5,5,11,2.5,8,2.5z"/>
    <polygon points="7.4,10.7 5,8.4 5.7,7.6 7.3,9.3 10.3,5.7 11,6.3 "/>
  </symbol>
  <symbol id='todo-uncheck' viewBox="0 0 16 16">
    <path d="M8,14.5c-3.6,0-6.5-2.9-6.5-6.5S4.4,1.5,8,1.5s6.5,2.9,6.5,6.5S11.6,14.5,8,14.5z M8,2.5C5,2.5,2.5,5,2.5,8 c0,3,2.5,5.5,5.5,5.5c3,0,5.5-2.5,5.5-5.5C13.5,5,11,2.5,8,2.5z"/>
  </symbol>
  <symbol id="manage-templates" viewBox="0 0 16 16">
    <path d="M13.3,8.3c-0.1,2.8-2.5,5.1-5.4,5.1C5,13.4,2.6,11,2.6,8c0-2.9,2.3-5.2,5.1-5.4c0.1-0.4,0.2-0.7,0.4-1c0,0-0.1,0-0.1,0 C4.4,1.7,1.6,4.5,1.6,8c0,3.5,2.9,6.4,6.4,6.4s6.4-2.9,6.4-6.4c0,0,0-0.1,0-0.1C14,8.1,13.7,8.2,13.3,8.3z"/>
    <ellipse cx="12.1" cy="3.9" rx="2.5" ry="2.5"/>
  </symbol>
  <symbol id="task-state" viewBox="0 0 16 16">
    <path d="M12.2,8.2c-2.4,0-4.3-1.9-4.3-4.3c0-0.6,0.1-1.2,0.3-1.7c-0.1,0-0.1,0-0.2,0C4.7,2.2,2.1,4.8,2.1,8c0,3.2,2.6,5.9,5.9,5.9c3.2,0,5.9-2.6,5.9-5.9c0-0.1,0-0.1,0-0.2C13.3,8.1,12.7,8.2,12.2,8.2z" />
    <circle class="st0" cx="12.1" cy="3.8" r="2.5" />
  </symbol>
  <symbol id="dashboard" viewBox="0 0 256 256">
    <g style="stroke:none;stroke-width:0;stroke-dasharray:none;stroke-linecap:butt;stroke-linejoin:miter;stroke-miterlimit:10;">
      <path d="M27.429 72.429a4 4 0 0 1-4-4v-11.8a4 4 0 0 1 8 0v11.8a4 4 0 0 1-4 4zm17.571 0a4 4 0 0 1-4-4V45a4 4 0 0 1 8 0v23.429a4 4 0 0 1-4 4zm17.571 0a4 4 0 0 1-4-4V21.571a4 4 0 0 1 8 0v46.857a4 4 0 0 1-4 4.001z" style="stroke:none;stroke-width:1;stroke-dasharray:none;stroke-linecap:butt;stroke-linejoin:miter;stroke-miterlimit:10;" transform="matrix(2.8 0 0 2.8 1.964 1.964)"/>
      <path d="M77.403 90H12.597C5.651 90 0 84.35 0 77.403V12.597C0 5.651 5.651 0 12.597 0h64.807C84.35 0 90 5.651 90 12.597v64.807C90 84.35 84.35 90 77.403 90zM12.597 8A4.602 4.602 0 0 0 8 12.597v64.807A4.602 4.602 0 0 0 12.597 82h64.807A4.602 4.602 0 0 0 82 77.403V12.597A4.602 4.602 0 0 0 77.403 8H12.597z" style="stroke:none;stroke-width:1;stroke-dasharray:none;stroke-linecap:butt;stroke-linejoin:miter;stroke-miterlimit:10;" transform="matrix(2.8 0 0 2.8 1.964 1.964)"/>
    </g>
  </symbol>
</svg>
