<svg xmlns="http://www.w3.org/2000/svg" style="display: none;">
  <symbol id="task" viewBox="0 0 24 24">
    <g>
      <path
        d="M21.4,3.1c-0.2-0.2-0.6-0.2-0.8,0L11.1,13l-2.3-2.4c-0.2-0.2-0.6-0.2-0.8,0s-0.2,0.6,0,0.8l2.7,2.8 c0.1,0.1,0.3,0.2,0.4,0.2s0.3-0.1,0.4-0.2l9.9-10.4C21.7,3.7,21.7,3.3,21.4,3.1z" />
      <path
        d="M19.2,11.4c-0.3,0-0.6,0.3-0.6,0.6v6.6c0,0.7-0.5,1.3-1.2,1.3H4.8c-0.7,0-1.2-0.6-1.2-1.3V5.4 c0-0.7,0.5-1.3,1.2-1.3h9.9c0.3,0,0.6-0.3,0.6-0.6S15,2.9,14.7,2.9H4.8C3.5,2.9,2.4,4,2.4,5.4v13.2c0,1.4,1.1,2.5,2.4,2.5h12.6 c1.3,0,2.4-1.1,2.4-2.5V12C19.8,11.7,19.5,11.4,19.2,11.4z" />
    </g>
  </symbol>
  <symbol id="kanban" viewBox="0 0 32 32">
    <path d="M12.8,2H3C2.4,2,2,2.4,2,3s0.4,1,1,1h9.8c0.6,0,1-0.4,1-1S13.3,2,12.8,2z" />
    <path d="M19.2,4H29c0.6,0,1-0.4,1-1s-0.4-1-1-1h-9.8c-0.6,0-1,0.4-1,1S18.7,4,19.2,4z" />
    <path d="M9.5,8.5H6.2C3.9,8.5,2,10.4,2,12.8v13C2,28.1,3.9,30,6.2,30h3.2c2.3,0,4.2-1.9,4.2-4.2v-13C13.8,10.4,11.8,8.5,9.5,8.5zM11.8,25.8c0,1.2-1,2.2-2.2,2.2H6.2C5,28,4,27,4,25.8v-13c0-1.2,1-2.2,2.2-2.2h3.2c1.2,0,2.2,1,2.2,2.2V25.8z" />
    <path d="M25.8,8.5h-3.2c-2.3,0-4.2,1.9-4.2,4.2V16c0,2.3,1.9,4.2,4.2,4.2h3.2c2.3,0,4.2-1.9,4.2-4.2v-3.2C30,10.4,28.1,8.5,25.8,8.5z M28,16c0,1.2-1,2.2-2.2,2.2h-3.2c-1.2,0-2.2-1-2.2-2.2v-3.2c0-1.2,1-2.2,2.2-2.2h3.2c1.2,0,2.2,1,2.2,2.2V16z" />
  </symbol>
  <symbol id='todo-check' viewBox="0 0 16 16">
    <path
      d="M8,14.5c-3.6,0-6.5-2.9-6.5-6.5S4.4,1.5,8,1.5s6.5,2.9,6.5,6.5S11.6,14.5,8,14.5z M8,2.5C5,2.5,2.5,5,2.5,8 c0,3,2.5,5.5,5.5,5.5c3,0,5.5-2.5,5.5-5.5C13.5,5,11,2.5,8,2.5z" />
    <polygon points="7.4,10.7 5,8.4 5.7,7.6 7.3,9.3 10.3,5.7 11,6.3 " />
  </symbol>
  <symbol id='todo-uncheck' viewBox="0 0 16 16">
    <path
      d="M8,14.5c-3.6,0-6.5-2.9-6.5-6.5S4.4,1.5,8,1.5s6.5,2.9,6.5,6.5S11.6,14.5,8,14.5z M8,2.5C5,2.5,2.5,5,2.5,8 c0,3,2.5,5.5,5.5,5.5c3,0,5.5-2.5,5.5-5.5C13.5,5,11,2.5,8,2.5z" />
  </symbol>
  <symbol id="manage-templates" viewBox="0 0 32 32">
    <path fill-rule="evenodd" clip-rule="evenodd"
      d="M19.1058 4.4089C16.5542 3.7252 13.8484 3.90255 11.4078 4.91345C8.96729 5.92435 6.92852 7.7123 5.60772 10C4.28691 12.2877 3.75788 14.9473 4.10268 17.5663C4.44748 20.1853 5.64684 22.6174 7.51474 24.4853C9.38264 26.3532 11.8147 27.5525 14.4337 27.8973C17.0527 28.2421 19.7123 27.7131 22 26.3923C24.2877 25.0715 26.0757 23.0327 27.0866 20.5922C28.0975 18.1517 28.2748 15.4458 27.5911 12.8942C27.4482 12.3607 27.7648 11.8124 28.2982 11.6694C28.8317 11.5265 29.38 11.8431 29.523 12.3765C30.3206 15.3534 30.1137 18.5103 28.9343 21.3576C27.7549 24.2049 25.669 26.5834 23 28.1244C20.331 29.6653 17.2282 30.2825 14.1727 29.8802C11.1171 29.478 8.27974 28.0787 6.10052 25.8995C3.92131 23.7203 2.52206 20.8829 2.11979 17.8274C1.71753 14.7719 2.33473 11.669 3.87567 9C5.41661 6.33102 7.79517 4.24507 10.6425 3.06569C13.4897 1.88631 16.6466 1.67939 19.6235 2.47704C20.157 2.61999 20.4735 3.16832 20.3306 3.70179C20.1877 4.23526 19.6393 4.55184 19.1058 4.4089Z" />
    <path fill-rule="evenodd" clip-rule="evenodd"
      d="M26 8.00001C27.1046 8.00001 28 7.10457 28 6.00001C28 4.89544 27.1046 4.00001 26 4.00001C24.8955 4.00001 24 4.89544 24 6.00001C24 7.10457 24.8955 8.00001 26 8.00001ZM26 10C28.2092 10 30 8.20914 30 6.00001C30 3.79087 28.2092 2.00001 26 2.00001C23.7909 2.00001 22 3.79087 22 6.00001C22 8.20914 23.7909 10 26 10Z" />
  </symbol>
  <symbol id="task-state" viewBox="0 0 32 32">
    <path fill-rule="evenodd" clip-rule="evenodd"
      d="M19.1058 4.4089C16.5542 3.7252 13.8484 3.90255 11.4078 4.91345C8.96729 5.92435 6.92852 7.7123 5.60772 10C4.28691 12.2877 3.75788 14.9473 4.10268 17.5663C4.44748 20.1853 5.64684 22.6174 7.51474 24.4853C9.38264 26.3532 11.8147 27.5525 14.4337 27.8973C17.0527 28.2421 19.7123 27.7131 22 26.3923C24.2877 25.0715 26.0757 23.0327 27.0866 20.5922C28.0975 18.1517 28.2748 15.4458 27.5911 12.8942C27.4482 12.3607 27.7648 11.8124 28.2982 11.6694C28.8317 11.5265 29.38 11.8431 29.523 12.3765C30.3206 15.3534 30.1137 18.5103 28.9343 21.3576C27.7549 24.2049 25.669 26.5834 23 28.1244C20.331 29.6653 17.2282 30.2825 14.1727 29.8802C11.1171 29.478 8.27974 28.0787 6.10052 25.8995C3.92131 23.7203 2.52206 20.8829 2.11979 17.8274C1.71753 14.7719 2.33473 11.669 3.87567 9C5.41661 6.33102 7.79517 4.24507 10.6425 3.06569C13.4897 1.88631 16.6466 1.67939 19.6235 2.47704C20.157 2.61999 20.4735 3.16832 20.3306 3.70179C20.1877 4.23526 19.6393 4.55184 19.1058 4.4089Z" />
    <path fill-rule="evenodd" clip-rule="evenodd"
      d="M26 8.00001C27.1046 8.00001 28 7.10457 28 6.00001C28 4.89544 27.1046 4.00001 26 4.00001C24.8955 4.00001 24 4.89544 24 6.00001C24 7.10457 24.8955 8.00001 26 8.00001ZM26 10C28.2092 10 30 8.20914 30 6.00001C30 3.79087 28.2092 2.00001 26 2.00001C23.7909 2.00001 22 3.79087 22 6.00001C22 8.20914 23.7909 10 26 10Z" />
  </symbol>
  <symbol id="dashboard" viewBox="0 0 256 256">
    <g
      style="stroke:none;stroke-width:0;stroke-dasharray:none;stroke-linecap:butt;stroke-linejoin:miter;stroke-miterlimit:10;">
      <path
        d="M27.429 72.429a4 4 0 0 1-4-4v-11.8a4 4 0 0 1 8 0v11.8a4 4 0 0 1-4 4zm17.571 0a4 4 0 0 1-4-4V45a4 4 0 0 1 8 0v23.429a4 4 0 0 1-4 4zm17.571 0a4 4 0 0 1-4-4V21.571a4 4 0 0 1 8 0v46.857a4 4 0 0 1-4 4.001z"
        style="stroke:none;stroke-width:1;stroke-dasharray:none;stroke-linecap:butt;stroke-linejoin:miter;stroke-miterlimit:10;"
        transform="matrix(2.8 0 0 2.8 1.964 1.964)" />
      <path
        d="M77.403 90H12.597C5.651 90 0 84.35 0 77.403V12.597C0 5.651 5.651 0 12.597 0h64.807C84.35 0 90 5.651 90 12.597v64.807C90 84.35 84.35 90 77.403 90zM12.597 8A4.602 4.602 0 0 0 8 12.597v64.807A4.602 4.602 0 0 0 12.597 82h64.807A4.602 4.602 0 0 0 82 77.403V12.597A4.602 4.602 0 0 0 77.403 8H12.597z"
        style="stroke:none;stroke-width:1;stroke-dasharray:none;stroke-linecap:butt;stroke-linejoin:miter;stroke-miterlimit:10;"
        transform="matrix(2.8 0 0 2.8 1.964 1.964)" />
    </g>
  </symbol>

  <symbol id='status-backlog' viewBox="0 0 16 16">
    <path
      fill-rule="evenodd"
      clip-rule="evenodd"
      d="M6.97975 1.07389C3.92356 1.52014 1.50831 3.94118 1.0708 7.0002H2.08287C2.50337 4.49345 4.47822 2.51374 6.9825 2.08599L6.97975 1.07389ZM8.98249 2.08014L8.97974 1.06812C12.055 1.49885 14.4896 3.92773 14.9291 7.0002H13.917C13.4945 4.48183 11.5033 2.4954 8.98249 2.08014ZM9.01467 13.9146C11.5201 13.4879 13.4962 11.5077 13.917 9.00019H14.929C14.4913 12.06 12.0748 14.4815 9.01742 14.9267L9.01467 13.9146ZM2.0829 9.0002C2.50529 11.5176 4.49522 13.5034 7.01468 13.9196L7.01743 14.9317C3.94351 14.4999 1.51022 12.0717 1.07083 9.0002H2.0829Z"
    />
  </symbol>
  <symbol id='status-canceled' viewBox="0 0 16 16">
    <path
      fill-rule="evenodd"
      clip-rule="evenodd"
      d="M8,1C4.1,1,1,4.1,1,8c0,3.9,3.1,7,7,7c3.9,0,7-3.1,7-7C15,4.1,11.9,1,8,1z M8,14c-3.3,0-6-2.7-6-6s2.7-6,6-6s6,2.7,6,6S11.3,14,8,14z"
    />
    <path
      fill-rule="evenodd"
      clip-rule="evenodd"
      d="M10.5,5.5c-0.2-0.2-0.6-0.2-0.8,0L8,7.2L6.3,5.5c-0.2-0.2-0.6-0.2-0.8,0s-0.2,0.6,0,0.8L7.2,8L5.5,9.7c-0.2,0.2-0.2,0.6,0,0.8s0.6,0.2,0.8,0L8,8.8l1.7,1.7c0.2,0.2,0.6,0.2,0.8,0c0.2-0.2,0.2-0.6,0-0.8L8.8,8l1.7-1.7C10.8,6.1,10.8,5.7,10.5,5.5z"
    />
  </symbol>
  <symbol id='status-completed' viewBox="0 0 16 16">
    <path
      d="M8,1C4.1,1,1,4.1,1,8c0,3.9,3.1,7,7,7c3.9,0,7-3.1,7-7C15,4.1,11.9,1,8,1z M8,14c-3.3,0-6-2.7-6-6s2.7-6,6-6s6,2.7,6,6S11.3,14,8,14z"
    />
    <path
      d="M10.6,6.1L7.5,9.2L5.9,7.6c-0.2-0.2-0.6-0.2-0.8,0s-0.2,0.6,0,0.8l2,2c0.1,0.1,0.3,0.2,0.4,0.2s0.3-0.1,0.4-0.2l3.5-3.5c0.2-0.2,0.2-0.6,0-0.8S10.8,5.8,10.6,6.1z"
    />
  </symbol>
  <symbol id='status-unstarted' viewBox="0 0 16 16">
    <path
      fill-rule="evenodd"
      clip-rule="evenodd"
      d="M8 14C11.3137 14 14 11.3137 14 8C14 4.68629 11.3137 2 8 2C4.68629 2 2 4.68629 2 8C2 11.3137 4.68629 14 8 14ZM8 15C11.866 15 15 11.866 15 8C15 4.13401 11.866 1 8 1C4.13401 1 1 4.13401 1 8C1 11.866 4.13401 15 8 15Z"
    />
  </symbol>
  <symbol id='status-started' viewBox="0 0 16 16">
    <g transform="rotate(-90deg)">
      <path
        fill-rule="evenodd"
        clip-rule="evenodd"
        d="M8 14C11.3137 14 14 11.3137 14 8C14 4.68629 11.3137 2 8 2C4.68629 2 2 4.68629 2 8C2 11.3137 4.68629 14 8 14ZM8 15C11.866 15 15 11.866 15 8C15 4.13401 11.866 1 8 1C4.13401 1 1 4.13401 1 8C1 11.866 4.13401 15 8 15Z"
      />
      <path
        d="M 4.5 4.5 L 9 4.5 A 4.5 4.5 0 1 1 {Math.cos(Math.PI - 0.01) * 4.5 + 4.5} {Math.sin(Math.PI - 0.01) * 4.5 +
        4.5} Z"
        transform="translate(3.5,3.5)"
      />
    </g>
  </symbol>
  <symbol id='status-started-1-12' viewBox="0 0 16 16">
    <g transform="rotate(-90deg)">
      <path
        fill-rule="evenodd"
        clip-rule="evenodd"
        d="M8 14C11.3137 14 14 11.3137 14 8C14 4.68629 11.3137 2 8 2C4.68629 2 2 4.68629 2 8C2 11.3137 4.68629 14 8 14ZM8 15C11.866 15 15 11.866 15 8C15 4.13401 11.866 1 8 1C4.13401 1 1 4.13401 1 8C1 11.866 4.13401 15 8 15Z"
      />
      <path d="M 4.5 4.5 L 9 4.5 A 4.5 4.5 0 0 1 8.41941908793979 6.710917007283002 Z" transform="translate(3.5,3.5)"/>
    </g>
  </symbol>
  <symbol id='status-started-2-12' viewBox="0 0 16 16">
    <g transform="rotate(-90deg)">
      <path
        fill-rule="evenodd"
        clip-rule="evenodd"
        d="M8 14C11.3137 14 14 11.3137 14 8C14 4.68629 11.3137 2 8 2C4.68629 2 2 4.68629 2 8C2 11.3137 4.68629 14 8 14ZM8 15C11.866 15 15 11.866 15 8C15 4.13401 11.866 1 8 1C4.13401 1 1 4.13401 1 8C1 11.866 4.13401 15 8 15Z"
      />
      <path d="M 4.5 4.5 L 9 4.5 A 4.5 4.5 0 0 1 6.788857994591991 8.374419837936038 Z" transform="translate(3.5,3.5)"/>
    </g>
  </symbol>
  <symbol id='status-started-3-12' viewBox="0 0 16 16">
    <g transform="rotate(-90deg)">
      <path
        fill-rule="evenodd"
        clip-rule="evenodd"
        d="M8 14C11.3137 14 14 11.3137 14 8C14 4.68629 11.3137 2 8 2C4.68629 2 2 4.68629 2 8C2 11.3137 4.68629 14 8 14ZM8 15C11.866 15 15 11.866 15 8C15 4.13401 11.866 1 8 1C4.13401 1 1 4.13401 1 8C1 11.866 4.13401 15 8 15Z"
      />
      <path d="M 4.5 4.5 L 9 4.5 A 4.5 4.5 0 0 1 4.54499925000375 8.999775001874994 Z" transform="translate(3.5,3.5)"/>
    </g>
  </symbol>
  <symbol id='status-started-4-12' viewBox="0 0 16 16">
    <g transform="rotate(-90deg)">
      <path
        fill-rule="evenodd"
        clip-rule="evenodd"
        d="M8 14C11.3137 14 14 11.3137 14 8C14 4.68629 11.3137 2 8 2C4.68629 2 2 4.68629 2 8C2 11.3137 4.68629 14 8 14ZM8 15C11.866 15 15 11.866 15 8C15 4.13401 11.866 1 8 1C4.13401 1 1 4.13401 1 8C1 11.866 4.13401 15 8 15Z"
      />
      <path d="M 4.5 4.5 L 9 4.5 A 4.5 4.5 0 0 1 2.2890829927169976 8.41941908793979 Z" transform="translate(3.5,3.5)"/>
    </g>
  </symbol>
  <symbol id='status-started-5-12' viewBox="0 0 16 16">
    <g transform="rotate(-90deg)">
      <path
        fill-rule="evenodd"
        clip-rule="evenodd"
        d="M8 14C11.3137 14 14 11.3137 14 8C14 4.68629 11.3137 2 8 2C4.68629 2 2 4.68629 2 8C2 11.3137 4.68629 14 8 14ZM8 15C11.866 15 15 11.866 15 8C15 4.13401 11.866 1 8 1C4.13401 1 1 4.13401 1 8C1 11.866 4.13401 15 8 15Z"
      />
      <path d="M 4.5 4.5 L 9 4.5 A 4.5 4.5 0 0 1 0.6255801620639607 6.788857994591992 Z" transform="translate(3.5,3.5)"/>
    </g>
  </symbol>
  <symbol id='status-started-6-12' viewBox="0 0 16 16">
    <g transform="rotate(-90deg)">
      <path
        fill-rule="evenodd"
        clip-rule="evenodd"
        d="M8 14C11.3137 14 14 11.3137 14 8C14 4.68629 11.3137 2 8 2C4.68629 2 2 4.68629 2 8C2 11.3137 4.68629 14 8 14ZM8 15C11.866 15 15 11.866 15 8C15 4.13401 11.866 1 8 1C4.13401 1 1 4.13401 1 8C1 11.866 4.13401 15 8 15Z"
      />
      <path d="M 4.5 4.5 L 9 4.5 A 4.5 4.5 0 1 1 0.00022499812500598182 4.54499925000375 Z" transform="translate(3.5,3.5)"/>
    </g>
  </symbol>
  <symbol id='status-started-7-12' viewBox="0 0 16 16">
    <g transform="rotate(-90deg)">
      <path
        fill-rule="evenodd"
        clip-rule="evenodd"
        d="M8 14C11.3137 14 14 11.3137 14 8C14 4.68629 11.3137 2 8 2C4.68629 2 2 4.68629 2 8C2 11.3137 4.68629 14 8 14ZM8 15C11.866 15 15 11.866 15 8C15 4.13401 11.866 1 8 1C4.13401 1 1 4.13401 1 8C1 11.866 4.13401 15 8 15Z"
      />
      <path d="M 4.5 4.5 L 9 4.5 A 4.5 4.5 0 1 1 0.5805809120602103 2.289082992716998 Z" transform="translate(3.5,3.5)"/>
    </g>
  </symbol>
  <symbol id='status-started-8-12' viewBox="0 0 16 16">
    <g transform="rotate(-90deg)">
      <path
        fill-rule="evenodd"
        clip-rule="evenodd"
        d="M8 14C11.3137 14 14 11.3137 14 8C14 4.68629 11.3137 2 8 2C4.68629 2 2 4.68629 2 8C2 11.3137 4.68629 14 8 14ZM8 15C11.866 15 15 11.866 15 8C15 4.13401 11.866 1 8 1C4.13401 1 1 4.13401 1 8C1 11.866 4.13401 15 8 15Z"
      />
      <path d="M 4.5 4.5 L 9 4.5 A 4.5 4.5 0 1 1 2.211142005408008 0.6255801620639607 Z" transform="translate(3.5,3.5)"/>
    </g>
  </symbol>
  <symbol id='status-started-9-12' viewBox="0 0 16 16">
    <g transform="rotate(-90deg)">
      <path
        fill-rule="evenodd"
        clip-rule="evenodd"
        d="M8 14C11.3137 14 14 11.3137 14 8C14 4.68629 11.3137 2 8 2C4.68629 2 2 4.68629 2 8C2 11.3137 4.68629 14 8 14ZM8 15C11.866 15 15 11.866 15 8C15 4.13401 11.866 1 8 1C4.13401 1 1 4.13401 1 8C1 11.866 4.13401 15 8 15Z"
      />
      <path d="M 4.5 4.5 L 9 4.5 A 4.5 4.5 0 1 1 4.45500074999625 0.00022499812500598182 Z" transform="translate(3.5,3.5)"/>
    </g>
  </symbol>
  <symbol id='status-started-10-12' viewBox="0 0 16 16">
    <g transform="rotate(-90deg)">
      <path
        fill-rule="evenodd"
        clip-rule="evenodd"
        d="M8 14C11.3137 14 14 11.3137 14 8C14 4.68629 11.3137 2 8 2C4.68629 2 2 4.68629 2 8C2 11.3137 4.68629 14 8 14ZM8 15C11.866 15 15 11.866 15 8C15 4.13401 11.866 1 8 1C4.13401 1 1 4.13401 1 8C1 11.866 4.13401 15 8 15Z"
      />
      <path d="M 4.5 4.5 L 9 4.5 A 4.5 4.5 0 1 1 6.710917007283 0.580580912060209 Z" transform="translate(3.5,3.5)"/>
    </g>
  </symbol>
  <symbol id='status-started-11-12' viewBox="0 0 16 16">
    <g transform="rotate(-90deg)">
      <path
        fill-rule="evenodd"
        clip-rule="evenodd"
        d="M8 14C11.3137 14 14 11.3137 14 8C14 4.68629 11.3137 2 8 2C4.68629 2 2 4.68629 2 8C2 11.3137 4.68629 14 8 14ZM8 15C11.866 15 15 11.866 15 8C15 4.13401 11.866 1 8 1C4.13401 1 1 4.13401 1 8C1 11.866 4.13401 15 8 15Z"
      />
      <path d="M 4.5 4.5 L 9 4.5 A 4.5 4.5 0 1 1 8.374419837936038 2.2111420054080075 Z" transform="translate(3.5,3.5)"/>
    </g>
  </symbol>
  <symbol id='status-started-12-12' viewBox="0 0 16 16">
    <g transform="rotate(-90deg)">
      <path
        fill-rule="evenodd"
        clip-rule="evenodd"
        d="M8 14C11.3137 14 14 11.3137 14 8C14 4.68629 11.3137 2 8 2C4.68629 2 2 4.68629 2 8C2 11.3137 4.68629 14 8 14ZM8 15C11.866 15 15 11.866 15 8C15 4.13401 11.866 1 8 1C4.13401 1 1 4.13401 1 8C1 11.866 4.13401 15 8 15Z"
      />
      <path d="M 4.5 4.5 L 9 4.5 A 4.5 4.5 0 1 1 8.999775001874994 4.45500074999625 Z" transform="translate(3.5,3.5)"/>
    </g>
  </symbol>
</svg>