<svg xmlns="http://www.w3.org/2000/svg" style="display: none;">
  <symbol id="task" viewBox="0 0 24 24">
    <g>
      <path d="M21.4,3.1c-0.2-0.2-0.6-0.2-0.8,0L11.1,13l-2.3-2.4c-0.2-0.2-0.6-0.2-0.8,0s-0.2,0.6,0,0.8l2.7,2.8 c0.1,0.1,0.3,0.2,0.4,0.2s0.3-0.1,0.4-0.2l9.9-10.4C21.7,3.7,21.7,3.3,21.4,3.1z"/>
      <path d="M19.2,11.4c-0.3,0-0.6,0.3-0.6,0.6v6.6c0,0.7-0.5,1.3-1.2,1.3H4.8c-0.7,0-1.2-0.6-1.2-1.3V5.4 c0-0.7,0.5-1.3,1.2-1.3h9.9c0.3,0,0.6-0.3,0.6-0.6S15,2.9,14.7,2.9H4.8C3.5,2.9,2.4,4,2.4,5.4v13.2c0,1.4,1.1,2.5,2.4,2.5h12.6 c1.3,0,2.4-1.1,2.4-2.5V12C19.8,11.7,19.5,11.4,19.2,11.4z"/>
    </g>
  </symbol>
  <symbol id="kanban" viewBox="0 0 20 20">
    <path fill-rule="evenodd" clip-rule="evenodd" d="M7.5 12.5H3.75L3.75 16.25H7.5V12.5ZM7.5 3.75H3.75L3.75 7.5H7.5V3.75ZM16.25 12.5H12.5V16.25H16.25V12.5ZM16.25 3.75H12.5V7.5H16.25V3.75ZM3.75 2.5C3.05964 2.5 2.5 3.05964 2.5 3.75V7.5C2.5 8.19036 3.05964 8.75 3.75 8.75H7.5C8.19036 8.75 8.75 8.19036 8.75 7.5V3.75C8.75 3.05964 8.19036 2.5 7.5 2.5H3.75ZM3.75 11.25C3.05964 11.25 2.5 11.8096 2.5 12.5V16.25C2.5 16.9404 3.05964 17.5 3.75 17.5H7.5C8.19036 17.5 8.75 16.9404 8.75 16.25V12.5C8.75 11.8096 8.19036 11.25 7.5 11.25H3.75ZM11.25 12.5C11.25 11.8096 11.8096 11.25 12.5 11.25H16.25C16.9404 11.25 17.5 11.8096 17.5 12.5V16.25C17.5 16.9404 16.9404 17.5 16.25 17.5H12.5C11.8096 17.5 11.25 16.9404 11.25 16.25V12.5ZM12.5 2.5C11.8096 2.5 11.25 3.05964 11.25 3.75V7.5C11.25 8.19036 11.8096 8.75 12.5 8.75H16.25C16.9404 8.75 17.5 8.19036 17.5 7.5V3.75C17.5 3.05964 16.9404 2.5 16.25 2.5H12.5Z" />
  </symbol>
  <symbol id='todo-check' viewBox="0 0 16 16">
    <path d="M8,14.5c-3.6,0-6.5-2.9-6.5-6.5S4.4,1.5,8,1.5s6.5,2.9,6.5,6.5S11.6,14.5,8,14.5z M8,2.5C5,2.5,2.5,5,2.5,8 c0,3,2.5,5.5,5.5,5.5c3,0,5.5-2.5,5.5-5.5C13.5,5,11,2.5,8,2.5z"/>
    <polygon points="7.4,10.7 5,8.4 5.7,7.6 7.3,9.3 10.3,5.7 11,6.3 "/>
  </symbol>
  <symbol id='todo-uncheck' viewBox="0 0 16 16">
    <path d="M8,14.5c-3.6,0-6.5-2.9-6.5-6.5S4.4,1.5,8,1.5s6.5,2.9,6.5,6.5S11.6,14.5,8,14.5z M8,2.5C5,2.5,2.5,5,2.5,8 c0,3,2.5,5.5,5.5,5.5c3,0,5.5-2.5,5.5-5.5C13.5,5,11,2.5,8,2.5z"/>
  </symbol>
  <symbol id="manage-templates" viewBox="0 0 32 32">
    <path fill-rule="evenodd" clip-rule="evenodd" d="M19.1058 4.4089C16.5542 3.7252 13.8484 3.90255 11.4078 4.91345C8.96729 5.92435 6.92852 7.7123 5.60772 10C4.28691 12.2877 3.75788 14.9473 4.10268 17.5663C4.44748 20.1853 5.64684 22.6174 7.51474 24.4853C9.38264 26.3532 11.8147 27.5525 14.4337 27.8973C17.0527 28.2421 19.7123 27.7131 22 26.3923C24.2877 25.0715 26.0757 23.0327 27.0866 20.5922C28.0975 18.1517 28.2748 15.4458 27.5911 12.8942C27.4482 12.3607 27.7648 11.8124 28.2982 11.6694C28.8317 11.5265 29.38 11.8431 29.523 12.3765C30.3206 15.3534 30.1137 18.5103 28.9343 21.3576C27.7549 24.2049 25.669 26.5834 23 28.1244C20.331 29.6653 17.2282 30.2825 14.1727 29.8802C11.1171 29.478 8.27974 28.0787 6.10052 25.8995C3.92131 23.7203 2.52206 20.8829 2.11979 17.8274C1.71753 14.7719 2.33473 11.669 3.87567 9C5.41661 6.33102 7.79517 4.24507 10.6425 3.06569C13.4897 1.88631 16.6466 1.67939 19.6235 2.47704C20.157 2.61999 20.4735 3.16832 20.3306 3.70179C20.1877 4.23526 19.6393 4.55184 19.1058 4.4089Z" />
    <path fill-rule="evenodd" clip-rule="evenodd" d="M26 8.00001C27.1046 8.00001 28 7.10457 28 6.00001C28 4.89544 27.1046 4.00001 26 4.00001C24.8955 4.00001 24 4.89544 24 6.00001C24 7.10457 24.8955 8.00001 26 8.00001ZM26 10C28.2092 10 30 8.20914 30 6.00001C30 3.79087 28.2092 2.00001 26 2.00001C23.7909 2.00001 22 3.79087 22 6.00001C22 8.20914 23.7909 10 26 10Z" />
  </symbol>
  <symbol id="task-state" viewBox="0 0 32 32">
    <path fill-rule="evenodd" clip-rule="evenodd" d="M19.1058 4.4089C16.5542 3.7252 13.8484 3.90255 11.4078 4.91345C8.96729 5.92435 6.92852 7.7123 5.60772 10C4.28691 12.2877 3.75788 14.9473 4.10268 17.5663C4.44748 20.1853 5.64684 22.6174 7.51474 24.4853C9.38264 26.3532 11.8147 27.5525 14.4337 27.8973C17.0527 28.2421 19.7123 27.7131 22 26.3923C24.2877 25.0715 26.0757 23.0327 27.0866 20.5922C28.0975 18.1517 28.2748 15.4458 27.5911 12.8942C27.4482 12.3607 27.7648 11.8124 28.2982 11.6694C28.8317 11.5265 29.38 11.8431 29.523 12.3765C30.3206 15.3534 30.1137 18.5103 28.9343 21.3576C27.7549 24.2049 25.669 26.5834 23 28.1244C20.331 29.6653 17.2282 30.2825 14.1727 29.8802C11.1171 29.478 8.27974 28.0787 6.10052 25.8995C3.92131 23.7203 2.52206 20.8829 2.11979 17.8274C1.71753 14.7719 2.33473 11.669 3.87567 9C5.41661 6.33102 7.79517 4.24507 10.6425 3.06569C13.4897 1.88631 16.6466 1.67939 19.6235 2.47704C20.157 2.61999 20.4735 3.16832 20.3306 3.70179C20.1877 4.23526 19.6393 4.55184 19.1058 4.4089Z" />
    <path fill-rule="evenodd" clip-rule="evenodd" d="M26 8.00001C27.1046 8.00001 28 7.10457 28 6.00001C28 4.89544 27.1046 4.00001 26 4.00001C24.8955 4.00001 24 4.89544 24 6.00001C24 7.10457 24.8955 8.00001 26 8.00001ZM26 10C28.2092 10 30 8.20914 30 6.00001C30 3.79087 28.2092 2.00001 26 2.00001C23.7909 2.00001 22 3.79087 22 6.00001C22 8.20914 23.7909 10 26 10Z" />
  </symbol>
  <symbol id="dashboard" viewBox="0 0 256 256">
    <g style="stroke:none;stroke-width:0;stroke-dasharray:none;stroke-linecap:butt;stroke-linejoin:miter;stroke-miterlimit:10;">
      <path d="M27.429 72.429a4 4 0 0 1-4-4v-11.8a4 4 0 0 1 8 0v11.8a4 4 0 0 1-4 4zm17.571 0a4 4 0 0 1-4-4V45a4 4 0 0 1 8 0v23.429a4 4 0 0 1-4 4zm17.571 0a4 4 0 0 1-4-4V21.571a4 4 0 0 1 8 0v46.857a4 4 0 0 1-4 4.001z" style="stroke:none;stroke-width:1;stroke-dasharray:none;stroke-linecap:butt;stroke-linejoin:miter;stroke-miterlimit:10;" transform="matrix(2.8 0 0 2.8 1.964 1.964)"/>
      <path d="M77.403 90H12.597C5.651 90 0 84.35 0 77.403V12.597C0 5.651 5.651 0 12.597 0h64.807C84.35 0 90 5.651 90 12.597v64.807C90 84.35 84.35 90 77.403 90zM12.597 8A4.602 4.602 0 0 0 8 12.597v64.807A4.602 4.602 0 0 0 12.597 82h64.807A4.602 4.602 0 0 0 82 77.403V12.597A4.602 4.602 0 0 0 77.403 8H12.597z" style="stroke:none;stroke-width:1;stroke-dasharray:none;stroke-linecap:butt;stroke-linejoin:miter;stroke-miterlimit:10;" transform="matrix(2.8 0 0 2.8 1.964 1.964)"/>
    </g>
  </symbol>
</svg>
