<!-- ALL HASHTAGs -->
<svg xmlns="http://www.w3.org/2000/svg" style="display: none;">
  <symbol id="board" viewBox="0 0 24 24">
    <path d="M10.6,3.9H4.5c-0.3,0-0.6,0.3-0.6,0.6v3.7c0,0.3,0.3,0.6,0.6,0.6h6.1c0.3,0,0.6-0.3,0.6-0.6V4.5C11.2,4.1,11,3.9,10.6,3.9zM10,7.6H5.1V5.1H10V7.6z" />
    <path d="M19.5,15.2h-6.1c-0.3,0-0.6,0.3-0.6,0.6v3.7c0,0.3,0.3,0.6,0.6,0.6h6.1c0.3,0,0.6-0.3,0.6-0.6v-3.7C20.1,15.5,19.9,15.2,19.5,15.2z M18.9,18.9H14v-2.5h4.9V18.9z" />
    <path d="M10.6,10.3H4.5c-0.3,0-0.6,0.3-0.6,0.6v8.6c0,0.3,0.3,0.6,0.6,0.6h6.1c0.3,0,0.6-0.3,0.6-0.6v-8.6C11.2,10.6,11,10.3,10.6,10.3z M10,18.9H5.1v-7.4H10V18.9z" />
    <path d="M19.5,3.9h-6.1c-0.3,0-0.6,0.3-0.6,0.6v8.6c0,0.3,0.3,0.6,0.6,0.6h6.1c0.3,0,0.6-0.3,0.6-0.6V4.5C20.1,4.1,19.9,3.9,19.5,3.9z M18.9,12.5H14V5.1h4.9V12.5z" />
  </symbol>
  <symbol id="card" viewBox="0 0 24 24">
    <path d="M21.4,3.1c-0.2-0.2-0.6-0.2-0.8,0L11.1,13l-2.3-2.4c-0.2-0.2-0.6-0.2-0.8,0s-0.2,0.6,0,0.8l2.7,2.8 c0.1,0.1,0.3,0.2,0.4,0.2s0.3-0.1,0.4-0.2l9.9-10.4C21.7,3.7,21.7,3.3,21.4,3.1z"/>
      <path d="M19.2,11.4c-0.3,0-0.6,0.3-0.6,0.6v6.6c0,0.7-0.5,1.3-1.2,1.3H4.8c-0.7,0-1.2-0.6-1.2-1.3V5.4 c0-0.7,0.5-1.3,1.2-1.3h9.9c0.3,0,0.6-0.3,0.6-0.6S15,2.9,14.7,2.9H4.8C3.5,2.9,2.4,4,2.4,5.4v13.2c0,1.4,1.1,2.5,2.4,2.5h12.6 c1.3,0,2.4-1.1,2.4-2.5V12C19.8,11.7,19.5,11.4,19.2,11.4z"/>
  </symbol>
</svg>
