<!-- ALL HASHTAGs -->
<svg xmlns="http://www.w3.org/2000/svg" style="display: none;">
  <symbol id="board" viewBox="0 0 32 32">
    <path fill-rule="evenodd" clip-rule="evenodd" d="M10 5.99976H8C6.89543 5.99976 6 6.89519 6 7.99976V9.99976C6 11.1043 6.89543 11.9998 8 11.9998H10C11.1046 11.9998 12 11.1043 12 9.99976V7.99976C12 6.89519 11.1046 5.99976 10 5.99976ZM8 3.99976C5.79086 3.99976 4 5.79062 4 7.99976V9.99976C4 12.2089 5.79086 13.9998 8 13.9998H10C12.2091 13.9998 14 12.2089 14 9.99976V7.99976C14 5.79062 12.2091 3.99976 10 3.99976H8Z" />
    <path fill-rule="evenodd" clip-rule="evenodd" d="M10 17.9998H8C6.89543 17.9998 6 18.8952 6 19.9998V23.9998C6 25.1043 6.89543 25.9998 8 25.9998H10C11.1046 25.9998 12 25.1043 12 23.9998V19.9998C12 18.8952 11.1046 17.9998 10 17.9998ZM8 15.9998C5.79086 15.9998 4 17.7906 4 19.9998V23.9998C4 26.2089 5.79086 27.9998 8 27.9998H10C12.2091 27.9998 14 26.2089 14 23.9998V19.9998C14 17.7906 12.2091 15.9998 10 15.9998H8Z" />
    <path fill-rule="evenodd" clip-rule="evenodd" d="M24 5.99976H20C18.8954 5.99976 18 6.89519 18 7.99976V9.99976C18 11.1043 18.8954 11.9998 20 11.9998H24C25.1046 11.9998 26 11.1043 26 9.99976V7.99976C26 6.89519 25.1046 5.99976 24 5.99976ZM20 3.99976C17.7909 3.99976 16 5.79062 16 7.99976V9.99976C16 12.2089 17.7909 13.9998 20 13.9998H24C26.2091 13.9998 28 12.2089 28 9.99976V7.99976C28 5.79062 26.2091 3.99976 24 3.99976H20Z" />
    <path fill-rule="evenodd" clip-rule="evenodd" d="M24 17.9998H20C18.8954 17.9998 18 18.8952 18 19.9998V23.9998C18 25.1043 18.8954 25.9998 20 25.9998H24C25.1046 25.9998 26 25.1043 26 23.9998V19.9998C26 18.8952 25.1046 17.9998 24 17.9998ZM20 15.9998C17.7909 15.9998 16 17.7906 16 19.9998V23.9998C16 26.2089 17.7909 27.9998 20 27.9998H24C26.2091 27.9998 28 26.2089 28 23.9998V19.9998C28 17.7906 26.2091 15.9998 24 15.9998H20Z" />
  </symbol>
  <symbol id="card" viewBox="0 0 24 24">
    <path d="M21.4,3.1c-0.2-0.2-0.6-0.2-0.8,0L11.1,13l-2.3-2.4c-0.2-0.2-0.6-0.2-0.8,0s-0.2,0.6,0,0.8l2.7,2.8 c0.1,0.1,0.3,0.2,0.4,0.2s0.3-0.1,0.4-0.2l9.9-10.4C21.7,3.7,21.7,3.3,21.4,3.1z"/>
      <path d="M19.2,11.4c-0.3,0-0.6,0.3-0.6,0.6v6.6c0,0.7-0.5,1.3-1.2,1.3H4.8c-0.7,0-1.2-0.6-1.2-1.3V5.4 c0-0.7,0.5-1.3,1.2-1.3h9.9c0.3,0,0.6-0.3,0.6-0.6S15,2.9,14.7,2.9H4.8C3.5,2.9,2.4,4,2.4,5.4v13.2c0,1.4,1.1,2.5,2.4,2.5h12.6 c1.3,0,2.4-1.1,2.4-2.5V12C19.8,11.7,19.5,11.4,19.2,11.4z"/>
  </symbol>
</svg>
