<!-- ALL HASHTAGs -->
<svg xmlns="http://www.w3.org/2000/svg" style="display: none;">
  <symbol id="board" viewBox="0 0 24 24">
    <path d="M19.8,1.2h-4c-2,0-3,0.9-3,2.9v6.8c0,1.9,1,2.9,3,2.9h4c2,0,3-0.9,3-2.9V4.1C22.8,2.2,21.8,1.2,19.8,1.2z M21.2,10.9c0,1-0.2,1.4-1.5,1.4h-4c-1.3,0-1.5-0.4-1.5-1.4V4.1c0-1,0.2-1.4,1.5-1.4h4c1.3,0,1.5,0.4,1.5,1.4V10.9z" />
    <path d="M19.8,15.2h-4c-2,0-3,0.9-3,2.8v1.8c0,1.9,1,2.8,3,2.8h4c2,0,3-0.9,3-2.8v-1.8C22.8,16.2,21.8,15.2,19.8,15.2z M21.2,19.9c0,1-0.2,1.3-1.5,1.3h-4c-1.3,0-1.5-0.4-1.5-1.3v-1.8c0-1,0.2-1.3,1.5-1.3h4c1.3,0,1.5,0.4,1.5,1.3V19.9z" />
    <path d="M8.3,10.2h-4c-2,0-3,0.9-3,2.8v6.8c0,1.9,1,2.8,3,2.8h4c2,0,3-0.9,3-2.8v-6.8C11.2,11.2,10.3,10.2,8.3,10.2z M9.8,19.9c0,1-0.2,1.3-1.5,1.3h-4c-1.3,0-1.5-0.4-1.5-1.3v-6.8c0-1,0.2-1.3,1.5-1.3h4c1.3,0,1.5,0.4,1.5,1.3V19.9z" />
    <path d="M8.3,1.2h-4c-2,0-3,0.9-3,2.9v1.8c0,1.9,1,2.9,3,2.9h4c2,0,3-0.9,3-2.9V4.1C11.2,2.2,10.3,1.2,8.3,1.2z M9.8,5.9c0,1-0.2,1.4-1.5,1.4h-4C3,7.2,2.8,6.9,2.8,5.9V4.1c0-1,0.2-1.4,1.5-1.4h4c1.3,0,1.5,0.4,1.5,1.4V5.9z" />
  </symbol>
  <symbol id="card" viewBox="0 0 24 24">
    <path d="M21.4,3.1c-0.2-0.2-0.6-0.2-0.8,0L11.1,13l-2.3-2.4c-0.2-0.2-0.6-0.2-0.8,0s-0.2,0.6,0,0.8l2.7,2.8 c0.1,0.1,0.3,0.2,0.4,0.2s0.3-0.1,0.4-0.2l9.9-10.4C21.7,3.7,21.7,3.3,21.4,3.1z"/>
      <path d="M19.2,11.4c-0.3,0-0.6,0.3-0.6,0.6v6.6c0,0.7-0.5,1.3-1.2,1.3H4.8c-0.7,0-1.2-0.6-1.2-1.3V5.4 c0-0.7,0.5-1.3,1.2-1.3h9.9c0.3,0,0.6-0.3,0.6-0.6S15,2.9,14.7,2.9H4.8C3.5,2.9,2.4,4,2.4,5.4v13.2c0,1.4,1.1,2.5,2.4,2.5h12.6 c1.3,0,2.4-1.1,2.4-2.5V12C19.8,11.7,19.5,11.4,19.2,11.4z"/>
  </symbol>
</svg>
