<!-- ALL HASHTAGs -->
<svg xmlns="http://www.w3.org/2000/svg" style="display: none;">
  <symbol id="board" viewBox="0 0 32 32">
    <path fill-rule="evenodd" clip-rule="evenodd" d="M6 5.99976H12V25.9998H6L6 5.99976ZM4 5.99976C4 4.89519 4.89543 3.99976 6 3.99976H12C13.1046 3.99976 14 4.89519 14 5.99976V25.9998C14 27.1043 13.1046 27.9998 12 27.9998H6C4.89543 27.9998 4 27.1043 4 25.9998V5.99976ZM20 5.99976H26V17.9998H20V5.99976ZM18 5.99976C18 4.89519 18.8954 3.99976 20 3.99976H26C27.1046 3.99976 28 4.89519 28 5.99976V17.9998C28 19.1043 27.1046 19.9998 26 19.9998H20C18.8954 19.9998 18 19.1043 18 17.9998V5.99976Z" />
  </symbol>
  <symbol id="card" viewBox="0 0 24 24">
    <path d="M21.4,3.1c-0.2-0.2-0.6-0.2-0.8,0L11.1,13l-2.3-2.4c-0.2-0.2-0.6-0.2-0.8,0s-0.2,0.6,0,0.8l2.7,2.8 c0.1,0.1,0.3,0.2,0.4,0.2s0.3-0.1,0.4-0.2l9.9-10.4C21.7,3.7,21.7,3.3,21.4,3.1z"/>
      <path d="M19.2,11.4c-0.3,0-0.6,0.3-0.6,0.6v6.6c0,0.7-0.5,1.3-1.2,1.3H4.8c-0.7,0-1.2-0.6-1.2-1.3V5.4 c0-0.7,0.5-1.3,1.2-1.3h9.9c0.3,0,0.6-0.3,0.6-0.6S15,2.9,14.7,2.9H4.8C3.5,2.9,2.4,4,2.4,5.4v13.2c0,1.4,1.1,2.5,2.4,2.5h12.6 c1.3,0,2.4-1.1,2.4-2.5V12C19.8,11.7,19.5,11.4,19.2,11.4z"/>
  </symbol>
</svg>
