<svg xmlns="http://www.w3.org/2000/svg" style="display: none;">
  <symbol id="support" viewBox="0 0 32 32">
    <path d="M17.5 23.5001C17.5 24.3285 16.8284 25.0001 16 25.0001C15.1716 25.0001 14.5 24.3285 14.5 23.5001C14.5 22.6717 15.1716 22.0001 16 22.0001C16.8284 22.0001 17.5 22.6717 17.5 23.5001Z" fill="currentColor"/>
    <path d="M13 13.0001C13 11.3433 14.3431 10.0001 16 10.0001C17.6569 10.0001 19 11.3433 19 13.0001V13.0965C19 14.7001 17.7 16.0001 16.0964 16.0001C15.4909 16.0001 15 16.491 15 17.0965V19.0001C15 19.5524 15.4477 20.0001 16 20.0001C16.5523 20.0001 17 19.5524 17 19.0001V17.917C19.2766 17.493 21 15.496 21 13.0965V13.0001C21 10.2387 18.7614 8.00012 16 8.00012C13.2386 8.00012 11 10.2387 11 13.0001C11 13.5524 11.4477 14.0001 12 14.0001C12.5523 14.0001 13 13.5524 13 13.0001Z" fill="currentColor"/>
    <path fill-rule="evenodd" clip-rule="evenodd" d="M8.22202 4.35955C10.5243 2.82121 13.2311 2.00012 16 2.00012C19.713 2.00012 23.274 3.47512 25.8995 6.10063C28.525 8.72614 30 12.2871 30 16.0001C30 18.7691 29.1789 21.4758 27.6406 23.7781C26.1022 26.0804 23.9157 27.8748 21.3576 28.9344C18.7994 29.9941 15.9845 30.2713 13.2687 29.7311C10.553 29.1909 8.05845 27.8576 6.10051 25.8996C4.14258 23.9417 2.80921 21.4471 2.26901 18.7314C1.72882 16.0157 2.00607 13.2007 3.06569 10.6426C4.12532 8.08439 5.91973 5.89789 8.22202 4.35955ZM9.33316 25.9778C11.3066 27.2963 13.6266 28.0001 16 28.0001C19.1826 28.0001 22.2348 26.7358 24.4853 24.4854C26.7357 22.235 28 19.1827 28 16.0001C28 13.6267 27.2962 11.3067 25.9776 9.33328C24.6591 7.35989 22.7849 5.82182 20.5922 4.91357C18.3995 4.00532 15.9867 3.76768 13.6589 4.2307C11.3312 4.69372 9.19296 5.83661 7.51472 7.51484C5.83649 9.19307 4.69361 11.3313 4.23058 13.659C3.76756 15.9868 4.0052 18.3996 4.91345 20.5923C5.8217 22.785 7.35977 24.6592 9.33316 25.9778Z" fill="currentColor"/>
  </symbol>
</svg>
