<svg xmlns="http://www.w3.org/2000/svg" style="display: none;">
  <symbol id="support" viewBox="0 0 16 16">
    <path fill-rule="evenodd" clip-rule="evenodd" d="M8,2C4.2,2,1,4.6,1,8c0,1.2,0.4,2.4,1.2,3.3c-0.1,0.3-0.3,0.7-0.5,1l-0.6,0.9c-0.1,0.2-0.1,0.4,0,0.5C1.1,13.9,1.3,14,1.5,14c1.1,0,2.2-0.2,3.2-0.7C5.7,13.7,6.8,14,8,14c3.8,0,7-2.6,7-6C15,4.6,11.8,2,8,2z M8,13c-1.1,0-2.2-0.3-3.1-0.7c-0.1-0.1-0.3-0.1-0.4,0c-0.6,0.3-1.3,0.5-2,0.6c0.3-0.5,0.6-1,0.7-1.5c0.1-0.2,0-0.3-0.1-0.5C2.4,10.1,2,9.1,2,8c0-2.7,2.6-5,6-5c3.4,0,6,2.3,6,5S11.4,13,8,13z" />
  </symbol>
</svg>
