<svg xmlns="http://www.w3.org/2000/svg" style="display: none;">
  <symbol id="application" viewBox="0 0 32 32">
    <path d="M22.9,23.4c-0.6,0-1,0.4-1,1v1.5c0,0.5-0.2,1.1-0.6,1.5c-0.4,0.4-0.9,0.6-1.5,0.6H6.1c-0.5,0-1.1-0.2-1.5-0.6C4.2,27,4,26.5,4,25.9V12.2c0-0.5,0.2-1.1,0.6-1.5c0.4-0.4,0.9-0.6,1.5-0.6h1.5c0.6,0,1-0.4,1-1s-0.4-1-1-1H6.1C5,8.1,4,8.5,3.2,9.3C2.4,10.1,2,11.1,2,12.2v13.8C2,27,2.4,28,3.2,28.8C4,29.6,5,30,6.1,30h13.8c1.1,0,2.1-0.4,2.9-1.2c0.8-0.8,1.2-1.8,1.2-2.9v-1.5C23.9,23.9,23.4,23.4,22.9,23.4z" />
    <path d="M30,6.2c0-1.1-0.4-2.2-1.2-3C28,2.4,26.9,2,25.8,2s-2.2,0.4-3,1.2l-2,2c0,0-0.1,0-0.1,0.1c0,0,0,0.1-0.1,0.1L9.9,16.1c-0.2,0.2-0.3,0.4-0.3,0.7v4.6c0,0.6,0.4,1,1,1h4.6c0.3,0,0.5-0.1,0.7-0.3l10.6-10.6c0,0,0.1,0,0.1-0.1c0,0,0-0.1,0.1-0.1l2-2C29.6,8.4,30,7.3,30,6.2z M14.8,20.4h-3.2v-3.2l9.7-9.7l3.1,3.1L14.8,20.4z M27.4,7.8l-1.4,1.4l-3.1-3.1l1.4-1.4c0.8-0.8,2.3-0.8,3.1,0c0.4,0.4,0.6,1,0.6,1.6S27.8,7.4,27.4,7.8z" />
  </symbol>
  <symbol id="survey" viewBox="0 0 24 24">
    <path d="M13,6h8c0.6,0,1-0.4,1-1s-0.4-1-1-1h-8c-0.6,0-1,0.4-1,1S12.4,6,13,6z" />
    <path d="M13,10h5c0.6,0,1-0.4,1-1s-0.4-1-1-1h-5c-0.6,0-1,0.4-1,1S12.4,10,13,10z" />
    <path d="M21,14h-8c-0.6,0-1,0.4-1,1s0.4,1,1,1h8c0.6,0,1-0.4,1-1S21.6,14,21,14z" />
    <path d="M18,18h-5c-0.6,0-1,0.4-1,1s0.4,1,1,1h5c0.6,0,1-0.4,1-1S18.6,18,18,18z" />
    <path d="M8,3H4C2.9,3,2,3.9,2,5v4c0,1.1,0.9,2,2,2h4c1.1,0,2-0.9,2-2V5C10,3.9,9.1,3,8,3z M8,9H4V5h4V9z" />
    <path d="M8,13H4c-1.1,0-2,0.9-2,2v4c0,1.1,0.9,2,2,2h4c1.1,0,2-0.9,2-2v-4C10,13.9,9.1,13,8,13z M8,19H4v-4h4V19z" />
  </symbol>
  <symbol id="radio" viewBox="0 0 15 15">
    <path d="M7.5.877a6.623 6.623 0 100 13.246A6.623 6.623 0 007.5.877zM1.827 7.5a5.673 5.673 0 1111.346 0 5.673 5.673 0 01-11.346 0zm5.673 2a2 2 0 100-4 2 2 0 000 4z"/>
  </symbol>
  <symbol id="checkbox" viewBox="0 0 24 24">
    <path d="M19 19H5V5h10V3H5c-1.11 0-2 .89-2 2v14a2 2 0 002 2h14a2 2 0 002-2v-8h-2m-11.09-.92L6.5 11.5 11 16 21 6l-1.41-1.42L11 13.17l-3.09-3.09z" />
  </symbol>
   <symbol id="textline" viewBox="0 0 24 24">
    <path d="M17 7h5v10h-5v2a1 1 0 001 1h2v2h-2.5c-.55 0-1.5-.45-1.5-1 0 .55-.95 1-1.5 1H12v-2h2a1 1 0 001-1V5a1 1 0 00-1-1h-2V2h2.5c.55 0 1.5.45 1.5 1 0-.55.95-1 1.5-1H20v2h-2a1 1 0 00-1 1v2M2 7h11v2H4v6h9v2H2V7m18 8V9h-3v6h3z" />
  </symbol>
  <symbol id="poll" viewBox="0 0 24 24">
    <path d="M20.3,1.5H3.7c-1.2,0-2.2,1-2.2,2.2v16.7c0,1.2,0.9,2.2,2.2,2.2h16.7c1.3,0,2.2-0.9,2.2-2.2V3.7C22.5,2.4,21.6,1.5,20.3,1.5z M20.5,3.7v2.6H8.2V3.5h12.1C20.4,3.5,20.5,3.5,20.5,3.7z M3.7,3.5h2.6v2.8H3.5V3.7C3.5,3.6,3.6,3.5,3.7,3.5z M20.5,20.5c0,0-0.1,0-0.2,0H3.7c-0.2,0-0.2-0.1-0.2-0.2V8.2h17v12.1C20.5,20.4,20.5,20.5,20.5,20.5z" />
    <path d="M17.3,16.4H6.7c-0.6,0-1,0.4-1,1s0.4,1,1,1h10.6c0.6,0,1-0.4,1-1S17.8,16.4,17.3,16.4z" />
    <path d="M17.3,11.1h-4c-0.6,0-1,0.4-1,1s0.4,1,1,1h4c0.6,0,1-0.4,1-1S17.8,11.1,17.3,11.1z" />
    <path d="M6.7,14.5h2.6c0.6,0,1-0.4,1-1v-2.6c0-0.6-0.4-1-1-1H6.7c-0.6,0-1,0.4-1,1v2.6C5.7,14,6.2,14.5,6.7,14.5z M7.7,11.8h0.6v0.6H7.7V11.8z" />
  </symbol>
  <symbol id="asterisk" viewBox="0 0 24 24">
    <path d="M13 3v7.267l6.294-3.633 1 1.732-6.293 3.633 6.293 3.635-1 1.732L13 13.732V21h-2v-7.268l-6.294 3.634-1-1.732L9.999 12 3.706 8.366l1-1.732L11 10.267V3z" />
  </symbol>
  <symbol id="star" viewBox="0 0 24 24">
    <path d="M6.1 21.98a1 1 0 01-1.45-1.06l1.03-6.03-4.38-4.26a1 1 0 01.56-1.71l6.05-.88 2.7-5.48a1 1 0 011.8 0l2.7 5.48 6.06.88a1 1 0 01.55 1.7l-4.38 4.27 1.04 6.03a1 1 0 01-1.46 1.06l-5.4-2.85-5.42 2.85zm4.95-4.87a1 1 0 01.93 0l4.08 2.15-.78-4.55a1 1 0 01.29-.88l3.3-3.22-4.56-.67a1 1 0 01-.76-.54l-2.04-4.14L9.47 9.4a1 1 0 01-.75.54l-4.57.67 3.3 3.22a1 1 0 01.3.88l-.79 4.55 4.09-2.15z" />
  </symbol>
  <symbol id="question" viewBox="0 0 16 16">
    <path d="M4.475 5.458c-.284 0-.514-.237-.47-.517C4.28 3.24 5.576 2 7.825 2c2.25 0 3.767 1.36 3.767 3.215 0 1.344-.665 2.288-1.79 2.973-1.1.659-1.414 1.118-1.414 2.01v.03a.5.5 0 01-.5.5h-.77a.5.5 0 01-.5-.495l-.003-.2c-.043-1.221.477-2.001 1.645-2.712 1.03-.632 1.397-1.135 1.397-2.028 0-.979-.758-1.698-1.926-1.698-1.009 0-1.71.529-1.938 1.402-.066.254-.278.461-.54.461h-.777zM7.496 14c.622 0 1.095-.474 1.095-1.09 0-.618-.473-1.092-1.095-1.092-.606 0-1.087.474-1.087 1.091S6.89 14 7.496 14z" />
  </symbol>
  <symbol id="submit" viewBox="0 0 32 32">
    <path d="M4 8C4 5.79086 5.79086 4 8 4H21C21.5523 4 22 4.44772 22 5C22 5.55228 21.5523 6 21 6H8C6.89543 6 6 6.89543 6 8V24C6 25.1046 6.89543 26 8 26H24C25.1046 26 26 25.1046 26 24V17C26 16.4477 26.4477 16 27 16C27.5523 16 28 16.4477 28 17V24C28 26.2091 26.2091 28 24 28H8C5.79086 28 4 26.2091 4 24V8ZM29.7071 6.29289C30.0976 6.68342 30.0976 7.31658 29.7071 7.70711L17.7071 19.7071C17.3166 20.0976 16.6834 20.0976 16.2929 19.7071L10.2929 13.7071C9.90237 13.3166 9.90237 12.6834 10.2929 12.2929C10.6834 11.9024 11.3166 11.9024 11.7071 12.2929L17 17.5858L28.2929 6.29289C28.6834 5.90237 29.3166 5.90237 29.7071 6.29289Z" />
  </symbol>
  <symbol id="validate-ok" viewBox="0 0 1024 1024">
    <path d="M512 64C264.6 64 64 264.6 64 512s200.6 448 448 448 448-200.6 448-448S759.4 64 512 64zm193.5 301.7l-210.6 292a31.8 31.8 0 01-51.7 0L318.5 484.9c-3.8-5.3 0-12.7 6.5-12.7h46.9c10.2 0 19.9 4.9 25.9 13.3l71.2 98.8 157.2-218c6-8.3 15.6-13.3 25.9-13.3H699c6.5 0 10.3 7.4 6.5 12.7z" />
  </symbol>
  <symbol id="validate-fail" viewBox="0 0 24 24">
    <path d="M16.707 2.293A.996.996 0 0016 2H8a.996.996 0 00-.707.293l-5 5A.996.996 0 002 8v8c0 .266.105.52.293.707l5 5A.996.996 0 008 22h8c.266 0 .52-.105.707-.293l5-5A.996.996 0 0022 16V8a.996.996 0 00-.293-.707l-5-5zM13 17h-2v-2h2v2zm0-4h-2V7h2v6z" />
  </symbol>
  <symbol id="info" viewBox="0 0 16 16">
    <path d="M7 4.75c0-.412.338-.75.75-.75h.5c.412 0 .75.338.75.75v.5c0 .412-.338.75-.75.75h-.5A.753.753 0 017 5.25v-.5zM10 12H6v-1h1V8H6V7h3v4h1z" />
    <path d="M8 0a8 8 0 100 16A8 8 0 008 0zm0 14.5a6.5 6.5 0 110-13 6.5 6.5 0 010 13z" />
  </symbol>
</svg>
