<svg xmlns="http://www.w3.org/2000/svg" style="display: none;">
    <symbol id="checkbox" viewBox="0 0 32 32">
        <path fill-rule="evenodd" clip-rule="evenodd" d="M4 8.00024C4 5.79111 5.79086 4.00024 8 4.00024H24C26.2091 4.00024 28 5.79111 28 8.00024V24.0002C28 26.2094 26.2091 28.0002 24 28.0002H8C5.79086 28.0002 4 26.2094 4 24.0002V8.00024ZM23.7071 10.2931C24.0976 10.6837 24.0976 11.3168 23.7071 11.7074L14.7071 20.7074C14.3166 21.0979 13.6834 21.0979 13.2929 20.7074L9.29289 16.7074C8.90237 16.3168 8.90237 15.6837 9.29289 15.2931C9.68342 14.9026 10.3166 14.9026 10.7071 15.2931L14 18.586L22.2929 10.2931C22.6834 9.90261 23.3166 9.90261 23.7071 10.2931Z"/>
    </symbol>
    <symbol id="info" viewBox="0 0 32 32">
        <path d="M17 22V15C17 14.4477 16.5523 14 16 14H14C13.4477 14 13 14.4477 13 15C13 15.5523 13.4477 16 14 16H15V22H13C12.4477 22 12 22.4477 12 23C12 23.5523 12.4477 24 13 24H19C19.5523 24 20 23.5523 20 23C20 22.4477 19.5523 22 19 22H17Z"/>
        <path d="M16 8C15.7033 8 15.4133 8.08797 15.1666 8.25279C14.92 8.41762 14.7277 8.65189 14.6142 8.92597C14.5006 9.20006 14.4709 9.50166 14.5288 9.79264C14.5867 10.0836 14.7296 10.3509 14.9393 10.5607C15.1491 10.7704 15.4164 10.9133 15.7074 10.9712C15.9983 11.0291 16.2999 10.9994 16.574 10.8858C16.8481 10.7723 17.0824 10.58 17.2472 10.3334C17.412 10.0867 17.5 9.79667 17.5 9.5C17.5 9.10217 17.342 8.72064 17.0607 8.43934C16.7794 8.15803 16.3978 8 16 8Z"/>
        <path d="M16 30C13.2311 30 10.5243 29.1789 8.22201 27.6406C5.91973 26.1022 4.12531 23.9157 3.06569 21.3576C2.00606 18.7994 1.72881 15.9845 2.269 13.2687C2.8092 10.553 4.14257 8.05844 6.1005 6.1005C8.05844 4.14257 10.553 2.8092 13.2687 2.26901C15.9845 1.72881 18.7994 2.00606 21.3576 3.06569C23.9157 4.12531 26.1022 5.91973 27.6406 8.22202C29.1789 10.5243 30 13.2311 30 16C30 19.713 28.525 23.274 25.8995 25.8995C23.274 28.525 19.713 30 16 30ZM16 4C13.6266 4 11.3065 4.70379 9.33316 6.02236C7.35977 7.34094 5.8217 9.21509 4.91344 11.4078C4.00519 13.6005 3.76755 16.0133 4.23058 18.3411C4.6936 20.6689 5.83649 22.807 7.51472 24.4853C9.19295 26.1635 11.3311 27.3064 13.6589 27.7694C15.9867 28.2324 18.3995 27.9948 20.5922 27.0866C22.7849 26.1783 24.6591 24.6402 25.9776 22.6668C27.2962 20.6935 28 18.3734 28 16C28 12.8174 26.7357 9.76515 24.4853 7.51472C22.2348 5.26428 19.1826 4 16 4Z"/>
    </symbol>
    <symbol id="question" viewBox="0 0 32 32">
        <path d="M17.5 23.5C17.5 24.3284 16.8284 25 16 25C15.1716 25 14.5 24.3284 14.5 23.5C14.5 22.6716 15.1716 22 16 22C16.8284 22 17.5 22.6716 17.5 23.5Z"/>
        <path d="M13 13C13 11.3431 14.3431 10 16 10C17.6569 10 19 11.3431 19 13V13.0964C19 14.7 17.7 16 16.0964 16C15.4909 16 15 16.4909 15 17.0964V19C15 19.5523 15.4477 20 16 20C16.5523 20 17 19.5523 17 19V17.9169C19.2766 17.4928 21 15.4959 21 13.0964V13C21 10.2386 18.7614 8 16 8C13.2386 8 11 10.2386 11 13C11 13.5523 11.4477 14 12 14C12.5523 14 13 13.5523 13 13Z"/>
        <path fill-rule="evenodd" clip-rule="evenodd" d="M8.22202 4.35943C10.5243 2.82109 13.2311 2 16 2C19.713 2 23.274 3.475 25.8995 6.1005C28.525 8.72601 30 12.287 30 16C30 18.7689 29.1789 21.4757 27.6406 23.778C26.1022 26.0803 23.9157 27.8747 21.3576 28.9343C18.7994 29.9939 15.9845 30.2712 13.2687 29.731C10.553 29.1908 8.05845 27.8574 6.10051 25.8995C4.14258 23.9416 2.80921 21.447 2.26901 18.7313C1.72882 16.0155 2.00607 13.2006 3.06569 10.6424C4.12532 8.08427 5.91973 5.89777 8.22202 4.35943ZM9.33316 25.9776C11.3066 27.2962 13.6266 28 16 28C19.1826 28 22.2348 26.7357 24.4853 24.4853C26.7357 22.2348 28 19.1826 28 16C28 13.6266 27.2962 11.3065 25.9776 9.33316C24.6591 7.35977 22.7849 5.8217 20.5922 4.91345C18.3995 4.00519 15.9867 3.76755 13.6589 4.23058C11.3312 4.6936 9.19296 5.83649 7.51472 7.51472C5.83649 9.19295 4.69361 11.3311 4.23058 13.6589C3.76756 15.9867 4.0052 18.3995 4.91345 20.5922C5.8217 22.7849 7.35977 24.6591 9.33316 25.9776Z"/>
    </symbol>
    <symbol id="radio-button" viewBox="0 0 32 32">
        <path d="M24 16C24 20.4183 20.4183 24 16 24C11.5817 24 8 20.4183 8 16C8 11.5817 11.5817 8 16 8C20.4183 8 24 11.5817 24 16Z"/>
    </symbol>
    <symbol id="survey" viewBox="0 0 32 32">
        <path d="M8 3.99988H22C23.1046 3.99988 24 4.89531 24 5.99988V18.9999C24 19.5522 24.4477 19.9999 25 19.9999C25.5523 19.9999 26 19.5522 26 18.9999V5.99988C26 3.79074 24.2091 1.99988 22 1.99988H8C5.79086 1.99988 4 3.79074 4 5.99988V7.99988H3C2.44772 7.99988 2 8.44759 2 8.99988C2 9.55216 2.44772 9.99988 3 9.99988H4V14.9999H3C2.44772 14.9999 2 15.4476 2 15.9999C2 16.5522 2.44772 16.9999 3 16.9999H4V21.9999H3C2.44772 21.9999 2 22.4476 2 22.9999C2 23.5522 2.44772 23.9999 3 23.9999H4V25.9999C4 28.209 5.79086 29.9999 8 29.9999H15C15.5523 29.9999 16 29.5522 16 28.9999C16 28.4476 15.5523 27.9999 15 27.9999H8C6.89543 27.9999 6 27.1044 6 25.9999V23.9999H7C7.55228 23.9999 8 23.5522 8 22.9999C8 22.4476 7.55228 21.9999 7 21.9999H6V16.9999H7C7.55228 16.9999 8 16.5522 8 15.9999C8 15.4476 7.55228 14.9999 7 14.9999H6V9.99988H7C7.55228 9.99988 8 9.55216 8 8.99988C8 8.44759 7.55228 7.99988 7 7.99988H6V5.99988C6 4.89531 6.89543 3.99988 8 3.99988Z"/>
        <path d="M19 8.00024H11C10.4477 8.00024 10 8.44796 10 9.00024C10 9.55253 10.4477 10.0002 11 10.0002H19C19.5523 10.0002 20 9.55253 20 9.00024C20 8.44796 19.5523 8.00024 19 8.00024Z"/>
        <path d="M11 13.0002H19C19.5523 13.0002 20 13.448 20 14.0002C20 14.5525 19.5523 15.0002 19 15.0002H11C10.4477 15.0002 10 14.5525 10 14.0002C10 13.448 10.4477 13.0002 11 13.0002Z"/>
        <path d="M11 18.0002H19C19.5523 18.0002 20 18.448 20 19.0002C20 19.5525 19.5523 20.0002 19 20.0002H11C10.4477 20.0002 10 19.5525 10 19.0002C10 18.448 10.4477 18.0002 11 18.0002Z"/>
        <path d="M23 27.2002L20.4 24.6002L19 26.0002L23 30.0002L30 23.0002L28.6 21.6002L23 27.2002Z"/>
    </symbol>
</svg>
