<svg xmlns="http://www.w3.org/2000/svg" style="display: none;">
    <symbol id="survey" viewBox="0 0 32 32">
        <path clip-rule="evenodd" d="M10 4C8.89543 4 8 4.89543 8 6V26C8 27.1046 8.89543 28 10 28H22C23.1046 28 24 27.1046 24 26V12H20C17.7909 12 16 10.2091 16 8V4H10ZM18 4.41421V8C18 9.10457 18.8954 10 20 10H23.5858L18 4.41421ZM6 6C6 3.79086 7.79086 2 10 2H17.5858C18.1162 2 18.6249 2.21071 19 2.58579L25.4142 9C25.7893 9.37507 26 9.88378 26 10.4142V26C26 28.2091 24.2091 30 22 30H10C7.79086 30 6 28.2091 6 26V6ZM16 17C16 16.4477 16.4477 16 17 16H21C21.5523 16 22 16.4477 22 17C22 17.5523 21.5523 18 21 18H17C16.4477 18 16 17.5523 16 17Z M17 20C16.4477 20 16 20.4477 16 21C16 21.5523 16.4477 22 17 22H21C21.5523 22 22 21.5523 22 21C22 20.4477 21.5523 20 21 20H17Z M14.7801 14.3016C15.1706 14.6921 15.1706 15.3253 14.7801 15.7158L12.7801 17.7158C12.3896 18.1063 11.7564 18.1063 11.3659 17.7158L10.3659 16.7158C9.97535 16.3253 9.97535 15.6921 10.3659 15.3016C10.7564 14.9111 11.3896 14.9111 11.7801 15.3016L12.073 15.5945L13.3659 14.3016C13.7564 13.9111 14.3896 13.9111 14.7801 14.3016Z M13.7037 19.2929C14.0942 19.6834 14.0942 20.3166 13.7037 20.7071L11.7037 22.7071C11.3132 23.0976 10.68 23.0976 10.2895 22.7071C9.89895 22.3166 9.9172 21.6651 10.2895 21.2929L12.2895 19.2929C12.68 18.9024 13.3132 18.9024 13.7037 19.2929Z M13.7071 22.7037C13.3166 23.0942 12.6834 23.0942 12.2929 22.7037L10.2929 20.7037C9.90237 20.3132 9.90237 19.68 10.2929 19.2895C10.6833 18.899 11.3348 18.9172 11.7071 19.2895L13.7071 21.2895C14.0976 21.68 14.0976 22.3132 13.7071 22.7037Z" />
    </symbol>
</svg>
