<svg xmlns="http://www.w3.org/2000/svg" style="display: none;">
  <symbol id="application" viewBox="0 0 1024 1024">
    <path d="M904 512h-56c-4.4 0-8 3.6-8 8v320H184V184h320c4.4 0 8-3.6 8-8v-56c0-4.4-3.6-8-8-8H144c-17.7 0-32 14.3-32 32v736c0 17.7 14.3 32 32 32h736c17.7 0 32-14.3 32-32V520c0-4.4-3.6-8-8-8z" />
    <path d="M355.9 534.9L354 653.8c-.1 8.9 7.1 16.2 16 16.2h.4l118-2.9c2-.1 4-.9 5.4-2.3l415.9-415c3.1-3.1 3.1-8.2 0-11.3L785.4 114.3c-1.6-1.6-3.6-2.3-5.7-2.3s-4.1.8-5.7 2.3l-415.8 415a8.3 8.3 0 00-2.3 5.6zm63.5 23.6L779.7 199l45.2 45.1-360.5 359.7-45.7 1.1.7-46.4z" />
  </symbol>
  <symbol id="radio" viewBox="0 0 15 15">
    <path d="M7.5.877a6.623 6.623 0 100 13.246A6.623 6.623 0 007.5.877zM1.827 7.5a5.673 5.673 0 1111.346 0 5.673 5.673 0 01-11.346 0zm5.673 2a2 2 0 100-4 2 2 0 000 4z"/>
  </symbol>
  <symbol id="checkbox" viewBox="0 0 24 24">
    <path d="M19 19H5V5h10V3H5c-1.11 0-2 .89-2 2v14a2 2 0 002 2h14a2 2 0 002-2v-8h-2m-11.09-.92L6.5 11.5 11 16 21 6l-1.41-1.42L11 13.17l-3.09-3.09z" />
  </symbol>
   <symbol id="textline" viewBox="0 0 24 24">
    <path d="M17 7h5v10h-5v2a1 1 0 001 1h2v2h-2.5c-.55 0-1.5-.45-1.5-1 0 .55-.95 1-1.5 1H12v-2h2a1 1 0 001-1V5a1 1 0 00-1-1h-2V2h2.5c.55 0 1.5.45 1.5 1 0-.55.95-1 1.5-1H20v2h-2a1 1 0 00-1 1v2M2 7h11v2H4v6h9v2H2V7m18 8V9h-3v6h3z" />
  </symbol>
  <symbol id="page" viewBox="0 0 24 24">
    <path d="M5 8v12h14V8H5zm0-2h14V4H5v2zm15 16H4a1 1 0 01-1-1V3a1 1 0 011-1h16a1 1 0 011 1v18a1 1 0 01-1 1zM7 10h4v4H7v-4zm0 6h10v2H7v-2zm6-5h4v2h-4v-2z" />
  </symbol>
  <symbol id="asterisk" viewBox="0 0 24 24">
    <path d="M13 3v7.267l6.294-3.633 1 1.732-6.293 3.633 6.293 3.635-1 1.732L13 13.732V21h-2v-7.268l-6.294 3.634-1-1.732L9.999 12 3.706 8.366l1-1.732L11 10.267V3z" />
  </symbol>
  <symbol id="star" viewBox="0 0 24 24">
    <path d="M6.1 21.98a1 1 0 01-1.45-1.06l1.03-6.03-4.38-4.26a1 1 0 01.56-1.71l6.05-.88 2.7-5.48a1 1 0 011.8 0l2.7 5.48 6.06.88a1 1 0 01.55 1.7l-4.38 4.27 1.04 6.03a1 1 0 01-1.46 1.06l-5.4-2.85-5.42 2.85zm4.95-4.87a1 1 0 01.93 0l4.08 2.15-.78-4.55a1 1 0 01.29-.88l3.3-3.22-4.56-.67a1 1 0 01-.76-.54l-2.04-4.14L9.47 9.4a1 1 0 01-.75.54l-4.57.67 3.3 3.22a1 1 0 01.3.88l-.79 4.55 4.09-2.15z" />
  </symbol>
  <symbol id="question" viewBox="0 0 16 16">
    <path d="M4.475 5.458c-.284 0-.514-.237-.47-.517C4.28 3.24 5.576 2 7.825 2c2.25 0 3.767 1.36 3.767 3.215 0 1.344-.665 2.288-1.79 2.973-1.1.659-1.414 1.118-1.414 2.01v.03a.5.5 0 01-.5.5h-.77a.5.5 0 01-.5-.495l-.003-.2c-.043-1.221.477-2.001 1.645-2.712 1.03-.632 1.397-1.135 1.397-2.028 0-.979-.758-1.698-1.926-1.698-1.009 0-1.71.529-1.938 1.402-.066.254-.278.461-.54.461h-.777zM7.496 14c.622 0 1.095-.474 1.095-1.09 0-.618-.473-1.092-1.095-1.092-.606 0-1.087.474-1.087 1.091S6.89 14 7.496 14z" />
  </symbol>
</svg>
