<svg xmlns="http://www.w3.org/2000/svg" style="display: none;">
    <symbol id="checkbox" viewBox="0 0 32 32">
        <path fill-rule="evenodd" clip-rule="evenodd" d="M4 8.00024C4 5.79111 5.79086 4.00024 8 4.00024H24C26.2091 4.00024 28 5.79111 28 8.00024V24.0002C28 26.2094 26.2091 28.0002 24 28.0002H8C5.79086 28.0002 4 26.2094 4 24.0002V8.00024ZM23.7071 10.2931C24.0976 10.6837 24.0976 11.3168 23.7071 11.7074L14.7071 20.7074C14.3166 21.0979 13.6834 21.0979 13.2929 20.7074L9.29289 16.7074C8.90237 16.3168 8.90237 15.6837 9.29289 15.2931C9.68342 14.9026 10.3166 14.9026 10.7071 15.2931L14 18.586L22.2929 10.2931C22.6834 9.90261 23.3166 9.90261 23.7071 10.2931Z"/>
    </symbol>
    <symbol id="drag" viewBox="0 0 32 32">
        <path d="M18 11.9998C18 13.1043 18.8954 13.9998 20 13.9998C21.1046 13.9998 22 13.1043 22 11.9998C22 10.8952 21.1046 9.99976 20 9.99976C18.8954 9.99976 18 10.8952 18 11.9998Z" />
        <path d="M18 19.9998C18 21.1043 18.8954 21.9998 20 21.9998C21.1046 21.9998 22 21.1043 22 19.9998C22 18.8952 21.1046 17.9998 20 17.9998C18.8954 17.9998 18 18.8952 18 19.9998Z" />
        <path d="M20 29.9998C18.8954 29.9998 18 29.1043 18 27.9998C18 26.8952 18.8954 25.9998 20 25.9998C21.1046 25.9998 22 26.8952 22 27.9998C22 29.1043 21.1046 29.9998 20 29.9998Z" />
        <path d="M18 4C18 5.10457 18.8954 6 20 6C21.1046 6 22 5.10457 22 4C22 2.89543 21.1046 2 20 2C18.8954 2 18 2.89543 18 4Z" />
        <path d="M10 11.9998C10 13.1043 10.8954 13.9998 12 13.9998C13.1046 13.9998 14 13.1043 14 11.9998C14 10.8952 13.1046 9.99976 12 9.99976C10.8954 9.99976 10 10.8952 10 11.9998Z" />
        <path d="M10 19.9998C10 21.1043 10.8954 21.9998 12 21.9998C13.1046 21.9998 14 21.1043 14 19.9998C14 18.8952 13.1046 17.9998 12 17.9998C10.8954 17.9998 10 18.8952 10 19.9998Z" />
        <path d="M12 29.9998C10.8954 29.9998 10 29.1043 10 27.9998C10 26.8952 10.8954 25.9998 12 25.9998C13.1046 25.9998 14 26.8952 14 27.9998C14 29.1043 13.1046 29.9998 12 29.9998Z" />
        <path d="M10 4C10 5.10457 10.8954 6 12 6C13.1046 6 14 5.10457 14 4C14 2.89543 13.1046 2 12 2C10.8954 2 10 2.89543 10 4Z" />
    </symbol>
    <symbol id="eye" viewBox="0 0 32 32">
        <path d="M30.94 15.6599C29.7638 12.6175 27.722 9.98649 25.0668 8.09196C22.4116 6.19743 19.2595 5.12245 16 4.99988C12.7405 5.12245 9.58839 6.19743 6.9332 8.09196C4.27802 9.98649 2.23616 12.6175 1.06 15.6599C0.980569 15.8796 0.980569 16.1202 1.06 16.3399C2.23616 19.3822 4.27802 22.0133 6.9332 23.9078C9.58839 25.8023 12.7405 26.8773 16 26.9999C19.2595 26.8773 22.4116 25.8023 25.0668 23.9078C27.722 22.0133 29.7638 19.3822 30.94 16.3399C31.0194 16.1202 31.0194 15.8796 30.94 15.6599ZM16 24.9999C10.7 24.9999 5.1 21.0699 3.07 15.9999C5.1 10.9299 10.7 6.99988 16 6.99988C21.3 6.99988 26.9 10.9299 28.93 15.9999C26.9 21.0699 21.3 24.9999 16 24.9999Z" />
        <path d="M16 9.99988C14.8133 9.99988 13.6533 10.3518 12.6666 11.0111C11.6799 11.6703 10.9109 12.6074 10.4567 13.7038C10.0026 14.8001 9.88378 16.0065 10.1153 17.1704C10.3468 18.3343 10.9182 19.4034 11.7574 20.2425C12.5965 21.0816 13.6656 21.6531 14.8295 21.8846C15.9933 22.1161 17.1997 21.9973 18.2961 21.5432C19.3925 21.089 20.3295 20.32 20.9888 19.3333C21.6481 18.3466 22 17.1866 22 15.9999C22 14.4086 21.3679 12.8825 20.2426 11.7572C19.1174 10.632 17.5913 9.99988 16 9.99988ZM16 19.9999C15.2089 19.9999 14.4355 19.7653 13.7777 19.3258C13.1199 18.8862 12.6072 18.2615 12.3045 17.5306C12.0017 16.7997 11.9225 15.9954 12.0769 15.2195C12.2312 14.4436 12.6122 13.7309 13.1716 13.1715C13.731 12.612 14.4437 12.2311 15.2196 12.0767C15.9956 11.9224 16.7998 12.0016 17.5307 12.3044C18.2616 12.6071 18.8864 13.1198 19.3259 13.7776C19.7654 14.4354 20 15.2088 20 15.9999C20 17.0607 19.5786 18.0782 18.8284 18.8283C18.0783 19.5785 17.0609 19.9999 16 19.9999Z" />
    </symbol>
    <symbol id="inbox" viewBox="0 0 32 32">
        <path d="M8 4.00012H22C23.1046 4.00012 24 4.89555 24 6.00012V19.0001C24 19.5524 24.4477 20.0001 25 20.0001C25.5523 20.0001 26 19.5524 26 19.0001V6.00012C26 3.79098 24.2091 2.00012 22 2.00012H8C5.79086 2.00012 4 3.79098 4 6.00012V8.00012H3C2.44772 8.00012 2 8.44784 2 9.00012C2 9.55241 2.44772 10.0001 3 10.0001H4V15.0001H3C2.44772 15.0001 2 15.4478 2 16.0001C2 16.5524 2.44772 17.0001 3 17.0001H4V22.0001H3C2.44772 22.0001 2 22.4478 2 23.0001C2 23.5524 2.44772 24.0001 3 24.0001H4V26.0001C4 28.2093 5.79086 30.0001 8 30.0001H15C15.5523 30.0001 16 29.5524 16 29.0001C16 28.4478 15.5523 28.0001 15 28.0001H8C6.89543 28.0001 6 27.1047 6 26.0001V24.0001H7C7.55228 24.0001 8 23.5524 8 23.0001C8 22.4478 7.55228 22.0001 7 22.0001H6V17.0001H7C7.55228 17.0001 8 16.5524 8 16.0001C8 15.4478 7.55228 15.0001 7 15.0001H6V10.0001H7C7.55228 10.0001 8 9.55241 8 9.00012C8 8.44784 7.55228 8.00012 7 8.00012H6V6.00012C6 4.89555 6.89543 4.00012 8 4.00012Z" />
        <path d="M19 8.00049H11C10.4477 8.00049 10 8.4482 10 9.00049C10 9.55277 10.4477 10.0005 11 10.0005H19C19.5523 10.0005 20 9.55277 20 9.00049C20 8.4482 19.5523 8.00049 19 8.00049Z" />
        <path d="M11 13.0005H19C19.5523 13.0005 20 13.4482 20 14.0005C20 14.5528 19.5523 15.0005 19 15.0005H11C10.4477 15.0005 10 14.5528 10 14.0005C10 13.4482 10.4477 13.0005 11 13.0005Z" />
        <path d="M11 18.0005H19C19.5523 18.0005 20 18.4482 20 19.0005C20 19.5528 19.5523 20.0005 19 20.0005H11C10.4477 20.0005 10 19.5528 10 19.0005C10 18.4482 10.4477 18.0005 11 18.0005Z" />
        <path d="M19.41 26.59L21 28.17L21 23C21 22.4477 21.4477 22 22 22C22.5523 22 23 22.4477 23 23L23 28.17L24.59 26.59L26 28L22 32L18 28L19.41 26.59Z" />
    </symbol>
    <symbol id="outbox" viewBox="0 0 32 32">
        <path d="M8 4.00012H22C23.1046 4.00012 24 4.89555 24 6.00012V19.0001C24 19.5524 24.4477 20.0001 25 20.0001C25.5523 20.0001 26 19.5524 26 19.0001V6.00012C26 3.79098 24.2091 2.00012 22 2.00012H8C5.79086 2.00012 4 3.79098 4 6.00012V8.00012H3C2.44772 8.00012 2 8.44784 2 9.00012C2 9.55241 2.44772 10.0001 3 10.0001H4V15.0001H3C2.44772 15.0001 2 15.4478 2 16.0001C2 16.5524 2.44772 17.0001 3 17.0001H4V22.0001H3C2.44772 22.0001 2 22.4478 2 23.0001C2 23.5524 2.44772 24.0001 3 24.0001H4V26.0001C4 28.2093 5.79086 30.0001 8 30.0001H15C15.5523 30.0001 16 29.5524 16 29.0001C16 28.4478 15.5523 28.0001 15 28.0001H8C6.89543 28.0001 6 27.1047 6 26.0001V24.0001H7C7.55228 24.0001 8 23.5524 8 23.0001C8 22.4478 7.55228 22.0001 7 22.0001H6V17.0001H7C7.55228 17.0001 8 16.5524 8 16.0001C8 15.4478 7.55228 15.0001 7 15.0001H6V10.0001H7C7.55228 10.0001 8 9.55241 8 9.00012C8 8.44784 7.55228 8.00012 7 8.00012H6V6.00012C6 4.89555 6.89543 4.00012 8 4.00012Z" />
        <path d="M19 8.00049H11C10.4477 8.00049 10 8.4482 10 9.00049C10 9.55277 10.4477 10.0005 11 10.0005H19C19.5523 10.0005 20 9.55277 20 9.00049C20 8.4482 19.5523 8.00049 19 8.00049Z" />
        <path d="M11 13.0005H19C19.5523 13.0005 20 13.4482 20 14.0005C20 14.5528 19.5523 15.0005 19 15.0005H11C10.4477 15.0005 10 14.5528 10 14.0005C10 13.4482 10.4477 13.0005 11 13.0005Z" />
        <path d="M11 18.0005H19C19.5523 18.0005 20 18.4482 20 19.0005C20 19.5528 19.5523 20.0005 19 20.0005H11C10.4477 20.0005 10 19.5528 10 19.0005C10 18.4482 10.4477 18.0005 11 18.0005Z" />
        <path d="M24.59 27.41L23 25.83L23 31C23 31.5523 22.5523 32 22 32C21.4477 32 21 31.5523 21 31L21 25.83L19.41 27.41L18 26L22 22L26 26L24.59 27.41Z" />
    </symbol>
    <symbol id="question" viewBox="0 0 32 32">
        <path d="M17.5 23.5C17.5 24.3284 16.8284 25 16 25C15.1716 25 14.5 24.3284 14.5 23.5C14.5 22.6716 15.1716 22 16 22C16.8284 22 17.5 22.6716 17.5 23.5Z"/>
        <path d="M13 13C13 11.3431 14.3431 10 16 10C17.6569 10 19 11.3431 19 13V13.0964C19 14.7 17.7 16 16.0964 16C15.4909 16 15 16.4909 15 17.0964V19C15 19.5523 15.4477 20 16 20C16.5523 20 17 19.5523 17 19V17.9169C19.2766 17.4928 21 15.4959 21 13.0964V13C21 10.2386 18.7614 8 16 8C13.2386 8 11 10.2386 11 13C11 13.5523 11.4477 14 12 14C12.5523 14 13 13.5523 13 13Z"/>
        <path fill-rule="evenodd" clip-rule="evenodd" d="M8.22202 4.35943C10.5243 2.82109 13.2311 2 16 2C19.713 2 23.274 3.475 25.8995 6.1005C28.525 8.72601 30 12.287 30 16C30 18.7689 29.1789 21.4757 27.6406 23.778C26.1022 26.0803 23.9157 27.8747 21.3576 28.9343C18.7994 29.9939 15.9845 30.2712 13.2687 29.731C10.553 29.1908 8.05845 27.8574 6.10051 25.8995C4.14258 23.9416 2.80921 21.447 2.26901 18.7313C1.72882 16.0155 2.00607 13.2006 3.06569 10.6424C4.12532 8.08427 5.91973 5.89777 8.22202 4.35943ZM9.33316 25.9776C11.3066 27.2962 13.6266 28 16 28C19.1826 28 22.2348 26.7357 24.4853 24.4853C26.7357 22.2348 28 19.1826 28 16C28 13.6266 27.2962 11.3065 25.9776 9.33316C24.6591 7.35977 22.7849 5.8217 20.5922 4.91345C18.3995 4.00519 15.9867 3.76755 13.6589 4.23058C11.3312 4.6936 9.19296 5.83649 7.51472 7.51472C5.83649 9.19295 4.69361 11.3311 4.23058 13.6589C3.76756 15.9867 4.0052 18.3995 4.91345 20.5922C5.8217 22.7849 7.35977 24.6591 9.33316 25.9776Z"/>
    </symbol>
    <symbol id="radio-button" viewBox="0 0 32 32">
        <path d="M24 16C24 20.4183 20.4183 24 16 24C11.5817 24 8 20.4183 8 16C8 11.5817 11.5817 8 16 8C20.4183 8 24 11.5817 24 16Z"/>
    </symbol>
    <symbol id="survey" viewBox="0 0 32 32">
        <path d="M8 4.00012H22C23.1046 4.00012 24 4.89555 24 6.00012V19.0001C24 19.5524 24.4477 20.0001 25 20.0001C25.5523 20.0001 26 19.5524 26 19.0001V6.00012C26 3.79098 24.2091 2.00012 22 2.00012H8C5.79086 2.00012 4 3.79098 4 6.00012V8.00012H3C2.44772 8.00012 2 8.44784 2 9.00012C2 9.55241 2.44772 10.0001 3 10.0001H4V15.0001H3C2.44772 15.0001 2 15.4478 2 16.0001C2 16.5524 2.44772 17.0001 3 17.0001H4V22.0001H3C2.44772 22.0001 2 22.4478 2 23.0001C2 23.5524 2.44772 24.0001 3 24.0001H4V26.0001C4 28.2093 5.79086 30.0001 8 30.0001H16C16.5523 30.0001 17 29.5524 17 29.0001C17 28.4478 16.5523 28.0001 16 28.0001H8C6.89543 28.0001 6 27.1047 6 26.0001V24.0001H7C7.55228 24.0001 8 23.5524 8 23.0001C8 22.4478 7.55228 22.0001 7 22.0001H6V17.0001H7C7.55228 17.0001 8 16.5524 8 16.0001C8 15.4478 7.55228 15.0001 7 15.0001H6V10.0001H7C7.55228 10.0001 8 9.55241 8 9.00012C8 8.44784 7.55228 8.00012 7 8.00012H6V6.00012C6 4.89555 6.89543 4.00012 8 4.00012Z" />
        <path d="M19 8.00049H11C10.4477 8.00049 10 8.4482 10 9.00049C10 9.55277 10.4477 10.0005 11 10.0005H19C19.5523 10.0005 20 9.55277 20 9.00049C20 8.4482 19.5523 8.00049 19 8.00049Z" />
        <path d="M11 13.0005H19C19.5523 13.0005 20 13.4482 20 14.0005C20 14.5528 19.5523 15.0005 19 15.0005H11C10.4477 15.0005 10 14.5528 10 14.0005C10 13.4482 10.4477 13.0005 11 13.0005Z" />
        <path d="M11 18.0005H19C19.5523 18.0005 20 18.4482 20 19.0005C20 19.5528 19.5523 20.0005 19 20.0005H11C10.4477 20.0005 10 19.5528 10 19.0005C10 18.4482 10.4477 18.0005 11 18.0005Z" />
        <path d="M23 31C23 31.4873 22.4971 32 22 32C21.5029 32 21 31.4873 21 31C21 30.5127 21.5029 30 22 30C22.4971 30 23 30.5127 23 31Z" />
        <path d="M21 25C21 24.5 21.5 24 22 24C22.5 24 22.9 24.3848 22.9 24.9979C22.9 25.6109 22.5422 26 22 26C21.1 26 21 26.9946 21 27.3508V28.4706C21 28.7955 21.6686 29.5 22 29.5C22.3314 29.5 23 28.8249 23 28.5V27.5C24.5 27 25 26.4093 25 24.9979V24.9412C25 23.3168 23.6569 22 22 22C20.3431 22 19 23.3168 19 24.9412C19 25.5 19.6686 26 20 26C20.3314 26 21 25.5 21 25Z" />
    </symbol>
    <symbol id="result" viewBox="0 0 32 32">
        <path d="M8 4.00012H22C23.1046 4.00012 24 4.89555 24 6.00012V19.0001C24 19.5524 24.4477 20.0001 25 20.0001C25.5523 20.0001 26 19.5524 26 19.0001V6.00012C26 3.79098 24.2091 2.00012 22 2.00012H8C5.79086 2.00012 4 3.79098 4 6.00012V8.00012H3C2.44772 8.00012 2 8.44784 2 9.00012C2 9.55241 2.44772 10.0001 3 10.0001H4V15.0001H3C2.44772 15.0001 2 15.4478 2 16.0001C2 16.5524 2.44772 17.0001 3 17.0001H4V22.0001H3C2.44772 22.0001 2 22.4478 2 23.0001C2 23.5524 2.44772 24.0001 3 24.0001H4V26.0001C4 28.2093 5.79086 30.0001 8 30.0001H15C15.5523 30.0001 16 29.5524 16 29.0001C16 28.4478 15.5523 28.0001 15 28.0001H8C6.89543 28.0001 6 27.1047 6 26.0001V24.0001H7C7.55228 24.0001 8 23.5524 8 23.0001C8 22.4478 7.55228 22.0001 7 22.0001H6V17.0001H7C7.55228 17.0001 8 16.5524 8 16.0001C8 15.4478 7.55228 15.0001 7 15.0001H6V10.0001H7C7.55228 10.0001 8 9.55241 8 9.00012C8 8.44784 7.55228 8.00012 7 8.00012H6V6.00012C6 4.89555 6.89543 4.00012 8 4.00012Z" />
        <path d="M19 8.00049H11C10.4477 8.00049 10 8.4482 10 9.00049C10 9.55277 10.4477 10.0005 11 10.0005H19C19.5523 10.0005 20 9.55277 20 9.00049C20 8.4482 19.5523 8.00049 19 8.00049Z" />
        <path d="M11 13.0005H19C19.5523 13.0005 20 13.4482 20 14.0005C20 14.5528 19.5523 15.0005 19 15.0005H11C10.4477 15.0005 10 14.5528 10 14.0005C10 13.4482 10.4477 13.0005 11 13.0005Z" />
        <path d="M11 18.0005H19C19.5523 18.0005 20 18.4482 20 19.0005C20 19.5528 19.5523 20.0005 19 20.0005H11C10.4477 20.0005 10 19.5528 10 19.0005C10 18.4482 10.4477 18.0005 11 18.0005Z" />
        <path d="M23 27.2005L20.4 24.6005L19 26.0005L23 30.0005L30 23.0005L28.6 21.6005L23 27.2005Z" />
    </symbol>
</svg>
