<svg xmlns="http://www.w3.org/2000/svg" style="display: none;">
  <symbol id="record" viewBox="0 0 20 20">
    <path d="M11.7084 6.33335C11.7084 5.96517 11.4099 5.66669 11.0417 5.66669H3.95841C3.59022 5.66669 3.29175 5.96517 3.29175 6.33335V13.6667C3.29175 14.0349 3.59022 14.3334 3.95841 14.3334H11.0417C11.4099 14.3334 11.7084 14.0349 11.7084 13.6667V6.33335ZM12.9584 10.0505L12.9633 10.0928C12.9722 10.135 12.9937 10.1738 13.026 10.2035L16.2084 13.0783V6.92092L13.026 9.79657C12.9831 9.83594 12.9585 9.89135 12.9584 9.94956V10.0505ZM12.9584 8.41164L15.8378 5.67906L15.9672 5.57733C16.6361 5.12765 17.5834 5.59741 17.5834 6.44729V13.5528C17.5834 14.4591 16.5059 14.9333 15.8378 14.321L12.9584 11.5876V13.6667C12.9584 14.7254 12.1005 15.5834 11.0417 15.5834H3.95841C2.89964 15.5834 2.04175 14.7254 2.04175 13.6667V6.33335C2.04175 5.27458 2.89964 4.41669 3.95841 4.41669H11.0417C12.1005 4.41669 12.9584 5.27458 12.9584 6.33335V8.41164Z" fill="currentColor" />
  </symbol>
</svg>