<svg xmlns="http://www.w3.org/2000/svg" style="display: none;">
  <symbol id="emoji" viewBox="0 0 20 20">
    <path d="M10,2c4.4,0,8,3.6,8,8c0,4.4-3.6,8-8,8c-4.4,0-8-3.6-8-8C2,5.6,5.6,2,10,2z M10,3c-3.9,0-7,3.1-7,7c0,3.9,3.1,7,7,7c3.9,0,7-3.1,7-7C17,6.1,13.9,3,10,3z M7.2,12.4c1.5,1.5,3.9,1.6,5.5,0.2l0.2-0.2c0.2-0.2,0.5-0.2,0.7,0c0.2,0.2,0.2,0.4,0.1,0.6l-0.1,0.1l0,0c-2,2-5.1,1.9-7.1,0c-0.2-0.2-0.2-0.5,0-0.7C6.6,12.2,7,12.2,7.2,12.4z M12.5,7.5c0.6,0,1,0.4,1,1s-0.4,1-1,1s-1-0.4-1-1S11.9,7.5,12.5,7.5z M7.5,7.5c0.6,0,1,0.4,1,1s-0.4,1-1,1s-1-0.4-1-1S6.9,7.5,7.5,7.5z"/>
  </symbol>
  <symbol id="emoji-add" viewBox="0 0 24 24">
    <path d="M20.2502 0.99996C20.2502 0.585746 19.9143 0.249978 19.5001 0.25C19.0859 0.250022 18.7502 0.585826 18.7502 1.00004L18.7503 3.75032L16 3.75019C15.5858 3.75017 15.25 4.08594 15.25 4.50015C15.25 4.91436 15.5857 5.25017 16 5.25019L18.7504 5.25032L18.7505 8.00004C18.7506 8.41425 19.0864 8.75002 19.5006 8.75C19.9148 8.74998 20.2506 8.41417 20.2505 7.99996L20.2504 5.2504L23 5.25054C23.4142 5.25056 23.75 4.91479 23.75 4.50057C23.75 4.08636 23.4143 3.75056 23 3.75054L20.2503 3.7504L20.2502 0.99996Z"/>
    <path d="M6.02763 3.0617C7.79545 1.88048 9.87386 1.25 12 1.25C12.4142 1.25 12.75 1.58579 12.75 2C12.75 2.41421 12.4142 2.75 12 2.75C10.1705 2.75 8.38213 3.2925 6.86098 4.30891C5.33983 5.32531 4.15423 6.76996 3.45412 8.46018C2.75401 10.1504 2.57083 12.0103 2.92774 13.8046C3.28465 15.5989 4.16563 17.2471 5.45927 18.5407C6.7529 19.8344 8.40109 20.7154 10.1954 21.0723C11.9897 21.4292 13.8496 21.246 15.5398 20.5459C17.23 19.8458 18.6747 18.6602 19.6911 17.139C20.7075 15.6179 21.25 13.8295 21.25 12C21.25 11.5858 21.5858 11.25 22 11.25C22.4142 11.25 22.75 11.5858 22.75 12C22.75 14.1261 22.1195 16.2046 20.9383 17.9724C19.7571 19.7402 18.0782 21.1181 16.1139 21.9317C14.1495 22.7453 11.9881 22.9582 9.90278 22.5434C7.81749 22.1287 5.90202 21.1048 4.39861 19.6014C2.89519 18.098 1.87135 16.1825 1.45656 14.0972C1.04177 12.0119 1.25466 9.85046 2.0683 7.88615C2.88194 5.92185 4.2598 4.24293 6.02763 3.0617Z"/>
    <path d="M12 19C13.8962 19 15.4889 17.7202 15.9362 15.9899C16.1443 15.1848 15.8422 15 15.0461 15H8.95386C8.15776 15 7.8557 15.1848 8.0638 15.9899C8.51109 17.7202 10.1038 19 12 19Z"/>
    <path d="M8.5 12C9.32843 12 10 11.3284 10 10.5C10 9.67157 9.32843 9 8.5 9C7.67157 9 7 9.67157 7 10.5C7 11.3284 7.67157 12 8.5 12Z"/>
    <path d="M17 10.5C17 11.3284 16.3284 12 15.5 12C14.6716 12 14 11.3284 14 10.5C14 9.67157 14.6716 9 15.5 9C16.3284 9 17 9.67157 17 10.5Z"/>
  </symbol>
  <symbol id="activities" viewBox="0 0 24 24">
    <path d="M12,7.8c0.4,0,0.8-0.3,0.8-0.8S12.4,6.2,12,6.2c-3.2,0-5.8,2.6-5.8,5.8c0,3.2,2.6,5.8,5.8,5.8c3.2,0,5.8-2.6,5.8-5.8c0-0.4-0.3-0.8-0.8-0.8s-0.8,0.3-0.8,0.8c0,2.3-1.9,4.2-4.2,4.2c-2.3,0-4.2-1.9-4.2-4.2C7.8,9.7,9.7,7.8,12,7.8z"/>
    <path d="M21.7,10.9c0-0.4-0.4-0.7-0.8-0.7c-0.4,0-0.7,0.4-0.7,0.8c0.1,0.6,0.1,1.2,0,1.8c-0.2,2.2-1.3,4.2-3.1,5.5c-1.7,1.4-3.9,2-6.1,1.8c-2.2-0.2-4.2-1.3-5.5-3.1c-1.4-1.7-2-3.9-1.8-6.1C4,8.9,5.1,6.9,6.8,5.6s3.9-2,6.1-1.8c0.4,0.1,0.8-0.2,0.8-0.7c0-0.4-0.2-0.8-0.7-0.8C10.5,2,7.9,2.8,5.9,4.4c-2,1.6-3.3,3.9-3.6,6.5C2,13.5,2.8,16,4.4,18.1c1.6,2,3.9,3.3,6.5,3.6c0.4,0,0.7,0.1,1.1,0.1c2.2,0,4.3-0.7,6.1-2.1c2-1.6,3.3-3.9,3.6-6.5C21.8,12.4,21.8,11.6,21.7,10.9z"/>
    <path d="M12.6,10.4c-0.2-0.1-0.4-0.1-0.6-0.1c-1,0-1.8,0.8-1.8,1.8s0.8,1.8,1.8,1.8s1.8-0.8,1.8-1.8c0-0.2,0-0.4-0.1-0.6l1.7-1.7H18c0.2,0,0.4-0.1,0.5-0.2l3-3c0.2-0.2,0.3-0.5,0.2-0.8c-0.1-0.3-0.4-0.5-0.7-0.5h-2.2V3c0-0.3-0.2-0.6-0.5-0.7c-0.3-0.1-0.6-0.1-0.8,0.2l-3,3c-0.1,0.1-0.2,0.3-0.2,0.5v2.7L12.6,10.4z M15.8,6.3l1.5-1.5V6c0,0.4,0.3,0.8,0.8,0.8h1.2l-1.5,1.5h-1.9V6.3z"/>
  </symbol>
  <symbol id="animals-and-nature" viewBox="0 0 24 24">
    <path d="M10,9.8c-0.7,0-1.2,0.6-1.2,1.3s0.6,1.2,1.2,1.2s1.2-0.6,1.2-1.2v0C11.2,10.3,10.7,9.8,10,9.8z" />
    <path d="M14,9.8c-0.7,0-1.2,0.6-1.2,1.3s0.6,1.2,1.2,1.2s1.2-0.6,1.2-1.2v0C15.2,10.3,14.7,9.8,14,9.8z" />
    <path d="M21.7,10.6l-2-6.8c-0.1-0.4-0.5-0.6-0.8-0.5l-6,1c0,0,0,0,0,0h-1.7c0,0,0,0,0,0l-6-1C4.7,3.2,4.4,3.4,4.3,3.8l-2,6.9c-0.1,0.6,0.1,1.3,0.6,1.7c0.3,0.3,0.7,0.4,1.1,0.4c0.1,0,0.2,0,0.3,0c0.8,5.3,2.7,8,5.7,8h4c3,0,4.9-2.7,5.7-8c0.1,0,0.2,0,0.3,0c0.4,0,0.8-0.1,1.1-0.4C21.6,11.9,21.9,11.3,21.7,10.6z M3.8,11.2c-0.1,0-0.1-0.1-0.1-0.2l1.8-6.2l4,0.6l-5.3,5.7C4.1,11.3,3.9,11.3,3.8,11.2z M14,19.2h-1.2V18c0-0.1,0-0.2-0.1-0.4c0.7-0.2,1.1-0.8,1.1-1.6c0-0.4-0.3-0.8-0.8-0.8h-2c-0.4,0-0.8,0.3-0.8,0.8c0,0.8,0.4,1.4,1.1,1.6c-0.1,0.1-0.1,0.2-0.1,0.4v1.2H10c-2.2,0-3.6-2.5-4.3-7.3c0-0.1,0-0.1,0-0.1l5.6-6h1.4l5.6,6c0,0,0,0.1,0,0.1C17.6,16.8,16.2,19.2,14,19.2z M20.2,11.2c-0.1,0.1-0.3,0.1-0.4,0l-5.3-5.7l4-0.6l1.8,6.1C20.3,11.1,20.2,11.1,20.2,11.2z" />
  </symbol>
  <symbol id="flags" viewBox="0 0 24 24">
    <path d="M19.3,4.3c-0.3-0.1-0.6-0.1-0.8,0.2c-1.6,1.6-4.3,1.6-5.9,0c-2.2-2.2-5.8-2.2-8,0C4.3,4.6,4.2,4.8,4.2,5v9v7c0,0.4,0.3,0.8,0.8,0.8s0.8-0.3,0.8-0.8v-6.6c1.7-1.4,4.2-1.4,5.7,0.2c1.1,1.1,2.6,1.6,4,1.6s2.9-0.5,4-1.6c0.1-0.1,0.2-0.3,0.2-0.5V5C19.8,4.7,19.6,4.4,19.3,4.3z M18.2,13.7c-1.7,1.4-4.2,1.3-5.7-0.2c-1.1-1.1-2.6-1.6-4-1.6c-0.9,0-1.9,0.2-2.8,0.7V5.3C7.4,3.9,9.9,4,11.5,5.5c1.8,1.8,4.6,2.1,6.8,0.9V13.7z"/>
  </symbol>
  <symbol id="food-and-drink" viewBox="0 0 24 24">
    <path d="M7.6,7.6C7.7,7.7,7.8,7.8,8,7.8c0.2,0,0.5-0.1,0.6-0.3c0.2-0.3,0.2-0.8-0.2-1C8,6.1,7.7,5.6,7.8,5c0-0.5,0.2-1.1,0.7-1.4c0.3-0.2,0.4-0.7,0.2-1c-0.2-0.3-0.7-0.4-1-0.2C6.7,3,6.2,4,6.2,5C6.2,6,6.7,7,7.6,7.6z"/>
    <path d="M11.6,7.6c0.1,0.1,0.3,0.1,0.4,0.1c0.2,0,0.5-0.1,0.6-0.3c0.2-0.3,0.2-0.8-0.2-1C12,6.1,11.7,5.6,11.8,5c0-0.5,0.2-1.1,0.7-1.4c0.3-0.2,0.4-0.7,0.2-1c-0.2-0.3-0.7-0.4-1-0.2C10.7,3,10.2,4,10.2,5C10.2,6,10.7,7,11.6,7.6z"/>
    <path d="M19.6,10.6c-0.6-0.3-1.2-0.4-1.8-0.3V10c0-0.4-0.3-0.8-0.8-0.8H3c-0.4,0-0.8,0.3-0.8,0.8v5c0,3.7,3,6.8,6.8,6.8h2c2.8,0,5.2-1.7,6.2-4.1c0.3,0.1,0.5,0.1,0.8,0.1c0.4,0,0.9-0.1,1.3-0.2c0.9-0.3,1.7-1,2.1-2C22.3,13.7,21.4,11.5,19.6,10.6zM16.2,10.8v0.4c0,0,0,0,0,0v1.6c-0.8-0.3-1.7-0.5-2.7-0.5c-1.5,0-3,0.4-4,1.2c-0.7,0.5-1.8,0.8-3.1,0.8c-1.1,0-2-0.2-2.7-0.7v-2.8H16.2z M11,20.2H9c-2.8,0-5.1-2.2-5.2-5c0.8,0.3,1.7,0.5,2.6,0.5c0.1,0,0.1,0,0.2,0c1.5,0,2.9-0.4,3.9-1.2c0.7-0.5,1.8-0.8,3-0.8c0.1,0,0.1,0,0.2,0c1,0,2,0.2,2.7,0.7V15C16.2,17.9,13.9,20.2,11,20.2z M20,14.9c-0.2,0.5-0.7,1-1.3,1.2c-0.4,0.1-0.8,0.2-1.1,0.1c0.1-0.4,0.1-0.8,0.1-1.2v-3.2c0.4,0,0.8,0,1.2,0.2C20.1,12.5,20.6,13.8,20,14.9z"/>
  </symbol>
  <symbol id="frequently-used" viewBox="0 0 24 24">
    <path d="M12,7.2c-0.4,0-0.8,0.3-0.8,0.8v4c0,0.2,0.1,0.4,0.2,0.5l2,2c0.1,0.1,0.3,0.2,0.5,0.2s0.4-0.1,0.5-0.2c0.3-0.3,0.3-0.8,0-1.1l-1.8-1.8V8C12.8,7.6,12.4,7.2,12,7.2z"/>
    <path d="M19.6,5.8c-1.6-2-4-3.3-6.6-3.5C7.6,1.7,2.8,5.6,2.3,10.9c0,0.4,0.3,0.8,0.7,0.8c0.4,0,0.8-0.3,0.8-0.7c0.5-4.5,4.5-7.8,9-7.4C15,3.9,17,5,18.4,6.7c1.4,1.7,2,3.9,1.8,6c-0.2,2.2-1.3,4.2-3,5.6c-1.7,1.4-3.9,2-6,1.8c-2.8-0.3-5.2-2-6.5-4.4H8c0.4,0,0.8-0.3,0.8-0.8S8.5,14.2,8,14.2H3.6c0,0,0,0,0,0H3c-0.4,0-0.8,0.3-0.8,0.8v5c0,0.4,0.3,0.8,0.8,0.8s0.8-0.3,0.8-0.8v-2.8c1.6,2.5,4.2,4.1,7.2,4.4c0.3,0,0.7,0.1,1,0.1c2.2,0,4.4-0.8,6.1-2.2c2-1.6,3.3-4,3.5-6.6C22,10.3,21.2,7.8,19.6,5.8z"/>
  </symbol>
  <symbol id="getting-work-done" viewBox="0 0 24 24">
    <path d="M11,21.8c-0.1,0-0.2,0-0.2,0c-0.3-0.1-0.5-0.4-0.5-0.7v-6.2H5c-0.3,0-0.5-0.2-0.7-0.4c-0.1-0.3-0.1-0.6,0.1-0.8l8-11c0.2-0.3,0.5-0.4,0.8-0.3c0.3,0.1,0.5,0.4,0.5,0.7v6.2H19c0.3,0,0.5,0.2,0.7,0.4s0.1,0.6-0.1,0.8l-8,11C11.5,21.6,11.2,21.8,11,21.8z M6.5,13.2H11c0.4,0,0.8,0.3,0.8,0.8v4.7l5.8-7.9H13c-0.4,0-0.8-0.3-0.8-0.8V5.3L6.5,13.2z"/>
  </symbol>
  <symbol id="objects" viewBox="0 0 24 24">
    <path d="M20.7,6.9l-3.6-3.6c-1.4-1.4-3.7-1.4-5.1,0L9.3,6C8.6,6.6,8.2,7.6,8.2,8.5c0,0.9,0.3,1.7,0.8,2.3l-1.6,1.6c-0.1,0.1-0.2,0.3-0.2,0.5v1.2H6c-0.4,0-0.8,0.3-0.8,0.8v1.2H4c-0.2,0-0.4,0.1-0.5,0.2l-0.6,0.6c-0.4,0.5-0.6,1.1-0.6,1.8l0,1.2l0,0.2c0.1,0.9,0.9,1.5,1.7,1.5l1.2,0l0.2,0c0.6-0.1,1.2-0.3,1.7-0.8l6-6c1.4,1.2,3.6,1.1,4.9-0.2l2.6-2.6C22.1,10.6,22.1,8.3,20.7,6.9z M19.6,11L17,13.6c-0.8,0.8-2.2,0.8-3,0l-0.3-0.3c-0.3-0.3-0.8-0.3-1.1,0l-6.6,6.6c-0.2,0.2-0.5,0.3-0.7,0.4l-1.3,0c-0.1,0-0.2-0.1-0.2-0.2l0-1.2c0-0.3,0.1-0.6,0.3-0.8l0.3-0.3H6c0.4,0,0.8-0.3,0.8-0.8v-1.2H8c0.4,0,0.8-0.3,0.8-0.8v-1.7l1.9-1.9c0.1-0.1,0.2-0.3,0.2-0.5c0-0.2-0.1-0.4-0.2-0.5L10.4,10c-0.8-0.8-0.8-2.2,0-3L13,4.4c0.8-0.8,2.2-0.8,3,0L19.6,8C20.5,8.8,20.5,10.2,19.6,11z"/>
    <path d="M15,7.8L15,7.8c-0.7,0-1.3,0.6-1.3,1.2s0.6,1.2,1.3,1.2s1.2-0.6,1.2-1.2S15.7,7.8,15,7.8z" />
  </symbol>
  <symbol id="search" viewBox="0 0 24 24">
    <path d="M21.5,20.5L16,14.9c1.1-1.3,1.8-3.1,1.8-4.9c0-4.3-3.5-7.8-7.8-7.8S2.2,5.7,2.2,10s3.5,7.8,7.8,7.8c1.9,0,3.6-0.7,4.9-1.8l5.5,5.5c0.1,0.1,0.3,0.2,0.5,0.2s0.4-0.1,0.5-0.2C21.8,21.2,21.8,20.8,21.5,20.5z M3.8,10c0-3.4,2.8-6.2,6.2-6.2s6.2,2.8,6.2,6.2s-2.8,6.2-6.2,6.2S3.8,13.4,3.8,10z"/>
  </symbol>
  <symbol id="smileys-and-people" viewBox="0 0 24 24">
    <path d="M12,2.2c-5.4,0-9.8,4.4-9.8,9.8s4.4,9.8,9.8,9.8s9.8-4.4,9.8-9.8S17.4,2.2,12,2.2z M12,20.2c-4.5,0-8.2-3.7-8.2-8.2S7.5,3.8,12,3.8s8.2,3.7,8.2,8.2S16.5,20.2,12,20.2z"/>
    <path d="M7.8,9.5c0,0.1,0.1,0.1,0.1,0.2c0,0.1,0.1,0.1,0.2,0.2c0.2,0.2,0.6,0.4,0.9,0.4c0.1,0,0.2,0,0.2,0c0.1,0,0.1,0,0.2-0.1c0.1,0,0.1-0.1,0.2-0.1c0.1,0,0.1-0.1,0.2-0.2C9.9,9.8,10,9.8,10,9.7c0-0.1,0.1-0.1,0.1-0.2c0-0.1,0.1-0.2,0.1-0.2c0-0.1,0-0.2,0-0.2c0-0.3-0.1-0.7-0.4-0.9C9.8,8.1,9.8,8,9.7,8c-0.1,0-0.1-0.1-0.2-0.1c-0.1,0-0.2-0.1-0.2-0.1c-0.4-0.1-0.8,0-1.1,0.3C7.9,8.3,7.8,8.7,7.8,9c0,0.1,0,0.2,0,0.2C7.8,9.3,7.8,9.4,7.8,9.5z"/>
    <path d="M14.3,10c0.1,0,0.1,0.1,0.2,0.1c0.1,0,0.2,0.1,0.2,0.1c0.1,0,0.2,0,0.2,0s0.2,0,0.2,0c0.1,0,0.2,0,0.2-0.1c0.1,0,0.2-0.1,0.2-0.1c0.1-0.1,0.1-0.1,0.2-0.2c0.2-0.2,0.4-0.6,0.4-0.9c0-0.3-0.1-0.7-0.4-0.9c0-0.1-0.1-0.1-0.2-0.2c-0.1,0-0.1-0.1-0.2-0.1c-0.1,0-0.2-0.1-0.2-0.1c-0.2,0-0.3,0-0.5,0c-0.1,0-0.2,0-0.2,0.1c-0.1,0-0.1,0.1-0.2,0.1c-0.1,0-0.1,0.1-0.2,0.2c-0.2,0.2-0.4,0.6-0.4,0.9c0,0.3,0.1,0.6,0.4,0.9C14.2,9.9,14.2,10,14.3,10z"/>
    <path d="M16,12.2H8c-0.4,0-0.8,0.3-0.8,0.8c0,2.6,2.1,4.8,4.8,4.8s4.8-2.1,4.8-4.8C16.8,12.6,16.4,12.2,16,12.2z M12,16.2c-1.5,0-2.8-1.1-3.2-2.5h6.3C14.8,15.2,13.5,16.2,12,16.2z"/>
  </symbol>
  <symbol id="symbols" viewBox="0 0 24 24">
    <path d="M6.5,10.8c2.3,0,4.2-1.9,4.2-4.2S8.8,2.2,6.5,2.2S2.2,4.2,2.2,6.5S4.2,10.8,6.5,10.8z M6.5,3.8C8,3.8,9.2,5,9.2,6.5S8,9.2,6.5,9.2S3.8,8,3.8,6.5S5,3.8,6.5,3.8z"/>
    <path d="M7.2,13.6c-0.3-0.5-1-0.5-1.3,0l-4,7c-0.1,0.2-0.1,0.5,0,0.7c0.1,0.2,0.4,0.4,0.6,0.4h8c0.3,0,0.5-0.1,0.6-0.4c0.1-0.2,0.1-0.5,0-0.7L7.2,13.6z M3.8,20.2l2.7-4.7l2.7,4.7H3.8z"/>
    <path d="M18.6,6.5l3-3c0.3-0.3,0.3-0.8,0-1.1s-0.8-0.3-1.1,0l-3,3l-3-3c-0.3-0.3-0.8-0.3-1.1,0s-0.3,0.8,0,1.1l3,3l-3,3c-0.3,0.3-0.3,0.8,0,1.1c0.1,0.1,0.3,0.2,0.5,0.2s0.4-0.1,0.5-0.2l3-3l3,3c0.1,0.1,0.3,0.2,0.5,0.2s0.4-0.1,0.5-0.2c0.3-0.3,0.3-0.8,0-1.1L18.6,6.5z"/>
    <path d="M21,13.2h-7c-0.4,0-0.8,0.3-0.8,0.8v7c0,0.4,0.3,0.8,0.8,0.8h7c0.4,0,0.8-0.3,0.8-0.8v-7C21.8,13.6,21.4,13.2,21,13.2zM20.2,20.2h-5.5v-5.5h5.5V20.2z"/>
  </symbol>
  <symbol id="travel-and-places" viewBox="0 0 24 24">
    <path d="M21.5,11.5l-9-9c-0.3-0.3-0.8-0.3-1.1,0l-9,9c-0.2,0.2-0.3,0.5-0.2,0.8s0.4,0.5,0.7,0.5h1.2V19c0,1.5,1.2,2.8,2.8,2.8h10c1.5,0,2.8-1.2,2.8-2.8v-6.2H21c0.3,0,0.6-0.2,0.7-0.5C21.8,12,21.7,11.7,21.5,11.5z M18.2,19c0,0.7-0.6,1.2-1.2,1.2H7c-0.7,0-1.2-0.6-1.2-1.2v-7c0-0.4-0.3-0.8-0.8-0.8H4.8L12,4.1l7.2,7.2H19c-0.4,0-0.8,0.3-0.8,0.8V19z"/>
    <path d="M14,11.2h-4c-0.4,0-0.8,0.3-0.8,0.8v4c0,0.4,0.3,0.8,0.8,0.8h4c0.4,0,0.8-0.3,0.8-0.8v-4C14.8,11.6,14.4,11.2,14,11.2zM13.2,15.2h-2.5v-2.5h2.5V15.2z"/>
  </symbol>
  <symbol id="custom" viewBox="0 0 16 16">
    <path fill-rule="evenodd" clip-rule="evenodd" d="M9.6678 3.79452L9.31385 2.37873C9.2582 2.15615 9.05821 2 8.82878 2H7.17111C6.94167 2 6.74168 2.15615 6.68604 2.37873L6.33209 3.79452L5.93172 4.00216C5.80906 4.06577 5.68965 4.1349 5.57382 4.20922L5.19337 4.45333L3.78866 4.0515C3.56807 3.9884 3.33285 4.08352 3.21813 4.28221L2.38929 5.7178C2.27458 5.9165 2.30981 6.16777 2.47475 6.32725L3.5249 7.34265L3.50459 7.79313C3.50151 7.86163 3.49994 7.9306 3.49994 8C3.49994 8.0694 3.50151 8.13837 3.50459 8.20687L3.5249 8.65735L2.47475 9.67275C2.30981 9.83223 2.27458 10.0835 2.38929 10.2822L3.21813 11.7178C3.33285 11.9165 3.56807 12.0116 3.78866 11.9485L5.19337 11.5467L5.57382 11.7908C5.68966 11.8651 5.80907 11.9342 5.93172 11.9978L6.33209 12.2055L6.68604 13.6213C6.74168 13.8439 6.94167 14 7.17111 14H8.82878C9.05821 14 9.2582 13.8439 9.31385 13.6213L9.6678 12.2055L10.0682 11.9978C10.1908 11.9342 10.3102 11.8651 10.4261 11.7908L10.8065 11.5467L12.2112 11.9485C12.4318 12.0116 12.667 11.9165 12.7818 11.7178L13.6106 10.2822C13.7253 10.0835 13.6901 9.83225 13.5251 9.67276L12.475 8.65736L12.4953 8.20688C12.4984 8.13837 12.4999 8.0694 12.4999 8C12.4999 7.9306 12.4984 7.86163 12.4953 7.79312L12.475 7.34264L13.5251 6.32724C13.6901 6.16775 13.7253 5.91648 13.6106 5.71779L12.7818 4.2822C12.667 4.0835 12.4318 3.98838 12.2112 4.05148L10.8065 4.45332L10.4261 4.20921C10.3102 4.13489 10.1908 4.06577 10.0682 4.00216L9.6678 3.79452ZM10.5286 3.11444L10.284 2.1362C10.1171 1.46845 9.51708 1 8.82878 1H7.17111C6.48281 1 5.88283 1.46845 5.71589 2.1362L5.47133 3.11444C5.32132 3.19224 5.17534 3.27675 5.03379 3.36757L4.06369 3.09006C3.40193 2.90076 2.69626 3.18613 2.3521 3.78221L1.52327 5.2178C1.17912 5.81389 1.28482 6.5677 1.77964 7.04615L2.50561 7.7481C2.50185 7.8316 2.49994 7.91558 2.49994 8C2.49994 8.08442 2.50185 8.1684 2.50561 8.2519L1.77964 8.95385C1.28482 9.4323 1.17912 10.1861 1.52327 10.7822L2.3521 12.2178C2.69626 12.8139 3.40193 13.0992 4.06369 12.9099L5.03379 12.6324C5.17534 12.7232 5.32132 12.8078 5.47133 12.8856L5.71589 13.8638C5.88283 14.5316 6.48281 15 7.17111 15H8.82878C9.51708 15 10.1171 14.5316 10.284 13.8638L10.5286 12.8856C10.6786 12.8078 10.8245 12.7233 10.9661 12.6324L11.9362 12.91C12.598 13.0993 13.3036 12.8139 13.6478 12.2178L14.4766 10.7822C14.8208 10.1861 14.7151 9.43231 14.2202 8.95386L13.4943 8.25191C13.498 8.16841 13.4999 8.08443 13.4999 8C13.4999 7.91557 13.498 7.83159 13.4943 7.74809L14.2202 7.04614C14.7151 6.56769 14.8208 5.81387 14.4766 5.21779L13.6478 3.7822C13.3036 3.18611 12.598 2.90074 11.9362 3.09005L10.9661 3.36756C10.8245 3.27675 10.6786 3.19224 10.5286 3.11444Z" />
    <path fill-rule="evenodd" clip-rule="evenodd" d="M7.99994 10C9.10451 10 9.99994 9.10457 9.99994 8C9.99994 6.89543 9.10451 6 7.99994 6C6.89537 6 5.99994 6.89543 5.99994 8C5.99994 9.10457 6.89537 10 7.99994 10ZM7.99994 11C9.6568 11 10.9999 9.65685 10.9999 8C10.9999 6.34315 9.6568 5 7.99994 5C6.34309 5 4.99994 6.34315 4.99994 8C4.99994 9.65685 6.34309 11 7.99994 11Z" />
  </symbol>
</svg>
