<svg xmlns="http://www.w3.org/2000/svg" style="display: none;">
  <symbol id="emoji" viewBox="0 0 24 24">
    <path fill-rule="evenodd" clip-rule="evenodd" d="M12 2.75C6.89137 2.75 2.75 6.89137 2.75 12C2.75 17.1086 6.89137 21.25 12 21.25C17.1086 21.25 21.25 17.1086 21.25 12C21.25 6.89137 17.1086 2.75 12 2.75ZM1.25 12C1.25 6.06294 6.06294 1.25 12 1.25C17.9371 1.25 22.75 6.06294 22.75 12C22.75 17.9371 17.9371 22.75 12 22.75C6.06294 22.75 1.25 17.9371 1.25 12Z"/>
    <path fill-rule="evenodd" clip-rule="evenodd" d="M7.54958 14.4003C7.88078 14.1516 8.35093 14.2184 8.59968 14.5496C9.37627 15.5835 10.6102 16.25 12 16.25C13.3898 16.25 14.6237 15.5835 15.4003 14.5496C15.6491 14.2184 16.1192 14.1516 16.4504 14.4003C16.7816 14.6491 16.8484 15.1192 16.5997 15.4504C15.552 16.8453 13.8816 17.75 12 17.75C10.1184 17.75 8.44797 16.8453 7.40031 15.4504C7.15155 15.1192 7.21838 14.6491 7.54958 14.4003Z"/>
    <path fill-rule="evenodd" clip-rule="evenodd" d="M7 9C7 8.44772 7.44772 8 8 8H8.00897C8.56125 8 9.00897 8.44772 9.00897 9C9.00897 9.55228 8.56125 10 8.00897 10H8C7.44772 10 7 9.55228 7 9ZM14.991 9C14.991 8.44772 15.4387 8 15.991 8H16C16.5523 8 17 8.44772 17 9C17 9.55228 16.5523 10 16 10H15.991C15.4387 10 14.991 9.55228 14.991 9Z"/>
  </symbol>
  <symbol id="emoji-add" viewBox="0 0 24 24">
    <path d="M20.2502 0.99996C20.2502 0.585746 19.9143 0.249978 19.5001 0.25C19.0859 0.250022 18.7502 0.585826 18.7502 1.00004L18.7503 3.75032L16 3.75019C15.5858 3.75017 15.25 4.08594 15.25 4.50015C15.25 4.91436 15.5857 5.25017 16 5.25019L18.7504 5.25032L18.7505 8.00004C18.7506 8.41425 19.0864 8.75002 19.5006 8.75C19.9148 8.74998 20.2506 8.41417 20.2505 7.99996L20.2504 5.2504L23 5.25054C23.4142 5.25056 23.75 4.91479 23.75 4.50057C23.75 4.08636 23.4143 3.75056 23 3.75054L20.2503 3.7504L20.2502 0.99996Z"/>
    <path d="M6.02763 3.0617C7.79545 1.88048 9.87386 1.25 12 1.25C12.4142 1.25 12.75 1.58579 12.75 2C12.75 2.41421 12.4142 2.75 12 2.75C10.1705 2.75 8.38213 3.2925 6.86098 4.30891C5.33983 5.32531 4.15423 6.76996 3.45412 8.46018C2.75401 10.1504 2.57083 12.0103 2.92774 13.8046C3.28465 15.5989 4.16563 17.2471 5.45927 18.5407C6.7529 19.8344 8.40109 20.7154 10.1954 21.0723C11.9897 21.4292 13.8496 21.246 15.5398 20.5459C17.23 19.8458 18.6747 18.6602 19.6911 17.139C20.7075 15.6179 21.25 13.8295 21.25 12C21.25 11.5858 21.5858 11.25 22 11.25C22.4142 11.25 22.75 11.5858 22.75 12C22.75 14.1261 22.1195 16.2046 20.9383 17.9724C19.7571 19.7402 18.0782 21.1181 16.1139 21.9317C14.1495 22.7453 11.9881 22.9582 9.90278 22.5434C7.81749 22.1287 5.90202 21.1048 4.39861 19.6014C2.89519 18.098 1.87135 16.1825 1.45656 14.0972C1.04177 12.0119 1.25466 9.85046 2.0683 7.88615C2.88194 5.92185 4.2598 4.24293 6.02763 3.0617Z"/>
    <path d="M12 19C13.8962 19 15.4889 17.7202 15.9362 15.9899C16.1443 15.1848 15.8422 15 15.0461 15H8.95386C8.15776 15 7.8557 15.1848 8.0638 15.9899C8.51109 17.7202 10.1038 19 12 19Z"/>
    <path d="M8.5 12C9.32843 12 10 11.3284 10 10.5C10 9.67157 9.32843 9 8.5 9C7.67157 9 7 9.67157 7 10.5C7 11.3284 7.67157 12 8.5 12Z"/>
    <path d="M17 10.5C17 11.3284 16.3284 12 15.5 12C14.6716 12 14 11.3284 14 10.5C14 9.67157 14.6716 9 15.5 9C16.3284 9 17 9.67157 17 10.5Z"/>
  </symbol>
  <symbol id="activities" viewBox="0 0 24 24">
    <path d="M12,7.8c0.4,0,0.8-0.3,0.8-0.8S12.4,6.2,12,6.2c-3.2,0-5.8,2.6-5.8,5.8c0,3.2,2.6,5.8,5.8,5.8c3.2,0,5.8-2.6,5.8-5.8c0-0.4-0.3-0.8-0.8-0.8s-0.8,0.3-0.8,0.8c0,2.3-1.9,4.2-4.2,4.2c-2.3,0-4.2-1.9-4.2-4.2C7.8,9.7,9.7,7.8,12,7.8z"/>
    <path d="M21.7,10.9c0-0.4-0.4-0.7-0.8-0.7c-0.4,0-0.7,0.4-0.7,0.8c0.1,0.6,0.1,1.2,0,1.8c-0.2,2.2-1.3,4.2-3.1,5.5c-1.7,1.4-3.9,2-6.1,1.8c-2.2-0.2-4.2-1.3-5.5-3.1c-1.4-1.7-2-3.9-1.8-6.1C4,8.9,5.1,6.9,6.8,5.6s3.9-2,6.1-1.8c0.4,0.1,0.8-0.2,0.8-0.7c0-0.4-0.2-0.8-0.7-0.8C10.5,2,7.9,2.8,5.9,4.4c-2,1.6-3.3,3.9-3.6,6.5C2,13.5,2.8,16,4.4,18.1c1.6,2,3.9,3.3,6.5,3.6c0.4,0,0.7,0.1,1.1,0.1c2.2,0,4.3-0.7,6.1-2.1c2-1.6,3.3-3.9,3.6-6.5C21.8,12.4,21.8,11.6,21.7,10.9z"/>
    <path d="M12.6,10.4c-0.2-0.1-0.4-0.1-0.6-0.1c-1,0-1.8,0.8-1.8,1.8s0.8,1.8,1.8,1.8s1.8-0.8,1.8-1.8c0-0.2,0-0.4-0.1-0.6l1.7-1.7H18c0.2,0,0.4-0.1,0.5-0.2l3-3c0.2-0.2,0.3-0.5,0.2-0.8c-0.1-0.3-0.4-0.5-0.7-0.5h-2.2V3c0-0.3-0.2-0.6-0.5-0.7c-0.3-0.1-0.6-0.1-0.8,0.2l-3,3c-0.1,0.1-0.2,0.3-0.2,0.5v2.7L12.6,10.4z M15.8,6.3l1.5-1.5V6c0,0.4,0.3,0.8,0.8,0.8h1.2l-1.5,1.5h-1.9V6.3z"/>
  </symbol>
  <symbol id="animals-and-nature" viewBox="0 0 24 24">
    <path d="M10,9.8c-0.7,0-1.2,0.6-1.2,1.3s0.6,1.2,1.2,1.2s1.2-0.6,1.2-1.2v0C11.2,10.3,10.7,9.8,10,9.8z" />
    <path d="M14,9.8c-0.7,0-1.2,0.6-1.2,1.3s0.6,1.2,1.2,1.2s1.2-0.6,1.2-1.2v0C15.2,10.3,14.7,9.8,14,9.8z" />
    <path d="M21.7,10.6l-2-6.8c-0.1-0.4-0.5-0.6-0.8-0.5l-6,1c0,0,0,0,0,0h-1.7c0,0,0,0,0,0l-6-1C4.7,3.2,4.4,3.4,4.3,3.8l-2,6.9c-0.1,0.6,0.1,1.3,0.6,1.7c0.3,0.3,0.7,0.4,1.1,0.4c0.1,0,0.2,0,0.3,0c0.8,5.3,2.7,8,5.7,8h4c3,0,4.9-2.7,5.7-8c0.1,0,0.2,0,0.3,0c0.4,0,0.8-0.1,1.1-0.4C21.6,11.9,21.9,11.3,21.7,10.6z M3.8,11.2c-0.1,0-0.1-0.1-0.1-0.2l1.8-6.2l4,0.6l-5.3,5.7C4.1,11.3,3.9,11.3,3.8,11.2z M14,19.2h-1.2V18c0-0.1,0-0.2-0.1-0.4c0.7-0.2,1.1-0.8,1.1-1.6c0-0.4-0.3-0.8-0.8-0.8h-2c-0.4,0-0.8,0.3-0.8,0.8c0,0.8,0.4,1.4,1.1,1.6c-0.1,0.1-0.1,0.2-0.1,0.4v1.2H10c-2.2,0-3.6-2.5-4.3-7.3c0-0.1,0-0.1,0-0.1l5.6-6h1.4l5.6,6c0,0,0,0.1,0,0.1C17.6,16.8,16.2,19.2,14,19.2z M20.2,11.2c-0.1,0.1-0.3,0.1-0.4,0l-5.3-5.7l4-0.6l1.8,6.1C20.3,11.1,20.2,11.1,20.2,11.2z" />
  </symbol>
  <symbol id="flags" viewBox="0 0 24 24">
    <path d="M19.3,4.3c-0.3-0.1-0.6-0.1-0.8,0.2c-1.6,1.6-4.3,1.6-5.9,0c-2.2-2.2-5.8-2.2-8,0C4.3,4.6,4.2,4.8,4.2,5v9v7c0,0.4,0.3,0.8,0.8,0.8s0.8-0.3,0.8-0.8v-6.6c1.7-1.4,4.2-1.4,5.7,0.2c1.1,1.1,2.6,1.6,4,1.6s2.9-0.5,4-1.6c0.1-0.1,0.2-0.3,0.2-0.5V5C19.8,4.7,19.6,4.4,19.3,4.3z M18.2,13.7c-1.7,1.4-4.2,1.3-5.7-0.2c-1.1-1.1-2.6-1.6-4-1.6c-0.9,0-1.9,0.2-2.8,0.7V5.3C7.4,3.9,9.9,4,11.5,5.5c1.8,1.8,4.6,2.1,6.8,0.9V13.7z"/>
  </symbol>
  <symbol id="food-and-drink" viewBox="0 0 24 24">
    <path d="M7.6,7.6C7.7,7.7,7.8,7.8,8,7.8c0.2,0,0.5-0.1,0.6-0.3c0.2-0.3,0.2-0.8-0.2-1C8,6.1,7.7,5.6,7.8,5c0-0.5,0.2-1.1,0.7-1.4c0.3-0.2,0.4-0.7,0.2-1c-0.2-0.3-0.7-0.4-1-0.2C6.7,3,6.2,4,6.2,5C6.2,6,6.7,7,7.6,7.6z"/>
    <path d="M11.6,7.6c0.1,0.1,0.3,0.1,0.4,0.1c0.2,0,0.5-0.1,0.6-0.3c0.2-0.3,0.2-0.8-0.2-1C12,6.1,11.7,5.6,11.8,5c0-0.5,0.2-1.1,0.7-1.4c0.3-0.2,0.4-0.7,0.2-1c-0.2-0.3-0.7-0.4-1-0.2C10.7,3,10.2,4,10.2,5C10.2,6,10.7,7,11.6,7.6z"/>
    <path d="M19.6,10.6c-0.6-0.3-1.2-0.4-1.8-0.3V10c0-0.4-0.3-0.8-0.8-0.8H3c-0.4,0-0.8,0.3-0.8,0.8v5c0,3.7,3,6.8,6.8,6.8h2c2.8,0,5.2-1.7,6.2-4.1c0.3,0.1,0.5,0.1,0.8,0.1c0.4,0,0.9-0.1,1.3-0.2c0.9-0.3,1.7-1,2.1-2C22.3,13.7,21.4,11.5,19.6,10.6zM16.2,10.8v0.4c0,0,0,0,0,0v1.6c-0.8-0.3-1.7-0.5-2.7-0.5c-1.5,0-3,0.4-4,1.2c-0.7,0.5-1.8,0.8-3.1,0.8c-1.1,0-2-0.2-2.7-0.7v-2.8H16.2z M11,20.2H9c-2.8,0-5.1-2.2-5.2-5c0.8,0.3,1.7,0.5,2.6,0.5c0.1,0,0.1,0,0.2,0c1.5,0,2.9-0.4,3.9-1.2c0.7-0.5,1.8-0.8,3-0.8c0.1,0,0.1,0,0.2,0c1,0,2,0.2,2.7,0.7V15C16.2,17.9,13.9,20.2,11,20.2z M20,14.9c-0.2,0.5-0.7,1-1.3,1.2c-0.4,0.1-0.8,0.2-1.1,0.1c0.1-0.4,0.1-0.8,0.1-1.2v-3.2c0.4,0,0.8,0,1.2,0.2C20.1,12.5,20.6,13.8,20,14.9z"/>
  </symbol>
  <symbol id="frequently-used" viewBox="0 0 24 24">
    <path d="M12,7.2c-0.4,0-0.8,0.3-0.8,0.8v4c0,0.2,0.1,0.4,0.2,0.5l2,2c0.1,0.1,0.3,0.2,0.5,0.2s0.4-0.1,0.5-0.2c0.3-0.3,0.3-0.8,0-1.1l-1.8-1.8V8C12.8,7.6,12.4,7.2,12,7.2z"/>
    <path d="M19.6,5.8c-1.6-2-4-3.3-6.6-3.5C7.6,1.7,2.8,5.6,2.3,10.9c0,0.4,0.3,0.8,0.7,0.8c0.4,0,0.8-0.3,0.8-0.7c0.5-4.5,4.5-7.8,9-7.4C15,3.9,17,5,18.4,6.7c1.4,1.7,2,3.9,1.8,6c-0.2,2.2-1.3,4.2-3,5.6c-1.7,1.4-3.9,2-6,1.8c-2.8-0.3-5.2-2-6.5-4.4H8c0.4,0,0.8-0.3,0.8-0.8S8.5,14.2,8,14.2H3.6c0,0,0,0,0,0H3c-0.4,0-0.8,0.3-0.8,0.8v5c0,0.4,0.3,0.8,0.8,0.8s0.8-0.3,0.8-0.8v-2.8c1.6,2.5,4.2,4.1,7.2,4.4c0.3,0,0.7,0.1,1,0.1c2.2,0,4.4-0.8,6.1-2.2c2-1.6,3.3-4,3.5-6.6C22,10.3,21.2,7.8,19.6,5.8z"/>
  </symbol>
  <symbol id="getting-work-done" viewBox="0 0 24 24">
    <path d="M11,21.8c-0.1,0-0.2,0-0.2,0c-0.3-0.1-0.5-0.4-0.5-0.7v-6.2H5c-0.3,0-0.5-0.2-0.7-0.4c-0.1-0.3-0.1-0.6,0.1-0.8l8-11c0.2-0.3,0.5-0.4,0.8-0.3c0.3,0.1,0.5,0.4,0.5,0.7v6.2H19c0.3,0,0.5,0.2,0.7,0.4s0.1,0.6-0.1,0.8l-8,11C11.5,21.6,11.2,21.8,11,21.8z M6.5,13.2H11c0.4,0,0.8,0.3,0.8,0.8v4.7l5.8-7.9H13c-0.4,0-0.8-0.3-0.8-0.8V5.3L6.5,13.2z"/>
  </symbol>
  <symbol id="objects" viewBox="0 0 24 24">
    <path d="M20.7,6.9l-3.6-3.6c-1.4-1.4-3.7-1.4-5.1,0L9.3,6C8.6,6.6,8.2,7.6,8.2,8.5c0,0.9,0.3,1.7,0.8,2.3l-1.6,1.6c-0.1,0.1-0.2,0.3-0.2,0.5v1.2H6c-0.4,0-0.8,0.3-0.8,0.8v1.2H4c-0.2,0-0.4,0.1-0.5,0.2l-0.6,0.6c-0.4,0.5-0.6,1.1-0.6,1.8l0,1.2l0,0.2c0.1,0.9,0.9,1.5,1.7,1.5l1.2,0l0.2,0c0.6-0.1,1.2-0.3,1.7-0.8l6-6c1.4,1.2,3.6,1.1,4.9-0.2l2.6-2.6C22.1,10.6,22.1,8.3,20.7,6.9z M19.6,11L17,13.6c-0.8,0.8-2.2,0.8-3,0l-0.3-0.3c-0.3-0.3-0.8-0.3-1.1,0l-6.6,6.6c-0.2,0.2-0.5,0.3-0.7,0.4l-1.3,0c-0.1,0-0.2-0.1-0.2-0.2l0-1.2c0-0.3,0.1-0.6,0.3-0.8l0.3-0.3H6c0.4,0,0.8-0.3,0.8-0.8v-1.2H8c0.4,0,0.8-0.3,0.8-0.8v-1.7l1.9-1.9c0.1-0.1,0.2-0.3,0.2-0.5c0-0.2-0.1-0.4-0.2-0.5L10.4,10c-0.8-0.8-0.8-2.2,0-3L13,4.4c0.8-0.8,2.2-0.8,3,0L19.6,8C20.5,8.8,20.5,10.2,19.6,11z"/>
    <path d="M15,7.8L15,7.8c-0.7,0-1.3,0.6-1.3,1.2s0.6,1.2,1.3,1.2s1.2-0.6,1.2-1.2S15.7,7.8,15,7.8z" />
  </symbol>
  <symbol id="search" viewBox="0 0 24 24">
    <path d="M21.5,20.5L16,14.9c1.1-1.3,1.8-3.1,1.8-4.9c0-4.3-3.5-7.8-7.8-7.8S2.2,5.7,2.2,10s3.5,7.8,7.8,7.8c1.9,0,3.6-0.7,4.9-1.8l5.5,5.5c0.1,0.1,0.3,0.2,0.5,0.2s0.4-0.1,0.5-0.2C21.8,21.2,21.8,20.8,21.5,20.5z M3.8,10c0-3.4,2.8-6.2,6.2-6.2s6.2,2.8,6.2,6.2s-2.8,6.2-6.2,6.2S3.8,13.4,3.8,10z"/>
  </symbol>
  <symbol id="smileys-and-people" viewBox="0 0 24 24">
    <path d="M12,2.2c-5.4,0-9.8,4.4-9.8,9.8s4.4,9.8,9.8,9.8s9.8-4.4,9.8-9.8S17.4,2.2,12,2.2z M12,20.2c-4.5,0-8.2-3.7-8.2-8.2S7.5,3.8,12,3.8s8.2,3.7,8.2,8.2S16.5,20.2,12,20.2z"/>
    <path d="M7.8,9.5c0,0.1,0.1,0.1,0.1,0.2c0,0.1,0.1,0.1,0.2,0.2c0.2,0.2,0.6,0.4,0.9,0.4c0.1,0,0.2,0,0.2,0c0.1,0,0.1,0,0.2-0.1c0.1,0,0.1-0.1,0.2-0.1c0.1,0,0.1-0.1,0.2-0.2C9.9,9.8,10,9.8,10,9.7c0-0.1,0.1-0.1,0.1-0.2c0-0.1,0.1-0.2,0.1-0.2c0-0.1,0-0.2,0-0.2c0-0.3-0.1-0.7-0.4-0.9C9.8,8.1,9.8,8,9.7,8c-0.1,0-0.1-0.1-0.2-0.1c-0.1,0-0.2-0.1-0.2-0.1c-0.4-0.1-0.8,0-1.1,0.3C7.9,8.3,7.8,8.7,7.8,9c0,0.1,0,0.2,0,0.2C7.8,9.3,7.8,9.4,7.8,9.5z"/>
    <path d="M14.3,10c0.1,0,0.1,0.1,0.2,0.1c0.1,0,0.2,0.1,0.2,0.1c0.1,0,0.2,0,0.2,0s0.2,0,0.2,0c0.1,0,0.2,0,0.2-0.1c0.1,0,0.2-0.1,0.2-0.1c0.1-0.1,0.1-0.1,0.2-0.2c0.2-0.2,0.4-0.6,0.4-0.9c0-0.3-0.1-0.7-0.4-0.9c0-0.1-0.1-0.1-0.2-0.2c-0.1,0-0.1-0.1-0.2-0.1c-0.1,0-0.2-0.1-0.2-0.1c-0.2,0-0.3,0-0.5,0c-0.1,0-0.2,0-0.2,0.1c-0.1,0-0.1,0.1-0.2,0.1c-0.1,0-0.1,0.1-0.2,0.2c-0.2,0.2-0.4,0.6-0.4,0.9c0,0.3,0.1,0.6,0.4,0.9C14.2,9.9,14.2,10,14.3,10z"/>
    <path d="M16,12.2H8c-0.4,0-0.8,0.3-0.8,0.8c0,2.6,2.1,4.8,4.8,4.8s4.8-2.1,4.8-4.8C16.8,12.6,16.4,12.2,16,12.2z M12,16.2c-1.5,0-2.8-1.1-3.2-2.5h6.3C14.8,15.2,13.5,16.2,12,16.2z"/>
  </symbol>
  <symbol id="symbols" viewBox="0 0 24 24">
    <path d="M6.5,10.8c2.3,0,4.2-1.9,4.2-4.2S8.8,2.2,6.5,2.2S2.2,4.2,2.2,6.5S4.2,10.8,6.5,10.8z M6.5,3.8C8,3.8,9.2,5,9.2,6.5S8,9.2,6.5,9.2S3.8,8,3.8,6.5S5,3.8,6.5,3.8z"/>
    <path d="M7.2,13.6c-0.3-0.5-1-0.5-1.3,0l-4,7c-0.1,0.2-0.1,0.5,0,0.7c0.1,0.2,0.4,0.4,0.6,0.4h8c0.3,0,0.5-0.1,0.6-0.4c0.1-0.2,0.1-0.5,0-0.7L7.2,13.6z M3.8,20.2l2.7-4.7l2.7,4.7H3.8z"/>
    <path d="M18.6,6.5l3-3c0.3-0.3,0.3-0.8,0-1.1s-0.8-0.3-1.1,0l-3,3l-3-3c-0.3-0.3-0.8-0.3-1.1,0s-0.3,0.8,0,1.1l3,3l-3,3c-0.3,0.3-0.3,0.8,0,1.1c0.1,0.1,0.3,0.2,0.5,0.2s0.4-0.1,0.5-0.2l3-3l3,3c0.1,0.1,0.3,0.2,0.5,0.2s0.4-0.1,0.5-0.2c0.3-0.3,0.3-0.8,0-1.1L18.6,6.5z"/>
    <path d="M21,13.2h-7c-0.4,0-0.8,0.3-0.8,0.8v7c0,0.4,0.3,0.8,0.8,0.8h7c0.4,0,0.8-0.3,0.8-0.8v-7C21.8,13.6,21.4,13.2,21,13.2zM20.2,20.2h-5.5v-5.5h5.5V20.2z"/>
  </symbol>
  <symbol id="travel-and-places" viewBox="0 0 24 24">
    <path d="M21.5,11.5l-9-9c-0.3-0.3-0.8-0.3-1.1,0l-9,9c-0.2,0.2-0.3,0.5-0.2,0.8s0.4,0.5,0.7,0.5h1.2V19c0,1.5,1.2,2.8,2.8,2.8h10c1.5,0,2.8-1.2,2.8-2.8v-6.2H21c0.3,0,0.6-0.2,0.7-0.5C21.8,12,21.7,11.7,21.5,11.5z M18.2,19c0,0.7-0.6,1.2-1.2,1.2H7c-0.7,0-1.2-0.6-1.2-1.2v-7c0-0.4-0.3-0.8-0.8-0.8H4.8L12,4.1l7.2,7.2H19c-0.4,0-0.8,0.3-0.8,0.8V19z"/>
    <path d="M14,11.2h-4c-0.4,0-0.8,0.3-0.8,0.8v4c0,0.4,0.3,0.8,0.8,0.8h4c0.4,0,0.8-0.3,0.8-0.8v-4C14.8,11.6,14.4,11.2,14,11.2zM13.2,15.2h-2.5v-2.5h2.5V15.2z"/>
  </symbol>
</svg>
