<svg xmlns="http://www.w3.org/2000/svg" style="display: none;">
  <symbol id="star" viewBox="0 0 16 16">
    <path
      d="M4.8,14.5c-0.3,0-0.5-0.1-0.7-0.2c-0.4-0.3-0.6-0.8-0.6-1.3L4,10.1c0-0.1,0-0.2-0.1-0.3l-2-2C1.5,7.4,1.4,6.8,1.6,6.3 c0.2-0.5,0.6-0.8,1.1-0.9L5.4,5c0.1,0,0.2-0.1,0.2-0.2l1.2-2.6C7,1.8,7.5,1.5,8,1.5s1,0.3,1.2,0.8l0,0l1.2,2.6 c0,0.1,0.1,0.2,0.2,0.2l2.7,0.4c0.5,0.1,0.9,0.4,1.1,0.9c0.2,0.5,0,1-0.3,1.4l-2,2C12.1,9.8,12,10,12,10.1l0.5,2.8 c0.1,0.5-0.1,1-0.6,1.3c-0.4,0.3-0.9,0.3-1.4,0.1L8.1,13c-0.1,0-0.2,0-0.3,0l-2.4,1.3C5.2,14.4,5,14.5,4.8,14.5z M8,2.5 c-0.1,0-0.2,0-0.3,0.2L6.5,5.3C6.3,5.7,5.9,6,5.5,6L2.8,6.4c-0.2,0-0.2,0.2-0.3,0.2c0,0.1-0.1,0.2,0.1,0.4l2,2 C4.9,9.4,5,9.8,4.9,10.2l-0.5,2.8c0,0.2,0.1,0.3,0.1,0.4c0.1,0,0.2,0.1,0.3,0l2.4-1.3c0.4-0.2,0.9-0.2,1.2,0l2.4,1.3 c0.1,0.1,0.3,0,0.3,0c0,0,0.2-0.1,0.1-0.4l-0.5-2.8c-0.1-0.4,0.1-0.9,0.4-1.2l2-2c0.1-0.2,0.1-0.3,0.1-0.4c0-0.1-0.1-0.2-0.3-0.2 L10.5,6c-0.4-0.1-0.8-0.3-1-0.7L8.3,2.7C8.2,2.5,8.1,2.5,8,2.5z"
    />
  </symbol>
</svg>
