<svg xmlns="http://www.w3.org/2000/svg" style="display: none;">
  <symbol id="activity" viewBox="0 0 16 16">
    <path d="M7.2,6.8C7.1,6.7,6.9,6.6,6.8,6.7c-0.2,0-0.3,0.1-0.4,0.2l-2,2.6c-0.2,0.3-0.2,0.6,0.1,0.8c0.1,0.1,0.2,0.1,0.4,0.1 c0.2,0,0.4-0.1,0.5-0.2l1.6-2.1l1.8,1.4C8.9,9.6,9,9.7,9.2,9.6c0.2,0,0.3-0.1,0.4-0.2l2-2.5c0.2-0.3,0.2-0.6-0.1-0.8 c-0.3-0.2-0.6-0.2-0.8,0.1L9,8.2L7.2,6.8z"/>
    <path d="M13.3,4.7c1,0,1.9-0.8,1.9-1.9c0-1-0.8-1.9-1.9-1.9s-1.9,0.8-1.9,1.9C11.4,3.8,12.3,4.7,13.3,4.7z M13.3,2.1 c0.4,0,0.7,0.3,0.7,0.7c0,0.4-0.3,0.7-0.7,0.7s-0.7-0.3-0.7-0.7C12.6,2.4,13,2.1,13.3,2.1z"/>
    <path d="M14.1,5.6c-0.3,0-0.6,0.3-0.6,0.6v4.7c0,1.7-1,2.8-2.7,2.8H5.1c-1.6,0-2.7-1.1-2.7-2.8V5.5c0-1.7,1-2.8,2.7-2.8h4.8 c0.3,0,0.6-0.3,0.6-0.6s-0.3-0.6-0.6-0.6H5.1c-2.3,0-3.9,1.6-3.9,4v5.4c0,2.4,1.5,4,3.9,4h5.7c2.3,0,3.9-1.6,3.9-4V6.2 C14.7,5.9,14.4,5.6,14.1,5.6z"/>
  </symbol>
  <symbol id="emoji" viewBox="0 0 24 24">
    <path
            d="M10 2C14.4183 2 18 5.58172 18 10C18 14.4183 14.4183 18 10 18C5.58172 18 2 14.4183 2 10C2 5.58172 5.58172 2 10 2ZM10 3C6.13401 3 3 6.13401 3 10C3 13.866 6.13401 17 10 17C13.866 17 17 13.866 17 10C17 6.13401 13.866 3 10 3ZM7.15467 12.4273C8.66416 13.9463 11.0877 14.0045 12.6671 12.5961L12.8453 12.4273C13.04 12.2314 13.3566 12.2304 13.5524 12.4251C13.7265 12.5981 13.7467 12.8674 13.6123 13.0627L13.5547 13.1322L13.5323 13.1545C11.5691 15.1054 8.39616 15.0953 6.44533 13.1322C6.25069 12.9363 6.25169 12.6197 6.44757 12.4251C6.64344 12.2304 6.96002 12.2314 7.15467 12.4273ZM12.5 7.5C13.0523 7.5 13.5 7.94772 13.5 8.5C13.5 9.05228 13.0523 9.5 12.5 9.5C11.9477 9.5 11.5 9.05228 11.5 8.5C11.5 7.94772 11.9477 7.5 12.5 7.5ZM7.5 7.5C8.05228 7.5 8.5 7.94772 8.5 8.5C8.5 9.05228 8.05228 9.5 7.5 9.5C6.94772 9.5 6.5 9.05228 6.5 8.5C6.5 7.94772 6.94772 7.5 7.5 7.5Z"
    />
  </symbol>
  <symbol id="bookmark" viewBox="0 0 24 24">
    <path d="M20,4.2h-2.2V2c0-0.4-0.3-0.8-0.8-0.8H4C3.6,1.2,3.2,1.6,3.2,2v17c0,0.3,0.1,0.5,0.4,0.6c0.2,0.1,0.5,0.1,0.7,0 l1.9-1V22c0,0.3,0.1,0.5,0.4,0.6c0.2,0.1,0.5,0.2,0.7,0l6.2-3l6.2,3c0.2,0.1,0.5,0.1,0.7,0c0.2-0.1,0.4-0.4,0.4-0.6V5 C20.8,4.6,20.4,4.2,20,4.2z M4.8,17.8v-15h11.5v1.5H7C6.6,4.2,6.2,4.6,6.2,5v12L4.8,17.8z M19.2,20.8l-5.4-2.6 c-0.2-0.1-0.4-0.1-0.7,0l-5.4,2.6V5.8h11.5V20.8z" />
  </symbol>
</svg>
