<svg xmlns="http://www.w3.org/2000/svg" style="display: none;">
  <symbol id="activity" viewBox="0 0 16 16">
    <path d="M7.2,6.8C7.1,6.7,6.9,6.6,6.8,6.7c-0.2,0-0.3,0.1-0.4,0.2l-2,2.6c-0.2,0.3-0.2,0.6,0.1,0.8c0.1,0.1,0.2,0.1,0.4,0.1 c0.2,0,0.4-0.1,0.5-0.2l1.6-2.1l1.8,1.4C8.9,9.6,9,9.7,9.2,9.6c0.2,0,0.3-0.1,0.4-0.2l2-2.5c0.2-0.3,0.2-0.6-0.1-0.8 c-0.3-0.2-0.6-0.2-0.8,0.1L9,8.2L7.2,6.8z"/>
    <path d="M13.3,4.7c1,0,1.9-0.8,1.9-1.9c0-1-0.8-1.9-1.9-1.9s-1.9,0.8-1.9,1.9C11.4,3.8,12.3,4.7,13.3,4.7z M13.3,2.1 c0.4,0,0.7,0.3,0.7,0.7c0,0.4-0.3,0.7-0.7,0.7s-0.7-0.3-0.7-0.7C12.6,2.4,13,2.1,13.3,2.1z"/>
    <path d="M14.1,5.6c-0.3,0-0.6,0.3-0.6,0.6v4.7c0,1.7-1,2.8-2.7,2.8H5.1c-1.6,0-2.7-1.1-2.7-2.8V5.5c0-1.7,1-2.8,2.7-2.8h4.8 c0.3,0,0.6-0.3,0.6-0.6s-0.3-0.6-0.6-0.6H5.1c-2.3,0-3.9,1.6-3.9,4v5.4c0,2.4,1.5,4,3.9,4h5.7c2.3,0,3.9-1.6,3.9-4V6.2 C14.7,5.9,14.4,5.6,14.1,5.6z"/>
  </symbol>
</svg>
