<svg xmlns="http://www.w3.org/2000/svg" style="display: none;">
  <symbol id="activity" viewBox="0 0 16 16">
      <path fill-rule="evenodd" clip-rule="evenodd" d="M13 2C12.4477 2 12 2.44772 12 3C12 3.55228 12.4477 4 13 4C13.5523 4 14 3.55228 14 3C14 2.44772 13.5523 2 13 2ZM11 3C11 1.89543 11.8954 1 13 1C14.1046 1 15 1.89543 15 3C15 4.10457 14.1046 5 13 5C11.8954 5 11 4.10457 11 3ZM2 4C2 2.89543 2.89543 2 4 2H9.5C9.77614 2 10 2.22386 10 2.5C10 2.77614 9.77614 3 9.5 3H4C3.44772 3 3 3.44772 3 4V12C3 12.5523 3.44772 13 4 13H12C12.5523 13 13 12.5523 13 12V6.5C13 6.22386 13.2239 6 13.5 6C13.7761 6 14 6.22386 14 6.5V12C14 13.1046 13.1046 14 12 14H4C2.89543 14 2 13.1046 2 12V4ZM6.64645 6.64645C6.84171 6.45118 7.15829 6.45118 7.35355 6.64645L9 8.29289L10.1464 7.14645C10.3417 6.95118 10.6583 6.95118 10.8536 7.14645C11.0488 7.34171 11.0488 7.65829 10.8536 7.85355L9.35355 9.35355C9.15829 9.54882 8.84171 9.54882 8.64645 9.35355L7 7.70711L5.85355 8.85355C5.65829 9.04882 5.34171 9.04882 5.14645 8.85355C4.95118 8.65829 4.95118 8.34171 5.14645 8.14645L6.64645 6.64645Z"/>
  </symbol>

    <symbol id="emoji" viewBox="0 0 24 24">
        <path
                d="M10 2C14.4183 2 18 5.58172 18 10C18 14.4183 14.4183 18 10 18C5.58172 18 2 14.4183 2 10C2 5.58172 5.58172 2 10 2ZM10 3C6.13401 3 3 6.13401 3 10C3 13.866 6.13401 17 10 17C13.866 17 17 13.866 17 10C17 6.13401 13.866 3 10 3ZM7.15467 12.4273C8.66416 13.9463 11.0877 14.0045 12.6671 12.5961L12.8453 12.4273C13.04 12.2314 13.3566 12.2304 13.5524 12.4251C13.7265 12.5981 13.7467 12.8674 13.6123 13.0627L13.5547 13.1322L13.5323 13.1545C11.5691 15.1054 8.39616 15.0953 6.44533 13.1322C6.25069 12.9363 6.25169 12.6197 6.44757 12.4251C6.64344 12.2304 6.96002 12.2314 7.15467 12.4273ZM12.5 7.5C13.0523 7.5 13.5 7.94772 13.5 8.5C13.5 9.05228 13.0523 9.5 12.5 9.5C11.9477 9.5 11.5 9.05228 11.5 8.5C11.5 7.94772 11.9477 7.5 12.5 7.5ZM7.5 7.5C8.05228 7.5 8.5 7.94772 8.5 8.5C8.5 9.05228 8.05228 9.5 7.5 9.5C6.94772 9.5 6.5 9.05228 6.5 8.5C6.5 7.94772 6.94772 7.5 7.5 7.5Z"
        />
    </symbol>
    <symbol id="bookmark" viewBox="0 0 20 20">
        <path
                d="M16.2,18c-0.1,0-0.2,0-0.3-0.1l-6-4l-6,4c-0.2,0.1-0.4,0.1-0.5,0c-0.2-0.1-0.3-0.3-0.3-0.4V4.2 C3.2,3,4.3,2,5.5,2h8.9c1.3,0,2.3,1,2.3,2.2v13.3c0,0.2-0.1,0.4-0.3,0.4C16.4,18,16.3,18,16.2,18z M10,12.8c0.1,0,0.2,0,0.3,0.1 l5.5,3.6V4.2c0-0.6-0.6-1.2-1.3-1.2H5.5C4.8,3,4.2,3.5,4.2,4.2v12.4l5.5-3.6C9.8,12.9,9.9,12.8,10,12.8z"
        />
    </symbol>
</svg>
