<svg xmlns="http://www.w3.org/2000/svg" style="display: none;">
  <symbol id="activity" viewBox="0 0 16 16">
      <path fill-rule="evenodd" clip-rule="evenodd" d="M13 2C12.4477 2 12 2.44772 12 3C12 3.55228 12.4477 4 13 4C13.5523 4 14 3.55228 14 3C14 2.44772 13.5523 2 13 2ZM11 3C11 1.89543 11.8954 1 13 1C14.1046 1 15 1.89543 15 3C15 4.10457 14.1046 5 13 5C11.8954 5 11 4.10457 11 3ZM2 4C2 2.89543 2.89543 2 4 2H9.5C9.77614 2 10 2.22386 10 2.5C10 2.77614 9.77614 3 9.5 3H4C3.44772 3 3 3.44772 3 4V12C3 12.5523 3.44772 13 4 13H12C12.5523 13 13 12.5523 13 12V6.5C13 6.22386 13.2239 6 13.5 6C13.7761 6 14 6.22386 14 6.5V12C14 13.1046 13.1046 14 12 14H4C2.89543 14 2 13.1046 2 12V4ZM6.64645 6.64645C6.84171 6.45118 7.15829 6.45118 7.35355 6.64645L9 8.29289L10.1464 7.14645C10.3417 6.95118 10.6583 6.95118 10.8536 7.14645C11.0488 7.34171 11.0488 7.65829 10.8536 7.85355L9.35355 9.35355C9.15829 9.54882 8.84171 9.54882 8.64645 9.35355L7 7.70711L5.85355 8.85355C5.65829 9.04882 5.34171 9.04882 5.14645 8.85355C4.95118 8.65829 4.95118 8.34171 5.14645 8.14645L6.64645 6.64645Z"/>
  </symbol>
    <symbol id="emoji" viewBox="0 0 32 32">
        <path d="M16 2.00037C13.2311 2.00037 10.5243 2.82145 8.22201 4.35979C5.91973 5.89813 4.12531 8.08463 3.06569 10.6428C2.00606 13.201 1.72881 16.0159 2.269 18.7316C2.8092 21.4474 4.14257 23.9419 6.1005 25.8999C8.05844 27.8578 10.553 29.1912 13.2687 29.7314C15.9845 30.2716 18.7994 29.9943 21.3576 28.9347C23.9157 27.8751 26.1022 26.0806 27.6406 23.7783C29.1789 21.4761 30 18.7693 30 16.0004C30 12.2873 28.525 8.72638 25.8995 6.10087C23.274 3.47536 19.713 2.00037 16 2.00037ZM16 28.0004C13.6266 28.0004 11.3065 27.2966 9.33316 25.978C7.35977 24.6594 5.8217 22.7853 4.91344 20.5926C4.00519 18.3999 3.76755 15.9871 4.23058 13.6593C4.6936 11.3315 5.83649 9.19332 7.51472 7.51508C9.19295 5.83685 11.3311 4.69397 13.6589 4.23094C15.9867 3.76792 18.3995 4.00556 20.5922 4.91381C22.7849 5.82206 24.6591 7.36013 25.9776 9.33352C27.2962 11.3069 28 13.627 28 16.0004C28 19.183 26.7357 22.2352 24.4853 24.4856C22.2348 26.7361 19.1826 28.0004 16 28.0004Z" />
        <path d="M11.5 11.0004C11.0055 11.0004 10.5222 11.147 10.1111 11.4217C9.69995 11.6964 9.37952 12.0868 9.1903 12.5437C9.00108 13.0005 8.95157 13.5031 9.04804 13.9881C9.1445 14.473 9.3826 14.9185 9.73223 15.2681C10.0819 15.6178 10.5273 15.8559 11.0123 15.9523C11.4972 16.0488 11.9999 15.9993 12.4567 15.8101C12.9135 15.6208 13.304 15.3004 13.5787 14.8893C13.8534 14.4782 14 13.9948 14 13.5004C14.0027 13.1713 13.9398 12.845 13.8151 12.5405C13.6904 12.236 13.5064 11.9593 13.2737 11.7267C13.041 11.494 12.7644 11.3099 12.4599 11.1852C12.1553 11.0605 11.829 10.9977 11.5 11.0004Z" />
        <path d="M20.5 11.0004C20.0055 11.0004 19.5222 11.147 19.1111 11.4217C18.6999 11.6964 18.3795 12.0868 18.1903 12.5437C18.0011 13.0005 17.9516 13.5031 18.048 13.9881C18.1445 14.473 18.3826 14.9185 18.7322 15.2681C19.0819 15.6178 19.5273 15.8559 20.0123 15.9523C20.4972 16.0488 20.9999 15.9993 21.4567 15.8101C21.9135 15.6208 22.304 15.3004 22.5787 14.8893C22.8534 14.4782 23 13.9948 23 13.5004C23.0027 13.1713 22.9398 12.845 22.8151 12.5405C22.6904 12.236 22.5064 11.9593 22.2737 11.7267C22.041 11.494 21.7644 11.3099 21.4599 11.1852C21.1553 11.0605 20.829 10.9977 20.5 11.0004Z" />
        <path fill-rule="evenodd" clip-rule="evenodd" d="M10.3431 20.243C10.7337 19.8525 11.3668 19.8525 11.7574 20.243C12.3145 20.8002 12.9759 21.2421 13.7039 21.5436C14.4319 21.8452 15.2121 22.0004 16 22.0004C16.7879 22.0004 17.5681 21.8452 18.2961 21.5436C19.0241 21.2421 19.6855 20.8002 20.2426 20.243C20.6332 19.8525 21.2663 19.8525 21.6569 20.243C22.0474 20.6335 22.0474 21.2667 21.6569 21.6572C20.914 22.4001 20.0321 22.9894 19.0615 23.3914C18.0909 23.7934 17.0506 24.0004 16 24.0004C14.9494 24.0004 13.9091 23.7934 12.9385 23.3914C11.9679 22.9894 11.086 22.4001 10.3431 21.6572C9.95262 21.2667 9.95262 20.6335 10.3431 20.243Z" />
    </symbol>
    <symbol id="bookmark" viewBox="0 0 20 28">
        <path fill-rule="evenodd" clip-rule="evenodd" d="M0 4.00012C0 1.79098 1.79086 0.00012207 4 0.00012207H16C18.2091 0.00012207 20 1.79098 20 4.00012V27.0001C20 27.3689 19.797 27.7078 19.4719 27.8818C19.1467 28.0558 18.7522 28.0367 18.4453 27.8322L10 22.202L1.5547 27.8322C1.24784 28.0367 0.8533 28.0558 0.528142 27.8818C0.202985 27.7078 0 27.3689 0 27.0001V4.00012ZM4 2.00012C2.89543 2.00012 2 2.89555 2 4.00012V25.1316L9.4453 20.1681C9.7812 19.9441 10.2188 19.9441 10.5547 20.1681L18 25.1316V4.00012C18 2.89555 17.1046 2.00012 16 2.00012H4Z" />
    </symbol>
    <symbol id="bookmark-filled" viewBox="0 0 32 32">
        <path fill-rule="evenodd" clip-rule="evenodd" d="M6 6.00012C6 3.79098 7.79086 2.00012 10 2.00012H22C24.2091 2.00012 26 3.79098 26 6.00012V29.0001C26 29.3689 25.797 29.7078 25.4719 29.8818C25.1467 30.0558 24.7522 30.0367 24.4453 29.8322L16 24.202L7.5547 29.8322C7.24784 30.0367 6.8533 30.0558 6.52814 29.8818C6.20298 29.7078 6 29.3689 6 29.0001V6.00012Z" />
    </symbol>
</svg>
