<svg xmlns="http://www.w3.org/2000/svg" style="display: none;">
  <symbol id="tag" viewBox="0 0 16 16">
    <path d="M8 0.999878C6.61553 0.999878 5.26216 1.41042 4.11101 2.17959C2.95987 2.94876 2.06266 4.04201 1.53285 5.32109C1.00303 6.60018 0.86441 8.00764 1.13451 9.36551C1.4046 10.7234 2.07129 11.9707 3.05026 12.9496C4.02922 13.9286 5.2765 14.5953 6.63437 14.8654C7.99224 15.1355 9.3997 14.9968 10.6788 14.467C11.9579 13.9372 13.0511 13.04 13.8203 11.8889C14.5895 10.7377 15 9.38435 15 7.99988C15 6.14336 14.2625 4.36288 12.9497 3.05013C11.637 1.73738 9.85652 0.999878 8 0.999878ZM8 13.9999C6.81332 13.9999 5.65328 13.648 4.66658 12.9887C3.67989 12.3294 2.91085 11.3923 2.45673 10.296C2.0026 9.19962 1.88378 7.99322 2.11529 6.82934C2.3468 5.66545 2.91825 4.59635 3.75736 3.75724C4.59648 2.91812 5.66558 2.34668 6.82946 2.11517C7.99335 1.88365 9.19975 2.00247 10.2961 2.4566C11.3925 2.91073 12.3295 3.67976 12.9888 4.66646C13.6481 5.65315 14 6.81319 14 7.99988C14 9.59118 13.3679 11.1173 12.2426 12.2425C11.1174 13.3677 9.5913 13.9999 8 13.9999Z" />
    <path fill-rule="evenodd" clip-rule="evenodd" d="M11.3536 5.64645C11.5488 5.84171 11.5488 6.15829 11.3536 6.35355L7.35355 10.3536C7.15829 10.5488 6.84171 10.5488 6.64645 10.3536L4.64645 8.35355C4.45118 8.15829 4.45118 7.84171 4.64645 7.64645C4.84171 7.45118 5.15829 7.45118 5.35355 7.64645L7 9.29289L10.6464 5.64645C10.8417 5.45118 11.1583 5.45118 11.3536 5.64645Z" />
  </symbol>
  <symbol id="tags" viewBox="0 0 16 16">
    <path d="M2 4.5C2.55228 4.5 3 4.05228 3 3.5C3 2.94772 2.55228 2.5 2 2.5C1.44772 2.5 1 2.94772 1 3.5C1 4.05228 1.44772 4.5 2 4.5Z" />
    <path d="M4.5 3.5C4.5 3.22386 4.72386 3 5 3H14.5C14.7761 3 15 3.22386 15 3.5C15 3.77614 14.7761 4 14.5 4H5C4.72386 4 4.5 3.77614 4.5 3.5Z" />
    <path d="M4.5 8C4.5 7.72386 4.72386 7.5 5 7.5H14.5C14.7761 7.5 15 7.72386 15 8C15 8.27614 14.7761 8.5 14.5 8.5H5C4.72386 8.5 4.5 8.27614 4.5 8Z" />
    <path d="M5 12C4.72386 12 4.5 12.2239 4.5 12.5C4.5 12.7761 4.72386 13 5 13H14.5C14.7761 13 15 12.7761 15 12.5C15 12.2239 14.7761 12 14.5 12H5Z" />
    <path d="M3 8C3 8.55229 2.55228 9 2 9C1.44772 9 1 8.55229 1 8C1 7.44772 1.44772 7 2 7C2.55228 7 3 7.44772 3 8Z" />
    <path d="M2 13.5C2.55228 13.5 3 13.0523 3 12.5C3 11.9477 2.55228 11.5 2 11.5C1.44772 11.5 1 11.9477 1 12.5C1 13.0523 1.44772 13.5 2 13.5Z" />
  </symbol>
  <symbol id="card" viewBox="0 0 32 32">
      <path
    d="M26 11.0005C26 10.4482 25.5523 10.0005 25 10.0005H20C19.4477 10.0005 19 10.4482 19 11.0005C19 11.5528 19.4477 12.0005 20 12.0005H25C25.5523 12.0005 26 11.5528 26 11.0005Z"
  />
  <path
    d="M26 16.0005C26 15.4482 25.5523 15.0005 25 15.0005H20C19.4477 15.0005 19 15.4482 19 16.0005C19 16.5528 19.4477 17.0005 20 17.0005H25C25.5523 17.0005 26 16.5528 26 16.0005Z"
  />
  <path
    d="M19 21.0005C19 20.4482 19.4477 20.0005 20 20.0005H25C25.5523 20.0005 26 20.4482 26 21.0005C26 21.5528 25.5523 22.0005 25 22.0005H20C19.4477 22.0005 19 21.5528 19 21.0005Z"
  />
  <path
    fill-rule="evenodd"
    clip-rule="evenodd"
    d="M6 4.00012C3.79086 4.00012 2 5.79098 2 8.00012V24.0001C2 26.2093 3.79086 28.0001 6 28.0001H26C28.2091 28.0001 30 26.2093 30 24.0001V8.00012C30 5.79098 28.2091 4.00012 26 4.00012H6ZM15 6.00012H6C4.89543 6.00012 4 6.89555 4 8.00012V24.0001C4 25.1047 4.89543 26.0001 6 26.0001H15V6.00012ZM17 6.00012V26.0001H26C27.1046 26.0001 28 25.1047 28 24.0001V8.00012C28 6.89555 27.1046 6.00012 26 6.00012H17Z"
  /></symbol>
  <symbol id="masterTag" viewBox="0 0 32 32">
    <path d="M27.4,19.9h-6.4l1.9-7.8h4.5c0.6,0,1-0.4,1-1s-0.4-1-1-1h-4l1.7-6.9c0.1-0.5-0.2-1.1-0.7-1.2c-0.5-0.1-1.1,0.2-1.2,0.7l-1.8,7.4h-7.7l1.7-6.9c0.1-0.5-0.2-1.1-0.7-1.2c-0.5-0.1-1.1,0.2-1.2,0.7l-1.8,7.4H4.6c-0.6,0-1,0.4-1,1s0.4,1,1,1h6.4l-1.9,7.8H4.6c-0.6,0-1,0.4-1,1s0.4,1,1,1h4l-1.7,6.9c-0.1,0.5,0.2,1.1,0.7,1.2c0.1,0,0.2,0,0.2,0c0.4,0,0.9-0.3,1-0.8l1.8-7.4h7.7l-1.7,6.9c-0.1,0.5,0.2,1.1,0.7,1.2c0.1,0,0.2,0,0.2,0c0.4,0,0.9-0.3,1-0.8l1.8-7.4h6.9c0.6,0,1-0.4,1-1S27.9,19.9,27.4,19.9z M11.2,19.9l1.9-7.8h7.7l-1.9,7.8H11.2z" />
  </symbol>
  <symbol id="masterTags" viewBox="0 0 16 16">
    <path d="M2 4.5C2.55228 4.5 3 4.05228 3 3.5C3 2.94772 2.55228 2.5 2 2.5C1.44772 2.5 1 2.94772 1 3.5C1 4.05228 1.44772 4.5 2 4.5Z" />
    <path d="M4.5 3.5C4.5 3.22386 4.72386 3 5 3H14.5C14.7761 3 15 3.22386 15 3.5C15 3.77614 14.7761 4 14.5 4H5C4.72386 4 4.5 3.77614 4.5 3.5Z" />
    <path d="M4.5 8C4.5 7.72386 4.72386 7.5 5 7.5H14.5C14.7761 7.5 15 7.72386 15 8C15 8.27614 14.7761 8.5 14.5 8.5H5C4.72386 8.5 4.5 8.27614 4.5 8Z" />
    <path d="M5 12C4.72386 12 4.5 12.2239 4.5 12.5C4.5 12.7761 4.72386 13 5 13H14.5C14.7761 13 15 12.7761 15 12.5C15 12.2239 14.7761 12 14.5 12H5Z" />
    <path d="M3 8C3 8.55229 2.55228 9 2 9C1.44772 9 1 8.55229 1 8C1 7.44772 1.44772 7 2 7C2.55228 7 3 7.44772 3 8Z" />
    <path d="M2 13.5C2.55228 13.5 3 13.0523 3 12.5C3 11.9477 2.55228 11.5 2 11.5C1.44772 11.5 1 11.9477 1 12.5C1 13.0523 1.44772 13.5 2 13.5Z" />
  </symbol>
  <symbol id="file" viewBox="0 0 32 32">
    <path fill-rule="evenodd" clip-rule="evenodd" d="M9 4C7.89543 4 7 4.89543 7 6V26C7 27.1046 7.89543 28 9 28H23C24.1046 28 25 27.1046 25 26V12H21C18.7909 12 17 10.2091 17 8V4H9ZM19 4.41421V8C19 9.10457 19.8954 10 21 10H24.5858L19 4.41421ZM5 6C5 3.79086 6.79086 2 9 2H18.5858C19.1162 2 19.6249 2.21071 20 2.58579L26.4142 9C26.7893 9.37507 27 9.88378 27 10.4142V26C27 28.2091 25.2091 30 23 30H9C6.79086 30 5 28.2091 5 26V6Z" fill="currentColor"/>
  </symbol>
  <symbol id="view" viewBox="0 0 32 32">
    <path d="M25.8,2H6.2C3.9,2,2,3.9,2,6.2v19.5C2,28.1,3.9,30,6.2,30h19.5c2.3,0,4.2-1.9,4.2-4.2V6.2C30,3.9,28.1,2,25.8,2z M28,6.2v5.5H13.8V4h12C27,4,28,5,28,6.2z M6.2,4h5.5v7.8H4V6.2C4,5,5,4,6.2,4z M4,25.8v-12h7.8V28H6.2C5,28,4,27,4,25.8z M25.8,28h-12V13.8H28v12C28,27,27,28,25.8,28z" />
  </symbol>
</svg>
