<svg xmlns="http://www.w3.org/2000/svg" style="display: none;">
  <symbol id="tag" viewBox="0 0 16 16">
    <path d="M8 0.999878C6.61553 0.999878 5.26216 1.41042 4.11101 2.17959C2.95987 2.94876 2.06266 4.04201 1.53285 5.32109C1.00303 6.60018 0.86441 8.00764 1.13451 9.36551C1.4046 10.7234 2.07129 11.9707 3.05026 12.9496C4.02922 13.9286 5.2765 14.5953 6.63437 14.8654C7.99224 15.1355 9.3997 14.9968 10.6788 14.467C11.9579 13.9372 13.0511 13.04 13.8203 11.8889C14.5895 10.7377 15 9.38435 15 7.99988C15 6.14336 14.2625 4.36288 12.9497 3.05013C11.637 1.73738 9.85652 0.999878 8 0.999878ZM8 13.9999C6.81332 13.9999 5.65328 13.648 4.66658 12.9887C3.67989 12.3294 2.91085 11.3923 2.45673 10.296C2.0026 9.19962 1.88378 7.99322 2.11529 6.82934C2.3468 5.66545 2.91825 4.59635 3.75736 3.75724C4.59648 2.91812 5.66558 2.34668 6.82946 2.11517C7.99335 1.88365 9.19975 2.00247 10.2961 2.4566C11.3925 2.91073 12.3295 3.67976 12.9888 4.66646C13.6481 5.65315 14 6.81319 14 7.99988C14 9.59118 13.3679 11.1173 12.2426 12.2425C11.1174 13.3677 9.5913 13.9999 8 13.9999Z" />
    <path fill-rule="evenodd" clip-rule="evenodd" d="M11.3536 5.64645C11.5488 5.84171 11.5488 6.15829 11.3536 6.35355L7.35355 10.3536C7.15829 10.5488 6.84171 10.5488 6.64645 10.3536L4.64645 8.35355C4.45118 8.15829 4.45118 7.84171 4.64645 7.64645C4.84171 7.45118 5.15829 7.45118 5.35355 7.64645L7 9.29289L10.6464 5.64645C10.8417 5.45118 11.1583 5.45118 11.3536 5.64645Z" />
  </symbol>
  <symbol id="tags" viewBox="0 0 16 16">
    <path d="M2 4.5C2.55228 4.5 3 4.05228 3 3.5C3 2.94772 2.55228 2.5 2 2.5C1.44772 2.5 1 2.94772 1 3.5C1 4.05228 1.44772 4.5 2 4.5Z" />
    <path d="M4.5 3.5C4.5 3.22386 4.72386 3 5 3H14.5C14.7761 3 15 3.22386 15 3.5C15 3.77614 14.7761 4 14.5 4H5C4.72386 4 4.5 3.77614 4.5 3.5Z" />
    <path d="M4.5 8C4.5 7.72386 4.72386 7.5 5 7.5H14.5C14.7761 7.5 15 7.72386 15 8C15 8.27614 14.7761 8.5 14.5 8.5H5C4.72386 8.5 4.5 8.27614 4.5 8Z" />
    <path d="M5 12C4.72386 12 4.5 12.2239 4.5 12.5C4.5 12.7761 4.72386 13 5 13H14.5C14.7761 13 15 12.7761 15 12.5C15 12.2239 14.7761 12 14.5 12H5Z" />
    <path d="M3 8C3 8.55229 2.55228 9 2 9C1.44772 9 1 8.55229 1 8C1 7.44772 1.44772 7 2 7C2.55228 7 3 7.44772 3 8Z" />
    <path d="M2 13.5C2.55228 13.5 3 13.0523 3 12.5C3 11.9477 2.55228 11.5 2 11.5C1.44772 11.5 1 11.9477 1 12.5C1 13.0523 1.44772 13.5 2 13.5Z" />
  </symbol>
  <symbol id="card" viewBox="0 0 32 32">
      <path
    d="M26 11.0005C26 10.4482 25.5523 10.0005 25 10.0005H20C19.4477 10.0005 19 10.4482 19 11.0005C19 11.5528 19.4477 12.0005 20 12.0005H25C25.5523 12.0005 26 11.5528 26 11.0005Z"
  />
  <path
    d="M26 16.0005C26 15.4482 25.5523 15.0005 25 15.0005H20C19.4477 15.0005 19 15.4482 19 16.0005C19 16.5528 19.4477 17.0005 20 17.0005H25C25.5523 17.0005 26 16.5528 26 16.0005Z"
  />
  <path
    d="M19 21.0005C19 20.4482 19.4477 20.0005 20 20.0005H25C25.5523 20.0005 26 20.4482 26 21.0005C26 21.5528 25.5523 22.0005 25 22.0005H20C19.4477 22.0005 19 21.5528 19 21.0005Z"
  />
  <path
    fill-rule="evenodd"
    clip-rule="evenodd"
    d="M6 4.00012C3.79086 4.00012 2 5.79098 2 8.00012V24.0001C2 26.2093 3.79086 28.0001 6 28.0001H26C28.2091 28.0001 30 26.2093 30 24.0001V8.00012C30 5.79098 28.2091 4.00012 26 4.00012H6ZM15 6.00012H6C4.89543 6.00012 4 6.89555 4 8.00012V24.0001C4 25.1047 4.89543 26.0001 6 26.0001H15V6.00012ZM17 6.00012V26.0001H26C27.1046 26.0001 28 25.1047 28 24.0001V8.00012C28 6.89555 27.1046 6.00012 26 6.00012H17Z"
  /></symbol>
  <symbol id="masterTag" viewBox="0 0 27 27">
    <rect width="27" height="27" rx="13.5" fill="url(#paint0_linear_1280_1795)"/>
    <circle cx="13.4999" cy="13.5" r="10.2892" fill="#36373D"/>
    <path d="M8.55228 12.5117C8.32591 11.8852 8.21272 11.5719 8.26099 11.3712C8.31377 11.1516 8.46992 10.9805 8.66949 10.9234C8.85196 10.8712 9.13581 10.9973 9.70351 11.2496C10.2056 11.4728 10.4567 11.5844 10.6926 11.5782C10.9523 11.5714 11.2022 11.4672 11.4009 11.2829C11.5814 11.1155 11.7025 10.8488 11.9447 10.3154L12.4783 9.13972C12.9241 8.15768 13.147 7.66666 13.5 7.66666C13.853 7.66666 14.0759 8.15768 14.5216 9.13972L15.0553 10.3154C15.2975 10.8488 15.4186 11.1155 15.5991 11.2829C15.7978 11.4672 16.0476 11.5714 16.3074 11.5782C16.5433 11.5844 16.7944 11.4728 17.2965 11.2496C17.8642 10.9973 18.1481 10.8712 18.3305 10.9234C18.5301 10.9805 18.6862 11.1516 18.739 11.3712C18.7873 11.5719 18.6741 11.8852 18.4477 12.5116L17.4747 15.2046C17.0584 16.3566 16.8504 16.9326 16.4148 17.2579C15.9793 17.5833 15.4165 17.5833 14.2909 17.5833H12.7091C11.5835 17.5833 11.0207 17.5833 10.5852 17.2579C10.1496 16.9326 9.94153 16.3566 9.52529 15.2046L8.55228 12.5117Z" stroke="#FDFDFD" stroke-width="0.875"/>
    <path d="M13.5 14.6667H13.5052" stroke="#FDFDFD" stroke-width="1.16667" stroke-linecap="round" stroke-linejoin="round"/>
    <path d="M10.5833 19.3333H16.4166" stroke="#FDFDFD" stroke-width="0.875" stroke-linecap="round"/>
    <defs>
      <linearGradient id="paint0_linear_1280_1795" x1="2.51228" y1="4.28851" x2="23.7537" y2="23.254" gradientUnits="userSpaceOnUse">
        <stop stop-color="white"/>
        <stop offset="0.535" stop-color="#DCE9FE"/>
        <stop offset="1" stop-color="#848B98"/>
      </linearGradient>
    </defs>
  </symbol>
  <symbol id="masterTags" viewBox="0 0 16 16">
    <path d="M2 4.5C2.55228 4.5 3 4.05228 3 3.5C3 2.94772 2.55228 2.5 2 2.5C1.44772 2.5 1 2.94772 1 3.5C1 4.05228 1.44772 4.5 2 4.5Z" />
    <path d="M4.5 3.5C4.5 3.22386 4.72386 3 5 3H14.5C14.7761 3 15 3.22386 15 3.5C15 3.77614 14.7761 4 14.5 4H5C4.72386 4 4.5 3.77614 4.5 3.5Z" />
    <path d="M4.5 8C4.5 7.72386 4.72386 7.5 5 7.5H14.5C14.7761 7.5 15 7.72386 15 8C15 8.27614 14.7761 8.5 14.5 8.5H5C4.72386 8.5 4.5 8.27614 4.5 8Z" />
    <path d="M5 12C4.72386 12 4.5 12.2239 4.5 12.5C4.5 12.7761 4.72386 13 5 13H14.5C14.7761 13 15 12.7761 15 12.5C15 12.2239 14.7761 12 14.5 12H5Z" />
    <path d="M3 8C3 8.55229 2.55228 9 2 9C1.44772 9 1 8.55229 1 8C1 7.44772 1.44772 7 2 7C2.55228 7 3 7.44772 3 8Z" />
    <path d="M2 13.5C2.55228 13.5 3 13.0523 3 12.5C3 11.9477 2.55228 11.5 2 11.5C1.44772 11.5 1 11.9477 1 12.5C1 13.0523 1.44772 13.5 2 13.5Z" />
  </symbol>
</svg>
