<svg xmlns="http://www.w3.org/2000/svg" viewBox="0 0 36 36"><linearGradient id="a" x1="14.4" x2="21.6" y1="-2.5" y2="38.5" gradientUnits="userSpaceOnUse"><stop offset="0" stop-color="#c52229"/><stop offset="1" stop-color="#802022"/></linearGradient><path fill="url(#a)" d="M0 0h36v36H0z"/><linearGradient id="b" x1="18" x2="18" y1="6.3" y2="29.7" gradientUnits="userSpaceOnUse"><stop offset="0" stop-color="#fff"/><stop offset=".5" stop-color="#fdfdfd"/><stop offset=".8" stop-color="#f5f5f5"/><stop offset="1" stop-color="#e8e8e8"/><stop offset="1" stop-color="#e6e6e6"/></linearGradient><path fill="url(#b)" fill-rule="evenodd" d="M7.3 9.8c2.8-1.1 7.4-1.3 9.4-1.2l1.3 1.6 1.3-1.6c2-.1 6.6.1 9.4 1.2-.4.7-2.1 1.8-3 2-.1-1.4-2.1-1.7-4-1.7L18 29.7 14.3 10c-2 0-4 .3-4 1.7a5.6 5.6 0 0 1-3-1.9M6 7.8l.7 1.1c2.7-1 5.9-1.4 9.3-1.5h3.9c3.4.1 6.6.6 9.3 1.5l.8-1.1a33.7 33.7 0 0 0-10-1.5h-4c-3.4.1-6.8.4-10 1.5"/></svg>