<svg xmlns="http://www.w3.org/2000/svg" style="display: none;">
  <symbol id="accountSettings" viewBox="0 0 16 16">
    <path fill-rule="evenodd" clip-rule="evenodd" d="M8 8C9.65685 8 11 6.65685 11 5C11 3.34315 9.65685 2 8 2C6.34315 2 5 3.34315 5 5C5 6.65685 6.34315 8 8 8ZM8 9C10.2091 9 12 7.20914 12 5C12 2.79086 10.2091 1 8 1C5.79086 1 4 2.79086 4 5C4 7.20914 5.79086 9 8 9Z" />
    <path d="M6.5 10C4.567 10 3 11.567 3 13.5V14.5C3 14.7761 3.22386 15 3.5 15C3.77614 15 4 14.7761 4 14.5V13.5C4 12.1193 5.11929 11 6.5 11H9.5C10.8807 11 12 12.1193 12 13.5V14.5C12 14.7761 12.2239 15 12.5 15C12.7761 15 13 14.7761 13 14.5V13.5C13 11.567 11.433 10 9.5 10H6.5Z" />
  </symbol>
  <symbol id="owners" viewBox="0 0 16 16">
    <path fill-rule="evenodd" clip-rule="evenodd" d="M2 5.5C2 3.567 3.567 2 5.5 2C7.433 2 9 3.567 9 5.5C9 7.433 7.433 9 5.5 9C3.567 9 2 7.433 2 5.5ZM5.5 3C4.11929 3 3 4.11929 3 5.5C3 6.88071 4.11929 8 5.5 8C6.88071 8 8 6.88071 8 5.5C8 4.11929 6.88071 3 5.5 3Z" />
    <path d="M10.5 10C10.2239 10 10 10.2239 10 10.5C10 10.7761 10.2239 11 10.5 11H11.5C12.8807 11 14 12.1193 14 13.5C14 13.7761 14.2239 14 14.5 14C14.7761 14 15 13.7761 15 13.5C15 11.567 13.433 10 11.5 10H10.5Z" />
    <path d="M4.5 11C3.11929 11 2 12.1193 2 13.5C2 13.7761 1.77614 14 1.5 14C1.22386 14 1 13.7761 1 13.5C1 11.567 2.567 10 4.5 10H6.5C8.433 10 10 11.567 10 13.5C10 13.7761 9.77614 14 9.5 14C9.22386 14 9 13.7761 9 13.5C9 12.1193 7.88071 11 6.5 11H4.5Z" />
    <path d="M10.5 2.99988C10.2238 2.99988 9.99995 3.22374 9.99995 3.49988C9.99995 3.77602 10.2238 3.99988 10.5 3.99988C10.7846 3.99988 11.0661 4.06066 11.3254 4.17815C11.5847 4.29564 11.8159 4.46714 12.0036 4.68119C12.1913 4.89523 12.3312 5.14688 12.4138 5.41931C12.4965 5.69174 12.52 5.97868 12.4828 6.26093C12.4457 6.54318 12.3487 6.81425 12.1984 7.05601C12.048 7.29777 11.8478 7.50465 11.6111 7.66282C11.3744 7.82098 11.1066 7.92679 10.8257 7.97316C10.5449 8.01954 10.2573 8.00541 9.98232 7.93173C9.71558 7.86026 9.44141 8.01855 9.36994 8.28528C9.29847 8.55202 9.45677 8.82618 9.7235 8.89766C10.136 9.00818 10.5673 9.02937 10.9886 8.95981C11.41 8.89025 11.8116 8.73153 12.1667 8.49429C12.5217 8.25704 12.8221 7.94672 13.0476 7.58408C13.2731 7.22144 13.4186 6.81484 13.4743 6.39146C13.53 5.96807 13.4947 5.53767 13.3708 5.12902C13.2468 4.72038 13.037 4.3429 12.7555 4.02184C12.4739 3.70078 12.127 3.44353 11.7381 3.26729C11.3491 3.09105 10.927 2.99988 10.5 2.99988Z" />
  </symbol>
  <symbol id="password" viewBox="0 0 16 16">
    <path d="M11 6C11.5523 6 12 5.55228 12 5C12 4.44772 11.5523 4 11 4C10.4477 4 10 4.44772 10 5C10 5.55228 10.4477 6 11 6Z" />
    <path fill-rule="evenodd" clip-rule="evenodd" d="M10.5 1C8.01472 1 6 3.01472 6 5.5C6 5.89536 6.05111 6.27942 6.14726 6.64563L1.29289 11.5C1.10536 11.6875 1 11.9419 1 12.2071V14.5C1 14.7761 1.22386 15 1.5 15H3.79289C4.05811 15 4.31246 14.8946 4.5 14.7071L9.35437 9.85274C9.72058 9.94889 10.1046 10 10.5 10C12.9853 10 15 7.98528 15 5.5C15 3.01472 12.9853 1 10.5 1ZM7 5.5C7 3.567 8.567 2 10.5 2C12.433 2 14 3.567 14 5.5C14 7.433 12.433 9 10.5 9C10.1048 9 9.72588 8.93469 9.37284 8.81468C9.19252 8.75339 8.99304 8.79986 8.85837 8.93453L8 9.79289L7.85355 9.64645C7.65829 9.45118 7.34171 9.45118 7.14645 9.64645C6.95118 9.84171 6.95118 10.1583 7.14645 10.3536L7.29289 10.5L6.5 11.2929L5.85355 10.6464C5.65829 10.4512 5.34171 10.4512 5.14645 10.6464C4.95118 10.8417 4.95118 11.1583 5.14645 11.3536L5.79289 12L5 12.7929L4.35355 12.1464C4.15829 11.9512 3.84171 11.9512 3.64645 12.1464C3.45118 12.3417 3.45118 12.6583 3.64645 12.8536L4.29289 13.5L3.79289 14H2V12.2071L7.06547 7.14163C7.20014 7.00696 7.24661 6.80748 7.18532 6.62716C7.06531 6.27412 7 5.8952 7 5.5Z" />
  </symbol>
  <symbol id="settings" viewBox="0 0 16 16">
    <path fill-rule="evenodd" clip-rule="evenodd" d="M9.6678 3.79452L9.31385 2.37873C9.2582 2.15615 9.05821 2 8.82878 2H7.17111C6.94167 2 6.74168 2.15615 6.68604 2.37873L6.33209 3.79452L5.93172 4.00216C5.80906 4.06577 5.68965 4.1349 5.57382 4.20922L5.19337 4.45333L3.78866 4.0515C3.56807 3.9884 3.33285 4.08352 3.21813 4.28221L2.38929 5.7178C2.27458 5.9165 2.30981 6.16777 2.47475 6.32725L3.5249 7.34265L3.50459 7.79313C3.50151 7.86163 3.49994 7.9306 3.49994 8C3.49994 8.0694 3.50151 8.13837 3.50459 8.20687L3.5249 8.65735L2.47475 9.67275C2.30981 9.83223 2.27458 10.0835 2.38929 10.2822L3.21813 11.7178C3.33285 11.9165 3.56807 12.0116 3.78866 11.9485L5.19337 11.5467L5.57382 11.7908C5.68966 11.8651 5.80907 11.9342 5.93172 11.9978L6.33209 12.2055L6.68604 13.6213C6.74168 13.8439 6.94167 14 7.17111 14H8.82878C9.05821 14 9.2582 13.8439 9.31385 13.6213L9.6678 12.2055L10.0682 11.9978C10.1908 11.9342 10.3102 11.8651 10.4261 11.7908L10.8065 11.5467L12.2112 11.9485C12.4318 12.0116 12.667 11.9165 12.7818 11.7178L13.6106 10.2822C13.7253 10.0835 13.6901 9.83225 13.5251 9.67276L12.475 8.65736L12.4953 8.20688C12.4984 8.13837 12.4999 8.0694 12.4999 8C12.4999 7.9306 12.4984 7.86163 12.4953 7.79312L12.475 7.34264L13.5251 6.32724C13.6901 6.16775 13.7253 5.91648 13.6106 5.71779L12.7818 4.2822C12.667 4.0835 12.4318 3.98838 12.2112 4.05148L10.8065 4.45332L10.4261 4.20921C10.3102 4.13489 10.1908 4.06577 10.0682 4.00216L9.6678 3.79452ZM10.5286 3.11444L10.284 2.1362C10.1171 1.46845 9.51708 1 8.82878 1H7.17111C6.48281 1 5.88283 1.46845 5.71589 2.1362L5.47133 3.11444C5.32132 3.19224 5.17534 3.27675 5.03379 3.36757L4.06369 3.09006C3.40193 2.90076 2.69626 3.18613 2.3521 3.78221L1.52327 5.2178C1.17912 5.81389 1.28482 6.5677 1.77964 7.04615L2.50561 7.7481C2.50185 7.8316 2.49994 7.91558 2.49994 8C2.49994 8.08442 2.50185 8.1684 2.50561 8.2519L1.77964 8.95385C1.28482 9.4323 1.17912 10.1861 1.52327 10.7822L2.3521 12.2178C2.69626 12.8139 3.40193 13.0992 4.06369 12.9099L5.03379 12.6324C5.17534 12.7232 5.32132 12.8078 5.47133 12.8856L5.71589 13.8638C5.88283 14.5316 6.48281 15 7.17111 15H8.82878C9.51708 15 10.1171 14.5316 10.284 13.8638L10.5286 12.8856C10.6786 12.8078 10.8245 12.7233 10.9661 12.6324L11.9362 12.91C12.598 13.0993 13.3036 12.8139 13.6478 12.2178L14.4766 10.7822C14.8208 10.1861 14.7151 9.43231 14.2202 8.95386L13.4943 8.25191C13.498 8.16841 13.4999 8.08443 13.4999 8C13.4999 7.91557 13.498 7.83159 13.4943 7.74809L14.2202 7.04614C14.7151 6.56769 14.8208 5.81387 14.4766 5.21779L13.6478 3.7822C13.3036 3.18611 12.598 2.90074 11.9362 3.09005L10.9661 3.36756C10.8245 3.27675 10.6786 3.19224 10.5286 3.11444Z" />
    <path fill-rule="evenodd" clip-rule="evenodd" d="M7.99994 10C9.10451 10 9.99994 9.10457 9.99994 8C9.99994 6.89543 9.10451 6 7.99994 6C6.89537 6 5.99994 6.89543 5.99994 8C5.99994 9.10457 6.89537 10 7.99994 10ZM7.99994 11C9.6568 11 10.9999 9.65685 10.9999 8C10.9999 6.34315 9.6568 5 7.99994 5C6.34309 5 4.99994 6.34315 4.99994 8C4.99994 9.65685 6.34309 11 7.99994 11Z" />
  </symbol>
  <symbol id="integration" viewBox="0 0 16 16">
    <path fill-rule="evenodd" clip-rule="evenodd" d="M6.99226 0.77163C7.61498 0.409457 8.38502 0.409456 9.00774 0.77163L13.5077 3.38881C14.1222 3.74616 14.5 4.402 14.5 5.11122V10.8888C14.5 11.598 14.1222 12.2538 13.5077 12.6112L9.00774 15.2284C8.38502 15.5905 7.61498 15.5905 6.99226 15.2284L2.49226 12.6112C1.87782 12.2538 1.5 11.598 1.5 10.8888V5.11122C1.5 4.402 1.87782 3.74616 2.49226 3.38881L6.99226 0.77163ZM8.50387 1.63283C8.19251 1.45175 7.80749 1.45175 7.49613 1.63283L3.00576 4.24441L7.49611 6.86378C7.80747 7.04541 8.19249 7.04541 8.50385 6.86378L12.9942 4.2444L8.50387 1.63283ZM2.5 5.11122L2.50001 5.10709L6.99224 7.72756C7.15334 7.82153 7.32429 7.89119 7.5 7.93654V14.3694C7.49871 14.3687 7.49742 14.3679 7.49613 14.3672L2.99613 11.75C2.68891 11.5713 2.5 11.2434 2.5 10.8888V5.11122ZM8.5 14.3694C8.50129 14.3687 8.50258 14.3679 8.50387 14.3672L13.0039 11.75C13.3111 11.5713 13.5 11.2434 13.5 10.8888V5.11122L13.5 5.10707L9.00772 7.72756C8.84664 7.82152 8.6757 7.89118 8.5 7.93653V14.3694Z" />
  </symbol>
  <symbol id="support" viewBox="0 0 32 32">
    <path d="M17.5 23.5001C17.5 24.3285 16.8284 25.0001 16 25.0001C15.1716 25.0001 14.5 24.3285 14.5 23.5001C14.5 22.6717 15.1716 22.0001 16 22.0001C16.8284 22.0001 17.5 22.6717 17.5 23.5001Z" fill="currentColor"/>
    <path d="M13 13.0001C13 11.3433 14.3431 10.0001 16 10.0001C17.6569 10.0001 19 11.3433 19 13.0001V13.0965C19 14.7001 17.7 16.0001 16.0964 16.0001C15.4909 16.0001 15 16.491 15 17.0965V19.0001C15 19.5524 15.4477 20.0001 16 20.0001C16.5523 20.0001 17 19.5524 17 19.0001V17.917C19.2766 17.493 21 15.496 21 13.0965V13.0001C21 10.2387 18.7614 8.00012 16 8.00012C13.2386 8.00012 11 10.2387 11 13.0001C11 13.5524 11.4477 14.0001 12 14.0001C12.5523 14.0001 13 13.5524 13 13.0001Z" fill="currentColor"/>
    <path fill-rule="evenodd" clip-rule="evenodd" d="M8.22202 4.35955C10.5243 2.82121 13.2311 2.00012 16 2.00012C19.713 2.00012 23.274 3.47512 25.8995 6.10063C28.525 8.72614 30 12.2871 30 16.0001C30 18.7691 29.1789 21.4758 27.6406 23.7781C26.1022 26.0804 23.9157 27.8748 21.3576 28.9344C18.7994 29.9941 15.9845 30.2713 13.2687 29.7311C10.553 29.1909 8.05845 27.8576 6.10051 25.8996C4.14258 23.9417 2.80921 21.4471 2.26901 18.7314C1.72882 16.0157 2.00607 13.2007 3.06569 10.6426C4.12532 8.08439 5.91973 5.89789 8.22202 4.35955ZM9.33316 25.9778C11.3066 27.2963 13.6266 28.0001 16 28.0001C19.1826 28.0001 22.2348 26.7358 24.4853 24.4854C26.7357 22.235 28 19.1827 28 16.0001C28 13.6267 27.2962 11.3067 25.9776 9.33328C24.6591 7.35989 22.7849 5.82182 20.5922 4.91357C18.3995 4.00532 15.9867 3.76768 13.6589 4.2307C11.3312 4.69372 9.19296 5.83661 7.51472 7.51484C5.83649 9.19307 4.69361 11.3313 4.23058 13.659C3.76756 15.9868 4.0052 18.3996 4.91345 20.5923C5.8217 22.785 7.35977 24.6592 9.33316 25.9778Z" fill="currentColor"/>
  </symbol>
  <symbol id="privacy" viewBox="0 0 32 32">
    <path d="M16 25.277V6H24V16.8048C24 18.0723 23.6557 19.3161 23.0041 20.4033C22.3525 21.4905 21.4178 22.3803 20.3 22.9779L16 25.277Z" />
    <path fill-rule="evenodd" clip-rule="evenodd" d="M4 6C4 3.79086 5.79086 2 8 2H24C26.2091 2 28 3.79086 28 6V17.0637C28 21.0891 25.8012 24.793 22.2674 26.7205L16.4789 29.8779C16.1804 30.0407 15.8196 30.0407 15.5211 29.8779L9.73263 26.7205C6.19876 24.793 4 21.0891 4 17.0637V6ZM8 4C6.89543 4 6 4.89543 6 6V17.0637C6 20.3572 7.79898 23.3876 10.6903 24.9647L16 27.8609L21.3097 24.9647C24.201 23.3876 26 20.3572 26 17.0637V6C26 4.89543 25.1046 4 24 4H8Z" />
  </symbol>
  <symbol id="terms" viewBox="0 0 32 32">
    <path fill-rule="evenodd" clip-rule="evenodd" d="M10 4C8.89543 4 8 4.89543 8 6V26C8 27.1046 8.89543 28 10 28H22C23.1046 28 24 27.1046 24 26V12H20C17.7909 12 16 10.2091 16 8V4H10ZM18 4.41421V8C18 9.10457 18.8954 10 20 10H23.5858L18 4.41421ZM6 6C6 3.79086 7.79086 2 10 2H17.5858C18.1162 2 18.6249 2.21071 19 2.58579L25.4142 9C25.7893 9.37507 26 9.88378 26 10.4142V26C26 28.2091 24.2091 30 22 30H10C7.79086 30 6 28.2091 6 26V6ZM10 17C10 16.4477 10.4477 16 11 16H15C15.5523 16 16 16.4477 16 17C16 17.5523 15.5523 18 15 18H11C10.4477 18 10 17.5523 10 17ZM10 21C10 20.4477 10.4477 20 11 20H21C21.5523 20 22 20.4477 22 21C22 21.5523 21.5523 22 21 22H11C10.4477 22 10 21.5523 10 21Z" />
  </symbol>
  <symbol id="signout" viewBox="0 0 32 32">
    <path fill-rule="evenodd" clip-rule="evenodd" d="M18 4C19.1046 4 20 4.89543 20 6V7C20 7.55228 20.4477 8 21 8C21.5523 8 22 7.55228 22 7V6C22 3.79086 20.2091 2 18 2H10C7.79086 2 6 3.79086 6 6V26C6 28.2091 7.79086 30 10 30H18C20.2091 30 22 28.2091 22 26V25C22 24.4477 21.5523 24 21 24C20.4477 24 20 24.4477 20 25V26C20 27.1046 19.1046 28 18 28H10C8.89543 28 8 27.1046 8 26V6C8 4.89543 8.89543 4 10 4H18Z" />
    <path d="M22.59 20.59L26.17 17H13C12.4477 17 12 16.5523 12 16C12 15.4477 12.4477 15 13 15H26.17L22.59 11.41L24 10L30 16L24 22L22.59 20.59Z" />
  </symbol>

  <symbol id="selectWorkspace" viewBox="0 0 16 16">
    <path d="M7.92231 14.2015L7.99302 14.6964L7.92231 14.2015ZM6.22318 14.311L6.33389 13.8234L6.22318 14.311ZM4.79789 13.0748L5.26492 12.8963L4.79789 13.0748ZM13.373 12.5661L12.9774 12.2603L13.373 12.5661ZM9.05136 14.0402L8.98065 13.5452L9.05136 14.0402ZM13.1512 12.8218L13.5099 13.1701L13.1512 12.8218ZM13.1512 3.17821L12.7926 3.5266L13.1512 3.17821ZM13.373 3.43391L13.7686 3.12813L13.373 3.43391ZM7.98221 2.31213L8.98065 2.45477L9.12207 1.46482L8.12363 1.32218L7.98221 2.31213ZM13.4993 7.66487V8.33509H14.4993V7.66487H13.4993ZM8.98065 13.5452L7.8516 13.7065L7.99302 14.6964L9.12207 14.5351L8.98065 13.5452ZM7.8516 13.7065C7.39911 13.7711 7.0821 13.8162 6.83278 13.8363C6.58629 13.8562 6.44248 13.8481 6.33389 13.8234L6.11247 14.7986C6.364 14.8557 6.62341 14.8565 6.91329 14.8331C7.20033 14.8099 7.55283 14.7593 7.99302 14.6964L7.8516 13.7065ZM4.16602 11.3773C4.16602 11.822 4.1658 12.1781 4.18344 12.4655C4.20126 12.7558 4.23875 13.0125 4.33085 13.2534L5.26492 12.8963C5.22515 12.7923 5.19671 12.6511 5.18156 12.4042C5.16624 12.1546 5.16602 11.8344 5.16602 11.3773H4.16602ZM6.33389 13.8234C5.84503 13.7124 5.44393 13.3645 5.26492 12.8963L4.33085 13.2534C4.62921 14.0338 5.29771 14.6136 6.11247 14.7986L6.33389 13.8234ZM13.4993 8.33509C13.4993 9.48721 13.4986 10.3082 13.4244 10.9439C13.3517 11.5676 13.2136 11.9547 12.9774 12.2603L13.7686 12.8718C14.1587 12.3671 14.3338 11.7788 14.4177 11.0597C14.5001 10.3527 14.4993 9.46335 14.4993 8.33509H13.4993ZM9.12207 14.5351C10.239 14.3756 11.1195 14.2506 11.8078 14.069C12.5078 13.8843 13.0654 13.6277 13.5099 13.1701L12.7926 12.4734C12.5234 12.7504 12.1598 12.9419 11.5526 13.1021C10.9338 13.2654 10.1212 13.3823 8.98065 13.5452L9.12207 14.5351ZM12.9774 12.2603C12.9198 12.3347 12.8581 12.4059 12.7926 12.4734L13.5099 13.1701C13.6017 13.0756 13.688 12.9761 13.7686 12.8718L12.9774 12.2603ZM8.98065 2.45477C10.1212 2.6177 10.9338 2.73458 11.5526 2.89788C12.1598 3.05809 12.5234 3.24952 12.7926 3.5266L13.5099 2.82982C13.0654 2.37222 12.5078 2.11569 11.8078 1.93098C11.1195 1.74936 10.239 1.62438 9.12207 1.46482L8.98065 2.45477ZM14.4993 7.66487C14.4993 6.53661 14.5001 5.64727 14.4177 4.94022C14.3338 4.22111 14.1587 3.63289 13.7686 3.12813L12.9774 3.73968C13.2136 4.04531 13.3517 4.43238 13.4244 5.05606C13.4986 5.69179 13.4993 6.51275 13.4993 7.66487H14.4993ZM12.7926 3.5266C12.8581 3.59409 12.9198 3.66523 12.9774 3.73968L13.7686 3.12813C13.688 3.02391 13.6017 2.92431 13.5099 2.82982L12.7926 3.5266ZM8.12363 1.32218C7.62395 1.2508 7.22383 1.19335 6.89852 1.16973C6.56979 1.14587 6.27615 1.15257 5.99374 1.23142L6.26265 2.19458C6.38494 2.16044 6.54699 2.14684 6.82611 2.16711C7.10865 2.18762 7.46854 2.23875 7.98221 2.31213L8.12363 1.32218ZM5.16602 4.7546C5.16602 4.23572 5.1663 3.87222 5.18595 3.58961C5.20536 3.31043 5.24174 3.15194 5.29283 3.0357L4.37738 2.63328C4.25938 2.90171 4.21122 3.19145 4.18836 3.52025C4.16573 3.84563 4.16602 4.24985 4.16602 4.7546H5.16602ZM5.99374 1.23142C5.27211 1.43289 4.67888 1.9474 4.37738 2.63328L5.29283 3.0357C5.47374 2.62417 5.82967 2.31547 6.26265 2.19458L5.99374 1.23142Z"/>
    <path d="M10.666 8.00002L11.0565 7.68767L11.3063 8.00002L11.0565 8.31237L10.666 8.00002ZM2.66602 8.50002C2.38987 8.50002 2.16602 8.27616 2.16602 8.00002C2.16602 7.72388 2.38987 7.50002 2.66602 7.50002V8.50002ZM8.38978 4.35434L11.0565 7.68767L10.2756 8.31237L7.60891 4.97903L8.38978 4.35434ZM11.0565 8.31237L8.38978 11.6457L7.60891 11.021L10.2756 7.68767L11.0565 8.31237ZM10.666 8.50002H2.66602V7.50002H10.666V8.50002Z"/>
  </symbol>
  <symbol id="clazz" viewBox="0 0 16 16">
    <path d="M1 8L5 12L5.70711 11.2929L2.41421 8L5.70711 4.70711L5 4L1 8Z" />
    <path d="M15 8L11 4L10.2928 4.70711L13.5857 8L10.2928 11.2929L11 12L15 8Z" />
  </symbol>
  <symbol id="enums" viewBox="0 0 16 16">
    <path d="M2 4.5C2.55228 4.5 3 4.05228 3 3.5C3 2.94772 2.55228 2.5 2 2.5C1.44772 2.5 1 2.94772 1 3.5C1 4.05228 1.44772 4.5 2 4.5Z" />
    <path d="M4.5 3.5C4.5 3.22386 4.72386 3 5 3H14.5C14.7761 3 15 3.22386 15 3.5C15 3.77614 14.7761 4 14.5 4H5C4.72386 4 4.5 3.77614 4.5 3.5Z" />
    <path d="M4.5 8C4.5 7.72386 4.72386 7.5 5 7.5H14.5C14.7761 7.5 15 7.72386 15 8C15 8.27614 14.7761 8.5 14.5 8.5H5C4.72386 8.5 4.5 8.27614 4.5 8Z" />
    <path d="M5 12C4.72386 12 4.5 12.2239 4.5 12.5C4.5 12.7761 4.72386 13 5 13H14.5C14.7761 13 15 12.7761 15 12.5C15 12.2239 14.7761 12 14.5 12H5Z" />
    <path d="M3 8C3 8.55229 2.55228 9 2 9C1.44772 9 1 8.55229 1 8C1 7.44772 1.44772 7 2 7C2.55228 7 3 7.44772 3 8Z" />
    <path d="M2 13.5C2.55228 13.5 3 13.0523 3 12.5C3 11.9477 2.55228 11.5 2 11.5C1.44772 11.5 1 11.9477 1 12.5C1 13.0523 1.44772 13.5 2 13.5Z" />
  </symbol>
  <symbol id="inviteSettings" viewBox="0 0 16 16">
    <path fill-rule="evenodd" clip-rule="evenodd" d="M3 3C1.89543 3 1 3.89543 1 5V11C1 12.1046 1.89543 13 3 13H13C14.1046 13 15 12.1046 15 11V5C15 3.89543 14.1046 3 13 3H3ZM2.25155 4.3368C2.43474 4.1302 2.70217 4 3 4H13C13.2978 4 13.5653 4.1302 13.7484 4.33679L7.99999 7.43211L2.25155 4.3368ZM2 5.3371V11C2 11.5523 2.44772 12 3 12H13C13.5523 12 14 11.5523 14 11V5.33709L8.23704 8.44022C8.08905 8.51991 7.91093 8.51991 7.76294 8.44022L2 5.3371Z" />
  </symbol>
  <symbol id="inviteWorkspace" viewBox="0 0 32 32">
    <path fill-rule="evenodd" clip-rule="evenodd" d="M16 18C20.4183 18 24 14.4183 24 10C24 5.58172 20.4183 2 16 2C11.5817 2 8 5.58172 8 10C8 14.4183 11.5817 18 16 18ZM16 16C19.3137 16 22 13.3137 22 10C22 6.68629 19.3137 4 16 4C12.6863 4 10 6.68629 10 10C10 13.3137 12.6863 16 16 16Z" />
    <path d="M24 21C24 20.4477 24.4477 20 25 20C25.5523 20 26 20.4477 26 21V24H29C29.5523 24 30 24.4477 30 25C30 25.5523 29.5523 26 29 26H26V29C26 29.5523 25.5523 30 25 30C24.4477 30 24 29.5523 24 29V26H21C20.4477 26 20 25.5523 20 25C20 24.4477 20.4477 24 21 24H24V21Z" />
    <path d="M13 20C9.13401 20 6 23.134 6 27V29C6 29.5523 6.44772 30 7 30C7.55228 30 8 29.5523 8 29V27C8 24.2386 10.2386 22 13 22H17C17.5523 22 18 21.5523 18 21C18 20.4477 17.5523 20 17 20H13Z" />
  </symbol>
  <symbol id="views" viewBox="0 0 16 16">
    <path d="M12.6541 10.7952L14.7544 11.6213C14.8576 11.6618 14.9394 11.7434 14.9801 11.8466C15.0511 12.0264 14.9828 12.2268 14.827 12.3284L14.755 12.3656L8.35645 14.8924C8.15935 14.9703 7.94372 14.9831 7.74052 14.9309L7.62035 14.8918L1.25259 12.3653C1.1499 12.3246 1.06864 12.2432 1.02806 12.1404C0.957068 11.9607 1.02536 11.7603 1.1812 11.6587L1.25319 11.6215L3.34307 10.7962L7.06917 12.2751C7.65895 12.5091 8.31525 12.5097 8.9054 12.2766L12.6541 10.7952ZM12.6541 6.77688L14.7544 7.60289C14.8576 7.64346 14.9394 7.72508 14.9801 7.82824C15.0511 8.00803 14.9828 8.20839 14.827 8.31004L14.755 8.3472L10.6001 9.98825L9.619 10.375L8.35645 10.8741L8.317 10.886L8.23566 10.9132C8.20301 10.9215 8.17004 10.9282 8.13688 10.9331C8.12585 10.9346 8.11547 10.936 8.10507 10.9372C8.02541 10.9468 7.94422 10.9464 7.86397 10.9363L7.74052 10.9126L7.62035 10.8735L6.391 10.385L5.38907 9.98825L1.25259 8.34697C1.1499 8.30623 1.06864 8.22483 1.02806 8.12208C0.957068 7.94229 1.02536 7.74192 1.1812 7.64029L1.25319 7.60312L3.34307 6.77788L7.06917 8.25677C7.65895 8.49078 8.31525 8.4913 8.9054 8.25824L12.6541 6.77688ZM7.62186 1.06989C7.85734 0.976906 8.11932 0.976697 8.35494 1.06931L14.7544 3.58452C14.8576 3.62509 14.9394 3.70671 14.9801 3.80987C15.0612 4.01534 14.9605 4.24769 14.755 4.32884L10.6001 5.96988L8.35565 6.856L8.27468 6.88396C8.25405 6.8901 8.23326 6.89557 8.21236 6.90036C8.09824 6.92674 7.98013 6.93258 7.86397 6.91788L7.74052 6.89419L7.62035 6.8551L1.25259 4.3286C1.1499 4.28786 1.06864 4.20646 1.02806 4.10371C0.946925 3.89823 1.04772 3.66589 1.25319 3.58475L7.62186 1.06989Z"/>
  </symbol>
  <symbol id="relation" viewBox="0 0 16 16">
    <path d="M2 8L5 5V7H11V5L14 8L11 11V9H5V11L2 8Z" />
  </symbol>
  <symbol id="mailbox" viewBox="0 0 32 32">
    <path d="m15 9h-7.5c-4.5 0-7.5 3-7.5 7v13h13v3.77h2.03v-3.77h3v3.77h2v-3.77h12v-12.6c-8.1e-5 -5.14-3.46-7.41-7.63-7.41h-3.37v2h3.4c3.5 0 5.6 1.91 5.6 5.41v10.6h-15l-5e-4 -11c-6.4e-5 -1.41-0.375-2.64-1.06-3.71h-2.45c0.986 0.878 1.51 2.16 1.51 3.71l0.0285 11h-11v-11c0-3 2.05-5 5.55-5h7.45"/>
    <path d="m19 22.2v-15.2h5.04c1.29 0 1.97-1 1.97-2.02v-2.98c0-1.42-0.794-2-1.97-2h-6.39c-0.333 0-0.642 0.287-0.642 0.62v21.6c0.0316 1 2 0.983 2 0zm5-17.2h-5v-2.98h5z"/>
    <path d="m6.42 14v2.52c0 1.09 2 1.24 2 0v-2.52c0-1.38-2-1.35-2 0z"/>
  </symbol>
</svg>
