<svg xmlns="http://www.w3.org/2000/svg" style="display: none;">
  <symbol id="edit" viewBox="0 0 16 16">
    <path d="M14,13.1H9.2c-0.3,0-0.5,0.2-0.5,0.5s0.2,0.5,0.5,0.5H14c0.3,0,0.5-0.2,0.5-0.5S14.3,13.1,14,13.1z"/>
    <path d="M11.4,7.1C11.4,7.1,11.4,7.1,11.4,7.1c1.2-1.6,1.3-1.6,1.3-1.6C12.9,5,13,4.5,12.9,4c-0.1-0.5-0.4-0.9-0.8-1.2 c0,0-1.1-0.9-1.1-0.9c-0.8-0.7-2.1-0.6-2.8,0.3c0,0,0,0,0,0l-6.3,7.9c-0.3,0.4-0.4,0.9-0.3,1.4l0.5,2.3c0.1,0.2,0.3,0.4,0.5,0.4 c0,0,0,0,0,0l2.4,0c0.5,0,1-0.2,1.3-0.6C8.9,10.2,10.5,8.2,11.4,7.1C11.4,7.1,11.4,7.1,11.4,7.1z M8.9,2.8c0.3-0.4,1-0.5,1.4-0.1 c0,0,1.2,0.9,1.2,0.9c0.2,0.1,0.4,0.3,0.4,0.6c0.1,0.2,0,0.5-0.1,0.7c0,0-0.4,0.5-0.9,1.2L8.1,3.9L8.9,2.8z M5.5,12.9 C5.4,13,5.2,13.1,5,13.1l-2,0l-0.5-1.9c0-0.2,0-0.4,0.1-0.5l4.8-6l2.8,2.2C8.9,8.6,6.8,11.2,5.5,12.9z"/>
  </symbol>
  <symbol id="password" viewBox="0 0 16 16">
    <path d="M14.4,5.7l-2-2l1-1c0.2-0.2,0.2-0.5,0-0.7s-0.5-0.2-0.7,0l-1.4,1.4L8.3,6.5C7.6,5.9,6.7,5.6,5.7,5.6c-2.3,0-4.2,1.9-4.2,4.2 c0,2.3,1.9,4.2,4.2,4.2s4.2-1.9,4.2-4.2c0-1-0.3-1.9-0.9-2.6l2.7-2.7l2,2c0.2,0.2,0.5,0.2,0.7,0S14.5,5.9,14.4,5.7z M5.7,13 c-1.8,0-3.2-1.4-3.2-3.2s1.4-3.2,3.2-3.2S8.9,8,8.9,9.8S7.5,13,5.7,13z"/>
  </symbol>
  <symbol id="settings" viewBox="0 0 16 16">
    <path d="M14,5.8l-1.1-1.9c-0.6-1-0.9-1.5-1.5-1.8c-0.6-0.3-1.2-0.3-2.3-0.4L8,1.7l-1.1,0c-1.1,0-1.8,0-2.3,0.4 C4,2.4,3.7,2.9,3.1,3.9L2,5.8C1.4,6.8,1.1,7.4,1.1,8S1.4,9.2,2,10.2l1.1,1.9c0.6,1,0.9,1.5,1.5,1.8c0.6,0.3,1.2,0.3,2.3,0.4l1.1,0 l1.1,0c1.1,0,1.8,0,2.3-0.4c0.6-0.3,0.9-0.9,1.5-1.8l1.1-1.9c0.6-1,0.9-1.5,0.9-2.2C14.9,7.4,14.6,6.8,14,5.8z M13.1,9.7L12,11.6 c-0.5,0.9-0.8,1.3-1.1,1.5c-0.3,0.2-0.8,0.2-1.8,0.2l-1.1,0l-1.1,0c-1.1,0-1.5,0-1.8-0.2c-0.3-0.2-0.6-0.6-1.1-1.5L2.9,9.7 C2.3,8.8,2.1,8.4,2.1,8c0-0.4,0.2-0.8,0.7-1.7L4,4.4c0.5-0.9,0.8-1.3,1.1-1.5c0.3-0.2,0.8-0.2,1.8-0.2l1.1,0l1.1,0 c1,0,1.5,0,1.8,0.2c0.3,0.2,0.6,0.6,1.1,1.5l1.1,1.9c0.5,0.9,0.7,1.3,0.7,1.7S13.6,8.8,13.1,9.7z"/>
    <path d="M8,5.5C6.6,5.5,5.5,6.6,5.5,8c0,1.4,1.1,2.5,2.5,2.5c1.4,0,2.5-1.1,2.5-2.5C10.5,6.6,9.4,5.5,8,5.5z M8,9.5 C7.2,9.5,6.5,8.8,6.5,8S7.2,6.5,8,6.5S9.5,7.2,9.5,8S8.8,9.5,8,9.5z"/>
  </symbol>
  <symbol id="integration" viewBox="0 0 16 16">
    <path d="M14.2,4.1l-6-3C8.1,1,7.9,1,7.8,1.1l-6,3C1.6,4.1,1.5,4.3,1.5,4.5v7c0,0.2,0.1,0.4,0.3,0.4l6,3L8,14.5l0.2,0.4l6-3 c0.2-0.1,0.3-0.3,0.3-0.4v-7C14.5,4.3,14.4,4.1,14.2,4.1z M8,2.1l4.9,2.4L8,6.9L3.1,4.5L8,2.1z M2.5,11.2V5.3l5,2.5v5.9L2.5,11.2z M8.5,13.7V7.8l5-2.5v5.9L8.5,13.7z"/>
  </symbol>
  <symbol id="support" viewBox="0 0 16 16">
    <path fill-rule="evenodd" clip-rule="evenodd" d="M8 2C4.68629 2 2 4.68629 2 8C2 9.08409 2.28706 10.0996 2.78897 10.9763L2.8821 11.139L2.38738 13.6126L4.861 13.1179L5.02367 13.211C5.90038 13.7129 6.91591 14 8 14C11.3137 14 14 11.3137 14 8C14 4.68629 11.3137 2 8 2ZM1 8C1 4.13401 4.13401 1 8 1C11.866 1 15 4.13401 15 8C15 11.866 11.866 15 8 15C6.80494 15 5.67857 14.7001 4.69338 14.1712L1.11262 14.8874L1.82877 11.3066C1.29987 10.3214 1 9.19506 1 8Z"/>  </symbol>
  <symbol id="privacy" viewBox="0 0 24 24">
    <path d="M21.2,3.9l-9-2.6c-0.1,0-0.3,0-0.4,0l-9,2.6C2.5,4,2.2,4.3,2.2,4.6V10c0,6,3.9,10.8,9.5,12.7c0.2,0.1,0.3,0.1,0.5,0c5.6-1.9,9.5-6.7,9.5-12.7V4.6C21.8,4.3,21.5,4,21.2,3.9z M20.2,10c0,5.2-3.3,9.4-8.2,11.2c-5-1.8-8.3-6-8.3-11.2V5.2L12,2.8l8.2,2.4V10z" />
    <path d="M8.8,9c0,0.9,0.4,1.7,1,2.3c-1.5,0.8-2.5,2.4-2.5,4.2c0,0.4,0.3,0.8,0.8,0.8s0.8-0.3,0.8-0.8c0-1.8,1.5-3.2,3.2-3.2s3.2,1.5,3.2,3.2c0,0.4,0.3,0.8,0.8,0.8s0.8-0.3,0.8-0.8c0-1.8-1-3.4-2.5-4.2c0.6-0.6,1-1.4,1-2.3c0-1.8-1.5-3.2-3.2-3.2S8.8,7.2,8.8,9z M13.8,9c0,1-0.8,1.8-1.8,1.8S10.2,10,10.2,9S11,7.2,12,7.2S13.8,8,13.8,9z" />
  </symbol>
  <symbol id="terms" viewBox="0 0 16 16">
    <path d="M12,1.5H6c-2,0-3,0-3.8,0.7C1.5,3,1.5,4,1.5,6v8.7L4,13.9l2,0.7l2-0.7l2.5,0.8V6.5h2.9c0.1,0,0.1,0,0.2,0 c0.5-0.1,0.8-0.4,0.9-0.9c0,0,0-0.1,0-0.2V4C14.5,2.6,13.4,1.5,12,1.5z M9.5,4v9.3L8,12.8l-2,0.7l-2-0.7l-1.5,0.5V6 c0-1.7,0-2.6,0.4-3.1C3.4,2.5,4.3,2.5,6,2.5h4C9.7,2.9,9.5,3.4,9.5,4z M13.5,5.4L13.5,5.4l-3,0.1V4c0-0.8,0.7-1.5,1.5-1.5 s1.5,0.7,1.5,1.5V5.4z"/>
    <path d="M4.2,4.7c0,0.3,0.2,0.5,0.5,0.5h2.7c0.3,0,0.5-0.2,0.5-0.5S7.6,4.2,7.3,4.2H4.7C4.4,4.2,4.2,4.4,4.2,4.7z"/>
    <path d="M4.7,7.8h0.7c0.3,0,0.5-0.2,0.5-0.5S5.6,6.8,5.3,6.8H4.7c-0.3,0-0.5,0.2-0.5,0.5S4.4,7.8,4.7,7.8z"/>
    <path d="M6.7,9.5h-2c-0.3,0-0.5,0.2-0.5,0.5s0.2,0.5,0.5,0.5h2c0.3,0,0.5-0.2,0.5-0.5S6.9,9.5,6.7,9.5z"/>
  </symbol>
  <symbol id="signout" viewBox="0 0 16 16">
    <path d="M1.33398 8.00002L0.94355 7.68767L0.693672 8.00002L0.94355 8.31237L1.33398 8.00002ZM7.33398 8.50002C7.61013 8.50002 7.83398 8.27616 7.83398 8.00002C7.83398 7.72388 7.61013 7.50002 7.33398 7.50002V8.50002ZM3.61022 4.35434L0.94355 7.68767L1.72442 8.31237L4.39109 4.97903L3.61022 4.35434ZM0.94355 8.31237L3.61022 11.6457L4.39109 11.021L1.72442 7.68767L0.94355 8.31237ZM1.33398 8.50002H7.33398V7.50002H1.33398V8.50002Z"/>
    <path d="M7.62015 13.3438L7.88162 12.9176L7.62015 13.3438ZM6.81252 12.3904L6.34915 12.5783L6.81252 12.3904ZM14.3317 12.5015L13.8874 12.2721L14.3317 12.5015ZM12.5853 13.981L12.7385 14.4569L12.5853 13.981ZM12.5853 2.019L12.4321 2.49495L12.5853 2.019ZM14.3317 3.49848L14.776 3.26911L14.3317 3.49848ZM14.166 6.81915V9.18081H15.166V6.81915H14.166ZM7.16602 5.42127V5.29116H6.16602V5.42127H7.16602ZM9.3358 13.2714C8.42316 13.1193 8.11041 13.058 7.88162 12.9176L7.35868 13.77C7.79469 14.0375 8.34931 14.1208 9.1714 14.2578L9.3358 13.2714ZM6.16602 10.7106C6.16602 11.5437 6.15698 12.1042 6.34915 12.5783L7.2759 12.2026C7.17505 11.9538 7.16602 11.6354 7.16602 10.7106H6.16602ZM7.88162 12.9176C7.60853 12.7501 7.39626 12.4995 7.2759 12.2026L6.34915 12.5783C6.54976 13.0731 6.90354 13.4908 7.35868 13.77L7.88162 12.9176ZM14.166 9.18081C14.166 10.08 14.1656 10.725 14.1258 11.2271C14.0863 11.7251 14.0105 12.0337 13.8874 12.2721L14.776 12.7309C14.9872 12.3217 15.0786 11.861 15.1227 11.3062C15.1664 10.7553 15.166 10.0637 15.166 9.18081H14.166ZM9.1714 14.2578C10.0427 14.403 10.7251 14.5171 11.2759 14.5646C11.8306 14.6124 12.3002 14.598 12.7385 14.4569L12.4321 13.505C12.1767 13.5872 11.8598 13.6112 11.3618 13.5683C10.8598 13.525 10.2231 13.4193 9.3358 13.2714L9.1714 14.2578ZM13.8874 12.2721C13.5843 12.8593 13.0611 13.3025 12.4321 13.505L12.7385 14.4569C13.6191 14.1734 14.3516 13.5529 14.776 12.7309L13.8874 12.2721ZM9.33702 2.72838C10.224 2.58055 10.8603 2.47488 11.362 2.43165C11.8598 2.38876 12.1767 2.41274 12.4321 2.49495L12.7385 1.54305C12.3002 1.40197 11.8307 1.38756 11.2762 1.43534C10.7256 1.48277 10.0435 1.59683 9.17262 1.74198L9.33702 2.72838ZM15.166 6.81915C15.166 5.93622 15.1664 5.24464 15.1227 4.69378C15.0786 4.13893 14.9872 3.67823 14.776 3.26911L13.8874 3.72785C14.0105 3.96624 14.0863 4.27482 14.1258 4.7729C14.1656 5.27497 14.166 5.91997 14.166 6.81915H15.166ZM12.4321 2.49495C13.0611 2.69743 13.5843 3.14069 13.8874 3.72785L14.776 3.26911C14.3516 2.44709 13.6191 1.82652 12.7385 1.54305L12.4321 2.49495ZM9.17262 1.74198C8.74504 1.81325 8.39936 1.87058 8.11984 1.9373C7.83488 2.00531 7.5864 2.09002 7.35707 2.23096L7.88065 3.08293C7.98423 3.01928 8.11938 2.9655 8.35201 2.90997C8.59006 2.85315 8.8959 2.8019 9.33702 2.72838L9.17262 1.74198ZM7.16602 5.29116C7.16602 4.84396 7.16629 4.53385 7.18321 4.28969C7.19973 4.05111 7.23056 3.90895 7.27632 3.79631L6.34986 3.41992C6.24855 3.66931 6.20584 3.92833 6.1856 4.22059C6.16574 4.50728 6.16602 4.85768 6.16602 5.29116H7.16602ZM7.35707 2.23096C6.90324 2.50986 6.55036 2.92642 6.34986 3.41992L7.27632 3.79631C7.39662 3.50021 7.60835 3.25027 7.88065 3.08293L7.35707 2.23096Z"/>
  </symbol>

  <symbol id="selectWorkspace" viewBox="0 0 16 16">
    <path d="M7.92231 14.2015L7.99302 14.6964L7.92231 14.2015ZM6.22318 14.311L6.33389 13.8234L6.22318 14.311ZM4.79789 13.0748L5.26492 12.8963L4.79789 13.0748ZM13.373 12.5661L12.9774 12.2603L13.373 12.5661ZM9.05136 14.0402L8.98065 13.5452L9.05136 14.0402ZM13.1512 12.8218L13.5099 13.1701L13.1512 12.8218ZM13.1512 3.17821L12.7926 3.5266L13.1512 3.17821ZM13.373 3.43391L13.7686 3.12813L13.373 3.43391ZM7.98221 2.31213L8.98065 2.45477L9.12207 1.46482L8.12363 1.32218L7.98221 2.31213ZM13.4993 7.66487V8.33509H14.4993V7.66487H13.4993ZM8.98065 13.5452L7.8516 13.7065L7.99302 14.6964L9.12207 14.5351L8.98065 13.5452ZM7.8516 13.7065C7.39911 13.7711 7.0821 13.8162 6.83278 13.8363C6.58629 13.8562 6.44248 13.8481 6.33389 13.8234L6.11247 14.7986C6.364 14.8557 6.62341 14.8565 6.91329 14.8331C7.20033 14.8099 7.55283 14.7593 7.99302 14.6964L7.8516 13.7065ZM4.16602 11.3773C4.16602 11.822 4.1658 12.1781 4.18344 12.4655C4.20126 12.7558 4.23875 13.0125 4.33085 13.2534L5.26492 12.8963C5.22515 12.7923 5.19671 12.6511 5.18156 12.4042C5.16624 12.1546 5.16602 11.8344 5.16602 11.3773H4.16602ZM6.33389 13.8234C5.84503 13.7124 5.44393 13.3645 5.26492 12.8963L4.33085 13.2534C4.62921 14.0338 5.29771 14.6136 6.11247 14.7986L6.33389 13.8234ZM13.4993 8.33509C13.4993 9.48721 13.4986 10.3082 13.4244 10.9439C13.3517 11.5676 13.2136 11.9547 12.9774 12.2603L13.7686 12.8718C14.1587 12.3671 14.3338 11.7788 14.4177 11.0597C14.5001 10.3527 14.4993 9.46335 14.4993 8.33509H13.4993ZM9.12207 14.5351C10.239 14.3756 11.1195 14.2506 11.8078 14.069C12.5078 13.8843 13.0654 13.6277 13.5099 13.1701L12.7926 12.4734C12.5234 12.7504 12.1598 12.9419 11.5526 13.1021C10.9338 13.2654 10.1212 13.3823 8.98065 13.5452L9.12207 14.5351ZM12.9774 12.2603C12.9198 12.3347 12.8581 12.4059 12.7926 12.4734L13.5099 13.1701C13.6017 13.0756 13.688 12.9761 13.7686 12.8718L12.9774 12.2603ZM8.98065 2.45477C10.1212 2.6177 10.9338 2.73458 11.5526 2.89788C12.1598 3.05809 12.5234 3.24952 12.7926 3.5266L13.5099 2.82982C13.0654 2.37222 12.5078 2.11569 11.8078 1.93098C11.1195 1.74936 10.239 1.62438 9.12207 1.46482L8.98065 2.45477ZM14.4993 7.66487C14.4993 6.53661 14.5001 5.64727 14.4177 4.94022C14.3338 4.22111 14.1587 3.63289 13.7686 3.12813L12.9774 3.73968C13.2136 4.04531 13.3517 4.43238 13.4244 5.05606C13.4986 5.69179 13.4993 6.51275 13.4993 7.66487H14.4993ZM12.7926 3.5266C12.8581 3.59409 12.9198 3.66523 12.9774 3.73968L13.7686 3.12813C13.688 3.02391 13.6017 2.92431 13.5099 2.82982L12.7926 3.5266ZM8.12363 1.32218C7.62395 1.2508 7.22383 1.19335 6.89852 1.16973C6.56979 1.14587 6.27615 1.15257 5.99374 1.23142L6.26265 2.19458C6.38494 2.16044 6.54699 2.14684 6.82611 2.16711C7.10865 2.18762 7.46854 2.23875 7.98221 2.31213L8.12363 1.32218ZM5.16602 4.7546C5.16602 4.23572 5.1663 3.87222 5.18595 3.58961C5.20536 3.31043 5.24174 3.15194 5.29283 3.0357L4.37738 2.63328C4.25938 2.90171 4.21122 3.19145 4.18836 3.52025C4.16573 3.84563 4.16602 4.24985 4.16602 4.7546H5.16602ZM5.99374 1.23142C5.27211 1.43289 4.67888 1.9474 4.37738 2.63328L5.29283 3.0357C5.47374 2.62417 5.82967 2.31547 6.26265 2.19458L5.99374 1.23142Z"/>
    <path d="M10.666 8.00002L11.0565 7.68767L11.3063 8.00002L11.0565 8.31237L10.666 8.00002ZM2.66602 8.50002C2.38987 8.50002 2.16602 8.27616 2.16602 8.00002C2.16602 7.72388 2.38987 7.50002 2.66602 7.50002V8.50002ZM8.38978 4.35434L11.0565 7.68767L10.2756 8.31237L7.60891 4.97903L8.38978 4.35434ZM11.0565 8.31237L8.38978 11.6457L7.60891 11.021L10.2756 7.68767L11.0565 8.31237ZM10.666 8.50002H2.66602V7.50002H10.666V8.50002Z"/>
  </symbol>
  <symbol id="clazz" viewBox="0 0 24 24">
    <path d="M11.8,12.8h4.6c0.3,1.2,1.4,2,2.6,2c1.5,0,2.8-1.2,2.8-2.8S20.5,9.2,19,9.2c-1.3,0-2.3,0.8-2.6,2h-4.6V5.8h4.6c0.3,1.2,1.4,2,2.6,2c1.5,0,2.8-1.2,2.8-2.8S20.5,2.2,19,2.2c-1.3,0-2.3,0.8-2.6,2H11c-0.4,0-0.8,0.3-0.8,0.8v6.2H7.6c-0.3-1.2-1.4-2-2.6-2c-1.5,0-2.8,1.2-2.8,2.8s1.2,2.8,2.8,2.8c1.3,0,2.3-0.8,2.6-2h2.6V19c0,0.4,0.3,0.8,0.8,0.8h5.4c0.3,1.2,1.4,2,2.6,2c1.5,0,2.8-1.2,2.8-2.8s-1.2-2.8-2.8-2.8c-1.3,0-2.3,0.8-2.6,2h-4.6V12.8z M19,10.8c0.7,0,1.2,0.6,1.2,1.2s-0.6,1.2-1.2,1.2c-0.7,0-1.2-0.6-1.2-1.2S18.3,10.8,19,10.8z M19,3.8c0.7,0,1.2,0.6,1.2,1.2S19.7,6.2,19,6.2c-0.7,0-1.2-0.6-1.2-1.2S18.3,3.8,19,3.8z M5,13.2c-0.7,0-1.2-0.6-1.2-1.2s0.6-1.2,1.2-1.2s1.2,0.6,1.2,1.2S5.7,13.2,5,13.2z M19,17.8c0.7,0,1.2,0.6,1.2,1.2c0,0.7-0.6,1.2-1.2,1.2c-0.7,0-1.2-0.6-1.2-1.2C17.8,18.3,18.3,17.8,19,17.8z" />
  </symbol>
  <symbol id="enums" viewBox="0 0 24 24">
    <path d="M21,2.2h-5h-5c-0.4,0-0.8,0.3-0.8,0.8v18c0,0.4,0.3,0.8,0.8,0.8h5h5c0.4,0,0.8-0.3,0.8-0.8V3C21.8,2.6,21.4,2.2,21,2.2z M11.8,3.8h3.5v16.5h-3.5V3.8z M20.2,20.2h-3.5V3.8h3.5V20.2z" />
    <path d="M9.1,2.8l-4-0.5c-0.2,0-0.4,0-0.6,0.2C4.4,2.5,4.3,2.7,4.3,2.9l-2,17.5c0,0.4,0.2,0.8,0.7,0.8l4.2,0.5c0.2,0,0.4,0,0.6-0.2S8,21.3,8,21.1L9.7,3.6C9.8,3.2,9.5,2.8,9.1,2.8z M6.6,20.2l-2.7-0.3l1.8-16l2.5,0.3L6.6,20.2z" />
    <path d="M18.5,9.8c0.4,0,0.8-0.3,0.8-0.8V7.5c0-0.4-0.3-0.8-0.8-0.8s-0.8,0.3-0.8,0.8V9C17.8,9.4,18.1,9.8,18.5,9.8z" />
    <path d="M13.5,6.8c-0.4,0-0.8,0.3-0.8,0.8V9c0,0.4,0.3,0.8,0.8,0.8s0.8-0.3,0.8-0.8V7.5C14.2,7.1,13.9,6.8,13.5,6.8z" />
  </symbol>

</svg>
