<svg xmlns="http://www.w3.org/2000/svg" style="display: none;">
  <symbol id="edit" fill="none" viewBox="0 0 20 20">
    <path d="M11.4561 17.0355H17.4999" stroke="currentColor" stroke-linecap="round" stroke-linejoin="round"/>
    <path d="M10.65 3.16233C11.2964 2.38982 12.4583 2.27655 13.2469 2.90978C13.2905 2.94413 14.6912 4.03232 14.6912 4.03232C15.5575 4.55599 15.8266 5.66925 15.2912 6.51882C15.2627 6.56432 7.34329 16.4704 7.34329 16.4704C7.07981 16.7991 6.67986 16.9931 6.25242 16.9978L3.21961 17.0358L2.53628 14.1436C2.44055 13.7369 2.53628 13.3098 2.79975 12.9811L10.65 3.16233Z" stroke="currentColor" stroke-linecap="round" stroke-linejoin="round"/>
    <path d="M9.18408 5.00098L13.7276 8.49025" stroke="currentColor" stroke-linecap="round" stroke-linejoin="round"/>
  </symbol>
  <symbol id="password" fill="none" viewBox="0 0 20 20">
    <ellipse cx="7.11573" cy="12.231" rx="4.61573" ry="4.61573"  stroke="currentColor"/>
    <path d="M10.5762 8.76966L14.6149 4.7309M16.3458 3L14.6149 4.7309M14.6149 4.7309L17.4998 7.61573" stroke="currentColor" stroke-linecap="round"/>
</symbol>
  <symbol id="settings" viewBox="0 0 16 16">
    <path d="M14,5.8l-1.1-1.9c-0.6-1-0.9-1.5-1.5-1.8c-0.6-0.3-1.2-0.3-2.3-0.4L8,1.7l-1.1,0c-1.1,0-1.8,0-2.3,0.4 C4,2.4,3.7,2.9,3.1,3.9L2,5.8C1.4,6.8,1.1,7.4,1.1,8S1.4,9.2,2,10.2l1.1,1.9c0.6,1,0.9,1.5,1.5,1.8c0.6,0.3,1.2,0.3,2.3,0.4l1.1,0 l1.1,0c1.1,0,1.8,0,2.3-0.4c0.6-0.3,0.9-0.9,1.5-1.8l1.1-1.9c0.6-1,0.9-1.5,0.9-2.2C14.9,7.4,14.6,6.8,14,5.8z M13.1,9.7L12,11.6 c-0.5,0.9-0.8,1.3-1.1,1.5c-0.3,0.2-0.8,0.2-1.8,0.2l-1.1,0l-1.1,0c-1.1,0-1.5,0-1.8-0.2c-0.3-0.2-0.6-0.6-1.1-1.5L2.9,9.7 C2.3,8.8,2.1,8.4,2.1,8c0-0.4,0.2-0.8,0.7-1.7L4,4.4c0.5-0.9,0.8-1.3,1.1-1.5c0.3-0.2,0.8-0.2,1.8-0.2l1.1,0l1.1,0 c1,0,1.5,0,1.8,0.2c0.3,0.2,0.6,0.6,1.1,1.5l1.1,1.9c0.5,0.9,0.7,1.3,0.7,1.7S13.6,8.8,13.1,9.7z"/>
    <path d="M8,5.5C6.6,5.5,5.5,6.6,5.5,8c0,1.4,1.1,2.5,2.5,2.5c1.4,0,2.5-1.1,2.5-2.5C10.5,6.6,9.4,5.5,8,5.5z M8,9.5 C7.2,9.5,6.5,8.8,6.5,8S7.2,6.5,8,6.5S9.5,7.2,9.5,8S8.8,9.5,8,9.5z"/>
  </symbol>
  <symbol id="integration" viewBox="0 0 16 16">
    <path d="M14.2,4.1l-6-3C8.1,1,7.9,1,7.8,1.1l-6,3C1.6,4.1,1.5,4.3,1.5,4.5v7c0,0.2,0.1,0.4,0.3,0.4l6,3L8,14.5l0.2,0.4l6-3 c0.2-0.1,0.3-0.3,0.3-0.4v-7C14.5,4.3,14.4,4.1,14.2,4.1z M8,2.1l4.9,2.4L8,6.9L3.1,4.5L8,2.1z M2.5,11.2V5.3l5,2.5v5.9L2.5,11.2z M8.5,13.7V7.8l5-2.5v5.9L8.5,13.7z"/>
  </symbol>
  <symbol id="support" viewBox="0 0 16 16">
    <path d="M8,9c-1.5,0-6,0-6,3c0,3,4.5,3,6,3s6,0,6-3C14,9,9.5,9,8,9z M8,14c-5,0-5-1.5-5-2c0-0.5,0-2,5-2c5,0,5,1.5,5,2 C13,12.5,13,14,8,14z"/>
    <path d="M8,8L8,8c2,0,3.5-1.6,3.5-3.5C11.5,2.6,9.9,1,8,1S4.5,2.6,4.5,4.5C4.5,6.4,6.1,8,8,8z M8,2c1.4,0,2.5,1.1,2.5,2.5 C10.5,5.9,9.4,7,8,7v0.5L8,7C6.6,7,5.5,5.9,5.5,4.5C5.5,3.1,6.6,2,8,2z"/>
  </symbol>
  <symbol id="privacy" viewBox="0 0 16 16">
    <path d="M12,7.1h-0.7V5.4c0-1.8-1.5-3.3-3.3-3.3c-1.8,0-3.3,1.5-3.3,3.3v1.7H4c-0.8,0-1.5,0.7-1.5,1.5v4.1c0,0.8,0.7,1.5,1.5,1.5h8 c0.8,0,1.5-0.7,1.5-1.5V8.6C13.5,7.8,12.8,7.1,12,7.1z M5.7,5.4c0-1.2,1-2.3,2.3-2.3s2.3,1,2.3,2.3v1.7H5.7V5.4z M12.5,12.7 c0,0.3-0.2,0.5-0.5,0.5H4c-0.3,0-0.5-0.2-0.5-0.5V8.6c0-0.3,0.2-0.5,0.5-0.5h8c0.3,0,0.5,0.2,0.5,0.5V12.7z"/>
  </symbol>
  <symbol id="terms" viewBox="0 0 16 16">
    <path d="M12,1.5H6c-2,0-3,0-3.8,0.7C1.5,3,1.5,4,1.5,6v8.7L4,13.9l2,0.7l2-0.7l2.5,0.8V6.5h2.9c0.1,0,0.1,0,0.2,0 c0.5-0.1,0.8-0.4,0.9-0.9c0,0,0-0.1,0-0.2V4C14.5,2.6,13.4,1.5,12,1.5z M9.5,4v9.3L8,12.8l-2,0.7l-2-0.7l-1.5,0.5V6 c0-1.7,0-2.6,0.4-3.1C3.4,2.5,4.3,2.5,6,2.5h4C9.7,2.9,9.5,3.4,9.5,4z M13.5,5.4L13.5,5.4l-3,0.1V4c0-0.8,0.7-1.5,1.5-1.5 s1.5,0.7,1.5,1.5V5.4z"/>
    <path d="M4.2,4.7c0,0.3,0.2,0.5,0.5,0.5h2.7c0.3,0,0.5-0.2,0.5-0.5S7.6,4.2,7.3,4.2H4.7C4.4,4.2,4.2,4.4,4.2,4.7z"/>
    <path d="M4.7,7.8h0.7c0.3,0,0.5-0.2,0.5-0.5S5.6,6.8,5.3,6.8H4.7c-0.3,0-0.5,0.2-0.5,0.5S4.4,7.8,4.7,7.8z"/>
    <path d="M6.7,9.5h-2c-0.3,0-0.5,0.2-0.5,0.5s0.2,0.5,0.5,0.5h2c0.3,0,0.5-0.2,0.5-0.5S6.9,9.5,6.7,9.5z"/>
  </symbol>
  <symbol id="signout" viewBox="0 0 16 16" fill="none">
    <path d="M12.24 4.42664C13.0789 5.26583 13.6502 6.33493 13.8815 7.49876C14.1129 8.66259 13.994 9.86889 13.5398 10.9651C13.0856 12.0614 12.3165 12.9983 11.3299 13.6575C10.3432 14.3167 9.18328 14.6686 7.99668 14.6686C6.81007 14.6686 5.65011 14.3167 4.66346 13.6575C3.67681 12.9983 2.90777 12.0614 2.45359 10.9651C1.9994 9.86889 1.88047 8.66259 2.11182 7.49876C2.34317 6.33493 2.91442 5.26583 3.75334 4.42664" stroke="white" stroke-linecap="round" stroke-linejoin="round"/>
    <path d="M8 1.33331V7.99998" stroke="white" stroke-linecap="round" stroke-linejoin="round"/>  
  </symbol>
</svg>
