<svg xmlns="http://www.w3.org/2000/svg" style="display: none;">
  <symbol id="edit" viewBox="0 0 16 16">
    <path d="M14,13.1H9.2c-0.3,0-0.5,0.2-0.5,0.5s0.2,0.5,0.5,0.5H14c0.3,0,0.5-0.2,0.5-0.5S14.3,13.1,14,13.1z"/>
    <path d="M11.4,7.1C11.4,7.1,11.4,7.1,11.4,7.1c1.2-1.6,1.3-1.6,1.3-1.6C12.9,5,13,4.5,12.9,4c-0.1-0.5-0.4-0.9-0.8-1.2 c0,0-1.1-0.9-1.1-0.9c-0.8-0.7-2.1-0.6-2.8,0.3c0,0,0,0,0,0l-6.3,7.9c-0.3,0.4-0.4,0.9-0.3,1.4l0.5,2.3c0.1,0.2,0.3,0.4,0.5,0.4 c0,0,0,0,0,0l2.4,0c0.5,0,1-0.2,1.3-0.6C8.9,10.2,10.5,8.2,11.4,7.1C11.4,7.1,11.4,7.1,11.4,7.1z M8.9,2.8c0.3-0.4,1-0.5,1.4-0.1 c0,0,1.2,0.9,1.2,0.9c0.2,0.1,0.4,0.3,0.4,0.6c0.1,0.2,0,0.5-0.1,0.7c0,0-0.4,0.5-0.9,1.2L8.1,3.9L8.9,2.8z M5.5,12.9 C5.4,13,5.2,13.1,5,13.1l-2,0l-0.5-1.9c0-0.2,0-0.4,0.1-0.5l4.8-6l2.8,2.2C8.9,8.6,6.8,11.2,5.5,12.9z"/>
  </symbol>
  <symbol id="password" viewBox="0 0 16 16">
    <path d="M14.4,5.7l-2-2l1-1c0.2-0.2,0.2-0.5,0-0.7s-0.5-0.2-0.7,0l-1.4,1.4L8.3,6.5C7.6,5.9,6.7,5.6,5.7,5.6c-2.3,0-4.2,1.9-4.2,4.2 c0,2.3,1.9,4.2,4.2,4.2s4.2-1.9,4.2-4.2c0-1-0.3-1.9-0.9-2.6l2.7-2.7l2,2c0.2,0.2,0.5,0.2,0.7,0S14.5,5.9,14.4,5.7z M5.7,13 c-1.8,0-3.2-1.4-3.2-3.2s1.4-3.2,3.2-3.2S8.9,8,8.9,9.8S7.5,13,5.7,13z"/>
  </symbol>
  <symbol id="settings" viewBox="0 0 32 32">
    <path fill-rule="evenodd" clip-rule="evenodd" d="M19.3356 7.58904L18.6277 4.75746C18.5164 4.3123 18.1164 4 17.6576 4H14.3422C13.8833 4 13.4834 4.3123 13.3721 4.75746L12.6642 7.58904L11.8634 8.00432C11.6181 8.13154 11.3793 8.26979 11.1476 8.41844L10.3867 8.90666L7.57731 8.10299C7.13614 7.97679 6.66569 8.16704 6.43626 8.56443L4.77859 11.4356C4.54915 11.833 4.61962 12.3355 4.9495 12.6545L7.0498 14.6853L7.00919 15.5863C7.00301 15.7233 6.99989 15.8612 6.99989 16C6.99989 16.1388 7.00301 16.2767 7.00919 16.4137L7.0498 17.3147L4.9495 19.3455C4.61962 19.6645 4.54915 20.167 4.77859 20.5644L6.43626 23.4356C6.66569 23.833 7.13614 24.0232 7.57731 23.897L10.3867 23.0933L11.1476 23.5816C11.3793 23.7302 11.6181 23.8685 11.8634 23.9957L12.6642 24.411L13.3721 27.2425C13.4834 27.6877 13.8833 28 14.3422 28H17.6576C18.1164 28 18.5164 27.6877 18.6277 27.2425L19.3356 24.411L20.1363 23.9957C20.3816 23.8685 20.6204 23.7302 20.8521 23.5816L21.613 23.0934L24.4225 23.897C24.8636 24.0232 25.3341 23.833 25.5635 23.4356L27.2212 20.5644C27.4506 20.167 27.3802 19.6645 27.0503 19.3455L24.95 17.3147L24.9906 16.4138C24.9968 16.2767 24.9999 16.1388 24.9999 16C24.9999 15.8612 24.9968 15.7233 24.9906 15.5862L24.95 14.6853L27.0503 12.6545C27.3801 12.3355 27.4506 11.833 27.2212 11.4356L25.5635 8.5644C25.3341 8.16701 24.8636 7.97676 24.4225 8.10296L21.613 8.90664L20.8521 8.41842C20.6204 8.26978 20.3816 8.13154 20.1363 8.00432L19.3356 7.58904ZM21.0571 6.22888L20.568 4.27239C20.2341 2.93689 19.0342 2 17.6576 2H14.3422C12.9656 2 11.7657 2.93689 11.4318 4.27239L10.9427 6.22888C10.6426 6.38449 10.3507 6.5535 10.0676 6.73514L8.12737 6.18012C6.80386 5.80152 5.39251 6.37226 4.70421 7.56443L3.04654 10.4356C2.35824 11.6278 2.56963 13.1354 3.55927 14.0923L5.01122 15.4962C5.00369 15.6632 4.99989 15.8312 4.99989 16C4.99989 16.1688 5.00369 16.3368 5.01122 16.5038L3.55927 17.9077C2.56963 18.8646 2.35824 20.3722 3.04654 21.5644L4.70421 24.4356C5.39251 25.6277 6.80386 26.1985 8.12737 25.8199L10.0676 25.2649C10.3507 25.4465 10.6426 25.6155 10.9427 25.7711L11.4318 27.7276C11.7657 29.0631 12.9656 30 14.3422 30H17.6576C19.0342 30 20.2341 29.0631 20.568 27.7276L21.0571 25.7711C21.3571 25.6155 21.6491 25.4465 21.9322 25.2649L23.8724 25.8199C25.1959 26.1985 26.6073 25.6278 27.2956 24.4356L28.9532 21.5644C29.6415 20.3723 29.4301 18.8646 28.4405 17.9077L26.9886 16.5038C26.9961 16.3368 26.9999 16.1689 26.9999 16C26.9999 15.8311 26.9961 15.6632 26.9886 15.4962L28.4405 14.0923C29.4301 13.1354 29.6415 11.6277 28.9532 10.4356L27.2956 7.5644C26.6073 6.37223 25.1959 5.80149 23.8724 6.18009L21.9322 6.73512C21.6491 6.55349 21.3571 6.38448 21.0571 6.22888Z" />
    <path fill-rule="evenodd" clip-rule="evenodd" d="M15.9999 20C18.209 20 19.9999 18.2091 19.9999 16C19.9999 13.7909 18.209 12 15.9999 12C13.7907 12 11.9999 13.7909 11.9999 16C11.9999 18.2091 13.7907 20 15.9999 20ZM15.9999 22C19.3136 22 21.9999 19.3137 21.9999 16C21.9999 12.6863 19.3136 10 15.9999 10C12.6862 10 9.99989 12.6863 9.99989 16C9.99989 19.3137 12.6862 22 15.9999 22Z" />
  </symbol>
  <symbol id="integration" viewBox="0 0 16 16">
    <path d="M14.2,4.1l-6-3C8.1,1,7.9,1,7.8,1.1l-6,3C1.6,4.1,1.5,4.3,1.5,4.5v7c0,0.2,0.1,0.4,0.3,0.4l6,3L8,14.5l0.2,0.4l6-3 c0.2-0.1,0.3-0.3,0.3-0.4v-7C14.5,4.3,14.4,4.1,14.2,4.1z M8,2.1l4.9,2.4L8,6.9L3.1,4.5L8,2.1z M2.5,11.2V5.3l5,2.5v5.9L2.5,11.2z M8.5,13.7V7.8l5-2.5v5.9L8.5,13.7z"/>
  </symbol>
  <symbol id="support" viewBox="0 0 16 16">
    <path fill-rule="evenodd" clip-rule="evenodd" d="M8,2C4.2,2,1,4.6,1,8c0,1.2,0.4,2.4,1.2,3.3c-0.1,0.3-0.3,0.7-0.5,1l-0.6,0.9c-0.1,0.2-0.1,0.4,0,0.5C1.1,13.9,1.3,14,1.5,14c1.1,0,2.2-0.2,3.2-0.7C5.7,13.7,6.8,14,8,14c3.8,0,7-2.6,7-6C15,4.6,11.8,2,8,2z M8,13c-1.1,0-2.2-0.3-3.1-0.7c-0.1-0.1-0.3-0.1-0.4,0c-0.6,0.3-1.3,0.5-2,0.6c0.3-0.5,0.6-1,0.7-1.5c0.1-0.2,0-0.3-0.1-0.5C2.4,10.1,2,9.1,2,8c0-2.7,2.6-5,6-5c3.4,0,6,2.3,6,5S11.4,13,8,13z" />
  </symbol>
  <symbol id="privacy" viewBox="0 0 32 32">
    <path d="M16 25.277V6H24V16.8048C24 18.0723 23.6557 19.3161 23.0041 20.4033C22.3525 21.4905 21.4178 22.3803 20.3 22.9779L16 25.277Z" />
    <path fill-rule="evenodd" clip-rule="evenodd" d="M4 6C4 3.79086 5.79086 2 8 2H24C26.2091 2 28 3.79086 28 6V17.0637C28 21.0891 25.8012 24.793 22.2674 26.7205L16.4789 29.8779C16.1804 30.0407 15.8196 30.0407 15.5211 29.8779L9.73263 26.7205C6.19876 24.793 4 21.0891 4 17.0637V6ZM8 4C6.89543 4 6 4.89543 6 6V17.0637C6 20.3572 7.79898 23.3876 10.6903 24.9647L16 27.8609L21.3097 24.9647C24.201 23.3876 26 20.3572 26 17.0637V6C26 4.89543 25.1046 4 24 4H8Z" />
  </symbol>
  <symbol id="terms" viewBox="0 0 32 32">
    <path fill-rule="evenodd" clip-rule="evenodd" d="M10 4C8.89543 4 8 4.89543 8 6V26C8 27.1046 8.89543 28 10 28H22C23.1046 28 24 27.1046 24 26V12H20C17.7909 12 16 10.2091 16 8V4H10ZM18 4.41421V8C18 9.10457 18.8954 10 20 10H23.5858L18 4.41421ZM6 6C6 3.79086 7.79086 2 10 2H17.5858C18.1162 2 18.6249 2.21071 19 2.58579L25.4142 9C25.7893 9.37507 26 9.88378 26 10.4142V26C26 28.2091 24.2091 30 22 30H10C7.79086 30 6 28.2091 6 26V6ZM10 17C10 16.4477 10.4477 16 11 16H15C15.5523 16 16 16.4477 16 17C16 17.5523 15.5523 18 15 18H11C10.4477 18 10 17.5523 10 17ZM10 21C10 20.4477 10.4477 20 11 20H21C21.5523 20 22 20.4477 22 21C22 21.5523 21.5523 22 21 22H11C10.4477 22 10 21.5523 10 21Z" />
  </symbol>
  <symbol id="signout" viewBox="0 0 32 32">
    <path fill-rule="evenodd" clip-rule="evenodd" d="M18 4C19.1046 4 20 4.89543 20 6V7C20 7.55228 20.4477 8 21 8C21.5523 8 22 7.55228 22 7V6C22 3.79086 20.2091 2 18 2H10C7.79086 2 6 3.79086 6 6V26C6 28.2091 7.79086 30 10 30H18C20.2091 30 22 28.2091 22 26V25C22 24.4477 21.5523 24 21 24C20.4477 24 20 24.4477 20 25V26C20 27.1046 19.1046 28 18 28H10C8.89543 28 8 27.1046 8 26V6C8 4.89543 8.89543 4 10 4H18Z" />
    <path d="M22.59 20.59L26.17 17H13C12.4477 17 12 16.5523 12 16C12 15.4477 12.4477 15 13 15H26.17L22.59 11.41L24 10L30 16L24 22L22.59 20.59Z" />
  </symbol>

  <symbol id="selectWorkspace" viewBox="0 0 16 16">
    <path d="M7.92231 14.2015L7.99302 14.6964L7.92231 14.2015ZM6.22318 14.311L6.33389 13.8234L6.22318 14.311ZM4.79789 13.0748L5.26492 12.8963L4.79789 13.0748ZM13.373 12.5661L12.9774 12.2603L13.373 12.5661ZM9.05136 14.0402L8.98065 13.5452L9.05136 14.0402ZM13.1512 12.8218L13.5099 13.1701L13.1512 12.8218ZM13.1512 3.17821L12.7926 3.5266L13.1512 3.17821ZM13.373 3.43391L13.7686 3.12813L13.373 3.43391ZM7.98221 2.31213L8.98065 2.45477L9.12207 1.46482L8.12363 1.32218L7.98221 2.31213ZM13.4993 7.66487V8.33509H14.4993V7.66487H13.4993ZM8.98065 13.5452L7.8516 13.7065L7.99302 14.6964L9.12207 14.5351L8.98065 13.5452ZM7.8516 13.7065C7.39911 13.7711 7.0821 13.8162 6.83278 13.8363C6.58629 13.8562 6.44248 13.8481 6.33389 13.8234L6.11247 14.7986C6.364 14.8557 6.62341 14.8565 6.91329 14.8331C7.20033 14.8099 7.55283 14.7593 7.99302 14.6964L7.8516 13.7065ZM4.16602 11.3773C4.16602 11.822 4.1658 12.1781 4.18344 12.4655C4.20126 12.7558 4.23875 13.0125 4.33085 13.2534L5.26492 12.8963C5.22515 12.7923 5.19671 12.6511 5.18156 12.4042C5.16624 12.1546 5.16602 11.8344 5.16602 11.3773H4.16602ZM6.33389 13.8234C5.84503 13.7124 5.44393 13.3645 5.26492 12.8963L4.33085 13.2534C4.62921 14.0338 5.29771 14.6136 6.11247 14.7986L6.33389 13.8234ZM13.4993 8.33509C13.4993 9.48721 13.4986 10.3082 13.4244 10.9439C13.3517 11.5676 13.2136 11.9547 12.9774 12.2603L13.7686 12.8718C14.1587 12.3671 14.3338 11.7788 14.4177 11.0597C14.5001 10.3527 14.4993 9.46335 14.4993 8.33509H13.4993ZM9.12207 14.5351C10.239 14.3756 11.1195 14.2506 11.8078 14.069C12.5078 13.8843 13.0654 13.6277 13.5099 13.1701L12.7926 12.4734C12.5234 12.7504 12.1598 12.9419 11.5526 13.1021C10.9338 13.2654 10.1212 13.3823 8.98065 13.5452L9.12207 14.5351ZM12.9774 12.2603C12.9198 12.3347 12.8581 12.4059 12.7926 12.4734L13.5099 13.1701C13.6017 13.0756 13.688 12.9761 13.7686 12.8718L12.9774 12.2603ZM8.98065 2.45477C10.1212 2.6177 10.9338 2.73458 11.5526 2.89788C12.1598 3.05809 12.5234 3.24952 12.7926 3.5266L13.5099 2.82982C13.0654 2.37222 12.5078 2.11569 11.8078 1.93098C11.1195 1.74936 10.239 1.62438 9.12207 1.46482L8.98065 2.45477ZM14.4993 7.66487C14.4993 6.53661 14.5001 5.64727 14.4177 4.94022C14.3338 4.22111 14.1587 3.63289 13.7686 3.12813L12.9774 3.73968C13.2136 4.04531 13.3517 4.43238 13.4244 5.05606C13.4986 5.69179 13.4993 6.51275 13.4993 7.66487H14.4993ZM12.7926 3.5266C12.8581 3.59409 12.9198 3.66523 12.9774 3.73968L13.7686 3.12813C13.688 3.02391 13.6017 2.92431 13.5099 2.82982L12.7926 3.5266ZM8.12363 1.32218C7.62395 1.2508 7.22383 1.19335 6.89852 1.16973C6.56979 1.14587 6.27615 1.15257 5.99374 1.23142L6.26265 2.19458C6.38494 2.16044 6.54699 2.14684 6.82611 2.16711C7.10865 2.18762 7.46854 2.23875 7.98221 2.31213L8.12363 1.32218ZM5.16602 4.7546C5.16602 4.23572 5.1663 3.87222 5.18595 3.58961C5.20536 3.31043 5.24174 3.15194 5.29283 3.0357L4.37738 2.63328C4.25938 2.90171 4.21122 3.19145 4.18836 3.52025C4.16573 3.84563 4.16602 4.24985 4.16602 4.7546H5.16602ZM5.99374 1.23142C5.27211 1.43289 4.67888 1.9474 4.37738 2.63328L5.29283 3.0357C5.47374 2.62417 5.82967 2.31547 6.26265 2.19458L5.99374 1.23142Z"/>
    <path d="M10.666 8.00002L11.0565 7.68767L11.3063 8.00002L11.0565 8.31237L10.666 8.00002ZM2.66602 8.50002C2.38987 8.50002 2.16602 8.27616 2.16602 8.00002C2.16602 7.72388 2.38987 7.50002 2.66602 7.50002V8.50002ZM8.38978 4.35434L11.0565 7.68767L10.2756 8.31237L7.60891 4.97903L8.38978 4.35434ZM11.0565 8.31237L8.38978 11.6457L7.60891 11.021L10.2756 7.68767L11.0565 8.31237ZM10.666 8.50002H2.66602V7.50002H10.666V8.50002Z"/>
  </symbol>
  <symbol id="clazz" viewBox="0 0 24 24">
    <path d="M11.8,12.8h4.6c0.3,1.2,1.4,2,2.6,2c1.5,0,2.8-1.2,2.8-2.8S20.5,9.2,19,9.2c-1.3,0-2.3,0.8-2.6,2h-4.6V5.8h4.6c0.3,1.2,1.4,2,2.6,2c1.5,0,2.8-1.2,2.8-2.8S20.5,2.2,19,2.2c-1.3,0-2.3,0.8-2.6,2H11c-0.4,0-0.8,0.3-0.8,0.8v6.2H7.6c-0.3-1.2-1.4-2-2.6-2c-1.5,0-2.8,1.2-2.8,2.8s1.2,2.8,2.8,2.8c1.3,0,2.3-0.8,2.6-2h2.6V19c0,0.4,0.3,0.8,0.8,0.8h5.4c0.3,1.2,1.4,2,2.6,2c1.5,0,2.8-1.2,2.8-2.8s-1.2-2.8-2.8-2.8c-1.3,0-2.3,0.8-2.6,2h-4.6V12.8z M19,10.8c0.7,0,1.2,0.6,1.2,1.2s-0.6,1.2-1.2,1.2c-0.7,0-1.2-0.6-1.2-1.2S18.3,10.8,19,10.8z M19,3.8c0.7,0,1.2,0.6,1.2,1.2S19.7,6.2,19,6.2c-0.7,0-1.2-0.6-1.2-1.2S18.3,3.8,19,3.8z M5,13.2c-0.7,0-1.2-0.6-1.2-1.2s0.6-1.2,1.2-1.2s1.2,0.6,1.2,1.2S5.7,13.2,5,13.2z M19,17.8c0.7,0,1.2,0.6,1.2,1.2c0,0.7-0.6,1.2-1.2,1.2c-0.7,0-1.2-0.6-1.2-1.2C17.8,18.3,18.3,17.8,19,17.8z" />
  </symbol>
  <symbol id="enums" viewBox="0 0 24 24">
    <path d="M21,2.2h-5h-5c-0.4,0-0.8,0.3-0.8,0.8v18c0,0.4,0.3,0.8,0.8,0.8h5h5c0.4,0,0.8-0.3,0.8-0.8V3C21.8,2.6,21.4,2.2,21,2.2z M11.8,3.8h3.5v16.5h-3.5V3.8z M20.2,20.2h-3.5V3.8h3.5V20.2z" />
    <path d="M9.1,2.8l-4-0.5c-0.2,0-0.4,0-0.6,0.2C4.4,2.5,4.3,2.7,4.3,2.9l-2,17.5c0,0.4,0.2,0.8,0.7,0.8l4.2,0.5c0.2,0,0.4,0,0.6-0.2S8,21.3,8,21.1L9.7,3.6C9.8,3.2,9.5,2.8,9.1,2.8z M6.6,20.2l-2.7-0.3l1.8-16l2.5,0.3L6.6,20.2z" />
    <path d="M18.5,9.8c0.4,0,0.8-0.3,0.8-0.8V7.5c0-0.4-0.3-0.8-0.8-0.8s-0.8,0.3-0.8,0.8V9C17.8,9.4,18.1,9.8,18.5,9.8z" />
    <path d="M13.5,6.8c-0.4,0-0.8,0.3-0.8,0.8V9c0,0.4,0.3,0.8,0.8,0.8s0.8-0.3,0.8-0.8V7.5C14.2,7.1,13.9,6.8,13.5,6.8z" />
  </symbol>

</svg>
