<svg xmlns="http://www.w3.org/2000/svg" style="display: none;">
  <symbol id="settings" viewBox="0 0 16 16">
    <path d="M15,5.5l-1.3-2.2C13,2.1,12.7,1.4,12,1.1c-0.7-0.4-1.4-0.4-2.7-0.4L8,0.6l-1.3,0c-1.3,0-2,0-2.7,0.4c-0.7,0.4-1,1-1.7,2.1 L1,5.5C0.4,6.6,0,7.2,0,8s0.4,1.4,1,2.5l1.3,2.2C3,13.9,3.3,14.5,4,14.9c0.7,0.4,1.4,0.4,2.7,0.4l1.3,0l1.3,0c1.3,0,2,0,2.7-0.4 c0.7-0.4,1-1,1.7-2.1l1.3-2.3c0.6-1.2,1-1.8,1-2.5C16,7.2,15.6,6.6,15,5.5z M14,10l-1.3,2.2c-0.6,1.1-0.9,1.5-1.3,1.7 c-0.4,0.2-0.9,0.2-2.1,0.3l-1.3,0l-1.3,0c-1.2,0-1.8,0-2.1-0.3c-0.4-0.2-0.7-0.7-1.3-1.7L2,10C1.4,8.9,1.2,8.4,1.2,8 c0-0.5,0.3-1,0.8-2l1.3-2.2c0.6-1.1,0.9-1.5,1.3-1.7c0.4-0.2,1-0.2,2.1-0.3l1.3,0l1.3,0c1.2,0,1.7,0,2.1,0.3 c0.4,0.2,0.7,0.7,1.3,1.7L14,6c0.6,1,0.8,1.5,0.8,2C14.8,8.5,14.6,9,14,10z"/>
    <path d="M8,5.1C6.4,5.1,5.1,6.4,5.1,8c0,1.6,1.3,2.9,2.9,2.9c1.6,0,2.9-1.3,2.9-2.9C10.9,6.4,9.6,5.1,8,5.1z M8,9.7 C7,9.7,6.3,9,6.3,8S7,6.3,8,6.3S9.7,7,9.7,8S9,9.7,8,9.7z"/>
  </symbol>
  <symbol id="integration" viewBox="0 0 16 16">
    <path d="M15.1,3.5L8.3,0.1C8.1,0,7.9,0,7.7,0.1L0.9,3.5C0.7,3.6,0.5,3.8,0.5,4v8c0,0.2,0.1,0.4,0.3,0.5L7.7,16L8,15.5L8.3,16 l6.9-3.4c0.2-0.1,0.3-0.3,0.3-0.5V4C15.5,3.8,15.3,3.6,15.1,3.5z M8,1.2L13.6,4L8,6.8L2.4,4L8,1.2z M1.7,11.7V4.9l5.7,2.9v6.7 L1.7,11.7z M8.6,14.6V7.8l5.7-2.9v6.7L8.6,14.6z"/>
  </symbol>
  <symbol id="support" viewBox="0 0 16 16">
    <path d="M8,9.1c-1.7,0-6.8,0-6.8,3.4C1.2,16,6.3,16,8,16s6.8,0,6.8-3.4C14.8,9.1,9.7,9.1,8,9.1z M8,14.9c-5.7,0-5.7-1.7-5.7-2.3 c0-0.6,0-2.3,5.7-2.3s5.7,1.7,5.7,2.3C13.7,13.1,13.7,14.9,8,14.9z"/>
    <path d="M8,8L8,8c2.2,0,4-1.8,4-4c0-2.2-1.8-4-4-4S4,1.8,4,4c0,1.1,0.4,2.1,1.2,2.8C5.9,7.6,6.9,8,8,8z M8,1.1 c1.6,0,2.9,1.3,2.9,2.9c0,1.6-1.3,2.9-2.9,2.9v0.6l0-0.6C7.2,6.9,6.5,6.6,6,6S5.2,4.8,5.2,4C5.2,2.4,6.4,1.1,8,1.1z"/>
  </symbol>
  <symbol id="privacy" viewBox="0 0 16 16">
    <path d="M13.3,6.6h-1V4.3C12.3,1.9,10.4,0,8,0C5.6,0,3.7,1.9,3.7,4.3v2.3h-1c-1.1,0-2,0.9-2,2V14c0,1.1,0.9,2,2,2h10.6 c1.1,0,2-0.9,2-2V8.6C15.3,7.5,14.4,6.6,13.3,6.6z M5,4.3c0-1.7,1.4-3,3-3c1.7,0,3,1.3,3,3v2.3H5V4.3z M14,14c0,0.4-0.3,0.7-0.7,0.7 H2.7C2.3,14.7,2,14.4,2,14V8.6c0-0.4,0.3-0.7,0.7-0.7h10.6c0.4,0,0.7,0.3,0.7,0.7V14z"/>
  </symbol>
  <symbol id="terms" viewBox="0 0 16 16">
    <path d="M12.9,0H5.6C3.2,0,1.9,0,1,0.9C0.1,1.8,0.1,3.1,0.1,5.5V16l3-1l2.4,0.8L8,15l3,1V6.1h3.6c0.1,0,0.2,0,0.2,0 c0.6-0.1,1-0.5,1.1-1.1c0,0,0-0.1,0-0.2V3C15.9,1.4,14.5,0,12.9,0z M9.8,3v11.3L8,13.7l-2.4,0.8l-2.4-0.8l-1.8,0.6V5.5 c0-2.1,0-3.2,0.5-3.7c0.5-0.5,1.6-0.5,3.7-0.5h4.9C10,1.7,9.8,2.3,9.8,3z M14.7,4.8L14.7,4.8L11,4.9V3c0-1,0.8-1.8,1.8-1.8 S14.7,2,14.7,3V4.8z"/>
    <path d="M3.4,3.8c0,0.3,0.3,0.6,0.6,0.6h3.2c0.3,0,0.6-0.3,0.6-0.6S7.5,3.2,7.2,3.2H4C3.6,3.2,3.4,3.5,3.4,3.8z"/>
    <path d="M4,7.7h0.8c0.3,0,0.6-0.3,0.6-0.6S5.1,6.5,4.8,6.5H4c-0.3,0-0.6,0.3-0.6,0.6S3.6,7.7,4,7.7z"/>
    <path d="M6.4,9.7H4c-0.3,0-0.6,0.3-0.6,0.6s0.3,0.6,0.6,0.6h2.4c0.3,0,0.6-0.3,0.6-0.6S6.7,9.7,6.4,9.7z"/>
  </symbol>
</svg>
