<svg xmlns="http://www.w3.org/2000/svg" style="display: none;">
  <symbol id="home" viewBox="0 0 32 32">
      <path fill-rule="evenodd" clip-rule="evenodd" d="M15.2929 2.29302C15.6834 1.90249 16.3166 1.90249 16.7071 2.29302L29.7071 15.293C30.0976 15.6835 30.0976 16.3167 29.7071 16.7072C29.3166 17.0978 28.6834 17.0978 28.2929 16.7072L28 16.4143V26.0001C28 27.1047 27.1046 28.0001 26 28.0001H6C4.89543 28.0001 4 27.1047 4 26.0001V16.4143L3.70711 16.7072C3.31658 17.0978 2.68342 17.0978 2.29289 16.7072C1.90237 16.3167 1.90237 15.6835 2.29289 15.293L15.2929 2.29302ZM6 14.4143V26.0001H12V17.0001C12 16.4478 12.4477 16.0001 13 16.0001H19C19.5523 16.0001 20 16.4478 20 17.0001V26.0001H26V14.4143L16 4.41434L6 14.4143ZM18 26.0001V18.0001H14V26.0001H18Z" fill="currentColor"/>
  </symbol>
  <symbol id="person" viewBox="0 0 16 16">
    <path d="M8 3.99988C7.50555 3.99988 7.0222 4.1465 6.61108 4.4212C6.19995 4.69591 5.87952 5.08635 5.6903 5.54317C5.50108 5.99998 5.45158 6.50265 5.54804 6.9876C5.6445 7.47256 5.88261 7.91801 6.23224 8.26764C6.58187 8.61728 7.02733 8.85538 7.51228 8.95184C7.99723 9.0483 8.4999 8.9988 8.95671 8.80958C9.41353 8.62036 9.80397 8.29993 10.0787 7.8888C10.3534 7.47768 10.5 6.99433 10.5 6.49988C10.5 5.83684 10.2366 5.20095 9.76777 4.73211C9.29893 4.26327 8.66304 3.99988 8 3.99988ZM8 7.99988C7.70333 7.99988 7.41332 7.9119 7.16665 7.74708C6.91997 7.58226 6.72771 7.34799 6.61418 7.0739C6.50065 6.79981 6.47095 6.49821 6.52882 6.20724C6.5867 5.91627 6.72956 5.649 6.93934 5.43922C7.14912 5.22944 7.4164 5.08658 7.70737 5.0287C7.99834 4.97082 8.29994 5.00053 8.57403 5.11406C8.84812 5.22759 9.08239 5.41985 9.24721 5.66652C9.41203 5.9132 9.5 6.20321 9.5 6.49988C9.49955 6.89756 9.34137 7.27883 9.06017 7.56004C8.77896 7.84125 8.39769 7.99943 8 7.99988Z" />
    <path d="M8 0.999878C6.61553 0.999878 5.26216 1.41042 4.11101 2.17959C2.95987 2.94876 2.06266 4.04201 1.53285 5.32109C1.00303 6.60018 0.86441 8.00764 1.13451 9.36551C1.4046 10.7234 2.07129 11.9707 3.05026 12.9496C4.02922 13.9286 5.2765 14.5953 6.63437 14.8654C7.99224 15.1355 9.3997 14.9968 10.6788 14.467C11.9579 13.9372 13.0511 13.04 13.8203 11.8889C14.5895 10.7377 15 9.38435 15 7.99988C14.9979 6.144 14.2597 4.36474 12.9474 3.05244C11.6351 1.74014 9.85588 1.00197 8 0.999878ZM5 13.1881V12.4999C5.00044 12.1022 5.15862 11.7209 5.43983 11.4397C5.72104 11.1585 6.10231 11.0003 6.5 10.9999H9.5C9.89769 11.0003 10.279 11.1585 10.5602 11.4397C10.8414 11.7209 10.9996 12.1022 11 12.4999V13.1881C10.0896 13.7197 9.05426 13.9999 8 13.9999C6.94574 13.9999 5.91042 13.7197 5 13.1881ZM11.9963 12.4628C11.9863 11.8069 11.7191 11.1812 11.2521 10.7205C10.7852 10.2598 10.156 10.001 9.5 9.99988H6.5C5.84405 10.001 5.2148 10.2598 4.74786 10.7205C4.28093 11.1812 4.01369 11.8069 4.00375 12.4628C3.09703 11.6532 2.45762 10.5872 2.17017 9.40611C1.88272 8.22501 1.9608 6.98445 2.39407 5.84871C2.82734 4.71297 3.59536 3.73561 4.59644 3.04606C5.59751 2.35651 6.78442 1.98729 8 1.98729C9.21558 1.98729 10.4025 2.35651 11.4036 3.04606C12.4046 3.73561 13.1727 4.71297 13.6059 5.84871C14.0392 6.98445 14.1173 8.22501 13.8298 9.40611C13.5424 10.5872 12.903 11.6532 11.9963 12.4628Z" />
  </symbol>
  <symbol id="thread" viewBox="0 0 24 24">
    <path d="M9.00433 11H6.99536V13H9.00433V11Z" fill="currentColor"/>
    <path d="M12.9999 11H10.9909V13H12.9999V11Z" fill="currentColor"/>
    <path d="M16.9954 11H14.9864V13H16.9954V11Z" fill="currentColor"/>
    <path fill-rule="evenodd" clip-rule="evenodd"
          d="M12 1.25C6.10068 1.25 1.2522 5.80367 1.2522 11.5004C1.2522 14.2501 2.38351 16.6493 4.16893 18.5083L3.28136 21.7834L3.28087 21.7853C3.11452 22.4053 3.74109 22.934 4.32195 22.6775L4.32598 22.6757L8.01227 21.022C9.24674 21.4927 10.5929 21.7508 12 21.7508C17.8993 21.7508 22.7478 17.1972 22.7478 11.5004C22.7478 5.80367 17.8993 1.25 12 1.25ZM2.7522 11.5004C2.7522 6.70331 6.85606 2.75 12 2.75C17.1439 2.75 21.2478 6.70331 21.2478 11.5004C21.2478 16.2976 17.1439 20.2508 12 20.2508C10.6757 20.2508 9.41882 19.9878 8.28293 19.5153L7.98364 19.3908L5.13791 20.6674L5.84605 18.0544L5.52727 17.7465C3.80892 16.0869 2.7522 13.945 2.7522 11.5004Z"
          fill="currentColor"/>
  </symbol>
  <symbol id="all" viewBox="0 0 20 20" fill="none">
    <path d="M9.99998 15.0001C9.89651 15 9.79468 14.9743 9.70367 14.9251L2.12886 10.8463C1.82502 10.6827 1.71137 10.3037 1.87505 9.99992C2.03867 9.69621 2.41749 9.58261 2.72124 9.74616L9.99998 13.6652L17.2785 9.7463C17.5823 9.58268 17.9613 9.69637 18.125 10.0002C18.2886 10.3041 18.1749 10.6832 17.871 10.8468L10.2963 14.9255C10.2052 14.9746 10.1034 15.0002 9.99998 15.0001Z" fill="currentColor"/>
    <path d="M9.99998 18.7501C9.89651 18.75 9.79468 18.7243 9.70367 18.6751L2.12886 14.5963C1.82502 14.4327 1.71137 14.0537 1.87505 13.7499C2.03867 13.4462 2.41749 13.3326 2.72124 13.4962L9.99998 17.4152L17.2785 13.4963C17.5823 13.3327 17.9613 13.4464 18.125 13.7502C18.2886 14.0541 18.1749 14.4332 17.871 14.5968L10.2963 18.6755C10.2052 18.7246 10.1034 18.7502 9.99998 18.7501Z" fill="currentColor"/>
    <path d="M9.99998 11.2501C9.89651 11.25 9.79468 11.2243 9.70367 11.1751L1.57867 6.80005C1.47934 6.74654 1.39635 6.66713 1.33851 6.57026C1.28066 6.47338 1.25012 6.36266 1.25012 6.24983C1.25012 6.13701 1.28066 6.02628 1.33851 5.92941C1.39635 5.83254 1.47934 5.75313 1.57867 5.69961L9.70367 1.32461C9.7947 1.27548 9.89653 1.24976 9.99998 1.24976C10.1034 1.24976 10.2053 1.27548 10.2963 1.32461L18.4213 5.69961C18.5206 5.75313 18.6036 5.83254 18.6615 5.92941C18.7193 6.02628 18.7498 6.13701 18.7498 6.24983C18.7498 6.36266 18.7193 6.47338 18.6615 6.57026C18.6036 6.66713 18.5206 6.74654 18.4213 6.80005L10.2963 11.1751C10.2053 11.2243 10.1034 11.25 9.99998 11.2501ZM3.19336 6.25005L9.99998 9.91524L16.8066 6.25005L9.99998 2.58493L3.19336 6.25005Z" fill="currentColor"/>
  </symbol>
</svg>
