<svg xmlns="http://www.w3.org/2000/svg" style="display: none;">
    <symbol id="chat-bubble" viewBox="0 0 24 24">
        <path d="M9.00433 11H6.99536V13H9.00433V11Z" fill="currentColor"/>
        <path d="M12.9999 11H10.9909V13H12.9999V11Z" fill="currentColor"/>
        <path d="M16.9954 11H14.9864V13H16.9954V11Z" fill="currentColor"/>
        <path fill-rule="evenodd" clip-rule="evenodd"
              d="M12 1.25C6.10068 1.25 1.2522 5.80367 1.2522 11.5004C1.2522 14.2501 2.38351 16.6493 4.16893 18.5083L3.28136 21.7834L3.28087 21.7853C3.11452 22.4053 3.74109 22.934 4.32195 22.6775L4.32598 22.6757L8.01227 21.022C9.24674 21.4927 10.5929 21.7508 12 21.7508C17.8993 21.7508 22.7478 17.1972 22.7478 11.5004C22.7478 5.80367 17.8993 1.25 12 1.25ZM2.7522 11.5004C2.7522 6.70331 6.85606 2.75 12 2.75C17.1439 2.75 21.2478 6.70331 21.2478 11.5004C21.2478 16.2976 17.1439 20.2508 12 20.2508C10.6757 20.2508 9.41882 19.9878 8.28293 19.5153L7.98364 19.3908L5.13791 20.6674L5.84605 18.0544L5.52727 17.7465C3.80892 16.0869 2.7522 13.945 2.7522 11.5004Z"
              fill="currentColor"/>
    </symbol>

    <symbol id="message-multiple" viewBox="0 0 24 24">
        <path d="M2.75572 10.3721C2.67506 8.16892 3.82846 6.21211 5.51843 4.81037C7.21887 3.39994 9.35454 2.64423 11.05 2.76018C11.9385 2.82094 12.8149 2.98182 13.6797 3.19064C14.7797 3.51647 16.6649 4.60069 17.7603 6.12395C18.6923 7.42004 19.0162 8.74543 19.0911 9.14216L20.5651 8.86401C20.4666 8.34186 20.0827 6.78423 18.9781 5.2482C17.6529 3.40536 15.4516 2.14469 14.0834 1.74586C14.0069 1.72679 13.9314 1.70778 13.8565 1.68894C12.9854 1.46987 12.2042 1.27339 11.127 1.26199C8.3978 1.23312 6.48237 2.06199 4.5608 3.65584C2.62442 5.26196 1.15931 7.62561 1.25623 10.4132C1.25813 12.2248 1.64052 13.5796 2.21557 14.6627C2.69647 15.5686 3.29898 16.2569 3.85453 16.8334L3.05434 19.7384C2.88103 20.3679 3.51935 20.8887 4.09405 20.6353L7.40539 19.1733C7.87458 19.3317 8.33732 19.4723 8.80721 19.586L9.16016 18.1281C8.54146 17.9784 7.93959 17.7727 7.33931 17.5628L4.9146 18.6333L5.53027 16.3982L5.2255 16.0898C4.6004 15.4573 3.9989 14.8229 3.54044 13.9594C3.0881 13.1073 2.75622 11.9931 2.75622 10.3996V10.3859L2.75572 10.3721Z"
              fill="currentColor"/>
        <path fill-rule="evenodd" clip-rule="evenodd"
              d="M22.2646 18.4346C23.8127 15.061 21.4542 11.3919 18.3526 10.5041C16.8345 10.0007 15.1435 10.203 13.7239 10.8708C12.2987 11.5412 11.0662 12.7196 10.5459 14.2602C9.54063 17.2366 11.4209 20.8545 14.6395 21.8814C15.9617 22.3032 17.5347 22.1569 18.1927 21.9491C18.431 22.0161 18.7158 22.1372 19.0197 22.2664C19.7954 22.5963 20.6952 22.979 21.2615 22.6468C21.5475 22.479 21.6604 22.1705 21.6471 21.8546C21.6294 21.4301 21.573 21.0054 21.5167 20.5813C21.4805 20.3088 21.4443 20.0367 21.4185 19.7651C21.7475 19.356 22.0453 18.9123 22.2646 18.4346ZM11.9671 14.7402C12.3308 13.6633 13.226 12.7627 14.3623 12.2282C15.4988 11.6936 16.7959 11.564 17.8928 11.932L17.9099 11.9377L17.9273 11.9426C20.3341 12.6228 21.9859 15.4235 20.9068 17.7968C20.633 18.3376 20.2858 18.8072 19.8659 19.2409C19.9138 19.791 19.9655 20.3406 20.03 20.889C19.7776 20.8166 19.5238 20.7496 19.2701 20.6826C18.8945 20.5833 18.5189 20.4841 18.148 20.3677L17.9034 20.4622C16.9745 20.8209 15.9738 20.7129 15.0414 20.436C12.3639 19.7416 11.2065 16.9918 11.9671 14.7402Z"
              fill="currentColor"/>
    </symbol>
    <symbol id="grid" viewBox="0 0 24 24">
        <path fill-rule="evenodd" clip-rule="evenodd"
              d="M7.74991 1.99996C7.74991 1.58575 7.41412 1.24996 6.99991 1.24996C6.58569 1.24996 6.24991 1.58575 6.24991 1.99996V6.24996H1.99991C1.58569 6.24996 1.24991 6.58575 1.24991 6.99996C1.24991 7.41418 1.58569 7.74996 1.99991 7.74996H6.24991V16.25H1.99991C1.58569 16.25 1.24991 16.5857 1.24991 17C1.24991 17.4142 1.58569 17.75 1.99991 17.75H6.24991V22C6.24991 22.4142 6.58569 22.75 6.99991 22.75C7.41412 22.75 7.74991 22.4142 7.74991 22V17.75H16.2499V22C16.2499 22.4142 16.5857 22.75 16.9999 22.75C17.4141 22.75 17.7499 22.4142 17.7499 22V17.75H21.9999C22.4141 17.75 22.7499 17.4142 22.7499 17C22.7499 16.5857 22.4141 16.25 21.9999 16.25H17.7499V7.74996H21.9999C22.4141 7.74996 22.7499 7.41418 22.7499 6.99996C22.7499 6.58575 22.4141 6.24996 21.9999 6.24996H17.7499V1.99996C17.7499 1.58575 17.4141 1.24996 16.9999 1.24996C16.5857 1.24996 16.2499 1.58575 16.2499 1.99996V6.24996H7.74991V1.99996ZM16.2499 16.25V7.74996H7.74991V16.25H16.2499Z"
              fill="currentColor"/>
    </symbol>
</svg>
