<svg xmlns="http://www.w3.org/2000/svg" style="display: none;">
  <symbol id="tag" viewBox="0 0 16 16">
    <path d="M8 0.999878C6.61553 0.999878 5.26216 1.41042 4.11101 2.17959C2.95987 2.94876 2.06266 4.04201 1.53285 5.32109C1.00303 6.60018 0.86441 8.00764 1.13451 9.36551C1.4046 10.7234 2.07129 11.9707 3.05026 12.9496C4.02922 13.9286 5.2765 14.5953 6.63437 14.8654C7.99224 15.1355 9.3997 14.9968 10.6788 14.467C11.9579 13.9372 13.0511 13.04 13.8203 11.8889C14.5895 10.7377 15 9.38435 15 7.99988C15 6.14336 14.2625 4.36288 12.9497 3.05013C11.637 1.73738 9.85652 0.999878 8 0.999878ZM8 13.9999C6.81332 13.9999 5.65328 13.648 4.66658 12.9887C3.67989 12.3294 2.91085 11.3923 2.45673 10.296C2.0026 9.19962 1.88378 7.99322 2.11529 6.82934C2.3468 5.66545 2.91825 4.59635 3.75736 3.75724C4.59648 2.91812 5.66558 2.34668 6.82946 2.11517C7.99335 1.88365 9.19975 2.00247 10.2961 2.4566C11.3925 2.91073 12.3295 3.67976 12.9888 4.66646C13.6481 5.65315 14 6.81319 14 7.99988C14 9.59118 13.3679 11.1173 12.2426 12.2425C11.1174 13.3677 9.5913 13.9999 8 13.9999Z" />
    <path fill-rule="evenodd" clip-rule="evenodd" d="M11.3536 5.64645C11.5488 5.84171 11.5488 6.15829 11.3536 6.35355L7.35355 10.3536C7.15829 10.5488 6.84171 10.5488 6.64645 10.3536L4.64645 8.35355C4.45118 8.15829 4.45118 7.84171 4.64645 7.64645C4.84171 7.45118 5.15829 7.45118 5.35355 7.64645L7 9.29289L10.6464 5.64645C10.8417 5.45118 11.1583 5.45118 11.3536 5.64645Z" />
  </symbol>

  <symbol id="chat-bubble" viewBox="0 0 24 24" >
      <path d="M9.00433 11H6.99536V13H9.00433V11Z" fill="currentColor"/>
      <path d="M12.9999 11H10.9909V13H12.9999V11Z" fill="currentColor"/>
      <path d="M16.9954 11H14.9864V13H16.9954V11Z" fill="currentColor"/>
      <path fill-rule="evenodd" clip-rule="evenodd" d="M12 1.25C6.10068 1.25 1.2522 5.80367 1.2522 11.5004C1.2522 14.2501 2.38351 16.6493 4.16893 18.5083L3.28136 21.7834L3.28087 21.7853C3.11452 22.4053 3.74109 22.934 4.32195 22.6775L4.32598 22.6757L8.01227 21.022C9.24674 21.4927 10.5929 21.7508 12 21.7508C17.8993 21.7508 22.7478 17.1972 22.7478 11.5004C22.7478 5.80367 17.8993 1.25 12 1.25ZM2.7522 11.5004C2.7522 6.70331 6.85606 2.75 12 2.75C17.1439 2.75 21.2478 6.70331 21.2478 11.5004C21.2478 16.2976 17.1439 20.2508 12 20.2508C10.6757 20.2508 9.41882 19.9878 8.28293 19.5153L7.98364 19.3908L5.13791 20.6674L5.84605 18.0544L5.52727 17.7465C3.80892 16.0869 2.7522 13.945 2.7522 11.5004Z" fill="currentColor"/>
  </symbol>
</svg>
