<svg xmlns="http://www.w3.org/2000/svg" style="display: none;">
    <symbol id="chat-bubble" viewBox="0 0 24 24">
        <path d="M9.00433 11H6.99536V13H9.00433V11Z" fill="currentColor"/>
        <path d="M12.9999 11H10.9909V13H12.9999V11Z" fill="currentColor"/>
        <path d="M16.9954 11H14.9864V13H16.9954V11Z" fill="currentColor"/>
        <path fill-rule="evenodd" clip-rule="evenodd"
              d="M12 1.25C6.10068 1.25 1.2522 5.80367 1.2522 11.5004C1.2522 14.2501 2.38351 16.6493 4.16893 18.5083L3.28136 21.7834L3.28087 21.7853C3.11452 22.4053 3.74109 22.934 4.32195 22.6775L4.32598 22.6757L8.01227 21.022C9.24674 21.4927 10.5929 21.7508 12 21.7508C17.8993 21.7508 22.7478 17.1972 22.7478 11.5004C22.7478 5.80367 17.8993 1.25 12 1.25ZM2.7522 11.5004C2.7522 6.70331 6.85606 2.75 12 2.75C17.1439 2.75 21.2478 6.70331 21.2478 11.5004C21.2478 16.2976 17.1439 20.2508 12 20.2508C10.6757 20.2508 9.41882 19.9878 8.28293 19.5153L7.98364 19.3908L5.13791 20.6674L5.84605 18.0544L5.52727 17.7465C3.80892 16.0869 2.7522 13.945 2.7522 11.5004Z"
              fill="currentColor"/>
    </symbol>

    <symbol id="message-multiple" viewBox="0 0 24 24">
        <path d="M2.75572 10.3721C2.67506 8.16892 3.82846 6.21211 5.51843 4.81037C7.21887 3.39994 9.35454 2.64423 11.05 2.76018C11.9385 2.82094 12.8149 2.98182 13.6797 3.19064C14.7797 3.51647 16.6649 4.60069 17.7603 6.12395C18.6923 7.42004 19.0162 8.74543 19.0911 9.14216L20.5651 8.86401C20.4666 8.34186 20.0827 6.78423 18.9781 5.2482C17.6529 3.40536 15.4516 2.14469 14.0834 1.74586C14.0069 1.72679 13.9314 1.70778 13.8565 1.68894C12.9854 1.46987 12.2042 1.27339 11.127 1.26199C8.3978 1.23312 6.48237 2.06199 4.5608 3.65584C2.62442 5.26196 1.15931 7.62561 1.25623 10.4132C1.25813 12.2248 1.64052 13.5796 2.21557 14.6627C2.69647 15.5686 3.29898 16.2569 3.85453 16.8334L3.05434 19.7384C2.88103 20.3679 3.51935 20.8887 4.09405 20.6353L7.40539 19.1733C7.87458 19.3317 8.33732 19.4723 8.80721 19.586L9.16016 18.1281C8.54146 17.9784 7.93959 17.7727 7.33931 17.5628L4.9146 18.6333L5.53027 16.3982L5.2255 16.0898C4.6004 15.4573 3.9989 14.8229 3.54044 13.9594C3.0881 13.1073 2.75622 11.9931 2.75622 10.3996V10.3859L2.75572 10.3721Z"
              fill="currentColor"/>
        <path fill-rule="evenodd" clip-rule="evenodd"
              d="M22.2646 18.4346C23.8127 15.061 21.4542 11.3919 18.3526 10.5041C16.8345 10.0007 15.1435 10.203 13.7239 10.8708C12.2987 11.5412 11.0662 12.7196 10.5459 14.2602C9.54063 17.2366 11.4209 20.8545 14.6395 21.8814C15.9617 22.3032 17.5347 22.1569 18.1927 21.9491C18.431 22.0161 18.7158 22.1372 19.0197 22.2664C19.7954 22.5963 20.6952 22.979 21.2615 22.6468C21.5475 22.479 21.6604 22.1705 21.6471 21.8546C21.6294 21.4301 21.573 21.0054 21.5167 20.5813C21.4805 20.3088 21.4443 20.0367 21.4185 19.7651C21.7475 19.356 22.0453 18.9123 22.2646 18.4346ZM11.9671 14.7402C12.3308 13.6633 13.226 12.7627 14.3623 12.2282C15.4988 11.6936 16.7959 11.564 17.8928 11.932L17.9099 11.9377L17.9273 11.9426C20.3341 12.6228 21.9859 15.4235 20.9068 17.7968C20.633 18.3376 20.2858 18.8072 19.8659 19.2409C19.9138 19.791 19.9655 20.3406 20.03 20.889C19.7776 20.8166 19.5238 20.7496 19.2701 20.6826C18.8945 20.5833 18.5189 20.4841 18.148 20.3677L17.9034 20.4622C16.9745 20.8209 15.9738 20.7129 15.0414 20.436C12.3639 19.7416 11.2065 16.9918 11.9671 14.7402Z"
              fill="currentColor"/>
    </symbol>
    <symbol id="inbox" viewBox="0 0 22 22">
        <path fill-rule="evenodd" clip-rule="evenodd"
              d="M10.9428 0.75H11.0572C13.2479 0.749987 14.9685 0.749976 16.312 0.930593C17.6886 1.11568 18.7809 1.50271 19.6391 2.3609C20.4973 3.2191 20.8843 4.31138 21.0694 5.68803C21.25 7.03144 21.25 8.7521 21.25 10.9428V11.0572C21.25 13.2478 21.25 14.9685 21.0694 16.312C20.8843 17.6886 20.4973 18.7809 19.6392 19.6391C18.7809 20.4973 17.6886 20.8843 16.312 21.0694C14.9685 21.25 13.2479 21.25 11.0572 21.25H10.9428C8.75214 21.25 7.03144 21.25 5.68803 21.0694C4.31138 20.8843 3.21912 20.4973 2.36092 19.6391C1.50273 18.7809 1.11568 17.6886 0.930593 16.312C0.749976 14.9685 0.749987 13.2479 0.75 11.0572V10.9428C0.749987 8.75212 0.749976 7.03144 0.930594 5.68803C1.11568 4.31137 1.50271 3.21911 2.36091 2.36091C3.21911 1.50272 4.31137 1.11568 5.68803 0.930594C7.03144 0.749976 8.75212 0.749987 10.9428 0.75ZM5.8879 2.41722C4.67758 2.57994 3.95462 2.88853 3.42157 3.42157C2.88853 3.95462 2.57994 4.67758 2.41722 5.8879C2.25159 7.1198 2.25 8.73963 2.25 11C2.25 11.2582 2.25002 11.5081 2.25031 11.75H5.75675C7.10297 11.75 8.34789 12.465 9.02621 13.6279C9.90797 15.1395 12.092 15.1395 12.9738 13.6279C13.6521 12.465 14.897 11.75 16.2433 11.75H19.7497C19.75 11.5081 19.75 11.2582 19.75 11C19.75 8.73963 19.7484 7.1198 19.5828 5.88789C19.4201 4.67758 19.1115 3.95461 18.5785 3.42156C18.0454 2.88852 17.3224 2.57994 16.1121 2.41722C14.8802 2.25159 13.2604 2.25 11 2.25C8.73963 2.25 7.1198 2.25159 5.8879 2.41722ZM19.7412 13.25H16.2433C15.4305 13.25 14.679 13.6817 14.2695 14.3837C12.8089 16.8875 9.19111 16.8875 7.73054 14.3837C7.32103 13.6817 6.56947 13.25 5.75675 13.25H2.25877C2.27344 14.4012 2.31261 15.334 2.41722 16.1121C2.57994 17.3224 2.88854 18.0454 3.42158 18.5785C3.95463 19.1115 4.67758 19.4201 5.88789 19.5828C7.1198 19.7484 8.73963 19.75 11 19.75C13.2604 19.75 14.8802 19.7484 16.1121 19.5828C17.3224 19.4201 18.0454 19.1115 18.5785 18.5785C19.1115 18.0454 19.4201 17.3224 19.5828 16.1121C19.6874 15.334 19.7266 14.4012 19.7412 13.25Z"
        />
    </symbol>
  <symbol id="all" viewBox="0 0 20 20" fill="none">
        <path d="M9.99998 15.0001C9.89651 15 9.79468 14.9743 9.70367 14.9251L2.12886 10.8463C1.82502 10.6827 1.71137 10.3037 1.87505 9.99992C2.03867 9.69621 2.41749 9.58261 2.72124 9.74616L9.99998 13.6652L17.2785 9.7463C17.5823 9.58268 17.9613 9.69637 18.125 10.0002C18.2886 10.3041 18.1749 10.6832 17.871 10.8468L10.2963 14.9255C10.2052 14.9746 10.1034 15.0002 9.99998 15.0001Z" fill="currentColor"/>
        <path d="M9.99998 18.7501C9.89651 18.75 9.79468 18.7243 9.70367 18.6751L2.12886 14.5963C1.82502 14.4327 1.71137 14.0537 1.87505 13.7499C2.03867 13.4462 2.41749 13.3326 2.72124 13.4962L9.99998 17.4152L17.2785 13.4963C17.5823 13.3327 17.9613 13.4464 18.125 13.7502C18.2886 14.0541 18.1749 14.4332 17.871 14.5968L10.2963 18.6755C10.2052 18.7246 10.1034 18.7502 9.99998 18.7501Z" fill="currentColor"/>
        <path d="M9.99998 11.2501C9.89651 11.25 9.79468 11.2243 9.70367 11.1751L1.57867 6.80005C1.47934 6.74654 1.39635 6.66713 1.33851 6.57026C1.28066 6.47338 1.25012 6.36266 1.25012 6.24983C1.25012 6.13701 1.28066 6.02628 1.33851 5.92941C1.39635 5.83254 1.47934 5.75313 1.57867 5.69961L9.70367 1.32461C9.7947 1.27548 9.89653 1.24976 9.99998 1.24976C10.1034 1.24976 10.2053 1.27548 10.2963 1.32461L18.4213 5.69961C18.5206 5.75313 18.6036 5.83254 18.6615 5.92941C18.7193 6.02628 18.7498 6.13701 18.7498 6.24983C18.7498 6.36266 18.7193 6.47338 18.6615 6.57026C18.6036 6.66713 18.5206 6.74654 18.4213 6.80005L10.2963 11.1751C10.2053 11.2243 10.1034 11.25 9.99998 11.2501ZM3.19336 6.25005L9.99998 9.91524L16.8066 6.25005L9.99998 2.58493L3.19336 6.25005Z" fill="currentColor"/>
  </symbol>
</svg>
