<svg xmlns="http://www.w3.org/2000/svg" style="display: none;">
  <symbol id="inbox" viewBox="0 0 32 32">
    <path fill-rule="evenodd" clip-rule="evenodd" d="M9.2 8.39976C9.38885 8.14795 9.68524 7.99976 10 7.99976H22C22.3148 7.99976 22.6111 8.14795 22.8 8.39976L27 13.9998H19C18.4477 13.9998 18 14.4475 18 14.9998C18 15.2624 17.9483 15.5225 17.8478 15.7651C17.7472 16.0078 17.5999 16.2283 17.4142 16.414C17.2285 16.5997 17.008 16.747 16.7654 16.8475C16.5227 16.948 16.2626 16.9998 16 16.9998C15.7374 16.9998 15.4773 16.948 15.2346 16.8475C14.992 16.747 14.7715 16.5997 14.5858 16.414C14.4001 16.2283 14.2528 16.0078 14.1522 15.7651C14.0517 15.5225 14 15.2624 14 14.9998C14 14.4475 13.5523 13.9998 13 13.9998H5L9.2 8.39976ZM12.127 15.9998H4V21.9998C4 23.1043 4.89543 23.9998 6 23.9998H26C27.1046 23.9998 28 23.1043 28 21.9998V15.9998H19.873C19.8264 16.1802 19.7672 16.3576 19.6955 16.5305C19.4945 17.0158 19.1999 17.4567 18.8284 17.8282C18.457 18.1996 18.016 18.4943 17.5307 18.6953C17.0454 18.8963 16.5253 18.9998 16 18.9998C15.4747 18.9998 14.9546 18.8963 14.4693 18.6953C13.984 18.4943 13.543 18.1996 13.1716 17.8282C12.8001 17.4567 12.5055 17.0158 12.3045 16.5305C12.2329 16.3576 12.1736 16.1802 12.127 15.9998ZM10 5.99976C9.05573 5.99976 8.16656 6.44434 7.6 7.19976L2.2 14.3998C2.07018 14.5729 2 14.7834 2 14.9998V21.9998C2 24.2089 3.79086 25.9998 6 25.9998H26C28.2091 25.9998 30 24.2089 30 21.9998V14.9998C30 14.7834 29.9298 14.5729 29.8 14.3998L24.4 7.19976C23.8334 6.44434 22.9443 5.99976 22 5.99976H10Z" />
  </symbol>
  <symbol id="new-mail" viewBox="0 0 24 24">
    <path d="M22,12.2c-0.4,0-0.8,0.3-0.8,0.8v2c0,4.6-1.6,6.2-6.2,6.2H9c-4.6,0-6.2-1.6-6.2-6.2V9c0-4.6,1.6-6.2,6.2-6.2h2 c0.4,0,0.8-0.3,0.8-0.8S11.4,1.2,11,1.2H9C3.6,1.2,1.2,3.6,1.2,9v6c0,5.4,2.3,7.8,7.8,7.8h6c5.4,0,7.8-2.3,7.8-7.8v-2 C22.8,12.6,22.4,12.2,22,12.2z" />
    <path d="M14.4,3.6l-6.8,6.8c-0.4,0.4-0.8,1.2-0.9,1.7l-0.4,3c-0.1,0.8,0.1,1.5,0.6,2c0.4,0.4,1,0.6,1.6,0.6c0.1,0,0.2,0,0.4,0 l3-0.4c0.6-0.1,1.3-0.5,1.7-0.9l7.9-7.9c0.9-0.9,1.4-1.8,1.5-2.7c0.1-1.1-0.4-2.2-1.5-3.3c-2-2-4-2-6,0L14.4,3.6 C14.4,3.6,14.4,3.6,14.4,3.6z M12.6,15.3c-0.2,0.2-0.6,0.4-0.9,0.5l-3,0.4c-0.3,0-0.5,0-0.7-0.2c-0.2-0.1-0.2-0.4-0.2-0.7l0.4-3 c0-0.3,0.3-0.7,0.4-0.9l5.9-5.9c0.8,1.7,2.2,3.1,3.9,3.9L12.6,15.3z M20.4,3.5c0.8,0.8,1.1,1.5,1,2.1c0,0.5-0.4,1.1-1,1.8l-0.8,0.8 c-1.8-0.6-3.2-2.1-3.9-3.9l0.8-0.8C17.7,2.4,18.8,1.9,20.4,3.5z" />
  </symbol>
  <symbol id="done" viewBox="0 0 20 20" fill="none">
    <path d="M10 1.24988C8.26942 1.24988 6.57769 1.76306 5.13876 2.72452C3.69983 3.68598 2.57832 5.05254 1.91606 6.6514C1.25379 8.25025 1.08051 10.0096 1.41813 11.7069C1.75575 13.4043 2.58911 14.9634 3.81282 16.1871C5.03653 17.4108 6.59563 18.2441 8.29296 18.5817C9.9903 18.9194 11.7496 18.7461 13.3485 18.0838C14.9473 17.4216 16.3139 16.3 17.2754 14.8611C18.2368 13.4222 18.75 11.7305 18.75 9.99988C18.75 7.67923 17.8281 5.45364 16.1872 3.81269C14.5462 2.17175 12.3206 1.24988 10 1.24988ZM10 17.4999C8.51664 17.4999 7.0666 17.06 5.83323 16.2359C4.59986 15.4118 3.63856 14.2404 3.07091 12.87C2.50325 11.4996 2.35473 9.99156 2.64411 8.5367C2.9335 7.08184 3.64781 5.74547 4.6967 4.69658C5.7456 3.64768 7.08197 2.93338 8.53683 2.64399C9.99168 2.3546 11.4997 2.50312 12.8701 3.07078C14.2406 3.63844 15.4119 4.59973 16.236 5.8331C17.0601 7.06647 17.5 8.51652 17.5 9.99988C17.5 11.989 16.7098 13.8967 15.3033 15.3032C13.8968 16.7097 11.9891 17.4999 10 17.4999Z" fill="currentColor"/>
    <path fill-rule="evenodd" clip-rule="evenodd" d="M14.1919 7.05809C14.436 7.30217 14.436 7.6979 14.1919 7.94197L9.19194 12.942C8.94786 13.1861 8.55214 13.1861 8.30806 12.942L5.80806 10.442C5.56398 10.1979 5.56398 9.80217 5.80806 9.55809C6.05214 9.31401 6.44786 9.31401 6.69194 9.55809L8.75 11.6161L13.3081 7.05809C13.5521 6.81401 13.9479 6.81401 14.1919 7.05809Z" fill="currentColor"/>
  </symbol>
  <symbol id="sent" viewBox="0 0 12 12">
    <path d="M10.1,2.9c0.1-0.4-0.3-0.8-0.7-0.6L1.7,5.6c-0.3,0.1-0.3,0.5,0,0.6l1.6,0.5c0.3,0.1,0.6,0,0.9-0.1l3.6-2.5 C7.9,4.1,8,4.3,7.9,4.4L5.3,7C5.1,7.3,5.1,7.7,5.4,7.9l2.9,1.8c0.3,0.2,0.7,0,0.8-0.4L10.1,2.9z"/>
  </symbol>
</svg>
