<svg xmlns="http://www.w3.org/2000/svg" style="display: none;">
  <symbol id="new-mail" viewBox="0 0 24 24">
    <path d="M22,12.2c-0.4,0-0.8,0.3-0.8,0.8v2c0,4.6-1.6,6.2-6.2,6.2H9c-4.6,0-6.2-1.6-6.2-6.2V9c0-4.6,1.6-6.2,6.2-6.2h2 c0.4,0,0.8-0.3,0.8-0.8S11.4,1.2,11,1.2H9C3.6,1.2,1.2,3.6,1.2,9v6c0,5.4,2.3,7.8,7.8,7.8h6c5.4,0,7.8-2.3,7.8-7.8v-2 C22.8,12.6,22.4,12.2,22,12.2z" />
    <path d="M14.4,3.6l-6.8,6.8c-0.4,0.4-0.8,1.2-0.9,1.7l-0.4,3c-0.1,0.8,0.1,1.5,0.6,2c0.4,0.4,1,0.6,1.6,0.6c0.1,0,0.2,0,0.4,0 l3-0.4c0.6-0.1,1.3-0.5,1.7-0.9l7.9-7.9c0.9-0.9,1.4-1.8,1.5-2.7c0.1-1.1-0.4-2.2-1.5-3.3c-2-2-4-2-6,0L14.4,3.6 C14.4,3.6,14.4,3.6,14.4,3.6z M12.6,15.3c-0.2,0.2-0.6,0.4-0.9,0.5l-3,0.4c-0.3,0-0.5,0-0.7-0.2c-0.2-0.1-0.2-0.4-0.2-0.7l0.4-3 c0-0.3,0.3-0.7,0.4-0.9l5.9-5.9c0.8,1.7,2.2,3.1,3.9,3.9L12.6,15.3z M20.4,3.5c0.8,0.8,1.1,1.5,1,2.1c0,0.5-0.4,1.1-1,1.8l-0.8,0.8 c-1.8-0.6-3.2-2.1-3.9-3.9l0.8-0.8C17.7,2.4,18.8,1.9,20.4,3.5z" />
  </symbol>
</svg>
