<svg xmlns="http://www.w3.org/2000/svg" style="display: none;">
  <symbol id="mail" viewBox="0 0 12 12" style="fill-rule:evenodd;clip-rule:evenodd;">
    <path d="M2.2,3.1C1.9,3.4,1.9,3.9,1.9,4.8v2.4c0,0.9,0,1.4,0.3,1.7c0.3,0.3,0.8,0.3,1.7,0.3h4.2c0.9,0,1.4,0,1.7-0.3 c0.3-0.3,0.3-0.8,0.3-1.7V4.8c0-0.9,0-1.4-0.3-1.7C9.5,2.8,9.1,2.8,8.1,2.8H3.9C2.9,2.8,2.5,2.8,2.2,3.1z M3.5,4.3 C3.3,4.1,3,4.2,2.8,4.4C2.7,4.6,2.7,4.9,3,5.1l2.2,1.5c0.5,0.3,1.2,0.3,1.7,0L9,5.1c0.2-0.2,0.3-0.5,0.1-0.7C9,4.2,8.7,4.1,8.5,4.3 L6.3,5.7c-0.2,0.1-0.4,0.1-0.6,0L3.5,4.3z"/>
  </symbol>
</svg>
