<svg xmlns="http://www.w3.org/2000/svg" style="display: none;">
  <!-- tightened viewBox to ensure all corners remain inside; removed per-element transform scaling -->
  <symbol id="rating" viewBox="0 0 88 88">
    <!-- Outlined rating icon matching office stroke style -->
    <path
      d="M45 0.24 L58.916 24.19 c0.092 0.185 0.268 0.313 0.472 0.343 l24.357 3.539 c1.279 0.186 2.322 1.065 2.721 2.294 c0.4 1.23 0.073 2.554 -0.853 3.456 l-17.624 17.18 c-0.148 0.144 -0.215 0.351 -0.181 0.554 l4.161 24.258 c0.218 1.274 -0.295 2.538 -1.341 3.297 c-1.045 0.76 -2.405 0.858 -3.552 0.258 L45.291 67.916 C45.1 67.822 44.9 67.822 44.709 67.916 L22.923 79.371 c-1.147 0.6 -2.507 0.502 -3.552 -0.258 c-1.046 -0.759 -1.559 -2.023 -1.341 -3.297 l4.161 -24.258 c0.034 -0.203 -0.033 -0.41 -0.181 -0.554 L4.387 33.824 c-0.926 -0.902 -1.253 -2.226 -0.853 -3.456 c0.399 -1.229 1.442 -2.108 2.721 -2.294 l24.357 -3.539 c0.204 -0.03 0.38 -0.158 0.472 -0.343 L41.977 2.119 C42.549 0.96 43.707 0.24 45 0.24 z"
      stroke="currentColor" stroke-width="3.5625" stroke-linecap="round" stroke-linejoin="round" stroke-miterlimit="10"
      fill="none" opacity="1" />
  </symbol>

  <symbol id="star-yellow" viewBox="0 0 88 88">
    <g fill="none" fill-rule="nonzero" opacity="1">
      <path
        d="M 45 0.24 C 45 0.24 45 0.24 45 0.24 c -1.293 0 -2.451 0.72 -3.023 1.879 L 31.084 24.19 c -0.092 0.185 -0.268 0.313 -0.472 0.343 L 6.255 28.073 c -1.279 0.186 -2.322 1.065 -2.721 2.294 c -0.4 1.23 -0.073 2.554 0.853 3.456 l 17.624 17.18 c 0.148 0.144 0.215 0.351 0.181 0.554 l -4.161 24.258 c -0.218 1.274 0.295 2.538 1.341 3.297 c 1.045 0.76 2.405 0.858 3.552 0.258 l 21.786 -11.455 C 44.8 67.869 44.9 67.845 45 67.845 C 51.218 48.239 49.905 25.085 45 0.24 z"
        fill="rgb(255,200,80)" stroke="none" stroke-width="1" stroke-linecap="butt" stroke-linejoin="miter"
        stroke-miterlimit="10" opacity="1" />
      <path
        d="M 45 0.24 C 45 0.24 45 0.24 45 0.24 c 1.293 0 2.451 0.72 3.023 1.879 L 58.916 24.19 c 0.092 0.185 0.268 0.313 0.472 0.343 l 24.357 3.539 c 1.279 0.186 2.322 1.065 2.721 2.294 c 0.4 1.23 0.073 2.554 -0.853 3.456 l -17.624 17.18 c -0.148 0.144 -0.215 0.351 -0.181 0.554 l 4.161 24.258 c 0.218 1.274 -0.295 2.538 -1.341 3.297 c -1.045 0.76 -2.405 0.858 -3.552 0.258 L 45.291 67.916 C 45.2 67.869 45.1 67.845 45 67.845 C 37.673 48.876 39.309 25.564 45 0.24 z"
        fill="rgb(255,220,100)" stroke="none" stroke-width="1" stroke-linecap="butt" stroke-linejoin="miter"
        stroke-miterlimit="10" opacity="1" />
    </g>
  </symbol>

  <symbol id="star-green" viewBox="0 0 88 88">
    <g fill="none" fill-rule="nonzero" opacity="1">
      <path
        d="M 45 0.24 C 45 0.24 45 0.24 45 0.24 c -1.293 0 -2.451 0.72 -3.023 1.879 L 31.084 24.19 c -0.092 0.185 -0.268 0.313 -0.472 0.343 L 6.255 28.073 c -1.279 0.186 -2.322 1.065 -2.721 2.294 c -0.4 1.23 -0.073 2.554 0.853 3.456 l 17.624 17.18 c 0.148 0.144 0.215 0.351 0.181 0.554 l -4.161 24.258 c -0.218 1.274 0.295 2.538 1.341 3.297 c 1.045 0.76 2.405 0.858 3.552 0.258 l 21.786 -11.455 C 44.8 67.869 44.9 67.845 45 67.845 C 51.218 48.239 49.905 25.085 45 0.24 z"
        fill="rgb(80,200,120)" stroke="none" stroke-width="1" stroke-linecap="butt" stroke-linejoin="miter"
        stroke-miterlimit="10" opacity="1" />
      <path
        d="M 45 0.24 C 45 0.24 45 0.24 45 0.24 c 1.293 0 2.451 0.72 3.023 1.879 L 58.916 24.19 c 0.092 0.185 0.268 0.313 0.472 0.343 l 24.357 3.539 c 1.279 0.186 2.322 1.065 2.721 2.294 c 0.4 1.23 0.073 2.554 -0.853 3.456 l -17.624 17.18 c -0.148 0.144 -0.215 0.351 -0.181 0.554 l 4.161 24.258 c 0.218 1.274 -0.295 2.538 -1.341 3.297 c -1.045 0.76 -2.405 0.858 -3.552 0.258 L 45.291 67.916 C 45.2 67.869 45.1 67.845 45 67.845 C 37.673 48.876 39.309 25.564 45 0.24 z"
        fill="rgb(100,220,140)" stroke="none" stroke-width="1" stroke-linecap="butt" stroke-linejoin="miter"
        stroke-miterlimit="10" opacity="1" />
    </g>
  </symbol>

  <symbol id="star-red" viewBox="0 0 88 88">
    <g fill="none" fill-rule="nonzero" opacity="1">
      <path
        d="M 45 0.24 C 45 0.24 45 0.24 45 0.24 c -1.293 0 -2.451 0.72 -3.023 1.879 L 31.084 24.19 c -0.092 0.185 -0.268 0.313 -0.472 0.343 L 6.255 28.073 c -1.279 0.186 -2.322 1.065 -2.721 2.294 c -0.4 1.23 -0.073 2.554 0.853 3.456 l 17.624 17.18 c 0.148 0.144 0.215 0.351 0.181 0.554 l -4.161 24.258 c -0.218 1.274 0.295 2.538 1.341 3.297 c 1.045 0.76 2.405 0.858 3.552 0.258 l 21.786 -11.455 C 44.8 67.869 44.9 67.845 45 67.845 C 51.218 48.239 49.905 25.085 45 0.24 z"
        fill="rgb(220,80,80)" stroke="none" stroke-width="1" stroke-linecap="butt" stroke-linejoin="miter"
        stroke-miterlimit="10" opacity="1" />
      <path
        d="M 45 0.24 C 45 0.24 45 0.24 45 0.24 c 1.293 0 2.451 0.72 3.023 1.879 L 58.916 24.19 c 0.092 0.185 0.268 0.313 0.472 0.343 l 24.357 3.539 c 1.279 0.186 2.322 1.065 2.721 2.294 c 0.4 1.23 0.073 2.554 -0.853 3.456 l -17.624 17.18 c -0.148 0.144 -0.215 0.351 -0.181 0.554 l 4.161 24.258 c 0.218 1.274 -0.295 2.538 -1.341 3.297 c -1.045 0.76 -2.405 0.858 -3.552 0.258 L 45.291 67.916 C 45.2 67.869 45.1 67.845 45 67.845 C 37.673 48.876 39.309 25.564 45 0.24 z"
        fill="rgb(255,100,100)" stroke="none" stroke-width="1" stroke-linecap="butt" stroke-linejoin="miter"
        stroke-miterlimit="10" opacity="1" />
    </g>
  </symbol>

  <symbol id="star-blue" viewBox="0 0 88 88">
    <g fill="none" fill-rule="nonzero" opacity="1">
      <path
        d="M 45 0.24 C 45 0.24 45 0.24 45 0.24 c -1.293 0 -2.451 0.72 -3.023 1.879 L 31.084 24.19 c -0.092 0.185 -0.268 0.313 -0.472 0.343 L 6.255 28.073 c -1.279 0.186 -2.322 1.065 -2.721 2.294 c -0.4 1.23 -0.073 2.554 0.853 3.456 l 17.624 17.18 c 0.148 0.144 0.215 0.351 0.181 0.554 l -4.161 24.258 c -0.218 1.274 0.295 2.538 1.341 3.297 c 1.045 0.76 2.405 0.858 3.552 0.258 l 21.786 -11.455 C 44.8 67.869 44.9 67.845 45 67.845 C 51.218 48.239 49.905 25.085 45 0.24 z"
        fill="rgb(80,150,220)" stroke="none" stroke-width="1" stroke-linecap="butt" stroke-linejoin="miter"
        stroke-miterlimit="10" opacity="1" />
      <path
        d="M 45 0.24 C 45 0.24 45 0.24 45 0.24 c 1.293 0 2.451 0.72 3.023 1.879 L 58.916 24.19 c 0.092 0.185 0.268 0.313 0.472 0.343 l 24.357 3.539 c 1.279 0.186 2.322 1.065 2.721 2.294 c 0.4 1.23 0.073 2.554 -0.853 3.456 l -17.624 17.18 c -0.148 0.144 -0.215 0.351 -0.181 0.554 l 4.161 24.258 c 0.218 1.274 -0.295 2.538 -1.341 3.297 c -1.045 0.76 -2.405 0.858 -3.552 0.258 L 45.291 67.916 C 45.2 67.869 45.1 67.845 45 67.845 C 37.673 48.876 39.309 25.564 45 0.24 z"
        fill="rgb(100,180,255)" stroke="none" stroke-width="1" stroke-linecap="butt" stroke-linejoin="miter"
        stroke-miterlimit="10" opacity="1" />
    </g>
  </symbol>
</svg>