<svg xmlns="http://www.w3.org/2000/svg" xmlns:lucid="lucid" xmlns:xlink="http://www.w3.org/1999/xlink" viewBox="0 0 1180 1200"><g lucid:page-tab-id="0_0" transform="translate(-220 -100)"><path fill="#fff" d="M0 0h1760v1360H0z"/><path fill="#ffeca9" fill-opacity=".4" d="M240 130c0-6 4-10 10-10h1120c6 0 10 4 10 10v1140c0 6-4 10-10 10H250c-6 0-10-4-10-10z"/><use xlink:href="#a" transform="translate(770 700)"/><path fill="#c7e8ac" d="M420 1006c0-3 3-6 6-6h628c3 0 6 3 6 6v228c0 3-3 6-6 6H426c-3 0-6-3-6-6zm0-440c0-3 3-6 6-6h628c3 0 6 3 6 6v408c0 3-3 6-6 6H426c-3 0-6-3-6-6z"/><path fill="#d1bcd2" d="M420 166c0-3 3-6 6-6h628c3 0 6 3 6 6v308c0 3-3 6-6 6H426c-3 0-6-3-6-6z"/><use xlink:href="#a" transform="translate(700 324)"/><path fill="#e5e5e5" d="M440 186c0-3 3-6 6-6h588c3 0 6 3 6 6v208c0 3-3 6-6 6H446c-3 0-6-3-6-6z"/><use xlink:href="#b" transform="translate(445 199)"/><use xlink:href="#c" transform="translate(861 199)"/><use xlink:href="#d" transform="translate(445 217)"/><use xlink:href="#e" transform="translate(466 217)"/><use xlink:href="#f" transform="translate(530 217)"/><use xlink:href="#g" transform="translate(637 217)"/><use xlink:href="#h" transform="translate(445 235)"/><use xlink:href="#i" transform="translate(541 235)"/><use xlink:href="#j" transform="translate(605 235)"/><use xlink:href="#k" transform="translate(658 235)"/><use xlink:href="#c" transform="translate(690 235)"/><use xlink:href="#l" transform="translate(445 253)"/><use xlink:href="#m" transform="translate(488 253)"/><use xlink:href="#n" transform="translate(765 253)"/><use xlink:href="#d" transform="translate(445 270)"/><use xlink:href="#o" transform="translate(466 270)"/><use xlink:href="#d" transform="translate(445 288)"/><use xlink:href="#p" transform="translate(466 288)"/><use xlink:href="#f" transform="translate(509 288)"/><use xlink:href="#g" transform="translate(616 288)"/><use xlink:href="#q" transform="translate(445 306)"/><use xlink:href="#r" transform="translate(520 306)"/><use xlink:href="#s" transform="translate(552 306)"/><use xlink:href="#t" transform="translate(616 306)"/><use xlink:href="#u" transform="translate(690 306)"/><use xlink:href="#j" transform="translate(754 306)"/><use xlink:href="#k" transform="translate(808 306)"/><use xlink:href="#v" transform="translate(840 306)"/><use xlink:href="#k" transform="translate(904 306)"/><use xlink:href="#c" transform="translate(936 306)"/><use xlink:href="#l" transform="translate(445 324)"/><use xlink:href="#w" transform="translate(488 324)"/><use xlink:href="#x" transform="translate(744 324)"/><use xlink:href="#d" transform="translate(445 341)"/><use xlink:href="#y" transform="translate(466 341)"/><use xlink:href="#z" transform="translate(445 359)"/><path fill="none" d="M640 426c0-3 3-6 6-6h228c3 0 6 3 6 6v48c0 3-3 6-6 6H646c-3 0-6-3-6-6z"/><use xlink:href="#A" transform="translate(702 456)"/><path fill="#e5e5e5" d="M440 586c0-3 3-6 6-6h588c3 0 6 3 6 6v318c0 3-3 6-6 6H446c-3 0-6-3-6-6z"/><use xlink:href="#B" transform="translate(445 599)"/><use xlink:href="#C" transform="translate(520 599)"/><use xlink:href="#D" transform="translate(584 599)"/><use xlink:href="#E" transform="translate(669 599)"/><use xlink:href="#F" transform="translate(690 599)"/><use xlink:href="#G" transform="translate(445 617)"/><use xlink:href="#G" transform="translate(445 635)"/><use xlink:href="#H" transform="translate(445 653)"/><use xlink:href="#I" transform="translate(530 653)"/><use xlink:href="#c" transform="translate(605 653)"/><use xlink:href="#d" transform="translate(445 670)"/><use xlink:href="#J" transform="translate(466 670)"/><use xlink:href="#K" transform="translate(573 670)"/><use xlink:href="#c" transform="translate(648 670)"/><use xlink:href="#l" transform="translate(445 688)"/><use xlink:href="#L" transform="translate(488 688)"/><use xlink:href="#c" transform="translate(541 688)"/><use xlink:href="#M" transform="translate(445 706)"/><use xlink:href="#N" transform="translate(509 706)"/><use xlink:href="#O" transform="translate(658 706)"/><use xlink:href="#i" transform="translate(744 706)"/><use xlink:href="#P" transform="translate(808 706)"/><use xlink:href="#M" transform="translate(445 724)"/><use xlink:href="#Q" transform="translate(509 724)"/><use xlink:href="#g" transform="translate(637 724)"/><use xlink:href="#h" transform="translate(445 741)"/><use xlink:href="#r" transform="translate(541 741)"/><use xlink:href="#R" transform="translate(573 741)"/><use xlink:href="#t" transform="translate(616 741)"/><use xlink:href="#i" transform="translate(690 741)"/><use xlink:href="#j" transform="translate(754 741)"/><use xlink:href="#k" transform="translate(808 741)"/><use xlink:href="#S" transform="translate(840 741)"/><use xlink:href="#T" transform="translate(914 741)"/><use xlink:href="#l" transform="translate(445 759)"/><use xlink:href="#y" transform="translate(488 759)"/><use xlink:href="#d" transform="translate(445 777)"/><use xlink:href="#y" transform="translate(466 777)"/><use xlink:href="#U" transform="translate(445 795)"/><use xlink:href="#G" transform="translate(445 813)"/><use xlink:href="#V" transform="translate(445 830)"/><use xlink:href="#W" transform="translate(445 848)"/><use xlink:href="#R" transform="translate(594 848)"/><use xlink:href="#t" transform="translate(637 848)"/><use xlink:href="#X" transform="translate(712 848)"/><use xlink:href="#j" transform="translate(786 848)"/><use xlink:href="#k" transform="translate(840 848)"/><use xlink:href="#c" transform="translate(872 848)"/><use xlink:href="#d" transform="translate(445 866)"/><use xlink:href="#Y" transform="translate(466 866)"/><use xlink:href="#U" transform="translate(445 884)"/><use xlink:href="#Z" transform="translate(445 901)"/><path fill="none" d="M640 926c0-3 3-6 6-6h228c3 0 6 3 6 6v48c0 3-3 6-6 6H646c-3 0-6-3-6-6z"/><use xlink:href="#aa" transform="translate(716 956)"/><path fill="none" d="M980 646c0-3 3-6 6-6h368c3 0 6 3 6 6v148c0 3-3 6-6 6H986c-3 0-6-3-6-6z"/><path fill="none" stroke="#5e5e5e" stroke-width="3" d="M980 800c6 0 10-4 10-10v-60c0-6 4-10 10-10-6 0-10-4-10-10v-60c0-6-4-10-10-10"/><use xlink:href="#ab" transform="translate(1015 684)"/><use xlink:href="#ac" transform="translate(1061 684)"/><use xlink:href="#ad" transform="translate(1172 684)"/><use xlink:href="#ae" transform="translate(1286 684)"/><use xlink:href="#af" transform="translate(1015 711)"/><use xlink:href="#ag" transform="translate(1080 711)"/><use xlink:href="#ah" transform="translate(1142 711)"/><use xlink:href="#ai" transform="translate(1207 711)"/><use xlink:href="#aj" transform="translate(1237 711)"/><use xlink:href="#ak" transform="translate(1280 711)"/><use xlink:href="#al" transform="translate(1015 738)"/><use xlink:href="#am" transform="translate(1091 738)"/><use xlink:href="#an" transform="translate(1130 738)"/><use xlink:href="#ao" transform="translate(1244 738)"/><use xlink:href="#ap" transform="translate(1275 738)"/><use xlink:href="#aq" transform="translate(1015 764)"/><path fill="none" stroke="#5e5e5e" stroke-width="2" d="M1319 678V435c0-3-3-6-6-6h-234m240 249v1"/><path fill="#5e5e5e" stroke="#5e5e5e" stroke-width="2" d="m1063 429 15-5v9z"/><path fill="none" d="M980 806c0-3 3-6 6-6h298c3 0 6 3 6 6v68c0 3-3 6-6 6H986c-3 0-6-3-6-6z"/><path fill="none" stroke="#5e5e5e" stroke-width="3" d="M980 880c6 0 10-4 10-10v-20c0-6 4-10 10-10-6 0-10-4-10-10v-20c0-6-4-10-10-10"/><use xlink:href="#ar" transform="translate(1015 844)"/><use xlink:href="#as" transform="translate(1087 844)"/><use xlink:href="#at" transform="translate(1167 844)"/><path fill="#e5e5e5" d="M440 1026c0-3 3-6 6-6h588c3 0 6 3 6 6v128c0 3-3 6-6 6H446c-3 0-6-3-6-6z"/><use xlink:href="#au" transform="translate(445 1039)"/><use xlink:href="#av" transform="translate(530 1039)"/><use xlink:href="#G" transform="translate(445 1057)"/><use xlink:href="#d" transform="translate(445 1075)"/><use xlink:href="#aw" transform="translate(466 1075)"/><use xlink:href="#ax" transform="translate(562 1075)"/><use xlink:href="#c" transform="translate(722 1075)"/><use xlink:href="#l" transform="translate(445 1093)"/><use xlink:href="#ay" transform="translate(488 1093)"/><use xlink:href="#az" transform="translate(754 1093)"/><use xlink:href="#d" transform="translate(445 1110)"/><use xlink:href="#y" transform="translate(466 1110)"/><use xlink:href="#G" transform="translate(445 1128)"/><use xlink:href="#aA" transform="translate(445 1146)"/><use xlink:href="#G" transform="translate(445 1164)"/><use xlink:href="#Z" transform="translate(445 1181)"/><path fill="none" d="M640 1186c0-3 3-6 6-6h228c3 0 6 3 6 6v48c0 3-3 6-6 6H646c-3 0-6-3-6-6z"/><use xlink:href="#aB" transform="translate(698 1216)"/><path fill="none" d="M980 1046c0-3 3-6 6-6h298c3 0 6 3 6 6v68c0 3-3 6-6 6H986c-3 0-6-3-6-6z"/><path fill="none" stroke="#5e5e5e" stroke-width="3" d="M980 1120c6 0 10-4 10-10v-20c0-6 4-10 10-10-6 0-10-4-10-10v-20c0-6-4-10-10-10"/><use xlink:href="#ar" transform="translate(1015 1084)"/><use xlink:href="#as" transform="translate(1087 1084)"/><use xlink:href="#at" transform="translate(1167 1084)"/><path fill="none" d="M260 566c0-3 3-6 6-6h128c3 0 6 3 6 6v668c0 3-3 6-6 6H266c-3 0-6-3-6-6z"/><path fill="none" stroke="#5e5e5e" stroke-width="3" d="M400 1240c-6 0-10-4-10-10V910c0-6-4-10-10-10 6 0 10-4 10-10V570c0-6 4-10 10-10"/><use xlink:href="#aC" transform="translate(273 878)"/><use xlink:href="#aD" transform="translate(287 904)"/><use xlink:href="#aE" transform="translate(317 931)"/><path fill="none" d="M320 166c0-3 3-6 6-6h68c3 0 6 3 6 6v308c0 3-3 6-6 6h-68c-3 0-6-3-6-6z"/><path fill="none" stroke="#5e5e5e" stroke-width="3" d="M400 480c-6 0-10-4-10-10V330c0-6-4-10-10-10 6 0 10-4 10-10V170c0-6 4-10 10-10"/><use xlink:href="#aF" transform="translate(317 298)"/><use xlink:href="#aD" transform="translate(287 324)"/><use xlink:href="#aE" transform="translate(317 351)"/><path fill="none" d="M1080 186c0-3 3-6 6-6h268c3 0 6 3 6 6v188c0 3-3 6-6 6h-268c-3 0-6-3-6-6z"/><use xlink:href="#aG" transform="translate(1085 203)"/><use xlink:href="#aH" transform="translate(1133 203)"/><use xlink:href="#aI" transform="translate(1187 203)"/><use xlink:href="#aJ" transform="translate(1210 203)"/><use xlink:href="#aK" transform="translate(1288 203)"/><use xlink:href="#aL" transform="translate(1312 203)"/><use xlink:href="#aM" transform="translate(1085 229)"/><use xlink:href="#aN" transform="translate(1139 229)"/><use xlink:href="#aO" transform="translate(1229 229)"/><use xlink:href="#aP" transform="translate(1085 256)"/><use xlink:href="#aQ" transform="translate(1181 256)"/><use xlink:href="#aR" transform="translate(1205 256)"/><use xlink:href="#aS" transform="translate(1243 256)"/><use xlink:href="#aT" transform="translate(1085 283)"/><use xlink:href="#aU" transform="translate(1169 283)"/><use xlink:href="#aL" transform="translate(1203 283)"/><use xlink:href="#aV" transform="translate(1085 309)"/><use xlink:href="#aW" transform="translate(1278 309)"/><path fill="#c92d39" d="m311 634 1 3 1 1 3 1h21v2h-21l-4-1-2-2-1-4V529h2m44-131h-39l-3 1-1 2-1 2v105h-2V403l1-3 2-3 4-1h39m1 2h-1v-2h1m-5 245-14 4 1-10z"/><path fill="#c92d39" d="m355 641-19 5 1-12m1 9 10-2-10-4"/><use xlink:href="#aX" transform="translate(250 522)"/><path fill="none" stroke="#ef8d22" stroke-width="2" d="M520 733v31c0 3 3 6 6 6h41c4 0 6 3 6 6v14m-53-57v-1"/><path fill="#ef8d22" stroke="#ef8d22" stroke-width="2" d="m573 805-4-15h9z"/><path fill="none" stroke="#ef8d22" stroke-width="2" d="M872 703h92c3 0 6 2 6 6v374c0 4-3 6-6 6h-75m-17-386h-4"/><path fill="#ef8d22" stroke="#ef8d22" stroke-width="2" d="m874 1089 14-4v9z"/><defs><path id="aY" fill="#333" d="M30-248c87 1 191-15 191 75 0 78-77 80-158 76V0H30zm33 125c57 0 124 11 124-50 0-59-68-47-124-48z"/><path id="aZ" fill="#333" d="M114-163C36-179 61-72 57 0H25l-1-190h30c1 12-1 29 2 39 6-27 23-49 58-41z"/><path id="ba" fill="#333" d="M100-194c62-1 85 37 85 99 1 63-27 99-86 99S16-35 15-95c0-66 28-99 85-99M99-20c44 1 53-31 53-75 0-43-8-75-51-75s-53 32-53 75 10 74 51 75"/><path id="bb" fill="#333" d="M96-169c-40 0-48 33-48 73s9 75 48 75c24 0 41-14 43-38l32 2c-6 37-31 61-74 61-59 0-76-41-82-99-10-93 101-131 147-64 4 7 5 14 7 22l-32 3c-4-21-16-35-41-35"/><path id="bc" fill="#333" d="M100-194c63 0 86 42 84 106H49c0 40 14 67 53 68 26 1 43-12 49-29l28 8c-11 28-37 45-77 45C44 4 14-33 15-96c1-61 26-98 85-98m52 81c6-60-76-77-97-28-3 7-6 17-6 28z"/><path id="bd" fill="#333" d="M135-143c-3-34-86-38-87 0 15 53 115 12 119 90S17 21 10-45l28-5c4 36 97 45 98 0-10-56-113-15-118-90-4-57 82-63 122-42 12 7 21 19 24 35"/><path id="be" fill="#333" d="M631 20c-350 0-501-215-501-562 0-355 162-560 502-560 250 0 399 118 446 323l-192 14c-23-124-109-196-262-196-242 0-305 171-305 415 1 245 61 427 304 427 151 0 248-77 267-215l190 12C1039-107 883 20 631 20"/><path id="bf" fill="#333" d="M615-1102c343 0 484 203 482 560-1 347-147 562-488 562-336 0-475-219-479-562-4-349 156-560 485-560m-8 989c240 0 301-180 301-429 0-245-55-427-290-427-236 0-299 181-299 427 0 243 61 429 288 429"/><path id="bg" fill="#333" d="M706-1102c241 0 344 136 343 381V0H868v-695c1-168-57-273-220-268-190 6-283 138-283 336V0H185c-3-360 6-732-6-1082h170c4 54 7 126 8 185h3a358 358 0 0 1 346-205"/><path id="bh" fill="#333" d="M682 16c-209 0-323-80-324-285v-671H190v-142h170l58-282h120v282h432v142H538v652c2 114 60 155 182 155 106 0 209-16 297-34v137C921-4 806 16 682 16"/><path id="bi" fill="#333" d="M617-1102c355 0 481 238 477 599H322c5 222 84 388 301 388 144 0 244-59 284-166l158 45C1002-72 854 20 623 20c-342 0-490-220-490-568 0-346 151-554 484-554m291 461c-18-192-90-328-289-328-194 0-287 128-295 328z"/><path id="bj" fill="#333" d="M932 0 611-444 288 0H94l415-556-397-526h199l300 421 298-421h201L713-558 1133 0z"/><path id="bk" fill="#333" d="M802-711c201 25 350 118 350 331C1152-95 921 0 634 0H162v-1349c401 9 908-74 908 327 0 184-111 275-268 311m-224-69c174-2 300-51 300-218 0-163-124-198-302-198H353v416zM353-153c281-2 612 44 606-244-5-271-329-233-606-234z"/><path id="bl" fill="#333" d="M839-1102c70 0 148 7 206 17v167c-112-18-268-36-363 15-129 69-208 203-208 395V0H294c-10-367 32-789-52-1082h171c21 75 41 161 48 250h5c67-152 152-270 373-270"/><path id="bm" fill="#333" d="M745-142h380V0H143v-142h422v-798H246v-142h499zM545-1292v-192h200v192z"/><path id="bn" fill="#333" d="M865-914c-3-187-2-380-2-570h180v1261c0 76 1 155 6 223H877c-8-49-9-116-10-174h-5C801-44 708 26 530 26c-135 0-234-46-297-139s-95-232-95-419c0-377 131-566 392-566 176 0 271 63 335 184m-286-51c-222 0-255 197-255 427 0 229 31 425 253 425 237 0 286-195 286-441 0-238-52-411-284-411"/><path id="bo" fill="#333" d="M1048-32c-2 300-135 456-433 456-222-1-358-88-400-267l184-25c22 99 100 157 222 156 184-2 248-125 248-315 0-64 3-133-2-194A354 354 0 0 1 524-12c-306 0-381-228-381-537 0-318 85-550 400-550 164 0 271 83 325 202h3c1-60 3-134 12-185h171c-13 339-4 702-6 1050M585-145c210-8 284-178 284-406 0-192-52-331-177-392-33-16-69-22-104-22-223 2-259 184-259 414 0 229 31 415 256 406"/><path id="bp" fill="#333" d="M496 0v-299h235V0z"/><path id="bq" fill="#333" d="M698-1104c312 3 392 244 392 558 0 315-82 566-392 566-169 0-277-65-331-184h-5c8 188 2 394 4 589H185V-858c0-76-1-156-6-224h175c6 52 9 120 10 178h4c58-122 150-202 330-200m-49 991c225 0 255-203 255-433 0-225-32-419-253-419-236 0-285 192-285 441 0 237 53 411 283 411"/><path id="br" fill="#333" d="M873-819c-18-114-119-146-250-146-163 0-245 50-245 151 0 151 170 148 294 185 182 54 388 94 388 320 0 240-189 325-439 329-245 4-410-69-454-268l159-31c24 133 136 168 295 165 144-2 270-31 270-171 0-164-195-160-331-202-167-52-350-87-350-299 0-218 173-315 413-313 220 2 373 77 412 260"/><path id="bs" fill="#333" d="M202-1349h823v156H709v1037h316V0H202v-156h316v-1037H202z"/><path id="bt" fill="#333" d="M285-1169c8 382 2 780 4 1169H129v-1349h237c86 239 188 461 253 720 69-258 169-481 255-720h225V0H937c2-390-5-788 6-1169-75 255-170 488-259 729H547c-90-240-185-475-262-729"/><path id="bu" fill="#333" d="M1000-272c3 95 12 159 101 161 21 0 41-3 59-7V-6c-44 10-86 16-139 16-141 2-191-84-197-217h-6C748-76 648 20 446 20c-207 0-318-120-318-322 0-266 194-348 454-354l236-4c12-191-40-305-222-305-140 0-220 47-232 172l-188-17c33-204 181-292 423-292 255 0 401 118 401 364zm-683-27c0 109 63 184 175 182 166-3 259-96 306-217 24-65 20-120 20-200-232 7-501-28-501 235"/><path id="bv" fill="#333" d="M1018 0H810c-67-251-137-496-194-756C558-495 487-250 419 0H211L0-1349h189c48 393 110 772 142 1181 58-262 128-512 197-763h175c69 251 139 500 197 763 37-402 92-789 139-1181h189"/><path id="bw" fill="#333" d="M736-142h380V0H134v-142h422v-1200H267v-142h469z"/><path id="bx" fill="#333" d="M891-1484c-201 251-362 514-362 954 0 441 161 704 362 955H701C500 176 342-90 342-532c0-440 159-704 359-952z"/><path id="by" fill="#333" d="M684-845H543l-41-639h224"/><path id="bz" fill="#333" d="m259 363 169-662h265L382 363z"/><path id="ca" fill="#333" d="M677 91c1 136 41 195 171 195h213v139H796c-186-8-294-116-294-303v-351c-3-164-120-222-275-232v-137c155-10 275-69 275-231v-352c6-189 106-303 294-303h265v139H848c-126-3-171 67-171 195v346c-5 158-108 234-231 274 128 36 231 115 231 274z"/><path id="bA" fill="#333" d="M496 0v-299h235V0zm0-783v-299h235v299z"/><path id="bC" fill="#333" d="M648-963c-190 6-283 138-283 336V0H185v-1484h181c-2 197 6 404-9 587h3a349 349 0 0 1 339-205c242 0 351 135 350 381V0H868v-695c1-168-57-273-220-268"/><path id="bD" fill="#333" d="M168 279c222 39 310-114 368-290L66-1082h192c120 299 249 590 362 896 115-301 235-597 351-896h190L705 0c-65 164-130 320-275 396-67 36-177 35-262 18z"/><path id="bE" fill="#333" d="M528-1484c201 248 357 511 357 952 0 442-156 709-357 957H336C537 174 700-89 700-530c0-440-163-703-364-954z"/><path id="bF" fill="#333" d="M116-856v-148h995v148zm0 512v-148h995v148z"/><path id="bG" fill="#333" d="M116-154v-153l858-367-858-366v-154l995 418v205"/><path id="bH" fill="#333" d="M1121-976c0 225-142 341-344 379L1177 0H957L591-575H353V0H162v-1349h482c281 3 477 100 477 373M633-726c181-1 296-73 296-247 0-149-101-223-304-223H353v470z"/><path id="bI" fill="#333" d="M496-783v-299h235v299zM352 363l169-662h265L475 363z"/><path id="bJ" fill="#333" d="M726 122c-7 187-108 303-294 303H167V286h213c129-2 172-59 172-195v-347c5-160 106-236 230-276-125-36-230-116-230-272v-346c2-128-45-195-172-195H167v-139h265c187 7 294 114 294 303v352c4 162 120 221 275 231v137c-155 10-275 68-275 232z"/><path id="bK" fill="#333" d="M839-1335c-182-6-269 67-259 253h491v142H580V0H400v-940H138v-142h262c-15-293 132-408 418-402 94 2 200 7 281 21v145c-75-10-177-14-260-17"/><path id="bL" fill="#333" d="M715 0H502L69-1082h202c94 253 197 500 285 758 19 57 36 126 52 183 96-335 234-626 350-941h201"/><path id="bM" fill="#333" d="M162 0v-1349h919v156H353v422h668v154H353v461h769V0z"/><path id="bN" fill="#333" d="M115-194c55 1 70 41 70 98S169 2 115 4C84 4 66-9 55-30l1 105H24l-1-265h31l2 30c10-21 28-34 59-34m-8 174c40 0 45-34 45-75s-6-73-45-74c-42 0-51 32-51 76 0 43 10 73 51 73"/><path id="bO" fill="#333" d="M24 0v-261h32V0z"/><path id="bP" fill="#333" d="M141-36C126-15 110 5 73 4 37 3 15-17 15-53c-1-64 63-63 125-63 3-35-9-54-41-54-24 1-41 7-42 31l-33-3c5-37 33-52 76-52 45 0 72 20 72 64v82c-1 20 7 32 28 27v20c-31 9-61-2-59-35M48-53c0 20 12 33 32 33 41-3 63-29 60-74-43 2-92-5-92 41"/><path id="bQ" fill="#333" d="M85-194c31 0 48 13 60 33l-1-100h32l1 261h-30c-2-10 0-23-3-31C134-8 116 4 85 4 32 4 16-35 15-94c0-66 23-100 70-100m9 24c-40 0-46 34-46 75 0 40 6 74 45 74 42 0 51-32 51-76 0-42-9-74-50-73"/><path id="bR" fill="#333" d="M33 0v-38h34V0z"/><path id="bS" fill="#333" d="M59-47c-2 24 18 29 38 22v24C64 9 27 4 27-40v-127H5v-23h24l9-43h21v43h35v23H59z"/><path id="bT" fill="#333" d="M904-1102c199 0 220 177 220 381V0H956v-686c-3-114 0-215-60-264-70-33-125-4-158 71q-39 84-39 252V0H531v-686c-3-114-1-215-61-264-78-41-136 24-157 84-24 69-39 159-39 259V0H105c-3-360 6-732-6-1082h149c6 50 3 123 8 175 36-100 83-195 216-195 135 0 166 79 196 196 42-105 93-196 236-196"/><path id="bU" fill="#333" d="M614-1226c-167 1-283 53-283 213 0 183 186 193 334 234 230 63 463 120 463 409 0 286-219 387-518 390C309 23 131-98 79-338l185-37c34 165 149 248 351 246 184-2 324-58 324-238 0-203-207-221-372-266-210-57-422-111-422-377 0-267 201-356 470-360 279-5 430 101 480 324l-188 33c-28-141-121-215-293-213"/><path id="bV" fill="#333" d="M1018 0H814c-67-224-138-444-200-673C552-442 476-224 407 0H204L21-1082h178c43 310 105 601 126 933 54-225 128-425 193-638h193c63 212 134 415 185 638 22-336 90-622 136-933h176"/><path id="bW" fill="#333" d="M365-904c58-129 161-200 334-200 130 0 228 46 293 138s98 233 98 420c0 189-34 331-102 425S824 20 698 20c-170 0-275-64-336-184 0 55-3 116-9 164H179c5-68 6-147 6-223v-1261h180c-2 193 4 394-4 580zm283 791c221 0 256-197 256-427 0-229-34-425-254-425-236 0-285 195-285 441 0 237 53 411 283 411"/><path id="bX" fill="#333" d="M116-571v-205l995-418v154L253-674l858 367v153"/><path id="bY" fill="#333" d="M709-1193V0H519v-1193H76v-156h1076v156z"/><path id="bZ" fill="#333" d="M1034 0 896-382H333L196 0H0l510-1349h217L1228 0zM847-531c-77-225-157-447-231-674-69 231-154 451-232 674z"/><path id="cb" fill="#333" d="M528 20c-247 0-343-132-343-381v-721h180v686c-4 177 45 284 224 277 194-8 279-136 279-336v-627h181c3 360-6 732 6 1082H885c-4-54-7-126-8-185h-3A355 355 0 0 1 528 20"/><path id="cc" fill="#333" d="M334-464v-160h560v160z"/><path id="cd" fill="#333" d="m205 0-28-72H64L36 0H1l101-248h38L239 0zm-38-99-47-123c-12 45-31 82-46 123z"/><path id="ce" fill="#333" d="M127-220V0H93v-220H8v-28h204v28z"/><path id="cf" fill="#333" d="M179-190 93 31C79 59 56 82 12 73V49c39 6 53-20 64-50L1-190h34L92-34l54-156z"/><path id="cg" fill="#333" d="M185-189c-5-48-123-54-124 2 14 75 158 14 163 119 3 78-121 87-175 55a71 71 0 0 1-33-46l33-7c5 56 141 63 141-1 0-78-155-14-162-118-5-82 145-84 179-34 5 7 8 16 11 25"/><path id="ch" fill="#333" d="M24-231v-30h32v30zM24 0v-190h32V0z"/><path id="ci" fill="#333" d="M117-194c89-4 53 116 60 194h-32v-121c0-31-8-49-39-48C34-167 62-67 57 0H25l-1-190h30c1 10-1 24 2 32 11-22 29-35 61-36"/><path id="cj" fill="#333" d="M177-190C167-65 218 103 67 71c-23-6-38-20-44-43l32-5c15 47 100 32 89-28v-30A63 63 0 0 1 83 1C29 1 15-40 15-95c0-56 16-97 71-98 29-1 48 16 59 35 1-10 0-23 2-32zM94-22c36 0 50-32 50-73 0-42-14-75-50-75-39 0-46 34-46 75s6 73 46 73"/><path id="ck" fill="#333" d="M115-194c53 0 69 39 70 98 0 66-23 100-70 100C84 3 66-7 56-30L54 0H23l1-261h32v101c10-23 28-34 59-34m-8 174c40 0 45-34 45-75 0-40-5-75-45-74-42 0-51 32-51 76 0 43 10 73 51 73"/><path id="cl" fill="#333" d="M210-169c-67 3-38 105-44 169h-31v-121c0-29-5-50-35-48C34-165 62-65 56 0H25l-1-190h30c1 10-1 24 2 32 10-44 99-50 107 0 11-21 27-35 58-36 85-2 47 119 55 194h-31v-121c0-29-5-49-35-48"/><path id="cm" fill="#333" d="M106-169C34-169 62-67 57 0H25v-261h32l-1 103c12-21 28-36 61-36 89 0 53 116 60 194h-32v-121c2-32-8-49-39-48"/><path id="cn" fill="#333" d="M9 0v-24l116-142H16v-24h144v24L44-24h123V0z"/><path id="co" fill="#333" d="M206 0h-36l-40-164L89 0H53L-1-190h32L70-26l43-164h34l41 164 42-164h31"/><path id="cp" fill="#333" d="M24-231v-30h32v30zM-9 49c24 4 33-6 33-30v-209h32V24c2 40-23 58-65 49z"/><path id="cq" fill="#333" d="M33 0v-248h34V0z"/><path id="cr" fill="#333" d="M108 0H70L1-190h34L89-25l56-165h34"/><path id="cs" fill="#333" d="M143 0 79-87 56-68V0H24v-261h32v163l83-92h37l-77 82L181 0z"/><path id="ct" fill="#333" d="M101-234c-31-9-42 10-38 44h38v23H63V0H32v-167H5v-23h27c-7-52 17-82 69-68z"/><path id="cu" fill="#333" d="M84 4C-5 8 30-112 23-190h32v120c0 31 7 50 39 49 72-2 45-101 50-169h31l1 190h-30c-1-10 1-25-2-33-11 22-28 36-60 37"/><path id="cv" fill="#333" d="M908-845H766l-40-639h224zm-449 0H318l-41-639h224"/><path id="cw" fill="#333" d="M914 0 548-499l-132 98V0H236v-1484h180v927l475-525h211L663-617 1125 0z"/><path id="cx" fill="#333" d="M875 0v-623H353V0H162v-1349h191v566h522v-566h191V0z"/><path id="cy" fill="#333" d="m114 20 821-1504h178L296 20z"/><path id="cz" fill="#333" d="M233-177c-1 41-23 64-60 70L243 0h-38l-65-103H63V0H30v-248c88 3 205-21 203 71M63-129c60-2 137 13 137-47 0-61-80-42-137-45z"/><path id="cA" fill="#333" d="m240 0 2-218c-23 76-54 145-80 218h-23L58-218 59 0H30v-248h44l77 211c21-75 51-140 76-211h43V0z"/><path id="cB" fill="#333" d="M68-36c1 33-1 63-14 82H32c9-13 17-26 17-46H33v-36zM33-154v-36h35v36z"/><path id="cC" fill="#333" d="M109-170H84l-4-78h32zm-65 0H19l-4-78h33"/><path id="cD" fill="#333" d="M622-1349c296 4 497 117 497 404 0 282-193 424-485 431H353V0H162v-1349zm-15 684c195-3 320-88 320-277 0-184-129-255-328-254H353v531z"/><path id="cE" fill="#333" d="M190-63c-7 42-38 67-86 67-59 0-84-38-90-98-12-110 154-137 174-36l-49 2c-2-19-15-32-35-32-30 0-35 28-38 64-6 74 65 87 74 30"/><path id="cF" fill="#333" d="M110-194c64 0 96 36 96 99 0 64-35 99-97 99-61 0-95-36-95-99 0-62 34-99 96-99m-1 164c35 0 45-28 45-65 0-40-10-65-43-65-34 0-45 26-45 65 0 36 10 65 43 65"/><path id="cG" fill="#333" d="M135-194c87-1 58 113 63 194h-50c-7-57 23-157-34-157-59 0-34 97-39 157H25l-1-190h47c2 12-1 28 3 38 12-26 28-41 61-42"/><path id="cH" fill="#333" d="M115-3C79 11 28 4 28-45v-112H4v-33h27l15-45h31v45h36v33H77v99c-1 23 16 31 38 25z"/><path id="cI" fill="#333" d="M185-48a80 80 0 0 1-82 52C43 2 14-33 14-96s30-98 90-98c62 0 83 45 84 108H66c0 31 8 55 39 56 18 0 30-7 34-22zm-45-69c5-46-57-63-70-21-2 6-4 13-4 21z"/><path id="cJ" fill="#333" d="m144 0-44-69L55 0H2l70-98-66-92h53l41 62 40-62h54l-67 91 71 99z"/><path id="cK" fill="#333" d="M182-130c37 4 62 22 62 59C244 23 116-4 24 0v-248c84 5 203-23 205 63 0 31-19 50-47 55M76-148c40-3 101 13 101-30 0-44-60-28-101-31zm0 110c48-3 116 14 116-37 0-48-69-32-116-35z"/><path id="cL" fill="#333" d="M135-150c-39-12-60 13-60 57V0H25l-1-190h47c2 13-1 29 3 40 6-28 27-53 61-41z"/><path id="cM" fill="#333" d="M25-224v-37h50v37zM25 0v-190h50V0z"/><path id="cN" fill="#333" d="M88-194c31-1 46 15 58 34l-1-101h50l1 261h-48c-2-10 0-23-3-31C134-8 116 4 84 4 32 4 16-41 15-95c0-56 19-97 73-99m17 164c33 0 40-30 41-66 1-37-9-64-41-64s-38 30-39 65c0 43 13 65 39 65"/><path id="cO" fill="#333" d="M195-6C206 82 75 100 31 46c-4-6-6-13-8-21l49-6c3 16 16 24 34 25 40 0 42-37 40-79-11 22-30 35-61 35-53 0-70-43-70-97 0-56 18-96 73-97 30 0 46 14 59 34l2-30h47zm-90-29c32 0 41-27 41-63 0-35-9-62-40-62-32 0-39 29-40 63 0 36 9 62 39 62"/><g id="a"><use xlink:href="#aY" transform="scale(.062)"/><use xlink:href="#aZ" transform="translate(15)scale(.062)"/><use xlink:href="#ba" transform="translate(22)scale(.062)"/><use xlink:href="#bb" transform="translate(35)scale(.062)"/><use xlink:href="#bc" transform="translate(46)scale(.062)"/><use xlink:href="#bd" transform="translate(58)scale(.062)"/><use xlink:href="#bd" transform="translate(69)scale(.062)"/></g><g id="b"><use xlink:href="#be" transform="scale(.009)"/><use xlink:href="#bf" transform="translate(11)scale(.009)"/><use xlink:href="#bg" transform="translate(21)scale(.009)"/><use xlink:href="#bh" transform="translate(32)scale(.009)"/><use xlink:href="#bi" transform="translate(43)scale(.009)"/><use xlink:href="#bj" transform="translate(53)scale(.009)"/><use xlink:href="#bh" transform="translate(64)scale(.009)"/><use xlink:href="#bk" transform="translate(75)scale(.009)"/><use xlink:href="#bl" transform="translate(85)scale(.009)"/><use xlink:href="#bm" transform="translate(96)scale(.009)"/><use xlink:href="#bn" transform="translate(107)scale(.009)"/><use xlink:href="#bo" transform="translate(117)scale(.009)"/><use xlink:href="#bi" transform="translate(128)scale(.009)"/><use xlink:href="#bp" transform="translate(139)scale(.009)"/><use xlink:href="#bi" transform="translate(149)scale(.009)"/><use xlink:href="#bj" transform="translate(160)scale(.009)"/><use xlink:href="#bq" transform="translate(171)scale(.009)"/><use xlink:href="#bf" transform="translate(181)scale(.009)"/><use xlink:href="#br" transform="translate(192)scale(.009)"/><use xlink:href="#bi" transform="translate(203)scale(.009)"/><use xlink:href="#bs" transform="translate(213)scale(.009)"/><use xlink:href="#bg" transform="translate(224)scale(.009)"/><use xlink:href="#bt" transform="translate(235)scale(.009)"/><use xlink:href="#bu" transform="translate(245)scale(.009)"/><use xlink:href="#bm" transform="translate(256)scale(.009)"/><use xlink:href="#bg" transform="translate(267)scale(.009)"/><use xlink:href="#bv" transform="translate(277)scale(.009)"/><use xlink:href="#bf" transform="translate(288)scale(.009)"/><use xlink:href="#bl" transform="translate(299)scale(.009)"/><use xlink:href="#bw" transform="translate(309)scale(.009)"/><use xlink:href="#bn" transform="translate(320)scale(.009)"/><use xlink:href="#bx" transform="translate(331)scale(.009)"/><use xlink:href="#by" transform="translate(341)scale(.009)"/><use xlink:href="#bm" transform="translate(352)scale(.009)"/><use xlink:href="#bq" transform="translate(363)scale(.009)"/><use xlink:href="#be" transform="translate(373)scale(.009)"/><use xlink:href="#by" transform="translate(384)scale(.009)"/><use xlink:href="#bz" transform="translate(395)scale(.009)"/></g><g id="e"><use xlink:href="#br" transform="scale(.009)"/><use xlink:href="#bi" transform="translate(11)scale(.009)"/><use xlink:href="#bg" transform="translate(21)scale(.009)"/><use xlink:href="#bn" transform="translate(32)scale(.009)"/><use xlink:href="#bA" transform="translate(43)scale(.009)"/></g><g id="f"><use xlink:href="#bx" transform="scale(.009)"/><use xlink:href="#be" transform="translate(11)scale(.009)"/><use xlink:href="#bC" transform="translate(21)scale(.009)"/><use xlink:href="#bu" transform="translate(32)scale(.009)"/><use xlink:href="#bg" transform="translate(43)scale(.009)"/><use xlink:href="#bg" transform="translate(53)scale(.009)"/><use xlink:href="#bi" transform="translate(64)scale(.009)"/><use xlink:href="#bw" transform="translate(75)scale(.009)"/><use xlink:href="#bA" transform="translate(85)scale(.009)"/></g><g id="g"><use xlink:href="#br" transform="scale(.009)"/><use xlink:href="#bh" transform="translate(11)scale(.009)"/><use xlink:href="#bl" transform="translate(21)scale(.009)"/><use xlink:href="#bm" transform="translate(32)scale(.009)"/><use xlink:href="#bg" transform="translate(43)scale(.009)"/><use xlink:href="#bo" transform="translate(53)scale(.009)"/><use xlink:href="#bz" transform="translate(64)scale(.009)"/></g><g id="i"><use xlink:href="#bn" transform="scale(.009)"/><use xlink:href="#bu" transform="translate(11)scale(.009)"/><use xlink:href="#bh" transform="translate(21)scale(.009)"/><use xlink:href="#bu" transform="translate(32)scale(.009)"/><use xlink:href="#bA" transform="translate(43)scale(.009)"/></g><g id="j"><use xlink:href="#bu" transform="scale(.009)"/><use xlink:href="#bg" transform="translate(11)scale(.009)"/><use xlink:href="#bD" transform="translate(21)scale(.009)"/><use xlink:href="#bE" transform="translate(32)scale(.009)"/></g><g id="k"><use xlink:href="#bF" transform="scale(.009)"/><use xlink:href="#bG" transform="translate(11)scale(.009)"/></g><g id="m"><use xlink:href="#bm" transform="scale(.009)"/><use xlink:href="#bq" transform="translate(11)scale(.009)"/><use xlink:href="#be" transform="translate(21)scale(.009)"/><use xlink:href="#bH" transform="translate(32)scale(.009)"/><use xlink:href="#bi" transform="translate(43)scale(.009)"/><use xlink:href="#bg" transform="translate(53)scale(.009)"/><use xlink:href="#bn" transform="translate(64)scale(.009)"/><use xlink:href="#bi" transform="translate(75)scale(.009)"/><use xlink:href="#bl" transform="translate(85)scale(.009)"/><use xlink:href="#bi" transform="translate(96)scale(.009)"/><use xlink:href="#bl" transform="translate(107)scale(.009)"/><use xlink:href="#bp" transform="translate(117)scale(.009)"/><use xlink:href="#br" transform="translate(128)scale(.009)"/><use xlink:href="#bi" transform="translate(139)scale(.009)"/><use xlink:href="#bg" transform="translate(149)scale(.009)"/><use xlink:href="#bn" transform="translate(160)scale(.009)"/><use xlink:href="#bx" transform="translate(171)scale(.009)"/><use xlink:href="#be" transform="translate(181)scale(.009)"/><use xlink:href="#bC" transform="translate(192)scale(.009)"/><use xlink:href="#bu" transform="translate(203)scale(.009)"/><use xlink:href="#bg" transform="translate(213)scale(.009)"/><use xlink:href="#bg" transform="translate(224)scale(.009)"/><use xlink:href="#bi" transform="translate(235)scale(.009)"/><use xlink:href="#bw" transform="translate(245)scale(.009)"/><use xlink:href="#bz" transform="translate(256)scale(.009)"/></g><g id="n"><use xlink:href="#bn" transform="scale(.009)"/><use xlink:href="#bu" transform="translate(11)scale(.009)"/><use xlink:href="#bh" transform="translate(21)scale(.009)"/><use xlink:href="#bu" transform="translate(32)scale(.009)"/><use xlink:href="#bE" transform="translate(43)scale(.009)"/><use xlink:href="#bI" transform="translate(53)scale(.009)"/></g><g id="o"><use xlink:href="#bJ" transform="scale(.009)"/><use xlink:href="#bz" transform="translate(11)scale(.009)"/></g><g id="p"><use xlink:href="#bf" transform="scale(.009)"/><use xlink:href="#bg" transform="translate(11)scale(.009)"/><use xlink:href="#bA" transform="translate(21)scale(.009)"/></g><g id="r"><use xlink:href="#bK" transform="scale(.009)"/><use xlink:href="#bA" transform="translate(11)scale(.009)"/></g><g id="s"><use xlink:href="#bx" transform="scale(.009)"/><use xlink:href="#bi" transform="translate(11)scale(.009)"/><use xlink:href="#bL" transform="translate(21)scale(.009)"/><use xlink:href="#bh" transform="translate(32)scale(.009)"/><use xlink:href="#bA" transform="translate(43)scale(.009)"/></g><g id="t"><use xlink:href="#bM" transform="scale(.009)"/><use xlink:href="#bL" transform="translate(11)scale(.009)"/><use xlink:href="#bi" transform="translate(21)scale(.009)"/><use xlink:href="#bg" transform="translate(32)scale(.009)"/><use xlink:href="#bh" transform="translate(43)scale(.009)"/><use xlink:href="#bz" transform="translate(53)scale(.009)"/></g><g id="u"><use xlink:href="#bu" transform="scale(.009)"/><use xlink:href="#bl" transform="translate(11)scale(.009)"/><use xlink:href="#bo" transform="translate(21)scale(.009)"/><use xlink:href="#br" transform="translate(32)scale(.009)"/><use xlink:href="#bA" transform="translate(43)scale(.009)"/></g><g id="v"><use xlink:href="#bL" transform="scale(.009)"/><use xlink:href="#bf" transform="translate(11)scale(.009)"/><use xlink:href="#bm" transform="translate(21)scale(.009)"/><use xlink:href="#bn" transform="translate(32)scale(.009)"/><use xlink:href="#bE" transform="translate(43)scale(.009)"/></g><g id="w"><use xlink:href="#bm" transform="scale(.009)"/><use xlink:href="#bq" transform="translate(11)scale(.009)"/><use xlink:href="#be" transform="translate(21)scale(.009)"/><use xlink:href="#bH" transform="translate(32)scale(.009)"/><use xlink:href="#bi" transform="translate(43)scale(.009)"/><use xlink:href="#bg" transform="translate(53)scale(.009)"/><use xlink:href="#bn" transform="translate(64)scale(.009)"/><use xlink:href="#bi" transform="translate(75)scale(.009)"/><use xlink:href="#bl" transform="translate(85)scale(.009)"/><use xlink:href="#bi" transform="translate(96)scale(.009)"/><use xlink:href="#bl" transform="translate(107)scale(.009)"/><use xlink:href="#bp" transform="translate(117)scale(.009)"/><use xlink:href="#bf" transform="translate(128)scale(.009)"/><use xlink:href="#bg" transform="translate(139)scale(.009)"/><use xlink:href="#bx" transform="translate(149)scale(.009)"/><use xlink:href="#be" transform="translate(160)scale(.009)"/><use xlink:href="#bC" transform="translate(171)scale(.009)"/><use xlink:href="#bu" transform="translate(181)scale(.009)"/><use xlink:href="#bg" transform="translate(192)scale(.009)"/><use xlink:href="#bg" transform="translate(203)scale(.009)"/><use xlink:href="#bi" transform="translate(213)scale(.009)"/><use xlink:href="#bw" transform="translate(224)scale(.009)"/><use xlink:href="#bz" transform="translate(235)scale(.009)"/></g><g id="x"><use xlink:href="#bK" transform="scale(.009)"/><use xlink:href="#bE" transform="translate(11)scale(.009)"/><use xlink:href="#bI" transform="translate(21)scale(.009)"/></g><g id="A"><use xlink:href="#bN" transform="scale(.074)"/><use xlink:href="#aZ" transform="translate(15)scale(.074)"/><use xlink:href="#bc" transform="translate(24)scale(.074)"/><use xlink:href="#bO" transform="translate(38)scale(.074)"/><use xlink:href="#ba" transform="translate(44)scale(.074)"/><use xlink:href="#bP" transform="translate(59)scale(.074)"/><use xlink:href="#bQ" transform="translate(74)scale(.074)"/><use xlink:href="#bR" transform="translate(89)scale(.074)"/><use xlink:href="#bS" transform="translate(96)scale(.074)"/><use xlink:href="#bd" transform="translate(104)scale(.074)"/></g><g id="B"><use xlink:href="#bi" transform="scale(.009)"/><use xlink:href="#bj" transform="translate(11)scale(.009)"/><use xlink:href="#bq" transform="translate(21)scale(.009)"/><use xlink:href="#bf" transform="translate(32)scale(.009)"/><use xlink:href="#bl" transform="translate(43)scale(.009)"/><use xlink:href="#bh" transform="translate(53)scale(.009)"/></g><g id="C"><use xlink:href="#be" transform="scale(.009)"/><use xlink:href="#bf" transform="translate(11)scale(.009)"/><use xlink:href="#bg" transform="translate(21)scale(.009)"/><use xlink:href="#br" transform="translate(32)scale(.009)"/><use xlink:href="#bh" transform="translate(43)scale(.009)"/></g><g id="D"><use xlink:href="#bT" transform="scale(.009)"/><use xlink:href="#bD" transform="translate(11)scale(.009)"/><use xlink:href="#bU" transform="translate(21)scale(.009)"/><use xlink:href="#bh" transform="translate(32)scale(.009)"/><use xlink:href="#bf" transform="translate(43)scale(.009)"/><use xlink:href="#bl" transform="translate(53)scale(.009)"/><use xlink:href="#bi" transform="translate(64)scale(.009)"/></g><g id="F"><use xlink:href="#bV" transform="scale(.009)"/><use xlink:href="#bl" transform="translate(11)scale(.009)"/><use xlink:href="#bm" transform="translate(21)scale(.009)"/><use xlink:href="#bh" transform="translate(32)scale(.009)"/><use xlink:href="#bu" transform="translate(43)scale(.009)"/><use xlink:href="#bW" transform="translate(53)scale(.009)"/><use xlink:href="#bw" transform="translate(64)scale(.009)"/><use xlink:href="#bi" transform="translate(75)scale(.009)"/><use xlink:href="#bX" transform="translate(85)scale(.009)"/><use xlink:href="#bY" transform="translate(96)scale(.009)"/><use xlink:href="#bC" transform="translate(107)scale(.009)"/><use xlink:href="#bm" transform="translate(117)scale(.009)"/><use xlink:href="#bg" transform="translate(128)scale(.009)"/><use xlink:href="#bo" transform="translate(139)scale(.009)"/><use xlink:href="#bZ" transform="translate(149)scale(.009)"/><use xlink:href="#bG" transform="translate(160)scale(.009)"/><use xlink:href="#bx" transform="translate(171)scale(.009)"/><use xlink:href="#ca" transform="translate(181)scale(.009)"/><use xlink:href="#bJ" transform="translate(192)scale(.009)"/><use xlink:href="#bE" transform="translate(203)scale(.009)"/><use xlink:href="#bI" transform="translate(213)scale(.009)"/></g><g id="H"><use xlink:href="#bn" transform="scale(.009)"/><use xlink:href="#bi" transform="translate(11)scale(.009)"/><use xlink:href="#be" transform="translate(21)scale(.009)"/><use xlink:href="#bw" transform="translate(32)scale(.009)"/><use xlink:href="#bu" transform="translate(43)scale(.009)"/><use xlink:href="#bl" transform="translate(53)scale(.009)"/><use xlink:href="#bi" transform="translate(64)scale(.009)"/></g><g id="I"><use xlink:href="#bo" transform="scale(.009)"/><use xlink:href="#bw" transform="translate(11)scale(.009)"/><use xlink:href="#bf" transform="translate(21)scale(.009)"/><use xlink:href="#bW" transform="translate(32)scale(.009)"/><use xlink:href="#bu" transform="translate(43)scale(.009)"/><use xlink:href="#bw" transform="translate(53)scale(.009)"/></g><g id="J"><use xlink:href="#bm" transform="scale(.009)"/><use xlink:href="#bg" transform="translate(11)scale(.009)"/><use xlink:href="#bh" transform="translate(21)scale(.009)"/><use xlink:href="#bi" transform="translate(32)scale(.009)"/><use xlink:href="#bl" transform="translate(43)scale(.009)"/><use xlink:href="#bK" transform="translate(53)scale(.009)"/><use xlink:href="#bu" transform="translate(64)scale(.009)"/><use xlink:href="#be" transform="translate(75)scale(.009)"/><use xlink:href="#bi" transform="translate(85)scale(.009)"/></g><g id="K"><use xlink:href="#bv" transform="scale(.009)"/><use xlink:href="#bm" transform="translate(11)scale(.009)"/><use xlink:href="#bg" transform="translate(21)scale(.009)"/><use xlink:href="#bn" transform="translate(32)scale(.009)"/><use xlink:href="#bf" transform="translate(43)scale(.009)"/><use xlink:href="#bV" transform="translate(53)scale(.009)"/></g><g id="L"><use xlink:href="#bm" transform="scale(.009)"/><use xlink:href="#bq" transform="translate(11)scale(.009)"/><use xlink:href="#be" transform="translate(21)scale(.009)"/><use xlink:href="#bA" transform="translate(32)scale(.009)"/></g><g id="N"><use xlink:href="#br" transform="scale(.009)"/><use xlink:href="#bi" transform="translate(11)scale(.009)"/><use xlink:href="#bg" transform="translate(21)scale(.009)"/><use xlink:href="#bn" transform="translate(32)scale(.009)"/><use xlink:href="#bx" transform="translate(43)scale(.009)"/><use xlink:href="#be" transform="translate(53)scale(.009)"/><use xlink:href="#bC" transform="translate(64)scale(.009)"/><use xlink:href="#bu" transform="translate(75)scale(.009)"/><use xlink:href="#bg" transform="translate(85)scale(.009)"/><use xlink:href="#bg" transform="translate(96)scale(.009)"/><use xlink:href="#bi" transform="translate(107)scale(.009)"/><use xlink:href="#bw" transform="translate(117)scale(.009)"/><use xlink:href="#bA" transform="translate(128)scale(.009)"/></g><g id="O"><use xlink:href="#br" transform="scale(.009)"/><use xlink:href="#bh" transform="translate(11)scale(.009)"/><use xlink:href="#bl" transform="translate(21)scale(.009)"/><use xlink:href="#bm" transform="translate(32)scale(.009)"/><use xlink:href="#bg" transform="translate(43)scale(.009)"/><use xlink:href="#bo" transform="translate(53)scale(.009)"/><use xlink:href="#bz" transform="translate(64)scale(.009)"/></g><g id="P"><use xlink:href="#bu" transform="scale(.009)"/><use xlink:href="#bg" transform="translate(11)scale(.009)"/><use xlink:href="#bD" transform="translate(21)scale(.009)"/><use xlink:href="#bE" transform="translate(32)scale(.009)"/><use xlink:href="#bI" transform="translate(43)scale(.009)"/></g><g id="Q"><use xlink:href="#bf" transform="scale(.009)"/><use xlink:href="#bg" transform="translate(11)scale(.009)"/><use xlink:href="#bx" transform="translate(21)scale(.009)"/><use xlink:href="#be" transform="translate(32)scale(.009)"/><use xlink:href="#bC" transform="translate(43)scale(.009)"/><use xlink:href="#bu" transform="translate(53)scale(.009)"/><use xlink:href="#bg" transform="translate(64)scale(.009)"/><use xlink:href="#bg" transform="translate(75)scale(.009)"/><use xlink:href="#bi" transform="translate(85)scale(.009)"/><use xlink:href="#bw" transform="translate(96)scale(.009)"/><use xlink:href="#bA" transform="translate(107)scale(.009)"/></g><g id="R"><use xlink:href="#bx" transform="scale(.009)"/><use xlink:href="#bi" transform="translate(11)scale(.009)"/><use xlink:href="#bA" transform="translate(21)scale(.009)"/></g><g id="S"><use xlink:href="#bL" transform="scale(.009)"/><use xlink:href="#bf" transform="translate(11)scale(.009)"/><use xlink:href="#bm" transform="translate(21)scale(.009)"/><use xlink:href="#bn" transform="translate(32)scale(.009)"/><use xlink:href="#bE" transform="translate(43)scale(.009)"/><use xlink:href="#bA" transform="translate(53)scale(.009)"/></g><g id="T"><use xlink:href="#bL" transform="scale(.009)"/><use xlink:href="#bf" transform="translate(11)scale(.009)"/><use xlink:href="#bm" transform="translate(21)scale(.009)"/><use xlink:href="#bn" transform="translate(32)scale(.009)"/><use xlink:href="#bz" transform="translate(43)scale(.009)"/></g><g id="V"><use xlink:href="#bV" transform="scale(.009)"/><use xlink:href="#bm" transform="translate(11)scale(.009)"/><use xlink:href="#bg" transform="translate(21)scale(.009)"/><use xlink:href="#bn" transform="translate(32)scale(.009)"/><use xlink:href="#bf" transform="translate(43)scale(.009)"/><use xlink:href="#bV" transform="translate(53)scale(.009)"/><use xlink:href="#bp" transform="translate(64)scale(.009)"/><use xlink:href="#bm" transform="translate(75)scale(.009)"/><use xlink:href="#bq" transform="translate(85)scale(.009)"/><use xlink:href="#be" transform="translate(96)scale(.009)"/><use xlink:href="#bp" transform="translate(107)scale(.009)"/><use xlink:href="#bf" transform="translate(117)scale(.009)"/><use xlink:href="#bg" transform="translate(128)scale(.009)"/><use xlink:href="#bx" transform="translate(139)scale(.009)"/><use xlink:href="#by" transform="translate(149)scale(.009)"/><use xlink:href="#bq" transform="translate(160)scale(.009)"/><use xlink:href="#bf" transform="translate(171)scale(.009)"/><use xlink:href="#bq" transform="translate(181)scale(.009)"/><use xlink:href="#cb" transform="translate(192)scale(.009)"/><use xlink:href="#bw" transform="translate(203)scale(.009)"/><use xlink:href="#bu" transform="translate(213)scale(.009)"/><use xlink:href="#bh" transform="translate(224)scale(.009)"/><use xlink:href="#bi" transform="translate(235)scale(.009)"/><use xlink:href="#cc" transform="translate(245)scale(.009)"/><use xlink:href="#bh" transform="translate(256)scale(.009)"/><use xlink:href="#bC" transform="translate(267)scale(.009)"/><use xlink:href="#bm" transform="translate(277)scale(.009)"/><use xlink:href="#bg" transform="translate(288)scale(.009)"/><use xlink:href="#bo" transform="translate(299)scale(.009)"/><use xlink:href="#cc" transform="translate(309)scale(.009)"/><use xlink:href="#bZ" transform="translate(320)scale(.009)"/><use xlink:href="#by" transform="translate(331)scale(.009)"/><use xlink:href="#bz" transform="translate(341)scale(.009)"/></g><g id="X"><use xlink:href="#bh" transform="scale(.009)"/><use xlink:href="#bC" transform="translate(11)scale(.009)"/><use xlink:href="#bm" transform="translate(21)scale(.009)"/><use xlink:href="#bg" transform="translate(32)scale(.009)"/><use xlink:href="#bo" transform="translate(43)scale(.009)"/><use xlink:href="#bA" transform="translate(53)scale(.009)"/></g><g id="Y"><use xlink:href="#bT" transform="scale(.009)"/><use xlink:href="#bD" transform="translate(11)scale(.009)"/><use xlink:href="#bU" transform="translate(21)scale(.009)"/><use xlink:href="#bh" transform="translate(32)scale(.009)"/><use xlink:href="#bf" transform="translate(43)scale(.009)"/><use xlink:href="#bl" transform="translate(53)scale(.009)"/><use xlink:href="#bi" transform="translate(64)scale(.009)"/><use xlink:href="#bp" transform="translate(75)scale(.009)"/><use xlink:href="#br" transform="translate(85)scale(.009)"/><use xlink:href="#bi" transform="translate(96)scale(.009)"/><use xlink:href="#bh" transform="translate(107)scale(.009)"/><use xlink:href="#bx" transform="translate(117)scale(.009)"/><use xlink:href="#bh" transform="translate(128)scale(.009)"/><use xlink:href="#bC" transform="translate(139)scale(.009)"/><use xlink:href="#bm" transform="translate(149)scale(.009)"/><use xlink:href="#bg" transform="translate(160)scale(.009)"/><use xlink:href="#bo" transform="translate(171)scale(.009)"/><use xlink:href="#bE" transform="translate(181)scale(.009)"/><use xlink:href="#bI" transform="translate(192)scale(.009)"/></g><g id="aa"><use xlink:href="#bd" transform="scale(.074)"/><use xlink:href="#bS" transform="translate(13)scale(.074)"/><use xlink:href="#ba" transform="translate(21)scale(.074)"/><use xlink:href="#aZ" transform="translate(36)scale(.074)"/><use xlink:href="#bc" transform="translate(44)scale(.074)"/><use xlink:href="#bR" transform="translate(59)scale(.074)"/><use xlink:href="#bS" transform="translate(67)scale(.074)"/><use xlink:href="#bd" transform="translate(74)scale(.074)"/></g><g id="ab"><use xlink:href="#cd" transform="scale(.062)"/><use xlink:href="#bQ" transform="translate(15)scale(.062)"/><use xlink:href="#bQ" transform="translate(27)scale(.062)"/></g><g id="ac"><use xlink:href="#ce" transform="scale(.062)"/><use xlink:href="#cf" transform="translate(12)scale(.062)"/><use xlink:href="#bN" transform="translate(23)scale(.062)"/><use xlink:href="#bc" transform="translate(36)scale(.062)"/><use xlink:href="#cg" transform="translate(48)scale(.062)"/><use xlink:href="#bb" transform="translate(63)scale(.062)"/><use xlink:href="#aZ" transform="translate(74)scale(.062)"/><use xlink:href="#ch" transform="translate(81)scale(.062)"/><use xlink:href="#bN" transform="translate(86)scale(.062)"/><use xlink:href="#bS" transform="translate(99)scale(.062)"/></g><g id="ad"><use xlink:href="#bQ" transform="scale(.062)"/><use xlink:href="#bc" transform="translate(12)scale(.062)"/><use xlink:href="#bb" transform="translate(25)scale(.062)"/><use xlink:href="#bO" transform="translate(36)scale(.062)"/><use xlink:href="#bP" transform="translate(41)scale(.062)"/><use xlink:href="#aZ" transform="translate(53)scale(.062)"/><use xlink:href="#bP" transform="translate(60)scale(.062)"/><use xlink:href="#bS" transform="translate(73)scale(.062)"/><use xlink:href="#ch" transform="translate(79)scale(.062)"/><use xlink:href="#ba" transform="translate(84)scale(.062)"/><use xlink:href="#ci" transform="translate(96)scale(.062)"/></g><g id="ae"><use xlink:href="#bS" transform="scale(.062)"/><use xlink:href="#ba" transform="translate(6)scale(.062)"/></g><g id="af"><use xlink:href="#cj" transform="scale(.062)"/><use xlink:href="#bO" transform="translate(12)scale(.062)"/><use xlink:href="#ba" transform="translate(17)scale(.062)"/><use xlink:href="#ck" transform="translate(30)scale(.062)"/><use xlink:href="#bP" transform="translate(42)scale(.062)"/><use xlink:href="#bO" transform="translate(54)scale(.062)"/></g><g id="ag"><use xlink:href="#ci" transform="scale(.062)"/><use xlink:href="#bP" transform="translate(12)scale(.062)"/><use xlink:href="#cl" transform="translate(25)scale(.062)"/><use xlink:href="#bc" transform="translate(43)scale(.062)"/></g><g id="ah"><use xlink:href="#bd" transform="scale(.062)"/><use xlink:href="#bN" transform="translate(11)scale(.062)"/><use xlink:href="#bP" transform="translate(23)scale(.062)"/><use xlink:href="#bb" transform="translate(36)scale(.062)"/><use xlink:href="#bc" transform="translate(47)scale(.062)"/></g><g id="ai"><use xlink:href="#bd" transform="scale(.062)"/><use xlink:href="#ba" transform="translate(11)scale(.062)"/></g><g id="aj"><use xlink:href="#bS" transform="scale(.062)"/><use xlink:href="#cm" transform="translate(6)scale(.062)"/><use xlink:href="#bP" transform="translate(19)scale(.062)"/><use xlink:href="#bS" transform="translate(31)scale(.062)"/></g><g id="ak"><use xlink:href="#bN" transform="scale(.062)"/><use xlink:href="#aZ" transform="translate(12)scale(.062)"/><use xlink:href="#bc" transform="translate(20)scale(.062)"/><use xlink:href="#bO" transform="translate(32)scale(.062)"/><use xlink:href="#ba" transform="translate(37)scale(.062)"/><use xlink:href="#bP" transform="translate(49)scale(.062)"/><use xlink:href="#bQ" transform="translate(62)scale(.062)"/></g><g id="al"><use xlink:href="#bP" transform="scale(.062)"/><use xlink:href="#bb" transform="translate(12)scale(.062)"/><use xlink:href="#bS" transform="translate(23)scale(.062)"/><use xlink:href="#ch" transform="translate(30)scale(.062)"/><use xlink:href="#ba" transform="translate(35)scale(.062)"/><use xlink:href="#ci" transform="translate(47)scale(.062)"/><use xlink:href="#bd" transform="translate(59)scale(.062)"/></g><g id="am"><use xlink:href="#bP" transform="scale(.062)"/><use xlink:href="#aZ" transform="translate(12)scale(.062)"/><use xlink:href="#bc" transform="translate(20)scale(.062)"/></g><g id="an"><use xlink:href="#aZ" transform="scale(.062)"/><use xlink:href="#bc" transform="translate(7)scale(.062)"/><use xlink:href="#bb" transform="translate(20)scale(.062)"/><use xlink:href="#ba" transform="translate(31)scale(.062)"/><use xlink:href="#cj" transform="translate(43)scale(.062)"/><use xlink:href="#ci" transform="translate(55)scale(.062)"/><use xlink:href="#ch" transform="translate(68)scale(.062)"/><use xlink:href="#cn" transform="translate(73)scale(.062)"/><use xlink:href="#bc" transform="translate(84)scale(.062)"/><use xlink:href="#bQ" transform="translate(96)scale(.062)"/></g><g id="ao"><use xlink:href="#ba" transform="scale(.062)"/><use xlink:href="#ci" transform="translate(12)scale(.062)"/></g><g id="ap"><use xlink:href="#co" transform="scale(.062)"/><use xlink:href="#ch" transform="translate(16)scale(.062)"/><use xlink:href="#ci" transform="translate(21)scale(.062)"/><use xlink:href="#bQ" transform="translate(33)scale(.062)"/><use xlink:href="#ba" transform="translate(46)scale(.062)"/><use xlink:href="#co" transform="translate(58)scale(.062)"/></g><g id="aq"><use xlink:href="#ba" transform="scale(.062)"/><use xlink:href="#ck" transform="translate(12)scale(.062)"/><use xlink:href="#cp" transform="translate(25)scale(.062)"/><use xlink:href="#bc" transform="translate(30)scale(.062)"/><use xlink:href="#bb" transform="translate(42)scale(.062)"/><use xlink:href="#bS" transform="translate(53)scale(.062)"/><use xlink:href="#bR" transform="translate(59)scale(.062)"/></g><g id="ar"><use xlink:href="#cq" transform="scale(.062)"/><use xlink:href="#ci" transform="translate(6)scale(.062)"/><use xlink:href="#cr" transform="translate(19)scale(.062)"/><use xlink:href="#ba" transform="translate(30)scale(.062)"/><use xlink:href="#cs" transform="translate(42)scale(.062)"/><use xlink:href="#bc" transform="translate(53)scale(.062)"/></g><g id="as"><use xlink:href="#bN" transform="scale(.062)"/><use xlink:href="#aZ" transform="translate(12)scale(.062)"/><use xlink:href="#bc" transform="translate(20)scale(.062)"/><use xlink:href="#bO" transform="translate(32)scale(.062)"/><use xlink:href="#ba" transform="translate(37)scale(.062)"/><use xlink:href="#bP" transform="translate(49)scale(.062)"/><use xlink:href="#bQ" transform="translate(62)scale(.062)"/></g><g id="at"><use xlink:href="#ct" transform="scale(.062)"/><use xlink:href="#cu" transform="translate(6)scale(.062)"/><use xlink:href="#ci" transform="translate(19)scale(.062)"/><use xlink:href="#bb" transform="translate(31)scale(.062)"/><use xlink:href="#bS" transform="translate(42)scale(.062)"/><use xlink:href="#ch" transform="translate(48)scale(.062)"/><use xlink:href="#ba" transform="translate(53)scale(.062)"/><use xlink:href="#ci" transform="translate(65)scale(.062)"/></g><g id="au"><use xlink:href="#bX" transform="scale(.009)"/><use xlink:href="#br" transform="translate(11)scale(.009)"/><use xlink:href="#be" transform="translate(21)scale(.009)"/><use xlink:href="#bl" transform="translate(32)scale(.009)"/><use xlink:href="#bm" transform="translate(43)scale(.009)"/><use xlink:href="#bq" transform="translate(53)scale(.009)"/><use xlink:href="#bh" transform="translate(64)scale(.009)"/></g><g id="av"><use xlink:href="#bw" transform="scale(.009)"/><use xlink:href="#bu" transform="translate(11)scale(.009)"/><use xlink:href="#bg" transform="translate(21)scale(.009)"/><use xlink:href="#bo" transform="translate(32)scale(.009)"/><use xlink:href="#bF" transform="translate(43)scale(.009)"/><use xlink:href="#cv" transform="translate(53)scale(.009)"/><use xlink:href="#bh" transform="translate(64)scale(.009)"/><use xlink:href="#br" transform="translate(75)scale(.009)"/><use xlink:href="#cv" transform="translate(85)scale(.009)"/><use xlink:href="#bG" transform="translate(96)scale(.009)"/></g><g id="aw"><use xlink:href="#bK" transform="scale(.009)"/><use xlink:href="#cb" transform="translate(11)scale(.009)"/><use xlink:href="#bg" transform="translate(21)scale(.009)"/><use xlink:href="#be" transform="translate(32)scale(.009)"/><use xlink:href="#bh" transform="translate(43)scale(.009)"/><use xlink:href="#bm" transform="translate(53)scale(.009)"/><use xlink:href="#bf" transform="translate(64)scale(.009)"/><use xlink:href="#bg" transform="translate(75)scale(.009)"/></g><g id="ax"><use xlink:href="#be" transform="scale(.009)"/><use xlink:href="#bw" transform="translate(11)scale(.009)"/><use xlink:href="#bm" transform="translate(21)scale(.009)"/><use xlink:href="#be" transform="translate(32)scale(.009)"/><use xlink:href="#cw" transform="translate(43)scale(.009)"/><use xlink:href="#cx" transform="translate(53)scale(.009)"/><use xlink:href="#bu" transform="translate(64)scale(.009)"/><use xlink:href="#bg" transform="translate(75)scale(.009)"/><use xlink:href="#bn" transform="translate(85)scale(.009)"/><use xlink:href="#bw" transform="translate(96)scale(.009)"/><use xlink:href="#bi" transform="translate(107)scale(.009)"/><use xlink:href="#bl" transform="translate(117)scale(.009)"/><use xlink:href="#bx" transform="translate(128)scale(.009)"/><use xlink:href="#bE" transform="translate(139)scale(.009)"/></g><g id="ay"><use xlink:href="#bV" transform="scale(.009)"/><use xlink:href="#bm" transform="translate(11)scale(.009)"/><use xlink:href="#bg" transform="translate(21)scale(.009)"/><use xlink:href="#bn" transform="translate(32)scale(.009)"/><use xlink:href="#bf" transform="translate(43)scale(.009)"/><use xlink:href="#bV" transform="translate(53)scale(.009)"/><use xlink:href="#bp" transform="translate(64)scale(.009)"/><use xlink:href="#bm" transform="translate(75)scale(.009)"/><use xlink:href="#bq" transform="translate(85)scale(.009)"/><use xlink:href="#be" transform="translate(96)scale(.009)"/><use xlink:href="#bp" transform="translate(107)scale(.009)"/><use xlink:href="#br" transform="translate(117)scale(.009)"/><use xlink:href="#bi" transform="translate(128)scale(.009)"/><use xlink:href="#bg" transform="translate(139)scale(.009)"/><use xlink:href="#bn" transform="translate(149)scale(.009)"/><use xlink:href="#bx" transform="translate(160)scale(.009)"/><use xlink:href="#by" transform="translate(171)scale(.009)"/><use xlink:href="#bn" transform="translate(181)scale(.009)"/><use xlink:href="#bf" transform="translate(192)scale(.009)"/><use xlink:href="#cc" transform="translate(203)scale(.009)"/><use xlink:href="#bm" transform="translate(213)scale(.009)"/><use xlink:href="#bh" transform="translate(224)scale(.009)"/><use xlink:href="#by" transform="translate(235)scale(.009)"/><use xlink:href="#bz" transform="translate(245)scale(.009)"/></g><g id="az"><use xlink:href="#bT" transform="scale(.009)"/><use xlink:href="#bD" transform="translate(11)scale(.009)"/><use xlink:href="#bY" transform="translate(21)scale(.009)"/><use xlink:href="#bC" transform="translate(32)scale(.009)"/><use xlink:href="#bm" transform="translate(43)scale(.009)"/><use xlink:href="#bg" transform="translate(53)scale(.009)"/><use xlink:href="#bo" transform="translate(64)scale(.009)"/><use xlink:href="#bE" transform="translate(75)scale(.009)"/><use xlink:href="#bI" transform="translate(85)scale(.009)"/></g><g id="aA"><use xlink:href="#bX" transform="scale(.009)"/><use xlink:href="#cy" transform="translate(11)scale(.009)"/><use xlink:href="#br" transform="translate(21)scale(.009)"/><use xlink:href="#be" transform="translate(32)scale(.009)"/><use xlink:href="#bl" transform="translate(43)scale(.009)"/><use xlink:href="#bm" transform="translate(53)scale(.009)"/><use xlink:href="#bq" transform="translate(64)scale(.009)"/><use xlink:href="#bh" transform="translate(75)scale(.009)"/><use xlink:href="#bG" transform="translate(85)scale(.009)"/></g><g id="aB"><use xlink:href="#cd" transform="scale(.074)"/><use xlink:href="#bN" transform="translate(18)scale(.074)"/><use xlink:href="#bN" transform="translate(33)scale(.074)"/><use xlink:href="#bR" transform="translate(47)scale(.074)"/><use xlink:href="#bd" transform="translate(55)scale(.074)"/><use xlink:href="#cr" transform="translate(68)scale(.074)"/><use xlink:href="#bc" transform="translate(81)scale(.074)"/><use xlink:href="#bO" transform="translate(96)scale(.074)"/><use xlink:href="#bS" transform="translate(102)scale(.074)"/><use xlink:href="#bc" transform="translate(110)scale(.074)"/></g><g id="aC"><use xlink:href="#cz" transform="scale(.062)"/><use xlink:href="#bc" transform="translate(16)scale(.062)"/><use xlink:href="#ci" transform="translate(28)scale(.062)"/><use xlink:href="#bQ" transform="translate(41)scale(.062)"/><use xlink:href="#bc" transform="translate(53)scale(.062)"/><use xlink:href="#aZ" transform="translate(65)scale(.062)"/><use xlink:href="#bc" transform="translate(73)scale(.062)"/><use xlink:href="#aZ" transform="translate(85)scale(.062)"/></g><g id="aD"><use xlink:href="#bN" transform="scale(.062)"/><use xlink:href="#aZ" transform="translate(12)scale(.062)"/><use xlink:href="#ba" transform="translate(20)scale(.062)"/><use xlink:href="#bb" transform="translate(32)scale(.062)"/><use xlink:href="#bc" transform="translate(43)scale(.062)"/><use xlink:href="#bd" transform="translate(55)scale(.062)"/><use xlink:href="#bd" transform="translate(67)scale(.062)"/></g><g id="aE"><use xlink:href="#bb" transform="scale(.062)"/><use xlink:href="#ba" transform="translate(11)scale(.062)"/><use xlink:href="#bQ" transform="translate(23)scale(.062)"/><use xlink:href="#bc" transform="translate(36)scale(.062)"/></g><g id="aF"><use xlink:href="#cA" transform="scale(.062)"/><use xlink:href="#bP" transform="translate(18)scale(.062)"/><use xlink:href="#ch" transform="translate(31)scale(.062)"/><use xlink:href="#ci" transform="translate(36)scale(.062)"/></g><g id="aG"><use xlink:href="#ce" transform="scale(.062)"/><use xlink:href="#cm" transform="translate(14)scale(.062)"/><use xlink:href="#ch" transform="translate(26)scale(.062)"/><use xlink:href="#bd" transform="translate(31)scale(.062)"/></g><g id="aH"><use xlink:href="#bb" transform="scale(.062)"/><use xlink:href="#ba" transform="translate(11)scale(.062)"/><use xlink:href="#bQ" transform="translate(23)scale(.062)"/><use xlink:href="#bc" transform="translate(36)scale(.062)"/></g><g id="aI"><use xlink:href="#ch" transform="scale(.062)"/><use xlink:href="#bd" transform="translate(5)scale(.062)"/></g><g id="aJ"><use xlink:href="#bQ" transform="scale(.062)"/><use xlink:href="#bc" transform="translate(12)scale(.062)"/><use xlink:href="#ct" transform="translate(25)scale(.062)"/><use xlink:href="#ch" transform="translate(31)scale(.062)"/><use xlink:href="#ci" transform="translate(36)scale(.062)"/><use xlink:href="#bc" transform="translate(48)scale(.062)"/><use xlink:href="#bQ" transform="translate(60)scale(.062)"/></g><g id="aK"><use xlink:href="#ch" transform="scale(.062)"/><use xlink:href="#ci" transform="translate(5)scale(.062)"/></g><g id="aL"><use xlink:href="#bS" transform="scale(.062)"/><use xlink:href="#cm" transform="translate(6)scale(.062)"/><use xlink:href="#bc" transform="translate(19)scale(.062)"/></g><g id="aM"><use xlink:href="#cl" transform="scale(.062)"/><use xlink:href="#bP" transform="translate(18)scale(.062)"/><use xlink:href="#ch" transform="translate(31)scale(.062)"/><use xlink:href="#ci" transform="translate(36)scale(.062)"/></g><g id="aN"><use xlink:href="#bN" transform="scale(.062)"/><use xlink:href="#aZ" transform="translate(12)scale(.062)"/><use xlink:href="#ba" transform="translate(20)scale(.062)"/><use xlink:href="#bb" transform="translate(32)scale(.062)"/><use xlink:href="#bc" transform="translate(43)scale(.062)"/><use xlink:href="#bd" transform="translate(55)scale(.062)"/><use xlink:href="#bd" transform="translate(67)scale(.062)"/><use xlink:href="#cB" transform="translate(78)scale(.062)"/></g><g id="aO"><use xlink:href="#bP" transform="scale(.062)"/><use xlink:href="#ci" transform="translate(12)scale(.062)"/><use xlink:href="#bQ" transform="translate(25)scale(.062)"/></g><g id="aP"><use xlink:href="#cC" transform="scale(.062)"/><use xlink:href="#ck" transform="translate(8)scale(.062)"/><use xlink:href="#aZ" transform="translate(20)scale(.062)"/><use xlink:href="#ch" transform="translate(28)scale(.062)"/><use xlink:href="#bQ" transform="translate(32)scale(.062)"/><use xlink:href="#cj" transform="translate(45)scale(.062)"/><use xlink:href="#bc" transform="translate(57)scale(.062)"/><use xlink:href="#bQ" transform="translate(69)scale(.062)"/><use xlink:href="#cC" transform="translate(82)scale(.062)"/></g><g id="aQ"><use xlink:href="#bS" transform="scale(.062)"/><use xlink:href="#ba" transform="translate(6)scale(.062)"/></g><g id="aR"><use xlink:href="#bS" transform="scale(.062)"/><use xlink:href="#cm" transform="translate(6)scale(.062)"/><use xlink:href="#bc" transform="translate(19)scale(.062)"/></g><g id="aS"><use xlink:href="#aZ" transform="scale(.062)"/><use xlink:href="#bc" transform="translate(7)scale(.062)"/><use xlink:href="#ci" transform="translate(20)scale(.062)"/><use xlink:href="#bQ" transform="translate(32)scale(.062)"/><use xlink:href="#bc" transform="translate(44)scale(.062)"/><use xlink:href="#aZ" transform="translate(57)scale(.062)"/><use xlink:href="#bc" transform="translate(64)scale(.062)"/><use xlink:href="#aZ" transform="translate(76)scale(.062)"/></g><g id="aT"><use xlink:href="#bN" transform="scale(.062)"/><use xlink:href="#aZ" transform="translate(12)scale(.062)"/><use xlink:href="#ba" transform="translate(20)scale(.062)"/><use xlink:href="#bb" transform="translate(32)scale(.062)"/><use xlink:href="#bc" transform="translate(43)scale(.062)"/><use xlink:href="#bd" transform="translate(55)scale(.062)"/><use xlink:href="#bd" transform="translate(67)scale(.062)"/></g><g id="aU"><use xlink:href="#cr" transform="scale(.062)"/><use xlink:href="#ch" transform="translate(11)scale(.062)"/><use xlink:href="#bP" transform="translate(16)scale(.062)"/></g><g id="aV"><use xlink:href="#bV" transform="rotate(9)scale(.011)"/><use xlink:href="#bi" transform="translate(13)scale(.01)"/><use xlink:href="#bW" transform="translate(27)scale(.01)"/><use xlink:href="#cD" transform="translate(40)scale(.01)"/><use xlink:href="#bl" transform="translate(53)scale(.01)"/><use xlink:href="#bi" transform="translate(67)scale(.01)"/><use xlink:href="#bK" transform="translate(80)scale(.01)"/><use xlink:href="#bi" transform="translate(93)scale(.01)"/><use xlink:href="#bl" transform="translate(107)scale(.01)"/><use xlink:href="#bi" transform="translate(120)scale(.01)"/><use xlink:href="#bg" transform="translate(133)scale(.01)"/><use xlink:href="#be" transform="translate(147)scale(.01)"/><use xlink:href="#bi" transform="translate(160)scale(.01)"/><use xlink:href="#br" transform="translate(173)scale(.01)"/></g><g id="aW"><use xlink:href="#ba" transform="scale(.062)"/><use xlink:href="#bN" transform="translate(12)scale(.062)"/><use xlink:href="#bS" transform="translate(25)scale(.062)"/><use xlink:href="#ch" transform="translate(31)scale(.062)"/><use xlink:href="#ba" transform="translate(36)scale(.062)"/><use xlink:href="#ci" transform="translate(48)scale(.062)"/><use xlink:href="#bR" transform="translate(60)scale(.062)"/></g><g id="aX"><use xlink:href="#cE" transform="scale(.05)"/><use xlink:href="#cF" transform="translate(10)scale(.05)"/><use xlink:href="#cG" transform="translate(21)scale(.05)"/><use xlink:href="#cH" transform="translate(32)scale(.05)"/><use xlink:href="#cI" transform="translate(37)scale(.05)"/><use xlink:href="#cJ" transform="translate(47)scale(.05)"/><use xlink:href="#cH" transform="translate(57)scale(.05)"/><use xlink:href="#cK" transform="translate(63)scale(.05)"/><use xlink:href="#cL" transform="translate(76)scale(.05)"/><use xlink:href="#cM" transform="translate(83)scale(.05)"/><use xlink:href="#cN" transform="translate(88)scale(.05)"/><use xlink:href="#cO" transform="translate(98)scale(.05)"/><use xlink:href="#cI" transform="translate(109)scale(.05)"/></g><use xlink:href="#ca" id="c" transform="scale(.009)"/><use xlink:href="#bJ" id="y" transform="scale(.009)"/><use xlink:href="#bJ" id="z" transform="scale(.009)"/><use xlink:href="#bF" id="E" transform="scale(.009)"/><use xlink:href="#bJ" id="U" transform="scale(.009)"/></defs></g></svg>